<svg version="1" xmlns="http://www.w3.org/2000/svg" width="346.667" height="346.667" viewBox="0 0 260.000000 260.000000"><path d="M111 15.3c0 .3 2.1 4.9 4.6 10.4 2.6 5.4 7.2 15.4 10.4 22.3 7.9 17 11.9 25.7 17.5 37.5 2.6 5.5 7.1 15.2 10.1 21.6 2.9 6.4 8.5 18.2 12.3 26.4 3.9 8.1 7.1 14.9 7.1 15.1 0 .2 2.7 6.1 6 13s6 12.7 6 12.9c0 .1 2.5 5.6 5.6 12.1 8.9 18.8 14.5 30.8 21.4 45.6l6.3 13.8h19.4c10.6 0 19.3-.2 19.3-.5s-2.7-6.2-6-13.1c-3.3-6.9-6-12.7-6-12.9 0-.2-3.4-7.4-7.5-16-4.1-8.7-7.5-15.9-7.5-16 0-.2-2.5-5.7-5.6-12.2-10.4-22.1-11.2-23.8-14.2-30.3-1.6-3.6-5.2-11.2-7.9-17-2.8-5.8-6.1-12.8-7.3-15.5-1.3-2.8-4.9-10.6-8.1-17.4-3.3-6.8-5.9-12.5-5.9-12.6 0-.4-11.8-25.4-16.1-34.1-9.3-18.6-27.5-31.3-47.6-33.1-3.5-.3-6.3-.3-6.3 0zM165 16c0 .5.5 1 1 1 .6 0 1 1.2 1 2.6 0 1.5.4 2.3 1 1.9.6-.4.8-1.5.5-2.6-.4-1.1-.2-1.9.4-1.9.6 0 1.1-.5 1.1-1 0-.6-1.1-1-2.5-1s-2.5.4-2.5 1zM171 19.1c0 2.3.4 3.8 1 3.4.5-.3.7-1.3.4-2.3-.5-1.6-.5-1.6.6 0 .6 1 1.5 1.8 2 1.8.6 0 1-.8 1.1-1.8.1-1.1.4-.9.9.8.8 2.4.8 2.3.9-.8.1-1.7.1-3.5.2-3.9.2-1.9-2.2-1.2-3 .9l-1 2.3v-2.3c-.1-1.3-.7-2.2-1.6-2.2-1.1 0-1.5 1.1-1.5 4.1zM96.2 45.7C91.1 56.6 87 66 87 66.7c0 .6 2.2 5.8 4.9 11.5 6.6 14 11.8 25.1 15.1 32.3 1.5 3.3 4.3 9.4 6.3 13.5 8.7 18.7 27.7 59.4 38 81.5 3.6 7.7 8.8 18.9 11.7 25 2.9 6 5.6 12 6.1 13.2.8 2.3 1.1 2.3 20.3 2.3h19.5l-2-4.6c-1-2.6-2.6-5.8-3.4-7.3-.8-1.4-2.5-5.1-3.8-8.1-2.1-4.8-17.4-37.7-27.2-58.5-1.8-3.9-12.6-27-24-51.5-27.1-58.2-27-57.9-32.4-69.5-2.6-5.5-5.8-12.4-7.1-15.3-1.3-2.8-2.6-5.2-3-5.2-.3 0-4.7 8.9-9.8 19.7zM80.1 80.2c-.8 1.8-4.3 9.3-7.8 16.6-3.4 7.4-6.3 13.5-6.3 13.7 0 .2-2.7 6.1-6.1 13.2-3.3 7-7 14.8-8.1 17.3-1.1 2.5-2.7 5.8-3.5 7.3l-1.4 2.8 29.8-.3c28.8-.3 29.9-.4 32.1-2.4 4.1-3.8 3.9-7.9-.8-17.9-9.6-20.4-11-23.5-16-34-2.9-6.1-6.1-12.9-7.1-15.3-1-2.3-2.2-4.2-2.6-4.2-.5 0-1.4 1.5-2.2 3.2zM54.5 161c-3.6 1.4-6 4.9-5.8 8.8 0 2.1 2.2 8.1 4.8 13.7 2.6 5.5 7.3 15.4 10.4 22 3.1 6.6 7.4 15.9 9.6 20.7 3.6 7.8 5.5 10.6 5.5 7.9 0-.5 2-5.1 4.4-10.2 18.5-39.5 28.8-61.5 28.9-62.4.2-1.2-54.7-1.6-57.8-.5zM37.2 172c-.5 1.4-3.1 7-5.7 12.5-5.3 11.2-10.5 22.3-14.2 30.4-1.4 3-5.2 11.1-8.4 17.9-3.2 6.9-5.9 12.6-5.9 12.8 0 .2 13.1.4 29 .4 33 0 34.1-.2 36.1-6.8 1.2-4.2 1-4.6-15.8-40.2-15.1-31.9-14-29.7-15.1-27z"/></svg>