<?xml version="1.0" standalone="no"?>
<!DOCTYPE svg PUBLIC "-//W3C//DTD SVG 1.1//EN" "http://www.w3.org/Graphics/SVG/1.1/DTD/svg11.dtd" >
<svg xmlns="http://www.w3.org/2000/svg" xmlns:xlink="http://www.w3.org/1999/xlink" version="1.1">
<metadata>
Created by FontForge 20170731 at Tue Dec 31 19:31:57 2019
 By Aleksey,,,
(c) 2019 KushJain. All rights reserved.
</metadata>
<defs>
<font id="AsfaltoMeticula-ExtraLight" horiz-adv-x="650" >
  <font-face 
    font-family="Asfalto Meticula"
    font-weight="400"
    font-stretch="normal"
    units-per-em="1000"
    panose-1="0 0 0 0 0 0 0 0 0 0"
    ascent="800"
    descent="-200"
    x-height="519"
    cap-height="700"
    bbox="-103 -211 1080.18 942"
    underline-thickness="50"
    underline-position="-225"
    unicode-range="U+0020-FB04"
  />
<missing-glyph horiz-adv-x="345" 
d="M345 699v-699h-345v699h345zM41 38h262v624h-262v-624z" />
    <glyph glyph-name="f_f" unicode="ff" horiz-adv-x="703" 
d="M247 711q50 0 82 -19l-13 -41q-17 9 -31 12.5t-31 3.5q-50 0 -71 -26t-21 -86v-35h307v36q0 155 131 155q24 0 45.5 -5t35.5 -14l-13 -41q-17 9 -30.5 12.5t-31.5 3.5q-49 0 -70.5 -26t-21.5 -87v-34h132l-15 -43h-117v-477h-45v477h-307v-477h-45v477h-79v43h79v36
q0 155 130 155z" />
    <glyph glyph-name="fi" unicode="fi" horiz-adv-x="550" 
d="M245 711q48 0 81 -19l-14 -41q-17 9 -30.5 12.5t-31.5 3.5q-49 0 -70.5 -26t-21.5 -87v-34h324v-520h-45v477h-279v-477h-45v477h-79v43h79v36q0 155 132 155z" />
    <glyph glyph-name="fl" unicode="fl" horiz-adv-x="557" 
d="M482 0h-45v477h-278v-477h-45v477h-80v43h80v36q0 155 131 155q49 0 81 -19l-13 -41q-17 9 -31 12.5t-31 3.5q-50 0 -71 -26t-21 -87v-34h278v180h45v-700z" />
    <glyph glyph-name="f_f_i" unicode="ffi" horiz-adv-x="907" 
d="M838 520v-520h-45v477h-279v-477h-45v477h-307v-477h-45v477h-79v43h79v36q0 155 130 155q50 0 82 -19l-13 -41q-17 9 -31 12.5t-31 3.5q-50 0 -71 -26t-21 -86v-35h307v36q0 155 131 155q24 0 45.5 -5t35.5 -14l-13 -41q-17 9 -30.5 12.5t-31.5 3.5q-49 0 -70.5 -26
t-21.5 -87v-34h324z" />
    <glyph glyph-name="f_f_l" unicode="ffl" horiz-adv-x="907" 
d="M793 477h-279v-477h-45v477h-307v-477h-45v477h-79v43h79v36q0 155 130 155q50 0 82 -19l-13 -41q-17 9 -31 12.5t-31 3.5q-50 0 -71 -26t-21 -86v-35h307v36q0 155 131 155q24 0 45.5 -5t35.5 -14l-13 -41q-17 9 -30.5 12.5t-31.5 3.5q-49 0 -70.5 -26t-21.5 -87v-34
h279v180h45v-700h-45v477z" />
    <glyph glyph-name="f_t" unicode="ft" horiz-adv-x="710" 
d="M249 711q24 0 45.5 -5t35.5 -14l-13 -41q-17 9 -30.5 12.5t-32.5 3.5q-48 0 -69.5 -26.5t-21.5 -86.5v-34h312v181h45v-181h114l14 -43h-128v-331q0 -60 21 -86t69 -26q19 0 33.5 4t30.5 12l14 -41q-33 -19 -83 -19q-130 0 -130 158v329h-312v-477h-45v477h-79v43h79v36
q0 155 131 155z" />
    <glyph glyph-name=".notdef" horiz-adv-x="345" 
d="M345 699v-699h-345v699h345zM41 38h262v624h-262v-624z" />
    <glyph glyph-name="uni0000" horiz-adv-x="250" 
 />
    <glyph glyph-name="uni0000" horiz-adv-x="250" 
 />
    <glyph glyph-name="nonmarkingreturn" horiz-adv-x="250" 
 />
    <glyph glyph-name="space" unicode=" " horiz-adv-x="283" 
 />
    <glyph glyph-name="exclam" unicode="!" horiz-adv-x="202" 
d="M65 29q0 15 11 26t26 11t26 -11t11 -26t-11 -26t-26 -11t-26 11t-11 26zM125 700l-1 -558h-44v558h45z" />
    <glyph glyph-name="quotedbl" unicode="&#x22;" horiz-adv-x="362" 
d="M115 554q-14 35 -25.5 67t-11.5 49t10 27.5t27 10.5t27 -10.5t10 -28.5q0 -17 -11.5 -49.5t-25.5 -65.5zM247 554q-14 35 -25.5 67t-11.5 49t10 27.5t27 10.5t27 -10.5t10 -28.5q0 -17 -11.5 -49.5t-25.5 -65.5z" />
    <glyph glyph-name="numbersign" unicode="#" horiz-adv-x="666" 
d="M458 244h143l-9 -43h-143l-43 -201h-46l43 201h-207l-43 -201h-46l43 201h-114l9 43h115l47 219h-143l9 43h143l42 196h46l-41 -196h204l42 196h46l-42 -196h116l-9 -43h-115zM254 463l-47 -219h204l47 219h-204z" />
    <glyph glyph-name="dollar" unicode="$" horiz-adv-x="567" 
d="M90 532q0 -100 199 -143q121 -27 175.5 -74t54.5 -118q0 -42 -17.5 -78t-47.5 -63t-70.5 -44t-87.5 -20v-62h-43v63q-76 8 -132.5 46t-82.5 99l38 17q11 -27 31.5 -49t47 -37.5t58.5 -24t66 -8.5q42 0 78 12.5t62.5 34.5t41 50.5t14.5 61.5q0 56 -47 92.5t-154 60.5
q-228 51 -228 181q0 36 15.5 68t43.5 56t65.5 39t82.5 18v60h43v-60q35 -1 68 -11t60.5 -26.5t48 -38t31.5 -46.5l-38 -18q-10 22 -28.5 39.5t-43.5 30t-55 19.5t-63 7q-40 0 -74 -10t-59 -28t-39 -42.5t-14 -53.5z" />
    <glyph glyph-name="percent" unicode="%" horiz-adv-x="715" 
d="M563 702h53l-462 -702h-53zM84 560q0 -22 8.5 -41.5t23 -34.5t34 -23.5t41.5 -8.5t41.5 8.5t34 23.5t23 34.5t8.5 41.5q0 23 -8.5 42.5t-23 34.5t-34 23.5t-41.5 8.5t-41.5 -8.5t-34 -23.5t-23 -35t-8.5 -42zM41 560q0 31 12 58.5t32.5 48t47.5 32.5t58 12t58.5 -12
t47.5 -32.5t32 -48t12 -58.5t-12 -58.5t-32 -47.5t-47.5 -32t-58.5 -12t-58.5 12t-47.5 32.5t-32 47.5t-12 58zM633 140q0 23 -8.5 42.5t-23 34.5t-34 23.5t-41.5 8.5t-41 -8.5t-33.5 -23.5t-23 -34.5t-8.5 -42.5q0 -22 8.5 -41.5t22.5 -34.5t33.5 -23.5t41.5 -8.5t41.5 8.5
t34 23.5t23 34.5t8.5 41.5zM676 140q0 -31 -12 -58.5t-32 -47.5t-47.5 -32t-58.5 -12t-58 12t-47.5 32.5t-32.5 47.5t-12 58t12 58.5t32.5 48t47.5 32.5t58 12t58.5 -12t47.5 -32.5t32 -48t12 -58.5z" />
    <glyph glyph-name="ampersand" unicode="&#x26;" horiz-adv-x="701" 
d="M489 111q-63 60 -126.5 130.5t-123.5 143.5q-75 -35 -108 -76t-33 -98q0 -39 14 -71.5t40 -56t62.5 -36t80.5 -12.5q54 0 103.5 19.5t90.5 56.5zM180 573q0 -13 4.5 -28t16 -34.5t31.5 -46t51 -63.5q54 -66 114.5 -131.5t120.5 -125.5q24 27 41 67t28 91l45 -5
q-11 -56 -32 -103t-51 -82l80 -77l-30 -32l-79 76q-51 -44 -108 -66.5t-118 -22.5q-52 0 -96.5 16t-76.5 45t-50 68.5t-18 86.5q0 70 41 125.5t117 87.5q-38 47 -57 84t-19 70q0 29 12 54t33 43.5t49.5 29t61.5 10.5t62 -11t50 -30.5t33.5 -45.5t12.5 -56h-45q0 21 -9 39
t-25 31.5t-37 21t-45 7.5q-23 0 -42.5 -7.5t-34 -20t-23 -29.5t-8.5 -36z" />
    <glyph glyph-name="quotesingle" unicode="'" horiz-adv-x="214" 
d="M107 554q-14 35 -25.5 67t-11.5 49t10 27.5t27 10.5t27 -10.5t10 -28.5q0 -17 -11.5 -49.5t-25.5 -65.5z" />
    <glyph glyph-name="parenleft" unicode="(" horiz-adv-x="372" 
d="M59 312q0 129 54 245t152 200l28 -31q-189 -180 -189 -413q0 -117 45 -217.5t144 -197.5l-28 -31q-48 41 -86.5 92t-65 108t-40.5 119t-14 126z" />
    <glyph glyph-name="parenright" unicode=")" horiz-adv-x="372" 
d="M78 -102q99 97 144.5 198t45.5 217q0 233 -190 413l28 31q99 -84 153 -200t54 -245q0 -64 -14 -126t-40.5 -119t-65 -108t-86.5 -92z" />
    <glyph glyph-name="asterisk" unicode="*" horiz-adv-x="407" 
d="M215 538q3 -30 7 -59t4 -52q0 -46 -23 -46t-23 47q0 19 3 46t7 64q-11 -8 -26 -19t-30.5 -21t-29 -18.5t-22.5 -12.5q-13 -6 -23 -6q-14 0 -19 10q-5 9 0.5 19.5t18.5 16.5q7 3 24 11t36.5 17t37 17t24.5 11q-6 3 -23 9.5t-36 13.5t-36 13.5t-24 9.5q-15 6 -21.5 16
t-1.5 20q6 12 20 12q12 0 25 -6q11 -5 26 -13.5t30 -18.5t28.5 -18.5t21.5 -13.5q-3 29 -6.5 58.5t-3.5 49.5q0 46 23 46t23 -45q0 -23 -4 -51t-7 -57q12 8 27.5 17l31 18t30 16t25.5 11q6 2 10.5 3t9.5 1q12 0 18 -10q9 -18 -23 -37q-17 -10 -51 -22t-70 -22
q11 -4 29.5 -12.5t38 -17t36 -15.5t22.5 -10q11 -5 16.5 -15.5t1.5 -20.5q-5 -11 -18 -11q-11 0 -29 9q-9 4 -21.5 12t-26.5 17.5t-29 19.5t-28 19z" />
    <glyph glyph-name="plus" unicode="+" horiz-adv-x="618" 
d="M539 328h-209v-206h-45v206h-211v45h211v206h45v-206h209v-45z" />
    <glyph glyph-name="comma" unicode="," horiz-adv-x="233" 
d="M157 14q0 -33 -13 -57t-42 -44l-18 30q12 9 21.5 22t9.5 31q-17 -1 -28.5 11.5t-11.5 26.5q0 16 11 28t28 12q22 0 32.5 -19t10.5 -41z" />
    <glyph glyph-name="hyphen" unicode="-" horiz-adv-x="366" 
d="M313 323v-44h-259v44h259z" />
    <glyph glyph-name="period" unicode="." horiz-adv-x="222" 
d="M73 33q0 16 11 27.5t27 11.5q15 0 26.5 -11.5t11.5 -27.5q0 -17 -11.5 -28t-26.5 -11q-16 0 -27 11t-11 28z" />
    <glyph glyph-name="slash" unicode="/" horiz-adv-x="382" 
d="M397 744l-374 -804h-49l375 804h48z" />
    <glyph glyph-name="zero" unicode="0" horiz-adv-x="681" 
d="M586 347q0 65 -19.5 122.5t-53 101t-78 69t-94.5 25.5t-95 -25t-78.5 -68.5t-53 -101.5t-19.5 -123q0 -64 19.5 -121.5t53.5 -100t78.5 -67.5t95.5 -25t95.5 24.5t77.5 67.5t52 100t19 122zM50 347q0 74 23 140t62 115.5t91.5 78t112.5 28.5t113 -28.5t93 -78t63 -115.5
t23 -140q0 -73 -23 -138.5t-62.5 -114t-92.5 -77t-113 -28.5t-112.5 28.5t-92 77t-62.5 114t-23 138.5z" />
    <glyph glyph-name="one" unicode="1" horiz-adv-x="367" 
d="M251 701v-701h-45v651l-140 -120l-14 44l146 126h53z" />
    <glyph glyph-name="two" unicode="2" horiz-adv-x="590" 
d="M78 55l317 270q52 44 73.5 80.5t21.5 78.5q0 38 -15.5 71.5t-42.5 58t-63 38.5t-77 14q-31 0 -60.5 -8.5t-54.5 -24t-44 -38t-30 -49.5l-41 18q14 33 37.5 60t54 46.5t66.5 30t74 10.5q50 0 94 -17.5t76.5 -48.5t51.5 -71.5t19 -87.5q0 -51 -25 -95.5t-80 -92.5
l-298 -255h399v-43h-453v55z" />
    <glyph glyph-name="three" unicode="3" horiz-adv-x="594" 
d="M524 650l-200 -207q45 -3 84 -21t67 -47.5t44 -68t16 -82.5q0 -49 -19.5 -92t-53.5 -75t-80 -50.5t-99 -18.5q-72 0 -135 35t-100 98l37 22q32 -54 83 -82.5t111 -28.5q45 0 83.5 15.5t67.5 41.5t45.5 61.5t16.5 75.5q0 39 -16 72t-45 56.5t-68.5 37t-87.5 13.5h-10
l-10 29l215 223h-407v43h461v-50z" />
    <glyph glyph-name="four" unicode="4" horiz-adv-x="597" 
d="M88 193h338v452zM38 199q22 30 52.5 70.5t64.5 86.5t70 94l70.5 94t64.5 86.5t53 70.5h58v-508h94v-43h-94v-150h-45v150h-388v49z" />
    <glyph glyph-name="five" unicode="5" horiz-adv-x="598" 
d="M91 700h426v-43h-385l-14 -251q44 32 89 45.5t94 13.5q55 0 101.5 -18t80 -49.5t52.5 -75t19 -94.5q0 -52 -19.5 -96t-54.5 -76t-84.5 -49.5t-108.5 -17.5q-67 0 -125 26t-110 82l16 49q43 -55 99.5 -83.5t124.5 -28.5q48 0 88 14t68.5 39.5t44.5 61.5t16 79t-15 78
t-42.5 60.5t-65.5 39.5t-83 14q-30 0 -59.5 -6t-56 -17t-47.5 -25.5t-35 -32.5l-33 17z" />
    <glyph glyph-name="six" unicode="6" horiz-adv-x="583" 
d="M532 211q0 -47 -17.5 -87.5t-49 -70t-73.5 -46.5t-92 -17q-54 0 -99 20t-78 56t-51 86t-18 110q0 93 31 172.5t87 138t133 92.5t168 36l-14 -44q-66 -2 -126.5 -28t-108.5 -69.5t-79 -101.5t-39 -124q33 44 85 68t112 24q48 0 90 -16.5t73 -45.5t48.5 -68.5t17.5 -84.5z
M106 215q0 -37 15.5 -69.5t42.5 -57t62.5 -39t75.5 -14.5q39 0 73 13.5t58.5 37t39 56t14.5 69.5t-14 68t-39 53.5t-59 35.5t-74 13q-42 0 -77.5 -12.5t-61.5 -35t-41 -52.5t-15 -66z" />
    <glyph glyph-name="seven" unicode="7" horiz-adv-x="570" 
d="M530 650l-361 -650h-51l365 657h-443v43h490v-50z" />
    <glyph glyph-name="eight" unicode="8" horiz-adv-x="582" 
d="M38 198q0 61 39 110t108 75q-25 11 -46.5 27.5t-37 37t-24 44.5t-8.5 49q0 38 18 69t48.5 53.5t70.5 35t84 12.5t84 -12.5t70 -35.5t48 -55t18 -70q0 -51 -31 -92.5t-82 -62.5q69 -26 107.5 -75t38.5 -110q0 -45 -20.5 -83.5t-55.5 -66t-81 -43.5t-96 -16t-95.5 16
t-80.5 43.5t-55.5 66t-20.5 83.5zM290 668q-35 0 -67 -9.5t-57 -26.5t-39.5 -40t-14.5 -51q0 -30 15 -55t40 -43.5t57 -29t66 -10.5q35 0 67 10t56.5 28t39 42.5t14.5 54.5q0 29 -14.5 52.5t-39 41t-56.5 27t-67 9.5zM291 34q42 0 79.5 12t66 33t45 51t16.5 66t-16.5 66
t-45 51.5t-66.5 33.5t-80 12t-80 -12t-66 -33t-44.5 -51t-16.5 -66t17 -66t45.5 -51.5t66 -33.5t79.5 -12z" />
    <glyph glyph-name="nine" unicode="9" horiz-adv-x="584" 
d="M43 490q0 47 17.5 87.5t49 70t74 46.5t91.5 17q54 0 99 -20t78 -56t51 -86t18 -110q0 -93 -31 -172t-87 -137.5t-132.5 -92.5t-168.5 -36l14 44q66 2 126.5 28t108.5 69.5t79 101t39 123.5q-33 -44 -85 -68t-112 -24q-48 0 -90 16.5t-73 45.5t-48.5 68.5t-17.5 84.5z
M469 487q0 36 -15.5 68.5t-42.5 57t-62.5 39t-75.5 14.5q-39 0 -73 -13.5t-58.5 -37t-39 -55.5t-14.5 -70q0 -36 14 -67.5t39 -54t59 -35.5t74 -13q42 0 77.5 12.5t61.5 35t41 53t15 66.5z" />
    <glyph glyph-name="colon" unicode=":" horiz-adv-x="326" 
d="M125 32q0 16 11 27.5t27 11.5q15 0 26.5 -11.5t11.5 -27.5t-11.5 -27.5t-26.5 -11.5q-16 0 -27 11.5t-11 27.5zM125 454q0 16 11 27.5t27 11.5q15 0 26.5 -11.5t11.5 -27.5t-11.5 -27.5t-26.5 -11.5q-16 0 -27 11.5t-11 27.5z" />
    <glyph glyph-name="semicolon" unicode=";" horiz-adv-x="283" 
d="M182 14q0 -65 -55 -101l-18 29q12 9 21.5 22t9.5 32q-17 -1 -28.5 11.5t-11.5 26.5q0 16 11 27.5t28 11.5q22 0 32.5 -18.5t10.5 -40.5zM103 456q0 16 11.5 27.5t27.5 11.5q15 0 26.5 -11.5t11.5 -27.5q0 -17 -11.5 -28t-26.5 -11q-16 0 -27.5 11t-11.5 28z" />
    <glyph glyph-name="less" unicode="&#x3c;" horiz-adv-x="606" 
d="M57 377l454 220v-48l-409 -199l409 -199v-48l-454 220v54z" />
    <glyph glyph-name="equal" unicode="=" horiz-adv-x="550" 
d="M462 454v-43h-374v43h374zM462 237v-43h-374v43h374z" />
    <glyph glyph-name="greater" unicode="&#x3e;" horiz-adv-x="606" 
d="M546 324l-454 -221v49l407 198l-407 198v49l454 -221v-52z" />
    <glyph glyph-name="question" unicode="?" horiz-adv-x="484" 
d="M168 32q0 16 11 27t27 11t27.5 -11t11.5 -27q0 -17 -11.5 -28.5t-27.5 -11.5t-27 12t-11 28zM183 150v172q35 14 74.5 28.5t72.5 36t54.5 52.5t21.5 79q0 70 -44.5 109t-124.5 39q-55 0 -93.5 -21t-67.5 -69l-36 23q33 58 80.5 85t115.5 27q49 0 89 -13.5t68 -39t43 -62
t15 -82.5q0 -40 -13.5 -72t-41.5 -58t-69.5 -48.5t-98.5 -43.5v-142h-45z" />
    <glyph glyph-name="at" unicode="@" horiz-adv-x="899" 
d="M554 236q-32 -33 -73 -52t-83 -19q-33 0 -60.5 11.5t-47.5 32t-31 49t-11 61.5q0 42 17.5 81t46.5 68.5t67 47t79 17.5q37 0 69.5 -14t54.5 -40l6 39h45q-11 -59 -19.5 -111.5t-14.5 -86.5q-22 -119 61 -119q50 0 79.5 41t29.5 110q0 62 -26 119t-70 100.5t-101 69.5
t-120 26t-121.5 -26t-103 -70t-71 -102t-26.5 -122t25.5 -122t69 -102.5t100.5 -70.5t119 -26q44 0 86.5 12t77.5 37l23 -37q-42 -28 -89.5 -41.5t-98.5 -13.5q-71 0 -136 29.5t-114 79t-78 115.5t-29 139t30 139t80 116t116 79.5t138 29.5t137.5 -29.5t115.5 -79t80 -114.5
t30 -136q0 -43 -11 -78.5t-31 -61t-48 -39.5t-62 -14q-41 0 -67 18.5t-40 59.5zM565 393q3 20 -4 37t-22 30.5t-36.5 21t-46.5 7.5q-33 0 -62.5 -14t-52 -37.5t-35.5 -54t-13 -64.5q0 -50 29.5 -79.5t79.5 -29.5q37 0 71 18.5t76 62.5z" />
    <glyph glyph-name="A" unicode="A" horiz-adv-x="683" 
d="M342 653l-151 -380h301zM372 700l277 -700h-49l-91 230h-335l-91 -230h-48l277 700h60z" />
    <glyph glyph-name="B" unicode="B" horiz-adv-x="613" 
d="M133 657v-251h205q27 0 51 10t42 27.5t28.5 40.5t10.5 48q0 27 -11 49.5t-30 39.5t-44.5 26.5t-54.5 9.5h-197zM133 363v-319h186q41 0 77 12t62.5 34t42 51.5t15.5 63.5q0 33 -14 62t-38 50t-55.5 33.5t-66.5 12.5h-209zM88 1v699h241q38 0 72 -12.5t59.5 -34.5t40 -53
t14.5 -67q0 -43 -21.5 -80.5t-64.5 -63.5q63 -28 97.5 -75t34.5 -107q0 -46 -19 -84t-52 -65t-77 -42t-94 -15h-231z" />
    <glyph glyph-name="C" unicode="C" horiz-adv-x="665" 
d="M624 80q-42 -42 -103.5 -66.5t-126.5 -24.5q-70 0 -132 28.5t-109 78t-74.5 115.5t-27.5 140t27.5 139t74.5 114.5t109.5 78t132.5 28.5q65 0 125.5 -24.5t102.5 -67.5l-31 -30q-38 36 -90.5 57.5t-105.5 21.5q-62 0 -116.5 -25t-95.5 -68t-64.5 -101t-23.5 -123
q0 -66 24 -124t64.5 -101.5t95.5 -68.5t116 -25q54 0 106 21t91 58z" />
    <glyph glyph-name="D" unicode="D" horiz-adv-x="718" 
d="M130 658v-615h163q76 0 137 23t104 64.5t66 97.5t23 122q0 65 -23.5 121.5t-66.5 98t-104 65t-136 23.5h-163zM85 0v701h208q85 0 154 -27.5t118 -75t76 -111.5t27 -138q0 -75 -26.5 -138.5t-75.5 -110.5t-118 -73.5t-155 -26.5h-208z" />
    <glyph glyph-name="E" unicode="E" horiz-adv-x="573" 
d="M77 0v699h453v-43h-408v-248h359v-43h-359v-322h408v-43h-453z" />
    <glyph glyph-name="F" unicode="F" horiz-adv-x="567" 
d="M76 700h454v-43h-409v-248h359v-43h-359v-366h-45v700z" />
    <glyph glyph-name="G" unicode="G" horiz-adv-x="694" 
d="M628 347v-261q-51 -48 -111 -72.5t-126 -24.5q-71 0 -134 28t-109.5 77t-73.5 114.5t-27 140.5t27 140.5t73.5 115t109 78t132.5 28.5q64 0 122.5 -22.5t99.5 -60.5l-22 -39q-41 38 -92 58t-106 20q-62 0 -116 -25t-94.5 -68t-64 -100.5t-23.5 -123.5t23.5 -123.5
t63.5 -100.5t93.5 -68t112.5 -25q28 0 56 5.5t54 15t48.5 23t38.5 29.5v197h-183v44h228z" />
    <glyph glyph-name="H" unicode="H" horiz-adv-x="677" 
d="M546 410v292h45v-702h-45v367h-415v-367h-45v702h45v-292h415z" />
    <glyph glyph-name="I" unicode="I" horiz-adv-x="246" 
d="M145 700v-700h-45v700h45z" />
    <glyph glyph-name="J" unicode="J" horiz-adv-x="420" 
d="M346 194q0 -43 -13 -80.5t-37 -65t-57.5 -43t-74.5 -15.5q-35 0 -69.5 12.5t-57.5 35.5l14 43q20 -22 51.5 -34t62.5 -12t56 12t43 33.5t27.5 50.5t9.5 63v506h45v-506z" />
    <glyph glyph-name="K" unicode="K" horiz-adv-x="583" 
d="M553 -1h-54l-258 378l-115 -119v-259h-45v702h45v-382l363 382h59l-276 -291z" />
    <glyph glyph-name="L" unicode="L" horiz-adv-x="549" 
d="M84 0v700h45v-657h375v-43h-420z" />
    <glyph glyph-name="M" unicode="M" horiz-adv-x="809" 
d="M377 316l-248 329v-645h-45v700h61l258 -343l259 343h63v-700h-45v648l-253 -332h-50z" />
    <glyph glyph-name="N" unicode="N" horiz-adv-x="750" 
d="M607 0l-478 643v-643h-45v700h59l478 -643v643h45v-700h-59z" />
    <glyph glyph-name="O" unicode="O" horiz-adv-x="783" 
d="M690 350q0 66 -23.5 124t-64 100.5t-95 67.5t-116.5 25t-116 -25t-94.5 -68t-64 -100.5t-23.5 -123.5q0 -65 23.5 -123t64 -101t95 -68t116.5 -25t116 25t94.5 68t64 100.5t23.5 123.5zM48 349q0 75 27 141t73.5 115t109.5 77.5t134 28.5t133.5 -28.5t109 -77
t73.5 -114.5t27 -141t-27 -141t-73.5 -114.5t-109 -77t-133.5 -28.5t-134 28t-109.5 77t-73.5 114.5t-27 140.5z" />
    <glyph glyph-name="P" unicode="P" horiz-adv-x="621" 
d="M126 335h213q40 0 74.5 12.5t60 34t40 50.5t14.5 63q0 35 -14.5 65t-40 51.5t-60.5 34t-75 12.5h-212v-323zM81 701h257q49 0 92 -16t74.5 -43.5t50 -65t18.5 -81.5q0 -42 -18 -79t-49.5 -64.5t-74.5 -43.5t-92 -16h-213v-292h-45v701z" />
    <glyph glyph-name="Q" unicode="Q" horiz-adv-x="797" 
d="M399 667q-61 0 -115.5 -25t-95 -68t-64.5 -100.5t-24 -123.5t23.5 -124t64.5 -101t95.5 -67.5t115.5 -24.5q44 0 83 12.5t79 38.5l-109 110l31 32l113 -114q47 44 74 107.5t27 131.5q0 65 -23.5 122.5t-64 100.5t-94.5 68t-116 25zM55 350q0 74 27.5 139.5t74.5 114.5
t109 78t131 29q72 0 135 -28.5t109.5 -77.5t73.5 -114.5t27 -139.5q0 -80 -29.5 -148.5t-84.5 -122.5l44 -45l-31 -31l-48 48q-48 -33 -95 -47.5t-98 -14.5q-72 0 -135 28t-109.5 76.5t-73.5 114.5t-27 141z" />
    <glyph glyph-name="R" unicode="R" horiz-adv-x="620" 
d="M527 495q0 35 -14.5 64.5t-39.5 51.5t-59.5 34t-75.5 12h-212v-322h216q40 0 74 12t58.5 33.5t38.5 51t14 63.5zM126 292v-292h-45v700h257q50 0 92.5 -15.5t74 -43.5t49.5 -65.5t18 -81.5q0 -43 -17.5 -80t-48 -64t-72.5 -42.5t-91 -15.5h-55l259 -292h-60l-259 292
h-102z" />
    <glyph glyph-name="S" unicode="S" horiz-adv-x="567" 
d="M77 157q22 -54 78 -87t126 -33q42 0 77.5 12t61.5 33.5t40.5 51t14.5 63.5q0 57 -45.5 92t-150.5 59q-119 26 -176 71t-57 112q0 39 17.5 71.5t48 56.5t73 37.5t92.5 13.5q80 0 141.5 -33t85.5 -89l-38 -17q-20 43 -71.5 69t-117.5 26q-40 0 -74 -10t-59 -28t-39 -42
t-14 -53q0 -51 48 -86t151 -58q120 -26 175 -72t55 -118q0 -43 -18.5 -81t-51 -66t-76.5 -44t-94 -16q-41 0 -78.5 10.5t-69.5 30t-56 46.5t-38 60z" />
    <glyph glyph-name="T" unicode="T" horiz-adv-x="590" 
d="M554 657h-236v-657h-45v657h-236v43h517v-43z" />
    <glyph glyph-name="U" unicode="U" horiz-adv-x="744" 
d="M84 700h45v-453q0 -44 19.5 -83t52.5 -68t78 -46t96 -17q50 0 94 16.5t76.5 45.5t51 68t18.5 84v453h45v-453q0 -53 -22.5 -100t-61 -82t-90.5 -55.5t-111 -20.5t-112 20.5t-92.5 56t-63 82.5t-23.5 99v453z" />
    <glyph glyph-name="V" unicode="V" horiz-adv-x="669" 
d="M307 0l-276 700h48l255 -647l256 647h48l-276 -700h-55z" />
    <glyph glyph-name="W" unicode="W" horiz-adv-x="1076" 
d="M566 643l206 -587l221 645h47l-241 -701h-55l-206 587l-205 -587h-56l-241 701h47l222 -645l205 587h56z" />
    <glyph glyph-name="X" unicode="X" horiz-adv-x="589" 
d="M510 0l-216 319l-216 -319h-53l241 357l-232 344h54l206 -306l206 306h54l-232 -343l242 -358h-54z" />
    <glyph glyph-name="Y" unicode="Y" horiz-adv-x="611" 
d="M34 700h53l218 -354l221 354h52l-251 -401v-299h-45v299z" />
    <glyph glyph-name="Z" unicode="Z" horiz-adv-x="621" 
d="M37 52l503 604h-498v44h549v-52l-504 -605h491v-43h-541v52z" />
    <glyph glyph-name="bracketleft" unicode="[" horiz-adv-x="354" 
d="M97 -89v842h177v-44h-132v-754h132v-44h-177z" />
    <glyph glyph-name="backslash" unicode="\" horiz-adv-x="391" 
d="M361 -58l-372 798h48l372 -798h-48z" />
    <glyph glyph-name="bracketright" unicode="]" horiz-adv-x="352" 
d="M250 -89h-176v44h131v754h-131v44h176v-842z" />
    <glyph glyph-name="asciicircum" unicode="^" horiz-adv-x="705" 
d="M377 694l194 -244h-52l-167 202l-166 -202h-52l194 244h49z" />
    <glyph glyph-name="underscore" unicode="_" horiz-adv-x="546" 
d="M520 -160v-43h-495v43h495z" />
    <glyph glyph-name="grave" unicode="`" horiz-adv-x="234" 
d="M40 681l54 17l57 -116h-35z" />
    <glyph glyph-name="a" unicode="a" 
d="M532 260q0 47 -17.5 88t-47.5 72t-70 49t-86 18t-86.5 -18t-70.5 -49.5t-47.5 -72.5t-17.5 -88q0 -46 17.5 -87.5t47.5 -72t70.5 -48.5t86.5 -18t86 18t70 48.5t47.5 72t17.5 88.5zM311 531q67 0 125.5 -33t95.5 -93v115h46v-520h-46v115q-35 -60 -94 -93t-127 -33
q-55 0 -104 21.5t-85.5 58t-57.5 86t-21 104.5q0 56 21 105.5t57.5 86.5t85.5 58.5t104 21.5z" />
    <glyph glyph-name="b" unicode="b" horiz-adv-x="651" 
d="M117 260q0 -47 17.5 -88.5t48 -72.5t71 -49t86.5 -18t86.5 18t70.5 49t47.5 72.5t17.5 87.5q0 47 -17.5 88t-47.5 72.5t-70.5 49.5t-86.5 18t-86.5 -18t-71 -49t-48 -72t-17.5 -88zM340 531q55 0 104 -21.5t85.5 -58.5t57.5 -86.5t21 -105.5t-21 -105.5t-58 -86
t-85.5 -58t-104.5 -21.5q-67 0 -124.5 32t-96.5 94v-114h-46v700h46v-294q37 59 95.5 92t126.5 33z" />
    <glyph glyph-name="c" unicode="c" horiz-adv-x="527" 
d="M464 424q-29 30 -69 47t-85 17q-46 0 -86.5 -18.5t-71 -49.5t-48 -72.5t-17.5 -87.5q0 -47 18 -88.5t48.5 -72t72 -48.5t87.5 -18q44 0 83 16t69 47l31 -31q-35 -36 -83 -55.5t-101 -19.5q-56 0 -105.5 21.5t-86 58t-58 86t-21.5 104.5t21 104.5t57.5 86.5t85.5 58.5
t105 21.5q53 0 101.5 -20t84.5 -56z" />
    <glyph glyph-name="d" unicode="d" 
d="M532 260q0 47 -17.5 88t-48 72t-71 49t-86.5 18t-86 -18t-70 -49.5t-47.5 -72.5t-17.5 -88q0 -46 17.5 -87.5t47.5 -72.5t70 -49t86 -18t86.5 18t71 49t48 72.5t17.5 88.5zM309 531q68 0 126.5 -33t95.5 -92v294h47v-700h-47v114q-39 -62 -96 -94t-125 -32
q-55 0 -104 21.5t-86 58t-58 86t-21 105.5t21 105.5t57.5 86.5t85.5 58.5t104 21.5z" />
    <glyph glyph-name="e" unicode="e" horiz-adv-x="617" 
d="M532 283q-4 44 -23 81.5t-48.5 64.5t-68 42.5t-82.5 15.5q-43 0 -80.5 -15t-67 -42t-49 -64.5t-25.5 -82.5h444zM511 79q-36 -43 -88.5 -66.5t-112.5 -23.5q-56 0 -105.5 21.5t-86 58t-57.5 86t-21 106.5q0 56 21.5 105.5t58 86t86 57.5t105.5 21q59 0 109 -22.5
t86.5 -62t56 -92.5t17.5 -115h-492q3 -43 22 -81t49 -65.5t69 -43.5t82 -16q51 0 95.5 20.5t74.5 56.5z" />
    <glyph glyph-name="f" unicode="f" horiz-adv-x="350" 
d="M318 651q-17 9 -31 12.5t-31 3.5q-49 0 -70.5 -26t-21.5 -87v-34h130l-14 -43h-116v-477h-45v477h-79v43h79v36q0 155 131 155q49 0 81 -19z" />
    <glyph glyph-name="g" unicode="g" horiz-adv-x="631" 
d="M42 268q0 54 20 101.5t54.5 83t80.5 55.5t99 20q66 0 122.5 -31.5t91.5 -88.5v111h45v-505q0 -48 -19 -88.5t-52.5 -70t-79.5 -46.5t-101 -17q-53 0 -97.5 16.5t-78.5 50.5l15 46q59 -68 162 -68q45 0 82.5 13.5t65 37t43 55.5t15.5 69v110q-35 -57 -89.5 -88.5
t-120.5 -31.5q-53 0 -100 21t-82 57t-55.5 84.5t-20.5 103.5zM301 47q44 0 82.5 16.5t66.5 46t44 69.5t16 86q0 47 -16 87t-44.5 69t-67.5 46t-84 17t-83.5 -16.5t-67 -46t-44.5 -69t-16 -85.5t16.5 -86t45.5 -70t68 -47t84 -17z" />
    <glyph glyph-name="h" unicode="h" horiz-adv-x="624" 
d="M335 528q46 0 85.5 -18.5t68 -51t44.5 -77t16 -97.5v-283h-45v283q0 44 -12.5 80t-35 62.5t-54 41t-68.5 14.5q-42 0 -80 -18t-67.5 -47.5t-47 -67.5t-17.5 -79v-269h-46v701h46v-301q38 59 94 93t119 34z" />
    <glyph glyph-name="i" unicode="i" horiz-adv-x="213" 
d="M75 656q0 14 8.5 23t22.5 9t23 -9t9 -23t-9 -23t-23 -9t-22.5 9t-8.5 23zM129 520v-520h-45v520h45z" />
    <glyph glyph-name="j" unicode="j" horiz-adv-x="214" 
d="M129 -50q0 -158 -134 -158q-47 0 -80 23l14 41q27 -20 67 -20q47 0 67.5 27t20.5 87v570h45v-570zM75 657q0 14 9 22.5t23 8.5t23 -9t9 -22q0 -14 -9 -23.5t-23 -9.5t-23 9.5t-9 23.5z" />
    <glyph glyph-name="k" unicode="k" horiz-adv-x="553" 
d="M494 520l-211 -177l231 -343h-56l-211 313l-118 -99v-213h-46v700h46v-428l295 247h70z" />
    <glyph glyph-name="l" unicode="l" horiz-adv-x="220" 
d="M133 701v-700h-45v700h45z" />
    <glyph glyph-name="m" unicode="m" horiz-adv-x="943" 
d="M670 531q42 0 77 -15t60 -42.5t39 -65.5t14 -84v-324h-45v314q0 81 -38 126t-104 45q-37 0 -70 -14t-57.5 -38.5t-39 -57t-14.5 -68.5v-307h-46v320q0 36 -11 66.5t-31 52t-47.5 34t-60.5 12.5q-36 0 -68 -15t-55.5 -40.5t-37.5 -60t-14 -73.5v-296h-45v520h45v-95
q31 50 78 78t102 28q60 0 105.5 -32.5t68.5 -92.5q29 59 80.5 92t114.5 33z" />
    <glyph glyph-name="n" unicode="n" horiz-adv-x="594" 
d="M319 530q44 0 81.5 -16t64.5 -44t42.5 -66.5t15.5 -82.5v-321h-46v321q0 35 -12 65t-33.5 51.5t-51.5 34t-67 12.5q-39 0 -73.5 -14.5t-61 -40t-41.5 -59.5t-15 -73v-297h-46v519h46v-93q28 47 81.5 75.5t115.5 28.5z" />
    <glyph glyph-name="o" unicode="o" horiz-adv-x="620" 
d="M534 259q0 47 -17.5 88.5t-48 73t-71 49.5t-86.5 18t-86.5 -18.5t-71.5 -49.5t-49 -72.5t-18 -88.5q0 -46 18 -87t49 -72t71.5 -49t86.5 -18t86.5 17.5t71 48.5t48 72t17.5 88zM40 259q0 56 21.5 106t58 87t86 58.5t105.5 21.5t105 -21.5t85.5 -58.5t57.5 -86.5
t21 -106.5q0 -56 -21 -105.5t-57.5 -86t-85.5 -57.5t-105 -21t-105.5 21t-86 58t-58 86t-21.5 105z" />
    <glyph glyph-name="p" unicode="p" 
d="M120 260q0 -46 17.5 -87.5t47.5 -72t70.5 -48.5t86.5 -18t86.5 18t70.5 48.5t47.5 72t17.5 87.5q0 47 -17.5 88.5t-47.5 72t-70.5 48.5t-86.5 18t-86.5 -18t-70.5 -48.5t-47.5 -72t-17.5 -88.5zM342 -10q-68 0 -126.5 32.5t-94.5 92.5v-314h-46v719h46v-115q36 60 95 93
t126 33q55 0 104 -21.5t85.5 -58t57.5 -86t21 -105.5q0 -55 -21 -104.5t-57.5 -86t-85 -58t-104.5 -21.5z" />
    <glyph glyph-name="q" unicode="q" 
d="M530 260q0 47 -17.5 88.5t-47.5 72t-70 48.5t-86 18t-86.5 -18t-70.5 -48.5t-47.5 -72t-17.5 -88.5q0 -46 17.5 -87.5t47.5 -72t70.5 -48.5t86.5 -18t86 18t70 48.5t47.5 72t17.5 87.5zM309 -10q-55 0 -104 21.5t-85.5 58t-57.5 86t-21 104.5q0 56 21 105.5t57.5 86
t85.5 58t104 21.5q67 0 126 -33t95 -93v115h46v-719h-46v314q-36 -60 -94.5 -92.5t-126.5 -32.5z" />
    <glyph glyph-name="r" unicode="r" horiz-adv-x="377" 
d="M123 407q42 66 101.5 92t135.5 26l-15 -47q-47 0 -87.5 -15.5t-70.5 -43.5t-47 -67.5t-17 -87.5v-264h-46v519h46v-112z" />
    <glyph glyph-name="s" unicode="s" horiz-adv-x="473" 
d="M74 126q23 -44 63.5 -68t91.5 -24q31 0 59 8.5t49 23.5t33.5 36.5t12.5 47.5q0 35 -25 55t-62.5 34t-81.5 25t-81.5 26t-62.5 38.5t-25 62.5q0 30 14.5 56t40 44.5t59 29t71.5 10.5q61 0 110.5 -25t72.5 -71l-39 -22q-19 35 -57.5 54t-84.5 19q-28 0 -53.5 -7t-45 -19.5
t-31 -29.5t-11.5 -37q0 -28 25 -44t63 -28.5t81.5 -23.5t81.5 -28.5t63 -45t25 -71.5q0 -36 -16 -66t-43.5 -51.5t-64 -33.5t-77.5 -12q-65 0 -116.5 30.5t-77.5 84.5z" />
    <glyph glyph-name="t" unicode="t" horiz-adv-x="350" 
d="M324 8q-33 -19 -83 -19q-130 0 -130 158v330h-74v43h74v180h45v-180h113l15 -43h-128v-332q0 -60 21 -86t69 -26q19 0 33.5 4t30.5 12z" />
    <glyph glyph-name="u" unicode="u" horiz-adv-x="595" 
d="M279 -11q-44 0 -81.5 16t-64.5 44t-42.5 66t-15.5 82v322h46v-322q0 -34 12 -64t33.5 -51.5t51.5 -34t67 -12.5q39 0 73.5 14.5t60.5 40t41 59.5t15 73v297h46v-520h-46v93q-28 -47 -81.5 -75t-114.5 -28z" />
    <glyph glyph-name="v" unicode="v" horiz-adv-x="531" 
d="M237 0l-207 520h49l187 -466l186 466h49l-207 -520h-57z" />
    <glyph glyph-name="w" unicode="w" horiz-adv-x="851" 
d="M453 509l156 -429l161 440h48l-190 -520h-37l-165 450l-165 -450h-40l-189 520h48l162 -443l157 432h54z" />
    <glyph glyph-name="x" unicode="x" horiz-adv-x="523" 
d="M440 0l-178 243l-178 -243h-57l208 283l-173 237h57l143 -197l142 197h57l-173 -236l209 -284h-57z" />
    <glyph glyph-name="y" unicode="y" horiz-adv-x="567" 
d="M84 -149q32 -13 56 -13q26 0 43.5 13.5t30.5 35t22.5 48.5t20.5 54l-225 531h50l200 -474l204 474h50l-275 -640q-19 -44 -50.5 -66t-70.5 -22q-33 0 -70 17z" />
    <glyph glyph-name="z" unicode="z" horiz-adv-x="494" 
d="M454 468l-360 -424h359v-44h-413v51l360 424h-361v45h415v-52z" />
    <glyph glyph-name="braceleft" unicode="{" horiz-adv-x="363" 
d="M129 310q28 -34 28 -67v-207q0 -24 11.5 -44.5t32.5 -35t49.5 -23t62.5 -8.5v-42q-43 0 -80 11.5t-64 31.5t-42 48t-15 61v208q0 46 -52 46h-7v43h7q52 0 52 44v207q0 33 14.5 61t41 48t63.5 31t81 11v-43q-70 0 -112.5 -29.5t-42.5 -78.5v-207q0 -36 -28 -66z" />
    <glyph glyph-name="bar" unicode="|" horiz-adv-x="241" 
d="M142 744v-786h-44v786h44z" />
    <glyph glyph-name="braceright" unicode="}" horiz-adv-x="363" 
d="M310 289q-24 0 -41 -9.5t-17 -36.5v-208q0 -33 -15 -61t-42 -48t-64 -31.5t-81 -11.5v42q34 0 62.5 8.5t49.5 23t33 35t12 44.5v207q0 34 27 67q-27 30 -27 66v207q0 49 -42.5 78.5t-113.5 29.5v43q44 0 81 -11t63.5 -31t41.5 -48t15 -61v-207q0 -44 52 -44h6v-43z" />
    <glyph glyph-name="asciitilde" unicode="~" horiz-adv-x="564" 
d="M98 273q3 57 32 92t72 35q26 0 47 -14t40 -31.5t38 -31.5t40 -14q25 0 40 23.5t18 65.5l41 -3q-4 -56 -31 -91.5t-67 -35.5q-29 0 -51 14t-41.5 31.5t-37.5 31.5t-40 14q-25 0 -41 -23.5t-18 -65.5z" />
    <glyph glyph-name="uni00A0" unicode="&#xa0;" horiz-adv-x="273" 
 />
    <glyph glyph-name="exclamdown" unicode="&#xa1;" horiz-adv-x="202" 
d="M64 494.002q0 -14.999 11 -25.999q11 -10.999 26 -10.999t26 10.999q11 11 11 25.999t-11 25.998q-11 11 -26 11t-26 -11q-11 -10.999 -11 -25.998zM124 -176.957l-1 557.966h-44v-557.966h45z" />
    <glyph glyph-name="cent" unicode="&#xa2;" horiz-adv-x="507" 
d="M44 243q0 45 16.5 87t44.5 76t66 58.5t81 35.5v43h43v-40q52 -5 96 -26.5t75 -53.5l-28 -28q-24 28 -61.5 43t-81.5 19v-422q44 4 81 20t63 42l28 -28q-31 -32 -75 -53.5t-97 -26.5v-42h-43v46q-43 10 -81 33t-66 56t-44.5 74.5t-16.5 86.5zM90 243q0 -35 12 -67
t33.5 -59t51.5 -47t65 -32v415q-36 -12 -65.5 -33.5t-51 -49t-33.5 -60t-12 -67.5z" />
    <glyph glyph-name="sterling" unicode="&#xa3;" horiz-adv-x="609" 
d="M139 290h-68v44h68v128q0 129 56.5 189t177.5 60q64 0 108.5 -19t85.5 -65l-15 -45q-40 47 -81.5 66t-98.5 19q-183 0 -188 -174v-159h235v-44h-235v-246h382v-44h-427v290z" />
    <glyph glyph-name="currency" unicode="&#xa4;" horiz-adv-x="716" 
d="M103 248q0 88 60 166l-117 116l30 31l117 -116q39 29 81 45t84 16t84 -16t80 -45l117 116l30 -31l-117 -116q60 -78 60 -166q0 -85 -59 -164l116 -115l-30 -30l-116 115q-39 -29 -81 -45t-84 -16t-84.5 16t-81.5 45l-115 -115l-31 30l117 115q-60 77 -60 164zM567 248
q0 44 -16.5 83t-45 68t-66.5 46.5t-81 17.5t-81 -17t-66.5 -46.5t-45.5 -68.5t-17 -83q0 -43 16.5 -81.5t45 -67.5t67 -46t81.5 -17t81 17t66.5 45.5t45 67.5t16.5 82z" />
    <glyph glyph-name="yen" unicode="&#xa5;" horiz-adv-x="607" 
d="M284 290h-163v43h163l-250 368h54l218 -320l216 320h54l-247 -368h165v-43h-165v-109h165v-44h-165v-137h-45v137h-163v44h163v109z" />
    <glyph glyph-name="brokenbar" unicode="&#xa6;" horiz-adv-x="522" 
d="M283 261v-303h-43v303h43zM240 440v304h43v-304h-43z" />
    <glyph glyph-name="section" unicode="&#xa7;" horiz-adv-x="487" 
d="M41 564q0 30 16 57t44 47t65.5 31.5t80.5 11.5q54 0 99.5 -18t78.5 -52l-29 -31q-62 56 -151 56q-32 0 -61 -8.5t-51 -22.5t-35 -32.5t-13 -38.5q0 -31 26.5 -49t66.5 -31t87 -24.5t87 -29.5t66.5 -45.5t26.5 -73.5q0 -38 -24 -66.5t-75 -49.5q45 -19 71.5 -54t26.5 -77
q0 -33 -15.5 -61.5t-43 -49.5t-64.5 -33t-80 -12q-109 0 -186 81l30 30q67 -67 157 -67q34 0 63 9t50 24.5t33 37t12 45.5q0 38 -26.5 59.5t-66 36t-86 25.5t-86 28t-66 43.5t-26.5 71.5q0 39 25.5 69t73.5 48q-45 15 -73 47.5t-28 67.5zM401 310q0 22 -14.5 41.5
t-39.5 34.5t-58.5 23.5t-70.5 8.5q-27 0 -51 -6.5t-42 -17.5t-28.5 -25.5t-10.5 -31.5q0 -23 15.5 -42.5t41.5 -34t60.5 -22.5t72.5 -8q54 0 89.5 22.5t35.5 57.5z" />
    <glyph glyph-name="dieresis" unicode="&#xa8;" horiz-adv-x="383" 
d="M81 631q0 14 9 23t23 9t23 -9t9 -23t-9 -23t-23 -9t-23 9t-9 23zM240 631q0 14 8.5 23t22.5 9t23.5 -9t9.5 -23t-9.5 -23t-23.5 -9t-22.5 9t-8.5 23z" />
    <glyph glyph-name="copyright" unicode="&#xa9;" horiz-adv-x="800" 
d="M88 349q0 -65 24.5 -122.5t66.5 -100t99 -67t122 -24.5t122 24.5t99 67t66.5 100t24.5 122.5t-24.5 122t-66.5 99.5t-99 67t-122 24.5t-122 -24.5t-99 -67t-66.5 -99.5t-24.5 -122zM45 348q0 73 28 138t76.5 113.5t113.5 76.5t138 28t137.5 -28t112.5 -76.5t76 -113
t28 -137.5t-28 -138t-76 -113t-112.5 -76t-137.5 -28t-138 28t-113.5 76t-76.5 112.5t-28 137.5zM513 451q-23 26 -52.5 39.5t-61.5 13.5q-31 0 -58.5 -12.5t-48 -33.5t-32.5 -49.5t-12 -60.5t12 -60t32.5 -49t48 -33t58.5 -12q63 0 114 51l29 -29q-30 -32 -67.5 -48.5
t-77.5 -16.5t-75.5 15.5t-61.5 42t-41.5 62.5t-15.5 77t15.5 77.5t42.5 63.5t62.5 42.5t75.5 15.5q82 0 145 -65z" />
    <glyph glyph-name="ordfeminine" unicode="&#xaa;" horiz-adv-x="397" 
d="M296 561q0 24 -9 45t-24 36.5t-35.5 24.5t-44.5 9q-23 0 -43 -9t-34.5 -24.5t-23 -36.5t-8.5 -45t8.5 -45.5t23.5 -37t35.5 -24.5t43.5 -9q48 0 79.5 33t31.5 83zM182 706q33 0 63 -15.5t51 -42.5v52h31v-279h-31v51q-20 -26 -49 -41.5t-63 -15.5q-29 0 -54.5 11.5
t-45 31t-30.5 46t-11 56.5t11 56.5t29.5 46.5t44 31.5t54.5 11.5z" />
    <glyph glyph-name="guillemotleft" unicode="&#xab;" horiz-adv-x="497" 
d="M101 256l152 -182l-37 -20l-171 202l172 201l37 -19zM297 256l152 -182l-37 -20l-172 202l172 201l37 -19z" />
    <glyph glyph-name="logicalnot" unicode="&#xac;" horiz-adv-x="561" 
d="M500 208h-45v185h-394v43h439v-228z" />
    <glyph glyph-name="registered" unicode="&#xae;" horiz-adv-x="635" 
d="M394 493q0 25 -19 41.5t-48 16.5h-82v-116h82q29 0 48 17t19 41zM271 401h-26v-120h-36v305h118q45 0 74 -26.5t29 -66.5q0 -39 -29 -65.5t-72 -26.5h-8l106 -120h-50zM74 434q0 -50 19.5 -94.5t52.5 -78t77 -53t94 -19.5t94.5 19.5t77.5 53t52.5 78t19.5 94.5
t-19.5 94.5t-52.5 77.5t-77.5 52.5t-94.5 19.5t-94 -19.5t-77 -52.5t-52.5 -77.5t-19.5 -94.5zM41 434q0 57 22 107.5t59.5 87.5t87.5 58.5t107 21.5t107.5 -21.5t88 -58.5t59.5 -87.5t22 -107.5t-21.5 -107.5t-59 -88t-88 -59.5t-107.5 -22t-107.5 22t-88 59.5t-59.5 88
t-22 107.5z" />
    <glyph glyph-name="macron" unicode="&#xaf;" horiz-adv-x="488" 
d="M368 653v-36h-248v36h248z" />
    <glyph glyph-name="degree" unicode="&#xb0;" horiz-adv-x="303" 
d="M43 590q0 22 8.5 41t23 33.5t33.5 23t41 8.5t41.5 -8.5t34 -23t23 -33.5t8.5 -41t-8.5 -41.5t-23 -34t-34 -23t-41.5 -8.5t-41 8.5t-33.5 23t-23 34t-8.5 41.5zM77 590q0 -30 21.5 -51t50.5 -21q30 0 51 21t21 51t-21 51t-51 21q-29 0 -50.5 -21t-21.5 -51z" />
    <glyph glyph-name="plusminus" unicode="&#xb1;" horiz-adv-x="505" 
d="M417 444h-145v-144h-37v144h-146v37h146v145h37v-145h145v-37zM416 209v-37h-327v37h327z" />
    <glyph glyph-name="twosuperior" unicode="&#xb2;" horiz-adv-x="276" 
d="M48 450l127 106q13 11 22.5 26.5t9.5 32.5q0 29 -21 45.5t-48 16.5q-24 0 -43 -13t-29 -36l-24 16q14 30 39.5 47t56.5 17q20 0 37.5 -7t31.5 -19.5t22 -29.5t8 -37q0 -26 -10 -43t-29 -34l-104 -89h142v-29h-188v30z" />
    <glyph glyph-name="threesuperior" unicode="&#xb3;" horiz-adv-x="269" 
d="M234 673l-69 -73q32 -6 53 -30t21 -59q0 -39 -28.5 -66.5t-70.5 -27.5q-33 0 -59.5 15.5t-40.5 43.5l26 13q11 -20 30 -31t42 -11q31 0 51.5 19t20.5 46q0 28 -21 46.5t-52 18.5h-12l-6 17l73 77h-145v29h187v-27z" />
    <glyph glyph-name="acute" unicode="&#xb4;" horiz-adv-x="227" 
d="M95 582l58 116l54 -17l-76 -99h-36z" />
    <glyph glyph-name="mu" unicode="&#xb5;" horiz-adv-x="600" 
d="M473 88q-15 -24 -36.5 -42.5t-46 -31t-51 -19t-51.5 -6.5q-51 0 -92.5 21t-67.5 57v-277h-45v709h45v-315q1 -30 12.5 -57t32.5 -47.5t50 -33t65 -12.5q32 0 64.5 12t59.5 35t44 57t17 78v283h45v-500h-45v89z" />
    <glyph glyph-name="paragraph" unicode="&#xb6;" horiz-adv-x="557" 
d="M44 534q0 32 13 62.5t34.5 53.5t50 37t59.5 14h298v-754h-45v710h-167v-710h-45v422h-41q-31 0 -59.5 13.5t-50 36.5t-34.5 52.5t-13 62.5z" />
    <glyph glyph-name="periodcentered" unicode="&#xb7;" horiz-adv-x="240" 
d="M82 246q0 15 11.5 26.5t27.5 11.5q15 0 26.5 -11.5t11.5 -26.5q0 -16 -11.5 -27.5t-26.5 -11.5q-16 0 -27.5 11.5t-11.5 27.5z" />
    <glyph glyph-name="cedilla" unicode="&#xb8;" horiz-adv-x="211" 
d="M145 -104q0 14 -10 22t-24 8t-28 -9l-16 15l25 74h33l-17 -52q3 0 5.5 0.5t5.5 0.5q29 0 45 -16t16 -41q0 -32 -23.5 -52.5t-57.5 -20.5q-40 0 -73 32l10 33q11 -14 28.5 -22.5t34.5 -8.5q20 0 33 10.5t13 26.5z" />
    <glyph glyph-name="onesuperior" unicode="&#xb9;" horiz-adv-x="197" 
d="M135 700v-276h-29v238l-50 -41l-9 29l59 50h29z" />
    <glyph glyph-name="ordmasculine" unicode="&#xba;" horiz-adv-x="393" 
d="M312 561q0 24 -9 45t-25 36.5t-37 25t-45 9.5t-45 -9.5t-36.5 -25t-24.5 -36.5t-9 -45t9 -45t24.5 -37t36.5 -25t45 -9t45 9t37 24.5t25 37t9 45.5zM52 561q0 30 11.5 56t31 45.5t45.5 31t56 11.5t56.5 -11t46 -30.5t30.5 -46t11 -56.5t-11 -56t-30.5 -45.5t-46 -31
t-56.5 -11.5t-56 11.5t-45.5 31t-31 45.5t-11.5 56z" />
    <glyph glyph-name="guillemotright" unicode="&#xbb;" horiz-adv-x="497" 
d="M44 438l37 19l172 -201l-171 -202l-37 20l152 182zM240 438l37 19l172 -201l-172 -202l-37 20l153 182z" />
    <glyph glyph-name="onehalf" unicode="&#xbd;" horiz-adv-x="780" 
d="M167 700v-390h-36v345l-73 -60l-12 36l84 69h37zM485 39l174 147q19 17 34.5 37.5t15.5 46.5q0 20 -8.5 36.5t-22.5 28.5t-32.5 18.5t-38.5 6.5q-33 0 -60.5 -18.5t-40.5 -50.5l-30 18q18 42 54 64.5t78 22.5q27 0 52 -9.5t43.5 -26t30 -39.5t11.5 -50q0 -35 -17 -61
t-43 -47l-149 -127h206v-35h-257v38zM571 701l-404 -700h-42l404 700h42z" />
    <glyph glyph-name="threequarters" unicode="&#xbe;" horiz-adv-x="766" 
d="M309 665l-103 -106q24 -3 44 -13.5t35 -27t23 -37.5t8 -45q0 -27 -11 -51t-30 -42t-44.5 -28.5t-54.5 -10.5q-44 0 -81.5 22t-54.5 58l30 18q14 -29 42 -45.5t61 -16.5q23 0 42.5 7.5t34 21t23 31t8.5 36.5q0 20 -8 36.5t-22.5 29.5t-34.5 20t-43 7h-16l-7 23l111 113
h-212v35h260v-35zM471 116h169v221zM427 116l209 275h40v-275h53l-11 -34h-42v-81h-36v81h-213v34zM642 700l-405 -699h-42l404 699h43z" />
    <glyph glyph-name="questiondown" unicode="&#xbf;" horiz-adv-x="500" 
d="M329.01 472.002q0 -15.999 -10.999 -26.998q-10.999 -11 -26.998 -11t-27.498 11q-11.5 10.999 -11.5 26.998q0 16.999 11.5 28.498q11.499 11.5 27.498 11.5t26.998 -12q10.999 -11.999 10.999 -27.998zM314.011 354.009v-171.989q-34.9971 -13.999 -74.4951 -28.498
q-39.4971 -14.499 -72.4951 -35.998q-32.998 -21.498 -54.4971 -52.4971q-21.499 -30.998 -21.499 -78.9951q0 -69.9951 44.498 -108.993q44.4971 -38.9971 124.492 -38.9971q54.9961 0 93.4941 20.998q38.498 20.999 67.4961 68.9961l35.9971 -22.999
q-32.9971 -57.9961 -80.4941 -84.9941q-47.498 -26.999 -115.493 -26.999q-48.9971 0 -88.9951 13.5q-39.9971 13.499 -67.9951 38.9971q-27.999 25.499 -42.998 61.9961q-14.999 36.498 -14.999 82.4951q0 39.998 13.499 71.9961t41.498 57.9961
q27.998 25.998 69.4951 48.4971q41.498 22.499 98.4941 43.4971v141.991h44.9971z" />
    <glyph glyph-name="Agrave" unicode="&#xc0;" horiz-adv-x="661" 
d="M331 653l-151 -380h301zM361 700l277 -700h-49l-91 230h-335l-91 -230h-48l277 700h60zM231 875l54 17l57 -116h-35z" />
    <glyph glyph-name="Aacute" unicode="&#xc1;" horiz-adv-x="665" 
d="M334 653l-151 -380h301zM364 700l277 -700h-49l-91 230h-335l-91 -230h-48l277 700h60zM326 776l58 116l54 -17l-76 -99h-36z" />
    <glyph glyph-name="Acircumflex" unicode="&#xc2;" horiz-adv-x="683" 
d="M342 653l-151 -380h301zM372 700l277 -700h-49l-91 230h-335l-91 -230h-48l277 700h60zM317 873h49l108 -119h-41l-91 86l-93 -86h-41z" />
    <glyph glyph-name="Atilde" unicode="&#xc3;" horiz-adv-x="663" 
d="M331 653l-151 -380h301zM361 700l277 -700h-49l-91 230h-335l-91 -230h-48l277 700h60zM186 807q2 46 24 75t56 29q21 0 38.5 -11.5t33 -26t30 -26t30.5 -11.5q40 0 46 71l31 -2q-2 -47 -23.5 -75t-54.5 -28q-22 0 -39 11.5t-32.5 26t-29.5 26t-30 11.5q-20 0 -33 -20
t-15 -53z" />
    <glyph glyph-name="Adieresis" unicode="&#xc4;" horiz-adv-x="683" 
d="M342 653l-151 -380h301zM372 700l277 -700h-49l-91 230h-335l-91 -230h-48l277 700h60zM231 811q0 14 9 23t23 9t23 -9t9 -23t-9 -23t-23 -9t-23 9t-9 23zM390 811q0 14 8.5 23t22.5 9t23.5 -9t9.5 -23t-9.5 -23t-23.5 -9t-22.5 9t-8.5 23z" />
    <glyph glyph-name="Aring" unicode="&#xc5;" horiz-adv-x="669" 
d="M335 653l-151 -380h301zM365 700l277 -700h-49l-91 230h-335l-91 -230h-48l277 700h60zM252 844q0 34 24 58t59 24q34 0 58 -24t24 -58q0 -35 -24 -59t-58 -24q-35 0 -59 24t-24 59zM284 844q0 -21 15 -36t36 -15q20 0 35 15t15 36t-15 35.5t-35 14.5q-21 0 -36 -14.5
t-15 -35.5z" />
    <glyph glyph-name="AE" unicode="&#xc6;" horiz-adv-x="943" 
d="M465 656l-215 -372h215v372zM904 658h-394v-251h342v-43h-342v-321h394v-43h-439v241h-239l-139 -241h-51l404 701h464v-43z" />
    <glyph glyph-name="Ccedilla" unicode="&#xc7;" horiz-adv-x="665" 
d="M396 33q54 0 106 21t90 58l31 -31q-39 -39 -95 -63t-116 -28l-12 -36q3 0 6 0.5t5 0.5q29 0 45.5 -16t16.5 -41q0 -32 -24 -52.5t-58 -20.5q-40 0 -73 32l11 33q11 -14 28 -22.5t34 -8.5q20 0 33.5 10.5t13.5 27.5q0 14 -10 21.5t-24 7.5t-28 -9l-16 15l19 58
q-67 1 -127 31t-104.5 79t-70.5 114t-26 137q0 74 27.5 139t74.5 114.5t109.5 78t132.5 28.5q64 0 125 -24.5t103 -67.5l-31 -30q-38 36 -90.5 57.5t-105.5 21.5q-62 0 -116.5 -25t-95.5 -68t-64.5 -100.5t-23.5 -122.5q0 -66 24 -124t64.5 -101.5t95.5 -68.5t116 -25z" />
    <glyph glyph-name="Egrave" unicode="&#xc8;" horiz-adv-x="584" 
d="M77 0v699h453v-43h-408v-248h359v-43h-359v-322h408v-43h-453zM221 875l54 17l57 -116h-35z" />
    <glyph glyph-name="Eacute" unicode="&#xc9;" horiz-adv-x="584" 
d="M77 0v699h453v-43h-408v-248h359v-43h-359v-322h408v-43h-453zM276 776l58 116l54 -17l-76 -99h-36z" />
    <glyph glyph-name="Ecircumflex" unicode="&#xca;" horiz-adv-x="583" 
d="M76 0v699h453v-43h-408v-248h359v-43h-359v-322h408v-43h-453zM273 896h49l108 -119h-41l-91 86l-93 -86h-41z" />
    <glyph glyph-name="Edieresis" unicode="&#xcb;" horiz-adv-x="583" 
d="M77 0v699h453v-43h-408v-248h359v-43h-359v-322h408v-43h-453zM184 815q0 14 9 23t23 9t23 -9t9 -23t-9 -23t-23 -9t-23 9t-9 23zM343 815q0 14 8.5 23t22.5 9t23.5 -9t9.5 -23t-9.5 -23t-23.5 -9t-22.5 9t-8.5 23z" />
    <glyph glyph-name="Igrave" unicode="&#xcc;" horiz-adv-x="246" 
d="M145 700v-700h-45v700h45zM32 872l54 17l57 -116h-35z" />
    <glyph glyph-name="Iacute" unicode="&#xcd;" horiz-adv-x="246" 
d="M145 700v-700h-45v700h45zM114 769l58 116l54 -17l-76 -99h-36z" />
    <glyph glyph-name="Icircumflex" unicode="&#xce;" horiz-adv-x="246" 
d="M145 700v-700h-45v700h45zM98 893h49l108 -119h-41l-91 86l-93 -86h-41z" />
    <glyph glyph-name="Idieresis" unicode="&#xcf;" horiz-adv-x="246" 
d="M145 700v-700h-45v700h45zM10 811q0 14 9 23t23 9t23 -9t9 -23t-9 -23t-23 -9t-23 9t-9 23zM169 811q0 14 8.5 23t22.5 9t23.5 -9t9.5 -23t-9.5 -23t-23.5 -9t-22.5 9t-8.5 23z" />
    <glyph glyph-name="Eth" unicode="&#xd0;" horiz-adv-x="730" 
d="M677 349q0 -73 -26.5 -136.5t-75.5 -111t-117.5 -74.5t-152.5 -27h-208v278h-50v44h50v379h208q84 0 152.5 -27.5t117 -75.5t75.5 -112t27 -137zM632 350q0 65 -23 121t-66 97.5t-103 65.5t-135 24h-163v-336h164v-44h-164v-235h163q75 0 135 23.5t103 65t66 97.5t23 121
z" />
    <glyph glyph-name="Ntilde" unicode="&#xd1;" horiz-adv-x="764" 
d="M607 0l-478 643v-643h-45v700h59l478 -643v643h45v-700h-59zM242 807q2 46 24 75t56 29q21 0 38.5 -11.5t33 -26t30 -26t30.5 -11.5q40 0 46 71l31 -2q-2 -47 -23.5 -75t-54.5 -28q-22 0 -39 11.5t-32.5 26t-29.5 26t-30 11.5q-20 0 -33 -20t-15 -53z" />
    <glyph glyph-name="Ograve" unicode="&#xd2;" horiz-adv-x="787" 
d="M693 350q0 66 -23.5 124t-64 100.5t-95 67.5t-116.5 25t-116 -25t-94.5 -68t-64 -100.5t-23.5 -123.5q0 -65 23.5 -123t64 -101t95 -68t116.5 -25t116 25t94.5 68t64 100.5t23.5 123.5zM51 349q0 75 27 141t73.5 115t109.5 77.5t134 28.5t133.5 -28.5t109 -77
t73.5 -114.5t27 -141t-27 -141t-73.5 -114.5t-109 -77t-133.5 -28.5t-134 28t-109.5 77t-73.5 114.5t-27 140.5zM296 881l54 17l57 -116h-35z" />
    <glyph glyph-name="Oacute" unicode="&#xd3;" horiz-adv-x="783" 
d="M690 350q0 66 -23.5 124t-64 100.5t-95 67.5t-116.5 25t-116 -25t-94.5 -68t-64 -100.5t-23.5 -123.5q0 -65 23.5 -123t64 -101t95 -68t116.5 -25t116 25t94.5 68t64 100.5t23.5 123.5zM48 349q0 75 27 141t73.5 115t109.5 77.5t134 28.5t133.5 -28.5t109 -77
t73.5 -114.5t27 -141t-27 -141t-73.5 -114.5t-109 -77t-133.5 -28.5t-134 28t-109.5 77t-73.5 114.5t-27 140.5zM350 762l58 116l54 -17l-76 -99h-36z" />
    <glyph glyph-name="Ocircumflex" unicode="&#xd4;" horiz-adv-x="783" 
d="M690 350q0 66 -23.5 124t-64 100.5t-95 67.5t-116.5 25t-116 -25t-94.5 -68t-64 -100.5t-23.5 -123.5q0 -65 23.5 -123t64 -101t95 -68t116.5 -25t116 25t94.5 68t64 100.5t23.5 123.5zM48 349q0 75 27 141t73.5 115t109.5 77.5t134 28.5t133.5 -28.5t109 -77
t73.5 -114.5t27 -141t-27 -141t-73.5 -114.5t-109 -77t-133.5 -28.5t-134 28t-109.5 77t-73.5 114.5t-27 140.5zM367 896h49l108 -119h-41l-91 86l-93 -86h-41z" />
    <glyph glyph-name="Otilde" unicode="&#xd5;" horiz-adv-x="781" 
d="M689 350q0 66 -23.5 124t-64 100.5t-95 67.5t-116.5 25t-116 -25t-94.5 -68t-64 -100.5t-23.5 -123.5q0 -65 23.5 -123t64 -101t95 -68t116.5 -25t116 25t94.5 68t64 100.5t23.5 123.5zM47 349q0 75 27 141t73.5 115t109.5 77.5t134 28.5t133.5 -28.5t109 -77
t73.5 -114.5t27 -141t-27 -141t-73.5 -114.5t-109 -77t-133.5 -28.5t-134 28t-109.5 77t-73.5 114.5t-27 140.5zM246 807q2 46 24 75t56 29q21 0 38.5 -11.5t33 -26t30 -26t30.5 -11.5q40 0 46 71l31 -2q-2 -47 -23.5 -75t-54.5 -28q-22 0 -39 11.5t-32.5 26t-29.5 26
t-30 11.5q-20 0 -33 -20t-15 -53z" />
    <glyph glyph-name="Odieresis" unicode="&#xd6;" horiz-adv-x="783" 
d="M690 350q0 66 -23.5 124t-64 100.5t-95 67.5t-116.5 25t-116 -25t-94.5 -68t-64 -100.5t-23.5 -123.5q0 -65 23.5 -123t64 -101t95 -68t116.5 -25t116 25t94.5 68t64 100.5t23.5 123.5zM48 349q0 75 27 141t73.5 115t109.5 77.5t134 28.5t133.5 -28.5t109 -77
t73.5 -114.5t27 -141t-27 -141t-73.5 -114.5t-109 -77t-133.5 -28.5t-134 28t-109.5 77t-73.5 114.5t-27 140.5zM279 814q0 14 9 23t23 9t23 -9t9 -23t-9 -23t-23 -9t-23 9t-9 23zM438 814q0 14 8.5 23t22.5 9t23.5 -9t9.5 -23t-9.5 -23t-23.5 -9t-22.5 9t-8.5 23z" />
    <glyph glyph-name="multiply" unicode="&#xd7;" horiz-adv-x="544" 
d="M124 531l147 -147l146 147l32 -33l-146 -146l149 -149l-32 -32l-149 149l-146 -146l-33 32l146 146l-146 147z" />
    <glyph glyph-name="Oslash" unicode="&#xd8;" horiz-adv-x="785" 
d="M228 33q-40 23 -73 56t-57 73.5t-37 88t-13 98.5q0 75 27 141t74 115t110 77.5t134 28.5q66 0 125 -25l27 60h48l-35 -79q40 -23 72.5 -56.5t56 -74t36.5 -88t13 -98.5q0 -75 -27 -141t-73.5 -114.5t-109 -77t-133.5 -28.5q-64 0 -125 25l-26 -60h-49zM94 350
q0 -44 11 -85t31 -76.5t48 -64.5t62 -50l254 571q-52 22 -108 22q-62 0 -116 -25t-94.5 -68t-64 -100.5t-23.5 -123.5zM393 33q62 0 116 25t94.5 68t64 100.5t23.5 123.5q0 90 -41 162.5t-110 113.5l-254 -572q25 -10 52 -15.5t55 -5.5z" />
    <glyph glyph-name="Ugrave" unicode="&#xd9;" horiz-adv-x="744" 
d="M84 700h45v-453q0 -44 19.5 -83t52.5 -68t78 -46t96 -17q50 0 94 16.5t76.5 45.5t51 68t18.5 84v453h45v-453q0 -53 -22.5 -100t-61 -82t-90.5 -55.5t-111 -20.5t-112 20.5t-92.5 56t-63 82.5t-23.5 99v453zM284 881l54 17l57 -116h-35z" />
    <glyph glyph-name="Uacute" unicode="&#xda;" horiz-adv-x="744" 
d="M84 700h45v-453q0 -44 19.5 -83t52.5 -68t78 -46t96 -17q50 0 94 16.5t76.5 45.5t51 68t18.5 84v453h45v-453q0 -53 -22.5 -100t-61 -82t-90.5 -55.5t-111 -20.5t-112 20.5t-92.5 56t-63 82.5t-23.5 99v453zM363 782l58 116l54 -17l-76 -99h-36z" />
    <glyph glyph-name="Ucircumflex" unicode="&#xdb;" horiz-adv-x="744" 
d="M84 700h45v-453q0 -44 19.5 -83t52.5 -68t78 -46t96 -17q50 0 94 16.5t76.5 45.5t51 68t18.5 84v453h45v-453q0 -53 -22.5 -100t-61 -82t-90.5 -55.5t-111 -20.5t-112 20.5t-92.5 56t-63 82.5t-23.5 99v453zM347 893h49l108 -119h-41l-91 86l-93 -86h-41z" />
    <glyph glyph-name="Udieresis" unicode="&#xdc;" horiz-adv-x="744" 
d="M84 700h45v-453q0 -44 19.5 -83t52.5 -68t78 -46t96 -17q50 0 94 16.5t76.5 45.5t51 68t18.5 84v453h45v-453q0 -53 -22.5 -100t-61 -82t-90.5 -55.5t-111 -20.5t-112 20.5t-92.5 56t-63 82.5t-23.5 99v453zM259 814q0 14 9 23t23 9t23 -9t9 -23t-9 -23t-23 -9t-23 9
t-9 23zM418 814q0 14 8.5 23t22.5 9t23.5 -9t9.5 -23t-9.5 -23t-23.5 -9t-22.5 9t-8.5 23z" />
    <glyph glyph-name="Yacute" unicode="&#xdd;" horiz-adv-x="611" 
d="M34 700h53l218 -354l221 354h52l-251 -401v-299h-45v299zM297 782l58 116l54 -17l-76 -99h-36z" />
    <glyph glyph-name="Thorn" unicode="&#xde;" horiz-adv-x="591" 
d="M546 348q0 -47 -19.5 -86t-54 -67t-81.5 -43.5t-101 -15.5h-166v-136h-45v701h45v-137h164q54 0 101 -16t82 -44.5t55 -68t20 -87.5zM501 349q0 39 -16.5 70.5t-45 54t-67.5 34.5t-84 12h-164v-340h166q45 0 83.5 12t67 34t44.5 53.5t16 69.5z" />
    <glyph glyph-name="germandbls" unicode="&#xdf;" horiz-adv-x="571" 
d="M442 533q0 32 -12.5 59t-34.5 46.5t-52 30.5t-65 11q-71 0 -112 -38.5t-41 -105.5v-536h-45v538q0 41 14.5 75t40 59t61.5 38.5t79 13.5q47 0 85.5 -14t66.5 -39.5t43.5 -61t15.5 -77.5q0 -48 -30.5 -90t-82.5 -68q72 -30 109 -75.5t37 -104.5q0 -42 -18.5 -77.5
t-51.5 -61.5t-78.5 -40.5t-98.5 -14.5h-35v44h35q44 0 81 11t64 30.5t42 47t15 60.5q0 31 -16 59t-43 49.5t-63 34t-75 12.5h-46v44h47q32 0 62 12t52.5 31.5t36 45t13.5 52.5z" />
    <glyph glyph-name="agrave" unicode="&#xe0;" horiz-adv-x="649" 
d="M532 260q0 47 -17.5 88t-47.5 72t-70 49t-86 18t-86.5 -18t-70.5 -49.5t-47.5 -72.5t-17.5 -88q0 -46 17.5 -87.5t47.5 -72t70.5 -48.5t86.5 -18t86 18t70 48.5t47.5 72t17.5 88.5zM311 531q67 0 125.5 -33t95.5 -93v115h46v-520h-46v115q-35 -60 -94 -93t-127 -33
q-55 0 -104 21.5t-85.5 58t-57.5 86t-21 104.5q0 56 21 105.5t57.5 86.5t85.5 58.5t104 21.5zM231 681l54 17l57 -116h-35z" />
    <glyph glyph-name="aacute" unicode="&#xe1;" 
d="M532 260q0 47 -17.5 88t-47.5 72t-70 49t-86 18t-86.5 -18t-70.5 -49.5t-47.5 -72.5t-17.5 -88q0 -46 17.5 -87.5t47.5 -72t70.5 -48.5t86.5 -18t86 18t70 48.5t47.5 72t17.5 88.5zM311 531q67 0 125.5 -33t95.5 -93v115h46v-520h-46v115q-35 -60 -94 -93t-127 -33
q-55 0 -104 21.5t-85.5 58t-57.5 86t-21 104.5q0 56 21 105.5t57.5 86.5t85.5 58.5t104 21.5zM290 582l58 116l54 -17l-76 -99h-36z" />
    <glyph glyph-name="acircumflex" unicode="&#xe2;" 
d="M532 260q0 47 -17.5 88t-47.5 72t-70 49t-86 18t-86.5 -18t-70.5 -49.5t-47.5 -72.5t-17.5 -88q0 -46 17.5 -87.5t47.5 -72t70.5 -48.5t86.5 -18t86 18t70 48.5t47.5 72t17.5 88.5zM311 531q67 0 125.5 -33t95.5 -93v115h46v-520h-46v115q-35 -60 -94 -93t-127 -33
q-55 0 -104 21.5t-85.5 58t-57.5 86t-21 104.5q0 56 21 105.5t57.5 86.5t85.5 58.5t104 21.5zM288 693h49l108 -119h-41l-91 86l-93 -86h-41z" />
    <glyph glyph-name="atilde" unicode="&#xe3;" 
d="M532 260q0 47 -17.5 88t-47.5 72t-70 49t-86 18t-86.5 -18t-70.5 -49.5t-47.5 -72.5t-17.5 -88q0 -46 17.5 -87.5t47.5 -72t70.5 -48.5t86.5 -18t86 18t70 48.5t47.5 72t17.5 88.5zM311 531q67 0 125.5 -33t95.5 -93v115h46v-520h-46v115q-35 -60 -94 -93t-127 -33
q-55 0 -104 21.5t-85.5 58t-57.5 86t-21 104.5q0 56 21 105.5t57.5 86.5t85.5 58.5t104 21.5zM168 607q2 46 24 75t56 29q21 0 38.5 -11.5t33 -26t30 -26t30.5 -11.5q40 0 46 71l31 -2q-2 -47 -23.5 -75t-54.5 -28q-22 0 -39 11.5t-32.5 26t-29.5 26t-30 11.5q-20 0 -33 -20
t-15 -53z" />
    <glyph glyph-name="adieresis" unicode="&#xe4;" 
d="M532 260q0 47 -17.5 88t-47.5 72t-70 49t-86 18t-86.5 -18t-70.5 -49.5t-47.5 -72.5t-17.5 -88q0 -46 17.5 -87.5t47.5 -72t70.5 -48.5t86.5 -18t86 18t70 48.5t47.5 72t17.5 88.5zM311 531q67 0 125.5 -33t95.5 -93v115h46v-520h-46v115q-35 -60 -94 -93t-127 -33
q-55 0 -104 21.5t-85.5 58t-57.5 86t-21 104.5q0 56 21 105.5t57.5 86.5t85.5 58.5t104 21.5zM201 630q0 14 9 23t23 9t23 -9t9 -23t-9 -23t-23 -9t-23 9t-9 23zM360 630q0 14 8.5 23t22.5 9t23.5 -9t9.5 -23t-9.5 -23t-23.5 -9t-22.5 9t-8.5 23z" />
    <glyph glyph-name="aring" unicode="&#xe5;" 
d="M532 260q0 47 -17.5 88t-47.5 72t-70 49t-86 18t-86.5 -18t-70.5 -49.5t-47.5 -72.5t-17.5 -88q0 -46 17.5 -87.5t47.5 -72t70.5 -48.5t86.5 -18t86 18t70 48.5t47.5 72t17.5 88.5zM311 531q67 0 125.5 -33t95.5 -93v115h46v-520h-46v115q-35 -60 -94 -93t-127 -33
q-55 0 -104 21.5t-85.5 58t-57.5 86t-21 104.5q0 56 21 105.5t57.5 86.5t85.5 58.5t104 21.5zM230 660q0 34 24 58t59 24q34 0 58 -24t24 -58q0 -35 -24 -59t-58 -24q-35 0 -59 24t-24 59zM262 660q0 -21 15 -36t36 -15q20 0 35 15t15 36t-15 35.5t-35 14.5q-21 0 -36 -14.5
t-15 -35.5z" />
    <glyph glyph-name="ae" unicode="&#xe6;" horiz-adv-x="1120" 
d="M49 260q0 56 21 105t58 86.5t86 59t105 21.5q67 0 125.5 -32t94.5 -92v112h47v-114q35 57 94 90.5t131 33.5q59 0 109 -22.5t86 -62t56 -92.5t18 -114h-492q3 -44 22.5 -82t49.5 -65.5t69 -43t81 -15.5q51 0 95 20t75 57l31 -31q-36 -43 -88.5 -66.5t-112.5 -23.5
q-72 0 -131 34t-93 91v-114h-47v113q-39 -60 -96.5 -92.5t-124.5 -32.5q-55 0 -104 21.5t-86 58.5t-58 86.5t-21 105.5zM318 32q46 0 86.5 18t70.5 49t47.5 73t17.5 89t-17.5 88.5t-47.5 72.5t-70.5 49t-86.5 18t-86.5 -18.5t-71 -50t-48 -73t-17.5 -88.5q0 -46 17.5 -87.5
t48 -72.5t71 -49t86.5 -18zM810 487q-43 0 -80.5 -15t-67 -42t-49 -64.5t-25.5 -82.5h444q-4 45 -23 82.5t-48.5 64.5t-68 42t-82.5 15z" />
    <glyph glyph-name="ccedilla" unicode="&#xe7;" horiz-adv-x="537" 
d="M316 531q54 0 102.5 -20t83.5 -56l-32 -31q-29 30 -69 47t-84 17q-46 0 -87 -18.5t-71.5 -49.5t-48 -72.5t-17.5 -87.5q0 -47 18 -88.5t48.5 -72t72 -48.5t87.5 -18q45 0 84 16t68 47l31 -31q-32 -33 -75 -52.5t-91 -22.5l-12 -36q3 0 6 0.5t5 0.5q29 0 46 -16t17 -42
q0 -31 -24.5 -51.5t-58.5 -20.5q-20 0 -37.5 7t-34.5 24l10 34q11 -14 28 -22.5t34 -8.5q20 0 33.5 10.5t13.5 26.5q0 14 -10 21.5t-24 7.5t-28 -9l-16 16l19 57q-54 3 -100.5 26t-81 59.5t-54.5 84t-20 101.5q0 55 21 104.5t57.5 86.5t85.5 58.5t105 21.5z" />
    <glyph glyph-name="egrave" unicode="&#xe8;" horiz-adv-x="617" 
d="M532 283q-4 44 -23 81.5t-48.5 64.5t-68 42.5t-82.5 15.5q-43 0 -80.5 -15t-67 -42t-49 -64.5t-25.5 -82.5h444zM511 79q-36 -43 -88.5 -66.5t-112.5 -23.5q-56 0 -105.5 21.5t-86 58t-57.5 86t-21 106.5q0 56 21.5 105.5t58 86t86 57.5t105.5 21q59 0 109 -22.5
t86.5 -62t56 -92.5t17.5 -115h-492q3 -43 22 -81t49 -65.5t69 -43.5t82 -16q51 0 95.5 20.5t74.5 56.5zM215 681l54 17l57 -116h-35z" />
    <glyph glyph-name="eacute" unicode="&#xe9;" horiz-adv-x="617" 
d="M532 283q-4 44 -23 81.5t-48.5 64.5t-68 42.5t-82.5 15.5q-43 0 -80.5 -15t-67 -42t-49 -64.5t-25.5 -82.5h444zM511 79q-36 -43 -88.5 -66.5t-112.5 -23.5q-56 0 -105.5 21.5t-86 58t-57.5 86t-21 106.5q0 56 21.5 105.5t58 86t86 57.5t105.5 21q59 0 109 -22.5
t86.5 -62t56 -92.5t17.5 -115h-492q3 -43 22 -81t49 -65.5t69 -43.5t82 -16q51 0 95.5 20.5t74.5 56.5zM286 582l58 116l54 -17l-76 -99h-36z" />
    <glyph glyph-name="ecircumflex" unicode="&#xea;" horiz-adv-x="617" 
d="M532 283q-4 44 -23 81.5t-48.5 64.5t-68 42.5t-82.5 15.5q-43 0 -80.5 -15t-67 -42t-49 -64.5t-25.5 -82.5h444zM511 79q-36 -43 -88.5 -66.5t-112.5 -23.5q-56 0 -105.5 21.5t-86 58t-57.5 86t-21 106.5q0 56 21.5 105.5t58 86t86 57.5t105.5 21q59 0 109 -22.5
t86.5 -62t56 -92.5t17.5 -115h-492q3 -43 22 -81t49 -65.5t69 -43.5t82 -16q51 0 95.5 20.5t74.5 56.5zM284 693h49l108 -119h-41l-91 86l-93 -86h-41z" />
    <glyph glyph-name="edieresis" unicode="&#xeb;" horiz-adv-x="617" 
d="M532 283q-4 44 -23 81.5t-48.5 64.5t-68 42.5t-82.5 15.5q-43 0 -80.5 -15t-67 -42t-49 -64.5t-25.5 -82.5h444zM511 79q-36 -43 -88.5 -66.5t-112.5 -23.5q-56 0 -105.5 21.5t-86 58t-57.5 86t-21 106.5q0 56 21.5 105.5t58 86t86 57.5t105.5 21q59 0 109 -22.5
t86.5 -62t56 -92.5t17.5 -115h-492q3 -43 22 -81t49 -65.5t69 -43.5t82 -16q51 0 95.5 20.5t74.5 56.5zM198 631q0 14 9 23t23 9t23 -9t9 -23t-9 -23t-23 -9t-23 9t-9 23zM357 631q0 14 8.5 23t22.5 9t23.5 -9t9.5 -23t-9.5 -23t-23.5 -9t-22.5 9t-8.5 23z" />
    <glyph glyph-name="igrave" unicode="&#xec;" horiz-adv-x="228" 
d="M137 520v-520h-45v520h45zM21 681l54 17l57 -116h-35z" />
    <glyph glyph-name="iacute" unicode="&#xed;" horiz-adv-x="228" 
d="M137 520v-520h-45v520h45zM99 582l58 116l54 -17l-76 -99h-36z" />
    <glyph glyph-name="icircumflex" unicode="&#xee;" horiz-adv-x="228" 
d="M137 520v-520h-45v520h45zM90 693h49l108 -119h-41l-91 86l-93 -86h-41z" />
    <glyph glyph-name="idieresis" unicode="&#xef;" horiz-adv-x="228" 
d="M137 520v-520h-45v520h45zM3 631q0 14 9 23t23 9t23 -9t9 -23t-9 -23t-23 -9t-23 9t-9 23zM162 631q0 14 8.5 23t22.5 9t23.5 -9t9.5 -23t-9.5 -23t-23.5 -9t-22.5 9t-8.5 23z" />
    <glyph glyph-name="eth" unicode="&#xf0;" horiz-adv-x="605" 
d="M298 474q65 0 117.5 -27t89.5 -79q-9 67 -38 121t-77 94l-125 -72l-18 34l109 63q-26 17 -57 30t-66 21l-14 46q53 -8 97.5 -26t82.5 -46l78 44l18 -33l-64 -37q60 -56 93 -134.5t33 -175.5q0 -70 -18 -127t-51.5 -97.5t-80.5 -62t-106 -21.5q-54 0 -100.5 19t-80.5 52
t-53.5 78.5t-19.5 98.5q2 52 22 95.5t53.5 75t78.5 49t97 17.5zM299 430q-43 0 -80.5 -15.5t-65.5 -42t-44.5 -62t-16.5 -76.5q0 -42 16 -79t44 -64t65.5 -43t80.5 -16q42 0 80 16.5t66.5 44.5t45 66t16.5 80q0 41 -16 75.5t-44 60.5t-65.5 40.5t-81.5 14.5z" />
    <glyph glyph-name="ntilde" unicode="&#xf1;" horiz-adv-x="582" 
d="M319 530q44 0 81.5 -16t64.5 -44t42.5 -66.5t15.5 -82.5v-321h-46v321q0 35 -12 65t-33.5 51.5t-51.5 34t-67 12.5q-39 0 -73.5 -14.5t-61 -40t-41.5 -59.5t-15 -73v-297h-46v519h46v-93q28 47 81.5 75.5t115.5 28.5zM146 607q2 46 24 75t56 29q21 0 38.5 -11.5t33 -26
t30 -26t30.5 -11.5q40 0 46 71l31 -2q-2 -47 -23.5 -75t-54.5 -28q-22 0 -39 11.5t-32.5 26t-29.5 26t-30 11.5q-20 0 -33 -20t-15 -53z" />
    <glyph glyph-name="ograve" unicode="&#xf2;" horiz-adv-x="620" 
d="M534 259q0 47 -17.5 88.5t-48 73t-71 49.5t-86.5 18t-86.5 -18.5t-71.5 -49.5t-49 -72.5t-18 -88.5q0 -46 18 -87t49 -72t71.5 -49t86.5 -18t86.5 17.5t71 48.5t48 72t17.5 88zM40 259q0 56 21.5 106t58 87t86 58.5t105.5 21.5t105 -21.5t85.5 -58.5t57.5 -86.5
t21 -106.5q0 -56 -21 -105.5t-57.5 -86t-85.5 -57.5t-105 -21t-105.5 21t-86 58t-58 86t-21.5 105zM214 682l54 17l57 -116h-35z" />
    <glyph glyph-name="oacute" unicode="&#xf3;" horiz-adv-x="620" 
d="M534 259q0 47 -17.5 88.5t-48 73t-71 49.5t-86.5 18t-86.5 -18.5t-71.5 -49.5t-49 -72.5t-18 -88.5q0 -46 18 -87t49 -72t71.5 -49t86.5 -18t86.5 17.5t71 48.5t48 72t17.5 88zM40 259q0 56 21.5 106t58 87t86 58.5t105.5 21.5t105 -21.5t85.5 -58.5t57.5 -86.5
t21 -106.5q0 -56 -21 -105.5t-57.5 -86t-85.5 -57.5t-105 -21t-105.5 21t-86 58t-58 86t-21.5 105zM286 583l58 116l54 -17l-76 -99h-36z" />
    <glyph glyph-name="ocircumflex" unicode="&#xf4;" horiz-adv-x="620" 
d="M534 259q0 47 -17.5 88.5t-48 73t-71 49.5t-86.5 18t-86.5 -18.5t-71.5 -49.5t-49 -72.5t-18 -88.5q0 -46 18 -87t49 -72t71.5 -49t86.5 -18t86.5 17.5t71 48.5t48 72t17.5 88zM40 259q0 56 21.5 106t58 87t86 58.5t105.5 21.5t105 -21.5t85.5 -58.5t57.5 -86.5
t21 -106.5q0 -56 -21 -105.5t-57.5 -86t-85.5 -57.5t-105 -21t-105.5 21t-86 58t-58 86t-21.5 105zM285 693h49l108 -119h-41l-91 86l-93 -86h-41z" />
    <glyph glyph-name="otilde" unicode="&#xf5;" horiz-adv-x="620" 
d="M534 259q0 47 -17.5 88.5t-48 73t-71 49.5t-86.5 18t-86.5 -18.5t-71.5 -49.5t-49 -72.5t-18 -88.5q0 -46 18 -87t49 -72t71.5 -49t86.5 -18t86.5 17.5t71 48.5t48 72t17.5 88zM40 259q0 56 21.5 106t58 87t86 58.5t105.5 21.5t105 -21.5t85.5 -58.5t57.5 -86.5
t21 -106.5q0 -56 -21 -105.5t-57.5 -86t-85.5 -57.5t-105 -21t-105.5 21t-86 58t-58 86t-21.5 105zM165 607q2 46 24 75t56 29q21 0 38.5 -11.5t33 -26t30 -26t30.5 -11.5q40 0 46 71l31 -2q-2 -47 -23.5 -75t-54.5 -28q-22 0 -39 11.5t-32.5 26t-29.5 26t-30 11.5
q-20 0 -33 -20t-15 -53z" />
    <glyph glyph-name="odieresis" unicode="&#xf6;" horiz-adv-x="627" 
d="M534 259q0 47 -17.5 88.5t-48 73t-71 49.5t-86.5 18t-86.5 -18.5t-71.5 -49.5t-49 -72.5t-18 -88.5q0 -46 18 -87t49 -72t71.5 -49t86.5 -18t86.5 17.5t71 48.5t48 72t17.5 88zM40 259q0 56 21.5 106t58 87t86 58.5t105.5 21.5t105 -21.5t85.5 -58.5t57.5 -86.5
t21 -106.5q0 -56 -21 -105.5t-57.5 -86t-85.5 -57.5t-105 -21t-105.5 21t-86 58t-58 86t-21.5 105zM192 630q0 14 9 23t23 9t23 -9t9 -23t-9 -23t-23 -9t-23 9t-9 23zM351 630q0 14 8.5 23t22.5 9t23.5 -9t9.5 -23t-9.5 -23t-23.5 -9t-22.5 9t-8.5 23z" />
    <glyph glyph-name="divide" unicode="&#xf7;" horiz-adv-x="559" 
d="M483 372v-43h-407v43h407zM241 482q0 15 11.5 26.5t28.5 11.5q15 0 26.5 -11.5t11.5 -26.5q0 -16 -11.5 -27.5t-26.5 -11.5q-17 0 -28.5 11.5t-11.5 27.5zM241 214q0 15 11.5 26.5t28.5 11.5q15 0 26.5 -11.5t11.5 -26.5q0 -17 -11.5 -28.5t-26.5 -11.5q-17 0 -28.5 11.5
t-11.5 28.5z" />
    <glyph glyph-name="oslash" unicode="&#xf8;" horiz-adv-x="620" 
d="M156 38q-53 37 -84.5 94.5t-31.5 126.5q0 56 21.5 106t58 87t86 58.5t105.5 21.5q31 0 60 -7t55 -20l38 66h49l-50 -87q54 -37 85.5 -95.5t31.5 -129.5q0 -56 -21 -105.5t-57.5 -86t-85.5 -57.5t-105 -21q-32 0 -61.5 7t-56.5 20l-38 -66h-49zM86 259q0 -56 25.5 -103.5
t67.5 -78.5l225 389q-46 22 -93 22q-46 0 -86.5 -18.5t-71.5 -49.5t-49 -72.5t-18 -88.5zM311 33q46 0 86.5 17.5t71 48.5t48 72t17.5 88q0 57 -25.5 105.5t-68.5 79.5l-224 -389q44 -22 95 -22z" />
    <glyph glyph-name="ugrave" unicode="&#xf9;" horiz-adv-x="581" 
d="M279 -11q-44 0 -81.5 16t-64.5 44t-42.5 66t-15.5 82v322h46v-322q0 -34 12 -64t33.5 -51.5t51.5 -34t67 -12.5q39 0 73.5 14.5t60.5 40t41 59.5t15 73v297h46v-520h-46v93q-28 -47 -81.5 -75t-114.5 -28zM212 681l54 17l57 -116h-35z" />
    <glyph glyph-name="uacute" unicode="&#xfa;" horiz-adv-x="581" 
d="M279 -11q-44 0 -81.5 16t-64.5 44t-42.5 66t-15.5 82v322h46v-322q0 -34 12 -64t33.5 -51.5t51.5 -34t67 -12.5q39 0 73.5 14.5t60.5 40t41 59.5t15 73v297h46v-520h-46v93q-28 -47 -81.5 -75t-114.5 -28zM269 582l58 116l54 -17l-76 -99h-36z" />
    <glyph glyph-name="ucircumflex" unicode="&#xfb;" horiz-adv-x="581" 
d="M279 -11q-44 0 -81.5 16t-64.5 44t-42.5 66t-15.5 82v322h46v-322q0 -34 12 -64t33.5 -51.5t51.5 -34t67 -12.5q39 0 73.5 14.5t60.5 40t41 59.5t15 73v297h46v-520h-46v93q-28 -47 -81.5 -75t-114.5 -28zM266 693h49l108 -119h-41l-91 86l-93 -86h-41z" />
    <glyph glyph-name="udieresis" unicode="&#xfc;" horiz-adv-x="581" 
d="M279 -11q-44 0 -81.5 16t-64.5 44t-42.5 66t-15.5 82v322h46v-322q0 -34 12 -64t33.5 -51.5t51.5 -34t67 -12.5q39 0 73.5 14.5t60.5 40t41 59.5t15 73v297h46v-520h-46v93q-28 -47 -81.5 -75t-114.5 -28zM178 631q0 14 9 23t23 9t23 -9t9 -23t-9 -23t-23 -9t-23 9t-9 23
zM337 631q0 14 8.5 23t22.5 9t23.5 -9t9.5 -23t-9.5 -23t-23.5 -9t-22.5 9t-8.5 23z" />
    <glyph glyph-name="yacute" unicode="&#xfd;" horiz-adv-x="566" 
d="M78 -149q32 -13 56 -13q26 0 43.5 13.5t30.5 35t22.5 48.5t20.5 54l-225 531h50l200 -474l204 474h50l-275 -640q-19 -44 -50.5 -66t-70.5 -22q-33 0 -70 17zM260 582l58 116l54 -17l-76 -99h-36z" />
    <glyph glyph-name="thorn" unicode="&#xfe;" horiz-adv-x="648" 
d="M126 254q0 -46 16.5 -86t45.5 -69.5t67.5 -46.5t83.5 -17t84 17t68 46.5t45.5 70t16.5 86.5t-16.5 86t-45.5 69t-68 46t-84 17t-84 -17t-67.5 -46.5t-45 -69.5t-16.5 -86zM343 -9q-27 0 -56.5 6t-58.5 20t-55.5 36.5t-46.5 55.5v-305h-45v902h45v-306q21 34 48 56.5
t56.5 36t59 19t55.5 5.5q53 0 99 -20.5t80 -56t54 -83.5t20 -103t-20 -103t-54.5 -83.5t-81 -56t-99.5 -20.5z" />
    <glyph glyph-name="ydieresis" unicode="&#xff;" horiz-adv-x="566" 
d="M84 -149q32 -13 56 -13q26 0 43.5 13.5t30.5 35t22.5 48.5t20.5 54l-225 531h50l200 -474l204 474h50l-275 -640q-19 -44 -50.5 -66t-70.5 -22q-33 0 -70 17zM172 630q0 14 9 23t23 9t23 -9t9 -23t-9 -23t-23 -9t-23 9t-9 23zM331 630q0 14 8.5 23t22.5 9t23.5 -9
t9.5 -23t-9.5 -23t-23.5 -9t-22.5 9t-8.5 23z" />
    <glyph glyph-name="Amacron" unicode="&#x100;" horiz-adv-x="669" 
d="M327 653l-151 -380h301zM357 700l277 -700h-49l-91 230h-335l-91 -230h-48l277 700h60zM458 853v-36h-248v36h248z" />
    <glyph glyph-name="amacron" unicode="&#x101;" 
d="M532 260q0 47 -17.5 88t-47.5 72t-70 49t-86 18t-86.5 -18t-70.5 -49.5t-47.5 -72.5t-17.5 -88q0 -46 17.5 -87.5t47.5 -72t70.5 -48.5t86.5 -18t86 18t70 48.5t47.5 72t17.5 88.5zM311 531q67 0 125.5 -33t95.5 -93v115h46v-520h-46v115q-35 -60 -94 -93t-127 -33
q-55 0 -104 21.5t-85.5 58t-57.5 86t-21 104.5q0 56 21 105.5t57.5 86.5t85.5 58.5t104 21.5zM437 653v-36h-248v36h248z" />
    <glyph glyph-name="Abreve" unicode="&#x102;" horiz-adv-x="669" 
d="M327 653l-151 -380h301zM357 700l277 -700h-49l-91 230h-335l-91 -230h-48l277 700h60zM261 866q36 -30 76 -30q38 0 77 30l25 -26q-43 -43 -102 -43q-60 0 -102 43z" />
    <glyph glyph-name="abreve" unicode="&#x103;" 
d="M532 260q0 47 -17.5 88t-47.5 72t-70 49t-86 18t-86.5 -18t-70.5 -49.5t-47.5 -72.5t-17.5 -88q0 -46 17.5 -87.5t47.5 -72t70.5 -48.5t86.5 -18t86 18t70 48.5t47.5 72t17.5 88.5zM311 531q67 0 125.5 -33t95.5 -93v115h46v-520h-46v115q-35 -60 -94 -93t-127 -33
q-55 0 -104 21.5t-85.5 58t-57.5 86t-21 104.5q0 56 21 105.5t57.5 86.5t85.5 58.5t104 21.5zM240 666q36 -30 76 -30q38 0 77 30l25 -26q-43 -43 -102 -43q-60 0 -102 43z" />
    <glyph glyph-name="Aogonek" unicode="&#x104;" horiz-adv-x="683" 
d="M654 -130q12 0 26 6t22 14l22 -27q-30 -27 -69 -27q-47 0 -76.5 28t-29.5 73q0 24 13.5 44t33.5 30l-87 219h-335l-91 -230h-48l277 700h60l277 -700h-5q-23 0 -41 -19t-18 -42q0 -30 19.5 -49.5t49.5 -19.5zM492 273l-150 380l-151 -380h301z" />
    <glyph glyph-name="aogonek" unicode="&#x105;" 
d="M48 259q0 56 21 105.5t57.5 86t85 58t103.5 21.5q68 0 126.5 -33t94.5 -93v115h47v-519h-4q-25 0 -40.5 -20.5t-15.5 -43.5q0 -28 19 -46.5t47 -18.5q15 0 29 5.5t22 13.5l22 -27q-31 -27 -72 -27q-44 0 -73.5 27.5t-29.5 69.5q0 27 13.5 48.5t35.5 31.5v103
q-35 -60 -94 -93t-127 -33q-55 0 -103.5 21t-85 58t-57.5 86t-21 104zM315 34q46 0 86.5 17.5t70.5 48.5t47.5 72t17.5 88t-17.5 88t-47.5 72t-70 49t-86 18t-86.5 -18t-70.5 -49.5t-47.5 -72.5t-17.5 -88q0 -46 17.5 -87t47.5 -72t70 -48.5t86 -17.5z" />
    <glyph glyph-name="Cacute" unicode="&#x106;" horiz-adv-x="665" 
d="M621 80q-42 -42 -103.5 -66.5t-126.5 -24.5q-70 0 -132 28.5t-109 78t-74.5 115.5t-27.5 140t27.5 139t74.5 114.5t109.5 78t132.5 28.5q65 0 125.5 -24.5t102.5 -67.5l-31 -30q-38 36 -90.5 57.5t-105.5 21.5q-62 0 -116.5 -25t-95.5 -68t-64.5 -101t-23.5 -123
q0 -66 24 -124t64.5 -101.5t95.5 -68.5t116 -25q54 0 106 21t91 58zM367 769l58 116l54 -17l-76 -99h-36z" />
    <glyph glyph-name="cacute" unicode="&#x107;" horiz-adv-x="537" 
d="M464 424q-29 30 -69 47t-85 17q-46 0 -86.5 -18.5t-71 -49.5t-48 -72.5t-17.5 -87.5q0 -47 18 -88.5t48.5 -72t72 -48.5t87.5 -18q44 0 83 16t69 47l31 -31q-35 -36 -83 -55.5t-101 -19.5q-56 0 -105.5 21.5t-86 58t-58 86t-21.5 104.5t21 104.5t57.5 86.5t85.5 58.5
t105 21.5q53 0 101.5 -20t84.5 -56zM277 575l58 116l54 -17l-76 -99h-36z" />
    <glyph glyph-name="Ccircumflex" unicode="&#x108;" horiz-adv-x="665" 
d="M621 80q-42 -42 -103.5 -66.5t-126.5 -24.5q-70 0 -132 28.5t-109 78t-74.5 115.5t-27.5 140t27.5 139t74.5 114.5t109.5 78t132.5 28.5q65 0 125.5 -24.5t102.5 -67.5l-31 -30q-38 36 -90.5 57.5t-105.5 21.5q-62 0 -116.5 -25t-95.5 -68t-64.5 -101t-23.5 -123
q0 -66 24 -124t64.5 -101.5t95.5 -68.5t116 -25q54 0 106 21t91 58zM357 893h49l108 -119h-41l-91 86l-93 -86h-41z" />
    <glyph glyph-name="ccircumflex" unicode="&#x109;" horiz-adv-x="535" 
d="M464 424q-29 30 -69 47t-85 17q-46 0 -86.5 -18.5t-71 -49.5t-48 -72.5t-17.5 -87.5q0 -47 18 -88.5t48.5 -72t72 -48.5t87.5 -18q44 0 83 16t69 47l31 -31q-35 -36 -83 -55.5t-101 -19.5q-56 0 -105.5 21.5t-86 58t-58 86t-21.5 104.5t21 104.5t57.5 86.5t85.5 58.5
t105 21.5q53 0 101.5 -20t84.5 -56zM288 693h49l108 -119h-41l-91 86l-93 -86h-41z" />
    <glyph glyph-name="Cdotaccent" unicode="&#x10a;" horiz-adv-x="666" 
d="M621 80q-42 -42 -103.5 -66.5t-126.5 -24.5q-70 0 -132 28.5t-109 78t-74.5 115.5t-27.5 140t27.5 139t74.5 114.5t109.5 78t132.5 28.5q65 0 125.5 -24.5t102.5 -67.5l-31 -30q-38 36 -90.5 57.5t-105.5 21.5q-62 0 -116.5 -25t-95.5 -68t-64.5 -101t-23.5 -123
q0 -66 24 -124t64.5 -101.5t95.5 -68.5t116 -25q54 0 106 21t91 58zM348 791q0 14 9 23t23 9t23 -9t9 -23t-9 -23t-23 -9t-23 9t-9 23z" />
    <glyph glyph-name="cdotaccent" unicode="&#x10b;" horiz-adv-x="535" 
d="M464 424q-29 30 -69 47t-85 17q-46 0 -86.5 -18.5t-71 -49.5t-48 -72.5t-17.5 -87.5q0 -47 18 -88.5t48.5 -72t72 -48.5t87.5 -18q44 0 83 16t69 47l31 -31q-35 -36 -83 -55.5t-101 -19.5q-56 0 -105.5 21.5t-86 58t-58 86t-21.5 104.5t21 104.5t57.5 86.5t85.5 58.5
t105 21.5q53 0 101.5 -20t84.5 -56zM271 590q0 14 9 23t23 9t23 -9t9 -23t-9 -23t-23 -9t-23 9t-9 23z" />
    <glyph glyph-name="Ccaron" unicode="&#x10c;" horiz-adv-x="665" 
d="M621 80q-42 -42 -103.5 -66.5t-126.5 -24.5q-70 0 -132 28.5t-109 78t-74.5 115.5t-27.5 140t27.5 139t74.5 114.5t109.5 78t132.5 28.5q65 0 125.5 -24.5t102.5 -67.5l-31 -30q-38 36 -90.5 57.5t-105.5 21.5q-62 0 -116.5 -25t-95.5 -68t-64.5 -101t-23.5 -123
q0 -66 24 -124t64.5 -101.5t95.5 -68.5t116 -25q54 0 106 21t91 58zM267 893h42l92 -85l91 85h41l-108 -119h-49z" />
    <glyph glyph-name="ccaron" unicode="&#x10d;" horiz-adv-x="537" 
d="M464 424q-29 30 -69 47t-85 17q-46 0 -86.5 -18.5t-71 -49.5t-48 -72.5t-17.5 -87.5q0 -47 18 -88.5t48.5 -72t72 -48.5t87.5 -18q44 0 83 16t69 47l31 -31q-35 -36 -83 -55.5t-101 -19.5q-56 0 -105.5 21.5t-86 58t-58 86t-21.5 104.5t21 104.5t57.5 86.5t85.5 58.5
t105 21.5q53 0 101.5 -20t84.5 -56zM166 693h42l92 -85l91 85h41l-108 -119h-49z" />
    <glyph glyph-name="Dcaron" unicode="&#x10e;" horiz-adv-x="726" 
d="M130 658v-615h163q76 0 137 23t104 64.5t66 97.5t23 122q0 65 -23.5 121.5t-66.5 98t-104 65t-136 23.5h-163zM85 0v701h208q85 0 154 -27.5t118 -75t76 -111.5t27 -138q0 -75 -26.5 -138.5t-75.5 -110.5t-118 -73.5t-155 -26.5h-208zM206 893h42l92 -85l91 85h41
l-108 -119h-49z" />
    <glyph glyph-name="dcaron" unicode="&#x10f;" horiz-adv-x="781" 
d="M531 260q0 47 -17.5 88t-48 72t-71 49t-86.5 18t-86 -18t-70 -49.5t-47.5 -72.5t-17.5 -88q0 -46 17.5 -87.5t47.5 -72.5t70 -49t86 -18t86.5 18t71 49t48 72.5t17.5 88.5zM308 531q68 0 126.5 -33t95.5 -92v294h47v-700h-47v114q-39 -62 -96 -94t-125 -32
q-55 0 -104 21.5t-86 58t-58 86t-21 105.5t21 105.5t57.5 86.5t85.5 58.5t104 21.5zM742 653q0 -64 -55 -101l-18 29q12 9 21.5 22t9.5 32q-17 -1 -28.5 11.5t-11.5 26.5q0 16 10.5 27.5t27.5 11.5q23 0 33.5 -18.5t10.5 -40.5z" />
    <glyph glyph-name="Dcroat" unicode="&#x110;" horiz-adv-x="732" 
d="M679 349q0 -73 -26.5 -136.5t-75.5 -111t-117 -74.5t-152 -27h-208v278h-50v44h50v379h208q83 0 151.5 -27.5t117.5 -75.5t75.5 -112t26.5 -137zM634 350q0 65 -23 121t-65.5 97.5t-103 65.5t-134.5 24h-163v-336h163v-44h-163v-235h163q74 0 134.5 23.5t103 65
t65.5 97.5t23 121z" />
    <glyph glyph-name="dcroat" unicode="&#x111;" horiz-adv-x="694" 
d="M46 260q0 56 21 105t58 86.5t86 59t104 21.5q67 0 125.5 -32t94.5 -92v200h-152v41h152v51h47v-51h50v-41h-50v-607h-47v112q-39 -60 -96.5 -92t-123.5 -32q-55 0 -104 21.5t-86 58t-58 86t-21 105.5zM315 33q45 0 85.5 18t70.5 49t47.5 72.5t17.5 88.5t-17.5 88
t-47.5 72.5t-70.5 49.5t-85.5 18q-46 0 -86.5 -18.5t-71 -50t-48 -73t-17.5 -88.5q0 -46 17.5 -87.5t48 -72t71 -48.5t86.5 -18z" />
    <glyph glyph-name="Emacron" unicode="&#x112;" horiz-adv-x="567" 
d="M77 0v699h453v-43h-408v-248h359v-43h-359v-322h408v-43h-453zM407 833v-36h-248v36h248z" />
    <glyph glyph-name="emacron" unicode="&#x113;" horiz-adv-x="617" 
d="M532 283q-4 44 -23 81.5t-48.5 64.5t-68 42.5t-82.5 15.5q-43 0 -80.5 -15t-67 -42t-49 -64.5t-25.5 -82.5h444zM511 79q-36 -43 -88.5 -66.5t-112.5 -23.5q-56 0 -105.5 21.5t-86 58t-57.5 86t-21 106.5q0 56 21.5 105.5t58 86t86 57.5t105.5 21q59 0 109 -22.5
t86.5 -62t56 -92.5t17.5 -115h-492q3 -43 22 -81t49 -65.5t69 -43.5t82 -16q51 0 95.5 20.5t74.5 56.5zM432 653v-36h-248v36h248z" />
    <glyph glyph-name="Ebreve" unicode="&#x114;" horiz-adv-x="578" 
d="M77 0v699h453v-43h-408v-248h359v-43h-359v-322h408v-43h-453zM215 866q36 -30 76 -30q38 0 77 30l25 -26q-43 -43 -102 -43q-60 0 -102 43z" />
    <glyph glyph-name="ebreve" unicode="&#x115;" horiz-adv-x="617" 
d="M532 283q-4 44 -23 81.5t-48.5 64.5t-68 42.5t-82.5 15.5q-43 0 -80.5 -15t-67 -42t-49 -64.5t-25.5 -82.5h444zM511 79q-36 -43 -88.5 -66.5t-112.5 -23.5q-56 0 -105.5 21.5t-86 58t-57.5 86t-21 106.5q0 56 21.5 105.5t58 86t86 57.5t105.5 21q59 0 109 -22.5
t86.5 -62t56 -92.5t17.5 -115h-492q3 -43 22 -81t49 -65.5t69 -43.5t82 -16q51 0 95.5 20.5t74.5 56.5zM235 666q36 -30 76 -30q38 0 77 30l25 -26q-43 -43 -102 -43q-60 0 -102 43z" />
    <glyph glyph-name="Edotaccent" unicode="&#x116;" horiz-adv-x="583" 
d="M77 0v699h453v-43h-408v-248h359v-43h-359v-322h408v-43h-453zM264 831q0 14 9 23t23 9t23 -9t9 -23t-9 -23t-23 -9t-23 9t-9 23z" />
    <glyph glyph-name="edotaccent" unicode="&#x117;" horiz-adv-x="617" 
d="M532 283q-4 44 -23 81.5t-48.5 64.5t-68 42.5t-82.5 15.5q-43 0 -80.5 -15t-67 -42t-49 -64.5t-25.5 -82.5h444zM511 79q-36 -43 -88.5 -66.5t-112.5 -23.5q-56 0 -105.5 21.5t-86 58t-57.5 86t-21 106.5q0 56 21.5 105.5t58 86t86 57.5t105.5 21q59 0 109 -22.5
t86.5 -62t56 -92.5t17.5 -115h-492q3 -43 22 -81t49 -65.5t69 -43.5t82 -16q51 0 95.5 20.5t74.5 56.5zM309.004 618q0 14 -3 23q-2.99902 9 -7.66406 9q-4.66602 0 -7.66504 -9t-2.99902 -23t2.99902 -23t7.66504 -9q4.66504 0 7.66406 9q3 9 3 23z" />
    <glyph glyph-name="Eogonek" unicode="&#x118;" horiz-adv-x="567" 
d="M546 -130q11 0 25.5 6t22.5 14l21 -26q-31 -28 -68 -28q-47 0 -76.5 28.5t-29.5 73.5q0 18 8 34.5t21 27.5h-393v699h456l-1 -43h-410v-248h359l-1 -43h-358v-322h412l-1 -43h-3q-22 -2 -37.5 -20.5t-15.5 -40.5q0 -30 19 -49.5t50 -19.5z" />
    <glyph glyph-name="eogonek" unicode="&#x119;" horiz-adv-x="617" 
d="M312 33q51 0 96 20.5t74 56.5l32 -31q-38 -45 -91 -67.5t-113 -22.5q-3 -1 -7 -1h-8q-11 -9 -17.5 -22t-6.5 -27q0 -30 19.5 -49.5t50.5 -19.5q11 0 25 6t22 14l22 -27q-33 -28 -69 -28q-47 0 -76.5 28.5t-29.5 73.5q0 32 24 58q-46 9 -86 33.5t-68.5 60t-45 79.5
t-16.5 93q0 56 21.5 105.5t58 86t86 57.5t105.5 21q59 0 109 -22.5t86.5 -62t56 -92.5t16.5 -115h-491q3 -43 21.5 -81t48.5 -65.5t69 -43.5t82 -16zM313 487q-43 0 -81 -15t-67.5 -42t-49 -64.5t-25.5 -82.5h445q-4 44 -23 81.5t-48.5 64.5t-68 42.5t-82.5 15.5z" />
    <glyph glyph-name="Ecaron" unicode="&#x11a;" horiz-adv-x="583" 
d="M77 0v699h453v-43h-408v-248h359v-43h-359v-322h408v-43h-453zM143 893h42l92 -85l91 85h41l-108 -119h-49z" />
    <glyph glyph-name="ecaron" unicode="&#x11b;" horiz-adv-x="617" 
d="M532 283q-4 44 -23 81.5t-48.5 64.5t-68 42.5t-82.5 15.5q-43 0 -80.5 -15t-67 -42t-49 -64.5t-25.5 -82.5h444zM511 79q-36 -43 -88.5 -66.5t-112.5 -23.5q-56 0 -105.5 21.5t-86 58t-57.5 86t-21 106.5q0 56 21.5 105.5t58 86t86 57.5t105.5 21q59 0 109 -22.5
t86.5 -62t56 -92.5t17.5 -115h-492q3 -43 22 -81t49 -65.5t69 -43.5t82 -16q51 0 95.5 20.5t74.5 56.5zM178 693h42l92 -85l91 85h41l-108 -119h-49z" />
    <glyph glyph-name="Gcircumflex" unicode="&#x11c;" horiz-adv-x="694" 
d="M628 347v-261q-51 -48 -111 -72.5t-126 -24.5q-71 0 -134 28t-109.5 77t-73.5 114.5t-27 140.5t27 140.5t73.5 115t109 78t132.5 28.5q64 0 122.5 -22.5t99.5 -60.5l-22 -39q-41 38 -92 58t-106 20q-62 0 -116 -25t-94.5 -68t-64 -100.5t-23.5 -123.5t23.5 -123.5
t63.5 -100.5t93.5 -68t112.5 -25q28 0 56 5.5t54 15t48.5 23t38.5 29.5v197h-183v44h228zM322 893h49l108 -119h-41l-91 86l-93 -86h-41z" />
    <glyph glyph-name="gcircumflex" unicode="&#x11d;" horiz-adv-x="643" 
d="M44 268q0 54 20 101.5t54.5 83t80.5 55.5t99 20q66 0 122.5 -31.5t91.5 -88.5v111h45v-505q0 -48 -19 -88.5t-52.5 -70t-79.5 -46.5t-101 -17q-53 0 -97.5 16.5t-78.5 50.5l15 46q59 -68 162 -68q45 0 82.5 13.5t65 37t43 55.5t15.5 69v110q-35 -57 -89.5 -88.5
t-120.5 -31.5q-53 0 -100 21t-82 57t-55.5 84.5t-20.5 103.5zM303 47q44 0 82.5 16.5t66.5 46t44 69.5t16 86q0 47 -16 87t-44.5 69t-67.5 46t-84 17t-83.5 -16.5t-67 -46t-44.5 -69t-16 -85.5t16.5 -86t45.5 -70t68 -47t84 -17zM281 693h49l108 -119h-41l-91 86l-93 -86
h-41z" />
    <glyph glyph-name="Gbreve" unicode="&#x11e;" horiz-adv-x="694" 
d="M628 347v-261q-51 -48 -111 -72.5t-126 -24.5q-71 0 -134 28t-109.5 77t-73.5 114.5t-27 140.5t27 140.5t73.5 115t109 78t132.5 28.5q64 0 122.5 -22.5t99.5 -60.5l-22 -39q-41 38 -92 58t-106 20q-62 0 -116 -25t-94.5 -68t-64 -100.5t-23.5 -123.5t23.5 -123.5
t63.5 -100.5t93.5 -68t112.5 -25q28 0 56 5.5t54 15t48.5 23t38.5 29.5v197h-183v44h228zM274 866q36 -30 76 -30q38 0 77 30l25 -26q-43 -43 -102 -43q-60 0 -102 43z" />
    <glyph glyph-name="gbreve" unicode="&#x11f;" horiz-adv-x="643" 
d="M44 268q0 54 20 101.5t54.5 83t80.5 55.5t99 20q66 0 122.5 -31.5t91.5 -88.5v111h45v-505q0 -48 -19 -88.5t-52.5 -70t-79.5 -46.5t-101 -17q-53 0 -97.5 16.5t-78.5 50.5l15 46q59 -68 162 -68q45 0 82.5 13.5t65 37t43 55.5t15.5 69v110q-35 -57 -89.5 -88.5
t-120.5 -31.5q-53 0 -100 21t-82 57t-55.5 84.5t-20.5 103.5zM303 47q44 0 82.5 16.5t66.5 46t44 69.5t16 86q0 47 -16 87t-44.5 69t-67.5 46t-84 17t-83.5 -16.5t-67 -46t-44.5 -69t-16 -85.5t16.5 -86t45.5 -70t68 -47t84 -17zM247 666q36 -30 76 -30q38 0 77 30l25 -26
q-43 -43 -102 -43q-60 0 -102 43z" />
    <glyph glyph-name="Gdotaccent" unicode="&#x120;" horiz-adv-x="694" 
d="M628 347v-261q-51 -48 -111 -72.5t-126 -24.5q-71 0 -134 28t-109.5 77t-73.5 114.5t-27 140.5t27 140.5t73.5 115t109 78t132.5 28.5q64 0 122.5 -22.5t99.5 -60.5l-22 -39q-41 38 -92 58t-106 20q-62 0 -116 -25t-94.5 -68t-64 -100.5t-23.5 -123.5t23.5 -123.5
t63.5 -100.5t93.5 -68t112.5 -25q28 0 56 5.5t54 15t48.5 23t38.5 29.5v197h-183v44h228zM349 831q0 14 9 23t23 9t23 -9t9 -23t-9 -23t-23 -9t-23 9t-9 23z" />
    <glyph glyph-name="gdotaccent" unicode="&#x121;" horiz-adv-x="643" 
d="M44 268q0 54 20 101.5t54.5 83t80.5 55.5t99 20q66 0 122.5 -31.5t91.5 -88.5v111h45v-505q0 -48 -19 -88.5t-52.5 -70t-79.5 -46.5t-101 -17q-53 0 -97.5 16.5t-78.5 50.5l15 46q59 -68 162 -68q45 0 82.5 13.5t65 37t43 55.5t15.5 69v110q-35 -57 -89.5 -88.5
t-120.5 -31.5q-53 0 -100 21t-82 57t-55.5 84.5t-20.5 103.5zM303 47q44 0 82.5 16.5t66.5 46t44 69.5t16 86q0 47 -16 87t-44.5 69t-67.5 46t-84 17t-83.5 -16.5t-67 -46t-44.5 -69t-16 -85.5t16.5 -86t45.5 -70t68 -47t84 -17zM288 631q0 14 9 23t23 9t23 -9t9 -23t-9 -23
t-23 -9t-23 9t-9 23z" />
    <glyph glyph-name="uni0122" unicode="&#x122;" horiz-adv-x="694" 
d="M628 347v-261q-51 -48 -111 -72.5t-126 -24.5q-71 0 -134 28t-109.5 77t-73.5 114.5t-27 140.5t27 140.5t73.5 115t109 78t132.5 28.5q64 0 122.5 -22.5t99.5 -60.5l-22 -39q-41 38 -92 58t-106 20q-62 0 -116 -25t-94.5 -68t-64 -100.5t-23.5 -123.5t23.5 -123.5
t63.5 -100.5t93.5 -68t112.5 -25q28 0 56 5.5t54 15t48.5 23t38.5 29.5v197h-183v44h228zM421 -92q0 -59 -51 -94l-19 29q11 8 19.5 19t8.5 29q-14 0 -23.5 11t-9.5 23q0 14 9.5 24.5t25.5 10.5q11 0 19 -5t12.5 -13t6.5 -17t2 -17z" />
    <glyph glyph-name="uni0123" unicode="&#x123;" horiz-adv-x="631" 
d="M42 268q0 54 20 101.5t54.5 83t80.5 55.5t99 20q66 0 122.5 -31.5t91.5 -88.5v111h45v-505q0 -48 -19 -88.5t-52.5 -70t-79.5 -46.5t-101 -17q-53 0 -97.5 16.5t-78.5 50.5l15 46q59 -68 162 -68q45 0 82.5 13.5t65 37t43 55.5t15.5 69v110q-35 -57 -89.5 -88.5
t-120.5 -31.5q-53 0 -100 21t-82 57t-55.5 84.5t-20.5 103.5zM301 47q44 0 82.5 16.5t66.5 46t44 69.5t16 86q0 47 -16 87t-44.5 69t-67.5 46t-84 17t-83.5 -16.5t-67 -46t-44.5 -69t-16 -85.5t16.5 -86t45.5 -70t68 -47t84 -17zM259 651q0 64 55 101l18 -29
q-12 -9 -21.5 -22t-9.5 -32q17 1 28.5 -11.5t11.5 -26.5q0 -16 -10.5 -27.5t-27.5 -11.5q-23 0 -33.5 18.5t-10.5 40.5z" />
    <glyph glyph-name="Hcircumflex" unicode="&#x124;" horiz-adv-x="677" 
d="M546 410v292h45v-702h-45v367h-415v-367h-45v702h45v-292h415zM314 873h49l108 -119h-41l-91 86l-93 -86h-41z" />
    <glyph glyph-name="hcircumflex" unicode="&#x125;" horiz-adv-x="624" 
d="M335 528q46 0 85.5 -18.5t68 -51t44.5 -77t16 -97.5v-283h-45v283q0 44 -12.5 80t-35 62.5t-54 41t-68.5 14.5q-42 0 -80 -18t-67.5 -47.5t-47 -67.5t-17.5 -79v-269h-46v701h46v-301q38 59 94 93t119 34zM73 846h49l108 -119h-41l-91 86l-93 -86h-41z" />
    <glyph glyph-name="Hbar" unicode="&#x126;" horiz-adv-x="682" 
d="M135 0h-45v558h-29v40h29v104h45v-104h415v104h45v-104h27v-40h-27v-558h-45v365h-415v-365zM135 408h415v150h-415v-150z" />
    <glyph glyph-name="hbar" unicode="&#x127;" horiz-adv-x="632" 
d="M342 482q-42 0 -80.5 -18t-68 -47.5t-47 -67.5t-17.5 -79v-269h-46v616h-38v38h38v46h46v-46h164v-38h-164v-216q38 60 94 93.5t119 33.5q47 0 86 -18.5t68 -51t45 -77t16 -97.5v-283h-45v283q0 44 -12.5 80t-35 62.5t-54 41t-68.5 14.5z" />
    <glyph glyph-name="Itilde" unicode="&#x128;" horiz-adv-x="246" 
d="M145 700v-700h-45v700h45zM-22 807q2 46 24 75t56 29q21 0 38.5 -11.5t33 -26t30 -26t30.5 -11.5q40 0 46 71l31 -2q-2 -47 -23.5 -75t-54.5 -28q-22 0 -39 11.5t-32.5 26t-29.5 26t-30 11.5q-20 0 -33 -20t-15 -53z" />
    <glyph glyph-name="itilde" unicode="&#x129;" horiz-adv-x="243" 
d="M144 520v-520h-45v520h45zM-24 607q2 46 24 75t56 29q21 0 38.5 -11.5t33 -26t30 -26t30.5 -11.5q40 0 46 71l31 -2q-2 -47 -23.5 -75t-54.5 -28q-22 0 -39 11.5t-32.5 26t-29.5 26t-30 11.5q-20 0 -33 -20t-15 -53z" />
    <glyph glyph-name="Imacron" unicode="&#x12a;" horiz-adv-x="246" 
d="M145 700v-700h-45v700h45zM247 833v-36h-248v36h248z" />
    <glyph glyph-name="imacron" unicode="&#x12b;" horiz-adv-x="228" 
d="M137 520v-520h-45v520h45zM238 653v-36h-248v36h248z" />
    <glyph glyph-name="Ibreve" unicode="&#x12c;" horiz-adv-x="246" 
d="M145 700v-700h-45v700h45zM49 846q36 -30 76 -30q38 0 77 30l25 -26q-43 -43 -102 -43q-60 0 -102 43z" />
    <glyph glyph-name="ibreve" unicode="&#x12d;" horiz-adv-x="228" 
d="M137 520v-520h-45v520h45zM40 666q36 -30 76 -30q38 0 77 30l25 -26q-43 -43 -102 -43q-60 0 -102 43z" />
    <glyph glyph-name="Iogonek" unicode="&#x12e;" horiz-adv-x="246" 
d="M157 -132q11 0 24.5 6t21.5 14l21 -26q-14 -14 -31.5 -20.5t-35.5 -6.5q-47 0 -76 29t-29 74q0 24 13 44t35 29v690h45v-701h-2q-22 -1 -39.5 -20t-17.5 -42q0 -31 19.5 -50.5t51.5 -19.5z" />
    <glyph glyph-name="iogonek" unicode="&#x12f;" horiz-adv-x="217" 
d="M141 -130q11 0 25 6t22 14l21 -26q-31 -28 -68 -28q-47 0 -76 28.5t-29 73.5q0 25 13.5 45.5t36.5 29.5v507h45v-520h-7q-22 -3 -37.5 -21t-15.5 -40q0 -30 19.5 -49.5t50.5 -19.5zM108 624q-14 0 -22.5 9t-8.5 23t8.5 23t22.5 9t23 -9t9 -23t-9 -23t-23 -9z" />
    <glyph glyph-name="Idotaccent" unicode="&#x130;" horiz-adv-x="246" 
d="M145 700v-700h-45v700h45zM88 831q0 14 9 23t23 9t23 -9t9 -23t-9 -23t-23 -9t-23 9t-9 23z" />
    <glyph glyph-name="dotlessi" unicode="&#x131;" horiz-adv-x="228" 
d="M137 520v-520h-45v520h45z" />
    <glyph glyph-name="IJ" unicode="&#x132;" horiz-adv-x="652" 
d="M145 700v-700h-45v700h45zM592 194q0 -43 -13 -80.5t-37 -65t-57.5 -43t-74.5 -15.5q-35 0 -69.5 12.5t-57.5 35.5l14 43q20 -22 51.5 -34t62.5 -12t56 12t43 33.5t27.5 50.5t9.5 63v506h45v-506z" />
    <glyph glyph-name="ij" unicode="&#x133;" horiz-adv-x="434" 
d="M77 656q0 14 8.5 23t22.5 9t23 -9t9 -23t-9 -23t-23 -9t-22.5 9t-8.5 23zM131 520v-520h-45v520h45zM348 -38q0 -85 -34.5 -128t-97.5 -43t-102 36l14 43q20 -18 39.5 -26.5t45.5 -8.5q45 0 67.5 31t22.5 99v555h45v-558zM294 656q0 14 9 23t23 9t23 -9t9 -23
q0 -13 -9 -22.5t-23 -9.5t-23 9.5t-9 22.5z" />
    <glyph glyph-name="Jcircumflex" unicode="&#x134;" horiz-adv-x="475" 
d="M346 194q0 -43 -13 -80.5t-37 -65t-57.5 -43t-74.5 -15.5q-35 0 -69.5 12.5t-57.5 35.5l14 43q20 -22 51.5 -34t62.5 -12t56 12t43 33.5t27.5 50.5t9.5 63v506h45v-506zM287 893h49l108 -119h-41l-91 86l-93 -86h-41z" />
    <glyph glyph-name="jcircumflex" unicode="&#x135;" horiz-adv-x="230" 
d="M138 -39q0 -36 -7 -67.5t-23 -55t-42.5 -36.5t-65.5 -13q-66 0 -102 38l14 43q17 -18 40.5 -27.5t49.5 -9.5q31 0 49 11.5t27.5 30.5t12 41.5t2.5 45.5v557h45v-558zM89 676h49l109 -119h-41l-92 85l-92 -85h-41z" />
    <glyph glyph-name="uni0136" unicode="&#x136;" horiz-adv-x="573" 
d="M553 -1h-54l-258 378l-115 -119v-259h-45v702h45v-382l363 382h59l-276 -291zM323 -92q0 -59 -51 -94l-19 29q11 8 19.5 19t8.5 29q-14 0 -23.5 11t-9.5 23q0 14 9.5 24.5t25.5 10.5q11 0 19 -5t12.5 -13t6.5 -17t2 -17z" />
    <glyph glyph-name="uni0137" unicode="&#x137;" horiz-adv-x="541" 
d="M494 520l-211 -177l231 -343h-56l-211 313l-118 -99v-213h-46v700h46v-428l295 247h70zM307 -92q0 -59 -51 -94l-19 29q11 8 19.5 19t8.5 29q-14 0 -23.5 11t-9.5 23q0 14 9.5 24.5t25.5 10.5q11 0 19 -5t12.5 -13t6.5 -17t2 -17z" />
    <glyph glyph-name="Lacute" unicode="&#x139;" horiz-adv-x="557" 
d="M84 0v700h45v-657h375v-43h-420zM97 782l58 116l54 -17l-76 -99h-36z" />
    <glyph glyph-name="lacute" unicode="&#x13a;" horiz-adv-x="220" 
d="M133 701v-700h-45v700h45zM94 759l58 116l54 -17l-76 -99h-36z" />
    <glyph glyph-name="uni013B" unicode="&#x13b;" horiz-adv-x="552" 
d="M84 0v700h45v-657h375v-43h-420zM313 -92q0 -59 -51 -94l-19 29q11 8 19.5 19t8.5 29q-14 0 -23.5 11t-9.5 23q0 14 9.5 24.5t25.5 10.5q11 0 19 -5t12.5 -13t6.5 -17t2 -17z" />
    <glyph glyph-name="uni013C" unicode="&#x13c;" horiz-adv-x="220" 
d="M133 701v-700h-45v700h45zM147 -92q0 -59 -51 -94l-19 29q11 8 19.5 19t8.5 29q-14 0 -23.5 11t-9.5 23q0 14 9.5 24.5t25.5 10.5q11 0 19 -5t12.5 -13t6.5 -17t2 -17z" />
    <glyph glyph-name="Lcaron" unicode="&#x13d;" horiz-adv-x="557" 
d="M84 0v700h45v-657h375v-43h-420zM281 651q0 -64 -55 -101l-18 29q12 9 21.5 22t9.5 32q-17 -1 -28.5 11.5t-11.5 26.5q0 16 10.5 27.5t27.5 11.5q23 0 33.5 -18.5t10.5 -40.5z" />
    <glyph glyph-name="lcaron" unicode="&#x13e;" horiz-adv-x="352" 
d="M133 701v-700h-45v700h45zM310 653q0 -64 -55 -101l-18 29q12 9 21.5 22t9.5 32q-17 -1 -28.5 11.5t-11.5 26.5q0 16 10.5 27.5t27.5 11.5q23 0 33.5 -18.5t10.5 -40.5z" />
    <glyph glyph-name="Ldot" unicode="&#x13f;" horiz-adv-x="557" 
d="M84 0v700h45v-657h375v-43h-420zM240 246q0 15 11.5 26.5t27.5 11.5q15 0 26.5 -11.5t11.5 -26.5q0 -16 -11.5 -27.5t-26.5 -11.5q-16 0 -27.5 11.5t-11.5 27.5z" />
    <glyph glyph-name="ldot" unicode="&#x140;" horiz-adv-x="333" 
d="M133 701v-700h-45v700h45zM212 246q0 15 11.5 26.5t27.5 11.5q15 0 26.5 -11.5t11.5 -26.5q0 -16 -11.5 -27.5t-26.5 -11.5q-16 0 -27.5 11.5t-11.5 27.5z" />
    <glyph glyph-name="Lslash" unicode="&#x141;" horiz-adv-x="604" 
d="M573 0h-440v295l-83 -48v52l83 48v354h45v-328l119 69v-52l-119 -69v-278h395v-43z" />
    <glyph glyph-name="lslash" unicode="&#x142;" horiz-adv-x="335" 
d="M128 701h45v-330l119 68v-52l-119 -68v-318h-45v292l-86 -50v52l86 50v356z" />
    <glyph glyph-name="Nacute" unicode="&#x143;" horiz-adv-x="773" 
d="M607 0l-478 643v-643h-45v700h59l478 -643v643h45v-700h-59zM347 782l58 116l54 -17l-76 -99h-36z" />
    <glyph glyph-name="nacute" unicode="&#x144;" horiz-adv-x="582" 
d="M319 530q44 0 81.5 -16t64.5 -44t42.5 -66.5t15.5 -82.5v-321h-46v321q0 35 -12 65t-33.5 51.5t-51.5 34t-67 12.5q-39 0 -73.5 -14.5t-61 -40t-41.5 -59.5t-15 -73v-297h-46v519h46v-93q28 47 81.5 75.5t115.5 28.5zM286 589l58 116l54 -17l-76 -99h-36z" />
    <glyph glyph-name="uni0145" unicode="&#x145;" horiz-adv-x="773" 
d="M607 0l-478 643v-643h-45v700h59l478 -643v643h45v-700h-59zM424 -92q0 -59 -51 -94l-19 29q11 8 19.5 19t8.5 29q-14 0 -23.5 11t-9.5 23q0 14 9.5 24.5t25.5 10.5q11 0 19 -5t12.5 -13t6.5 -17t2 -17z" />
    <glyph glyph-name="uni0146" unicode="&#x146;" horiz-adv-x="582" 
d="M319 530q44 0 81.5 -16t64.5 -44t42.5 -66.5t15.5 -82.5v-321h-46v321q0 35 -12 65t-33.5 51.5t-51.5 34t-67 12.5q-39 0 -73.5 -14.5t-61 -40t-41.5 -59.5t-15 -73v-297h-46v519h46v-93q28 47 81.5 75.5t115.5 28.5zM328 -92q0 -59 -51 -94l-19 29q11 8 19.5 19t8.5 29
q-14 0 -23.5 11t-9.5 23q0 14 9.5 24.5t25.5 10.5q11 0 19 -5t12.5 -13t6.5 -17t2 -17z" />
    <glyph glyph-name="Ncaron" unicode="&#x147;" horiz-adv-x="773" 
d="M607 0l-478 643v-643h-45v700h59l478 -643v643h45v-700h-59zM235 893h42l92 -85l91 85h41l-108 -119h-49z" />
    <glyph glyph-name="ncaron" unicode="&#x148;" horiz-adv-x="582" 
d="M319 530q44 0 81.5 -16t64.5 -44t42.5 -66.5t15.5 -82.5v-321h-46v321q0 35 -12 65t-33.5 51.5t-51.5 34t-67 12.5q-39 0 -73.5 -14.5t-61 -40t-41.5 -59.5t-15 -73v-297h-46v519h46v-93q28 47 81.5 75.5t115.5 28.5zM139 693h42l92 -85l91 85h41l-108 -119h-49z" />
    <glyph glyph-name="napostrophe" unicode="&#x149;" horiz-adv-x="677" 
d="M401 530q44 0 81.5 -16t64.5 -44t42.5 -66.5t15.5 -82.5v-321h-46v321q0 35 -12 65t-33.5 51.5t-51.5 34t-67 12.5q-39 0 -73.5 -14.5t-61 -40t-41.5 -59.5t-15 -73v-297h-46v519h46v-93q28 47 81.5 75.5t115.5 28.5zM118 491q0 -59 -51 -94l-19 29q11 8 19.5 19t8.5 29
q-14 0 -23.5 11t-9.5 23q0 14 9.5 24.5t25.5 10.5q11 0 19 -5t12.5 -13t6.5 -17t2 -17z" />
    <glyph glyph-name="Omacron" unicode="&#x14c;" horiz-adv-x="787" 
d="M693 350q0 66 -23.5 124t-64 100.5t-95 67.5t-116.5 25t-116 -25t-94.5 -68t-64 -100.5t-23.5 -123.5q0 -65 23.5 -123t64 -101t95 -68t116.5 -25t116 25t94.5 68t64 100.5t23.5 123.5zM51 349q0 75 27 141t73.5 115t109.5 77.5t134 28.5t133.5 -28.5t109 -77
t73.5 -114.5t27 -141t-27 -141t-73.5 -114.5t-109 -77t-133.5 -28.5t-134 28t-109.5 77t-73.5 114.5t-27 140.5zM518 853v-36h-248v36h248z" />
    <glyph glyph-name="omacron" unicode="&#x14d;" horiz-adv-x="627" 
d="M534 259q0 47 -17.5 88.5t-48 73t-71 49.5t-86.5 18t-86.5 -18.5t-71.5 -49.5t-49 -72.5t-18 -88.5q0 -46 18 -87t49 -72t71.5 -49t86.5 -18t86.5 17.5t71 48.5t48 72t17.5 88zM40 259q0 56 21.5 106t58 87t86 58.5t105.5 21.5t105 -21.5t85.5 -58.5t57.5 -86.5
t21 -106.5q0 -56 -21 -105.5t-57.5 -86t-85.5 -57.5t-105 -21t-105.5 21t-86 58t-58 86t-21.5 105zM438 653v-36h-248v36h248z" />
    <glyph glyph-name="Obreve" unicode="&#x14e;" horiz-adv-x="782" 
d="M690 350q0 66 -23.5 124t-64 100.5t-95 67.5t-116.5 25t-116 -25t-94.5 -68t-64 -100.5t-23.5 -123.5q0 -65 23.5 -123t64 -101t95 -68t116.5 -25t116 25t94.5 68t64 100.5t23.5 123.5zM48 349q0 75 27 141t73.5 115t109.5 77.5t134 28.5t133.5 -28.5t109 -77
t73.5 -114.5t27 -141t-27 -141t-73.5 -114.5t-109 -77t-133.5 -28.5t-134 28t-109.5 77t-73.5 114.5t-27 140.5zM318 866q36 -30 76 -30q38 0 77 30l25 -26q-43 -43 -102 -43q-60 0 -102 43z" />
    <glyph glyph-name="obreve" unicode="&#x14f;" horiz-adv-x="627" 
d="M534 259q0 47 -17.5 88.5t-48 73t-71 49.5t-86.5 18t-86.5 -18.5t-71.5 -49.5t-49 -72.5t-18 -88.5q0 -46 18 -87t49 -72t71.5 -49t86.5 -18t86.5 17.5t71 48.5t48 72t17.5 88zM40 259q0 56 21.5 106t58 87t86 58.5t105.5 21.5t105 -21.5t85.5 -58.5t57.5 -86.5
t21 -106.5q0 -56 -21 -105.5t-57.5 -86t-85.5 -57.5t-105 -21t-105.5 21t-86 58t-58 86t-21.5 105zM240 666q36 -30 76 -30q38 0 77 30l25 -26q-43 -43 -102 -43q-60 0 -102 43z" />
    <glyph glyph-name="Ohungarumlaut" unicode="&#x150;" horiz-adv-x="787" 
d="M693 350q0 66 -23.5 124t-64 100.5t-95 67.5t-116.5 25t-116 -25t-94.5 -68t-64 -100.5t-23.5 -123.5q0 -65 23.5 -123t64 -101t95 -68t116.5 -25t116 25t94.5 68t64 100.5t23.5 123.5zM51 349q0 75 27 141t73.5 115t109.5 77.5t134 28.5t133.5 -28.5t109 -77
t73.5 -114.5t27 -141t-27 -141t-73.5 -114.5t-109 -77t-133.5 -28.5t-134 28t-109.5 77t-73.5 114.5t-27 140.5zM270 796l49 102l49 -16l-66 -86h-32zM445 796l50 102l49 -16l-67 -86h-32z" />
    <glyph glyph-name="ohungarumlaut" unicode="&#x151;" horiz-adv-x="620" 
d="M235.043 259q0 47 5.83203 88.5t15.9961 73t23.6611 49.5t28.8262 18q15.3301 0 28.8262 -18.5q13.4971 -18.5 23.8281 -49.5t16.3291 -72.5t5.99805 -88.5q0 -46 -5.99805 -87t-16.3291 -72t-23.8281 -49q-13.4961 -18 -28.8262 -18q-15.3291 0 -28.8262 17.5
t-23.6611 48.5t-15.9961 72t-5.83203 88zM399.67 259q0 56 -7.16504 106t-19.3281 87q-12.1641 37 -28.6602 58.5t-35.1582 21.5t-34.9912 -21.5t-28.4932 -58.5q-12.1631 -37 -19.1621 -86.5q-6.99805 -49.5 -6.99805 -106.5q0 -56 6.99805 -105.5
q6.99902 -49.5 19.1621 -86q12.1641 -36.5 28.4932 -57.5t34.9912 -21t35.1582 21t28.6602 58q12.1631 37 19.3281 86t7.16504 105zM202 595l49 102l49 -16l-66 -86h-32zM377 595l50 102l49 -16l-67 -86h-32z" />
    <glyph glyph-name="OE" unicode="&#x152;" horiz-adv-x="903" 
d="M51 349q0 80 27.5 145t74.5 111.5t110 71.5t134 25h461v-44h-400v-249h348v-43h-348v-324h400v-43h-461q-71 0 -134 26.5t-110 73t-74.5 111t-27.5 139.5zM96 350q0 -66 23 -122.5t65 -98t100.5 -64.5t128.5 -23v616q-76 0 -135.5 -24t-99.5 -65.5t-61 -97.5t-21 -121z
" />
    <glyph glyph-name="oe" unicode="&#x153;" horiz-adv-x="1124" 
d="M313 -11q-56 0 -105.5 21.5t-86 58t-58 86t-21.5 105.5t21.5 105.5t58 86.5t86 58t105.5 21q42 0 80 -12t70.5 -33.5t57 -52t39.5 -66.5q15 36 40 66t57.5 51.5t71 33.5t80.5 12q59 0 108.5 -22.5t85.5 -62t56 -92.5t18 -114h-491q3 -44 22 -82t49 -65.5t69 -43t82 -15.5
q50 0 94.5 20t74.5 57l32 -31q-37 -43 -89.5 -66.5t-112.5 -23.5q-42 0 -80 12t-70 34t-56.5 52t-39.5 66q-15 -36 -40 -66t-57.5 -52t-70.5 -34t-80 -12zM313 33q46 0 87 18t71.5 48.5t48 72t17.5 88.5t-18 88t-48.5 72.5t-71 49.5t-86.5 18t-86.5 -18t-71 -49.5
t-48.5 -72.5t-18 -88q0 -46 18 -87.5t48.5 -72.5t71 -49t86.5 -18zM807 486q-43 0 -80.5 -15t-67 -41.5t-49 -64t-25.5 -82.5h444q-4 45 -23 82t-48.5 64t-68 42t-82.5 15z" />
    <glyph glyph-name="Racute" unicode="&#x154;" horiz-adv-x="603" 
d="M527 495q0 35 -14.5 64.5t-39.5 51.5t-59.5 34t-75.5 12h-212v-322h216q40 0 74 12t58.5 33.5t38.5 51t14 63.5zM126 292v-292h-45v700h257q50 0 92.5 -15.5t74 -43.5t49.5 -65.5t18 -81.5q0 -43 -17.5 -80t-48 -64t-72.5 -42.5t-91 -15.5h-55l259 -292h-60l-259 292
h-102zM262 782l58 116l54 -17l-76 -99h-36z" />
    <glyph glyph-name="racute" unicode="&#x155;" horiz-adv-x="392" 
d="M123 407q42 66 101.5 92t135.5 26l-15 -47q-47 0 -87.5 -15.5t-70.5 -43.5t-47 -67.5t-17 -87.5v-264h-46v519h46v-112zM161 582l58 116l54 -17l-76 -99h-36z" />
    <glyph glyph-name="uni0156" unicode="&#x156;" horiz-adv-x="612" 
d="M527 495q0 35 -14.5 64.5t-39.5 51.5t-59.5 34t-75.5 12h-212v-322h216q40 0 74 12t58.5 33.5t38.5 51t14 63.5zM126 292v-292h-45v700h257q50 0 92.5 -15.5t74 -43.5t49.5 -65.5t18 -81.5q0 -43 -17.5 -80t-48 -64t-72.5 -42.5t-91 -15.5h-55l259 -292h-60l-259 292
h-102zM343 -92q0 -59 -51 -94l-19 29q11 8 19.5 19t8.5 29q-14 0 -23.5 11t-9.5 23q0 14 9.5 24.5t25.5 10.5q11 0 19 -5t12.5 -13t6.5 -17t2 -17z" />
    <glyph glyph-name="uni0157" unicode="&#x157;" horiz-adv-x="392" 
d="M123 407q42 66 101.5 92t135.5 26l-15 -47q-47 0 -87.5 -15.5t-70.5 -43.5t-47 -67.5t-17 -87.5v-264h-46v519h46v-112zM136 -92q0 -59 -51 -94l-19 29q11 8 19.5 19t8.5 29q-14 0 -23.5 11t-9.5 23q0 14 9.5 24.5t25.5 10.5q11 0 19 -5t12.5 -13t6.5 -17t2 -17z" />
    <glyph glyph-name="Rcaron" unicode="&#x158;" horiz-adv-x="603" 
d="M527 495q0 35 -14.5 64.5t-39.5 51.5t-59.5 34t-75.5 12h-212v-322h216q40 0 74 12t58.5 33.5t38.5 51t14 63.5zM126 292v-292h-45v700h257q50 0 92.5 -15.5t74 -43.5t49.5 -65.5t18 -81.5q0 -43 -17.5 -80t-48 -64t-72.5 -42.5t-91 -15.5h-55l259 -292h-60l-259 292
h-102zM149 893h42l92 -85l91 85h41l-108 -119h-49z" />
    <glyph glyph-name="rcaron" unicode="&#x159;" horiz-adv-x="392" 
d="M123 407q42 66 101.5 92t135.5 26l-15 -47q-47 0 -87.5 -15.5t-70.5 -43.5t-47 -67.5t-17 -87.5v-264h-46v519h46v-112zM49 693h42l92 -85l91 85h41l-108 -119h-49z" />
    <glyph glyph-name="Sacute" unicode="&#x15a;" horiz-adv-x="573" 
d="M79 157q22 -54 78 -87t126 -33q42 0 77.5 12t61.5 33.5t40.5 51t14.5 63.5q0 57 -45.5 92t-150.5 59q-119 26 -176 71t-57 112q0 39 17.5 71.5t48 56.5t73 37.5t92.5 13.5q80 0 141.5 -33t85.5 -89l-38 -17q-20 43 -71.5 69t-117.5 26q-40 0 -74 -10t-59 -28t-39 -42
t-14 -53q0 -51 48 -86t151 -58q120 -26 175 -72t55 -118q0 -43 -18.5 -81t-51 -66t-76.5 -44t-94 -16q-41 0 -78.5 10.5t-69.5 30t-56 46.5t-38 60zM268 782l58 116l54 -17l-76 -99h-36z" />
    <glyph glyph-name="sacute" unicode="&#x15b;" horiz-adv-x="474" 
d="M74 126q23 -44 63.5 -68t91.5 -24q31 0 59 8.5t49 23.5t33.5 36.5t12.5 47.5q0 35 -25 55t-62.5 34t-81.5 25t-81.5 26t-62.5 38.5t-25 62.5q0 30 14.5 56t40 44.5t59 29t71.5 10.5q61 0 110.5 -25t72.5 -71l-39 -22q-19 35 -57.5 54t-84.5 19q-28 0 -53.5 -7t-45 -19.5
t-31 -29.5t-11.5 -37q0 -28 25 -44t63 -28.5t81.5 -23.5t81.5 -28.5t63 -45t25 -71.5q0 -36 -16 -66t-43.5 -51.5t-64 -33.5t-77.5 -12q-65 0 -116.5 30.5t-77.5 84.5zM215 582l58 116l54 -17l-76 -99h-36z" />
    <glyph glyph-name="Scircumflex" unicode="&#x15c;" horiz-adv-x="573" 
d="M79 157q22 -54 78 -87t126 -33q42 0 77.5 12t61.5 33.5t40.5 51t14.5 63.5q0 57 -45.5 92t-150.5 59q-119 26 -176 71t-57 112q0 39 17.5 71.5t48 56.5t73 37.5t92.5 13.5q80 0 141.5 -33t85.5 -89l-38 -17q-20 43 -71.5 69t-117.5 26q-40 0 -74 -10t-59 -28t-39 -42
t-14 -53q0 -51 48 -86t151 -58q120 -26 175 -72t55 -118q0 -43 -18.5 -81t-51 -66t-76.5 -44t-94 -16q-41 0 -78.5 10.5t-69.5 30t-56 46.5t-38 60zM271 893h49l108 -119h-41l-91 86l-93 -86h-41z" />
    <glyph glyph-name="scircumflex" unicode="&#x15d;" horiz-adv-x="473" 
d="M74 126q23 -44 63.5 -68t91.5 -24q31 0 59 8.5t49 23.5t33.5 36.5t12.5 47.5q0 35 -25 55t-62.5 34t-81.5 25t-81.5 26t-62.5 38.5t-25 62.5q0 30 14.5 56t40 44.5t59 29t71.5 10.5q61 0 110.5 -25t72.5 -71l-39 -22q-19 35 -57.5 54t-84.5 19q-28 0 -53.5 -7t-45 -19.5
t-31 -29.5t-11.5 -37q0 -28 25 -44t63 -28.5t81.5 -23.5t81.5 -28.5t63 -45t25 -71.5q0 -36 -16 -66t-43.5 -51.5t-64 -33.5t-77.5 -12q-65 0 -116.5 30.5t-77.5 84.5zM209 693h49l108 -119h-41l-91 86l-93 -86h-41z" />
    <glyph glyph-name="Scedilla" unicode="&#x15e;" horiz-adv-x="567" 
d="M267 -8q-38 1 -73.5 12.5t-65.5 31t-53 46t-37 57.5l39 18q22 -54 78 -87t126 -33q42 0 77.5 12t61.5 33.5t40.5 51t14.5 63.5q0 57 -45.5 92t-150.5 59q-119 26 -176 71t-57 112q0 39 17.5 71.5t48 56.5t73 37.5t92.5 13.5q80 0 141.5 -33t85.5 -89l-38 -17
q-20 43 -71.5 69t-117.5 26q-40 0 -74 -10t-59 -28t-39 -42t-14 -53q0 -51 48 -86t151 -58q120 -26 175 -72t55 -118q0 -41 -17 -77.5t-46.5 -64t-69.5 -44.5t-87 -20l-12 -35q29 0 51 -11.5t22 -45.5q0 -31 -24 -51.5t-58 -20.5q-39 0 -73 31l11 33q11 -13 28 -21.5
t34 -8.5q20 0 33.5 10.5t13.5 26.5q0 14 -10 22t-24 8t-28 -9l-16 14z" />
    <glyph glyph-name="scedilla" unicode="&#x15f;" horiz-adv-x="473" 
d="M214 -11q-60 4 -106.5 34.5t-71.5 81.5l39 21q23 -44 63.5 -67.5t90.5 -23.5q32 0 60 8.5t49 23.5t33.5 36.5t12.5 47.5q0 34 -25 54.5t-62.5 34t-81.5 24.5t-81.5 26t-62.5 38.5t-25 62.5q0 30 14.5 56t40 44.5t59 29t71.5 10.5q61 0 111 -26t73 -70l-39 -22
q-18 33 -57.5 53t-85.5 20q-28 0 -53 -7t-44.5 -19.5t-31 -29.5t-11.5 -37q0 -28 25 -44t62.5 -28t81 -23.5t81 -29t62.5 -45t25 -71.5q0 -34 -14 -62.5t-38.5 -50t-58 -34.5t-71.5 -16l-11 -32q3 0 5.5 0.5t5.5 0.5q29 0 45.5 -16t16.5 -42q0 -32 -24 -52t-58 -20
q-20 0 -38 7t-35 24l10 33q11 -13 28.5 -21.5t34.5 -8.5q20 0 33 10.5t13 26.5q0 14 -10 22t-24 8q-13 0 -27 -9l-17 15z" />
    <glyph glyph-name="Scaron" unicode="&#x160;" horiz-adv-x="573" 
d="M79 157q22 -54 78 -87t126 -33q42 0 77.5 12t61.5 33.5t40.5 51t14.5 63.5q0 57 -45.5 92t-150.5 59q-119 26 -176 71t-57 112q0 39 17.5 71.5t48 56.5t73 37.5t92.5 13.5q80 0 141.5 -33t85.5 -89l-38 -17q-20 43 -71.5 69t-117.5 26q-40 0 -74 -10t-59 -28t-39 -42
t-14 -53q0 -51 48 -86t151 -58q120 -26 175 -72t55 -118q0 -43 -18.5 -81t-51 -66t-76.5 -44t-94 -16q-41 0 -78.5 10.5t-69.5 30t-56 46.5t-38 60zM161 893h42l92 -85l91 85h41l-108 -119h-49z" />
    <glyph glyph-name="scaron" unicode="&#x161;" horiz-adv-x="473" 
d="M72 126q23 -44 63.5 -68t91.5 -24q31 0 59 8.5t49 23.5t33.5 36.5t12.5 47.5q0 35 -25 55t-62.5 34t-81.5 25t-81.5 26t-62.5 38.5t-25 62.5q0 30 14.5 56t40 44.5t59 29t71.5 10.5q61 0 110.5 -25t72.5 -71l-39 -22q-19 35 -57.5 54t-84.5 19q-28 0 -53.5 -7t-45 -19.5
t-31 -29.5t-11.5 -37q0 -28 25 -44t63 -28.5t81.5 -23.5t81.5 -28.5t63 -45t25 -71.5q0 -36 -16 -66t-43.5 -51.5t-64 -33.5t-77.5 -12q-65 0 -116.5 30.5t-77.5 84.5zM100 693h42l92 -85l91 85h41l-108 -119h-49z" />
    <glyph glyph-name="uni0162" unicode="&#x162;" horiz-adv-x="597" 
d="M296 -135q20 0 33.5 10.5t13.5 26.5q0 14 -10 22t-24 8t-28 -9l-16 14l20 63h-8v656h-236v43h517v-43h-236v-656h-3l-14 -40q29 0 51 -12t22 -45q0 -31 -24 -51.5t-58 -20.5q-39 0 -73 31l11 33q11 -13 28 -21.5t34 -8.5z" />
    <glyph glyph-name="uni0163" unicode="&#x163;" horiz-adv-x="353" 
d="M244 -141q20 0 33.5 10.5t13.5 26.5q0 14 -10 22t-24 8t-28 -9l-16 14l18 59q-57 2 -88.5 39.5t-31.5 116.5v330h-74v43h74v180h45v-180h113l15 -43h-128v-332q0 -59 21 -85t69 -26q20 0 34 4t30 13l13 -41q-15 -8 -28.5 -12t-28.5 -6l-13 -37q29 0 51 -12t22 -45
q0 -31 -24 -51.5t-58 -20.5q-39 0 -73 31l11 33q11 -13 28 -21.5t34 -8.5z" />
    <glyph glyph-name="Tcaron" unicode="&#x164;" horiz-adv-x="597" 
d="M554 657h-236v-657h-45v657h-236v43h517v-43zM165 893h42l92 -85l91 85h41l-108 -119h-49z" />
    <glyph glyph-name="tcaron" unicode="&#x165;" horiz-adv-x="447" 
d="M324 8q-33 -19 -83 -19q-130 0 -130 158v330h-74v43h74v180h45v-180h113l15 -43h-128v-332q0 -60 21 -86t69 -26q19 0 33.5 4t30.5 12zM401 653q0 -64 -55 -101l-18 29q12 9 21.5 22t9.5 32q-17 -1 -28.5 11.5t-11.5 26.5q0 16 10.5 27.5t27.5 11.5q23 0 33.5 -18.5
t10.5 -40.5z" />
    <glyph glyph-name="Tbar" unicode="&#x166;" horiz-adv-x="590" 
d="M554 700v-43h-236v-211h105v-43h-105v-403h-46v403h-97v43h97v211h-236v43h518z" />
    <glyph glyph-name="tbar" unicode="&#x167;" horiz-adv-x="371" 
d="M248 34q44 0 79 26l14 -41q-38 -29 -90 -29q-68 0 -104 40.5t-36 115.5v331h-74v43h74v84h-73v37h73v59h45v-59h108l12 -37h-120v-84h107l14 -43h-121v-334q0 -109 92 -109z" />
    <glyph glyph-name="Utilde" unicode="&#x168;" horiz-adv-x="744" 
d="M84 700h45v-453q0 -44 19.5 -83t52.5 -68t78 -46t96 -17q50 0 94 16.5t76.5 45.5t51 68t18.5 84v453h45v-453q0 -53 -22.5 -100t-61 -82t-90.5 -55.5t-111 -20.5t-112 20.5t-92.5 56t-63 82.5t-23.5 99v453zM227 807q2 46 24 75t56 29q21 0 38.5 -11.5t33 -26t30 -26
t30.5 -11.5q40 0 46 71l31 -2q-2 -47 -23.5 -75t-54.5 -28q-22 0 -39 11.5t-32.5 26t-29.5 26t-30 11.5q-20 0 -33 -20t-15 -53z" />
    <glyph glyph-name="utilde" unicode="&#x169;" horiz-adv-x="581" 
d="M279 -11q-44 0 -81.5 16t-64.5 44t-42.5 66t-15.5 82v322h46v-322q0 -34 12 -64t33.5 -51.5t51.5 -34t67 -12.5q39 0 73.5 14.5t60.5 40t41 59.5t15 73v297h46v-520h-46v93q-28 -47 -81.5 -75t-114.5 -28zM146 607q2 46 24 75t56 29q21 0 38.5 -11.5t33 -26t30 -26
t30.5 -11.5q40 0 46 71l31 -2q-2 -47 -23.5 -75t-54.5 -28q-22 0 -39 11.5t-32.5 26t-29.5 26t-30 11.5q-20 0 -33 -20t-15 -53z" />
    <glyph glyph-name="Umacron" unicode="&#x16a;" horiz-adv-x="744" 
d="M84 700h45v-453q0 -44 19.5 -83t52.5 -68t78 -46t96 -17q50 0 94 16.5t76.5 45.5t51 68t18.5 84v453h45v-453q0 -53 -22.5 -100t-61 -82t-90.5 -55.5t-111 -20.5t-112 20.5t-92.5 56t-63 82.5t-23.5 99v453zM496 853v-36h-248v36h248z" />
    <glyph glyph-name="umacron" unicode="&#x16b;" horiz-adv-x="581" 
d="M279 -11q-44 0 -81.5 16t-64.5 44t-42.5 66t-15.5 82v322h46v-322q0 -34 12 -64t33.5 -51.5t51.5 -34t67 -12.5q39 0 73.5 14.5t60.5 40t41 59.5t15 73v297h46v-520h-46v93q-28 -47 -81.5 -75t-114.5 -28zM415 653v-36h-248v36h248z" />
    <glyph glyph-name="Ubreve" unicode="&#x16c;" horiz-adv-x="744" 
d="M84 700h45v-453q0 -44 19.5 -83t52.5 -68t78 -46t96 -17q50 0 94 16.5t76.5 45.5t51 68t18.5 84v453h45v-453q0 -53 -22.5 -100t-61 -82t-90.5 -55.5t-111 -20.5t-112 20.5t-92.5 56t-63 82.5t-23.5 99v453zM298 866q36 -30 76 -30q38 0 77 30l25 -26q-43 -43 -102 -43
q-60 0 -102 43z" />
    <glyph glyph-name="ubreve" unicode="&#x16d;" horiz-adv-x="581" 
d="M279 -11q-44 0 -81.5 16t-64.5 44t-42.5 66t-15.5 82v322h46v-322q0 -34 12 -64t33.5 -51.5t51.5 -34t67 -12.5q39 0 73.5 14.5t60.5 40t41 59.5t15 73v297h46v-520h-46v93q-28 -47 -81.5 -75t-114.5 -28zM217 666q36 -30 76 -30q38 0 77 30l25 -26q-43 -43 -102 -43
q-60 0 -102 43z" />
    <glyph glyph-name="Uring" unicode="&#x16e;" horiz-adv-x="744" 
d="M84 700h45v-453q0 -44 19.5 -83t52.5 -68t78 -46t96 -17q50 0 94 16.5t76.5 45.5t51 68t18.5 84v453h45v-453q0 -53 -22.5 -100t-61 -82t-90.5 -55.5t-111 -20.5t-112 20.5t-92.5 56t-63 82.5t-23.5 99v453zM289 860q0 34 24 58t59 24q34 0 58 -24t24 -58q0 -35 -24 -59
t-58 -24q-35 0 -59 24t-24 59zM321 860q0 -21 15 -36t36 -15q20 0 35 15t15 36t-15 35.5t-35 14.5q-21 0 -36 -14.5t-15 -35.5z" />
    <glyph glyph-name="uring" unicode="&#x16f;" horiz-adv-x="581" 
d="M279 -11q-44 0 -81.5 16t-64.5 44t-42.5 66t-15.5 82v322h46v-322q0 -34 12 -64t33.5 -51.5t51.5 -34t67 -12.5q39 0 73.5 14.5t60.5 40t41 59.5t15 73v297h46v-520h-46v93q-28 -47 -81.5 -75t-114.5 -28zM208 671q0 34 24 58t59 24q34 0 58 -24t24 -58q0 -35 -24 -59
t-58 -24q-35 0 -59 24t-24 59zM240 671q0 -21 15 -36t36 -15q20 0 35 15t15 36t-15 35.5t-35 14.5q-21 0 -36 -14.5t-15 -35.5z" />
    <glyph glyph-name="Uhungarumlaut" unicode="&#x170;" horiz-adv-x="744" 
d="M84 700h45v-453q0 -44 19.5 -83t52.5 -68t78 -46t96 -17q50 0 94 16.5t76.5 45.5t51 68t18.5 84v453h45v-453q0 -53 -22.5 -100t-61 -82t-90.5 -55.5t-111 -20.5t-112 20.5t-92.5 56t-63 82.5t-23.5 99v453zM249 796l49 102l49 -16l-66 -86h-32zM424 796l50 102l49 -16
l-67 -86h-32z" />
    <glyph glyph-name="uhungarumlaut" unicode="&#x171;" horiz-adv-x="581" 
d="M279 -11q-44 0 -81.5 16t-64.5 44t-42.5 66t-15.5 82v322h46v-322q0 -34 12 -64t33.5 -51.5t51.5 -34t67 -12.5q39 0 73.5 14.5t60.5 40t41 59.5t15 73v297h46v-520h-46v93q-28 -47 -81.5 -75t-114.5 -28zM181 596l49 102l49 -16l-66 -86h-32zM356 596l50 102l49 -16
l-67 -86h-32z" />
    <glyph glyph-name="Uogonek" unicode="&#x172;" horiz-adv-x="744" 
d="M357 -10q-56 3 -105.5 24.5t-87 56t-59 80t-21.5 95.5v454h45v-454q0 -44 19.5 -82.5t52.5 -67.5t78 -46t96 -17q50 0 94 16.5t76.5 45.5t51 67.5t18.5 83.5v454h45v-454q0 -49 -19.5 -93.5t-54 -79t-80.5 -56.5t-100 -27q-4 -2 -7.5 -3.5t-6.5 -4.5q-11 -8 -17 -21
t-6 -26q0 -30 19.5 -49.5t50.5 -19.5q11 0 25 6t22 14l22 -27q-30 -27 -69 -27q-46 0 -75.5 28t-29.5 73q0 34 23 57z" />
    <glyph glyph-name="uogonek" unicode="&#x173;" horiz-adv-x="595" 
d="M475 92q-28 -48 -81 -75.5t-112 -27.5q-45 0 -82.5 16t-65.5 44t-43.5 66t-15.5 82v322h46v-322q0 -35 12 -65t33.5 -51.5t51.5 -33.5t65 -12q40 0 75 14.5t61 40t41 59.5t15 73v297h46v-520h-2q-9 0 -19 -4t-18 -12q-21 -18 -21 -47t19.5 -47.5t45.5 -18.5
q15 0 29.5 5.5t22.5 14.5l22 -27q-29 -28 -72 -28q-45 0 -73.5 28t-28.5 70q0 28 13.5 49t35.5 30v80z" />
    <glyph glyph-name="Wcircumflex" unicode="&#x174;" horiz-adv-x="1076" 
d="M566 643l206 -587l221 645h47l-241 -701h-55l-206 587l-205 -587h-56l-241 701h47l222 -645l205 587h56zM513 893h49l108 -119h-41l-91 86l-93 -86h-41z" />
    <glyph glyph-name="wcircumflex" unicode="&#x175;" horiz-adv-x="843" 
d="M449 509l156 -429l161 440h48l-190 -520h-37l-165 450l-165 -450h-40l-189 520h48l162 -443l157 432h54zM397 693h49l108 -119h-41l-91 86l-93 -86h-41z" />
    <glyph glyph-name="Ycircumflex" unicode="&#x176;" horiz-adv-x="611" 
d="M34 700h53l218 -354l221 354h52l-251 -401v-299h-45v299zM281 893h49l108 -119h-41l-91 86l-93 -86h-41z" />
    <glyph glyph-name="ycircumflex" unicode="&#x177;" horiz-adv-x="580" 
d="M85 -149q32 -13 56 -13q26 0 43.5 13.5t30.5 35t22.5 48.5t20.5 54l-225 531h50l200 -474l204 474h50l-275 -640q-19 -44 -50.5 -66t-70.5 -22q-33 0 -70 17zM258 693h49l108 -119h-41l-91 86l-93 -86h-41z" />
    <glyph glyph-name="Ydieresis" unicode="&#x178;" horiz-adv-x="611" 
d="M34 700h53l218 -354l221 354h52l-251 -401v-299h-45v299zM193 814q0 14 9 23t23 9t23 -9t9 -23t-9 -23t-23 -9t-23 9t-9 23zM352 814q0 14 8.5 23t22.5 9t23.5 -9t9.5 -23t-9.5 -23t-23.5 -9t-22.5 9t-8.5 23z" />
    <glyph glyph-name="Zacute" unicode="&#x179;" horiz-adv-x="621" 
d="M37 52l503 604h-498v44h549v-52l-504 -605h491v-43h-541v52zM281 767l58 116l54 -17l-76 -99h-36z" />
    <glyph glyph-name="zacute" unicode="&#x17a;" horiz-adv-x="483" 
d="M454 468l-360 -424h359v-44h-413v51l360 424h-361v45h415v-52zM218 582l58 116l54 -17l-76 -99h-36z" />
    <glyph glyph-name="Zdotaccent" unicode="&#x17b;" horiz-adv-x="621" 
d="M37 52l503 604h-498v44h549v-52l-504 -605h491v-43h-541v52zM276 831q0 14 9 23t23 9t23 -9t9 -23t-9 -23t-23 -9t-23 9t-9 23z" />
    <glyph glyph-name="zdotaccent" unicode="&#x17c;" horiz-adv-x="483" 
d="M454 468l-360 -424h359v-44h-413v51l360 424h-361v45h415v-52zM209 618q0 14 9 23t23 9t23 -9t9 -23t-9 -23t-23 -9t-23 9t-9 23z" />
    <glyph glyph-name="Zcaron" unicode="&#x17d;" horiz-adv-x="621" 
d="M37 52l503 604h-498v44h549v-52l-504 -605h491v-43h-541v52zM177 893h42l92 -85l91 85h41l-108 -119h-49z" />
    <glyph glyph-name="zcaron" unicode="&#x17e;" horiz-adv-x="483" 
d="M454 468l-360 -424h359v-44h-413v51l360 424h-361v45h415v-52zM116 689h42l92 -85l91 85h41l-108 -119h-49z" />
    <glyph glyph-name="uni0218" unicode="&#x218;" horiz-adv-x="619" 
d="M77 157q22 -54 78 -87t126 -33q42 0 77.5 12t61.5 33.5t40.5 51t14.5 63.5q0 57 -45.5 92t-150.5 59q-119 26 -176 71t-57 112q0 39 17.5 71.5t48 56.5t73 37.5t92.5 13.5q80 0 141.5 -33t85.5 -89l-38 -17q-20 43 -71.5 69t-117.5 26q-40 0 -74 -10t-59 -28t-39 -42
t-14 -53q0 -51 48 -86t151 -58q120 -26 175 -72t55 -118q0 -43 -18.5 -81t-51 -66t-76.5 -44t-94 -16q-41 0 -78.5 10.5t-69.5 30t-56 46.5t-38 60zM346 -92q0 -59 -51 -94l-19 29q11 8 19.5 19t8.5 29q-14 0 -23.5 11t-9.5 23q0 14 9.5 24.5t25.5 10.5q11 0 19 -5t12.5 -13
t6.5 -17t2 -17z" />
    <glyph glyph-name="uni0219" unicode="&#x219;" horiz-adv-x="475" 
d="M72 126q23 -44 63.5 -68t91.5 -24q31 0 59 8.5t49 23.5t33.5 36.5t12.5 47.5q0 35 -25 55t-62.5 34t-81.5 25t-81.5 26t-62.5 38.5t-25 62.5q0 30 14.5 56t40 44.5t59 29t71.5 10.5q61 0 110.5 -25t72.5 -71l-39 -22q-19 35 -57.5 54t-84.5 19q-28 0 -53.5 -7t-45 -19.5
t-31 -29.5t-11.5 -37q0 -28 25 -44t63 -28.5t81.5 -23.5t81.5 -28.5t63 -45t25 -71.5q0 -36 -16 -66t-43.5 -51.5t-64 -33.5t-77.5 -12q-65 0 -116.5 30.5t-77.5 84.5zM271 -91q0 -59 -51 -94l-19 29q11 8 19.5 19t8.5 29q-14 0 -23.5 11t-9.5 23q0 14 9.5 24.5t25.5 10.5
q11 0 19 -5t12.5 -13t6.5 -17t2 -17z" />
    <glyph glyph-name="uni021A" unicode="&#x21a;" horiz-adv-x="597" 
d="M554 657h-236v-657h-45v657h-236v43h517v-43zM343 -85q0 -59 -51 -94l-19 29q11 8 19.5 19t8.5 29q-14 0 -23.5 11t-9.5 23q0 14 9.5 24.5t25.5 10.5q11 0 19 -5t12.5 -13t6.5 -17t2 -17z" />
    <glyph glyph-name="uni021B" unicode="&#x21b;" horiz-adv-x="368" 
d="M324 8q-33 -19 -83 -19q-130 0 -130 158v330h-74v43h74v180h45v-180h113l15 -43h-128v-332q0 -60 21 -86t69 -26q19 0 33.5 4t30.5 12zM270 -92q0 -59 -51 -94l-19 29q11 8 19.5 19t8.5 29q-14 0 -23.5 11t-9.5 23q0 14 9.5 24.5t25.5 10.5q11 0 19 -5t12.5 -13t6.5 -17
t2 -17z" />
    <glyph glyph-name="uni0237" unicode="&#x237;" horiz-adv-x="217" 
d="M131 -38q0 -85 -34.5 -128t-97.5 -43t-102 36l14 43q20 -18 39.5 -26.5t45.5 -8.5q45 0 67.5 31t22.5 99v555h45v-558z" />
    <glyph glyph-name="circumflex" unicode="&#x2c6;" horiz-adv-x="381" 
d="M166 693h49l108 -119h-41l-91 86l-93 -86h-41z" />
    <glyph glyph-name="caron" unicode="&#x2c7;" horiz-adv-x="349" 
d="M41 693h42l92 -85l91 85h41l-108 -119h-49z" />
    <glyph glyph-name="breve" unicode="&#x2d8;" horiz-adv-x="298" 
d="M75 666q36 -30 76 -30q38 0 77 30l25 -26q-43 -43 -102 -43q-60 0 -102 43z" />
    <glyph glyph-name="dotaccent" unicode="&#x2d9;" horiz-adv-x="154" 
d="M45 631q0 14 9 23t23 9t23 -9t9 -23t-9 -23t-23 -9t-23 9t-9 23z" />
    <glyph glyph-name="ring" unicode="&#x2da;" horiz-adv-x="281" 
d="M58 686q0 34 24 58t59 24q34 0 58 -24t24 -58q0 -35 -24 -59t-58 -24q-35 0 -59 24t-24 59zM90 686q0 -21 15 -36t36 -15q20 0 35 15t15 36t-15 35.5t-35 14.5q-21 0 -36 -14.5t-15 -35.5z" />
    <glyph glyph-name="ogonek" unicode="&#x2db;" horiz-adv-x="247" 
d="M201 -144q-31 -28 -68 -28q-48 0 -77 29t-29 74q0 26 14.5 47t38.5 30l40 -14q-8 0 -15 -2.5t-14 -6.5q-13 -8 -21.5 -22.5t-8.5 -30.5q0 -31 19.5 -50.5t51.5 -19.5q12 0 26 6t22 14z" />
    <glyph glyph-name="tilde" unicode="&#x2dc;" horiz-adv-x="436" 
d="M73 607q2 46 24 75t56 29q21 0 38.5 -11.5t33 -26t30 -26t30.5 -11.5q40 0 46 71l31 -2q-2 -47 -23.5 -75t-54.5 -28q-22 0 -39 11.5t-32.5 26t-29.5 26t-30 11.5q-20 0 -33 -20t-15 -53z" />
    <glyph glyph-name="hungarumlaut" unicode="&#x2dd;" horiz-adv-x="392" 
d="M68 596l49 102l49 -16l-66 -86h-32zM243 596l50 102l49 -16l-67 -86h-32z" />
    <glyph glyph-name="Wgrave" unicode="&#x1e80;" horiz-adv-x="1083" 
d="M570 643l206 -587l221 645h47l-241 -701h-55l-206 587l-205 -587h-56l-241 701h47l222 -645l205 587h56zM447 858l54 17l57 -116h-35z" />
    <glyph glyph-name="wgrave" unicode="&#x1e81;" horiz-adv-x="848" 
d="M452 509l156 -429l161 440h48l-190 -520h-37l-165 450l-165 -450h-40l-189 520h48l162 -443l157 432h54zM334 681l54 17l57 -116h-35z" />
    <glyph glyph-name="Wacute" unicode="&#x1e82;" horiz-adv-x="1084" 
d="M570 643l206 -587l221 645h47l-241 -701h-55l-206 587l-205 -587h-56l-241 701h47l222 -645l205 587h56zM532 759l58 116l54 -17l-76 -99h-36z" />
    <glyph glyph-name="wacute" unicode="&#x1e83;" horiz-adv-x="851" 
d="M453 509l156 -429l161 440h48l-190 -520h-37l-165 450l-165 -450h-40l-189 520h48l162 -443l157 432h54zM424 582l58 116l54 -17l-76 -99h-36z" />
    <glyph glyph-name="Wdieresis" unicode="&#x1e84;" horiz-adv-x="1084" 
d="M570 643l206 -587l221 645h47l-241 -701h-55l-206 587l-205 -587h-56l-241 701h47l222 -645l205 587h56zM430 769q0 14 9 23t23 9t23 -9t9 -23t-9 -23t-23 -9t-23 9t-9 23zM589 769q0 14 8.5 23t22.5 9t23.5 -9t9.5 -23t-9.5 -23t-23.5 -9t-22.5 9t-8.5 23z" />
    <glyph glyph-name="wdieresis" unicode="&#x1e85;" horiz-adv-x="842" 
d="M449 509l156 -429l161 440h48l-190 -520h-37l-165 450l-165 -450h-40l-189 520h48l162 -443l157 432h54zM309 631q0 14 9 23t23 9t23 -9t9 -23t-9 -23t-23 -9t-23 9t-9 23zM468 631q0 14 8.5 23t22.5 9t23.5 -9t9.5 -23t-9.5 -23t-23.5 -9t-22.5 9t-8.5 23z" />
    <glyph glyph-name="endash" unicode="&#x2013;" horiz-adv-x="487" 
d="M437 267v-43h-387v43h387z" />
    <glyph glyph-name="emdash" unicode="&#x2014;" horiz-adv-x="1010" 
d="M959 267v-43h-908v43h908z" />
    <glyph glyph-name="quoteleft" unicode="&#x2018;" horiz-adv-x="148" 
d="M35 611q0 64 55 101l18 -29q-12 -9 -21.5 -22t-9.5 -32q17 1 28.5 -11.5t11.5 -26.5q0 -16 -10.5 -27.5t-27.5 -11.5q-23 0 -33.5 18.5t-10.5 40.5z" />
    <glyph glyph-name="quoteright" unicode="&#x2019;" horiz-adv-x="148" 
d="M115 653q0 -64 -55 -101l-18 29q12 9 21.5 22t9.5 32q-17 -1 -28.5 11.5t-11.5 26.5q0 16 10.5 27.5t27.5 11.5q23 0 33.5 -18.5t10.5 -40.5z" />
    <glyph glyph-name="quotesinglbase" unicode="&#x201a;" horiz-adv-x="222" 
d="M111 -103q-14 35 -25.5 67t-11.5 49t10 27.5t27 10.5t27 -10.5t10 -28.5q0 -17 -11.5 -49.5t-25.5 -65.5z" />
    <glyph glyph-name="quotedblleft" unicode="&#x201c;" horiz-adv-x="320" 
d="M60 611q0 64 55 101l18 -29q-12 -9 -21 -22t-9 -32q17 1 28 -11.5t11 -26.5q0 -16 -10.5 -27.5t-27.5 -11.5q-22 0 -33 18.5t-11 40.5zM178 611q0 33 13 57t42 44l18 -30q-12 -9 -21.5 -22t-9.5 -31q17 1 28.5 -11.5t11.5 -26.5q0 -16 -11 -28t-28 -12q-22 0 -32.5 19
t-10.5 41z" />
    <glyph glyph-name="quotedblright" unicode="&#x201d;" horiz-adv-x="320" 
d="M142 653q0 -65 -55 -101l-18 29q12 9 21.5 22t9.5 32q-17 -1 -28.5 11.5t-11.5 26.5q0 16 11 27.5t28 11.5q22 0 32.5 -18.5t10.5 -40.5zM260 653q0 -34 -13.5 -58t-41.5 -43l-18 29q12 9 21 22t9 31q-17 0 -28 12.5t-11 26.5q0 15 10.5 27t27.5 12q22 0 33 -19t11 -40z
" />
    <glyph glyph-name="quotedblbase" unicode="&#x201e;" horiz-adv-x="395" 
d="M131 -106q-14 34 -25.5 66t-11.5 49q0 18 10 28.5t27 10.5t27 -10.5t10 -28.5q0 -17 -11.5 -49.5t-25.5 -65.5zM263 -106q-14 34 -25.5 66t-11.5 49q0 18 10 28.5t27 10.5t27 -10.5t10 -28.5q0 -17 -11.5 -49.5t-25.5 -65.5z" />
    <glyph glyph-name="dagger" unicode="&#x2020;" horiz-adv-x="420" 
d="M233 500h136v-43h-136v-557h-45v557h-136v43h136v201h45v-201z" />
    <glyph glyph-name="daggerdbl" unicode="&#x2021;" horiz-adv-x="416" 
d="M50 500h136v201h45v-201h135v-43h-135v-251h85v-43h-85v-263h-45v263h-86v43h86v251h-136v43z" />
    <glyph glyph-name="bullet" unicode="&#x2022;" horiz-adv-x="357" 
d="M77 282q0 21 8 40t21.5 33t32 22t39.5 8t39.5 -8t32.5 -22t22 -33t8 -40q0 -22 -8 -41t-22 -33t-32.5 -22t-39.5 -8t-39.5 8t-32 22t-21.5 33t-8 41z" />
    <glyph glyph-name="ellipsis" unicode="&#x2026;" horiz-adv-x="551" 
d="M82 29q0 16 11.5 27.5t27.5 11.5q15 0 26.5 -11.5t11.5 -27.5t-11.5 -27.5t-26.5 -11.5q-16 0 -27.5 11.5t-11.5 27.5zM237 29q0 16 11.5 27.5t27.5 11.5q15 0 26.5 -11.5t11.5 -27.5t-11.5 -27.5t-26.5 -11.5q-16 0 -27.5 11.5t-11.5 27.5zM392 29q0 16 11.5 27.5
t27.5 11.5q15 0 26.5 -11.5t11.5 -27.5t-11.5 -27.5t-26.5 -11.5q-16 0 -27.5 11.5t-11.5 27.5z" />
    <glyph glyph-name="perthousand" unicode="&#x2030;" horiz-adv-x="1107" 
d="M564 702h53l-462 -702h-53zM85 560q0 -22 8.5 -41.5t23 -34.5t34 -23.5t41.5 -8.5t41.5 8.5t34 23.5t23 34.5t8.5 41.5q0 23 -8.5 42.5t-23 34.5t-34 23.5t-41.5 8.5t-41.5 -8.5t-34 -23.5t-23 -35t-8.5 -42zM42 560q0 31 12 58.5t32 48t47.5 32.5t58.5 12t58.5 -12
t47.5 -32.5t32 -48t12 -58.5t-12 -58.5t-32 -47.5t-47.5 -32t-58.5 -12t-58.5 12t-47.5 32.5t-32 47.5t-12 58zM634 140q0 23 -8.5 42.5t-23 34.5t-33.5 23.5t-41 8.5t-41.5 -8.5t-34 -23.5t-23 -34.5t-8.5 -42.5q0 -22 8.5 -41.5t23 -34.5t34 -23.5t41.5 -8.5t41 8.5
t33.5 23.5t23 34.5t8.5 41.5zM677 140q0 -31 -11.5 -58.5t-32 -47.5t-47.5 -32t-58 -12t-58.5 12t-47.5 32.5t-32 47.5t-12 58t12 58.5t32 48t47.5 32.5t58.5 12t58 -12t47.5 -32.5t32 -48t11.5 -58.5zM1002 140q0 23 -8.5 42.5t-23 34.5t-33.5 23.5t-41 8.5t-41.5 -8.5
t-34 -23.5t-23 -34.5t-8.5 -42.5q0 -22 8.5 -41.5t23 -34.5t34 -23.5t41.5 -8.5t41 8.5t33.5 23.5t23 34.5t8.5 41.5zM1045 140q0 -31 -11.5 -58.5t-32 -47.5t-47.5 -32t-58 -12t-58.5 12t-47.5 32.5t-32 47.5t-12 58t12 58.5t32 48t47.5 32.5t58.5 12t58 -12t47.5 -32.5
t32 -48t11.5 -58.5z" />
    <glyph glyph-name="guilsinglleft" unicode="&#x2039;" horiz-adv-x="289" 
d="M93 250l149 -179l-34 -19l-168 198l168 197l35 -17z" />
    <glyph glyph-name="guilsinglright" unicode="&#x203a;" horiz-adv-x="289" 
d="M79 447l168 -197l-168 -198l-35 19l150 179l-150 180z" />
    <glyph glyph-name="fraction" unicode="&#x2044;" horiz-adv-x="390" 
d="M419 700l-404 -699h-42l404 699h42z" />
    <glyph glyph-name="franc" unicode="&#x20a3;" horiz-adv-x="610" 
d="M105 701h464v-41h-418v-253h367v-41h-367v-150h161v-43h-161v-173h-46v173h-53v43h53v485z" />
    <glyph glyph-name="lira" unicode="&#x20a4;" horiz-adv-x="609" 
d="M369 667q-55 0 -90.5 -16t-56 -41t-29 -56t-9.5 -61v-92h229v-44h-229v-110h230v-44h-230v-159h382v-44h-427v203h-68v44h68v110h-68v44h68v61q0 118 53.5 183.5t176.5 65.5q63 0 110 -22t91 -71l-16 -47q-21 24 -40.5 42t-41 30t-46.5 18t-57 6z" />
    <glyph glyph-name="Euro" unicode="&#x20ac;" horiz-adv-x="584" 
d="M192 249q14 -49 37.5 -89t54 -68.5t68 -44.5t80.5 -16q44 0 87 25l24 -38q-56 -31 -114 -31q-51 0 -96 19.5t-82 54t-64 82.5t-42 106h-95v43h87q-1 11 -2 27.5t-1 27.5q0 9 0.5 26.5t2.5 33.5h-87v43h96q15 58 42 106t63.5 82.5t81 53.5t95.5 19q57 0 113 -31l-24 -38
q-22 12 -43 18.5t-44 6.5q-85 0 -144.5 -57.5t-93.5 -159.5h231v-43h-240q-2 -14 -3 -28.5t-1 -31.5q0 -11 1 -27.5t2 -27.5h241v-43h-231z" />
    <glyph glyph-name="uni20B9" unicode="&#x20b9;" horiz-adv-x="565" 
d="M385 518q-7 30 -22 55t-35 44t-43 29.5t-46 10.5h-157v43h422v-43h-154q40 -32 57.5 -68t23.5 -71h73v-43h-72q-7 -39 -26 -72.5t-48 -58t-67 -38.5t-83 -14h-66l266 -292h-60l-266 292v43h125q35 0 64.5 10t53 28.5t39 44.5t22.5 57h-304v43h303z" />
    <glyph glyph-name="trademark" unicode="&#x2122;" horiz-adv-x="666" 
d="M280 667h-94v-267h-33v267h-101v31h238zM456 533l-95 117v-250h-33v298h36l106 -133l109 133h36v-298h-33v252l-98 -119h-28z" />
    <glyph glyph-name="minus" unicode="&#x2212;" horiz-adv-x="559" 
d="M483 372v-43h-407v43h407z" />
    <glyph glyph-name="commaaccent" horiz-adv-x="283" 
d="M178 -92q0 -59 -51 -94l-19 29q11 8 19.5 19t8.5 29q-14 0 -23.5 11t-9.5 23q0 14 9.5 24.5t25.5 10.5q11 0 19 -5t12.5 -13t6.5 -17t2 -17z" />
    <glyph glyph-name="A.alt1" horiz-adv-x="684" 
d="M424 240h-248l-96 -240h-47l281 713h56l281 -713h-48l-261 662l-150 -379h216z" />
    <glyph glyph-name="B.alt1" horiz-adv-x="630" 
d="M211 410h124q26 0 50.5 10.5t43.5 28t30 40.5t11 48q0 27 -11.5 49.5t-31 38.5t-45 24.5t-53.5 8.5h-195v-657h-45v700h239q37 0 70.5 -11t59.5 -32t41.5 -51t15.5 -67q0 -41 -22 -80.5t-69 -67.5q64 -31 101 -78.5t37 -106.5q0 -48 -20.5 -86t-54.5 -65t-77.5 -41
t-90.5 -14h-123l15 43h108q38 0 73.5 11.5t63 33t44.5 52.5t17 69q0 33 -17.5 62t-43 50t-55.5 33t-54 12h-151z" />
    <glyph glyph-name="D.alt1" horiz-adv-x="726" 
d="M207 43h86q75 0 135 24t103 65t66 97.5t23 120.5q0 65 -23 121t-66 98t-103 66t-135 24h-163v-659h-45v702h208q84 0 152.5 -27.5t117 -75.5t75.5 -112.5t27 -137.5t-26.5 -136.5t-75.5 -111t-117.5 -74.5t-152.5 -27h-100z" />
    <glyph glyph-name="P.alt1" horiz-adv-x="612" 
d="M217 335h126q38 0 72 13t59.5 34.5t40 51t14.5 62.5q0 34 -15 63.5t-41 51.5t-61 34.5t-76 12.5h-209v-658h-45v701h254q50 0 93 -16t75.5 -43.5t51 -65t18.5 -80.5q0 -42 -18.5 -79t-50 -64.5t-73.5 -44t-89 -16.5h-140z" />
    <glyph glyph-name="R.alt1" horiz-adv-x="614" 
d="M241 335h93q43 0 78.5 12t61 33t39.5 50t14 64q0 36 -15 65.5t-41.5 51.5t-63 34t-80.5 12h-201v-657h-45v700h246q53 0 98 -15t77.5 -42.5t51 -65.5t18.5 -83q0 -44 -17.5 -81t-49.5 -64t-76 -42t-97 -15h-46l262 -292h-61l-260 292z" />
    <glyph glyph-name="Q.alt1" horiz-adv-x="797" 
d="M672 35l-31 -31l-48 48q-47 -32 -96 -47.5t-97 -15.5q-72 0 -135 28t-109.5 77t-73.5 115t-27 141q0 74 27.5 139.5t74.5 114.5t109 78t131 29q72 0 135 -28.5t109.5 -77.5t73.5 -114.5t27 -139.5q0 -60 -18.5 -118t-50.5 -101l-32 32q12 18 22.5 40t18 46.5t11.5 50.5
t4 50q0 65 -23.5 122.5t-64 100.5t-95 68t-115.5 25t-115.5 -25t-95 -68t-64.5 -100.5t-24 -123.5t24 -124t65 -101t95 -68t115 -25q42 0 81 13t81 39l-109 110l31 32z" />
    <glyph glyph-name="a.alt1" horiz-adv-x="634" 
d="M537 260q0 47 -17.5 88.5t-47.5 73t-70.5 49.5t-86.5 18t-86.5 -18.5t-71 -50t-48 -73t-17.5 -88.5t17.5 -88.5t48 -72t71 -48.5t85.5 -18q42 0 82 17t69 45l15 -45q-72 -61 -166 -61q-55 0 -104 21.5t-85.5 58t-57.5 86t-21 105.5t21 105.5t58 87t86 59t105 21.5
q68 0 126 -32.5t94 -91.5v112h47v-520h-47z" />
    <glyph glyph-name="b.alt1" horiz-adv-x="651" 
d="M117 260l1 -260h-47v701h47v-293q36 59 94 91.5t126 32.5q56 0 104.5 -21.5t85.5 -59t58 -87t21 -105.5t-21 -105.5t-57.5 -86t-85 -58t-103.5 -21.5q-94 0 -166 61l15 45q29 -28 68.5 -45t81.5 -17q46 0 86.5 18t70.5 48.5t47.5 72t17.5 88.5t-17.5 88.5t-48 73t-71 50
t-86.5 18.5q-45 0 -85.5 -18t-70.5 -49.5t-47.5 -73t-17.5 -88.5z" />
    <glyph glyph-name="d.alt1" horiz-adv-x="651" 
d="M536 260q0 47 -17.5 88.5t-48 73t-71 49.5t-85.5 18q-46 0 -86.5 -18.5t-71 -50t-48.5 -73t-18 -88.5t17.5 -88.5t48 -72t71 -48.5t86.5 -18q42 0 81.5 17t68.5 45l15 -45q-72 -61 -165 -61q-55 0 -104 21.5t-85.5 58t-58 86t-21.5 105.5t21.5 105.5t58 87t86 59
t105.5 21.5q67 0 125.5 -32.5t94.5 -91.5v293h46v-701h-46z" />
    <glyph glyph-name="e.alt1" horiz-adv-x="601" 
d="M500 92q-37 -43 -86 -64t-102 -21q-64 0 -123.5 31t-96.5 93q-27 46 -33 96t6.5 97t42.5 87.5t76 67.5q62 36 128 36q69 0 131.5 -37t98.5 -106l-352 -201l-15 41l307 167q-31 46 -76.5 70t-95.5 24q-51 0 -100 -26q-39 -22 -64.5 -55.5t-37 -72.5t-7 -81t25.5 -81
q30 -54 80.5 -81t105.5 -27q43 0 83.5 17t71.5 52z" />
    <glyph glyph-name="g.alt1" horiz-adv-x="645" 
d="M518 264q0 47 -16.5 87t-45 69.5t-67 46.5t-83.5 17t-83.5 -17t-67.5 -46.5t-45.5 -69.5t-16.5 -86t16.5 -86t45.5 -70t68.5 -47t85.5 -17q42 0 75.5 14t63.5 41l14 -44q-33 -27 -72.5 -41.5t-83.5 -14.5q-54 0 -101 21t-82 57t-55.5 84.5t-20.5 102.5q0 55 20.5 103
t55.5 84t81.5 56.5t98.5 20.5q63 0 119 -31t96 -88v108h46v-513q0 -46 -19 -85.5t-52 -68.5t-78 -45.5t-98 -16.5q-54 0 -98.5 19t-83.5 61l16 45q63 -80 170 -80q42 0 78 13t62.5 35.5t41.5 54t15 67.5v260z" />
    <glyph glyph-name="p.alt1" horiz-adv-x="651" 
d="M117 260l1 -450h-46v710h46v-112q36 59 94.5 91.5t125.5 32.5q56 0 105 -21.5t85.5 -59t58 -87t21.5 -105.5t-21.5 -105.5t-58 -86t-85 -58t-103.5 -21.5q-93 0 -165 61l14 45q29 -28 68.5 -45t81.5 -17q46 0 86.5 18t70.5 48.5t47.5 72t17.5 88.5t-17.5 88.5t-48 73
t-71 50t-86.5 18.5q-45 0 -85.5 -18t-70.5 -49.5t-47.5 -73t-17.5 -88.5z" />
    <glyph glyph-name="q.alt1" 
d="M535 260q0 47 -17.5 88.5t-48 73t-71 49.5t-85.5 18q-46 0 -86.5 -18.5t-71 -50t-48 -73t-17.5 -88.5t17.5 -88.5t47.5 -72t70.5 -48.5t86.5 -18q42 0 82 17t69 45l15 -45q-72 -61 -166 -61q-55 0 -104 21.5t-85.5 58t-58 86t-21.5 105.5t21.5 105.5t58 87t86 59
t105.5 21.5q68 0 126 -32.5t94 -91.5v112h46v-710h-46z" />
  </font>
</defs>
</svg>
