<?xml version="1.0" standalone="no"?>
<!DOCTYPE svg PUBLIC "-//W3C//DTD SVG 1.1//EN" "http://www.w3.org/Graphics/SVG/1.1/DTD/svg11.dtd" >
<svg xmlns="http://www.w3.org/2000/svg" xmlns:xlink="http://www.w3.org/1999/xlink" version="1.1">
<metadata>
Created by FontForge 20170731 at Tue Dec 31 19:40:50 2019
 By Aleksey,,,
(c) 2019 KushJain. All rights reserved.
</metadata>
<defs>
<font id="AsfaltoMeticula-Regular" horiz-adv-x="250" >
  <font-face 
    font-family="Asfalto Meticula"
    font-weight="400"
    font-stretch="normal"
    units-per-em="1000"
    panose-1="0 0 0 0 0 0 0 0 0 0"
    ascent="800"
    descent="-200"
    x-height="519"
    cap-height="700"
    bbox="-65 -208 1042 770"
    underline-thickness="50"
    underline-position="-175"
    unicode-range="U+0020-FB02"
  />
<missing-glyph horiz-adv-x="356" 
d="M356 700v-700h-356v700h356zM61 58h233v584h-233v-584z" />
    <glyph glyph-name="fi" unicode="fi" horiz-adv-x="571" 
d="M245 711q51 0 81 -19l-22 -67q-15 8 -25.5 10.5t-24.5 2.5q-42 0 -59 -21t-17 -73v-24h322v-520h-75v450h-247v-450h-75v450h-68v70h68v26q0 81 36 123t106 42z" />
    <glyph glyph-name="fl" unicode="fl" horiz-adv-x="571" 
d="M498 700v-700h-75v450h-245v-450h-75v450h-68v70h68v26q0 81 36 123t106 42q51 0 81 -19l-22 -67q-15 8 -25.5 10.5t-24.5 2.5q-42 0 -59 -21t-17 -73v-24h245v180h75z" />
    <glyph glyph-name=".notdef" horiz-adv-x="356" 
d="M356 700v-700h-356v700h356zM61 58h233v584h-233v-584z" />
    <glyph glyph-name="uni0000" 
 />
    <glyph glyph-name="uni0000" 
 />
    <glyph glyph-name="nonmarkingreturn" 
 />
    <glyph glyph-name="space" unicode=" " horiz-adv-x="270" 
 />
    <glyph glyph-name="exclam" unicode="!" horiz-adv-x="231" 
d="M118 89q20 0 35 -15t15 -35t-15 -34.5t-35 -14.5t-34.5 14.5t-14.5 34.5t14.5 35t34.5 15zM156 701l-2 -553h-72l-2 553h76z" />
    <glyph glyph-name="quotedbl" unicode="&#x22;" horiz-adv-x="383" 
d="M123 524q-25 49 -38 83.5t-13 51.5q0 23 14 37t37 14t37 -14.5t14 -37.5q0 -18 -13.5 -53.5t-37.5 -80.5zM261 524q-25 49 -38 83.5t-13 51.5q0 23 14 37t37 14t37 -14.5t14 -37.5q0 -18 -13.5 -53.5t-37.5 -80.5z" />
    <glyph glyph-name="numbersign" unicode="#" horiz-adv-x="699" 
d="M486 272h138l-15 -70h-138l-43 -202h-76l43 202h-166l-43 -202h-76l43 202h-109l15 70h114l38 177h-138l15 70h138l39 182h76l-39 -182h165l39 182h76l-39 -182h109l-15 -70h-113zM287 449l-38 -177h161l38 177h-161z" />
    <glyph glyph-name="dollar" unicode="$" horiz-adv-x="580" 
d="M323 -6v-64h-71v63q-76 9 -134.5 51t-80.5 105l62 28q7 -24 25 -44.5t43.5 -35.5t57 -23.5t65.5 -8.5q38 0 69.5 11t54 29.5t35 43t12.5 52.5q0 51 -42.5 81t-133.5 50q-117 25 -178.5 72.5t-61.5 121.5q0 37 15.5 69t43 56t65.5 39.5t83 18.5v61h71v-62q74 -9 126 -45.5
t68 -90.5l-60 -28q-6 20 -22.5 37t-40.5 29.5t-54 19.5t-64 7t-63 -8t-50 -22t-33 -34t-12 -43q0 -47 48 -78t143 -53q116 -27 171 -74.5t55 -119.5q0 -40 -16 -76.5t-44.5 -65t-67.5 -47t-84 -22.5z" />
    <glyph glyph-name="percent" unicode="%" horiz-adv-x="744" 
d="M185 0h-88l461 701h89zM281 550q0 19 -7 35.5t-18.5 28.5t-27 19t-33.5 7q-17 0 -32.5 -7t-27.5 -19.5t-19 -29t-7 -34.5t7 -34t18.5 -28t27 -19t33.5 -7t33.5 7t27 19t18.5 28t7 34zM39 550q0 33 12.5 61.5t33.5 50t49.5 34t60.5 12.5t60.5 -12.5t49.5 -34t33.5 -50
t12.5 -61.5q0 -32 -12 -60.5t-33 -49.5t-49.5 -33t-61.5 -12q-32 0 -60.5 12.5t-49.5 33.5t-33.5 49t-12.5 60zM635 148q0 19 -7 35.5t-18.5 28.5t-27 19t-33.5 7q-17 0 -32.5 -7t-27.5 -19.5t-19 -29t-7 -34.5t7 -34t18.5 -28t27 -19t33.5 -7t33.5 7t27 19t18.5 28t7 34z
M393 148q0 33 12.5 61.5t33.5 50t49.5 34t60.5 12.5t60.5 -12.5t49.5 -34t33.5 -50t12.5 -61.5q0 -32 -12 -60.5t-33 -49.5t-49.5 -33t-61.5 -12q-32 0 -60.5 12.5t-49.5 33.5t-33.5 49t-12.5 60z" />
    <glyph glyph-name="ampersand" unicode="&#x26;" horiz-adv-x="701" 
d="M462 122q-63 60 -117 119t-104 122q-60 -29 -86.5 -62.5t-26.5 -81.5q0 -70 48 -111.5t131 -41.5q90 0 155 56zM206 557q0 -21 13 -44.5t46 -66.5q54 -70 113.5 -135.5t132.5 -136.5q38 55 52 134l74 -12q-8 -48 -27.5 -93t-48.5 -80l78 -76l-50 -50l-76 74
q-45 -39 -99 -59.5t-113 -20.5q-54 0 -99.5 16.5t-78.5 46.5t-51.5 71t-18.5 89q0 66 36 118.5t106 87.5q-33 41 -48.5 74t-15.5 65q0 31 13.5 58.5t36.5 48t54 32.5t65 12t64 -12t52 -32.5t34.5 -48t12.5 -59.5h-75q0 34 -26 56.5t-64 22.5q-39 0 -65.5 -23t-26.5 -57z" />
    <glyph glyph-name="quotesingle" unicode="'" horiz-adv-x="242" 
d="M121 524q-25 49 -38 83.5t-13 51.5q0 23 14 37t37 14t37 -14.5t14 -37.5q0 -18 -13.5 -53.5t-37.5 -80.5z" />
    <glyph glyph-name="parenleft" unicode="(" horiz-adv-x="415" 
d="M73 313q0 129 52.5 241.5t150.5 194.5l46 -50q-91 -91 -132.5 -183.5t-41.5 -201.5q0 -110 42 -203.5t132 -183.5l-46 -50q-98 81 -150.5 194t-52.5 242z" />
    <glyph glyph-name="parenright" unicode=")" horiz-adv-x="415" 
d="M88 -73q90 90 132 183.5t42 203.5q0 109 -41.5 201.5t-132.5 183.5l46 50q98 -82 150.5 -194.5t52.5 -241.5t-52.5 -242t-150.5 -194z" />
    <glyph glyph-name="asterisk" unicode="*" horiz-adv-x="420" 
d="M240 396q0 -46 -31 -46q-30 0 -30 46q0 20 5 49.5t9 61.5q-8 -5 -21.5 -16t-28.5 -22.5t-30 -21.5t-27 -15q-9 -4 -19 -4q-19 0 -26 16q-6 13 -1 25.5t18 17.5l122 50l-119 47q-16 6 -21.5 19.5t1.5 26.5q8 15 27 15q10 0 19 -4q11 -4 25 -14.5t29 -21.5t28.5 -22
t22.5 -17q-4 33 -9 63t-5 48q0 22 9 35t23 13t22 -13t8 -34q0 -19 -5 -49t-9 -62q38 26 62 41.5t39 22.5q14 7 27 7q15 0 23 -14q15 -27 -26 -50q-16 -9 -42 -17.5t-71 -19.5l123 -45q14 -5 20 -19.5t-2 -27.5t-25 -13q-14 0 -28 7q-12 5 -25.5 14t-27 19t-25.5 19.5
t-21 15.5q2 -32 7.5 -61.5t5.5 -49.5z" />
    <glyph glyph-name="plus" unicode="+" horiz-adv-x="628" 
d="M549 313h-198v-197h-75v197h-202v75h202v196h75v-196h198v-75z" />
    <glyph glyph-name="comma" unicode="," horiz-adv-x="260" 
d="M87 -58q15 9 24.5 24.5t9.5 29.5q-20 3 -33.5 18t-13.5 35q0 23 16 38.5t37 15.5q26 0 42.5 -23t16.5 -61t-18 -70.5t-53 -52.5z" />
    <glyph glyph-name="hyphen" unicode="-" horiz-adv-x="386" 
d="M333 373v-73h-279v73h279z" />
    <glyph glyph-name="period" unicode="." 
d="M73 45q0 21 15.5 37t37.5 16q21 0 36.5 -16t15.5 -37q0 -23 -15.5 -38.5t-36.5 -15.5q-22 0 -37.5 15.5t-15.5 38.5z" />
    <glyph glyph-name="slash" unicode="/" horiz-adv-x="413" 
d="M428 741l-372 -799h-80l372 799h80z" />
    <glyph glyph-name="zero" unicode="0" horiz-adv-x="680" 
d="M558 347q0 59 -17.5 111.5t-47 92t-69 62.5t-83.5 23t-84 -23t-70 -63t-47.5 -92t-17.5 -111q0 -58 17.5 -109.5t47.5 -90.5t70 -62t85 -23t84 22.5t68.5 61.5t46.5 91t17 110zM47 347q0 74 23 140t62.5 115t93 77.5t113.5 28.5t113.5 -28.5t93.5 -77.5t63.5 -115
t23.5 -140q0 -73 -23 -138t-63 -113.5t-93.5 -77t-113.5 -28.5t-113.5 28t-93.5 77t-63 114t-23 138z" />
    <glyph glyph-name="one" unicode="1" horiz-adv-x="392" 
d="M277 700v-700h-75v608l-125 -104l-23 71l147 125h76z" />
    <glyph glyph-name="two" unicode="2" horiz-adv-x="591" 
d="M68 76l309 261q45 38 64.5 72t19.5 72q0 33 -13 61.5t-36 49t-54 32.5t-66 12q-28 0 -55 -8t-49.5 -22t-40 -33.5t-26.5 -43.5l-65 29q14 34 37.5 62t54.5 48t67.5 31t76.5 11q51 0 95.5 -17.5t77.5 -48.5t52 -72t19 -89q0 -54 -26 -100.5t-80 -93.5l-259 -220h362v-69
h-465v76z" />
    <glyph glyph-name="three" unicode="3" horiz-adv-x="595" 
d="M526 630l-175 -183q41 -9 75 -29.5t58 -50t37.5 -65.5t13.5 -77q0 -49 -19.5 -92.5t-54 -75.5t-81 -50.5t-100.5 -18.5q-73 0 -133.5 34.5t-100.5 100.5l60 35q58 -96 166 -96q41 0 76 12.5t60.5 35t40 53t14.5 65.5q0 36 -15.5 66t-43.5 51.5t-67 33.5t-87 12l-13 39
l190 200h-372v70h471v-70z" />
    <glyph glyph-name="four" unicode="4" horiz-adv-x="610" 
d="M128 213h279v376zM39 214q53 71 96 129.5t84.5 114t84.5 113.5t96 129h82v-487h95v-70h-95v-143h-75v143h-368v71z" />
    <glyph glyph-name="five" unicode="5" horiz-adv-x="609" 
d="M94 700h436v-70h-369l-11 -197q70 41 154 41q57 0 104.5 -18.5t82.5 -51.5t54.5 -78.5t19.5 -98.5t-19.5 -97t-55.5 -75.5t-86 -48.5t-110 -17q-70 0 -134.5 28.5t-107.5 81.5l26 81q35 -54 93.5 -85t128.5 -31q43 0 78 11.5t60 33.5t38.5 52.5t13.5 67.5q0 38 -13.5 69
t-38.5 53.5t-59.5 35t-75.5 12.5q-54 0 -105 -20t-85 -54l-38 22z" />
    <glyph glyph-name="six" unicode="6" horiz-adv-x="601" 
d="M548 213q0 -47 -19 -88t-52 -71t-77.5 -47t-95.5 -17q-55 0 -100 20t-77 57.5t-49 90.5t-17 118q0 92 33 169.5t92 134t140 88.5t177 32l-23 -72q-58 0 -111.5 -19t-97.5 -52t-75.5 -79t-44.5 -100q31 26 74.5 41t88.5 15q49 0 92 -17t74.5 -47t49.5 -70.5t18 -86.5z
M144 216q0 -33 12.5 -60.5t34 -47.5t51.5 -31.5t65 -11.5q36 0 66.5 11.5t53 32t35 48t12.5 59.5t-12 58t-34 45t-52.5 29.5t-67.5 10.5q-36 0 -66.5 -10.5t-52 -29t-33.5 -45t-12 -58.5z" />
    <glyph glyph-name="seven" unicode="7" horiz-adv-x="590" 
d="M548 631l-350 -631h-86l350 631h-419v70h505v-70z" />
    <glyph glyph-name="eight" unicode="8" horiz-adv-x="590" 
d="M37 201q0 57 32.5 107t87.5 74q-42 24 -66 61.5t-24 86.5q0 45 20 78.5t52 56.5t72.5 34.5t81.5 11.5t81.5 -11.5t72.5 -34.5t52 -57t20 -79q0 -49 -23.5 -86t-65.5 -61q55 -26 87.5 -74t32.5 -107q0 -49 -23 -88t-59.5 -66.5t-82.5 -42.5t-92 -15t-91.5 15t-82 42.5
t-59.5 66.5t-23 88zM293 640q-27 0 -54 -6.5t-49.5 -20t-36.5 -34.5t-14 -49t14 -49.5t36.5 -35.5t49.5 -21.5t54 -7.5t54.5 7.5t50 22t36.5 35.5t14 49t-14 48.5t-36.5 34t-50 20.5t-54.5 7zM292 64q33 0 66 9t59 26.5t42 44t16 61.5t-16 61t-41.5 43.5t-58 26.5t-65.5 9
q-34 0 -66.5 -9t-58 -26.5t-41.5 -43.5t-16 -61q0 -34 16 -60.5t41.5 -44.5t57.5 -27t65 -9z" />
    <glyph glyph-name="nine" unicode="9" horiz-adv-x="600" 
d="M46 488q0 47 19 88t52 71t77.5 47t95.5 17q56 0 100.5 -20t76.5 -57.5t49 -90.5t17 -118q0 -92 -33 -169.5t-92 -134t-140 -88.5t-177 -32l23 72q58 0 111.5 19t97.5 52t75.5 79t44.5 100q-31 -26 -74.5 -41t-88.5 -15q-49 0 -92 17t-74.5 47t-49.5 70.5t-18 86.5z
M450 485q0 33 -12 60.5t-34 47.5t-52 31.5t-65 11.5q-36 0 -66.5 -11.5t-53 -31.5t-35 -48t-12.5 -60q0 -31 12 -57.5t34 -45.5t52.5 -29.5t67.5 -10.5q36 0 66.5 10.5t52 29t33.5 45t12 58.5z" />
    <glyph glyph-name="colon" unicode=":" horiz-adv-x="379" 
d="M137 45q0 21 15.5 37t37.5 16q21 0 36.5 -16t15.5 -37q0 -23 -15.5 -38.5t-36.5 -15.5q-22 0 -37.5 15.5t-15.5 38.5zM137 446q0 22 15.5 37.5t37.5 15.5q21 0 36.5 -15.5t15.5 -37.5q0 -23 -15.5 -38.5t-36.5 -15.5q-22 0 -37.5 15.5t-15.5 38.5z" />
    <glyph glyph-name="semicolon" unicode=";" 
d="M82 -58q15 9 24.5 24.5t9.5 29.5q-20 3 -33.5 18t-13.5 35q0 23 16 38.5t37 15.5q26 0 42.5 -23t16.5 -61t-18 -70.5t-53 -52.5zM73 446q0 22 15.5 37.5t37.5 15.5q21 0 36.5 -15.5t15.5 -37.5q0 -23 -15.5 -38.5t-36.5 -15.5q-22 0 -37.5 15.5t-15.5 38.5z" />
    <glyph glyph-name="less" unicode="&#x3c;" horiz-adv-x="617" 
d="M72 391l453 219v-79l-374 -181l374 -181v-79l-453 219v82z" />
    <glyph glyph-name="equal" unicode="=" horiz-adv-x="549" 
d="M468 257v-70h-388v70h388zM468 464v-70h-388v70h388z" />
    <glyph glyph-name="greater" unicode="&#x3e;" horiz-adv-x="617" 
d="M538 309l-453 -219v79l373 181l-373 181v79l453 -219v-82z" />
    <glyph glyph-name="question" unicode="?" horiz-adv-x="497" 
d="M182 170v165q32 12 69 25t69 32t53 47.5t21 71.5q0 63 -40 94t-109 31q-54 0 -89.5 -20t-59.5 -69l-60 35q34 67 83.5 97.5t126.5 30.5q49 0 90 -14t70.5 -40t46 -64t16.5 -85t-17.5 -81.5t-47 -60t-67.5 -44t-80 -34.5v-117h-75zM220 95q22 0 37 -15t15 -37t-15 -37.5
t-37 -15.5t-37.5 16t-15.5 37q0 22 15.5 37t37.5 15z" />
    <glyph glyph-name="at" unicode="@" horiz-adv-x="900" 
d="M543 217q-25 -26 -65 -42.5t-79 -16.5q-33 0 -61.5 12t-49.5 34t-33 51.5t-12 64.5q0 43 17.5 83t47.5 70.5t69 48.5t81 18q60 0 109 -38l4 24h75q-11 -60 -21 -119t-21 -120q-13 -67 48 -67q41 0 65.5 36.5t24.5 96.5q0 56 -24 108t-64 91.5t-92.5 63.5t-108.5 24
q-57 0 -110.5 -24.5t-94 -65t-65 -93.5t-24.5 -110q0 -59 23 -112.5t62 -94t90.5 -64t108.5 -23.5q43 0 86 15t78 41l38 -60q-44 -32 -95.5 -49t-106.5 -17q-72 0 -136.5 29t-113 79t-77 116t-28.5 140q0 72 30 137.5t80 115.5t116 80t138 30q71 0 136 -29.5t115 -78.5
t79.5 -113.5t29.5 -135.5q0 -45 -11.5 -82t-32 -63.5t-49 -41.5t-62.5 -15q-45 0 -74.5 17.5t-39.5 48.5zM543 383q6 38 -16.5 61.5t-65.5 23.5q-29 0 -55 -12t-46 -32.5t-31.5 -47t-11.5 -56.5q0 -41 23.5 -64.5t64.5 -23.5q32 0 61 15.5t64 51.5z" />
    <glyph glyph-name="A" unicode="A" horiz-adv-x="700" 
d="M350 606l-129 -326h258zM392 700l277 -700h-79l-83 210h-314l-83 -210h-79l277 700h84z" />
    <glyph glyph-name="B" unicode="B" horiz-adv-x="640" 
d="M337 631h-174v-211h180q23 0 43 8.5t35 23.5t24 34.5t9 41.5q0 23 -9.5 42t-25.5 32.5t-37 21t-45 7.5zM346 350h-183v-279h164q33 0 64 10.5t55 29.5t38.5 45.5t14.5 59.5q0 30 -12.5 55t-33.5 42.5t-49 27t-58 9.5zM88 1v700h248q38 0 73 -12t62 -34t43 -53.5t16 -70.5
q0 -40 -17.5 -77.5t-52.5 -60.5q53 -29 83.5 -74.5t30.5 -105.5q0 -49 -20.5 -88.5t-55 -67t-79 -42t-92.5 -14.5h-239z" />
    <glyph glyph-name="C" unicode="C" horiz-adv-x="670" 
d="M632 88q-41 -45 -106 -72t-134 -27t-130.5 28.5t-108 77.5t-74 114.5t-27.5 139.5t27.5 140t74 115t108.5 77.5t132 28.5q69 0 132.5 -27.5t105.5 -73.5l-50 -50q-37 38 -84.5 58.5t-100.5 20.5q-56 0 -105 -22.5t-86 -61.5t-58 -91.5t-21 -112.5t21.5 -112.5t58 -92
t86 -62t104.5 -22.5q53 0 100.5 20t83.5 58z" />
    <glyph glyph-name="D" unicode="D" horiz-adv-x="731" 
d="M160 631v-561h140q68 0 123 21.5t93 59t58.5 89t20.5 110.5t-20.5 110.5t-58.5 89.5t-93 59.5t-123 21.5h-140zM85 0v701h215q83 0 151.5 -27.5t117 -75.5t75 -112t26.5 -137t-26.5 -136.5t-75 -111t-116.5 -74.5t-152 -27h-215z" />
    <glyph glyph-name="E" unicode="E" horiz-adv-x="600" 
d="M79 0v700h471v-70h-396v-210h348v-70h-348v-280h396v-70h-471z" />
    <glyph glyph-name="F" unicode="F" horiz-adv-x="601" 
d="M79 701h472v-70h-397v-211h348v-70h-348v-350h-75v701z" />
    <glyph glyph-name="G" unicode="G" horiz-adv-x="700" 
d="M635 362v-270q-110 -102 -241 -102q-71 0 -134 28.5t-110 77t-74.5 114t-27.5 139.5t27.5 140t74 115t108.5 77.5t131 28.5q67 0 127.5 -24t97.5 -61l-37 -63q-80 77 -183 77q-56 0 -105 -22.5t-85.5 -61.5t-57.5 -91.5t-21 -111.5q0 -60 21 -113t57.5 -92.5t84.5 -62.5
t102 -23q48 0 95 17.5t75 45.5v166h-158v72h233z" />
    <glyph glyph-name="H" unicode="H" horiz-adv-x="680" 
d="M522 420v281h75v-701h-75v350h-363v-350h-75v701h75v-281h363z" />
    <glyph glyph-name="I" unicode="I" horiz-adv-x="275" 
d="M175 700v-700h-75v700h75z" />
    <glyph glyph-name="J" unicode="J" horiz-adv-x="440" 
d="M365 202q0 -40 -14 -78t-40 -68t-63 -48t-84 -18q-32 0 -65.5 11t-59.5 37l23 71q20 -25 49.5 -35t52.5 -10q32 0 55.5 12.5t39.5 32.5t23.5 44.5t7.5 48.5v498h75v-498z" />
    <glyph glyph-name="K" unicode="K" horiz-adv-x="609" 
d="M576 0h-88l-239 351l-93 -95v-256h-75v700h75v-343l327 343h98l-281 -295z" />
    <glyph glyph-name="L" unicode="L" horiz-adv-x="570" 
d="M84 0v701h75v-631h354v-70h-429z" />
    <glyph glyph-name="M" unicode="M" horiz-adv-x="812" 
d="M358 315l-199 269v-584h-75v700h82l236 -319l241 319h84v-700h-75v588l-207 -273h-87z" />
    <glyph glyph-name="N" unicode="N" horiz-adv-x="750" 
d="M585 0l-428 587v-587h-75v700h84l427 -586v586h75v-700h-83z" />
    <glyph glyph-name="O" unicode="O" horiz-adv-x="785" 
d="M661 350q0 60 -21 112.5t-57 91.5t-85 62t-105 23t-105 -23t-85 -62t-57 -91.5t-21 -112.5t21 -112.5t58 -91.5t86 -62t104 -23q56 0 104.5 23t84.5 62t57 91.5t21 112.5zM49 349q0 75 27 141t74 114.5t110 77t134 28.5t133.5 -28t109 -77t73.5 -114.5t27 -140.5
t-27 -140.5t-73.5 -114.5t-109 -77t-133.5 -28t-134 28t-110 76.5t-74 114t-27 140.5z" />
    <glyph glyph-name="P" unicode="P" horiz-adv-x="641" 
d="M157 349h195q32 0 61 11.5t51 31t35 45t13 53.5q0 30 -12 56t-33.5 44.5t-51 29.5t-63.5 11h-195v-282zM82 701h270q50 0 93 -16t74.5 -44.5t49.5 -67t18 -83.5q0 -43 -19 -81t-51 -67t-74.5 -46t-90.5 -17h-195v-279h-75v701z" />
    <glyph glyph-name="Q" unicode="Q" horiz-adv-x="797" 
d="M399 639q-55 0 -104 -22.5t-85.5 -61.5t-57.5 -91.5t-21 -113.5q0 -60 22.5 -113t59.5 -92t85.5 -62t100.5 -23q37 0 68 9t60 27l-100 102l53 53l106 -108q36 35 58 91t22 117q0 59 -21 111.5t-57.5 91.5t-85 62t-103.5 23zM55 350q0 74 28 139.5t75 114.5t109 77.5
t130 28.5q74 0 137 -28.5t109 -77.5t72.5 -114.5t26.5 -138.5q0 -81 -29 -147t-75 -114l44 -45l-53 -53l-50 51q-45 -31 -91 -42t-88 -11q-72 0 -135 28t-109.5 76.5t-73.5 114.5t-27 141z" />
    <glyph glyph-name="R" unicode="R" horiz-adv-x="640" 
d="M156 349h196q33 0 62.5 11t51 30t34 44.5t12.5 54.5q0 30 -12 56t-33.5 45t-50.5 29.5t-64 10.5h-196v-281zM81 700h271q50 0 93 -16t74.5 -44.5t49.5 -67t18 -83.5q0 -44 -18 -82.5t-49.5 -67t-74 -44.5t-92.5 -16h-22l247 -279h-100l-247 279h-75v-279h-75v700z" />
    <glyph glyph-name="S" unicode="S" horiz-adv-x="580" 
d="M98 178q7 -24 25 -45t43.5 -36t57 -23.5t65.5 -8.5q37 0 68 10.5t53.5 28.5t35.5 43t13 54q0 50 -40.5 80.5t-133.5 50.5q-240 51 -240 196q0 40 17.5 73.5t48.5 57.5t74 37.5t95 13.5q44 0 82.5 -9.5t69.5 -27.5t52.5 -43.5t31.5 -57.5l-61 -28q-13 41 -62 67t-115 26
q-72 0 -116 -29.5t-44 -77.5q0 -45 45.5 -77.5t142.5 -53.5q118 -26 173 -72.5t55 -121.5q0 -45 -19 -84.5t-52.5 -68t-79 -45t-97.5 -16.5q-43 0 -83 11.5t-73 32.5t-57.5 50t-36.5 65z" />
    <glyph glyph-name="T" unicode="T" horiz-adv-x="590" 
d="M557 630h-224v-630h-75v630h-224v70h523v-70z" />
    <glyph glyph-name="U" unicode="U" horiz-adv-x="749" 
d="M84 700h75v-449q0 -39 17 -73.5t46.5 -60t68.5 -40.5t84 -15t84 15t68 40.5t46 60t17 73.5v449h75v-449q0 -54 -23 -101.5t-62.5 -83.5t-92 -56.5t-112.5 -20.5t-112.5 21t-92.5 56.5t-63 83t-23 101.5v449z" />
    <glyph glyph-name="V" unicode="V" horiz-adv-x="700" 
d="M309 0l-275 700h79l237 -600l237 600h79l-274 -700h-83z" />
    <glyph glyph-name="W" unicode="W" horiz-adv-x="1075" 
d="M579 645l182 -533l202 588h79l-241 -700h-81l-181 534l-183 -534h-82l-241 700h79l203 -589l184 534h80z" />
    <glyph glyph-name="X" unicode="X" horiz-adv-x="624" 
d="M511 0l-199 292l-199 -292h-87l240 356l-232 344h90l188 -279l188 279h90l-233 -343l242 -357h-88z" />
    <glyph glyph-name="Y" unicode="Y" horiz-adv-x="643" 
d="M34 700h87l200 -324l202 324h87l-252 -404l1 -296h-75l-1 296z" />
    <glyph glyph-name="Z" unicode="Z" horiz-adv-x="628" 
d="M30 71l471 559h-454v70h550v-71l-471 -559h447v-70h-543v71z" />
    <glyph glyph-name="bracketleft" unicode="[" horiz-adv-x="377" 
d="M97 -85v835h200v-71h-125v-693h125v-71h-200z" />
    <glyph glyph-name="backslash" unicode="\" horiz-adv-x="413" 
d="M356 -61l-370 794h80l370 -794h-80z" />
    <glyph glyph-name="bracketright" unicode="]" horiz-adv-x="375" 
d="M273 -85h-199v71h124v693h-124v71h199v-835z" />
    <glyph glyph-name="asciicircum" unicode="^" horiz-adv-x="700" 
d="M388 700l197 -250h-83l-152 177l-152 -177h-83l197 250h76z" />
    <glyph glyph-name="underscore" unicode="_" horiz-adv-x="555" 
d="M529 -123v-71h-504v71h504z" />
    <glyph glyph-name="grave" unicode="`" horiz-adv-x="300" 
d="M164 588l-89 106l81 27l64 -133h-56z" />
    <glyph glyph-name="a" unicode="a" horiz-adv-x="650" 
d="M316 458q-40 0 -75 -16t-61 -43t-41 -63.5t-15 -77.5t15 -77t40.5 -62.5t60.5 -42t75 -15.5q41 0 76 16t61.5 43t41.5 63t15 77t-15 77t-41.5 63t-61.5 42.5t-75 15.5zM584 0h-75v79q-38 -45 -89.5 -67.5t-108.5 -22.5q-54 0 -102 21t-84 57.5t-56.5 86t-20.5 105.5
t20.5 105.5t56.5 86.5t84.5 58t103.5 21q56 0 106.5 -21.5t89.5 -66.5v78h75v-520z" />
    <glyph glyph-name="b" unicode="b" horiz-adv-x="652" 
d="M339 459q-40 0 -75 -15.5t-61 -42.5t-41.5 -63t-15.5 -77t15 -77t41.5 -63t62 -43t75.5 -16t75 15.5t60.5 42t40.5 62.5t15 77t-15 77.5t-41 63.5t-61 43t-75 16zM71 700h75v-257q39 45 89.5 66.5t106.5 21.5t104 -21t84 -58t56.5 -86.5t20.5 -105.5t-20.5 -105.5
t-56.5 -86t-84 -57.5t-102 -21q-57 0 -108.5 22.5t-89.5 67.5v-79h-75v699z" />
    <glyph glyph-name="c" unicode="c" horiz-adv-x="540" 
d="M509 437l-50 -50q-26 35 -66.5 54t-83.5 19q-40 0 -75.5 -16t-62 -43.5t-42 -64t-15.5 -76.5t15.5 -76t42 -63t62 -43t75.5 -16q43 0 82.5 18.5t67.5 51.5l49 -49q-38 -45 -90.5 -68.5t-110.5 -23.5q-56 0 -104.5 21t-84.5 58t-57 86t-21 104t21 104.5t57 86.5t85 58.5
t106 21.5q58 0 109.5 -24t90.5 -70z" />
    <glyph glyph-name="d" unicode="d" horiz-adv-x="650" 
d="M308 459q-40 0 -75 -16t-61 -43t-41 -63.5t-15 -77.5t15 -77t40.5 -62.5t60.5 -42t75 -15.5q41 0 76 16t61.5 43t41.5 63t15 77t-15 77t-41.5 63t-61.5 42.5t-75 15.5zM576 1h-75v79q-38 -45 -89.5 -67.5t-108.5 -22.5q-54 0 -102 21t-84 57.5t-56.5 86t-20.5 105.5
t20.5 105.5t56.5 86.5t84.5 58t103.5 21q56 0 106.5 -21.5t89.5 -66.5v257h75v-699z" />
    <glyph glyph-name="e" unicode="e" horiz-adv-x="610" 
d="M119 296h379q-6 35 -23.5 64t-43 51t-57 34t-66.5 12q-33 0 -64 -11.5t-56 -33t-43 -51t-26 -65.5zM467 142l50 -50q-34 -48 -89 -75t-120 -27q-55 0 -104 21t-85.5 57.5t-57.5 86t-21 105.5t21.5 105t58 85.5t85 57.5t103.5 21q60 0 111.5 -24t87.5 -65t54.5 -97
t13.5 -119h-454q5 -34 21.5 -64t42 -51.5t57 -34t66.5 -12.5q50 0 92.5 21.5t66.5 58.5z" />
    <glyph glyph-name="f" unicode="f" horiz-adv-x="350" 
d="M271 450h-88v-450h-75v450h-68v70h68v25q0 81 36 123.5t105 42.5q24 0 46 -5t36 -14l-22 -67q-15 8 -26 10.5t-25 2.5q-42 0 -58.5 -21t-16.5 -74v-23h111z" />
    <glyph glyph-name="g" unicode="g" horiz-adv-x="634" 
d="M295 529q103 0 184 -84v74h75v-508q0 -48 -19 -88t-52.5 -69t-80.5 -45t-103 -16q-113 0 -178 63l24 73q23 -29 63 -46t90 -17q40 0 73.5 10.5t57.5 30t37 45.5t13 58v77q-79 -84 -181 -84q-53 0 -99.5 21t-81.5 57t-55.5 84t-20.5 103q0 54 20 101.5t54.5 83t81 56
t98.5 20.5zM479 266q0 41 -14 75.5t-38.5 60t-57.5 40t-71 14.5t-71.5 -14.5t-58 -40t-38.5 -60.5t-14 -75t14 -75t39 -60.5t58 -40t72 -14.5q38 0 71 14.5t57 40t38 60.5t14 75z" />
    <glyph glyph-name="h" unicode="h" horiz-adv-x="631" 
d="M553 1h-75v280q0 38 -10.5 69.5t-29 54.5t-45 35.5t-58.5 12.5q-35 0 -68 -15t-58.5 -40t-40.5 -57t-15 -67v-273h-75v700h75v-263q80 89 183 89q47 0 86.5 -18.5t68.5 -51.5t45.5 -78t16.5 -98v-280z" />
    <glyph glyph-name="i" unicode="i" horiz-adv-x="240" 
d="M119 704q20 0 33 -13t13 -33t-13 -33t-33 -13t-32.5 13t-12.5 33t12.5 33t32.5 13zM157 520v-520h-75v520h75z" />
    <glyph glyph-name="j" unicode="j" horiz-adv-x="240" 
d="M157 -46q0 -78 -37 -120t-112 -42q-40 0 -73 20l22 67q8 -6 20.5 -10t30.5 -4q42 0 58.5 22t16.5 74l-1 559h75v-566zM120 704q19 0 32 -13.5t13 -31.5t-13 -32t-32 -14t-32 13.5t-13 32.5t13 32t32 13z" />
    <glyph glyph-name="k" unicode="k" horiz-adv-x="560" 
d="M524 520l-220 -185l229 -335h-93l-195 286l-93 -78v-207h-75v700h75v-396l257 215h115z" />
    <glyph glyph-name="l" unicode="l" horiz-adv-x="249" 
d="M163 702v-701h-75v701h75z" />
    <glyph glyph-name="m" unicode="m" horiz-adv-x="926" 
d="M851 320v-320h-74v310q0 69 -32 107.5t-89 38.5q-31 0 -59.5 -12t-50 -33t-34 -48.5t-12.5 -58.5v-304h-74v314q0 32 -9 58t-25.5 44.5t-40 29t-51.5 10.5q-31 0 -58.5 -12.5t-48 -34.5t-32.5 -51t-12 -62v-296h-74v520h74v-62q60 72 157 72q57 0 98 -25.5t70 -79.5
q31 51 76.5 78t102.5 27q43 0 79.5 -15.5t62.5 -43.5t41 -66.5t15 -84.5z" />
    <glyph glyph-name="n" unicode="n" horiz-adv-x="587" 
d="M524 0h-74v318q0 29 -10 54t-27.5 43t-42.5 28.5t-55 10.5q-33 0 -63 -12.5t-52 -34t-35 -51t-13 -64.5v-292h-74v520h74v-63q29 34 74.5 53.5t93.5 19.5q44 0 81.5 -16t64.5 -44.5t42.5 -67.5t15.5 -84v-318z" />
    <glyph glyph-name="o" unicode="o" horiz-adv-x="620" 
d="M503 259q0 41 -15.5 77t-41.5 63.5t-61.5 43.5t-74.5 16t-74 -16t-61.5 -43.5t-42 -64t-15.5 -76.5t15.5 -76t42 -63t61.5 -42.5t74 -15.5t74.5 15.5t61.5 42.5t41.5 63t15.5 76zM42 259q0 57 21 106.5t57.5 86t85.5 58t104 21.5q56 0 104.5 -21.5t85 -58t57.5 -86
t21 -106.5q0 -56 -21 -105t-57.5 -85.5t-85 -57.5t-104.5 -21q-55 0 -104 21t-85.5 57.5t-57.5 85.5t-21 105z" />
    <glyph glyph-name="p" unicode="p" horiz-adv-x="650" 
d="M339 62q40 0 75 16t61 43t41 63.5t15 77.5t-15 77t-40.5 62.5t-60.5 42t-75 15.5t-75.5 -16t-62 -43t-41.5 -63t-15 -77t15.5 -77t41.5 -63t61 -42.5t75 -15.5zM71 520h75v-79q38 45 89.5 67.5t108.5 22.5q54 0 102 -21t84 -57.5t56.5 -86t20.5 -105.5t-20.5 -105.5
t-56.5 -86t-84 -58t-104 -21.5t-106.5 21.5t-89.5 66.5v-278h-75v720z" />
    <glyph glyph-name="q" unicode="q" horiz-adv-x="650" 
d="M308 62q40 0 75 15.5t61.5 42.5t41.5 63t15 77t-15 77t-41.5 63t-61.5 43t-76 16q-40 0 -75 -15.5t-60.5 -42t-40.5 -62.5t-15 -77t15 -77.5t41 -63.5t61 -43t75 -16zM576 -200h-75v278q-39 -45 -89.5 -66.5t-106.5 -21.5q-55 0 -103.5 21.5t-84.5 58t-56.5 86
t-20.5 105.5t20.5 105.5t56.5 86t84 57.5t102 21q57 0 108.5 -22.5t89.5 -67.5v79h75v-720z" />
    <glyph glyph-name="r" unicode="r" horiz-adv-x="370" 
d="M331 449q-40 0 -73 -14.5t-57 -40t-37.5 -60t-13.5 -73.5v-261h-75v519h75v-79q71 85 188 85q5 0 9.5 -0.5t9.5 -0.5z" />
    <glyph glyph-name="s" unicode="s" horiz-adv-x="499" 
d="M104 139q18 -34 56 -55t83 -21q26 0 49.5 7.5t41 20t28 29t10.5 34.5q0 28 -24 45t-59.5 29t-77 23t-77 27.5t-59.5 41.5t-24 65q0 31 15 58t41 46.5t61 31t76 11.5q67 0 119.5 -28t72.5 -76l-63 -35q-15 31 -49 48.5t-76 17.5q-24 0 -46.5 -5.5t-39 -15.5t-26.5 -22.5
t-10 -26.5q0 -22 24 -36t59.5 -25t77.5 -23t77.5 -30.5t59.5 -47t24 -72.5q0 -35 -16 -65t-44 -52.5t-66 -35t-82 -12.5q-68 0 -119.5 30t-77.5 84z" />
    <glyph glyph-name="t" unicode="t" horiz-adv-x="370" 
d="M330 9q-35 -19 -79 -19q-144 0 -144 164v296h-67v70h67v180h75v-180h87l23 -70h-110v-300q0 -46 17 -66.5t58 -20.5q14 0 25 2.5t26 10.5z" />
    <glyph glyph-name="u" unicode="u" horiz-adv-x="586" 
d="M70 519h74v-318q0 -29 10 -54t27.5 -43t42.5 -28.5t55 -10.5q33 0 62.5 12.5t52 34.5t35.5 51.5t13 63.5v292h74v-520h-74v64q-29 -35 -74.5 -54.5t-93.5 -19.5q-44 0 -81.5 16.5t-64.5 45t-42.5 67t-15.5 83.5v318z" />
    <glyph glyph-name="v" unicode="v" horiz-adv-x="550" 
d="M233 0l-207 520h81l168 -420l168 420h81l-207 -520h-84z" />
    <glyph glyph-name="w" unicode="w" horiz-adv-x="852" 
d="M465 510l137 -373l140 383h79l-190 -520h-57l-147 397l-147 -397h-59l-190 520h80l140 -385l137 375h77z" />
    <glyph glyph-name="x" unicode="x" horiz-adv-x="550" 
d="M436 0l-160 219l-161 -219h-93l207 282l-174 238h93l128 -175l126 175h95l-175 -237l207 -283h-93z" />
    <glyph glyph-name="y" unicode="y" horiz-adv-x="580" 
d="M90 -119q15 -7 27.5 -9.5t23.5 -2.5q23 0 39 12t27.5 31.5t20.5 43.5t19 48l-218 516h82l178 -420l180 420h82l-275 -636q-19 -44 -55.5 -68t-78.5 -24q-38 0 -75 20z" />
    <glyph glyph-name="z" unicode="z" horiz-adv-x="501" 
d="M460 444l-322 -371h323v-73h-419v75l321 372h-323v73h420v-76z" />
    <glyph glyph-name="braceleft" unicode="{" horiz-adv-x="350" 
d="M300 -112q-41 0 -77 12.5t-62.5 34t-42 51t-15.5 63.5v198q0 30 -34 30h-6v69h6q34 0 34 28v198q0 34 15 62.5t41 49.5t62.5 33t78.5 12v-69q-54 0 -88 -24.5t-34 -64.5v-197q0 -34 -23 -63q23 -35 23 -64v-197q0 -19 10 -36t26.5 -30t38.5 -20.5t47 -7.5v-68z" />
    <glyph glyph-name="bar" unicode="|" horiz-adv-x="270" 
d="M171 741v-781h-72v781h72z" />
    <glyph glyph-name="braceright" unicode="}" horiz-adv-x="350" 
d="M50 -44q25 0 47 7.5t38.5 20.5t26.5 30t10 36v197q0 29 23 64q-23 29 -23 63v197q0 40 -34 64.5t-88 24.5v69q42 0 78.5 -12t62.5 -33t41 -49.5t15 -62.5v-198q0 -28 34 -28h6v-69h-6q-34 0 -34 -30v-198q0 -34 -15.5 -63.5t-42 -51t-62.5 -34t-77 -12.5v68z" />
    <glyph glyph-name="asciitilde" unicode="~" horiz-adv-x="578" 
d="M99 272q0 32 8.5 59.5t23.5 47.5t35 31t43 11q27 0 49 -13.5t41 -30t35.5 -30t32.5 -13.5q21 0 33 24.5t12 61.5l66 -5q0 -31 -8.5 -58t-23.5 -47t-35.5 -31.5t-44.5 -11.5q-27 0 -49 13.5t-40.5 30t-35 30t-32.5 13.5q-20 0 -32 -23.5t-12 -63.5z" />
    <glyph glyph-name="uni00A0" unicode="&#xa0;" horiz-adv-x="260" 
 />
    <glyph glyph-name="copyright" unicode="&#xa9;" horiz-adv-x="801" 
d="M118 348q0 -58 22 -110t60.5 -90t90 -60.5t109.5 -22.5q59 0 110.5 22.5t90 60.5t60.5 90t22 110q0 59 -22 110.5t-60.5 90t-90 61t-110.5 22.5q-58 0 -109.5 -22.5t-90 -61t-60.5 -90t-22 -110.5zM46 348q0 73 28 137.5t76 113t112.5 76.5t137.5 28q74 0 138.5 -28
t112.5 -76t76 -112.5t28 -138.5q0 -73 -28 -137.5t-76 -112.5t-112.5 -76t-138.5 -28q-73 0 -137.5 28t-112.5 76t-76 112.5t-28 137.5zM508 424q-20 27 -49 42.5t-59 15.5q-26 0 -49.5 -11t-41 -29t-28 -42.5t-10.5 -51.5t10.5 -51t28 -42t41 -28.5t49.5 -10.5
q29 0 57 14.5t51 41.5l50 -50q-32 -38 -73.5 -58t-85.5 -20q-42 0 -79 16t-64.5 43.5t-43.5 65t-16 79.5q0 43 16 80.5t44 65.5t65 44t79 16q45 0 85.5 -20.5t73.5 -58.5z" />
    <glyph glyph-name="degree" unicode="&#xb0;" horiz-adv-x="308" 
d="M41 573q0 23 9 43.5t24.5 36t36 24.5t43.5 9t43.5 -9t36 -24.5t24.5 -36t9 -43.5t-9 -43.5t-24.5 -36t-36 -24.5t-43.5 -9t-43.5 9t-36 24.5t-24.5 36t-9 43.5zM96 573q0 -24 17 -41t41 -17t41 17t17 41t-17 41t-41 17t-41 -17t-17 -41z" />
    <glyph glyph-name="acute" unicode="&#xb4;" horiz-adv-x="281" 
d="M90 588l65 133l81 -27l-90 -106h-56z" />
    <glyph glyph-name="multiply" unicode="&#xd7;" horiz-adv-x="572" 
d="M144 545l140 -140l140 139l53 -53l-140 -139l143 -143l-53 -53l-143 143l-138 -138l-53 53l138 138l-140 140z" />
    <glyph glyph-name="divide" unicode="&#xf7;" horiz-adv-x="572" 
d="M496 386v-70h-420v70h420zM234 503q0 21 15.5 36.5t37.5 15.5q21 0 36.5 -15.5t15.5 -36.5q0 -22 -15.5 -37.5t-36.5 -15.5q-22 0 -37.5 15.5t-15.5 37.5zM234 198q0 21 15.5 36.5t37.5 15.5q21 0 36.5 -15.5t15.5 -36.5q0 -22 -15.5 -37.5t-36.5 -15.5q-22 0 -37.5 15.5
t-15.5 37.5z" />
    <glyph glyph-name="tilde" unicode="&#x2dc;" horiz-adv-x="447" 
d="M66 596q0 26 7 49t19 39.5t29 26t36 9.5q23 0 42 -11.5t35.5 -25t31 -25t27.5 -11.5q17 0 26.5 20t9.5 52l53 -4q0 -26 -7 -49t-19.5 -39.5t-29 -26t-36.5 -9.5q-23 0 -41.5 11.5t-34 25t-29.5 25t-27 11.5q-17 0 -28 -20t-11 -52z" />
    <glyph glyph-name="quoteleft" unicode="&#x2018;" horiz-adv-x="175" 
d="M131 670q-15 -9 -24.5 -24.5t-9.5 -29.5q20 -3 33.5 -18t13.5 -35q0 -23 -16 -38.5t-37 -15.5q-26 0 -42.5 23t-16.5 61t18 70.5t53 52.5z" />
    <glyph glyph-name="quoteright" unicode="&#x2019;" horiz-adv-x="175" 
d="M45 556q15 9 24.5 24.5t9.5 29.5q-20 3 -33.5 18t-13.5 35q0 23 16 38.5t37 15.5q26 0 42.5 -23t16.5 -61t-18 -70.5t-53 -52.5z" />
    <glyph glyph-name="quotedblleft" unicode="&#x201c;" horiz-adv-x="359" 
d="M148 670q-15 -9 -24.5 -24.5t-9.5 -29.5q20 -3 33.5 -18t13.5 -35q0 -23 -16 -38.5t-37 -15.5q-26 0 -42.5 23t-16.5 61t18 70.5t53 52.5zM297 669q-15 -9 -24.5 -24.5t-9.5 -29.5q20 -3 33.5 -18t13.5 -35q0 -23 -16 -38.5t-37 -15.5q-26 0 -42.5 23t-16.5 61t18 70.5
t53 52.5z" />
    <glyph glyph-name="quotedblright" unicode="&#x201d;" horiz-adv-x="359" 
d="M211 555q15 9 24.5 24.5t9.5 29.5q-20 3 -33.5 18t-13.5 35q0 23 16 38.5t37 15.5q26 0 42.5 -23t16.5 -61t-18 -70.5t-53 -52.5zM62 556q15 9 24.5 24.5t9.5 29.5q-20 3 -33.5 18t-13.5 35q0 23 16 38.5t37 15.5q26 0 42.5 -23t16.5 -61t-18 -70.5t-53 -52.5z" />
    <glyph glyph-name="fraction" unicode="&#x2044;" horiz-adv-x="400" 
d="M31 0h-63l404 701h64z" />
    <glyph glyph-name="Euro" unicode="&#x20ac;" horiz-adv-x="600" 
d="M428 -10q-57 0 -103.5 20t-82 54t-60.5 79t-38 95h-94v70h82q-1 10 -1.5 19.5t-0.5 19.5q0 11 0.5 21.5t1.5 21.5h-82v70h95q13 50 37.5 94.5t60 79t82 54.5t102.5 20q34 0 67 -10t62 -27l-36 -62q-20 13 -43.5 20t-47.5 7q-40 0 -73 -14.5t-58.5 -38.5t-44 -56
t-30.5 -67h215v-70h-230q-3 -21 -3 -43q0 -10 0.5 -19.5t1.5 -19.5h231v-70h-215q11 -35 29.5 -67t44.5 -56t59.5 -38.5t73.5 -14.5q49 0 90 26l39 -60q-29 -18 -62.5 -28t-68.5 -10z" />
    <glyph glyph-name="minus" unicode="&#x2212;" horiz-adv-x="572" 
d="M496 385v-70h-420v70h420z" />
    </font>
</defs>
</svg>
