<?xml version="1.0" standalone="no"?>
<!DOCTYPE svg PUBLIC "-//W3C//DTD SVG 1.1//EN" "http://www.w3.org/Graphics/SVG/1.1/DTD/svg11.dtd" >
<svg xmlns="http://www.w3.org/2000/svg" xmlns:xlink="http://www.w3.org/1999/xlink" version="1.1">
<metadata>
Created by FontForge 20170731 at Tue Dec 31 19:29:46 2019
 By Aleksey,,,
(c) 2019 KushJain. All rights reserved.
</metadata>
<defs>
<font id="AsfaltoMeticula-Light" horiz-adv-x="650" >
  <font-face 
    font-family="Asfalto Meticula"
    font-weight="400"
    font-stretch="normal"
    units-per-em="1000"
    panose-1="0 0 0 0 0 0 0 0 0 0"
    ascent="800"
    descent="-200"
    x-height="520"
    cap-height="700"
    bbox="-96 -215 1062 933"
    underline-thickness="50"
    underline-position="-225"
    unicode-range="U+0020-FB04"
  />
<missing-glyph horiz-adv-x="351" 
d="M351 700v-700h-351v700h351zM51 48h248v604h-248v-604z" />
    <glyph glyph-name="f_f" unicode="ff" horiz-adv-x="707" 
d="M248 711q25 0 46.5 -5.5t35.5 -13.5l-18 -54q-16 8 -27.5 11.5t-28.5 3.5q-45 0 -64.5 -23.5t-19.5 -80.5v-29h298v30q0 81 34.5 121t100.5 40q26 0 47.5 -5.5t35.5 -14.5l-18 -53q-16 8 -28 11.5t-28 3.5q-46 0 -65 -24t-19 -81v-28h121l-18 -57h-103v-463h-61v463h-296
v-463h-61v463h-73v57h73v30q0 81 35 121t101 40z" />
    <glyph glyph-name="fi" unicode="fi" horiz-adv-x="561" 
d="M245 711q51 0 81 -19l-17 -54q-16 8 -28 11.5t-28 3.5q-46 0 -65 -23.5t-19 -80.5v-29h323v-520h-60v463h-263v-463h-60v463h-74v57h74v31q0 160 136 160z" />
    <glyph glyph-name="fl" unicode="fl" horiz-adv-x="564" 
d="M490 0h-60v463h-262v-463h-60v463h-73v57h73v31q0 160 137 160q49 0 81 -19l-18 -54q-16 8 -27.5 11.5t-28.5 3.5q-45 0 -64.5 -23.5t-19.5 -80.5v-29h262v180h60v-700z" />
    <glyph glyph-name="f_f_i" unicode="ffi" horiz-adv-x="924" 
d="M852 520v-520h-60v463h-262v-463h-61v463h-296v-463h-61v463h-73v57h73v30q0 81 35 121t101 40q25 0 46.5 -5.5t35.5 -13.5l-18 -54q-16 8 -27.5 11.5t-28.5 3.5q-45 0 -64.5 -23.5t-19.5 -80.5v-29h298v30q0 81 34.5 121t100.5 40q26 0 47.5 -5.5t35.5 -14.5l-18 -53
q-16 8 -28 11.5t-28 3.5q-46 0 -65 -24t-19 -81v-28h322z" />
    <glyph glyph-name="f_f_l" unicode="ffl" horiz-adv-x="923" 
d="M792 463h-262v-463h-61v463h-296v-463h-61v463h-73v57h73v30q0 81 35 121t101 40q25 0 46.5 -5.5t35.5 -13.5l-18 -54q-16 8 -27.5 11.5t-28.5 3.5q-45 0 -64.5 -23.5t-19.5 -80.5v-29h298v30q0 81 34.5 121t100.5 40q26 0 47.5 -5.5t35.5 -14.5l-18 -53q-16 8 -28 11.5
t-28 3.5q-46 0 -65 -24t-19 -81v-28h262v180h60v-700h-60v463z" />
    <glyph glyph-name="f_t" unicode="ft" horiz-adv-x="710" 
d="M248 711q26 0 47.5 -5.5t35.5 -13.5l-18 -54q-16 8 -28.5 11.5t-30.5 3.5q-44 0 -62.5 -24t-18.5 -81v-28h299v180h60v-180h100l19 -57h-119v-315q0 -54 19 -77t63 -23q17 0 29.5 3.5t28.5 11.5l17 -54q-35 -19 -81 -19q-136 0 -136 160v313h-299v-463h-60v463h-74v57h74
v30q0 161 135 161z" />
    <glyph glyph-name=".notdef" horiz-adv-x="351" 
d="M351 700v-700h-351v700h351zM51 48h248v604h-248v-604z" />
    <glyph glyph-name="uni0000" horiz-adv-x="250" 
 />
    <glyph glyph-name="uni0000" horiz-adv-x="250" 
 />
    <glyph glyph-name="nonmarkingreturn" horiz-adv-x="250" 
 />
    <glyph glyph-name="space" unicode=" " horiz-adv-x="276" 
 />
    <glyph glyph-name="exclam" unicode="!" horiz-adv-x="217" 
d="M67 35q0 18 12.5 31t30.5 13t31 -13t13 -31t-13 -30.5t-31 -12.5t-30.5 12.5t-12.5 30.5zM140 701l-1 -555h-58l-2 555h61z" />
    <glyph glyph-name="quotedbl" unicode="&#x22;" horiz-adv-x="372" 
d="M119 539q-20 42 -32 75t-12 50q0 21 12 33t32 12t32 -12.5t12 -32.5q0 -18 -12.5 -52t-31.5 -73zM254 539q-19 42 -31.5 75t-12.5 50q0 21 12 33t32 12t32 -12.5t12 -32.5q0 -18 -12.5 -52t-31.5 -73z" />
    <glyph glyph-name="numbersign" unicode="#" horiz-adv-x="682" 
d="M472 258h141l-12 -57h-141l-43 -201h-61l43 201h-186l-43 -201h-62l43 201h-111l12 57h115l42 198h-141l12 57h141l40 188h62l-41 -188h185l40 188h61l-40 -188h112l-12 -57h-114zM270 456l-42 -198h183l42 198h-183z" />
    <glyph glyph-name="dollar" unicode="$" horiz-adv-x="573" 
d="M104 532q0 -49 49 -82t146 -56q118 -27 173 -74t55 -119q0 -41 -16.5 -77t-46 -63.5t-69 -45.5t-85.5 -22v-63h-57v63q-77 8 -134 48t-81 103l49 23q9 -26 28 -47.5t45.5 -36.5t58 -23.5t65.5 -8.5q41 0 74.5 11.5t58 32t38 47t13.5 56.5q0 54 -44.5 87.5t-144.5 55.5
q-116 25 -175 71.5t-59 115.5q0 36 15.5 68t43 56.5t66 39.5t83.5 18v60h57v-61q72 -6 127 -41t74 -88l-49 -22q-8 21 -25.5 38t-42 29.5t-55 19.5t-63.5 7q-37 0 -68.5 -9t-54.5 -25t-36 -38t-13 -48z" />
    <glyph glyph-name="percent" unicode="%" horiz-adv-x="729" 
d="M560 701h72l-462 -701h-71zM97 555q0 -20 7.5 -38t20.5 -31.5t30.5 -21t37.5 -7.5t37.5 7.5t30.5 21t20.5 31.5t7.5 38q0 21 -7.5 39t-20.5 31.5t-30.5 21t-37.5 7.5q-19 0 -36.5 -8t-31 -21.5t-21 -31.5t-7.5 -38zM40 555q0 32 12 60t33 49t49 33t59 12q32 0 59.5 -12
t48.5 -33t33 -49t12 -60q0 -31 -12 -59t-32.5 -48.5t-48.5 -32.5t-60 -12q-31 0 -59 12t-49 32.5t-33 48.5t-12 59zM634 144q0 21 -7.5 39t-20.5 31.5t-30.5 21t-37.5 7.5t-37.5 -8t-31 -21.5t-21 -31.5t-7.5 -38t7.5 -38t21 -31.5t31 -21t37.5 -7.5t37 8t30.5 21.5t21 31
t7.5 37.5zM691 144q0 -31 -12 -59t-32.5 -48.5t-48.5 -32.5t-60 -12t-60 12t-48.5 32.5t-32.5 48.5t-12 59q0 32 12 60t33 49t49 33t59 12q32 0 59.5 -12t48.5 -33t33 -49t12 -60z" />
    <glyph glyph-name="ampersand" unicode="&#x26;" horiz-adv-x="701" 
d="M476 117q-63 60 -122 124.5t-113 132.5q-69 -32 -99 -69t-30 -89q0 -37 13.5 -67.5t38.5 -52t60 -33.5t78 -12q101 0 174 66zM193 565q0 -12 4 -24.5t13 -28.5t24.5 -37.5t39.5 -50.5q54 -68 114 -133.5t127 -130.5q43 56 61 146l59 -9q-10 -52 -30.5 -98t-49.5 -81
l80 -77l-41 -40l-77 75q-48 -42 -103.5 -63.5t-115.5 -21.5q-53 0 -98 16.5t-78 46t-51.5 69.5t-18.5 88q0 68 39 121.5t112 87.5q-35 44 -52.5 79t-17.5 67q0 30 13 56.5t35 46t51.5 30.5t63.5 11q33 0 62.5 -11.5t51 -31.5t34 -46.5t12.5 -57.5h-60q0 38 -29.5 63.5
t-73.5 25.5q-42 0 -71 -25t-29 -62z" />
    <glyph glyph-name="quotesingle" unicode="'" horiz-adv-x="228" 
d="M114 539q-20 42 -32 75t-12 50q0 21 12 33t32 12t32 -12.5t12 -32.5q0 -18 -12.5 -52t-31.5 -73z" />
    <glyph glyph-name="parenleft" unicode="(" horiz-adv-x="394" 
d="M66 312q0 129 53 243.5t152 197.5l37 -41q-94 -91 -138 -187.5t-44 -211.5q0 -113 43.5 -210t138.5 -191l-38 -40q-48 40 -86 90t-64.5 106.5t-40 118t-13.5 125.5z" />
    <glyph glyph-name="parenright" unicode=")" horiz-adv-x="394" 
d="M84 -88q94 94 137.5 191t43.5 210q0 115 -43.5 211.5t-137.5 187.5l37 41q98 -83 151 -197.5t53 -243.5q0 -64 -13.5 -125.5t-40 -118t-64.5 -106.5t-86 -90z" />
    <glyph glyph-name="asterisk" unicode="*" horiz-adv-x="413" 
d="M221 523q2 -31 7 -60.5t5 -51.5q0 -45 -27 -45t-27 46q0 20 4 48t8 63q-9 -7 -23.5 -18t-29.5 -21.5t-29.5 -20t-24.5 -13.5q-13 -5 -21 -5q-17 0 -23 12q-5 11 0 22.5t18 17.5q7 3 24 10.5t36.5 16t37 16l24.5 10.5q-6 3 -23 9.5t-36 14t-36 14t-24 9.5q-15 6 -21 18
t0 23q6 12 24 12q10 0 21 -4q11 -5 25.5 -14.5t29.5 -20t28.5 -20t22.5 -14.5q-4 31 -8 60t-4 49q0 47 27 47t27 -46q0 -20 -4.5 -49.5t-8.5 -60.5q32 21 60.5 38.5t47.5 24.5q14 6 23 6q14 0 21 -12q6 -11 -1 -22t-24 -21t-46.5 -20.5t-70.5 -20.5q11 -4 29.5 -11.5
t38 -15.5t35.5 -14.5t22 -8.5q12 -5 17.5 -18t0.5 -24q-6 -11 -22 -11q-13 0 -28 7q-10 5 -23 13.5t-27 18.5t-27.5 20t-24.5 17z" />
    <glyph glyph-name="plus" unicode="+" horiz-adv-x="623" 
d="M544 320h-203v-202h-60v202h-207v60h207v201h60v-201h203v-60z" />
    <glyph glyph-name="comma" unicode="," horiz-adv-x="246" 
d="M172 17q0 -74 -63 -112l-23 37q14 9 23 23t9 31q-19 2 -31 15.5t-12 30.5q0 19 13 32.5t32 13.5q24 0 38 -21t14 -50z" />
    <glyph glyph-name="hyphen" unicode="-" horiz-adv-x="376" 
d="M323 349v-59h-269v59h269z" />
    <glyph glyph-name="period" unicode="." horiz-adv-x="236" 
d="M73 39q0 18 13.5 32t32.5 14t32 -14t13 -32q0 -20 -13 -33.5t-32 -13.5t-32.5 13.5t-13.5 33.5z" />
    <glyph glyph-name="slash" unicode="/" horiz-adv-x="398" 
d="M413 743l-374 -802h-64l373 802h65z" />
    <glyph glyph-name="zero" unicode="0" horiz-adv-x="681" 
d="M572 347q0 62 -18.5 117t-50 96.5t-73.5 65.5t-89 24t-89.5 -24t-74 -65.5t-50 -96.5t-18.5 -117q0 -61 18.5 -115.5t50.5 -95t74 -64.5t90 -24t89.5 23.5t73 64.5t49.5 95.5t18 115.5zM49 347q0 74 23 140t62 115t92 77.5t113 28.5t113.5 -28.5t93.5 -77.5t63 -115
t23 -140q0 -73 -23 -138t-62.5 -113.5t-93 -77t-113.5 -28.5t-113 28t-92.5 77t-62.5 114t-23 138z" />
    <glyph glyph-name="one" unicode="1" horiz-adv-x="379" 
d="M265 700v-700h-60v629l-133 -112l-19 58l147 125h65z" />
    <glyph glyph-name="two" unicode="2" horiz-adv-x="591" 
d="M73 65l313 266q48 41 69 76t21 76q0 36 -14 66.5t-39 53t-58.5 35.5t-71.5 13q-61 0 -110.5 -31t-70.5 -82l-52 23q14 33 37 60.5t54 47t67 30.5t75 11q50 0 94.5 -17.5t77.5 -48t52 -71.5t19 -88q0 -53 -25.5 -98.5t-80.5 -92.5l-278 -238h381v-56h-460v65z" />
    <glyph glyph-name="three" unicode="3" horiz-adv-x="594" 
d="M525 640l-187 -195q44 -6 80 -25t62 -48.5t40.5 -67t14.5 -79.5q0 -49 -19.5 -92t-53.5 -75t-80.5 -50.5t-99.5 -18.5q-73 0 -134.5 34.5t-99.5 99.5l48 28q31 -51 77 -77t103 -26q43 0 80 14t64 38t42.5 57t15.5 70q0 45 -19.5 77.5t-51 53.5t-71 31t-78.5 10l-11 33
l202 212h-389v57h465v-61z" />
    <glyph glyph-name="four" unicode="4" horiz-adv-x="603" 
d="M108 203h308v413zM38 206q43 58 90 120.5t94 126.5t94 126.5t90 120.5h70v-497h94v-57h-94v-146h-60v146h-378v60z" />
    <glyph glyph-name="five" unicode="5" horiz-adv-x="603" 
d="M93 700h430v-57h-377l-12 -223q39 26 81 38t87 12q56 0 103 -18.5t81.5 -50.5t53.5 -76.5t19 -96.5q0 -53 -19.5 -97t-55 -75.5t-85 -49t-109.5 -17.5q-68 0 -129 27.5t-108 81.5l21 65q38 -55 95.5 -84.5t126.5 -29.5q45 0 82.5 13t64 36.5t41.5 57t15 73.5t-14.5 73.5
t-40.5 57.5t-62 37t-79 13q-57 0 -110 -21.5t-84 -56.5l-35 20z" />
    <glyph glyph-name="six" unicode="6" horiz-adv-x="592" 
d="M540 212q0 -47 -18 -87.5t-50 -70.5t-75.5 -47t-94.5 -17q-55 0 -100 20.5t-77 57t-50 88t-18 113.5q0 93 32.5 171.5t90 135.5t136.5 90t173 34l-19 -58q-62 -1 -119 -23t-103 -60.5t-77 -90.5t-42 -112q32 35 79 54.5t101 19.5q49 0 91 -17t73 -46.5t49 -69t18 -85.5z
M125 215q0 -34 14 -64.5t38 -52.5t57 -35t71 -13t70 12.5t55.5 34.5t37 52t13.5 65q0 34 -13 62.5t-36.5 49.5t-55.5 32.5t-71 11.5t-72 -11.5t-57 -32t-37.5 -49t-13.5 -62.5z" />
    <glyph glyph-name="seven" unicode="7" horiz-adv-x="580" 
d="M539 640l-356 -640h-68l357 644h-431v57h498v-61z" />
    <glyph glyph-name="eight" unicode="8" horiz-adv-x="586" 
d="M38 200q0 59 35.5 108.5t98.5 74.5q-47 22 -75 62.5t-28 90.5q0 41 19 73.5t50 55t71.5 34.5t82.5 12t82.5 -12t71.5 -35t50 -56t19 -74q0 -50 -27.5 -89t-73.5 -62q62 -26 97.5 -74.5t35.5 -108.5q0 -47 -22 -86t-57.5 -66.5t-81.5 -43t-94 -15.5t-93.5 15.5t-81 43
t-57.5 66.5t-22 86zM292 654q-31 0 -60.5 -8t-52.5 -23t-37.5 -37t-14.5 -50q0 -29 14.5 -52.5t37.5 -40t53 -25.5t60 -9q31 0 61 9t53 25t37.5 39.5t14.5 51.5t-14.5 50.5t-38 38t-53 23.5t-60.5 8zM292 49q38 0 73 10.5t62 30t43.5 48t16.5 63.5q0 36 -16 64t-43 47.5
t-62 29.5t-73 10t-73.5 -10t-62.5 -29.5t-43 -47.5t-16 -63t16.5 -63.5t43.5 -48.5t62 -30.5t72 -10.5z" />
    <glyph glyph-name="nine" unicode="9" horiz-adv-x="592" 
d="M44 490q0 47 18 87.5t50 70.5t75.5 47t94.5 17q55 0 100 -20t77.5 -57t50 -88.5t17.5 -113.5q0 -93 -32.5 -171.5t-90 -136t-136.5 -90.5t-173 -34l19 58q62 1 119.5 23.5t103 61t77 90.5t41.5 112q-32 -35 -79 -54.5t-101 -19.5q-49 0 -91 17t-73 46.5t-49 69t-18 85.5z
M459 486q0 35 -14 65t-38 52.5t-57 35.5t-71 13q-37 0 -69.5 -12.5t-56 -34.5t-37 -52t-13.5 -65q0 -34 13 -62.5t36.5 -49.5t55.5 -32.5t71 -11.5t72 11.5t57 32t37.5 48.5t13.5 62z" />
    <glyph glyph-name="colon" unicode=":" horiz-adv-x="353" 
d="M131 39q0 19 13.5 32.5t32.5 13.5t32 -13.5t13 -32.5t-13 -33t-32 -14t-32.5 14t-13.5 33zM131 451q0 19 13.5 32.5t32.5 13.5t32 -13.5t13 -32.5q0 -20 -13 -33.5t-32 -13.5t-32.5 13.5t-13.5 33.5z" />
    <glyph glyph-name="semicolon" unicode=";" horiz-adv-x="267" 
d="M182 17q0 -73 -63 -112l-23 38q14 9 23.5 23t9.5 30q-19 2 -31.5 15.5t-12.5 30.5q0 19 13.5 33t32.5 14q24 0 37.5 -21.5t13.5 -50.5zM89 452q0 20 13 33t32 13t32 -13t13 -33q0 -19 -13 -32.5t-32 -13.5t-32 13.5t-13 32.5z" />
    <glyph glyph-name="less" unicode="&#x3c;" horiz-adv-x="611" 
d="M65 384l453 220v-64l-391 -190l391 -190v-64l-453 220v68z" />
    <glyph glyph-name="equal" unicode="=" horiz-adv-x="550" 
d="M465 460v-57h-381v57h381zM465 248v-57h-381v57h381z" />
    <glyph glyph-name="greater" unicode="&#x3e;" horiz-adv-x="612" 
d="M542 316l-454 -220v64l391 190l-391 190v64l454 -220v-68z" />
    <glyph glyph-name="question" unicode="?" horiz-adv-x="491" 
d="M167 38q0 19 14 32t33 13t31.5 -13t12.5 -32t-12.5 -32.5t-31.5 -13.5t-33 13.5t-14 32.5zM183 160v169q33 13 71.5 26.5t70.5 33.5t53.5 50t21.5 75q0 66 -42 101.5t-117 35.5q-54 0 -91.5 -20.5t-63.5 -68.5l-49 28q34 63 82.5 91.5t121.5 28.5q49 0 89.5 -14t69 -39.5
t44.5 -62.5t16 -84q0 -44 -15.5 -77t-44 -58.5t-68.5 -46t-89 -39.5v-129h-60z" />
    <glyph glyph-name="at" unicode="@" horiz-adv-x="900" 
d="M548 227q-28 -30 -68.5 -47.5t-81.5 -17.5q-33 0 -60.5 12t-48 33t-32 50t-11.5 63q0 43 17.5 82t46.5 69t67.5 48t80.5 18q33 0 63 -12t53 -34l5 31h60q-11 -59 -20 -115t-18 -104q-18 -92 54 -92q45 0 72.5 38.5t27.5 103.5q0 59 -25 113.5t-67 96t-97 66.5t-114 25
q-60 0 -116 -25t-98.5 -67.5t-68 -98t-25.5 -116.5t24.5 -117t65.5 -98t95 -67t114 -25q44 0 86.5 13.5t77.5 39.5l30 -49q-42 -30 -91.5 -45.5t-102.5 -15.5q-71 0 -135.5 29.5t-113.5 79t-78 116t-29 139.5q0 72 30 138t80 116.5t116 80t138 29.5q71 0 136.5 -29.5
t115.5 -79t79.5 -114.5t29.5 -136q0 -44 -11.5 -80t-31.5 -62t-48.5 -40.5t-62.5 -14.5q-85 0 -110 72zM554 389q3 19 -3 35.5t-18.5 28.5t-31.5 19t-42 7q-31 0 -59 -13t-49 -34.5t-33.5 -50.5t-12.5 -61q0 -46 26.5 -72.5t71.5 -26.5q35 0 66.5 17t69.5 57z" />
    <glyph glyph-name="A" unicode="A" horiz-adv-x="692" 
d="M346 630l-140 -353h280zM382 700l277 -700h-64l-87 220h-324l-87 -220h-64l277 700h72z" />
    <glyph glyph-name="B" unicode="B" horiz-adv-x="627" 
d="M148 644v-230h192q25 0 47.5 9.5t39 25.5t26 37t9.5 45t-10.5 45t-28 36t-41 23.5t-49.5 8.5h-185zM148 357v-299h175q37 0 70.5 11.5t59 31.5t40.5 48.5t15 61.5q0 32 -13.5 58.5t-36 46t-52 30.5t-62.5 11h-196zM88 1v700h244q38 0 73 -12.5t61 -34.5t41.5 -53
t15.5 -69q0 -41 -20 -78t-59 -62q59 -29 91.5 -75t32.5 -107q0 -47 -20 -85.5t-53.5 -66t-78 -42.5t-93.5 -15h-235z" />
    <glyph glyph-name="C" unicode="C" horiz-adv-x="667" 
d="M627 85q-21 -22 -47.5 -39.5t-57 -30t-63.5 -19.5t-66 -7q-70 0 -132 28.5t-108.5 78t-74 115t-27.5 139.5t27.5 139.5t74.5 114.5t109 77.5t132 28.5q66 0 128.5 -26t104.5 -70l-40 -40q-38 37 -88 57.5t-103 20.5q-59 0 -111 -23.5t-90.5 -64.5t-61 -96t-22.5 -117
q0 -63 22.5 -118.5t61.5 -96.5t91 -65t110 -24q54 0 103.5 20.5t86.5 58.5z" />
    <glyph glyph-name="D" unicode="D" horiz-adv-x="724" 
d="M145 645v-588h152q72 0 130 22.5t98.5 61.5t62 92.5t21.5 116.5q0 62 -22 116t-62.5 94t-98 62.5t-129.5 22.5h-152zM85 0v702h212q84 0 152.5 -27.5t117 -75t75.5 -112t27 -138.5t-26.5 -137.5t-75 -110.5t-117.5 -74t-153 -27h-212z" />
    <glyph glyph-name="E" unicode="E" horiz-adv-x="587" 
d="M78 0v700h462v-57h-402v-229h353v-57h-353v-300h402v-57h-462z" />
    <glyph glyph-name="F" unicode="F" horiz-adv-x="584" 
d="M77 701h463v-57h-403v-229h353v-57h-353v-358h-60v701z" />
    <glyph glyph-name="G" unicode="G" horiz-adv-x="697" 
d="M632 355v-265q-53 -49 -113 -74.5t-126 -25.5q-71 0 -134 28.5t-110 77t-74 114t-27 139.5q0 75 27 140.5t73.5 114.5t109 77.5t132.5 28.5q65 0 124.5 -23t98.5 -61l-30 -50q-40 38 -88 57.5t-102 19.5q-59 0 -111 -23.5t-90.5 -64.5t-60.5 -96t-22 -117
q0 -63 22.5 -118.5t60.5 -97t89 -65.5t108 -24q52 0 102.5 19.5t80.5 49.5v181h-170v58h230z" />
    <glyph glyph-name="H" unicode="H" horiz-adv-x="678" 
d="M534 415v286h60v-701h-60v358h-389v-358h-60v701h60v-286h389z" />
    <glyph glyph-name="I" unicode="I" horiz-adv-x="260" 
d="M160 700v-700h-60v700h60z" />
    <glyph glyph-name="J" unicode="J" horiz-adv-x="430" 
d="M356 198q0 -42 -13.5 -79.5t-39 -66t-60.5 -45.5t-79 -17q-34 0 -67.5 11.5t-58.5 36.5l18 56q20 -23 51 -34t58 -11q32 0 56 12.5t41 33t25.5 47.5t8.5 56v502h60v-502z" />
    <glyph glyph-name="K" unicode="K" horiz-adv-x="596" 
d="M565 0h-71l-249 364l-104 -107v-257h-60v700h60v-362l345 362h79l-279 -293z" />
    <glyph glyph-name="L" unicode="L" horiz-adv-x="560" 
d="M84 0v701h60v-644h365v-57h-425z" />
    <glyph glyph-name="M" unicode="M" horiz-adv-x="811" 
d="M368 315l-224 300v-615h-60v700h71l247 -331l251 331h73v-700h-60v618l-230 -303h-68z" />
    <glyph glyph-name="N" unicode="N" horiz-adv-x="750" 
d="M596 0l-453 615v-615h-60v700h72l452 -614v614h60v-700h-71z" />
    <glyph glyph-name="O" unicode="O" horiz-adv-x="784" 
d="M676 350q0 63 -22 118t-60.5 96t-90.5 65t-111 24t-110.5 -24t-90 -65t-60.5 -96t-22 -118t22.5 -118t61 -96t90 -65t110.5 -24t110.5 24t90 65t60.5 96t22 118zM48 349q0 75 27 141t74 114.5t110 77t134 28.5t134 -28t109.5 -77t73.5 -114.5t27 -140.5t-27 -140.5
t-73.5 -114.5t-109.5 -77t-134 -28t-134 28t-110 76.5t-74 114t-27 140.5z" />
    <glyph glyph-name="P" unicode="P" horiz-adv-x="631" 
d="M142 343h204q36 0 68 12t55.5 32.5t37.5 47.5t14 58q0 32 -13.5 60t-37 48.5t-55.5 32t-70 11.5h-203v-302zM82 702h263q50 0 93 -16t75 -44.5t50 -66.5t18 -82q0 -42 -18.5 -80t-50.5 -66t-75 -44.5t-91 -16.5h-204v-286h-60v702z" />
    <glyph glyph-name="Q" unicode="Q" horiz-adv-x="797" 
d="M399 653q-58 0 -109.5 -23.5t-90 -65t-61 -96.5t-22.5 -118t23 -118t62 -96.5t90 -65t108 -23.5q41 0 75.5 10.5t69.5 33.5l-105 106l43 42l109 -111q42 40 66 99.5t24 123.5q0 62 -22.5 117t-60.5 96t-89.5 65t-109.5 24zM55 350q0 74 27.5 139.5t74.5 114.5t109 77.5
t131 28.5q73 0 136 -28.5t109.5 -77t73 -114t26.5 -139.5q0 -80 -29.5 -147t-80.5 -118l45 -45l-43 -43l-49 50q-46 -32 -92 -45t-93 -13q-72 0 -135 28t-109.5 76.5t-73.5 114.5t-27 141z" />
    <glyph glyph-name="R" unicode="R" horiz-adv-x="630" 
d="M519 492q0 33 -13 60.5t-36.5 47.5t-55 31.5t-69.5 11.5h-204v-300h206q36 0 67.5 11.5t55 31.5t36.5 47.5t13 58.5zM141 286v-286h-60v700h264q50 0 92.5 -16t74 -44t49.5 -66t18 -82q0 -43 -17.5 -81t-48.5 -65.5t-73.5 -43.5t-91.5 -16h-39l253 -286h-80l-253 286h-88
z" />
    <glyph glyph-name="S" unicode="S" horiz-adv-x="574" 
d="M88 167q9 -26 27.5 -47.5t45 -37t58.5 -24t66 -8.5q39 0 72.5 11t58 31t38 47t13.5 59q0 54 -43 87t-142 55q-120 26 -178 72.5t-58 117.5q0 39 17.5 72t48 57.5t73 38t93.5 13.5q42 0 79.5 -9t67.5 -26.5t52 -41.5t33 -54l-50 -22q-16 42 -66 68t-116 26q-38 0 -70 -9
t-55 -25t-36 -38t-13 -48q0 -48 47 -82t147 -56q119 -26 174 -72.5t55 -120.5q0 -45 -19 -83t-52 -66.5t-77.5 -44.5t-95.5 -16q-42 0 -81 11t-71 31t-56.5 48.5t-37.5 62.5z" />
    <glyph glyph-name="T" unicode="T" horiz-adv-x="590" 
d="M555 643h-230v-643h-60v643h-230v57h520v-57z" />
    <glyph glyph-name="U" unicode="U" horiz-adv-x="746" 
d="M84 700h60v-452q0 -41 18 -77.5t49.5 -64t73.5 -43.5t90 -16q47 0 88.5 15.5t72.5 43t48.5 64t17.5 78.5v452h60v-452q0 -54 -22.5 -101t-61.5 -82t-91.5 -55.5t-111.5 -20.5t-112 20.5t-92.5 56t-63 82.5t-23.5 100v452z" />
    <glyph glyph-name="V" unicode="V" horiz-adv-x="684" 
d="M308 0l-275 700h63l246 -624l247 624h63l-275 -700h-69z" />
    <glyph glyph-name="W" unicode="W" horiz-adv-x="1075" 
d="M572 644l194 -560l212 616h63l-241 -700h-68l-194 561l-194 -561h-68l-242 700h63l213 -616l194 560h68z" />
    <glyph glyph-name="X" unicode="X" horiz-adv-x="606" 
d="M510 0l-207 305l-207 -305h-70l240 356l-232 344h72l197 -292l197 292h72l-233 -343l242 -357h-71z" />
    <glyph glyph-name="Y" unicode="Y" horiz-adv-x="627" 
d="M34 700h69l209 -339l212 339h70l-252 -403l1 -297h-60l-1 297z" />
    <glyph glyph-name="Z" unicode="Z" horiz-adv-x="625" 
d="M34 62l487 582h-476v56h549v-61l-487 -582h468v-57h-541v62z" />
    <glyph glyph-name="bracketleft" unicode="[" horiz-adv-x="365" 
d="M97 -87v838h188v-57h-128v-724h128v-57h-188z" />
    <glyph glyph-name="backslash" unicode="\" horiz-adv-x="402" 
d="M358 -60l-371 797h65l371 -797h-65z" />
    <glyph glyph-name="bracketright" unicode="]" horiz-adv-x="363" 
d="M261 -87h-187v57h127v724h-127v57h187v-838z" />
    <glyph glyph-name="asciicircum" unicode="^" horiz-adv-x="702" 
d="M383 697l195 -247h-67l-160 189l-159 -189h-67l195 247h63z" />
    <glyph glyph-name="underscore" unicode="_" horiz-adv-x="551" 
d="M525 -141v-58h-500v58h500z" />
    <glyph glyph-name="grave" unicode="`" horiz-adv-x="267" 
d="M58 687l67 22l61 -124h-46z" />
    <glyph glyph-name="a" unicode="a" 
d="M521 260q0 44 -16.5 82.5t-44.5 67.5t-66 45.5t-80 16.5q-43 0 -80.5 -17t-65.5 -46t-44.5 -68t-16.5 -83q0 -43 16 -81.5t44 -67.5t65.5 -45.5t80.5 -16.5t81 17t66 46t44.5 67.5t16.5 82.5zM312 530q62 0 116 -27.5t92 -78.5v96h61v-520h-61v97q-36 -52 -91.5 -80
t-117.5 -28q-55 0 -103.5 21t-84.5 58t-57 86t-21 105t21 105.5t57 86.5t85 58t104 21z" />
    <glyph glyph-name="b" unicode="b" horiz-adv-x="651" 
d="M132 261q0 -44 16.5 -82.5t44.5 -67.5t66 -46t81 -17t80.5 16.5t65.5 45.5t44 67.5t16 81.5q0 44 -16.5 83t-44.5 68t-65.5 46t-80.5 17q-42 0 -80 -16.5t-66 -45.5t-44.5 -67.5t-16.5 -82.5zM341 531q56 0 104.5 -21t84.5 -58t57 -86.5t21 -105.5t-21 -105.5t-57.5 -86
t-85 -58t-103.5 -21.5q-62 0 -116.5 27.5t-92.5 80.5v-96h-61v699h61v-275q38 52 92.5 79t116.5 27z" />
    <glyph glyph-name="c" unicode="c" horiz-adv-x="533" 
d="M462 406q-28 32 -68.5 50t-83.5 18t-81 -17t-66.5 -46.5t-45 -68t-16.5 -82.5q0 -43 16.5 -82t45 -67.5t67 -45.5t81.5 -17q44 0 83 17t68 49l40 -40q-37 -41 -87 -62.5t-105 -21.5q-56 0 -105.5 21.5t-86 58t-57.5 86t-21 104.5t21 104.5t57.5 86.5t85.5 59t106 22
q55 0 105 -22t88 -63z" />
    <glyph glyph-name="d" unicode="d" 
d="M516 261q0 44 -16.5 82.5t-44.5 67.5t-65.5 45.5t-80.5 16.5t-80.5 -17t-65.5 -46t-44.5 -68t-16.5 -83q0 -43 16 -81.5t44 -67.5t65.5 -45.5t80.5 -16.5t81 17t66 46t44.5 67.5t16.5 82.5zM307 531q62 0 116.5 -27t92.5 -79v275h61v-699h-61v96q-38 -53 -92.5 -80.5
t-116.5 -27.5q-55 0 -103.5 21.5t-84.5 58t-57 86t-21 105.5t21 105.5t57 86.5t84.5 58t103.5 21z" />
    <glyph glyph-name="e" unicode="e" horiz-adv-x="613" 
d="M515 289q-5 39 -23 72.5t-46 58t-63 38t-74 13.5q-38 0 -72 -13t-61.5 -37t-46 -57.5t-25.5 -74.5h411zM514 85q-35 -45 -88.5 -70t-116.5 -25q-56 0 -105 21t-85.5 57.5t-57.5 86t-21 105.5t21.5 105t58 85.5t86 57.5t104.5 21q60 0 110.5 -23t86.5 -63.5t55 -95
t15 -116.5h-472q4 -39 22 -72t45.5 -58t62.5 -39t74 -14q50 0 94 21t70 57z" />
    <glyph glyph-name="f" unicode="f" horiz-adv-x="350" 
d="M313 638q-16 8 -28 11.5t-29 3.5q-45 0 -64 -24t-19 -81v-28h121l-19 -57h-102v-463h-60v463h-74v57h74v30q0 161 136 161q24 0 46 -5t36 -14z" />
    <glyph glyph-name="g" unicode="g" horiz-adv-x="633" 
d="M41 268q0 54 20 101.5t54.5 83t81 56t98.5 20.5q59 0 110 -26.5t89 -75.5v92h61v-507q0 -48 -19 -88t-53 -69t-80.5 -45.5t-101.5 -16.5q-54 0 -99.5 16.5t-78.5 48.5l20 59q26 -32 66.5 -48.5t91.5 -16.5q42 0 77.5 12t61 33t40 50t14.5 64v93q-37 -49 -87 -75.5
t-108 -26.5q-53 0 -100 21t-82 57t-55.5 84.5t-20.5 103.5zM300 61q41 0 76.5 15.5t61.5 43t41 65t15 80.5q0 44 -15 81.5t-41.5 65t-62 43t-77.5 15.5t-78 -15.5t-62.5 -43t-41.5 -64.5t-15 -80t15.5 -81t42 -65.5t63 -43.5t78.5 -16z" />
    <glyph glyph-name="h" unicode="h" horiz-adv-x="628" 
d="M335 527q47 0 86.5 -18.5t68.5 -51t45.5 -77t16.5 -97.5v-282h-61v282q0 41 -11.5 74.5t-32 58t-49 38t-63.5 13.5q-39 0 -74.5 -16.5t-63 -43.5t-44 -62t-16.5 -73v-271h-60v700h60v-281q38 51 89.5 79t108.5 28z" />
    <glyph glyph-name="i" unicode="i" horiz-adv-x="227" 
d="M74 657q0 17 11 28t28 11t28 -11t11 -28t-11 -28t-28 -11t-28 11t-11 28zM143 520v-520h-60v520h60z" />
    <glyph glyph-name="j" unicode="j" horiz-adv-x="227" 
d="M143 -48q0 -78 -35 -119t-106 -41q-43 0 -77 21l18 55q11 -8 25 -13t34 -5q45 0 63.5 24.5t18.5 81.5l-1 564h60v-568zM75 658q0 16 11 27t28 11q16 0 27 -11.5t11 -26.5q0 -16 -11 -27.5t-27 -11.5q-17 0 -28 11t-11 28z" />
    <glyph glyph-name="k" unicode="k" horiz-adv-x="557" 
d="M510 520l-216 -181l230 -339h-75l-202 299l-106 -88v-210h-61v700h61v-411l276 230h93z" />
    <glyph glyph-name="l" unicode="l" horiz-adv-x="235" 
d="M148 701v-700h-60v700h60z" />
    <glyph glyph-name="m" unicode="m" horiz-adv-x="934" 
d="M661 530q43 0 78.5 -15t61 -42.5t40 -66t14.5 -84.5v-322h-60v312q0 75 -34.5 116.5t-96.5 41.5q-34 0 -64.5 -13t-54 -35.5t-37 -52.5t-13.5 -64v-305h-59v317q0 34 -10 62t-28.5 48.5t-44 31.5t-55.5 11q-33 0 -63 -13.5t-52 -37.5t-35 -55.5t-13 -67.5v-296h-59v520
h59v-78q30 42 73.5 65t94.5 23q119 0 171 -114q30 55 78.5 84.5t108.5 29.5z" />
    <glyph glyph-name="n" unicode="n" horiz-adv-x="591" 
d="M319 531q44 0 81.5 -16t64.5 -44.5t42.5 -67t15.5 -83.5v-320h-59v320q0 32 -11 59t-30.5 47t-47.5 31.5t-61 11.5q-36 0 -68 -13.5t-56.5 -37t-38.5 -55t-14 -68.5v-295h-59v521h59v-78q29 40 78.5 64t103.5 24z" />
    <glyph glyph-name="o" unicode="o" horiz-adv-x="620" 
d="M518 259q0 44 -16.5 82.5t-45 68t-66 46.5t-80.5 17q-42 0 -79.5 -17t-66 -46.5t-45.5 -68t-17 -82.5q0 -43 17 -81.5t45.5 -67t66 -45.5t79.5 -17q43 0 80.5 16.5t66 45.5t45 67.5t16.5 81.5zM42 259q0 57 21 106.5t57.5 86t85.5 58t104 21.5q56 0 105 -21.5t85.5 -58
t57.5 -86t21 -106.5q0 -56 -21 -105t-57.5 -85.5t-85.5 -57.5t-105 -21q-55 0 -104 21t-85.5 57.5t-57.5 85.5t-21 105z" />
    <glyph glyph-name="p" unicode="p" 
d="M134 260q0 -44 16.5 -82.5t44.5 -67.5t65.5 -45.5t80.5 -16.5t80.5 17t65.5 46t44.5 67.5t16.5 82.5t-16 82.5t-44 67t-65.5 45.5t-80.5 17t-81 -17t-66 -46t-44.5 -67.5t-16.5 -82.5zM342 -10q-61 0 -115.5 27t-92.5 79v-296h-60v720h60v-97q37 52 92.5 80t117.5 28
q55 0 103.5 -21t84.5 -58t57 -86.5t21 -105.5t-21 -105t-57 -86t-85 -58t-105 -21z" />
    <glyph glyph-name="q" unicode="q" 
d="M516 260q0 44 -16.5 82.5t-44.5 67.5t-66 46t-81 17t-80.5 -17t-65.5 -45.5t-44 -67t-16 -82.5t16.5 -82.5t44.5 -67.5t65.5 -46t80.5 -17q42 0 80 16.5t66 45.5t44.5 67.5t16.5 82.5zM307 -10q-55 0 -104 21t-85 58t-57 86t-21 105t21 105.5t57 86.5t84.5 58t103.5 21
q62 0 117 -28t92 -80v97h61v-720h-61v296q-38 -52 -92 -79t-116 -27z" />
    <glyph glyph-name="r" unicode="r" horiz-adv-x="373" 
d="M137 424q43 59 97.5 80t124.5 21l-21 -61q-43 0 -80 -15t-64 -41.5t-42 -63.5t-15 -81v-263h-61v520h61v-96z" />
    <glyph glyph-name="s" unicode="s" horiz-adv-x="486" 
d="M89 133q20 -38 59.5 -60.5t87.5 -22.5q29 0 54.5 8t45 21.5t30.5 32.5t11 41q0 31 -24.5 49.5t-61 31.5t-79 24t-79 26.5t-61 40t-24.5 63.5q0 31 15 57t40.5 45.5t60 30.5t73.5 11q64 0 115 -26.5t73 -74.5l-52 -28q-17 33 -52.5 51t-80.5 18q-26 0 -49.5 -6.5
t-41.5 -17.5t-29 -25.5t-11 -31.5q0 -25 24.5 -40t61 -26.5t79.5 -23t79.5 -29.5t61 -46t24.5 -72q0 -36 -16 -66t-43.5 -51.5t-64.5 -34t-80 -12.5q-67 0 -118.5 30.5t-77.5 84.5z" />
    <glyph glyph-name="t" unicode="t" horiz-adv-x="360" 
d="M327 9q-35 -19 -81 -19q-136 0 -136 160v313h-71v57h71v180h60v-180h100l18 -57h-118v-315q0 -54 19 -77t63 -23q17 0 29.5 3.5t28.5 11.5z" />
    <glyph glyph-name="u" unicode="u" horiz-adv-x="591" 
d="M276 -11q-44 0 -81.5 16.5t-64.5 45t-42.5 67t-15.5 82.5v320h60v-320q0 -32 11 -59t30.5 -47t47 -31.5t61.5 -11.5q36 0 68 13.5t56.5 37t38.5 55.5t14 68v295h60v-520h-60v78q-29 -41 -78.5 -65t-104.5 -24z" />
    <glyph glyph-name="v" unicode="v" horiz-adv-x="540" 
d="M235 0l-207 520h65l177 -443l177 443h66l-207 -520h-71z" />
    <glyph glyph-name="w" unicode="w" horiz-adv-x="851" 
d="M459 509l147 -400l150 411h64l-190 -520h-48l-155 423l-156 -423h-50l-189 520h64l150 -414l147 403h66z" />
    <glyph glyph-name="x" unicode="x" horiz-adv-x="537" 
d="M438 0l-169 231l-169 -231h-76l208 283l-174 237h76l135 -186l134 186h76l-174 -236l208 -284h-75z" />
    <glyph glyph-name="y" unicode="y" horiz-adv-x="573" 
d="M87 -134q30 -13 53 -13q25 0 41.5 13t28.5 33.5t22 46t20 51.5l-221 523h66l189 -447l192 447h66l-275 -638q-19 -45 -53 -67.5t-75 -22.5q-36 0 -72 18z" />
    <glyph glyph-name="z" unicode="z" horiz-adv-x="498" 
d="M457 456l-341 -397h341v-59h-416v63l340 398h-341v59h417v-64z" />
    <glyph glyph-name="braceleft" unicode="{" horiz-adv-x="357" 
d="M142 310q25 -32 25 -66v-202q0 -21 11 -40t30 -32.5t44.5 -21.5t54.5 -8v-55q-43 0 -79.5 12t-63.5 33t-42 50t-15 62v202q0 39 -43 39h-6v55h6q43 0 43 36v203q0 33 15 61.5t41.5 49t63 32t79.5 11.5v-56q-63 0 -101 -27t-38 -72v-202q0 -34 -25 -64z" />
    <glyph glyph-name="bar" unicode="|" horiz-adv-x="255" 
d="M157 742v-783h-58v783h58z" />
    <glyph glyph-name="braceright" unicode="}" horiz-adv-x="356" 
d="M299 283q-20 0 -35 -7.5t-15 -31.5v-202q0 -33 -15 -62t-42 -50t-63.5 -33t-78.5 -12v55q29 0 54.5 8t44.5 21.5t29.5 32.5t10.5 40v202q0 32 26 66q-26 29 -26 64v202q0 45 -38 72t-100 27v56q43 0 79.5 -11.5t62.5 -32t41 -49t15 -61.5v-203q0 -36 43 -36h7v-55z" />
    <glyph glyph-name="asciitilde" unicode="~" horiz-adv-x="571" 
d="M99 272q2 61 31.5 99.5t74.5 38.5q26 0 47.5 -14t41 -30.5t37 -30.5t36.5 -14q23 0 36.5 24t15.5 63l53 -4q-1 -29 -9.5 -54t-22 -43.5t-32.5 -29t-41 -10.5q-28 0 -50.5 14t-41 30.5t-36 30.5t-36.5 14q-23 0 -36.5 -23.5t-14.5 -64.5z" />
    <glyph glyph-name="uni00A0" unicode="&#xa0;" horiz-adv-x="266" 
 />
    <glyph glyph-name="exclamdown" unicode="&#xa1;" horiz-adv-x="217" 
d="M65 487.002q0 -17.999 12.5 -30.998t30.5 -12.999t31 12.999t13 30.998t-13 30.498q-13 12.5 -31 12.5t-30.5 -12.5q-12.5 -12.499 -12.5 -30.498zM138 -178.957l-1 554.966h-58l-2 -554.966h61z" />
    <glyph glyph-name="cent" unicode="&#xa2;" horiz-adv-x="521" 
d="M48 246q0 46 16 88t43.5 76t65 58t79.5 34v45h57v-41q51 -5 95 -27.5t76 -57.5l-39 -39q-23 29 -57.5 45t-74.5 19v-396q40 4 74 20.5t59 43.5l39 -39q-32 -35 -76 -57.5t-96 -27.5v-41h-57v45q-42 10 -79.5 33.5t-65 56.5t-43.5 74.5t-16 87.5zM109 246q0 -33 11 -63
t30 -55t45 -43.5t57 -28.5v384q-31 -11 -57.5 -30.5t-45.5 -45t-29.5 -55.5t-10.5 -63z" />
    <glyph glyph-name="sterling" unicode="&#xa3;" horiz-adv-x="615" 
d="M138 283h-66v59h66v118q0 128 58.5 189t180.5 61q66 0 111.5 -19.5t85.5 -64.5l-19 -60q-41 48 -81 67t-96 19q-175 0 -180 -162v-148h229v-59h-229v-226h375v-57h-435v283z" />
    <glyph glyph-name="currency" unicode="&#xa4;" horiz-adv-x="733" 
d="M109 249q0 44 14.5 85t41.5 77l-115 115l40 40l115 -115q36 28 77 43t84 15q44 0 85 -15t76 -43l115 115l40 -40l-115 -115q27 -36 42 -77t15 -85t-14.5 -84t-41.5 -75l114 -115l-40 -40l-114 114q-36 -27 -77 -42t-85 -15q-43 0 -84.5 15t-77.5 42l-113 -114l-41 41
l115 114q-27 35 -41.5 75t-14.5 84zM564 249q0 41 -15.5 78t-42.5 64.5t-63 44t-77 16.5q-40 0 -76 -16t-63 -44t-42.5 -65t-15.5 -78t15.5 -77.5t42.5 -63.5t63 -43t76 -16q41 0 77 16t63 43t42.5 63.5t15.5 77.5z" />
    <glyph glyph-name="yen" unicode="&#xa5;" horiz-adv-x="625" 
d="M285 275h-160v57h159l-253 368h73l211 -305l205 305h72l-246 -368h160v-57h-161v-94h161v-57h-161v-124h-60v124h-160v57h160v94z" />
    <glyph glyph-name="brokenbar" unicode="&#xa6;" horiz-adv-x="536" 
d="M297 270v-311h-57v311h57zM240 430v312h57v-312h-57z" />
    <glyph glyph-name="section" unicode="&#xa7;" horiz-adv-x="493" 
d="M40 556q0 32 16.5 60t45 49t67 33t81.5 12q58 0 106 -19.5t81 -57.5l-40 -40q-54 58 -146 58q-30 0 -57 -8t-48 -21.5t-33.5 -30.5t-12.5 -35q0 -28 26 -44.5t65.5 -28t85 -23t85 -29t65.5 -46t26 -74.5q0 -74 -85 -115q40 -20 62.5 -53t22.5 -72q0 -34 -16 -63.5
t-43.5 -51t-65.5 -34t-83 -12.5q-57 0 -104.5 21.5t-88.5 67.5l38 38q68 -68 155 -68q31 0 58 8.5t47 23t31.5 34.5t11.5 42q0 35 -26 55t-65 33.5t-84 24.5t-84 27.5t-65 42.5t-26 70q0 36 21.5 65.5t61.5 49.5q-39 17 -62.5 47t-23.5 64zM394 308q0 20 -13.5 38.5t-37 32
t-54.5 21.5t-66 8q-53 0 -87.5 -20t-34.5 -49q0 -22 15.5 -40.5t41 -31.5t58 -20t67.5 -7q49 0 80 19.5t31 48.5z" />
    <glyph glyph-name="dieresis" unicode="&#xa8;" horiz-adv-x="467" 
d="M106 638q0 17 10.5 28t27.5 11t28 -11t11 -28t-11 -28t-28 -11t-27.5 11t-10.5 28zM283 638q0 17 10.5 28t27.5 11t28 -11t11 -28t-11 -28t-28 -11t-27.5 11t-10.5 28z" />
    <glyph glyph-name="copyright" unicode="&#xa9;" horiz-adv-x="801" 
d="M103 348q0 -61 23.5 -115.5t63.5 -95t94.5 -64t115.5 -23.5q62 0 116 23.5t94.5 64t64 94.5t23.5 116t-23.5 116.5t-64 95t-94.5 64t-116 23.5q-61 0 -115.5 -23.5t-94.5 -64t-63.5 -95t-23.5 -116.5zM46 348q0 73 28 137.5t76 113t112.5 76.5t137.5 28q74 0 138.5 -28
t112.5 -76t76 -112.5t28 -138.5q0 -73 -28 -137.5t-76 -112.5t-112.5 -76t-138.5 -28q-73 0 -137.5 28t-112.5 76t-76 112.5t-28 137.5zM511 438q-22 26 -51 40.5t-60 14.5q-28 0 -53.5 -11.5t-45 -31.5t-30.5 -46.5t-11 -55.5t11 -55t30.5 -45.5t45 -31t53.5 -11.5
q61 0 110 54l40 -40q-32 -35 -71 -53.5t-81 -18.5q-41 0 -77 16t-63 43t-43 63.5t-16 78.5t16 79t43.5 64.5t64 43.5t77.5 16q42 0 80.5 -19t70.5 -54z" />
    <glyph glyph-name="ordfeminine" unicode="&#xaa;" horiz-adv-x="395" 
d="M291 560q0 24 -8 44t-22.5 34.5t-33.5 23t-42 8.5q-45 0 -74.5 -31.5t-29.5 -78.5t30 -78.5t75 -31.5q23 0 42 8.5t33 23.5t22 35t8 43zM182 706q64 0 109 -53v47h36v-279h-36v45q-20 -24 -47.5 -37.5t-59.5 -13.5q-29 0 -54.5 11.5t-44.5 31t-30 46t-11 56.5t11 56.5
t29.5 46.5t44 31.5t53.5 11.5z" />
    <glyph glyph-name="guillemotleft" unicode="&#xab;" horiz-adv-x="503" 
d="M109 256l151 -180l-45 -24l-177 204l177 204l44 -24zM307 256l150 -180l-44 -24l-177 204l176 204l45 -24z" />
    <glyph glyph-name="logicalnot" unicode="&#xac;" horiz-adv-x="566" 
d="M505 204h-60v182h-384v57h444v-239z" />
    <glyph glyph-name="registered" unicode="&#xae;" horiz-adv-x="636" 
d="M392 494q0 24 -18.5 40t-46.5 16h-81v-112h81q27 0 46 16.5t19 39.5zM264 396h-18v-122h-43v317h124q46 0 77 -28t31 -70q0 -21 -8 -38.5t-22.5 -30.5t-33.5 -20.5t-42 -7.5h-4l108 -122h-60zM79 433q0 -49 19 -93t51.5 -76.5t76 -51.5t92.5 -19t92 19t75.5 51.5
t51.5 76.5t19 93t-19 92.5t-51.5 76t-75.5 51.5t-92 19t-92.5 -19t-76 -51.5t-51.5 -76t-19 -92.5zM41 433q0 57 22 107.5t59.5 88t88 59.5t107.5 22t107.5 -22t88 -59.5t59.5 -88t22 -107.5t-22 -108t-59.5 -88.5t-88 -59.5t-107.5 -22t-107.5 22t-88 59.5t-59.5 88.5
t-22 108z" />
    <glyph glyph-name="macron" unicode="&#xaf;" horiz-adv-x="494" 
d="M374 652v-49h-254v49h254z" />
    <glyph glyph-name="degree" unicode="&#xb0;" horiz-adv-x="305" 
d="M43 580q0 23 9 43t24 35t35 23.5t42 8.5q23 0 43 -8.5t35 -23.5t23.5 -35t8.5 -43q0 -22 -8.5 -42t-23.5 -35t-35 -24t-43 -9q-22 0 -42 9t-35 24t-24 35t-9 42zM88 580q0 -27 19 -46t46 -19q26 0 45 19t19 46t-19 46t-45 19q-27 0 -46 -19t-19 -46z" />
    <glyph glyph-name="plusminus" unicode="&#xb1;" horiz-adv-x="510" 
d="M420 432h-141v-142h-48v142h-142v48h142v142h48v-142h141v-48zM420 217v-48h-331v48h331z" />
    <glyph glyph-name="twosuperior" unicode="&#xb2;" horiz-adv-x="281" 
d="M48 454l125 104q12 11 22 25t10 30q0 28 -20 43.5t-46 15.5q-23 0 -40.5 -12t-25.5 -35l-31 17q15 32 41 49t57 17q20 0 38.5 -7t32.5 -19.5t22.5 -29.5t8.5 -38q0 -26 -11.5 -44.5t-31.5 -34.5l-95 -81h136v-36h-192v36z" />
    <glyph glyph-name="threesuperior" unicode="&#xb3;" horiz-adv-x="278" 
d="M239 669l-66 -70q31 -8 50.5 -32.5t19.5 -56.5q0 -41 -29.5 -69t-72.5 -28q-33 0 -60 15.5t-41 43.5l30 17q22 -40 69 -40q29 0 49 17t20 43t-20.5 44t-49.5 18h-14l-6 22l70 73h-141v34h192v-31z" />
    <glyph glyph-name="acute" unicode="&#xb4;" horiz-adv-x="254" 
d="M93 585l61 124l68 -22l-83 -102h-46z" />
    <glyph glyph-name="mu" unicode="&#xb5;" horiz-adv-x="603" 
d="M461 74q-29 -41 -77 -63t-96 -22q-44 0 -81 16.5t-63 44.5v-260h-61v709h61v-319q2 -26 13 -50t29.5 -42t44.5 -28.5t57 -10.5q30 0 60.5 11t55.5 32t41 52.5t16 72.5v282h60v-499h-60v74z" />
    <glyph glyph-name="paragraph" unicode="&#xb6;" horiz-adv-x="563" 
d="M44 529q0 33 13 64t35 55t51 38t61 14h301v-751h-61v694h-146v-694h-61v411h-33q-32 0 -61 14t-51 37.5t-35 54t-13 63.5z" />
    <glyph glyph-name="periodcentered" unicode="&#xb7;" horiz-adv-x="254" 
d="M82 249q0 18 13.5 31.5t32.5 13.5q18 0 31.5 -13.5t13.5 -31.5q0 -19 -13.5 -32.5t-31.5 -13.5q-19 0 -32.5 13.5t-13.5 32.5z" />
    <glyph glyph-name="cedilla" unicode="&#xb8;" horiz-adv-x="223" 
d="M147 -97q0 13 -9 20t-22 7q-16 0 -30 -11l-16 17l24 75h43l-17 -48q30 0 52 -14t22 -48q0 -33 -26 -55t-63 -22q-44 0 -78 32l14 41q26 -29 60 -29q20 0 33 10t13 25z" />
    <glyph glyph-name="onesuperior" unicode="&#xb9;" horiz-adv-x="198" 
d="M141 700v-281h-36v234l-48 -40l-11 36l61 51h34z" />
    <glyph glyph-name="ordmasculine" unicode="&#xba;" horiz-adv-x="385" 
d="M302 560q0 23 -8.5 43.5t-23.5 35.5t-34.5 24t-42.5 9q-22 0 -42 -9t-35 -24t-23.5 -35.5t-8.5 -43.5q0 -22 8.5 -42t23.5 -35t35 -24t42 -9q23 0 42.5 8.5t34.5 23.5t23.5 35t8.5 43zM48 560q0 30 11.5 56.5t31.5 46.5t46 31.5t56 11.5t56.5 -11.5t46 -31.5t31 -46.5
t11.5 -56.5t-11.5 -56t-31 -45.5t-46 -31t-56.5 -11.5t-56.5 11.5t-46 31t-31 45.5t-11.5 56z" />
    <glyph glyph-name="guillemotright" unicode="&#xbb;" horiz-adv-x="503" 
d="M41 436l45 24l176 -204l-176 -204l-45 24l151 180zM239 436l45 24l176 -204l-176 -204l-45 24l151 180z" />
    <glyph glyph-name="onehalf" unicode="&#xbd;" horiz-adv-x="790" 
d="M176 700v-387h-46v328l-68 -56l-15 45l84 70h45zM487 48l171 143q17 14 31.5 33.5t14.5 41.5q0 19 -8 34.5t-20.5 26t-29.5 16t-35 5.5q-31 0 -56 -16.5t-36 -48.5l-39 21q19 44 54.5 67t77.5 23q27 0 52.5 -9.5t44.5 -26t30.5 -39.5t11.5 -51q0 -35 -17 -61t-43 -47
l-134 -114h192v-45h-262v47zM581 701l-405 -700h-53l404 700h54z" />
    <glyph glyph-name="threequarters" unicode="&#xbe;" horiz-adv-x="782" 
d="M314 659l-93 -98q44 -10 71.5 -43.5t27.5 -78.5q0 -27 -11 -51t-30 -42t-44.5 -28.5t-55.5 -10.5q-44 0 -83 22.5t-56 58.5l41 22q12 -26 37.5 -41.5t57.5 -15.5q42 0 70.5 25t28.5 61q0 18 -7.5 33.5t-21 27.5t-31.5 18.5t-39 6.5h-20l-7 28l100 103h-198v44h263v-41z
M497 122h148v192zM438 119l205 268h48v-265h54l-15 -44h-39v-78h-46v78h-207v41zM657 701l-404 -701h-53l404 701h53z" />
    <glyph glyph-name="questiondown" unicode="&#xbf;" horiz-adv-x="500" 
d="M338.01 464.002q0 -18.998 -13.999 -31.998q-13.999 -12.999 -32.998 -12.999q-18.998 0 -31.498 12.999q-12.499 13 -12.499 31.998q0 18.999 12.499 32.498q12.5 13.5 31.498 13.5q18.999 0 32.998 -13.5q13.999 -13.499 13.999 -32.498zM322.011 342.01v-168.989
q-32.9971 -13 -71.4951 -26.499t-70.4961 -33.498q-31.998 -19.998 -53.4961 -49.9971q-21.499 -29.998 -21.499 -74.9951q0 -65.9961 41.9971 -101.494q41.998 -35.4971 116.993 -35.4971q53.9971 0 91.4941 20.498q37.498 20.499 63.4961 68.4961l48.9971 -27.998
q-33.998 -62.9961 -82.4951 -91.4941q-48.4971 -28.499 -121.492 -28.499q-48.9971 0 -89.4941 14q-40.498 13.999 -68.9961 39.4971t-44.4971 62.4961t-15.999 83.9951q0 43.9971 15.499 76.9951t43.9971 58.4961q28.498 25.499 68.4961 45.998
q39.9971 20.498 88.9941 39.4971v128.992h59.9961z" />
    <glyph glyph-name="Agrave" unicode="&#xc0;" horiz-adv-x="671" 
d="M336 630l-140 -353h280zM372 700l277 -700h-64l-87 220h-324l-87 -220h-64l277 700h72zM229 875l67 22l61 -124h-46z" />
    <glyph glyph-name="Aacute" unicode="&#xc1;" horiz-adv-x="678" 
d="M341 630l-140 -353h280zM377 700l277 -700h-64l-87 220h-324l-87 -220h-64l277 700h72zM327 773l61 124l68 -22l-83 -102h-46z" />
    <glyph glyph-name="Acircumflex" unicode="&#xc2;" horiz-adv-x="692" 
d="M346 630l-140 -353h280zM382 700l277 -700h-64l-87 220h-324l-87 -220h-64l277 700h72zM314 877h63l113 -130h-54l-90 86l-90 -86h-55z" />
    <glyph glyph-name="Atilde" unicode="&#xc3;" horiz-adv-x="672" 
d="M336 630l-140 -353h280zM372 700l277 -700h-64l-87 220h-324l-87 -220h-64l277 700h72zM184 802q2 49 25.5 81t60.5 32q22 0 40 -11.5t34 -25.5t30.5 -25.5t29.5 -11.5q18 0 28.5 19t12.5 53l42 -3q-2 -50 -25.5 -81.5t-59.5 -31.5q-22 0 -40 11.5t-33.5 25.5t-29.5 25.5
t-29 11.5q-19 0 -30.5 -20.5t-13.5 -52.5z" />
    <glyph glyph-name="Adieresis" unicode="&#xc4;" horiz-adv-x="692" 
d="M346 630l-140 -353h280zM382 700l277 -700h-64l-87 220h-324l-87 -220h-64l277 700h72zM219 818q0 17 10.5 28t27.5 11t28 -11t11 -28t-11 -28t-28 -11t-27.5 11t-10.5 28zM396 818q0 17 10.5 28t27.5 11t28 -11t11 -28t-11 -28t-28 -11t-27.5 11t-10.5 28z" />
    <glyph glyph-name="Aring" unicode="&#xc5;" horiz-adv-x="684" 
d="M342 630l-140 -353h280zM378 700l277 -700h-64l-87 220h-324l-87 -220h-64l277 700h72zM254 834q0 18 7 34t19 28t28 19t34 7t34.5 -7t28.5 -19t19 -28t7 -34q-1 -37 -26.5 -63t-62.5 -26q-18 0 -34 7t-28 19t-19 28.5t-7 34.5zM294 834q0 -20 14 -34.5t34 -14.5t34 14.5
t14 34.5t-14 34.5t-34 14.5t-34 -14.5t-14 -34.5z" />
    <glyph glyph-name="AE" unicode="&#xc6;" horiz-adv-x="947" 
d="M471 640l-201 -347h201v347zM909 644h-379v-230h327v-57h-327v-300h379v-57h-438v236h-234l-136 -236h-68l404 701h472v-57z" />
    <glyph glyph-name="Ccedilla" unicode="&#xc7;" horiz-adv-x="667" 
d="M396 46q54 0 103.5 20.5t87.5 58.5l41 -41q-38 -40 -94.5 -65t-118.5 -30l-9 -26q30 0 51.5 -14t21.5 -48q0 -33 -25.5 -55t-62.5 -22q-44 0 -78 32l13 41q26 -29 61 -29q20 0 32.5 10t12.5 24q0 13 -9.5 20t-22.5 7q-16 0 -29 -10l-16 17l17 53q-66 4 -124.5 34
t-102 78.5t-69 112.5t-25.5 136q0 74 27.5 139t74.5 114.5t109 78t132 28.5q67 0 129 -26t104 -70l-40 -41q-38 38 -88 58.5t-103 20.5q-59 0 -111 -23.5t-90.5 -64.5t-61 -96t-22.5 -118t22.5 -118t61.5 -96.5t91 -65.5t110 -24z" />
    <glyph glyph-name="Egrave" unicode="&#xc8;" horiz-adv-x="592" 
d="M78 0v700h462v-57h-402v-229h353v-57h-353v-300h402v-57h-462zM217 875l67 22l61 -124h-46z" />
    <glyph glyph-name="Eacute" unicode="&#xc9;" horiz-adv-x="592" 
d="M78 0v700h462v-57h-402v-229h353v-57h-353v-300h402v-57h-462zM280 773l61 124l68 -22l-83 -102h-46z" />
    <glyph glyph-name="Ecircumflex" unicode="&#xca;" horiz-adv-x="591" 
d="M77 0v700h462v-57h-402v-229h353v-57h-353v-300h402v-57h-462zM275 904h63l113 -130h-54l-90 86l-90 -86h-55z" />
    <glyph glyph-name="Edieresis" unicode="&#xcb;" horiz-adv-x="592" 
d="M78 0v700h462v-57h-402v-229h353v-57h-353v-300h402v-57h-462zM177 805q0 17 10.5 28t27.5 11t28 -11t11 -28t-11 -28t-28 -11t-27.5 11t-10.5 28zM354 805q0 17 10.5 28t27.5 11t28 -11t11 -28t-11 -28t-28 -11t-27.5 11t-10.5 28z" />
    <glyph glyph-name="Igrave" unicode="&#xcc;" horiz-adv-x="260" 
d="M160 700v-700h-60v700h60zM26 868l67 22l61 -124h-46z" />
    <glyph glyph-name="Iacute" unicode="&#xcd;" horiz-adv-x="260" 
d="M160 700v-700h-60v700h60zM118 760l61 124l68 -22l-83 -102h-46z" />
    <glyph glyph-name="Icircumflex" unicode="&#xce;" horiz-adv-x="260" 
d="M160 700v-700h-60v700h60zM98 897h63l113 -130h-54l-90 86l-90 -86h-55z" />
    <glyph glyph-name="Idieresis" unicode="&#xcf;" horiz-adv-x="260" 
d="M160 700v-700h-60v700h60zM2 798q0 17 10.5 28t27.5 11t28 -11t11 -28t-11 -28t-28 -11t-27.5 11t-10.5 28zM179 798q0 17 10.5 28t27.5 11t28 -11t11 -28t-11 -28t-28 -11t-27.5 11t-10.5 28z" />
    <glyph glyph-name="Eth" unicode="&#xd0;" horiz-adv-x="730" 
d="M673 349q0 -73 -26.5 -136.5t-75 -111t-116.5 -74.5t-152 -27h-212v272h-50v58h50v372h212q83 0 151.5 -27.5t117 -75.5t75 -112.5t26.5 -137.5zM613 350q0 62 -22 116t-62.5 93.5t-97.5 62.5t-128 23h-152v-315h159v-58h-159v-215h152q71 0 128.5 22.5t98 62t62 93
t21.5 115.5z" />
    <glyph glyph-name="Ntilde" unicode="&#xd1;" horiz-adv-x="757" 
d="M596 0l-453 615v-615h-60v700h72l452 -614v614h60v-700h-71zM236 802q2 49 25.5 81t60.5 32q22 0 40 -11.5t34 -25.5t30.5 -25.5t29.5 -11.5q18 0 28.5 19t12.5 53l42 -3q-2 -50 -25.5 -81.5t-59.5 -31.5q-22 0 -40 11.5t-33.5 25.5t-29.5 25.5t-29 11.5
q-19 0 -30.5 -20.5t-13.5 -52.5z" />
    <glyph glyph-name="Ograve" unicode="&#xd2;" horiz-adv-x="793" 
d="M682 350q0 63 -22 118t-60.5 96t-90.5 65t-111 24t-110.5 -24t-90 -65t-60.5 -96t-22 -118t22.5 -118t61 -96t90 -65t110.5 -24t110.5 24t90 65t60.5 96t22 118zM54 349q0 75 27 141t74 114.5t110 77t134 28.5t134 -28t109.5 -77t73.5 -114.5t27 -140.5t-27 -140.5
t-73.5 -114.5t-109.5 -77t-134 -28t-134 28t-110 76.5t-74 114t-27 140.5zM292 887l67 22l61 -124h-46z" />
    <glyph glyph-name="Oacute" unicode="&#xd3;" horiz-adv-x="784" 
d="M676 350q0 63 -22 118t-60.5 96t-90.5 65t-111 24t-110.5 -24t-90 -65t-60.5 -96t-22 -118t22.5 -118t61 -96t90 -65t110.5 -24t110.5 24t90 65t60.5 96t22 118zM48 349q0 75 27 141t74 114.5t110 77t134 28.5t134 -28t109.5 -77t73.5 -114.5t27 -140.5t-27 -140.5
t-73.5 -114.5t-109.5 -77t-134 -28t-134 28t-110 76.5t-74 114t-27 140.5zM356 765l61 124l68 -22l-83 -102h-46z" />
    <glyph glyph-name="Ocircumflex" unicode="&#xd4;" horiz-adv-x="784" 
d="M676 350q0 63 -22 118t-60.5 96t-90.5 65t-111 24t-110.5 -24t-90 -65t-60.5 -96t-22 -118t22.5 -118t61 -96t90 -65t110.5 -24t110.5 24t90 65t60.5 96t22 118zM48 349q0 75 27 141t74 114.5t110 77t134 28.5t134 -28t109.5 -77t73.5 -114.5t27 -140.5t-27 -140.5
t-73.5 -114.5t-109.5 -77t-134 -28t-134 28t-110 76.5t-74 114t-27 140.5zM360 903h63l113 -130h-54l-90 86l-90 -86h-55z" />
    <glyph glyph-name="Otilde" unicode="&#xd5;" horiz-adv-x="781" 
d="M674 350q0 63 -22 118t-60.5 96t-90.5 65t-111 24t-110.5 -24t-90 -65t-60.5 -96t-22 -118t22.5 -118t61 -96t90 -65t110.5 -24t110.5 24t90 65t60.5 96t22 118zM46 349q0 75 27 141t74 114.5t110 77t134 28.5t134 -28t109.5 -77t73.5 -114.5t27 -140.5t-27 -140.5
t-73.5 -114.5t-109.5 -77t-134 -28t-134 28t-110 76.5t-74 114t-27 140.5zM239 802q2 49 25.5 81t60.5 32q22 0 40 -11.5t34 -25.5t30.5 -25.5t29.5 -11.5q18 0 28.5 19t12.5 53l42 -3q-2 -50 -25.5 -81.5t-59.5 -31.5q-22 0 -40 11.5t-33.5 25.5t-29.5 25.5t-29 11.5
q-19 0 -30.5 -20.5t-13.5 -52.5z" />
    <glyph glyph-name="Odieresis" unicode="&#xd6;" horiz-adv-x="784" 
d="M676 350q0 63 -22 118t-60.5 96t-90.5 65t-111 24t-110.5 -24t-90 -65t-60.5 -96t-22 -118t22.5 -118t61 -96t90 -65t110.5 -24t110.5 24t90 65t60.5 96t22 118zM48 349q0 75 27 141t74 114.5t110 77t134 28.5t134 -28t109.5 -77t73.5 -114.5t27 -140.5t-27 -140.5
t-73.5 -114.5t-109.5 -77t-134 -28t-134 28t-110 76.5t-74 114t-27 140.5zM264 805q0 17 10.5 28t27.5 11t28 -11t11 -28t-11 -28t-28 -11t-27.5 11t-10.5 28zM441 805q0 17 10.5 28t27.5 11t28 -11t11 -28t-11 -28t-28 -11t-27.5 11t-10.5 28z" />
    <glyph glyph-name="multiply" unicode="&#xd7;" horiz-adv-x="558" 
d="M134 538l143 -143l143 142l43 -42l-143 -143l146 -146l-43 -43l-146 146l-142 -142l-42 43l142 142l-144 143z" />
    <glyph glyph-name="Oslash" unicode="&#xd8;" horiz-adv-x="787" 
d="M224 36q-39 23 -71 56t-55 73t-35.5 86.5t-12.5 97.5q0 75 27 141t74 114.5t109.5 77t134.5 28.5q60 0 118 -22l22 49h65l-34 -74q39 -23 70.5 -56t54 -73.5t35 -87t12.5 -96.5q0 -75 -27 -140.5t-73.5 -114.5t-109 -77t-133.5 -28q-32 0 -61 5.5t-57 16.5l-23 -49h-64z
M110 350q0 -83 38 -151t100 -108l242 544q-46 18 -96 18q-59 0 -110.5 -24t-90 -65t-61 -96t-22.5 -118zM395 47q59 0 110 24t89.5 65t60.5 96t22 118q0 82 -37 150t-98 108l-242 -544q46 -17 95 -17z" />
    <glyph glyph-name="Ugrave" unicode="&#xd9;" horiz-adv-x="746" 
d="M84 700h60v-452q0 -41 18 -77.5t49.5 -64t73.5 -43.5t90 -16q47 0 88.5 15.5t72.5 43t48.5 64t17.5 78.5v452h60v-452q0 -54 -22.5 -101t-61.5 -82t-91.5 -55.5t-111.5 -20.5t-112 20.5t-92.5 56t-63 82.5t-23.5 100v452zM271 887l67 22l61 -124h-46z" />
    <glyph glyph-name="Uacute" unicode="&#xda;" horiz-adv-x="746" 
d="M84 700h60v-452q0 -41 18 -77.5t49.5 -64t73.5 -43.5t90 -16q47 0 88.5 15.5t72.5 43t48.5 64t17.5 78.5v452h60v-452q0 -54 -22.5 -101t-61.5 -82t-91.5 -55.5t-111.5 -20.5t-112 20.5t-92.5 56t-63 82.5t-23.5 100v452zM360 785l61 124l68 -22l-83 -102h-46z" />
    <glyph glyph-name="Ucircumflex" unicode="&#xdb;" horiz-adv-x="746" 
d="M84 700h60v-452q0 -41 18 -77.5t49.5 -64t73.5 -43.5t90 -16q47 0 88.5 15.5t72.5 43t48.5 64t17.5 78.5v452h60v-452q0 -54 -22.5 -101t-61.5 -82t-91.5 -55.5t-111.5 -20.5t-112 20.5t-92.5 56t-63 82.5t-23.5 100v452zM341 897h63l113 -130h-54l-90 86l-90 -86h-55z
" />
    <glyph glyph-name="Udieresis" unicode="&#xdc;" horiz-adv-x="746" 
d="M84 700h60v-452q0 -41 18 -77.5t49.5 -64t73.5 -43.5t90 -16q47 0 88.5 15.5t72.5 43t48.5 64t17.5 78.5v452h60v-452q0 -54 -22.5 -101t-61.5 -82t-91.5 -55.5t-111.5 -20.5t-112 20.5t-92.5 56t-63 82.5t-23.5 100v452zM245 805q0 17 10.5 28t27.5 11t28 -11t11 -28
t-11 -28t-28 -11t-27.5 11t-10.5 28zM422 805q0 17 10.5 28t27.5 11t28 -11t11 -28t-11 -28t-28 -11t-27.5 11t-10.5 28z" />
    <glyph glyph-name="Yacute" unicode="&#xdd;" horiz-adv-x="627" 
d="M34 700h69l209 -339l212 339h70l-252 -403l1 -297h-60l-1 297zM302 785l61 124l68 -22l-83 -102h-46z" />
    <glyph glyph-name="Thorn" unicode="&#xde;" horiz-adv-x="598" 
d="M553 348q0 -49 -20 -89t-55 -68t-82 -43t-101 -15h-155v-133h-60v700h60v-133h153q53 0 100.5 -15t83 -43.5t56 -69t20.5 -91.5zM493 349q0 38 -16 68t-43 50.5t-63.5 31.5t-77.5 11h-153v-320h155q41 0 77 11t63 31t42.5 50t15.5 67z" />
    <glyph glyph-name="germandbls" unicode="&#xdf;" horiz-adv-x="573" 
d="M432 524q0 29 -11.5 54t-31.5 43t-47 28t-59 10q-66 0 -104 -36t-38 -96v-527h-61v529q0 41 15 75t41.5 59t62.5 39t79 14q46 0 85 -14t67 -39.5t43.5 -61t15.5 -78.5q0 -48 -26 -87t-72 -64q64 -29 97 -73t33 -104q0 -43 -18.5 -78.5t-50.5 -61.5t-76.5 -40.5
t-97.5 -14.5h-42v57h42q40 1 73.5 10.5t58 27t38 42.5t13.5 57q0 31 -13.5 57.5t-38 45.5t-57.5 30t-72 11h-48v57h49q32 0 60 10.5t48 28t31.5 41t11.5 49.5z" />
    <glyph glyph-name="agrave" unicode="&#xe0;" 
d="M521 260q0 44 -16.5 82.5t-44.5 67.5t-66 45.5t-80 16.5q-43 0 -80.5 -17t-65.5 -46t-44.5 -68t-16.5 -83q0 -43 16 -81.5t44 -67.5t65.5 -45.5t80.5 -16.5t81 17t66 46t44.5 67.5t16.5 82.5zM312 530q62 0 116 -27.5t92 -78.5v96h61v-520h-61v97q-36 -52 -91.5 -80
t-117.5 -28q-55 0 -103.5 21t-84.5 58t-57 86t-21 105t21 105.5t57 86.5t85 58t104 21zM235 687l67 22l61 -124h-46z" />
    <glyph glyph-name="aacute" unicode="&#xe1;" 
d="M521 260q0 44 -16.5 82.5t-44.5 67.5t-66 45.5t-80 16.5q-43 0 -80.5 -17t-65.5 -46t-44.5 -68t-16.5 -83q0 -43 16 -81.5t44 -67.5t65.5 -45.5t80.5 -16.5t81 17t66 46t44.5 67.5t16.5 82.5zM312 530q62 0 116 -27.5t92 -78.5v96h61v-520h-61v97q-36 -52 -91.5 -80
t-117.5 -28q-55 0 -103.5 21t-84.5 58t-57 86t-21 105t21 105.5t57 86.5t85 58t104 21zM286 585l61 124l68 -22l-83 -102h-46z" />
    <glyph glyph-name="acircumflex" unicode="&#xe2;" 
d="M521 260q0 44 -16.5 82.5t-44.5 67.5t-66 45.5t-80 16.5q-43 0 -80.5 -17t-65.5 -46t-44.5 -68t-16.5 -83q0 -43 16 -81.5t44 -67.5t65.5 -45.5t80.5 -16.5t81 17t66 46t44.5 67.5t16.5 82.5zM312 530q62 0 116 -27.5t92 -78.5v96h61v-520h-61v97q-36 -52 -91.5 -80
t-117.5 -28q-55 0 -103.5 21t-84.5 58t-57 86t-21 105t21 105.5t57 86.5t85 58t104 21zM281 697h63l113 -130h-54l-90 86l-90 -86h-55z" />
    <glyph glyph-name="atilde" unicode="&#xe3;" 
d="M521 260q0 44 -16.5 82.5t-44.5 67.5t-66 45.5t-80 16.5q-43 0 -80.5 -17t-65.5 -46t-44.5 -68t-16.5 -83q0 -43 16 -81.5t44 -67.5t65.5 -45.5t80.5 -16.5t81 17t66 46t44.5 67.5t16.5 82.5zM312 530q62 0 116 -27.5t92 -78.5v96h61v-520h-61v97q-36 -52 -91.5 -80
t-117.5 -28q-55 0 -103.5 21t-84.5 58t-57 86t-21 105t21 105.5t57 86.5t85 58t104 21zM161 602q2 49 25.5 81t60.5 32q22 0 40 -11.5t34 -25.5t30.5 -25.5t29.5 -11.5q18 0 28.5 19t12.5 53l42 -3q-2 -50 -25.5 -81.5t-59.5 -31.5q-22 0 -40 11.5t-33.5 25.5t-29.5 25.5
t-29 11.5q-19 0 -30.5 -20.5t-13.5 -52.5z" />
    <glyph glyph-name="adieresis" unicode="&#xe4;" 
d="M521 260q0 44 -16.5 82.5t-44.5 67.5t-66 45.5t-80 16.5q-43 0 -80.5 -17t-65.5 -46t-44.5 -68t-16.5 -83q0 -43 16 -81.5t44 -67.5t65.5 -45.5t80.5 -16.5t81 17t66 46t44.5 67.5t16.5 82.5zM312 530q62 0 116 -27.5t92 -78.5v96h61v-520h-61v97q-36 -52 -91.5 -80
t-117.5 -28q-55 0 -103.5 21t-84.5 58t-57 86t-21 105t21 105.5t57 86.5t85 58t104 21zM185 637q0 17 10.5 28t27.5 11t28 -11t11 -28t-11 -28t-28 -11t-27.5 11t-10.5 28zM362 637q0 17 10.5 28t27.5 11t28 -11t11 -28t-11 -28t-28 -11t-27.5 11t-10.5 28z" />
    <glyph glyph-name="aring" unicode="&#xe5;" 
d="M521 260q0 44 -16.5 82.5t-44.5 67.5t-66 45.5t-80 16.5q-43 0 -80.5 -17t-65.5 -46t-44.5 -68t-16.5 -83q0 -43 16 -81.5t44 -67.5t65.5 -45.5t80.5 -16.5t81 17t66 46t44.5 67.5t16.5 82.5zM312 530q62 0 116 -27.5t92 -78.5v96h61v-520h-61v97q-36 -52 -91.5 -80
t-117.5 -28q-55 0 -103.5 21t-84.5 58t-57 86t-21 105t21 105.5t57 86.5t85 58t104 21zM224 658q0 18 7 34t19 28t28 19t34 7t34.5 -7t28.5 -19t19 -28t7 -34q-1 -37 -26.5 -63t-62.5 -26q-18 0 -34 7t-28 19t-19 28.5t-7 34.5zM264 658q0 -20 14 -34.5t34 -14.5t34 14.5
t14 34.5t-14 34.5t-34 14.5t-34 -14.5t-14 -34.5z" />
    <glyph glyph-name="ae" unicode="&#xe6;" horiz-adv-x="1100" 
d="M46 259q0 56 21 105.5t57.5 86.5t85.5 58.5t104 21.5q62 0 116 -27t92 -79v95h60v-94q36 48 90.5 76t118.5 28q60 0 110.5 -23.5t87 -64t55.5 -95t15 -116.5h-472q4 -39 22 -72.5t45.5 -58t62.5 -38.5t74 -14q50 0 93.5 20.5t70.5 57.5l41 -41q-35 -45 -89 -70t-116 -25
q-64 0 -119 28t-90 75v-93h-60v96q-38 -52 -92.5 -79.5t-117.5 -27.5q-55 0 -103.5 21t-84.5 58t-57 86t-21 105zM314 47q43 0 81 17t66 46t44.5 67.5t16.5 82.5t-16.5 82.5t-44.5 67.5t-66 46t-80 17t-80 -17t-66 -46.5t-44.5 -68.5t-16.5 -83q0 -43 16 -81.5t44 -67.5
t65.5 -45.5t80.5 -16.5zM791 471q-38 0 -72.5 -13t-61.5 -37t-46 -57.5t-26 -74.5h412q-5 39 -23 72.5t-46 58t-63 38t-74 13.5z" />
    <glyph glyph-name="ccedilla" unicode="&#xe7;" horiz-adv-x="543" 
d="M315 532q56 0 106 -22t87 -63l-41 -41q-27 32 -67.5 50t-83.5 18t-81.5 -17t-67 -46.5t-45 -68t-16.5 -82.5q0 -43 17 -82t45.5 -67.5t67 -45.5t81.5 -17q44 0 83 17.5t68 49.5l40 -40q-32 -36 -75.5 -57t-91.5 -26l-10 -29q30 0 51.5 -13.5t21.5 -47.5t-25.5 -56
t-62.5 -22q-44 0 -78 32l13 42q13 -14 29 -21.5t32 -7.5q20 0 33 9.5t13 24.5q0 13 -9.5 20t-22.5 7q-16 0 -30 -11l-15 18l18 54q-53 3 -99.5 25.5t-80.5 59t-53.5 84t-19.5 100.5q0 55 21 104.5t57.5 86.5t85.5 59t105 22z" />
    <glyph glyph-name="egrave" unicode="&#xe8;" horiz-adv-x="613" 
d="M515 289q-5 39 -23 72.5t-46 58t-63 38t-74 13.5q-38 0 -72 -13t-61.5 -37t-46 -57.5t-25.5 -74.5h411zM514 85q-35 -45 -88.5 -70t-116.5 -25q-56 0 -105 21t-85.5 57.5t-57.5 86t-21 105.5t21.5 105t58 85.5t86 57.5t104.5 21q60 0 110.5 -23t86.5 -63.5t55 -95
t15 -116.5h-472q4 -39 22 -72t45.5 -58t62.5 -39t74 -14q50 0 94 21t70 57zM209 687l67 22l61 -124h-46z" />
    <glyph glyph-name="eacute" unicode="&#xe9;" horiz-adv-x="613" 
d="M515 289q-5 39 -23 72.5t-46 58t-63 38t-74 13.5q-38 0 -72 -13t-61.5 -37t-46 -57.5t-25.5 -74.5h411zM514 85q-35 -45 -88.5 -70t-116.5 -25q-56 0 -105 21t-85.5 57.5t-57.5 86t-21 105.5t21.5 105t58 85.5t86 57.5t104.5 21q60 0 110.5 -23t86.5 -63.5t55 -95
t15 -116.5h-472q4 -39 22 -72t45.5 -58t62.5 -39t74 -14q50 0 94 21t70 57zM286 585l61 124l68 -22l-83 -102h-46z" />
    <glyph glyph-name="ecircumflex" unicode="&#xea;" horiz-adv-x="613" 
d="M515 289q-5 39 -23 72.5t-46 58t-63 38t-74 13.5q-38 0 -72 -13t-61.5 -37t-46 -57.5t-25.5 -74.5h411zM514 85q-35 -45 -88.5 -70t-116.5 -25q-56 0 -105 21t-85.5 57.5t-57.5 86t-21 105.5t21.5 105t58 85.5t86 57.5t104.5 21q60 0 110.5 -23t86.5 -63.5t55 -95
t15 -116.5h-472q4 -39 22 -72t45.5 -58t62.5 -39t74 -14q50 0 94 21t70 57zM275 697h63l113 -130h-54l-90 86l-90 -86h-55z" />
    <glyph glyph-name="edieresis" unicode="&#xeb;" horiz-adv-x="613" 
d="M515 289q-5 39 -23 72.5t-46 58t-63 38t-74 13.5q-38 0 -72 -13t-61.5 -37t-46 -57.5t-25.5 -74.5h411zM514 85q-35 -45 -88.5 -70t-116.5 -25q-56 0 -105 21t-85.5 57.5t-57.5 86t-21 105.5t21.5 105t58 85.5t86 57.5t104.5 21q60 0 110.5 -23t86.5 -63.5t55 -95
t15 -116.5h-472q4 -39 22 -72t45.5 -58t62.5 -39t74 -14q50 0 94 21t70 57zM179 638q0 17 10.5 28t27.5 11t28 -11t11 -28t-11 -28t-28 -11t-27.5 11t-10.5 28zM356 638q0 17 10.5 28t27.5 11t28 -11t11 -28t-11 -28t-28 -11t-27.5 11t-10.5 28z" />
    <glyph glyph-name="igrave" unicode="&#xec;" horiz-adv-x="243" 
d="M151 520v-520h-60v520h60zM17 687l67 22l61 -124h-46z" />
    <glyph glyph-name="iacute" unicode="&#xed;" horiz-adv-x="243" 
d="M151 520v-520h-60v520h60zM105 585l61 124l68 -22l-83 -102h-46z" />
    <glyph glyph-name="icircumflex" unicode="&#xee;" horiz-adv-x="243" 
d="M151 520v-520h-60v520h60zM90 697h63l113 -130h-54l-90 86l-90 -86h-55z" />
    <glyph glyph-name="idieresis" unicode="&#xef;" horiz-adv-x="243" 
d="M151 520v-520h-60v520h60zM-6 638q0 17 10.5 28t27.5 11t28 -11t11 -28t-11 -28t-28 -11t-27.5 11t-10.5 28zM171 638q0 17 10.5 28t27.5 11t28 -11t11 -28t-11 -28t-28 -11t-27.5 11t-10.5 28z" />
    <glyph glyph-name="eth" unicode="&#xf0;" horiz-adv-x="611" 
d="M296 474q57 0 105.5 -22t84.5 -64q-9 55 -35.5 101.5t-68.5 81.5l-123 -71l-25 45l101 59q-23 14 -48.5 23.5t-54.5 14.5l-19 60q52 -6 97 -23t83 -43l81 48l25 -46l-64 -36q58 -55 90 -133t32 -173q0 -70 -18 -127t-51 -97t-80 -61.5t-106 -21.5q-54 0 -101 19t-81 53
t-53.5 79.5t-19.5 97.5q2 51 21.5 94t53 74.5t78 49.5t96.5 18zM296 416q-39 0 -73.5 -14t-60 -38.5t-40.5 -57t-15 -69.5q0 -39 15 -74t40.5 -60.5t60 -40.5t73.5 -15q40 0 76 15t63 41t42.5 61t15.5 75q0 38 -15.5 70t-42 56t-62.5 37.5t-77 13.5z" />
    <glyph glyph-name="ntilde" unicode="&#xf1;" horiz-adv-x="585" 
d="M319 531q44 0 81.5 -16t64.5 -44.5t42.5 -67t15.5 -83.5v-320h-59v320q0 32 -11 59t-30.5 47t-47.5 31.5t-61 11.5q-36 0 -68 -13.5t-56.5 -37t-38.5 -55t-14 -68.5v-295h-59v521h59v-78q29 40 78.5 64t103.5 24zM140 602q2 49 25.5 81t60.5 32q22 0 40 -11.5t34 -25.5
t30.5 -25.5t29.5 -11.5q18 0 28.5 19t12.5 53l42 -3q-2 -50 -25.5 -81.5t-59.5 -31.5q-22 0 -40 11.5t-33.5 25.5t-29.5 25.5t-29 11.5q-19 0 -30.5 -20.5t-13.5 -52.5z" />
    <glyph glyph-name="ograve" unicode="&#xf2;" horiz-adv-x="620" 
d="M518 259q0 44 -16.5 82.5t-45 68t-66 46.5t-80.5 17q-42 0 -79.5 -17t-66 -46.5t-45.5 -68t-17 -82.5q0 -43 17 -81.5t45.5 -67t66 -45.5t79.5 -17q43 0 80.5 16.5t66 45.5t45 67.5t16.5 81.5zM42 259q0 57 21 106.5t57.5 86t85.5 58t104 21.5q56 0 105 -21.5t85.5 -58
t57.5 -86t21 -106.5q0 -56 -21 -105t-57.5 -85.5t-85.5 -57.5t-105 -21q-55 0 -104 21t-85.5 57.5t-57.5 85.5t-21 105zM200 688l67 22l61 -124h-46z" />
    <glyph glyph-name="oacute" unicode="&#xf3;" horiz-adv-x="620" 
d="M518 259q0 44 -16.5 82.5t-45 68t-66 46.5t-80.5 17q-42 0 -79.5 -17t-66 -46.5t-45.5 -68t-17 -82.5q0 -43 17 -81.5t45.5 -67t66 -45.5t79.5 -17q43 0 80.5 16.5t66 45.5t45 67.5t16.5 81.5zM42 259q0 57 21 106.5t57.5 86t85.5 58t104 21.5q56 0 105 -21.5t85.5 -58
t57.5 -86t21 -106.5q0 -56 -21 -105t-57.5 -85.5t-85.5 -57.5t-105 -21q-55 0 -104 21t-85.5 57.5t-57.5 85.5t-21 105zM278 586l61 124l68 -22l-83 -102h-46z" />
    <glyph glyph-name="ocircumflex" unicode="&#xf4;" horiz-adv-x="620" 
d="M518 259q0 44 -16.5 82.5t-45 68t-66 46.5t-80.5 17q-42 0 -79.5 -17t-66 -46.5t-45.5 -68t-17 -82.5q0 -43 17 -81.5t45.5 -67t66 -45.5t79.5 -17q43 0 80.5 16.5t66 45.5t45 67.5t16.5 81.5zM42 259q0 57 21 106.5t57.5 86t85.5 58t104 21.5q56 0 105 -21.5t85.5 -58
t57.5 -86t21 -106.5q0 -56 -21 -105t-57.5 -85.5t-85.5 -57.5t-105 -21q-55 0 -104 21t-85.5 57.5t-57.5 85.5t-21 105zM278 697h63l113 -130h-54l-90 86l-90 -86h-55z" />
    <glyph glyph-name="otilde" unicode="&#xf5;" horiz-adv-x="620" 
d="M518 259q0 44 -16.5 82.5t-45 68t-66 46.5t-80.5 17q-42 0 -79.5 -17t-66 -46.5t-45.5 -68t-17 -82.5q0 -43 17 -81.5t45.5 -67t66 -45.5t79.5 -17q43 0 80.5 16.5t66 45.5t45 67.5t16.5 81.5zM42 259q0 57 21 106.5t57.5 86t85.5 58t104 21.5q56 0 105 -21.5t85.5 -58
t57.5 -86t21 -106.5q0 -56 -21 -105t-57.5 -85.5t-85.5 -57.5t-105 -21q-55 0 -104 21t-85.5 57.5t-57.5 85.5t-21 105zM158 602q2 49 25.5 81t60.5 32q22 0 40 -11.5t34 -25.5t30.5 -25.5t29.5 -11.5q18 0 28.5 19t12.5 53l42 -3q-2 -50 -25.5 -81.5t-59.5 -31.5
q-22 0 -40 11.5t-33.5 25.5t-29.5 25.5t-29 11.5q-19 0 -30.5 -20.5t-13.5 -52.5z" />
    <glyph glyph-name="odieresis" unicode="&#xf6;" horiz-adv-x="624" 
d="M518 259q0 44 -16.5 82.5t-45 68t-66 46.5t-80.5 17q-42 0 -79.5 -17t-66 -46.5t-45.5 -68t-17 -82.5q0 -43 17 -81.5t45.5 -67t66 -45.5t79.5 -17q43 0 80.5 16.5t66 45.5t45 67.5t16.5 81.5zM42 259q0 57 21 106.5t57.5 86t85.5 58t104 21.5q56 0 105 -21.5t85.5 -58
t57.5 -86t21 -106.5q0 -56 -21 -105t-57.5 -85.5t-85.5 -57.5t-105 -21q-55 0 -104 21t-85.5 57.5t-57.5 85.5t-21 105zM179 637q0 17 10.5 28t27.5 11t28 -11t11 -28t-11 -28t-28 -11t-27.5 11t-10.5 28zM356 637q0 17 10.5 28t27.5 11t28 -11t11 -28t-11 -28t-28 -11
t-27.5 11t-10.5 28z" />
    <glyph glyph-name="divide" unicode="&#xf7;" horiz-adv-x="566" 
d="M490 380v-57h-414v57h414zM238 493q0 18 13.5 31.5t32.5 13.5q18 0 31.5 -13.5t13.5 -31.5q0 -19 -13.5 -32.5t-31.5 -13.5q-19 0 -32.5 13.5t-13.5 32.5zM238 206q0 18 13.5 31.5t32.5 13.5q18 0 31.5 -13.5t13.5 -31.5q0 -19 -13.5 -32.5t-31.5 -13.5q-19 0 -32.5 13.5
t-13.5 32.5z" />
    <glyph glyph-name="oslash" unicode="&#xf8;" horiz-adv-x="620" 
d="M151 42q-50 37 -79.5 93.5t-29.5 123.5q0 57 21 106.5t57.5 86t85.5 58t104 21.5q30 0 57 -6t53 -17l36 62h65l-53 -91q51 -37 81 -94t30 -126q0 -56 -21 -105t-57.5 -85.5t-85.5 -57.5t-105 -21q-59 0 -110 24l-37 -64h-64zM102 259q0 -50 22 -93t58 -72l208 362
q-39 17 -80 17q-42 0 -79.5 -17t-66 -46.5t-45.5 -68t-17 -82.5zM310 48q43 0 80.5 16.5t66 45.5t45 67.5t16.5 81.5q0 51 -21.5 94.5t-58.5 72.5l-208 -361q39 -17 80 -17z" />
    <glyph glyph-name="ugrave" unicode="&#xf9;" horiz-adv-x="584" 
d="M276 -11q-44 0 -81.5 16.5t-64.5 45t-42.5 67t-15.5 82.5v320h60v-320q0 -32 11 -59t30.5 -47t47 -31.5t61.5 -11.5q36 0 68 13.5t56.5 37t38.5 55.5t14 68v295h60v-520h-60v78q-29 -41 -78.5 -65t-104.5 -24zM198 687l67 22l61 -124h-46z" />
    <glyph glyph-name="uacute" unicode="&#xfa;" horiz-adv-x="584" 
d="M276 -11q-44 0 -81.5 16.5t-64.5 45t-42.5 67t-15.5 82.5v320h60v-320q0 -32 11 -59t30.5 -47t47 -31.5t61.5 -11.5q36 0 68 13.5t56.5 37t38.5 55.5t14 68v295h60v-520h-60v78q-29 -41 -78.5 -65t-104.5 -24zM265 585l61 124l68 -22l-83 -102h-46z" />
    <glyph glyph-name="ucircumflex" unicode="&#xfb;" horiz-adv-x="584" 
d="M276 -11q-44 0 -81.5 16.5t-64.5 45t-42.5 67t-15.5 82.5v320h60v-320q0 -32 11 -59t30.5 -47t47 -31.5t61.5 -11.5q36 0 68 13.5t56.5 37t38.5 55.5t14 68v295h60v-520h-60v78q-29 -41 -78.5 -65t-104.5 -24zM260 697h63l113 -130h-54l-90 86l-90 -86h-55z" />
    <glyph glyph-name="udieresis" unicode="&#xfc;" horiz-adv-x="584" 
d="M276 -11q-44 0 -81.5 16.5t-64.5 45t-42.5 67t-15.5 82.5v320h60v-320q0 -32 11 -59t30.5 -47t47 -31.5t61.5 -11.5q36 0 68 13.5t56.5 37t38.5 55.5t14 68v295h60v-520h-60v78q-29 -41 -78.5 -65t-104.5 -24zM163 637q0 17 10.5 28t27.5 11t28 -11t11 -28t-11 -28
t-28 -11t-27.5 11t-10.5 28zM340 637q0 17 10.5 28t27.5 11t28 -11t11 -28t-11 -28t-28 -11t-27.5 11t-10.5 28z" />
    <glyph glyph-name="yacute" unicode="&#xfd;" horiz-adv-x="573" 
d="M84 -134q30 -13 53 -13q25 0 41.5 13t28.5 33.5t22 46t20 51.5l-221 523h66l189 -447l192 447h66l-275 -638q-19 -45 -53 -67.5t-75 -22.5q-36 0 -72 18zM261 585l61 124l68 -22l-83 -102h-46z" />
    <glyph glyph-name="thorn" unicode="&#xfe;" horiz-adv-x="654" 
d="M138 257q0 -44 16 -82t43.5 -66.5t64.5 -45t79 -16.5t79 16.5t64.5 45t43.5 67t16 82.5t-15.5 82t-43 66t-64.5 44t-79 16q-43 0 -80 -16.5t-64.5 -44.5t-43.5 -66t-16 -82zM345 -10q-55 0 -111 24t-96 79v-286h-60v898h60v-284q20 28 45 48t52 32.5t55.5 18t55.5 5.5
q54 0 101 -21t82 -57t55.5 -85t20.5 -105q0 -55 -20.5 -104t-55.5 -85t-82.5 -57t-101.5 -21z" />
    <glyph glyph-name="ydieresis" unicode="&#xff;" horiz-adv-x="573" 
d="M87 -134q30 -13 53 -13q25 0 41.5 13t28.5 33.5t22 46t20 51.5l-221 523h66l189 -447l192 447h66l-275 -638q-19 -45 -53 -67.5t-75 -22.5q-36 0 -72 18zM159 637q0 17 10.5 28t27.5 11t28 -11t11 -28t-11 -28t-28 -11t-27.5 11t-10.5 28zM336 637q0 17 10.5 28t27.5 11
t28 -11t11 -28t-11 -28t-28 -11t-27.5 11t-10.5 28z" />
    <glyph glyph-name="Amacron" unicode="&#x100;" horiz-adv-x="684" 
d="M339 630l-140 -353h280zM375 700l277 -700h-64l-87 220h-324l-87 -220h-64l277 700h72zM469 852v-49h-254v49h254z" />
    <glyph glyph-name="amacron" unicode="&#x101;" 
d="M521 260q0 44 -16.5 82.5t-44.5 67.5t-66 45.5t-80 16.5q-43 0 -80.5 -17t-65.5 -46t-44.5 -68t-16.5 -83q0 -43 16 -81.5t44 -67.5t65.5 -45.5t80.5 -16.5t81 17t66 46t44.5 67.5t16.5 82.5zM312 530q62 0 116 -27.5t92 -78.5v96h61v-520h-61v97q-36 -52 -91.5 -80
t-117.5 -28q-55 0 -103.5 21t-84.5 58t-57 86t-21 105t21 105.5t57 86.5t85 58t104 21zM440 652v-49h-254v49h254z" />
    <glyph glyph-name="Abreve" unicode="&#x102;" horiz-adv-x="684" 
d="M339 630l-140 -353h280zM375 700l277 -700h-64l-87 220h-324l-87 -220h-64l277 700h72zM267 886q37 -32 77 -32q21 0 39.5 7.5t38.5 24.5l36 -36q-22 -23 -52 -35.5t-62 -12.5t-60.5 12t-51.5 36z" />
    <glyph glyph-name="abreve" unicode="&#x103;" 
d="M521 260q0 44 -16.5 82.5t-44.5 67.5t-66 45.5t-80 16.5q-43 0 -80.5 -17t-65.5 -46t-44.5 -68t-16.5 -83q0 -43 16 -81.5t44 -67.5t65.5 -45.5t80.5 -16.5t81 17t66 46t44.5 67.5t16.5 82.5zM312 530q62 0 116 -27.5t92 -78.5v96h61v-520h-61v97q-36 -52 -91.5 -80
t-117.5 -28q-55 0 -103.5 21t-84.5 58t-57 86t-21 105t21 105.5t57 86.5t85 58t104 21zM238 686q37 -32 77 -32q21 0 39.5 7.5t38.5 24.5l36 -36q-22 -23 -52 -35.5t-62 -12.5t-60.5 12t-51.5 36z" />
    <glyph glyph-name="Aogonek" unicode="&#x104;" horiz-adv-x="692" 
d="M656 -126q12 0 26 5.5t23 13.5l25 -34q-32 -29 -73 -29q-48 0 -79.5 30.5t-31.5 75.5q0 24 12 44.5t32 32.5l-82 207h-324l-87 -220h-64l277 700h72l277 -700h-6q-20 0 -35 -12q-12 -8 -18.5 -21.5t-6.5 -27.5q0 -28 18 -46.5t45 -18.5zM486 277l-140 353l-140 -353h280z
" />
    <glyph glyph-name="aogonek" unicode="&#x105;" 
d="M47 259q0 56 21 105.5t57.5 86.5t85 58.5t103.5 21.5q62 0 116.5 -27.5t92.5 -79.5v97h60v-521h-2q-19 0 -34 -13q-12 -8 -18 -21.5t-6 -28.5q0 -26 17.5 -44.5t43.5 -18.5q14 0 28 5.5t22 13.5l26 -35q-33 -28 -75 -28q-47 0 -78 29.5t-31 73.5q0 26 12.5 48t34.5 34v82
q-37 -52 -92 -80t-118 -28q-55 0 -103.5 21t-84.5 58t-57 86t-21 105zM315 48q43 0 81 16.5t66 45.5t44.5 67.5t16.5 82.5t-16.5 82.5t-44.5 67.5t-65.5 46t-80.5 17t-80.5 -17t-65.5 -46t-44.5 -68.5t-16.5 -83.5q0 -43 16 -81.5t44 -67t65.5 -45t80.5 -16.5z" />
    <glyph glyph-name="Cacute" unicode="&#x106;" horiz-adv-x="667" 
d="M622 85q-21 -22 -47.5 -39.5t-57 -30t-63.5 -19.5t-66 -7q-70 0 -132 28.5t-108.5 78t-74 115t-27.5 139.5t27.5 139.5t74.5 114.5t109 77.5t132 28.5q66 0 128.5 -26t104.5 -70l-40 -40q-38 37 -88 57.5t-103 20.5q-59 0 -111 -23.5t-90.5 -64.5t-61 -96t-22.5 -117
q0 -63 22.5 -118.5t61.5 -96.5t91 -65t110 -24q54 0 103.5 20.5t86.5 58.5zM346 778l61 124l68 -22l-83 -102h-46z" />
    <glyph glyph-name="cacute" unicode="&#x107;" horiz-adv-x="543" 
d="M462 406q-28 32 -68.5 50t-83.5 18t-81 -17t-66.5 -46.5t-45 -68t-16.5 -82.5q0 -43 16.5 -82t45 -67.5t67 -45.5t81.5 -17q44 0 83 17t68 49l40 -40q-37 -41 -87 -62.5t-105 -21.5q-56 0 -105.5 21.5t-86 58t-57.5 86t-21 104.5t21 104.5t57.5 86.5t85.5 59t106 22
q55 0 105 -22t88 -63zM267 582l61 124l68 -22l-83 -102h-46z" />
    <glyph glyph-name="Ccircumflex" unicode="&#x108;" horiz-adv-x="667" 
d="M622 85q-21 -22 -47.5 -39.5t-57 -30t-63.5 -19.5t-66 -7q-70 0 -132 28.5t-108.5 78t-74 115t-27.5 139.5t27.5 139.5t74.5 114.5t109 77.5t132 28.5q66 0 128.5 -26t104.5 -70l-40 -40q-38 37 -88 57.5t-103 20.5q-59 0 -111 -23.5t-90.5 -64.5t-61 -96t-22.5 -117
q0 -63 22.5 -118.5t61.5 -96.5t91 -65t110 -24q54 0 103.5 20.5t86.5 58.5zM358 897h63l113 -130h-54l-90 86l-90 -86h-55z" />
    <glyph glyph-name="ccircumflex" unicode="&#x109;" horiz-adv-x="537" 
d="M462 406q-28 32 -68.5 50t-83.5 18t-81 -17t-66.5 -46.5t-45 -68t-16.5 -82.5q0 -43 16.5 -82t45 -67.5t67 -45.5t81.5 -17q44 0 83 17t68 49l40 -40q-37 -41 -87 -62.5t-105 -21.5q-56 0 -105.5 21.5t-86 58t-57.5 86t-21 104.5t21 104.5t57.5 86.5t85.5 59t106 22
q55 0 105 -22t88 -63zM279 697h63l113 -130h-54l-90 86l-90 -86h-55z" />
    <glyph glyph-name="Cdotaccent" unicode="&#x10a;" horiz-adv-x="669" 
d="M622 85q-21 -22 -47.5 -39.5t-57 -30t-63.5 -19.5t-66 -7q-70 0 -132 28.5t-108.5 78t-74 115t-27.5 139.5t27.5 139.5t74.5 114.5t109 77.5t132 28.5q66 0 128.5 -26t104.5 -70l-40 -40q-38 37 -88 57.5t-103 20.5q-59 0 -111 -23.5t-90.5 -64.5t-61 -96t-22.5 -117
q0 -63 22.5 -118.5t61.5 -96.5t91 -65t110 -24q54 0 103.5 20.5t86.5 58.5zM323 818q0 17 10.5 28t27.5 11t28 -11t11 -28t-11 -28t-28 -11t-27.5 11t-10.5 28z" />
    <glyph glyph-name="cdotaccent" unicode="&#x10b;" horiz-adv-x="537" 
d="M462 406q-28 32 -68.5 50t-83.5 18t-81 -17t-66.5 -46.5t-45 -68t-16.5 -82.5q0 -43 16.5 -82t45 -67.5t67 -45.5t81.5 -17q44 0 83 17t68 49l40 -40q-37 -41 -87 -62.5t-105 -21.5q-56 0 -105.5 21.5t-86 58t-57.5 86t-21 104.5t21 104.5t57.5 86.5t85.5 59t106 22
q55 0 105 -22t88 -63zM263 618q0 17 10.5 28t27.5 11t28 -11t11 -28t-11 -28t-28 -11t-27.5 11t-10.5 28z" />
    <glyph glyph-name="Ccaron" unicode="&#x10c;" horiz-adv-x="667" 
d="M622 85q-21 -22 -47.5 -39.5t-57 -30t-63.5 -19.5t-66 -7q-70 0 -132 28.5t-108.5 78t-74 115t-27.5 139.5t27.5 139.5t74.5 114.5t109 77.5t132 28.5q66 0 128.5 -26t104.5 -70l-40 -40q-38 37 -88 57.5t-103 20.5q-59 0 -111 -23.5t-90.5 -64.5t-61 -96t-22.5 -117
q0 -63 22.5 -118.5t61.5 -96.5t91 -65t110 -24q54 0 103.5 20.5t86.5 58.5zM256 897h55l90 -85l90 85h54l-113 -130h-63z" />
    <glyph glyph-name="ccaron" unicode="&#x10d;" horiz-adv-x="543" 
d="M462 406q-28 32 -68.5 50t-83.5 18t-81 -17t-66.5 -46.5t-45 -68t-16.5 -82.5q0 -43 16.5 -82t45 -67.5t67 -45.5t81.5 -17q44 0 83 17t68 49l40 -40q-37 -41 -87 -62.5t-105 -21.5q-56 0 -105.5 21.5t-86 58t-57.5 86t-21 104.5t21 104.5t57.5 86.5t85.5 59t106 22
q55 0 105 -22t88 -63zM155 697h55l90 -85l90 85h54l-113 -130h-63z" />
    <glyph glyph-name="Dcaron" unicode="&#x10e;" horiz-adv-x="728" 
d="M145 645v-588h152q72 0 130 22.5t98.5 61.5t62 92.5t21.5 116.5q0 62 -22 116t-62.5 94t-98 62.5t-129.5 22.5h-152zM85 0v702h212q84 0 152.5 -27.5t117 -75t75.5 -112t27 -138.5t-26.5 -137.5t-75 -110.5t-117.5 -74t-153 -27h-212zM199 897h55l90 -85l90 85h54
l-113 -130h-63z" />
    <glyph glyph-name="dcaron" unicode="&#x10f;" horiz-adv-x="789" 
d="M513 261q0 44 -16.5 82.5t-44.5 67.5t-65.5 45.5t-80.5 16.5t-80.5 -17t-65.5 -46t-44.5 -68t-16.5 -83q0 -43 16 -81.5t44 -67.5t65.5 -45.5t80.5 -16.5t81 17t66 46t44.5 67.5t16.5 82.5zM304 531q62 0 116.5 -27t92.5 -79v275h61v-699h-61v96q-38 -53 -92.5 -80.5
t-116.5 -27.5q-55 0 -103.5 21.5t-84.5 58t-57 86t-21 105.5t21 105.5t57 86.5t84.5 58t103.5 21zM747 643q0 -72 -63 -112l-23 38q14 9 23 23t9 30q-19 2 -31 15.5t-12 30.5q0 19 13 33t32 14q24 0 38 -21.5t14 -50.5z" />
    <glyph glyph-name="Dcroat" unicode="&#x110;" horiz-adv-x="740" 
d="M683 349q0 -73 -26.5 -136.5t-75 -111t-117 -74.5t-152.5 -27h-212v272h-50v58h50v372h212q84 0 152 -27.5t117 -75.5t75.5 -112.5t26.5 -137.5zM623 350q0 62 -21.5 116t-62 93.5t-98 62.5t-129.5 23h-152v-315h160v-58h-160v-215h152q72 0 129.5 22.5t98 62t62 93
t21.5 115.5z" />
    <glyph glyph-name="dcroat" unicode="&#x111;" horiz-adv-x="697" 
d="M45 260q0 56 21 105.5t57 86.5t85 58.5t104 21.5q63 0 117 -27t92 -79v171h-144v54h144v50h60v-50h50v-54h-50v-597h-60v96q-38 -52 -93 -79.5t-117 -27.5q-55 0 -103.5 21.5t-84.5 58t-57 86t-21 105.5zM313 48q43 0 81 16.5t66 45.5t44.5 68t16.5 83t-16.5 82.5
t-44.5 67.5t-66 46t-80 17q-43 0 -80.5 -17t-66 -46.5t-45 -68.5t-16.5 -83t16 -82.5t44 -67t66 -45t81 -16.5z" />
    <glyph glyph-name="Emacron" unicode="&#x112;" horiz-adv-x="583" 
d="M78 0v700h462v-57h-402v-229h353v-57h-353v-300h402v-57h-462zM419 832v-49h-254v49h254z" />
    <glyph glyph-name="emacron" unicode="&#x113;" horiz-adv-x="613" 
d="M515 289q-5 39 -23 72.5t-46 58t-63 38t-74 13.5q-38 0 -72 -13t-61.5 -37t-46 -57.5t-25.5 -74.5h411zM514 85q-35 -45 -88.5 -70t-116.5 -25q-56 0 -105 21t-85.5 57.5t-57.5 86t-21 105.5t21.5 105t58 85.5t86 57.5t104.5 21q60 0 110.5 -23t86.5 -63.5t55 -95
t15 -116.5h-472q4 -39 22 -72t45.5 -58t62.5 -39t74 -14q50 0 94 21t70 57zM434 652v-49h-254v49h254z" />
    <glyph glyph-name="Ebreve" unicode="&#x114;" horiz-adv-x="581" 
d="M78 0v700h462v-57h-402v-229h353v-57h-353v-300h402v-57h-462zM215 886q37 -32 77 -32q21 0 39.5 7.5t38.5 24.5l36 -36q-22 -23 -52 -35.5t-62 -12.5t-60.5 12t-51.5 36z" />
    <glyph glyph-name="ebreve" unicode="&#x115;" horiz-adv-x="613" 
d="M515 289q-5 39 -23 72.5t-46 58t-63 38t-74 13.5q-38 0 -72 -13t-61.5 -37t-46 -57.5t-25.5 -74.5h411zM514 85q-35 -45 -88.5 -70t-116.5 -25q-56 0 -105 21t-85.5 57.5t-57.5 86t-21 105.5t21.5 105t58 85.5t86 57.5t104.5 21q60 0 110.5 -23t86.5 -63.5t55 -95
t15 -116.5h-472q4 -39 22 -72t45.5 -58t62.5 -39t74 -14q50 0 94 21t70 57zM232 686q37 -32 77 -32q21 0 39.5 7.5t38.5 24.5l36 -36q-22 -23 -52 -35.5t-62 -12.5t-60.5 12t-51.5 36z" />
    <glyph glyph-name="Edotaccent" unicode="&#x116;" horiz-adv-x="592" 
d="M78 0v700h462v-57h-402v-229h353v-57h-353v-300h402v-57h-462zM267 838q0 17 10.5 28t27.5 11t28 -11t11 -28t-11 -28t-28 -11t-27.5 11t-10.5 28z" />
    <glyph glyph-name="edotaccent" unicode="&#x117;" horiz-adv-x="613" 
d="M515 289q-5 39 -23 72.5t-46 58t-63 38t-74 13.5q-38 0 -72 -13t-61.5 -37t-46 -57.5t-25.5 -74.5h411zM514 85q-35 -45 -88.5 -70t-116.5 -25q-56 0 -105 21t-85.5 57.5t-57.5 86t-21 105.5t21.5 105t58 85.5t86 57.5t104.5 21q60 0 110.5 -23t86.5 -63.5t55 -95
t15 -116.5h-472q4 -39 22 -72t45.5 -58t62.5 -39t74 -14q50 0 94 21t70 57zM284.332 631q0 17 3.5 28t9.16602 11q5.66699 0 9.33301 -11t3.66602 -28t-3.66602 -28t-9.33301 -11q-5.66602 0 -9.16602 11t-3.5 28z" />
    <glyph glyph-name="Eogonek" unicode="&#x118;" horiz-adv-x="583" 
d="M547 -124q12 0 25.5 5.5t22.5 13.5l26 -35q-31 -28 -74 -28q-24 0 -44 8t-34.5 22t-23 33t-8.5 42q0 37 27 64h-386v699h464v-57h-404v-229h353v-57h-353v-299h405v-57h-2q-24 0 -41 -18t-17 -42q0 -28 18.5 -46.5t45.5 -18.5z" />
    <glyph glyph-name="eogonek" unicode="&#x119;" horiz-adv-x="613" 
d="M310 48q51 0 94.5 21t70.5 57l41 -41q-38 -49 -93.5 -72t-117.5 -23q-2 -1 -5 -1.5t-5 -1.5q-22 -19 -22 -46q0 -29 18 -47t46 -18q11 0 25 5t23 14l26 -36q-34 -28 -74 -28q-24 0 -44 8t-35 22t-23.5 33t-8.5 42q0 35 24 61q-45 10 -83.5 34.5t-66 59t-43.5 78t-16 91.5
q0 56 21.5 105t58 85.5t86 57.5t104.5 21q60 0 110.5 -23t87 -63.5t55.5 -95t15 -116.5h-473q4 -39 22 -72t45.5 -58t62.5 -39t74 -14zM311 471q-38 0 -72.5 -13t-62 -37t-46 -57.5t-25.5 -74.5h411q-5 39 -23 72.5t-45.5 58t-62.5 38t-74 13.5z" />
    <glyph glyph-name="Ecaron" unicode="&#x11a;" horiz-adv-x="592" 
d="M78 0v700h462v-57h-402v-229h353v-57h-353v-300h402v-57h-462zM148 897h55l90 -85l90 85h54l-113 -130h-63z" />
    <glyph glyph-name="ecaron" unicode="&#x11b;" horiz-adv-x="613" 
d="M515 289q-5 39 -23 72.5t-46 58t-63 38t-74 13.5q-38 0 -72 -13t-61.5 -37t-46 -57.5t-25.5 -74.5h411zM514 85q-35 -45 -88.5 -70t-116.5 -25q-56 0 -105 21t-85.5 57.5t-57.5 86t-21 105.5t21.5 105t58 85.5t86 57.5t104.5 21q60 0 110.5 -23t86.5 -63.5t55 -95
t15 -116.5h-472q4 -39 22 -72t45.5 -58t62.5 -39t74 -14q50 0 94 21t70 57zM168 697h55l90 -85l90 85h54l-113 -130h-63z" />
    <glyph glyph-name="Gcircumflex" unicode="&#x11c;" horiz-adv-x="697" 
d="M632 355v-265q-53 -49 -113 -74.5t-126 -25.5q-71 0 -134 28.5t-110 77t-74 114t-27 139.5q0 75 27 140.5t73.5 114.5t109 77.5t132.5 28.5q65 0 124.5 -23t98.5 -61l-30 -50q-40 38 -88 57.5t-102 19.5q-59 0 -111 -23.5t-90.5 -64.5t-60.5 -96t-22 -117
q0 -63 22.5 -118.5t60.5 -97t89 -65.5t108 -24q52 0 102.5 19.5t80.5 49.5v181h-170v58h230zM317 897h63l113 -130h-54l-90 86l-90 -86h-55z" />
    <glyph glyph-name="gcircumflex" unicode="&#x11d;" horiz-adv-x="638" 
d="M44 268q0 54 20 101.5t54.5 83t81 56t98.5 20.5q59 0 110 -26.5t89 -75.5v92h61v-507q0 -48 -19 -88t-53 -69t-80.5 -45.5t-101.5 -16.5q-54 0 -99.5 16.5t-78.5 48.5l20 59q26 -32 66.5 -48.5t91.5 -16.5q42 0 77.5 12t61 33t40 50t14.5 64v93q-37 -49 -87 -75.5
t-108 -26.5q-53 0 -100 21t-82 57t-55.5 84.5t-20.5 103.5zM303 61q41 0 76.5 15.5t61.5 43t41 65t15 80.5q0 44 -15 81.5t-41.5 65t-62 43t-77.5 15.5t-78 -15.5t-62.5 -43t-41.5 -64.5t-15 -80t15.5 -81t42 -65.5t63 -43.5t78.5 -16zM279 697h63l113 -130h-54l-90 86
l-90 -86h-55z" />
    <glyph glyph-name="Gbreve" unicode="&#x11e;" horiz-adv-x="697" 
d="M632 355v-265q-53 -49 -113 -74.5t-126 -25.5q-71 0 -134 28.5t-110 77t-74 114t-27 139.5q0 75 27 140.5t73.5 114.5t109 77.5t132.5 28.5q65 0 124.5 -23t98.5 -61l-30 -50q-40 38 -88 57.5t-102 19.5q-59 0 -111 -23.5t-90.5 -64.5t-60.5 -96t-22 -117
q0 -63 22.5 -118.5t60.5 -97t89 -65.5t108 -24q52 0 102.5 19.5t80.5 49.5v181h-170v58h230zM274 886q37 -32 77 -32q21 0 39.5 7.5t38.5 24.5l36 -36q-22 -23 -52 -35.5t-62 -12.5t-60.5 12t-51.5 36z" />
    <glyph glyph-name="gbreve" unicode="&#x11f;" horiz-adv-x="639" 
d="M45 268q0 54 20 101.5t54.5 83t81 56t98.5 20.5q59 0 110 -26.5t89 -75.5v92h61v-507q0 -48 -19 -88t-53 -69t-80.5 -45.5t-101.5 -16.5q-54 0 -99.5 16.5t-78.5 48.5l20 59q26 -32 66.5 -48.5t91.5 -16.5q42 0 77.5 12t61 33t40 50t14.5 64v93q-37 -49 -87 -75.5
t-108 -26.5q-53 0 -100 21t-82 57t-55.5 84.5t-20.5 103.5zM304 61q41 0 76.5 15.5t61.5 43t41 65t15 80.5q0 44 -15 81.5t-41.5 65t-62 43t-77.5 15.5t-78 -15.5t-62.5 -43t-41.5 -64.5t-15 -80t15.5 -81t42 -65.5t63 -43.5t78.5 -16zM247 686q37 -32 77 -32q21 0 39.5 7.5
t38.5 24.5l36 -36q-22 -23 -52 -35.5t-62 -12.5t-60.5 12t-51.5 36z" />
    <glyph glyph-name="Gdotaccent" unicode="&#x120;" horiz-adv-x="697" 
d="M632 355v-265q-53 -49 -113 -74.5t-126 -25.5q-71 0 -134 28.5t-110 77t-74 114t-27 139.5q0 75 27 140.5t73.5 114.5t109 77.5t132.5 28.5q65 0 124.5 -23t98.5 -61l-30 -50q-40 38 -88 57.5t-102 19.5q-59 0 -111 -23.5t-90.5 -64.5t-60.5 -96t-22 -117
q0 -63 22.5 -118.5t60.5 -97t89 -65.5t108 -24q52 0 102.5 19.5t80.5 49.5v181h-170v58h230zM340 838q0 17 10.5 28t27.5 11t28 -11t11 -28t-11 -28t-28 -11t-27.5 11t-10.5 28z" />
    <glyph glyph-name="gdotaccent" unicode="&#x121;" horiz-adv-x="639" 
d="M45 268q0 54 20 101.5t54.5 83t81 56t98.5 20.5q59 0 110 -26.5t89 -75.5v92h61v-507q0 -48 -19 -88t-53 -69t-80.5 -45.5t-101.5 -16.5q-54 0 -99.5 16.5t-78.5 48.5l20 59q26 -32 66.5 -48.5t91.5 -16.5q42 0 77.5 12t61 33t40 50t14.5 64v93q-37 -49 -87 -75.5
t-108 -26.5q-53 0 -100 21t-82 57t-55.5 84.5t-20.5 103.5zM304 61q41 0 76.5 15.5t61.5 43t41 65t15 80.5q0 44 -15 81.5t-41.5 65t-62 43t-77.5 15.5t-78 -15.5t-62.5 -43t-41.5 -64.5t-15 -80t15.5 -81t42 -65.5t63 -43.5t78.5 -16zM279 638q0 17 10.5 28t27.5 11t28 -11
t11 -28t-11 -28t-28 -11t-27.5 11t-10.5 28z" />
    <glyph glyph-name="uni0122" unicode="&#x122;" horiz-adv-x="697" 
d="M632 355v-265q-53 -49 -113 -74.5t-126 -25.5q-71 0 -134 28.5t-110 77t-74 114t-27 139.5q0 75 27 140.5t73.5 114.5t109 77.5t132.5 28.5q65 0 124.5 -23t98.5 -61l-30 -50q-40 38 -88 57.5t-102 19.5q-59 0 -111 -23.5t-90.5 -64.5t-60.5 -96t-22 -117
q0 -63 22.5 -118.5t60.5 -97t89 -65.5t108 -24q52 0 102.5 19.5t80.5 49.5v181h-170v58h230zM436 -98q0 -62 -57 -98l-24 38q10 7 18 17t9 27q-13 2 -21.5 13t-8.5 24q0 15 11 26t28 11q13 0 21.5 -5.5t14 -14t7.5 -18.5t2 -20z" />
    <glyph glyph-name="uni0123" unicode="&#x123;" horiz-adv-x="633" 
d="M41 268q0 54 20 101.5t54.5 83t81 56t98.5 20.5q59 0 110 -26.5t89 -75.5v92h61v-507q0 -48 -19 -88t-53 -69t-80.5 -45.5t-101.5 -16.5q-54 0 -99.5 16.5t-78.5 48.5l20 59q26 -32 66.5 -48.5t91.5 -16.5q42 0 77.5 12t61 33t40 50t14.5 64v93q-37 -49 -87 -75.5
t-108 -26.5q-53 0 -100 21t-82 57t-55.5 84.5t-20.5 103.5zM300 61q41 0 76.5 15.5t61.5 43t41 65t15 80.5q0 44 -15 81.5t-41.5 65t-62 43t-77.5 15.5t-78 -15.5t-62.5 -43t-41.5 -64.5t-15 -80t15.5 -81t42 -65.5t63 -43.5t78.5 -16zM252 664q0 73 63 112l23 -38
q-14 -9 -23.5 -23t-9.5 -30q19 -2 31.5 -15.5t12.5 -30.5q0 -19 -13.5 -33t-32.5 -14q-24 0 -37.5 21.5t-13.5 50.5z" />
    <glyph glyph-name="Hcircumflex" unicode="&#x124;" horiz-adv-x="678" 
d="M534 415v286h60v-701h-60v358h-389v-358h-60v701h60v-286h389zM307 877h63l113 -130h-54l-90 86l-90 -86h-55z" />
    <glyph glyph-name="hcircumflex" unicode="&#x125;" horiz-adv-x="628" 
d="M335 527q47 0 86.5 -18.5t68.5 -51t45.5 -77t16.5 -97.5v-282h-61v282q0 41 -11.5 74.5t-32 58t-49 38t-63.5 13.5q-39 0 -74.5 -16.5t-63 -43.5t-44 -62t-16.5 -73v-271h-60v700h60v-281q38 51 89.5 79t108.5 28zM75 854h63l113 -130h-54l-90 86l-90 -86h-55z" />
    <glyph glyph-name="Hbar" unicode="&#x126;" horiz-adv-x="685" 
d="M150 0h-60v549h-29v50h29v102h60v-102h388v102h60v-102h27v-50h-27v-549h-60v357h-388v-357zM150 414h388v135h-388v-135z" />
    <glyph glyph-name="hbar" unicode="&#x127;" horiz-adv-x="643" 
d="M350 467q-38 0 -73.5 -16.5t-63 -43.5t-44 -62t-16.5 -73v-271h-61v602h-44v52h44v46h61v-46h150v-52h-150v-183q38 53 89.5 80t108.5 27q47 0 86.5 -18.5t68 -51t45 -77t16.5 -97.5v-282h-61v282q0 41 -11.5 74.5t-32.5 58t-49.5 38t-62.5 13.5z" />
    <glyph glyph-name="Itilde" unicode="&#x128;" horiz-adv-x="260" 
d="M160 700v-700h-60v700h60zM-22 802q2 49 25.5 81t60.5 32q22 0 40 -11.5t34 -25.5t30.5 -25.5t29.5 -11.5q18 0 28.5 19t12.5 53l42 -3q-2 -50 -25.5 -81.5t-59.5 -31.5q-22 0 -40 11.5t-33.5 25.5t-29.5 25.5t-29 11.5q-19 0 -30.5 -20.5t-13.5 -52.5z" />
    <glyph glyph-name="itilde" unicode="&#x129;" horiz-adv-x="271" 
d="M165 520v-520h-60v520h60zM-17 602q2 49 25.5 81t60.5 32q22 0 40 -11.5t34 -25.5t30.5 -25.5t29.5 -11.5q18 0 28.5 19t12.5 53l42 -3q-2 -50 -25.5 -81.5t-59.5 -31.5q-22 0 -40 11.5t-33.5 25.5t-29.5 25.5t-29 11.5q-19 0 -30.5 -20.5t-13.5 -52.5z" />
    <glyph glyph-name="Imacron" unicode="&#x12a;" horiz-adv-x="260" 
d="M160 700v-700h-60v700h60zM257 832v-49h-254v49h254z" />
    <glyph glyph-name="imacron" unicode="&#x12b;" horiz-adv-x="243" 
d="M151 520v-520h-60v520h60zM248 652v-49h-254v49h254z" />
    <glyph glyph-name="Ibreve" unicode="&#x12c;" horiz-adv-x="260" 
d="M160 700v-700h-60v700h60zM55 866q37 -32 77 -32q21 0 39.5 7.5t38.5 24.5l36 -36q-22 -23 -52 -35.5t-62 -12.5t-60.5 12t-51.5 36z" />
    <glyph glyph-name="ibreve" unicode="&#x12d;" horiz-adv-x="243" 
d="M151 520v-520h-60v520h60zM46 686q37 -32 77 -32q21 0 39.5 7.5t38.5 24.5l36 -36q-22 -23 -52 -35.5t-62 -12.5t-60.5 12t-51.5 36z" />
    <glyph glyph-name="Iogonek" unicode="&#x12e;" horiz-adv-x="260" 
d="M165 -129q11 0 24.5 5.5t21.5 12.5l25 -33q-32 -26 -70 -26q-48 0 -79.5 30t-31.5 78q0 23 12 42.5t33 32.5v687h60v-700h-2q-24 -1 -42 -19t-18 -44q0 -28 19 -47t48 -19z" />
    <glyph glyph-name="iogonek" unicode="&#x12f;" horiz-adv-x="234" 
d="M149 -125q12 0 25.5 5.5t22.5 13.5l26 -35q-31 -28 -74 -28q-24 0 -44 8t-34.5 22t-23 33t-8.5 42q0 25 13 46t35 33v505h60v-520h-4q-23 0 -40.5 -18.5t-17.5 -41.5q0 -28 18.5 -46.5t45.5 -18.5zM117 618q-17 0 -28 11t-11 28t11 28t28 11t28 -11t11 -28t-11 -28
t-28 -11z" />
    <glyph glyph-name="Idotaccent" unicode="&#x130;" horiz-adv-x="260" 
d="M160 700v-700h-60v700h60zM86 838q0 17 10.5 28t27.5 11t28 -11t11 -28t-11 -28t-28 -11t-27.5 11t-10.5 28z" />
    <glyph glyph-name="dotlessi" unicode="&#x131;" horiz-adv-x="243" 
d="M151 520v-520h-60v520h60z" />
    <glyph glyph-name="IJ" unicode="&#x132;" horiz-adv-x="676" 
d="M160 700v-700h-60v700h60zM616 198q0 -42 -13.5 -79.5t-39 -66t-60.5 -45.5t-79 -17q-34 0 -67.5 11.5t-58.5 36.5l18 56q20 -23 51 -34t58 -11q32 0 56 12.5t41 33t25.5 47.5t8.5 56v502h60v-502z" />
    <glyph glyph-name="ij" unicode="&#x133;" horiz-adv-x="467" 
d="M78 657q0 17 11 28t28 11t28 -11t11 -28t-11 -28t-28 -11t-28 11t-11 28zM147 520v-520h-60v520h60zM381 -42q0 -82 -37 -124.5t-101 -42.5q-60 0 -99 33l18 55q18 -16 36.5 -22.5t44.5 -6.5q39 0 58.5 26t19.5 87v556h60v-561zM313 658q0 16 11 27t27 11t27 -11.5
t11 -26.5q0 -16 -11 -27.5t-27 -11.5t-27 11t-11 28z" />
    <glyph glyph-name="Jcircumflex" unicode="&#x134;" horiz-adv-x="450" 
d="M356 198q0 -42 -13.5 -79.5t-39 -66t-60.5 -45.5t-79 -17q-34 0 -67.5 11.5t-58.5 36.5l18 56q20 -23 51 -34t58 -11q32 0 56 12.5t41 33t25.5 47.5t8.5 56v502h60v-502zM281 897h63l113 -130h-54l-90 86l-90 -86h-55z" />
    <glyph glyph-name="jcircumflex" unicode="&#x135;" horiz-adv-x="240" 
d="M150 -43q0 -38 -7.5 -69.5t-24 -54.5t-44 -35.5t-66.5 -12.5q-64 0 -104 40l19 59q14 -20 38 -30t47 -10q28 0 44.5 10t24.5 26t10.5 36.5t2.5 41.5v562h60v-563zM88 684h63l113 -130h-54l-90 86l-90 -86h-55z" />
    <glyph glyph-name="uni0136" unicode="&#x136;" horiz-adv-x="586" 
d="M565 0h-71l-249 364l-104 -107v-257h-60v700h60v-362l345 362h79l-279 -293zM335 -98q0 -62 -57 -98l-24 38q10 7 18 17t9 27q-13 2 -21.5 13t-8.5 24q0 15 11 26t28 11q13 0 21.5 -5.5t14 -14t7.5 -18.5t2 -20z" />
    <glyph glyph-name="uni0137" unicode="&#x137;" horiz-adv-x="550" 
d="M510 520l-216 -181l230 -339h-75l-202 299l-106 -88v-210h-61v700h61v-411l276 230h93zM317 -98q0 -62 -57 -98l-24 38q10 7 18 17t9 27q-13 2 -21.5 13t-8.5 24q0 15 11 26t28 11q13 0 21.5 -5.5t14 -14t7.5 -18.5t2 -20z" />
    <glyph glyph-name="Lacute" unicode="&#x139;" horiz-adv-x="570" 
d="M84 0v701h60v-644h365v-57h-425zM98 785l61 124l68 -22l-83 -102h-46z" />
    <glyph glyph-name="lacute" unicode="&#x13a;" horiz-adv-x="235" 
d="M148 701v-700h-60v700h60zM98 760l61 124l68 -22l-83 -102h-46z" />
    <glyph glyph-name="uni013B" unicode="&#x13b;" horiz-adv-x="561" 
d="M84 0v701h60v-644h365v-57h-425zM322 -98q0 -62 -57 -98l-24 38q10 7 18 17t9 27q-13 2 -21.5 13t-8.5 24q0 15 11 26t28 11q13 0 21.5 -5.5t14 -14t7.5 -18.5t2 -20z" />
    <glyph glyph-name="uni013C" unicode="&#x13c;" horiz-adv-x="235" 
d="M148 701v-700h-60v700h60zM159 -98q0 -62 -57 -98l-24 38q10 7 18 17t9 27q-13 2 -21.5 13t-8.5 24q0 15 11 26t28 11q13 0 21.5 -5.5t14 -14t7.5 -18.5t2 -20z" />
    <glyph glyph-name="Lcaron" unicode="&#x13d;" horiz-adv-x="570" 
d="M84 0v701h60v-644h365v-57h-425zM307 641q0 -72 -63 -112l-23 38q14 9 23 23t9 30q-19 2 -31 15.5t-12 30.5q0 19 13 33t32 14q24 0 38 -21.5t14 -50.5z" />
    <glyph glyph-name="lcaron" unicode="&#x13e;" horiz-adv-x="376" 
d="M148 701v-700h-60v700h60zM332 643q0 -72 -63 -112l-23 38q14 9 23 23t9 30q-19 2 -31 15.5t-12 30.5q0 19 13 33t32 14q24 0 38 -21.5t14 -50.5z" />
    <glyph glyph-name="Ldot" unicode="&#x13f;" horiz-adv-x="570" 
d="M84 0v701h60v-644h365v-57h-425zM240 249q0 18 13.5 31.5t32.5 13.5q18 0 31.5 -13.5t13.5 -31.5q0 -19 -13.5 -32.5t-31.5 -13.5q-19 0 -32.5 13.5t-13.5 32.5z" />
    <glyph glyph-name="ldot" unicode="&#x140;" horiz-adv-x="367" 
d="M148 701v-700h-60v700h60zM228 249q0 18 13.5 31.5t32.5 13.5q18 0 31.5 -13.5t13.5 -31.5q0 -19 -13.5 -32.5t-31.5 -13.5q-19 0 -32.5 13.5t-13.5 32.5z" />
    <glyph glyph-name="Lslash" unicode="&#x141;" horiz-adv-x="601" 
d="M571 0h-453v285l-68 -39v69l68 39v348h60v-313l116 66v-69l-116 -66v-263h393v-57z" />
    <glyph glyph-name="lslash" unicode="&#x142;" horiz-adv-x="324" 
d="M119 702h61v-312l107 62v-68l-107 -62v-321h-61v286l-82 -47v68l82 47v347z" />
    <glyph glyph-name="Nacute" unicode="&#x143;" horiz-adv-x="776" 
d="M596 0l-453 615v-615h-60v700h72l452 -614v614h60v-700h-71zM338 785l61 124l68 -22l-83 -102h-46z" />
    <glyph glyph-name="nacute" unicode="&#x144;" horiz-adv-x="585" 
d="M319 531q44 0 81.5 -16t64.5 -44.5t42.5 -67t15.5 -83.5v-320h-59v320q0 32 -11 59t-30.5 47t-47.5 31.5t-61 11.5q-36 0 -68 -13.5t-56.5 -37t-38.5 -55t-14 -68.5v-295h-59v521h59v-78q29 40 78.5 64t103.5 24zM284 590l61 124l68 -22l-83 -102h-46z" />
    <glyph glyph-name="uni0145" unicode="&#x145;" horiz-adv-x="776" 
d="M596 0l-453 615v-615h-60v700h72l452 -614v614h60v-700h-71zM430 -98q0 -62 -57 -98l-24 38q10 7 18 17t9 27q-13 2 -21.5 13t-8.5 24q0 15 11 26t28 11q13 0 21.5 -5.5t14 -14t7.5 -18.5t2 -20z" />
    <glyph glyph-name="uni0146" unicode="&#x146;" horiz-adv-x="585" 
d="M319 531q44 0 81.5 -16t64.5 -44.5t42.5 -67t15.5 -83.5v-320h-59v320q0 32 -11 59t-30.5 47t-47.5 31.5t-61 11.5q-36 0 -68 -13.5t-56.5 -37t-38.5 -55t-14 -68.5v-295h-59v521h59v-78q29 40 78.5 64t103.5 24zM334 -98q0 -62 -57 -98l-24 38q10 7 18 17t9 27
q-13 2 -21.5 13t-8.5 24q0 15 11 26t28 11q13 0 21.5 -5.5t14 -14t7.5 -18.5t2 -20z" />
    <glyph glyph-name="Ncaron" unicode="&#x147;" horiz-adv-x="776" 
d="M596 0l-453 615v-615h-60v700h72l452 -614v614h60v-700h-71zM233 897h55l90 -85l90 85h54l-113 -130h-63z" />
    <glyph glyph-name="ncaron" unicode="&#x148;" horiz-adv-x="585" 
d="M319 531q44 0 81.5 -16t64.5 -44.5t42.5 -67t15.5 -83.5v-320h-59v320q0 32 -11 59t-30.5 47t-47.5 31.5t-61 11.5q-36 0 -68 -13.5t-56.5 -37t-38.5 -55t-14 -68.5v-295h-59v521h59v-78q29 40 78.5 64t103.5 24zM138 697h55l90 -85l90 85h54l-113 -130h-63z" />
    <glyph glyph-name="napostrophe" unicode="&#x149;" horiz-adv-x="684" 
d="M412 531q44 0 81.5 -16t64.5 -44.5t42.5 -67t15.5 -83.5v-320h-59v320q0 32 -11 59t-30.5 47t-47.5 31.5t-61 11.5q-36 0 -68 -13.5t-56.5 -37t-38.5 -55t-14 -68.5v-295h-59v521h59v-78q29 40 78.5 64t103.5 24zM126 479q0 -62 -57 -98l-24 38q10 7 18 17t9 27
q-13 2 -21.5 13t-8.5 24q0 15 11 26t28 11q13 0 21.5 -5.5t14 -14t7.5 -18.5t2 -20z" />
    <glyph glyph-name="Omacron" unicode="&#x14c;" horiz-adv-x="793" 
d="M682 350q0 63 -22 118t-60.5 96t-90.5 65t-111 24t-110.5 -24t-90 -65t-60.5 -96t-22 -118t22.5 -118t61 -96t90 -65t110.5 -24t110.5 24t90 65t60.5 96t22 118zM54 349q0 75 27 141t74 114.5t110 77t134 28.5t134 -28t109.5 -77t73.5 -114.5t27 -140.5t-27 -140.5
t-73.5 -114.5t-109.5 -77t-134 -28t-134 28t-110 76.5t-74 114t-27 140.5zM523 852v-49h-254v49h254z" />
    <glyph glyph-name="omacron" unicode="&#x14d;" horiz-adv-x="624" 
d="M518 259q0 44 -16.5 82.5t-45 68t-66 46.5t-80.5 17q-42 0 -79.5 -17t-66 -46.5t-45.5 -68t-17 -82.5q0 -43 17 -81.5t45.5 -67t66 -45.5t79.5 -17q43 0 80.5 16.5t66 45.5t45 67.5t16.5 81.5zM42 259q0 57 21 106.5t57.5 86t85.5 58t104 21.5q56 0 105 -21.5t85.5 -58
t57.5 -86t21 -106.5q0 -56 -21 -105t-57.5 -85.5t-85.5 -57.5t-105 -21q-55 0 -104 21t-85.5 57.5t-57.5 85.5t-21 105zM439 652v-49h-254v49h254z" />
    <glyph glyph-name="Obreve" unicode="&#x14e;" horiz-adv-x="782" 
d="M676 350q0 63 -22 118t-60.5 96t-90.5 65t-111 24t-110.5 -24t-90 -65t-60.5 -96t-22 -118t22.5 -118t61 -96t90 -65t110.5 -24t110.5 24t90 65t60.5 96t22 118zM48 349q0 75 27 141t74 114.5t110 77t134 28.5t134 -28t109.5 -77t73.5 -114.5t27 -140.5t-27 -140.5
t-73.5 -114.5t-109.5 -77t-134 -28t-134 28t-110 76.5t-74 114t-27 140.5zM316 886q37 -32 77 -32q21 0 39.5 7.5t38.5 24.5l36 -36q-22 -23 -52 -35.5t-62 -12.5t-60.5 12t-51.5 36z" />
    <glyph glyph-name="obreve" unicode="&#x14f;" horiz-adv-x="624" 
d="M518 259q0 44 -16.5 82.5t-45 68t-66 46.5t-80.5 17q-42 0 -79.5 -17t-66 -46.5t-45.5 -68t-17 -82.5q0 -43 17 -81.5t45.5 -67t66 -45.5t79.5 -17q43 0 80.5 16.5t66 45.5t45 67.5t16.5 81.5zM42 259q0 57 21 106.5t57.5 86t85.5 58t104 21.5q56 0 105 -21.5t85.5 -58
t57.5 -86t21 -106.5q0 -56 -21 -105t-57.5 -85.5t-85.5 -57.5t-105 -21q-55 0 -104 21t-85.5 57.5t-57.5 85.5t-21 105zM237 686q37 -32 77 -32q21 0 39.5 7.5t38.5 24.5l36 -36q-22 -23 -52 -35.5t-62 -12.5t-60.5 12t-51.5 36z" />
    <glyph glyph-name="Ohungarumlaut" unicode="&#x150;" horiz-adv-x="793" 
d="M682 350q0 63 -22 118t-60.5 96t-90.5 65t-111 24t-110.5 -24t-90 -65t-60.5 -96t-22 -118t22.5 -118t61 -96t90 -65t110.5 -24t110.5 24t90 65t60.5 96t22 118zM54 349q0 75 27 141t74 114.5t110 77t134 28.5t134 -28t109.5 -77t73.5 -114.5t27 -140.5t-27 -140.5
t-73.5 -114.5t-109.5 -77t-134 -28t-134 28t-110 76.5t-74 114t-27 140.5zM263 792l58 118l65 -22l-79 -96h-44zM444 792l57 118l65 -22l-78 -96h-44z" />
    <glyph glyph-name="ohungarumlaut" unicode="&#x151;" horiz-adv-x="620" 
d="M379.656 259q0 44 -5.5 82.5q-5.49902 38.5 -14.999 68q-9.49902 29.5 -21.998 46.5q-12.5 17 -26.832 17q-13.999 0 -26.498 -17q-12.5 -17 -21.999 -46.5q-9.5 -29.5 -15.166 -68t-5.66602 -82.5q0 -43 5.66602 -81.5t15.166 -67q9.49902 -28.5 21.999 -45.5
q12.499 -17 26.498 -17q14.332 0 26.832 16.5q12.499 16.5 21.998 45.5q9.5 29 14.999 67.5q5.5 38.5 5.5 81.5zM220.999 259q0 57 7 106.5q6.99902 49.5 19.165 86t28.498 58q16.333 21.5 34.665 21.5q18.665 0 34.998 -21.5q16.332 -21.5 28.498 -58t19.165 -86
q7 -49.5 7 -106.5q0 -56 -7 -105q-6.99902 -49 -19.165 -85.5t-28.498 -57.5q-16.333 -21 -34.998 -21q-18.332 0 -34.665 21q-16.332 21 -28.498 57.5t-19.165 85.5q-7 49 -7 105zM193 591l58 118l65 -22l-79 -96h-44zM374 591l57 118l65 -22l-78 -96h-44z" />
    <glyph glyph-name="OE" unicode="&#x152;" horiz-adv-x="906" 
d="M50 349q0 78 27.5 142.5t74.5 111t110 72.5t134 26h466v-57h-399v-228h348v-57h-348v-302h399v-57h-466q-71 0 -134 26.5t-110 73t-74.5 110.5t-27.5 139zM111 350q0 -63 22 -116.5t61 -92.5t92.5 -61t116.5 -22v586q-66 0 -120 -22.5t-92 -62t-59 -93.5t-21 -116z" />
    <glyph glyph-name="oe" unicode="&#x153;" horiz-adv-x="1097" 
d="M310 -10q-55 0 -104 21t-86 57.5t-58 85.5t-21 105q0 57 21.5 106.5t58 86.5t85.5 58.5t104 21.5q80 0 143.5 -41.5t96.5 -108.5q17 33 41.5 60.5t55 47t67 30t75.5 10.5q59 0 109.5 -23.5t87 -64t55.5 -95t15 -116.5h-473q4 -39 22 -72.5t46 -58t63 -38.5t74 -14
q50 0 93.5 20.5t70.5 57.5l41 -41q-35 -45 -89 -70t-116 -25q-39 0 -75 10.5t-67 30t-55.5 46.5t-40.5 60q-34 -66 -97 -106.5t-143 -40.5zM310 48q43 0 81 16.5t66.5 45.5t45 67.5t16.5 81.5q0 44 -17 83t-45.5 68t-66 46t-80.5 17q-42 0 -79.5 -17.5t-66 -46.5t-45.5 -68
t-17 -82t17 -81.5t45.5 -67t66 -45.5t79.5 -17zM788 472q-38 0 -72.5 -13.5t-61.5 -37.5t-46 -57.5t-26 -74.5h411q-4 40 -22.5 73.5t-46 58t-62.5 38t-74 13.5z" />
    <glyph glyph-name="Racute" unicode="&#x154;" horiz-adv-x="607" 
d="M519 492q0 33 -13 60.5t-36.5 47.5t-55 31.5t-69.5 11.5h-204v-300h206q36 0 67.5 11.5t55 31.5t36.5 47.5t13 58.5zM141 286v-286h-60v700h264q50 0 92.5 -16t74 -44t49.5 -66t18 -82q0 -43 -17.5 -81t-48.5 -65.5t-73.5 -43.5t-91.5 -16h-39l253 -286h-80l-253 286h-88
zM254 785l61 124l68 -22l-83 -102h-46z" />
    <glyph glyph-name="racute" unicode="&#x155;" horiz-adv-x="381" 
d="M137 424q43 59 97.5 80t124.5 21l-21 -61q-43 0 -80 -15t-64 -41.5t-42 -63.5t-15 -81v-263h-61v520h61v-96zM151 585l61 124l68 -22l-83 -102h-46z" />
    <glyph glyph-name="uni0156" unicode="&#x156;" horiz-adv-x="626" 
d="M519 492q0 33 -13 60.5t-36.5 47.5t-55 31.5t-69.5 11.5h-204v-300h206q36 0 67.5 11.5t55 31.5t36.5 47.5t13 58.5zM141 286v-286h-60v700h264q50 0 92.5 -16t74 -44t49.5 -66t18 -82q0 -43 -17.5 -81t-48.5 -65.5t-73.5 -43.5t-91.5 -16h-39l253 -286h-80l-253 286h-88
zM355 -98q0 -62 -57 -98l-24 38q10 7 18 17t9 27q-13 2 -21.5 13t-8.5 24q0 15 11 26t28 11q13 0 21.5 -5.5t14 -14t7.5 -18.5t2 -20z" />
    <glyph glyph-name="uni0157" unicode="&#x157;" horiz-adv-x="381" 
d="M137 424q43 59 97.5 80t124.5 21l-21 -61q-43 0 -80 -15t-64 -41.5t-42 -63.5t-15 -81v-263h-61v520h61v-96zM148 -98q0 -62 -57 -98l-24 38q10 7 18 17t9 27q-13 2 -21.5 13t-8.5 24q0 15 11 26t28 11q13 0 21.5 -5.5t14 -14t7.5 -18.5t2 -20z" />
    <glyph glyph-name="Rcaron" unicode="&#x158;" horiz-adv-x="607" 
d="M519 492q0 33 -13 60.5t-36.5 47.5t-55 31.5t-69.5 11.5h-204v-300h206q36 0 67.5 11.5t55 31.5t36.5 47.5t13 58.5zM141 286v-286h-60v700h264q50 0 92.5 -16t74 -44t49.5 -66t18 -82q0 -43 -17.5 -81t-48.5 -65.5t-73.5 -43.5t-91.5 -16h-39l253 -286h-80l-253 286h-88
zM149 897h55l90 -85l90 85h54l-113 -130h-63z" />
    <glyph glyph-name="rcaron" unicode="&#x159;" horiz-adv-x="381" 
d="M137 424q43 59 97.5 80t124.5 21l-21 -61q-43 0 -80 -15t-64 -41.5t-42 -63.5t-15 -81v-263h-61v520h61v-96zM46 697h55l90 -85l90 85h54l-113 -130h-63z" />
    <glyph glyph-name="Sacute" unicode="&#x15a;" horiz-adv-x="577" 
d="M89 167q9 -26 27.5 -47.5t45 -37t58.5 -24t66 -8.5q39 0 72.5 11t58 31t38 47t13.5 59q0 54 -43 87t-142 55q-120 26 -178 72.5t-58 117.5q0 39 17.5 72t48 57.5t73 38t93.5 13.5q42 0 79.5 -9t67.5 -26.5t52 -41.5t33 -54l-50 -22q-16 42 -66 68t-116 26q-38 0 -70 -9
t-55 -25t-36 -38t-13 -48q0 -48 47 -82t147 -56q119 -26 174 -72.5t55 -120.5q0 -45 -19 -83t-52 -66.5t-77.5 -44.5t-95.5 -16q-42 0 -81 11t-71 31t-56.5 48.5t-37.5 62.5zM262 785l61 124l68 -22l-83 -102h-46z" />
    <glyph glyph-name="sacute" unicode="&#x15b;" horiz-adv-x="487" 
d="M89 133q20 -38 59.5 -60.5t87.5 -22.5q29 0 54.5 8t45 21.5t30.5 32.5t11 41q0 31 -24.5 49.5t-61 31.5t-79 24t-79 26.5t-61 40t-24.5 63.5q0 31 15 57t40.5 45.5t60 30.5t73.5 11q64 0 115 -26.5t73 -74.5l-52 -28q-17 33 -52.5 51t-80.5 18q-26 0 -49.5 -6.5
t-41.5 -17.5t-29 -25.5t-11 -31.5q0 -25 24.5 -40t61 -26.5t79.5 -23t79.5 -29.5t61 -46t24.5 -72q0 -36 -16 -66t-43.5 -51.5t-64.5 -34t-80 -12.5q-67 0 -118.5 30.5t-77.5 84.5zM221 585l61 124l68 -22l-83 -102h-46z" />
    <glyph glyph-name="Scircumflex" unicode="&#x15c;" horiz-adv-x="577" 
d="M89 167q9 -26 27.5 -47.5t45 -37t58.5 -24t66 -8.5q39 0 72.5 11t58 31t38 47t13.5 59q0 54 -43 87t-142 55q-120 26 -178 72.5t-58 117.5q0 39 17.5 72t48 57.5t73 38t93.5 13.5q42 0 79.5 -9t67.5 -26.5t52 -41.5t33 -54l-50 -22q-16 42 -66 68t-116 26q-38 0 -70 -9
t-55 -25t-36 -38t-13 -48q0 -48 47 -82t147 -56q119 -26 174 -72.5t55 -120.5q0 -45 -19 -83t-52 -66.5t-77.5 -44.5t-95.5 -16q-42 0 -81 11t-71 31t-56.5 48.5t-37.5 62.5zM274 897h63l113 -130h-54l-90 86l-90 -86h-55z" />
    <glyph glyph-name="scircumflex" unicode="&#x15d;" horiz-adv-x="487" 
d="M89 133q20 -38 59.5 -60.5t87.5 -22.5q29 0 54.5 8t45 21.5t30.5 32.5t11 41q0 31 -24.5 49.5t-61 31.5t-79 24t-79 26.5t-61 40t-24.5 63.5q0 31 15 57t40.5 45.5t60 30.5t73.5 11q64 0 115 -26.5t73 -74.5l-52 -28q-17 33 -52.5 51t-80.5 18q-26 0 -49.5 -6.5
t-41.5 -17.5t-29 -25.5t-11 -31.5q0 -25 24.5 -40t61 -26.5t79.5 -23t79.5 -29.5t61 -46t24.5 -72q0 -36 -16 -66t-43.5 -51.5t-64.5 -34t-80 -12.5q-67 0 -118.5 30.5t-77.5 84.5zM205 697h63l113 -130h-54l-90 86l-90 -86h-55z" />
    <glyph glyph-name="Scedilla" unicode="&#x15e;" horiz-adv-x="574" 
d="M264 -8q-39 2 -74.5 13.5t-65.5 31.5t-52.5 47t-34.5 60l51 23q9 -26 27.5 -47.5t45 -37t58.5 -24t66 -8.5q39 0 72.5 11t58 31t38 47t13.5 59q0 54 -43 87t-142 55q-120 26 -178 72.5t-58 117.5q0 39 17.5 72t48 57.5t73 38t93.5 13.5q42 0 79.5 -9t67.5 -26.5t52 -41.5
t33 -54l-50 -22q-16 42 -66 68t-116 26q-38 0 -70 -9t-55 -25t-36 -38t-13 -48q0 -48 47 -82t147 -56q119 -26 174 -72.5t55 -120.5q0 -42 -17 -78.5t-46.5 -64t-70 -45t-87.5 -21.5l-9 -28q30 0 51.5 -13.5t21.5 -47.5t-25.5 -56t-62.5 -22q-21 0 -41 8t-37 25l13 41
q27 -30 61 -30q20 0 32.5 10t12.5 25q0 13 -9 20t-22 7q-16 0 -30 -11l-16 18z" />
    <glyph glyph-name="scedilla" unicode="&#x15f;" horiz-adv-x="486" 
d="M217 -10q-60 5 -106 34.5t-69 79.5l50 29q20 -39 59.5 -61.5t87.5 -22.5q29 0 54.5 8t44.5 21.5t30.5 32.5t11.5 41q0 31 -24.5 50t-61 32t-79 24t-79 26.5t-61 40t-24.5 63.5q0 31 14.5 57t40 45.5t60 30.5t74.5 11q64 0 115 -27.5t73 -73.5l-51 -28q-17 32 -53.5 50.5
t-80.5 18.5q-26 0 -50 -6.5t-42 -17.5t-29 -25.5t-11 -31.5q0 -25 24.5 -40t61.5 -26.5t79.5 -23.5t79.5 -30t61.5 -45.5t24.5 -71.5q0 -33 -14 -61.5t-38.5 -50.5t-57.5 -35.5t-72 -16.5l-8 -26q30 0 51 -13.5t21 -47.5t-25 -56t-63 -22q-44 0 -78 32l13 42
q13 -14 29 -21.5t32 -7.5q20 0 33 9.5t13 24.5q0 13 -9 20t-22 7q-16 0 -30 -11l-17 18z" />
    <glyph glyph-name="Scaron" unicode="&#x160;" horiz-adv-x="577" 
d="M89 167q9 -26 27.5 -47.5t45 -37t58.5 -24t66 -8.5q39 0 72.5 11t58 31t38 47t13.5 59q0 54 -43 87t-142 55q-120 26 -178 72.5t-58 117.5q0 39 17.5 72t48 57.5t73 38t93.5 13.5q42 0 79.5 -9t67.5 -26.5t52 -41.5t33 -54l-50 -22q-16 42 -66 68t-116 26q-38 0 -70 -9
t-55 -25t-36 -38t-13 -48q0 -48 47 -82t147 -56q119 -26 174 -72.5t55 -120.5q0 -45 -19 -83t-52 -66.5t-77.5 -44.5t-95.5 -16q-42 0 -81 11t-71 31t-56.5 48.5t-37.5 62.5zM160 897h55l90 -85l90 85h54l-113 -130h-63z" />
    <glyph glyph-name="scaron" unicode="&#x161;" horiz-adv-x="487" 
d="M88 133q20 -38 59.5 -60.5t87.5 -22.5q29 0 54.5 8t45 21.5t30.5 32.5t11 41q0 31 -24.5 49.5t-61 31.5t-79 24t-79 26.5t-61 40t-24.5 63.5q0 31 15 57t40.5 45.5t60 30.5t73.5 11q64 0 115 -26.5t73 -74.5l-52 -28q-17 33 -52.5 51t-80.5 18q-26 0 -49.5 -6.5
t-41.5 -17.5t-29 -25.5t-11 -31.5q0 -25 24.5 -40t61 -26.5t79.5 -23t79.5 -29.5t61 -46t24.5 -72q0 -36 -16 -66t-43.5 -51.5t-64.5 -34t-80 -12.5q-67 0 -118.5 30.5t-77.5 84.5zM91 697h55l90 -85l90 85h54l-113 -130h-63z" />
    <glyph glyph-name="uni0162" unicode="&#x162;" horiz-adv-x="603" 
d="M297 -130q20 0 32.5 10t12.5 25q0 13 -9 20t-22 7q-16 0 -30 -11l-16 18l20 61h-13v644h-230v57h520v-57h-230v-644h-4l-12 -35q29 0 51 -14t22 -47q0 -34 -25.5 -56t-62.5 -22q-45 0 -78 33l13 41q12 -14 28 -22t33 -8z" />
    <glyph glyph-name="uni0163" unicode="&#x163;" horiz-adv-x="357" 
d="M241 -134q20 0 32.5 10t12.5 25q0 13 -9 20t-22 7q-16 0 -30 -11l-16 18l19 56q-55 4 -87 41t-32 118v314h-71v57h71v180h60v-180h101l18 -57h-119v-317q0 -53 19 -76t63 -23q17 0 29.5 3t28.5 11l18 -54q-17 -9 -29 -12t-28 -5l-10 -30q30 0 51.5 -13.5t21.5 -47.5
t-25.5 -56t-62.5 -22q-21 0 -41 8t-37 25l13 41q27 -30 61 -30z" />
    <glyph glyph-name="Tcaron" unicode="&#x164;" horiz-adv-x="603" 
d="M555 643h-230v-643h-60v643h-230v57h520v-57zM156 897h55l90 -85l90 85h54l-113 -130h-63z" />
    <glyph glyph-name="tcaron" unicode="&#x165;" horiz-adv-x="463" 
d="M327 9q-35 -19 -81 -19q-136 0 -136 160v313h-71v57h71v180h60v-180h100l18 -57h-118v-315q0 -54 19 -77t63 -23q17 0 29.5 3.5t28.5 11.5zM417 643q0 -72 -63 -112l-23 38q14 9 23 23t9 30q-19 2 -31 15.5t-12 30.5q0 19 13 33t32 14q24 0 38 -21.5t14 -50.5z" />
    <glyph glyph-name="Tbar" unicode="&#x166;" horiz-adv-x="590" 
d="M555 701v-57h-230v-196h101v-57h-101v-391h-60v391h-93v57h93v196h-230v57h520z" />
    <glyph glyph-name="tbar" unicode="&#x167;" horiz-adv-x="370" 
d="M251 49q43 0 75 26l17 -55q-37 -30 -90 -30q-70 0 -107 41t-37 119v313h-71v57h71v77h-69v48h69v55h60v-55h99l16 -48h-115v-77h97l19 -57h-116v-316q0 -98 82 -98z" />
    <glyph glyph-name="Utilde" unicode="&#x168;" horiz-adv-x="746" 
d="M84 700h60v-452q0 -41 18 -77.5t49.5 -64t73.5 -43.5t90 -16q47 0 88.5 15.5t72.5 43t48.5 64t17.5 78.5v452h60v-452q0 -54 -22.5 -101t-61.5 -82t-91.5 -55.5t-111.5 -20.5t-112 20.5t-92.5 56t-63 82.5t-23.5 100v452zM221 802q2 49 25.5 81t60.5 32q22 0 40 -11.5
t34 -25.5t30.5 -25.5t29.5 -11.5q18 0 28.5 19t12.5 53l42 -3q-2 -50 -25.5 -81.5t-59.5 -31.5q-22 0 -40 11.5t-33.5 25.5t-29.5 25.5t-29 11.5q-19 0 -30.5 -20.5t-13.5 -52.5z" />
    <glyph glyph-name="utilde" unicode="&#x169;" horiz-adv-x="584" 
d="M276 -11q-44 0 -81.5 16.5t-64.5 45t-42.5 67t-15.5 82.5v320h60v-320q0 -32 11 -59t30.5 -47t47 -31.5t61.5 -11.5q36 0 68 13.5t56.5 37t38.5 55.5t14 68v295h60v-520h-60v78q-29 -41 -78.5 -65t-104.5 -24zM140 602q2 49 25.5 81t60.5 32q22 0 40 -11.5t34 -25.5
t30.5 -25.5t29.5 -11.5q18 0 28.5 19t12.5 53l42 -3q-2 -50 -25.5 -81.5t-59.5 -31.5q-22 0 -40 11.5t-33.5 25.5t-29.5 25.5t-29 11.5q-19 0 -30.5 -20.5t-13.5 -52.5z" />
    <glyph glyph-name="Umacron" unicode="&#x16a;" horiz-adv-x="746" 
d="M84 700h60v-452q0 -41 18 -77.5t49.5 -64t73.5 -43.5t90 -16q47 0 88.5 15.5t72.5 43t48.5 64t17.5 78.5v452h60v-452q0 -54 -22.5 -101t-61.5 -82t-91.5 -55.5t-111.5 -20.5t-112 20.5t-92.5 56t-63 82.5t-23.5 100v452zM500 852v-49h-254v49h254z" />
    <glyph glyph-name="umacron" unicode="&#x16b;" horiz-adv-x="584" 
d="M276 -11q-44 0 -81.5 16.5t-64.5 45t-42.5 67t-15.5 82.5v320h60v-320q0 -32 11 -59t30.5 -47t47 -31.5t61.5 -11.5q36 0 68 13.5t56.5 37t38.5 55.5t14 68v295h60v-520h-60v78q-29 -41 -78.5 -65t-104.5 -24zM419 652v-49h-254v49h254z" />
    <glyph glyph-name="Ubreve" unicode="&#x16c;" horiz-adv-x="746" 
d="M84 700h60v-452q0 -41 18 -77.5t49.5 -64t73.5 -43.5t90 -16q47 0 88.5 15.5t72.5 43t48.5 64t17.5 78.5v452h60v-452q0 -54 -22.5 -101t-61.5 -82t-91.5 -55.5t-111.5 -20.5t-112 20.5t-92.5 56t-63 82.5t-23.5 100v452zM298 886q37 -32 77 -32q21 0 39.5 7.5t38.5 24.5
l36 -36q-22 -23 -52 -35.5t-62 -12.5t-60.5 12t-51.5 36z" />
    <glyph glyph-name="ubreve" unicode="&#x16d;" horiz-adv-x="584" 
d="M276 -11q-44 0 -81.5 16.5t-64.5 45t-42.5 67t-15.5 82.5v320h60v-320q0 -32 11 -59t30.5 -47t47 -31.5t61.5 -11.5q36 0 68 13.5t56.5 37t38.5 55.5t14 68v295h60v-520h-60v78q-29 -41 -78.5 -65t-104.5 -24zM217 686q37 -32 77 -32q21 0 39.5 7.5t38.5 24.5l36 -36
q-22 -23 -52 -35.5t-62 -12.5t-60.5 12t-51.5 36z" />
    <glyph glyph-name="Uring" unicode="&#x16e;" horiz-adv-x="746" 
d="M84 700h60v-452q0 -41 18 -77.5t49.5 -64t73.5 -43.5t90 -16q47 0 88.5 15.5t72.5 43t48.5 64t17.5 78.5v452h60v-452q0 -54 -22.5 -101t-61.5 -82t-91.5 -55.5t-111.5 -20.5t-112 20.5t-92.5 56t-63 82.5t-23.5 100v452zM284 845q0 18 7 34t19 28t28 19t34 7t34.5 -7
t28.5 -19t19 -28t7 -34q-1 -37 -26.5 -63t-62.5 -26q-18 0 -34 7t-28 19t-19 28.5t-7 34.5zM324 845q0 -20 14 -34.5t34 -14.5t34 14.5t14 34.5t-14 34.5t-34 14.5t-34 -14.5t-14 -34.5z" />
    <glyph glyph-name="uring" unicode="&#x16f;" horiz-adv-x="584" 
d="M276 -11q-44 0 -81.5 16.5t-64.5 45t-42.5 67t-15.5 82.5v320h60v-320q0 -32 11 -59t30.5 -47t47 -31.5t61.5 -11.5q36 0 68 13.5t56.5 37t38.5 55.5t14 68v295h60v-520h-60v78q-29 -41 -78.5 -65t-104.5 -24zM203 663q0 18 7 34t19 28t28 19t34 7t34.5 -7t28.5 -19
t19 -28t7 -34q-1 -37 -26.5 -63t-62.5 -26q-18 0 -34 7t-28 19t-19 28.5t-7 34.5zM243 663q0 -20 14 -34.5t34 -14.5t34 14.5t14 34.5t-14 34.5t-34 14.5t-34 -14.5t-14 -34.5z" />
    <glyph glyph-name="Uhungarumlaut" unicode="&#x170;" horiz-adv-x="746" 
d="M84 700h60v-452q0 -41 18 -77.5t49.5 -64t73.5 -43.5t90 -16q47 0 88.5 15.5t72.5 43t48.5 64t17.5 78.5v452h60v-452q0 -54 -22.5 -101t-61.5 -82t-91.5 -55.5t-111.5 -20.5t-112 20.5t-92.5 56t-63 82.5t-23.5 100v452zM246 792l58 118l65 -22l-79 -96h-44zM427 792
l57 118l65 -22l-78 -96h-44z" />
    <glyph glyph-name="uhungarumlaut" unicode="&#x171;" horiz-adv-x="584" 
d="M276 -11q-44 0 -81.5 16.5t-64.5 45t-42.5 67t-15.5 82.5v320h60v-320q0 -32 11 -59t30.5 -47t47 -31.5t61.5 -11.5q36 0 68 13.5t56.5 37t38.5 55.5t14 68v295h60v-520h-60v78q-29 -41 -78.5 -65t-104.5 -24zM170 592l58 118l65 -22l-79 -96h-44zM351 592l57 118l65 -22
l-78 -96h-44z" />
    <glyph glyph-name="Uogonek" unicode="&#x172;" horiz-adv-x="746" 
d="M350 -10q-55 4 -103.5 26.5t-84.5 57.5t-57 80t-21 95v451h60v-451q0 -42 18 -78.5t49.5 -64t73.5 -43.5t90 -16q47 0 88.5 16t72.5 43t48.5 64t17.5 79v451h60v-451q0 -50 -19.5 -94.5t-54 -79t-81 -56.5t-99.5 -28q-8 -4 -11 -7q-21 -18 -21 -47q0 -28 18 -46.5
t46 -18.5q11 0 25 5.5t22 13.5l26 -34q-32 -29 -73 -29q-24 0 -44 8t-34.5 22.5t-23 33.5t-8.5 42q0 31 20 56z" />
    <glyph glyph-name="uogonek" unicode="&#x173;" horiz-adv-x="591" 
d="M459 78q-29 -41 -78 -65t-103 -24q-45 0 -82.5 16t-65 44.5t-43 67t-15.5 83.5v320h60v-320q0 -32 11 -59.5t30.5 -47.5t47 -31t60.5 -11q36 0 68.5 13.5t57 37t38.5 55.5t14 68v295h60v-520h-2q-26 -2 -42.5 -19t-16.5 -43q0 -27 18 -45.5t43 -18.5q14 0 28 5.5t23 13.5
l25 -35q-33 -28 -75 -28q-46 0 -77 29.5t-31 73.5q0 27 12.5 48.5t34.5 33.5v63z" />
    <glyph glyph-name="Wcircumflex" unicode="&#x174;" horiz-adv-x="1075" 
d="M572 644l194 -560l212 616h63l-241 -700h-68l-194 561l-194 -561h-68l-242 700h63l213 -616l194 560h68zM506 897h63l113 -130h-54l-90 86l-90 -86h-55z" />
    <glyph glyph-name="wcircumflex" unicode="&#x175;" horiz-adv-x="847" 
d="M457 509l147 -400l150 411h64l-190 -520h-48l-155 423l-156 -423h-50l-189 520h64l150 -414l147 403h66zM392 697h63l113 -130h-54l-90 86l-90 -86h-55z" />
    <glyph glyph-name="Ycircumflex" unicode="&#x176;" horiz-adv-x="627" 
d="M34 700h69l209 -339l212 339h70l-252 -403l1 -297h-60l-1 297zM282 897h63l113 -130h-54l-90 86l-90 -86h-55z" />
    <glyph glyph-name="ycircumflex" unicode="&#x177;" horiz-adv-x="580" 
d="M88 -134q30 -13 53 -13q25 0 41.5 13t28.5 33.5t22 46t20 51.5l-221 523h66l189 -447l192 447h66l-275 -638q-19 -45 -53 -67.5t-75 -22.5q-36 0 -72 18zM255 697h63l113 -130h-54l-90 86l-90 -86h-55z" />
    <glyph glyph-name="Ydieresis" unicode="&#x178;" horiz-adv-x="627" 
d="M34 700h69l209 -339l212 339h70l-252 -403l1 -297h-60l-1 297zM185 804q0 17 10.5 28t27.5 11t28 -11t11 -28t-11 -28t-28 -11t-27.5 11t-10.5 28zM362 804q0 17 10.5 28t27.5 11t28 -11t11 -28t-11 -28t-28 -11t-27.5 11t-10.5 28z" />
    <glyph glyph-name="Zacute" unicode="&#x179;" horiz-adv-x="625" 
d="M34 62l487 582h-476v56h549v-61l-487 -582h468v-57h-541v62zM268 778l61 124l68 -22l-83 -102h-46z" />
    <glyph glyph-name="zacute" unicode="&#x17a;" horiz-adv-x="486" 
d="M457 456l-341 -397h341v-59h-416v63l340 398h-341v59h417v-64zM214 585l61 124l68 -22l-83 -102h-46z" />
    <glyph glyph-name="Zdotaccent" unicode="&#x17b;" horiz-adv-x="625" 
d="M34 62l487 582h-476v56h549v-61l-487 -582h468v-57h-541v62zM268 838q0 17 10.5 28t27.5 11t28 -11t11 -28t-11 -28t-28 -11t-27.5 11t-10.5 28z" />
    <glyph glyph-name="zdotaccent" unicode="&#x17c;" horiz-adv-x="486" 
d="M457 456l-341 -397h341v-59h-416v63l340 398h-341v59h417v-64zM205 631q0 17 10.5 28t27.5 11t28 -11t11 -28t-11 -28t-28 -11t-27.5 11t-10.5 28z" />
    <glyph glyph-name="Zcaron" unicode="&#x17d;" horiz-adv-x="625" 
d="M34 62l487 582h-476v56h549v-61l-487 -582h468v-57h-541v62zM167 897h55l90 -85l90 85h54l-113 -130h-63z" />
    <glyph glyph-name="zcaron" unicode="&#x17e;" horiz-adv-x="486" 
d="M457 456l-341 -397h341v-59h-416v63l340 398h-341v59h417v-64zM102 695h55l90 -85l90 85h54l-113 -130h-63z" />
    <glyph glyph-name="uni0218" unicode="&#x218;" horiz-adv-x="626" 
d="M88 167q9 -26 27.5 -47.5t45 -37t58.5 -24t66 -8.5q39 0 72.5 11t58 31t38 47t13.5 59q0 54 -43 87t-142 55q-120 26 -178 72.5t-58 117.5q0 39 17.5 72t48 57.5t73 38t93.5 13.5q42 0 79.5 -9t67.5 -26.5t52 -41.5t33 -54l-50 -22q-16 42 -66 68t-116 26q-38 0 -70 -9
t-55 -25t-36 -38t-13 -48q0 -48 47 -82t147 -56q119 -26 174 -72.5t55 -120.5q0 -45 -19 -83t-52 -66.5t-77.5 -44.5t-95.5 -16q-42 0 -81 11t-71 31t-56.5 48.5t-37.5 62.5zM355 -98q0 -62 -57 -98l-24 38q10 7 18 17t9 27q-13 2 -21.5 13t-8.5 24q0 15 11 26t28 11
q13 0 21.5 -5.5t14 -14t7.5 -18.5t2 -20z" />
    <glyph glyph-name="uni0219" unicode="&#x219;" horiz-adv-x="488" 
d="M87 133q20 -38 59.5 -60.5t87.5 -22.5q29 0 54.5 8t45 21.5t30.5 32.5t11 41q0 31 -24.5 49.5t-61 31.5t-79 24t-79 26.5t-61 40t-24.5 63.5q0 31 15 57t40.5 45.5t60 30.5t73.5 11q64 0 115 -26.5t73 -74.5l-52 -28q-17 33 -52.5 51t-80.5 18q-26 0 -49.5 -6.5
t-41.5 -17.5t-29 -25.5t-11 -31.5q0 -25 24.5 -40t61 -26.5t79.5 -23t79.5 -29.5t61 -46t24.5 -72q0 -36 -16 -66t-43.5 -51.5t-64.5 -34t-80 -12.5q-67 0 -118.5 30.5t-77.5 84.5zM279 -98q0 -62 -57 -98l-24 38q10 7 18 17t9 27q-13 2 -21.5 13t-8.5 24q0 15 11 26t28 11
q13 0 21.5 -5.5t14 -14t7.5 -18.5t2 -20z" />
    <glyph glyph-name="uni021A" unicode="&#x21a;" horiz-adv-x="603" 
d="M555 643h-230v-643h-60v643h-230v57h520v-57zM345 -91q0 -62 -57 -98l-24 38q10 7 18 17t9 27q-13 2 -21.5 13t-8.5 24q0 15 11 26t28 11q13 0 21.5 -5.5t14 -14t7.5 -18.5t2 -20z" />
    <glyph glyph-name="uni021B" unicode="&#x21b;" horiz-adv-x="376" 
d="M327 9q-35 -19 -81 -19q-136 0 -136 160v313h-71v57h71v180h60v-180h100l18 -57h-118v-315q0 -54 19 -77t63 -23q17 0 29.5 3.5t28.5 11.5zM284 -98q0 -62 -57 -98l-24 38q10 7 18 17t9 27q-13 2 -21.5 13t-8.5 24q0 15 11 26t28 11q13 0 21.5 -5.5t14 -14t7.5 -18.5
t2 -20z" />
    <glyph glyph-name="uni0237" unicode="&#x237;" horiz-adv-x="233" 
d="M147 -42q0 -82 -37 -124.5t-101 -42.5q-60 0 -99 33l18 55q18 -16 36.5 -22.5t44.5 -6.5q39 0 58.5 26t19.5 87v556h60v-561z" />
    <glyph glyph-name="circumflex" unicode="&#x2c6;" horiz-adv-x="400" 
d="M168 697h63l113 -130h-54l-90 86l-90 -86h-55z" />
    <glyph glyph-name="caron" unicode="&#x2c7;" horiz-adv-x="390" 
d="M50 697h55l90 -85l90 85h54l-113 -130h-63z" />
    <glyph glyph-name="breve" unicode="&#x2d8;" horiz-adv-x="344" 
d="M97 686q37 -32 77 -32q21 0 39.5 7.5t38.5 24.5l36 -36q-22 -23 -52 -35.5t-62 -12.5t-60.5 12t-51.5 36z" />
    <glyph glyph-name="dotaccent" unicode="&#x2d9;" horiz-adv-x="169" 
d="M46 638q0 17 10.5 28t27.5 11t28 -11t11 -28t-11 -28t-28 -11t-27.5 11t-10.5 28z" />
    <glyph glyph-name="ring" unicode="&#x2da;" horiz-adv-x="290" 
d="M57 671q0 18 7 34t19 28t28 19t34 7t34.5 -7t28.5 -19t19 -28t7 -34q-1 -37 -26.5 -63t-62.5 -26q-18 0 -34 7t-28 19t-19 28.5t-7 34.5zM97 671q0 -20 14 -34.5t34 -14.5t34 14.5t14 34.5t-14 34.5t-34 14.5t-34 -14.5t-14 -34.5z" />
    <glyph glyph-name="ogonek" unicode="&#x2db;" horiz-adv-x="253" 
d="M210 -150q-32 -29 -73 -29q-48 0 -79.5 30.5t-31.5 76.5q0 27 14.5 49.5t40.5 33.5l51 -19q-25 0 -43 -18t-18 -43q0 -29 18.5 -47.5t47.5 -18.5q11 0 25 5.5t23 13.5z" />
    <glyph glyph-name="tilde" unicode="&#x2dc;" horiz-adv-x="441" 
d="M69 602q2 49 25.5 81t60.5 32q22 0 40 -11.5t34 -25.5t30.5 -25.5t29.5 -11.5q18 0 28.5 19t12.5 53l42 -3q-2 -50 -25.5 -81.5t-59.5 -31.5q-22 0 -40 11.5t-33.5 25.5t-29.5 25.5t-29 11.5q-19 0 -30.5 -20.5t-13.5 -52.5z" />
    <glyph glyph-name="hungarumlaut" unicode="&#x2dd;" horiz-adv-x="433" 
d="M70 592l58 118l65 -22l-79 -96h-44zM251 592l57 118l65 -22l-78 -96h-44z" />
    <glyph glyph-name="Wgrave" unicode="&#x1e80;" horiz-adv-x="1091" 
d="M579 644l194 -560l212 616h63l-241 -700h-68l-194 561l-194 -561h-68l-242 700h63l213 -616l194 560h68zM440 862l67 22l61 -124h-46z" />
    <glyph glyph-name="wgrave" unicode="&#x1e81;" horiz-adv-x="857" 
d="M462 509l147 -400l150 411h64l-190 -520h-48l-155 423l-156 -423h-50l-189 520h64l150 -414l147 403h66zM325 687l67 22l61 -124h-46z" />
    <glyph glyph-name="Wacute" unicode="&#x1e82;" horiz-adv-x="1092" 
d="M580 644l194 -560l212 616h63l-241 -700h-68l-194 561l-194 -561h-68l-242 700h63l213 -616l194 560h68zM535 760l61 124l68 -22l-83 -102h-46z" />
    <glyph glyph-name="wacute" unicode="&#x1e83;" horiz-adv-x="862" 
d="M464 509l147 -400l150 411h64l-190 -520h-48l-155 423l-156 -423h-50l-189 520h64l150 -414l147 403h66zM424 585l61 124l68 -22l-83 -102h-46z" />
    <glyph glyph-name="Wdieresis" unicode="&#x1e84;" horiz-adv-x="1092" 
d="M580 644l194 -560l212 616h63l-241 -700h-68l-194 561l-194 -561h-68l-242 700h63l213 -616l194 560h68zM418 795q0 17 10.5 28t27.5 11t28 -11t11 -28t-11 -28t-28 -11t-27.5 11t-10.5 28zM595 795q0 17 10.5 28t27.5 11t28 -11t11 -28t-11 -28t-28 -11t-27.5 11
t-10.5 28z" />
    <glyph glyph-name="wdieresis" unicode="&#x1e85;" horiz-adv-x="844" 
d="M455 509l147 -400l150 411h64l-190 -520h-48l-155 423l-156 -423h-50l-189 520h64l150 -414l147 403h66zM295 638q0 17 10.5 28t27.5 11t28 -11t11 -28t-11 -28t-28 -11t-27.5 11t-10.5 28zM472 638q0 17 10.5 28t27.5 11t28 -11t11 -28t-11 -28t-28 -11t-27.5 11
t-10.5 28z" />
    <glyph glyph-name="endash" unicode="&#x2013;" horiz-adv-x="493" 
d="M443 277v-57h-393v57h393z" />
    <glyph glyph-name="emdash" unicode="&#x2014;" horiz-adv-x="1005" 
d="M954 277v-57h-903v57h903z" />
    <glyph glyph-name="quoteleft" unicode="&#x2018;" horiz-adv-x="161" 
d="M34 602q0 73 63 112l23 -38q-14 -9 -23.5 -23t-9.5 -30q19 -2 31.5 -15.5t12.5 -30.5q0 -19 -13.5 -33t-32.5 -14q-24 0 -37.5 21.5t-13.5 50.5z" />
    <glyph glyph-name="quoteright" unicode="&#x2019;" horiz-adv-x="161" 
d="M130 643q0 -72 -63 -112l-23 38q14 9 23 23t9 30q-19 2 -31 15.5t-12 30.5q0 19 13 33t32 14q24 0 38 -21.5t14 -50.5z" />
    <glyph glyph-name="quotesinglbase" unicode="&#x201a;" horiz-adv-x="236" 
d="M118 -108q-20 42 -32 75t-12 50q0 21 12 33t32 12t32 -12.5t12 -32.5q0 -18 -12.5 -52t-31.5 -73z" />
    <glyph glyph-name="quotedblleft" unicode="&#x201c;" horiz-adv-x="339" 
d="M54 602q0 72 63 112l23 -38q-14 -9 -23 -23t-9 -30q19 -2 31 -15.5t12 -30.5q0 -19 -13 -33t-32 -14q-24 0 -38 21.5t-14 50.5zM188 602q0 73 63 112l23 -38q-14 -9 -23 -23t-9 -31q19 -1 31 -14.5t12 -30.5q0 -20 -13.5 -33.5t-32.5 -13.5q-23 0 -37 21t-14 51z" />
    <glyph glyph-name="quotedblright" unicode="&#x201d;" horiz-adv-x="339" 
d="M151 643q0 -74 -63 -112l-23 37q14 9 23.5 23t9.5 31q-19 2 -31.5 15.5t-12.5 30.5q0 19 13.5 32.5t32.5 13.5q24 0 37.5 -21t13.5 -50zM285 642q0 -73 -63 -112l-23 38q14 9 23 23t9 31q-19 1 -31 14.5t-12 30.5q0 20 13.5 33.5t32.5 13.5q23 0 37 -21t14 -51z" />
    <glyph glyph-name="quotedblbase" unicode="&#x201e;" horiz-adv-x="405" 
d="M135 -111q-19 42 -31.5 75.5t-12.5 50.5q0 20 12 32t32 12t32 -12.5t12 -32.5q0 -18 -12.5 -52t-31.5 -73zM271 -111q-20 42 -32 75.5t-12 50.5q0 20 12 32t32 12t32 -12.5t12 -32.5q0 -18 -12.5 -52t-31.5 -73z" />
    <glyph glyph-name="dagger" unicode="&#x2020;" horiz-adv-x="439" 
d="M249 500h139v-57h-139v-543h-59v543h-140v57h140v200h59v-200z" />
    <glyph glyph-name="daggerdbl" unicode="&#x2021;" horiz-adv-x="433" 
d="M48 500h139v200h59v-200h140v-57h-140v-229h87v-57h-87v-257h-59v257h-86v57h86v229h-139v57z" />
    <glyph glyph-name="bullet" unicode="&#x2022;" horiz-adv-x="367" 
d="M77 288q0 23 8.5 42.5t23 34t34 23t41.5 8.5t41.5 -8.5t34 -23t23 -34t8.5 -42.5q0 -22 -8.5 -42t-23 -34.5t-34 -23t-41.5 -8.5t-41.5 8.5t-34 23t-23 34.5t-8.5 42z" />
    <glyph glyph-name="ellipsis" unicode="&#x2026;" horiz-adv-x="601" 
d="M77 37q0 18 13.5 31.5t32.5 13.5q18 0 31.5 -13.5t13.5 -31.5q0 -19 -13.5 -32.5t-31.5 -13.5q-19 0 -32.5 13.5t-13.5 32.5zM256 37q0 18 13.5 31.5t32.5 13.5q18 0 31.5 -13.5t13.5 -31.5q0 -19 -13.5 -32.5t-31.5 -13.5q-19 0 -32.5 13.5t-13.5 32.5zM432 37
q0 18 13.5 31.5t32.5 13.5q18 0 31.5 -13.5t13.5 -31.5q0 -19 -13.5 -32.5t-31.5 -13.5q-19 0 -32.5 13.5t-13.5 32.5z" />
    <glyph glyph-name="perthousand" unicode="&#x2030;" horiz-adv-x="1114" 
d="M563 701h72l-462 -701h-71zM100 555q0 -20 7.5 -38t20.5 -31.5t30.5 -21t37.5 -7.5t37.5 7.5t30.5 21t20.5 31.5t7.5 38q0 21 -7.5 39t-20.5 31.5t-30.5 21t-37.5 7.5q-19 0 -36.5 -8t-31 -21.5t-21 -31.5t-7.5 -38zM43 555q0 32 12 60t33 49t49 33t59 12q32 0 59.5 -12
t48.5 -33t33 -49t12 -60q0 -31 -12 -59t-32.5 -48.5t-48.5 -32.5t-60 -12q-31 0 -59 12t-49 32.5t-33 48.5t-12 59zM637 144q0 21 -7.5 39t-20.5 31.5t-30.5 21t-37.5 7.5t-37.5 -8t-31 -21.5t-21 -31.5t-7.5 -38q0 -41 28 -69.5t69 -28.5q20 0 37 8t30.5 21.5t21 31
t7.5 37.5zM694 144q0 -31 -12 -59t-32.5 -48.5t-48.5 -32.5t-60 -12t-60 12t-49 32.5t-33 48.5t-12 59q0 32 12.5 60t33.5 49t49 33t59 12q32 0 59.5 -12t48.5 -33t33 -49t12 -60zM1005 144q0 21 -7.5 39t-20.5 31.5t-30.5 21t-37.5 7.5t-37.5 -8t-31 -21.5t-21 -31.5
t-7.5 -38q0 -41 28 -69.5t69 -28.5q20 0 37 8t30.5 21.5t21 31t7.5 37.5zM1062 144q0 -31 -12 -59t-32.5 -48.5t-48.5 -32.5t-60 -12t-60 12t-49 32.5t-33 48.5t-12 59q0 32 12.5 60t33.5 49t49 33t59 12q32 0 59.5 -12t48.5 -33t33 -49t12 -60z" />
    <glyph glyph-name="guilsinglleft" unicode="&#x2039;" horiz-adv-x="299" 
d="M103 251l148 -178l-42 -23l-172 201l172 199l42 -23z" />
    <glyph glyph-name="guilsinglright" unicode="&#x203a;" horiz-adv-x="299" 
d="M87 450l172 -199l-172 -201l-43 23l149 178l-149 176z" />
    <glyph glyph-name="fraction" unicode="&#x2044;" horiz-adv-x="395" 
d="M428 701l-405 -701h-53l404 701h54z" />
    <glyph glyph-name="franc" unicode="&#x20a3;" horiz-adv-x="619" 
d="M103 702h471v-56h-411v-232h361v-56h-361v-132h158v-56h-158v-170h-60v170h-51v56h51v476z" />
    <glyph glyph-name="lira" unicode="&#x20a4;" horiz-adv-x="615" 
d="M370 652q-51 0 -83.5 -14.5t-52 -37.5t-27.5 -52t-9 -58v-78h219v-58h-219v-93h219v-59h-219v-145h375v-57h-435v202h-66v59h66v93h-66v58h66v48q0 59 13 105.5t41 78.5t72 49t106 17q66 0 113.5 -21t92.5 -72l-20 -62q-21 26 -40.5 44.5t-41 30t-46.5 17t-58 5.5z" />
    <glyph glyph-name="Euro" unicode="&#x20ac;" horiz-adv-x="592" 
d="M207 244q13 -42 34 -78t49.5 -62.5t63.5 -41.5t77 -15q44 0 88 25l32 -48q-28 -17 -59 -26t-63 -9q-54 0 -100 19.5t-82.5 54t-62.5 81t-40 100.5h-94v57h85q-1 10 -2 23t-1 24q0 10 0.5 23.5t1.5 27.5h-84v57h95q14 53 40 99.5t62 80.5t81.5 53.5t99.5 19.5
q63 0 120 -34l-29 -50q-44 26 -89 26q-41 0 -76 -14.5t-62.5 -40.5t-49 -62t-35.5 -78h224v-57h-236q-3 -25 -3 -51q0 -11 1 -24t2 -23h236v-57h-224z" />
    <glyph glyph-name="uni20B9" unicode="&#x20b9;" horiz-adv-x="575" 
d="M384 522q-7 26 -21.5 48.5t-34.5 39t-44 26t-50 9.5h-141v57h425v-57h-139q29 -26 44.5 -58.5t21.5 -64.5h73v-57h-72q-6 -38 -25.5 -70.5t-49 -56.5t-67.5 -38t-83 -14h-48l261 -286h-81l-260 286v57h127q32 0 59 9t48.5 25.5t36 39t21.5 48.5h-292v57h291z" />
    <glyph glyph-name="trademark" unicode="&#x2122;" horiz-adv-x="683" 
d="M282 663h-93v-263h-38v263h-100v35h243zM460 532l-87 109v-241h-38v298h39l104 -131l107 131h40v-298h-38v243l-91 -111h-36z" />
    <glyph glyph-name="minus" unicode="&#x2212;" horiz-adv-x="566" 
d="M490 379v-57h-414v57h414z" />
    <glyph glyph-name="commaaccent" horiz-adv-x="276" 
d="M180 -98q0 -62 -57 -98l-24 38q10 7 18 17t9 27q-13 2 -21.5 13t-8.5 24q0 15 11 26t28 11q13 0 21.5 -5.5t14 -14t7.5 -18.5t2 -20z" />
    <glyph glyph-name="A.alt1" horiz-adv-x="692" 
d="M425 235h-236l-93 -235h-64l279 707h70l279 -707h-64l-249 635l-136 -343h193z" />
    <glyph glyph-name="B.alt1" horiz-adv-x="635" 
d="M230 415h107q24 0 46.5 9.5t39 26t26.5 37.5t10 45q0 25 -10.5 45.5t-28 35.5t-40.5 23t-49 8h-183l-1 -644h-59v701h242q38 0 72 -11.5t60.5 -33.5t42 -52.5t15.5 -68.5q0 -41 -19.5 -79.5t-60.5 -64.5q58 -30 92.5 -76t34.5 -106q0 -48 -21 -87t-55.5 -66t-79 -41.5
t-91.5 -14.5h-108l18 57h90q36 0 69.5 11t59.5 31.5t42 49t16 63.5q0 32 -15 58.5t-39 46t-53 30t-56 10.5h-132z" />
    <glyph glyph-name="D.alt1" horiz-adv-x="728" 
d="M229 56h68q71 0 128.5 22.5t98 62t62 93.5t21.5 116t-22 116t-62.5 93.5t-97.5 62.5t-128 23h-152v-645h-60v701h212q83 0 151.5 -27.5t117 -75.5t75 -112t26.5 -137t-26.5 -136.5t-75 -111t-116.5 -74.5t-152 -27h-87z" />
    <glyph glyph-name="P.alt1" horiz-adv-x="623" 
d="M235 343h113q35 0 66.5 12t55 32.5t37 48t13.5 58.5q0 32 -13.5 59.5t-37.5 48t-56 32t-70 11.5h-201v-645h-60v702h261q50 0 93.5 -16t75.5 -44.5t50.5 -66t18.5 -81.5q0 -42 -18.5 -80t-50.5 -66.5t-74.5 -45t-89.5 -16.5h-132z" />
    <glyph glyph-name="R.alt1" horiz-adv-x="627" 
d="M247 343h94q38 0 70.5 11.5t56.5 31.5t37.5 47.5t13.5 59.5q0 33 -13.5 60.5t-38 47.5t-58 31.5t-72.5 11.5h-196v-644h-60v701h256q53 0 97 -15.5t76.5 -43.5t50.5 -66.5t18 -83.5t-18 -83t-50 -65t-76 -42.5t-97 -15.5h-30l256 -286h-80l-256 286z" />
    <glyph glyph-name="Q.alt1" horiz-adv-x="797" 
d="M677 41l-43 -43l-49 50q-45 -32 -92.5 -45t-92.5 -13q-72 0 -135 28t-109.5 77t-73.5 114.5t-27 140.5q0 74 27.5 139.5t74.5 114.5t109 77.5t131 28.5q73 0 136 -28.5t109.5 -77t73 -114t26.5 -139.5q0 -60 -19 -118.5t-52 -100.5l-42 42q24 35 38 82.5t14 94.5
q0 62 -22.5 117t-61 96t-89.5 65t-109 24t-109.5 -23.5t-90 -64.5t-61 -96.5t-22.5 -118.5t23 -118t62 -96t90.5 -65t107.5 -24q76 0 145 44l-105 106l43 42z" />
    <glyph glyph-name="a.alt1" horiz-adv-x="643" 
d="M523 260q0 44 -16.5 82.5t-44.5 67.5t-65.5 46t-80.5 17q-42 0 -80 -17t-66 -46.5t-44.5 -68.5t-16.5 -83q0 -43 16 -81.5t44 -67t65.5 -45t79.5 -16.5q36 0 71 14t61 37l19 -59q-34 -26 -72.5 -38.5t-80.5 -12.5q-54 0 -102 21.5t-84.5 58t-57.5 86t-21 105.5t21 105.5
t58 86t86 58t104 21.5q62 0 115.5 -27.5t91.5 -78.5v95h60v-520h-60v260z" />
    <glyph glyph-name="b.alt1" horiz-adv-x="651" 
d="M131 260v-260h-61v701h61v-276q38 51 92 78.5t116 27.5q56 0 104.5 -21.5t85 -58t57.5 -86t21 -105.5t-21 -105.5t-57 -86t-84 -58t-102 -21.5q-86 0 -154 51l19 59q26 -23 61 -37t71 -14q42 0 79.5 16.5t65.5 45t44.5 67t16.5 81.5q0 44 -16.5 83t-45 68.5t-66 46.5
t-80.5 17t-80.5 -17t-65.5 -46t-44.5 -67.5t-16.5 -82.5z" />
    <glyph glyph-name="d.alt1" horiz-adv-x="651" 
d="M520 260q0 44 -16.5 82.5t-44.5 67.5t-66 46t-80 17q-43 0 -80.5 -17t-65.5 -46.5t-44.5 -68.5t-16.5 -83q0 -43 16 -81.5t44 -67t65.5 -45t79.5 -16.5q36 0 71 14t61 37l19 -59q-34 -26 -73 -38.5t-81 -12.5q-54 0 -102 21.5t-84 58t-57 86t-21 105.5t21 105.5t57.5 86
t85.5 58t104 21.5q62 0 116 -27.5t91 -78.5v276h61v-701h-61z" />
    <glyph glyph-name="e.alt1" horiz-adv-x="601" 
d="M503 99q-36 -47 -87 -69.5t-105 -22.5q-64 0 -123 31t-96 93q-27 45 -33 95t6.5 97.5t42.5 88t75 67.5q62 36 129 36q72 0 134.5 -39t97.5 -111l-338 -192l-18 55l275 149q-29 40 -69 60.5t-85 20.5q-49 0 -91 -23q-36 -21 -60 -52t-34.5 -68t-6.5 -76t23 -75
q28 -50 75 -75.5t98 -25.5q42 0 81 17.5t67 53.5z" />
    <glyph glyph-name="g.alt1" horiz-adv-x="640" 
d="M499 266q0 43 -15 80.5t-41.5 65t-62.5 43t-78 15.5q-41 0 -77 -16t-63 -43.5t-42.5 -65t-15.5 -80.5t15.5 -80t43 -65t64.5 -44t80 -16q33 0 60 10.5t57 32.5l17 -56q-61 -46 -139 -46q-53 0 -100 21t-82 57.5t-55.5 85t-20.5 102.5t20 102t55 83.5t81.5 56.5t98.5 21
q57 0 108.5 -26.5t91.5 -75.5v91h60v-511q0 -46 -19 -85.5t-52.5 -69t-79 -46t-98.5 -16.5q-55 0 -99.5 18.5t-82.5 60.5l19 58q28 -38 70.5 -58t96.5 -20q40 0 74 12t58.5 33t38.5 49.5t14 61.5v260z" />
    <glyph glyph-name="p.alt1" horiz-adv-x="651" 
d="M131 260v-449h-61v709h61v-95q38 51 92 78.5t116 27.5q56 0 104.5 -21.5t85.5 -58t58 -86t21 -105.5t-21 -105.5t-57.5 -86t-84.5 -58t-102 -21.5q-86 0 -154 51l19 59q26 -23 61 -37t71 -14q42 0 79.5 16.5t65.5 45t44.5 67t16.5 81.5q0 44 -16.5 83t-45 68.5t-66 46.5
t-80.5 17q-42 0 -80 -17t-66 -46t-44.5 -67.5t-16.5 -82.5z" />
    <glyph glyph-name="q.alt1" 
d="M519 260q0 44 -16.5 82.5t-44.5 67.5t-66 46t-80 17q-43 0 -80.5 -17t-65.5 -46.5t-44.5 -68.5t-16.5 -83q0 -43 16 -81.5t44 -67t65.5 -45t79.5 -16.5q36 0 71 14t61 37l20 -59q-34 -26 -73 -38.5t-81 -12.5q-54 0 -102.5 21.5t-84.5 58t-57 86t-21 105.5t21 105.5
t57.5 86t85.5 58t104 21.5q63 0 116.5 -27.5t90.5 -78.5v95h61v-709h-61z" />
  </font>
</defs>
</svg>
