<?xml version="1.0" standalone="no"?>
<!DOCTYPE svg PUBLIC "-//W3C//DTD SVG 1.1//EN" "http://www.w3.org/Graphics/SVG/1.1/DTD/svg11.dtd" >
<svg xmlns="http://www.w3.org/2000/svg" xmlns:xlink="http://www.w3.org/1999/xlink" version="1.1">
<metadata>
Created by FontForge 20170731 at Tue Dec 31 19:28:43 2019
 By Aleksey,,,
(c) 2019 KushJain. All rights reserved.
</metadata>
<defs>
<font id="AsfaltoMeticula-Medium" horiz-adv-x="650" >
  <font-face 
    font-family="Asfalto Meticula"
    font-weight="400"
    font-stretch="normal"
    units-per-em="1000"
    panose-1="0 0 0 0 0 0 0 0 0 0"
    ascent="800"
    descent="-200"
    x-height="520"
    cap-height="700"
    bbox="-90 -229 1138 943"
    underline-thickness="50"
    underline-position="-225"
    unicode-range="U+0020-FB04"
  />
<missing-glyph horiz-adv-x="369" 
d="M370 700v-700h-370v700h370zM83 76h203v548h-203v-548z" />
    <glyph glyph-name="f_f" unicode="ff" horiz-adv-x="748" 
d="M260 712q28 0 52 -6t38 -16l-26 -80q-13 8 -24 11t-26 3q-39 0 -56 -19.5t-17 -65.5v-21h282v24q0 83 40.5 126.5t113.5 43.5q29 0 53 -6t38 -17l-26 -79q-14 8 -25 11t-25 3q-39 0 -56 -19.5t-17 -65.5v-21h109l-28 -85h-81v-432h-97v432h-281v-432h-97v432h-64v85h65
v24q0 83 40.5 126.5t114.5 43.5z" />
    <glyph glyph-name="fi" unicode="fi" horiz-adv-x="619" 
d="M257 712q58 0 89 -22l-26 -80q-14 8 -25 11t-26 3q-38 0 -55 -19.5t-17 -64.5v-22h343v-517h-96v432h-247v-432h-96v432h-65v85h65v25q0 82 40.5 125.5t115.5 43.5z" />
    <glyph glyph-name="fl" unicode="fl" horiz-adv-x="619" 
d="M538 1h-96v432h-245v-432h-96v432h-65v85h65v25q0 82 41 125.5t116 43.5q27 0 50 -5.5t38 -16.5l-26 -80q-14 8 -25 11t-25 3q-39 0 -56 -19.5t-17 -64.5v-22h245v183h96v-700z" />
    <glyph glyph-name="f_f_i" unicode="ffi" horiz-adv-x="995" 
d="M921 518v-517h-96v432h-245v-432h-97v432h-281v-432h-97v432h-64v85h65v24q0 83 40.5 126.5t114.5 43.5q28 0 52 -6t38 -16l-26 -80q-14 8 -25 11t-25 3q-39 0 -56 -19.5t-17 -65.5v-21h282v24q0 83 40.5 126.5t113.5 43.5q29 0 53 -6t38 -17l-26 -79q-14 8 -25 11t-26 3
q-39 0 -56 -19.5t-17 -65.5v-21h342z" />
    <glyph glyph-name="f_f_l" unicode="ffl" horiz-adv-x="995" 
d="M825 433h-246v-432h-97v432h-281v-432h-96v432h-65v85h65v24q0 83 40.5 126.5t114.5 43.5q29 0 52.5 -6t37.5 -16l-26 -80q-13 8 -24 11t-26 3q-39 0 -56 -19.5t-17 -65.5v-21h282v24q0 83 40.5 126.5t114.5 43.5q28 0 52 -6t38 -17l-26 -79q-14 8 -25 11t-26 3
q-38 0 -55 -19.5t-17 -65.5v-21h246v183h95v-700h-95v432z" />
    <glyph glyph-name="f_t" unicode="ft" horiz-adv-x="743" 
d="M258 712q29 0 53 -6t38 -16l-26 -80q-14 8 -25.5 11t-28.5 3q-36 0 -52.5 -20t-16.5 -65v-21h278v183h96v-183h84l28 -85h-112v-276q0 -41 17.5 -60t55.5 -19q14 0 25 3t25 11l26 -80q-35 -22 -87 -22q-77 0 -117.5 43t-40.5 125v275h-278v-433h-96v433h-65v85h65v24
q0 81 39.5 125.5t114.5 44.5z" />
    <glyph glyph-name=".notdef" horiz-adv-x="369" 
d="M370 700v-700h-370v700h370zM83 76h203v548h-203v-548z" />
    <glyph glyph-name="uni0000" horiz-adv-x="243" 
 />
    <glyph glyph-name="uni0000" horiz-adv-x="243" 
 />
    <glyph glyph-name="nonmarkingreturn" horiz-adv-x="243" 
 />
    <glyph glyph-name="space" unicode=" " horiz-adv-x="262" 
 />
    <glyph glyph-name="exclam" unicode="!" horiz-adv-x="252" 
d="M68 50q0 25 17.5 42.5t42.5 17.5t42.5 -17.5t17.5 -42.5t-17.5 -42.5t-42.5 -17.5t-42.5 17.5t-17.5 42.5zM177 701l-4 -535h-89l-4 535h97z" />
    <glyph glyph-name="quotedbl" unicode="&#x22;" horiz-adv-x="425" 
d="M128 495q-24 48 -42.5 90.5t-18.5 65.5q0 27 17 43t44 16q28 0 45 -16.5t17 -43.5q0 -11 -5 -28.5t-14 -38t-20 -43.5t-23 -45zM298 495q-24 48 -42.5 90.5t-18.5 65.5q0 27 17 43t44 16q28 0 45 -16.5t17 -43.5q0 -11 -5 -28.5t-14 -38t-20 -43.5t-23 -45z" />
    <glyph glyph-name="numbersign" unicode="#" horiz-adv-x="712" 
d="M506 279h131l-18 -85h-131l-41 -194h-92l42 194h-158l-42 -194h-91l41 194h-104l18 85h108l34 159h-131l18 85h133l38 178h92l-39 -178h158l38 178h91l-38 -178h101l-18 -85h-106zM295 438l-34 -159h154l34 159h-154z" />
    <glyph glyph-name="dollar" unicode="$" horiz-adv-x="590" 
d="M137 526q0 -79 177 -118q117 -27 173.5 -76t56.5 -124q0 -40 -15.5 -76.5t-43 -65t-66 -47.5t-84.5 -25v-64h-88v64q-75 11 -132 53t-79 106l75 34q7 -23 24 -42t41 -33t53.5 -22t61.5 -8q35 0 64 10t50 26.5t32.5 39t11.5 47.5q0 46 -38.5 74t-125.5 46
q-118 25 -179 74.5t-61 124.5q0 37 14.5 68.5t41 55.5t64 40t82.5 20v62h88l-1 -63q73 -10 123.5 -46t67.5 -90l-73 -34q-12 38 -58 61.5t-109 23.5q-32 0 -59.5 -7t-47 -20t-30.5 -30.5t-11 -38.5z" />
    <glyph glyph-name="percent" unicode="%" horiz-adv-x="791" 
d="M575 701h100l-460 -701h-99zM120 544q0 -35 24 -59.5t58 -24.5q17 0 31.5 6.5t25.5 18t17.5 27t6.5 32.5q0 36 -24 61t-57 25q-16 0 -31 -7t-26.5 -18.5t-18 -27t-6.5 -33.5zM39 544q0 34 13 64t35 52.5t52 35.5t63 13t62.5 -13t51.5 -35.5t35 -52.5t13 -64
q0 -33 -12.5 -62.5t-34.5 -51.5t-51.5 -35t-63.5 -13t-63.5 13t-51.5 35t-35 51.5t-13 62.5zM671 154q0 36 -24 61t-58 25q-16 0 -30.5 -7t-26 -18.5t-18 -27t-6.5 -33.5q0 -17 6.5 -32.5t17.5 -27t26 -18t31 -6.5q34 0 58 24.5t24 59.5zM752 154q0 -33 -12.5 -62.5
t-34.5 -51.5t-52 -35t-64 -13q-33 0 -62.5 13t-51.5 35t-35 51.5t-13 62.5q0 34 13 64t35 52.5t51.5 35.5t62.5 13q34 0 63.5 -13t51.5 -35.5t35 -52.5t13 -64z" />
    <glyph glyph-name="ampersand" unicode="&#x26;" horiz-adv-x="711" 
d="M447 130q-55 52 -105 107t-96 112q-51 -25 -73 -54.5t-22 -72.5q0 -63 43.5 -101t118.5 -38t134 47zM226 552q0 -19 12 -41.5t41 -60.5q48 -63 105 -125.5t128 -131.5q33 52 45 125l90 -14q-6 -48 -24.5 -93t-46.5 -82l72 -70l-64 -64l-71 70q-45 -36 -97 -55t-109 -19
q-55 0 -101 17t-79.5 47t-52.5 71.5t-19 90.5q0 65 34.5 116.5t100.5 87.5q-31 39 -45 71t-14 63q0 32 14 60.5t38 49.5t56 33.5t69 12.5t68.5 -12.5t54.5 -34.5t36 -52.5t13 -65.5h-94q0 33 -22.5 54t-57.5 21q-34 0 -57 -20t-23 -49z" />
    <glyph glyph-name="quotesingle" unicode="'" horiz-adv-x="263" 
d="M131 495q-24 48 -42.5 90.5t-18.5 65.5q0 27 17 43t45 16t44.5 -16.5t16.5 -43.5q0 -11 -5 -28.5t-14 -38t-20 -43.5t-23 -45z" />
    <glyph glyph-name="parenleft" unicode="(" horiz-adv-x="435" 
d="M73 314q0 131 53.5 242t156.5 196l58 -63q-46 -46 -78.5 -90.5t-53.5 -89.5t-30.5 -93t-9.5 -101q0 -54 10 -102t31 -94t53.5 -90t77.5 -90l-58 -63q-104 85 -157 196t-53 242z" />
    <glyph glyph-name="parenright" unicode=")" horiz-adv-x="435" 
d="M88 -61q45 46 77.5 90t53.5 90t31 94t10 102q0 53 -9.5 101t-30.5 93t-53.5 89.5t-78.5 90.5l58 63q104 -85 157 -196t53 -242t-53 -242t-157 -196z" />
    <glyph glyph-name="asterisk" unicode="*" horiz-adv-x="430" 
d="M239 487q3 -27 7.5 -52.5t4.5 -43.5q0 -23 -10 -37t-27 -14t-26.5 13.5t-9.5 36.5q0 18 4.5 43.5t7.5 53.5q-7 -5 -18.5 -14t-24 -18.5t-25 -17.5t-21.5 -12q-15 -7 -29 -7q-21 0 -29 18q-8 16 -1 30.5t24 22.5q6 3 20.5 8.5t30.5 12t30.5 12.5t21.5 9q-6 2 -20.5 7.5
t-30.5 11.5t-31 12t-22 9q-18 8 -24 24.5t2 30.5q9 17 31 17q10 0 23 -5q9 -4 21.5 -12.5t25.5 -18t25 -19t20 -15.5q-3 29 -7.5 55t-4.5 43q0 23 10.5 37t27.5 14q16 0 26 -14.5t10 -37.5q0 -17 -4.5 -42.5t-8.5 -54.5q31 21 51.5 34.5t34.5 20.5q19 8 33 8q19 0 28 -16
q9 -14 1.5 -29.5t-28.5 -28.5q-14 -8 -36.5 -15.5t-60.5 -16.5q10 -3 25 -8.5t30.5 -11.5t28.5 -10.5t18 -6.5q18 -7 25 -23.5t-1 -32.5q-9 -16 -29 -16q-16 0 -36 10q-20 9 -43.5 27t-39.5 29z" />
    <glyph glyph-name="plus" unicode="+" horiz-adv-x="638" 
d="M558 304h-192v-191h-95v191h-195v93h195v191h95v-191h192v-93z" />
    <glyph glyph-name="comma" unicode="," horiz-adv-x="281" 
d="M206 22q0 -44 -21 -81.5t-63 -61.5l-34 57q16 10 25.5 25.5t9.5 32.5q-21 5 -34.5 22.5t-13.5 38.5q0 26 18.5 44.5t43.5 18.5q30 0 49.5 -26.5t19.5 -69.5z" />
    <glyph glyph-name="hyphen" unicode="-" horiz-adv-x="402" 
d="M349 377v-90h-295v90h295z" />
    <glyph glyph-name="period" unicode="." horiz-adv-x="271" 
d="M74 54q0 26 18.5 44.5t44.5 18.5t44 -18.5t18 -44.5t-18 -44.5t-44 -18.5t-44.5 18.5t-18.5 44.5z" />
    <glyph glyph-name="slash" unicode="/" horiz-adv-x="431" 
d="M445 740l-371 -796h-96l371 796h96z" />
    <glyph glyph-name="zero" unicode="0" horiz-adv-x="690" 
d="M545 347q0 55 -16 104t-43 86t-63 58.5t-77 21.5q-40 0 -76.5 -21.5t-64.5 -58.5t-44 -86t-16 -104q0 -54 16 -102.5t44 -84.5t64.5 -57.5t77.5 -21.5t77 21t63 57t42.5 84.5t15.5 103.5zM49 347q0 74 23 140t63 115t94 77.5t115 28.5t115 -28.5t94.5 -77.5t64 -115
t23.5 -140q0 -73 -23.5 -138t-63.5 -113.5t-94 -77t-115 -28.5t-115 28t-94 77t-63.5 114t-23.5 138z" />
    <glyph glyph-name="one" unicode="1" horiz-adv-x="407" 
d="M295 700v-700h-96v577l-116 -96l-29 91l151 128h90z" />
    <glyph glyph-name="two" unicode="2" horiz-adv-x="604" 
d="M68 88l307 257q41 35 59 66.5t18 66.5q0 30 -12 55.5t-33.5 44.5t-50 29.5t-61.5 10.5q-54 0 -97 -27.5t-63 -75.5l-79 36q32 75 95.5 117t144.5 42q53 0 99 -18t80 -49t53.5 -73t19.5 -91q0 -54 -26 -101t-81 -95l-232 -196h336v-87h-477v88z" />
    <glyph glyph-name="three" unicode="3" horiz-adv-x="608" 
d="M539 619l-163 -171q39 -10 70.5 -31t54 -50t35 -64t12.5 -74q0 -51 -20.5 -95t-56 -76.5t-83.5 -51.5t-104 -19q-154 0 -238 143l75 43q28 -48 66.5 -70.5t90.5 -22.5q38 0 70.5 11.5t56 32t36.5 48t13 60.5q0 69 -55 109t-149 40l-16 49l172 182h-348v88h481v-81z" />
    <glyph glyph-name="four" unicode="4" horiz-adv-x="625" 
d="M161 227h238v321zM42 221q50 68 93 126t84.5 113.5t84.5 113.5t94 126h97v-473h96v-88h-96v-139h-96v139h-357v82z" />
    <glyph glyph-name="five" unicode="5" horiz-adv-x="620" 
d="M94 701h446v-88h-358l-10 -169q61 37 140 37q57 0 105 -19t83 -52t54.5 -78.5t19.5 -99.5t-20 -98.5t-56.5 -77t-87 -50t-112.5 -17.5q-72 0 -136 29t-110 85l31 95q35 -55 92.5 -85.5t125.5 -30.5q81 0 129 41t48 110q0 35 -12.5 63.5t-35 48.5t-54 31.5t-69.5 11.5
q-51 0 -98.5 -19t-82.5 -54l-51 29z" />
    <glyph glyph-name="six" unicode="6" horiz-adv-x="611" 
d="M557 219q0 -49 -19 -90.5t-53 -72.5t-79 -48.5t-98 -17.5q-56 0 -101.5 20.5t-78 58t-50 90.5t-17.5 118q0 92 34 169.5t94.5 134t143.5 88t182 31.5l-29 -90q-53 0 -101.5 -16t-89 -44.5t-70 -67.5t-43.5 -86q27 22 64 34t76 12q50 0 93 -17.5t74.5 -47.5t49.5 -70.5
t18 -87.5zM165 220q0 -30 11 -55t30.5 -43t46.5 -28.5t59 -10.5t59.5 10.5t47.5 29t31.5 43.5t11.5 54t-11 52.5t-30.5 40.5t-47 26.5t-60.5 9.5q-66 0 -107 -35.5t-41 -93.5z" />
    <glyph glyph-name="seven" unicode="7" horiz-adv-x="603" 
d="M560 621l-345 -620h-108l340 613h-404v88h517v-81z" />
    <glyph glyph-name="eight" unicode="8" horiz-adv-x="605" 
d="M41 204q0 56 30.5 104.5t82.5 73.5q-39 25 -61.5 61.5t-22.5 82.5q0 44 20 78.5t52.5 58t74 36t85.5 12.5t85.5 -12.5t74 -36.5t52 -58.5t19.5 -78.5q0 -46 -22 -81.5t-61 -61.5q52 -26 82 -73t30 -104q0 -48 -22.5 -87.5t-59 -68t-83.5 -44.5t-95 -16t-95 15.5t-84 44
t-59.5 68t-22.5 87.5zM302 622q-25 0 -49.5 -6t-44 -18t-32 -30.5t-12.5 -42.5t12.5 -43t32 -32t44 -19.5t49.5 -6.5t49.5 7t44 19.5t32 31.5t12.5 43t-12.5 42t-32 30.5t-44.5 18.5t-49 6zM301 82q31 0 60.5 8.5t53 24.5t37.5 39.5t14 54.5t-14 54.5t-37 39.5t-52.5 24
t-60.5 8t-60.5 -8t-53 -24t-37.5 -39.5t-14 -54.5q0 -30 14 -54t37 -40t52.5 -24.5t60.5 -8.5z" />
    <glyph glyph-name="nine" unicode="9" horiz-adv-x="610" 
d="M49 483q0 48 19 90t53 72.5t79.5 48t97.5 17.5q56 0 102 -20.5t78 -58t49.5 -90t17.5 -117.5q0 -92 -34 -170t-94.5 -134.5t-143.5 -88t-182 -31.5l29 90q53 0 101.5 16t89 44.5t70 68t44.5 86.5q-28 -22 -65 -34t-76 -12q-50 0 -93 17.5t-74.5 47.5t-49.5 70.5t-18 87.5
zM441 482q0 29 -11 54t-30.5 43t-46.5 28.5t-59 10.5t-59.5 -10.5t-47.5 -28.5t-31.5 -43t-11.5 -54q0 -28 11 -52t30.5 -41t47 -26.5t60.5 -9.5q66 0 107 35.5t41 93.5z" />
    <glyph glyph-name="colon" unicode=":" horiz-adv-x="400" 
d="M138 54q0 26 18.5 44.5t44.5 18.5q25 0 43.5 -18.5t18.5 -44.5t-18.5 -45t-43.5 -19q-26 0 -44.5 19t-18.5 45zM138 441q0 26 18.5 44.5t44.5 18.5q25 0 43.5 -18.5t18.5 -44.5t-18.5 -45t-43.5 -19q-26 0 -44.5 19t-18.5 45z" />
    <glyph glyph-name="semicolon" unicode=";" horiz-adv-x="271" 
d="M201 23q0 -45 -21 -82t-63 -62l-34 57q16 10 25.5 25.5t9.5 32.5q-21 5 -34.5 22.5t-13.5 38.5q0 26 18.5 44.5t43.5 18.5q30 0 49.5 -26t19.5 -69zM74 439q0 26 18 44.5t44 18.5t44 -18.5t18 -44.5t-18 -44.5t-44 -18.5t-44 18.5t-18 44.5z" />
    <glyph glyph-name="less" unicode="&#x3c;" horiz-adv-x="628" 
d="M72 396l464 224v-100l-352 -170l352 -170v-99l-464 224v91z" />
    <glyph glyph-name="equal" unicode="=" horiz-adv-x="561" 
d="M481 469v-86h-401v86h401zM481 264v-86h-401v86h401z" />
    <glyph glyph-name="greater" unicode="&#x3e;" horiz-adv-x="628" 
d="M549 305l-464 -224v99l351 170l-351 170v100l464 -224v-91z" />
    <glyph glyph-name="question" unicode="?" horiz-adv-x="511" 
d="M168 53q0 26 18 44t44 18t44.5 -18t18.5 -44t-18.5 -44.5t-44.5 -18.5t-44 18.5t-18 44.5zM181 183v158q36 13 72.5 26t66 32t48.5 45t19 64q0 54 -36 82t-100 28q-51 0 -84.5 -18.5t-56.5 -63.5l-73 43q34 69 85 100t129 31q52 0 94.5 -14.5t73 -41t47.5 -65t17 -86.5
q0 -45 -15.5 -78.5t-43.5 -59t-65.5 -45.5t-81.5 -37v-100h-96z" />
    <glyph glyph-name="at" unicode="@" horiz-adv-x="902" 
d="M542 213q-24 -26 -64 -41.5t-78 -15.5q-34 0 -63 12.5t-50 34.5t-33 52t-12 66q0 43 17.5 83t47.5 70.5t69 49t81 18.5q59 0 105 -37l4 24h81q-12 -64 -22.5 -126t-19.5 -113q-12 -64 46 -64q41 0 65 35.5t24 95.5q0 54 -24 104.5t-63.5 89.5t-91 62.5t-107.5 23.5
q-57 0 -109.5 -24t-93 -64.5t-65 -93t-24.5 -109.5q0 -58 23 -110.5t61.5 -92.5t89.5 -63.5t107 -23.5q43 0 87.5 14.5t80.5 41.5l39 -62q-47 -35 -99.5 -51t-107.5 -16q-72 0 -136 29t-112.5 79t-77 116t-28.5 139q0 72 30 138t80 116t116 80t138 30q71 0 136.5 -29
t115 -78.5t79 -114.5t29.5 -136q0 -45 -11.5 -82t-32.5 -64t-49.5 -42t-63.5 -15q-42 0 -71.5 17t-42.5 47zM538 384q5 34 -16 55.5t-60 21.5q-27 0 -52 -11.5t-44 -30.5t-30 -44.5t-11 -53.5q0 -38 22 -60t60 -22q30 0 58 14.5t60 48.5z" />
    <glyph glyph-name="A" unicode="A" horiz-adv-x="713" 
d="M357 567l-113 -286h226zM406 700l277 -700h-102l-77 195h-295l-77 -195h-102l277 700h99z" />
    <glyph glyph-name="B" unicode="B" horiz-adv-x="645" 
d="M182 613v-185h166q20 0 37 7.5t30.5 20.5t21 30.5t7.5 36.5q0 20 -8 36.5t-22 28.5t-32.5 18.5t-39.5 6.5h-160zM182 340v-251h150q30 0 58 9.5t49.5 27t34.5 41.5t13 53q0 27 -11 49t-29.5 38t-43.5 24.5t-53 8.5h-168zM86 1v700h255q40 0 76 -12.5t63.5 -35.5
t43.5 -55.5t16 -71.5q0 -38 -16 -74t-48 -59q51 -31 79 -76t28 -102q0 -48 -20.5 -87.5t-55 -67.5t-80 -43.5t-95.5 -15.5h-246z" />
    <glyph glyph-name="C" unicode="C" horiz-adv-x="678" 
d="M639 96q-45 -50 -110.5 -78.5t-137.5 -28.5q-69 0 -131.5 28.5t-109 77.5t-74 114.5t-27.5 139.5t27.5 139.5t74.5 115t109.5 78t132.5 28.5q72 0 136.5 -29t109.5 -80l-63 -64q-36 40 -82.5 61t-97.5 21q-52 0 -98 -21t-80 -57.5t-53.5 -85.5t-19.5 -105t20 -105t54 -86
t79.5 -58t97.5 -21q51 0 97 21t81 60z" />
    <glyph glyph-name="D" unicode="D" horiz-adv-x="733" 
d="M180 613v-525h125q63 0 114 20t86.5 55t55 83t19.5 104t-19.5 104t-55 83.5t-86.5 55.5t-114 20h-125zM84 0v701h221q83 0 151 -27.5t117 -75t76 -111.5t27 -138t-27 -137.5t-75.5 -110.5t-117 -74t-151.5 -27h-221z" />
    <glyph glyph-name="E" unicode="E" horiz-adv-x="613" 
d="M79 0v700h485v-88h-389v-186h342v-88h-342v-250h389v-88h-485z" />
    <glyph glyph-name="F" unicode="F" horiz-adv-x="613" 
d="M79 701h486v-88h-390v-187h342v-88h-342v-338h-96v701z" />
    <glyph glyph-name="G" unicode="G" horiz-adv-x="712" 
d="M643 372v-275q-56 -53 -117 -80t-129 -27q-72 0 -136 28.5t-111.5 77t-75 114t-27.5 139.5t27.5 140t74.5 115t110 77.5t134 28.5q65 0 125 -23t98 -60l-47 -80q-73 73 -174 73q-52 0 -97.5 -21t-79.5 -57.5t-53.5 -85t-19.5 -103.5q0 -56 20 -105.5t53.5 -86.5
t78.5 -58.5t95 -21.5q44 0 87 15.5t68 39.5v147h-150v89h246z" />
    <glyph glyph-name="H" unicode="H" horiz-adv-x="691" 
d="M512 426v275h96v-701h-96v338h-333v-338h-96v701h96v-275h333z" />
    <glyph glyph-name="I" unicode="I" horiz-adv-x="286" 
d="M191 700v-700h-96v700h96z" />
    <glyph glyph-name="J" unicode="J" horiz-adv-x="455" 
d="M380 206q0 -42 -15 -81t-42 -69t-65 -48t-84 -18q-35 0 -71 13t-65 41l27 85q23 -26 51 -36t51 -10q29 0 50.5 11t36 29t22 40t7.5 44v493h97v-494z" />
    <glyph glyph-name="K" unicode="K" horiz-adv-x="632" 
d="M599 0h-113l-231 334l-80 -82v-252h-94v700h94v-315l302 315h125l-282 -297z" />
    <glyph glyph-name="L" unicode="L" horiz-adv-x="580" 
d="M81 0v701h96v-613h341v-88h-437z" />
    <glyph glyph-name="M" unicode="M" horiz-adv-x="817" 
d="M355 306l-178 238v-544h-96v700h97l227 -301l230 301h100v-700h-96v548l-185 -242h-99z" />
    <glyph glyph-name="N" unicode="N" horiz-adv-x="755" 
d="M576 0l-400 547v-547h-96v700h100l399 -545v545h96v-700h-99z" />
    <glyph glyph-name="O" unicode="O" horiz-adv-x="789" 
d="M645 350q0 56 -19.5 105t-53.5 86t-79.5 58t-97.5 21t-98 -21t-80 -58t-53.5 -86t-19.5 -105q0 -55 20 -104.5t54.5 -86t80 -58t97.5 -21.5t97.5 21.5t79 58t53 86t19.5 104.5zM47 349q0 75 27.5 141t75 114.5t111 77t135.5 28.5t135 -28t110 -77t74 -114.5t27 -140.5
t-27 -140.5t-74 -114.5t-110 -77t-135 -28t-135.5 28t-111 77t-75 114t-27.5 140z" />
    <glyph glyph-name="P" unicode="P" horiz-adv-x="648" 
d="M178 359h179q29 0 55 10.5t46 28t32 40.5t12 48q0 27 -11 50t-30.5 40.5t-46 27t-57.5 9.5h-179v-254zM82 701h275q51 0 95 -16.5t76.5 -45.5t51 -68.5t18.5 -84.5q0 -43 -19 -82.5t-52 -68.5t-77 -46.5t-93 -17.5h-179v-271h-96v701z" />
    <glyph glyph-name="Q" unicode="Q" horiz-adv-x="798" 
d="M399 620q-51 0 -96.5 -21t-79.5 -57.5t-54 -85.5t-20 -106q0 -56 20.5 -105.5t55.5 -86t80.5 -58t94.5 -21.5q30 0 55 7t50 21l-94 95l68 67l103 -104q31 33 49.5 82.5t18.5 103.5q0 55 -20 104t-54 85.5t-80 58t-97 21.5zM52 350q0 74 28 139.5t75.5 114.5t110.5 77.5
t132 28.5q74 0 137.5 -28.5t110.5 -77.5t74 -114t27 -139q0 -77 -27 -141t-72 -112l44 -45l-67 -67l-51 52q-43 -27 -87 -37.5t-86 -10.5q-73 0 -136.5 28t-111 76.5t-74.5 114.5t-27 141z" />
    <glyph glyph-name="R" unicode="R" horiz-adv-x="653" 
d="M502 485q0 27 -11 50.5t-30.5 40.5t-46 26.5t-58.5 9.5h-179v-253h179q30 0 57 10t46.5 27t31 40t11.5 49zM177 271v-271h-96v700h275q52 0 96.5 -16.5t77 -45t51 -68t18.5 -85.5q0 -42 -17 -79t-46.5 -65.5t-69.5 -45.5t-86 -20l-21 -2l238 -273h-123l-236 271h-61z" />
    <glyph glyph-name="S" unicode="S" horiz-adv-x="590" 
d="M112 188q6 -23 23 -42.5t40.5 -33.5t53 -22t61.5 -8q35 0 64 9t50 25.5t32.5 39t11.5 49.5q0 46 -38.5 74.5t-124.5 45.5q-239 50 -239 200q0 41 17.5 75t49 58.5t75.5 38t97 13.5q91 0 154.5 -37t85.5 -102l-74 -34q-13 38 -57.5 61.5t-106.5 23.5q-67 0 -108.5 -26.5
t-41.5 -69.5q0 -81 176 -119q118 -26 174.5 -74t56.5 -125q0 -46 -19.5 -86t-53.5 -69t-80.5 -45.5t-100.5 -16.5q-45 0 -85.5 11.5t-74 32.5t-58 51t-37.5 67z" />
    <glyph glyph-name="T" unicode="T" horiz-adv-x="608" 
d="M574 612h-222v-612h-96v612h-223v88h541v-88z" />
    <glyph glyph-name="U" unicode="U" horiz-adv-x="757" 
d="M83 700h96v-446q0 -36 16 -67.5t43 -55t63 -37.5t77 -14t77.5 13.5t63.5 37.5t42.5 55.5t15.5 67.5v446h96v-447q0 -54 -23.5 -102t-63.5 -84t-93.5 -57t-114.5 -21q-60 0 -114 21t-94 57t-63.5 84t-23.5 102v447z" />
    <glyph glyph-name="V" unicode="V" horiz-adv-x="713" 
d="M308 0l-275 700h101l222 -562l223 562h101l-274 -700h-98z" />
    <glyph glyph-name="W" unicode="W" horiz-adv-x="1081" 
d="M590 647l169 -492l188 545h102l-242 -700h-95l-170 495l-172 -495h-96l-242 700h102l189 -547l171 494h96z" />
    <glyph glyph-name="X" unicode="X" horiz-adv-x="656" 
d="M516 0l-188 277l-188 -277h-112l242 359l-230 341h112l176 -261l176 261h112l-231 -340l244 -360h-113z" />
    <glyph glyph-name="Y" unicode="Y" horiz-adv-x="667" 
d="M33 700h112l188 -303l190 303h111l-253 -405l1 -295h-96l-1 295z" />
    <glyph glyph-name="Z" unicode="Z" horiz-adv-x="641" 
d="M34 82l444 530h-431v88h559v-82l-443 -530h425v-88h-554v82z" />
    <glyph glyph-name="bracketleft" unicode="[" horiz-adv-x="395" 
d="M97 -83v831h218v-88h-122v-655h122v-88h-218z" />
    <glyph glyph-name="backslash" unicode="\" horiz-adv-x="429" 
d="M355 -56l-369 792h96l369 -792h-96z" />
    <glyph glyph-name="bracketright" unicode="]" horiz-adv-x="393" 
d="M291 -83h-217v88h120v655h-120v88h217v-831z" />
    <glyph glyph-name="asciicircum" unicode="^" horiz-adv-x="731" 
d="M408 700l208 -263h-109l-142 165l-141 -165h-109l207 263h86z" />
    <glyph glyph-name="underscore" unicode="_" horiz-adv-x="564" 
d="M538 -100v-89h-513v89h513z" />
    <glyph glyph-name="grave" unicode="`" horiz-adv-x="325" 
d="M59 704l96 32l74 -152h-69z" />
    <glyph glyph-name="a" unicode="a" 
d="M487 260q0 38 -13.5 70.5t-37 57t-55 38.5t-67.5 14t-67.5 -14t-55 -39t-37 -57.5t-13.5 -70.5q0 -37 13 -70t36.5 -57t55 -38t67.5 -14t68 14t55.5 38.5t37 57.5t13.5 70zM305 530q53 0 100 -20t82 -61v72h96v-521h-96v72q-35 -41 -82.5 -61.5t-100.5 -20.5t-100.5 21.5
t-83 58t-56 86t-20.5 105.5t20.5 105t55.5 85.5t83 57.5t102 21z" />
    <glyph glyph-name="b" unicode="b" horiz-adv-x="652" 
d="M167 261q0 -37 13.5 -70t37 -57.5t55.5 -38.5t69 -14q36 0 67.5 14t55 38t36.5 57t13 70q0 38 -13.5 70.5t-37 57.5t-55 39t-67.5 14t-67.5 -14t-55.5 -38.5t-37.5 -57t-13.5 -70.5zM349 531q55 0 102.5 -21t83 -57.5t56 -85.5t20.5 -105t-20.5 -105.5t-56 -86t-83 -58
t-101.5 -21.5q-52 0 -99.5 20.5t-83.5 61.5v-72h-96v700h96v-251q36 41 82.5 61t99.5 20z" />
    <glyph glyph-name="c" unicode="c" horiz-adv-x="540" 
d="M447 371q-24 33 -61.5 51.5t-77.5 18.5q-36 0 -67.5 -14.5t-55.5 -39.5t-38 -58t-14 -70t14 -69.5t38 -57t56 -38.5t68 -14q40 0 76 18t62 50l62 -63q-40 -46 -91.5 -70t-110.5 -24q-57 0 -106 21t-85 57.5t-57 85.5t-21 104q0 56 21 105t57.5 86t85.5 58.5t105 21.5
q59 0 111.5 -24.5t91.5 -71.5z" />
    <glyph glyph-name="d" unicode="d" 
d="M481 261q0 38 -13.5 70.5t-37.5 57t-55.5 38.5t-67.5 14t-67.5 -14t-55 -39t-37 -57.5t-13.5 -70.5q0 -37 13 -70t36.5 -57t55 -38t67.5 -14q37 0 69 14t55.5 38.5t37 57.5t13.5 70zM299 531q53 0 99.5 -20t82.5 -61v251h96v-700h-96v72q-36 -41 -83.5 -61.5t-99.5 -20.5
q-54 0 -101.5 21.5t-83 58t-56 86t-20.5 105.5t20.5 105t56 85.5t83 57.5t102.5 21z" />
    <glyph glyph-name="e" unicode="e" horiz-adv-x="610" 
d="M475 302q-6 30 -21.5 55.5t-38 43.5t-50 28.5t-57.5 10.5q-60 0 -106 -37.5t-62 -100.5h335zM513 88q-33 -46 -88.5 -72t-118.5 -26q-55 0 -104 21t-85.5 58t-57.5 86t-21 105t21.5 105t58 85.5t86 57.5t105.5 21q61 0 112.5 -24t87.5 -66t54.5 -99t12.5 -122h-435
q6 -30 21.5 -55t38 -44t51 -29.5t59.5 -10.5q44 0 81 18.5t60 52.5z" />
    <glyph glyph-name="f" unicode="f" horiz-adv-x="370" 
d="M325 611q-14 8 -25.5 10.5t-25.5 2.5q-39 0 -56 -19.5t-17 -65.5v-21h110l-28 -85h-81v-432h-97v432h-65v85h65v24q0 82 40 126t115 44q27 0 51.5 -5.5t39.5 -16.5z" />
    <glyph glyph-name="g" unicode="g" horiz-adv-x="638" 
d="M39 268q0 54 19.5 101.5t54 83.5t80.5 56.5t98 20.5q99 0 174 -78v68h96v-499q0 -51 -19.5 -93t-54 -72t-82.5 -46.5t-106 -16.5q-116 0 -183 65l28 85q23 -29 62 -45t87 -16q38 0 69 10t54 27.5t35.5 41.5t12.5 53v64q-74 -77 -171 -77q-52 0 -98.5 21t-81 57.5
t-54.5 85t-20 103.5zM300 92q35 0 65.5 13t52.5 36t34.5 54.5t12.5 68.5q0 38 -12.5 70t-35 55t-53 36.5t-65.5 13.5t-65 -13.5t-52 -36.5t-34.5 -55t-12.5 -69t12.5 -68.5t34.5 -55t52.5 -36.5t65.5 -13z" />
    <glyph glyph-name="h" unicode="h" horiz-adv-x="638" 
d="M346 528q47 0 86.5 -18t68 -50t45 -76t16.5 -96v-287h-96v285q0 33 -9.5 60.5t-27 47.5t-42 31t-53.5 11q-32 0 -61 -13t-51.5 -35t-35.5 -50.5t-13 -59.5v-277h-96v700h96v-255q35 40 79 61t94 21z" />
    <glyph glyph-name="i" unicode="i" horiz-adv-x="255" 
d="M72 655q0 23 16 39.5t39 16.5t39.5 -16.5t16.5 -39.5t-16.5 -39.5t-39.5 -16.5t-39 16.5t-16 39.5zM175 520v-520h-96v520h96z" />
    <glyph glyph-name="j" unicode="j" horiz-adv-x="255" 
d="M175 -37q0 -81 -40.5 -126t-118.5 -45q-50 0 -87 25l26 80q20 -15 52 -15q38 1 55.5 22t17.5 67l-1 550h96v-558zM73 656q0 23 16 39t39 16t39 -16t16 -39t-16 -39.5t-39 -16.5t-39 16.5t-16 39.5z" />
    <glyph glyph-name="k" unicode="k" horiz-adv-x="580" 
d="M545 520l-222 -189l231 -331h-119l-186 268l-78 -65v-202h-96v700h96v-374l230 193h144z" />
    <glyph glyph-name="l" unicode="l" horiz-adv-x="262" 
d="M180 701v-700h-96v700h96z" />
    <glyph glyph-name="m" unicode="m" horiz-adv-x="927" 
d="M651 531q44 0 81 -16t64 -44t42 -67t15 -86v-317h-95v308q0 60 -29.5 95t-80.5 35q-28 0 -52.5 -10.5t-43 -29t-29.5 -43.5t-11 -53v-302h-96v311q0 57 -31 92t-82 35q-27 0 -51.5 -11t-43 -30.5t-29 -45t-10.5 -55.5v-296h-95v520h95v-59q26 33 65 51t84 18
q105 0 160 -97q31 48 75 72.5t98 24.5z" />
    <glyph glyph-name="n" unicode="n" horiz-adv-x="600" 
d="M331 530q45 0 82.5 -16.5t65 -45t43 -67.5t15.5 -85v-315h-95v313q0 54 -34.5 88.5t-90.5 34.5q-30 0 -57 -11t-46.5 -30.5t-31 -46t-11.5 -57.5v-291h-95v519h95v-59q26 32 69.5 50.5t90.5 18.5z" />
    <glyph glyph-name="o" unicode="o" horiz-adv-x="618" 
d="M483 259q0 37 -14 70t-37.5 58t-55 39.5t-67.5 14.5q-35 0 -66.5 -14.5t-55.5 -39.5t-38 -58t-14 -70q0 -36 14 -68.5t38 -57t55.5 -39t66.5 -14.5q36 0 67.5 14t55 38.5t37.5 57t14 69.5zM39 259q0 57 21.5 106.5t58 86t86 58t104.5 21.5q56 0 105 -21.5t86 -58t58 -86
t21 -106.5q0 -56 -21 -105t-58 -85.5t-86 -57.5t-105 -21t-105 21t-86 57.5t-58 85.5t-21 105z" />
    <glyph glyph-name="p" unicode="p" 
d="M167 260q0 -37 13.5 -70t37.5 -57.5t55.5 -38.5t67.5 -14t67.5 14t55 39t37 58t13.5 70q0 38 -13 70.5t-36.5 56.5t-55 38t-67.5 14q-37 0 -69 -14t-55.5 -38.5t-37 -57t-13.5 -70.5zM349 -10q-53 0 -99.5 20t-82.5 61v-272h-96v721h96v-72q36 41 83.5 61.5t99.5 20.5
q54 0 101.5 -21.5t83 -58t56 -86t20.5 -105.5t-20.5 -105t-56 -85.5t-83 -57.5t-102.5 -21z" />
    <glyph glyph-name="q" unicode="q" 
d="M481 260q0 38 -13.5 70.5t-37 57t-55.5 38.5t-69 14q-36 0 -67.5 -13.5t-55 -37.5t-36.5 -56.5t-13 -70.5t13.5 -71t37 -58t55 -39t67.5 -14t68 14t55.5 38.5t37 57.5t13.5 70zM299 -10q-54 0 -102 21t-83 58t-55.5 86t-20.5 104q0 56 20.5 105.5t56 86.5t82.5 58t101 21
q53 0 100.5 -20.5t82.5 -61.5v72h96v-721h-96v272q-35 -41 -82 -61t-100 -20z" />
    <glyph glyph-name="r" unicode="r" horiz-adv-x="385" 
d="M170 447q41 47 92 62.5t111 15.5l-32 -92q-38 0 -69.5 -12.5t-54 -35t-35 -54.5t-12.5 -70v-260h-96v518h96v-72z" />
    <glyph glyph-name="s" unicode="s" horiz-adv-x="504" 
d="M110 146q17 -31 54 -50t79 -19q24 0 44.5 6t36.5 16.5t25 24.5t9 30q0 25 -23 40.5t-57 27.5t-74.5 23.5t-74.5 28.5t-57 42.5t-23 65.5q0 32 15 59.5t42 47.5t63.5 31.5t78.5 11.5q69 0 122.5 -29t74.5 -77l-71 -40q-14 29 -47 45t-75 16q-22 0 -42 -5t-35 -13
t-23.5 -19.5t-8.5 -23.5q0 -20 23 -32.5t58 -23.5t75 -23.5t75 -31.5t58 -47.5t23 -71.5q0 -35 -16 -65.5t-44.5 -53t-67.5 -35t-84 -12.5q-70 0 -125 29.5t-81 83.5z" />
    <glyph glyph-name="t" unicode="t" horiz-adv-x="385" 
d="M349 12q-18 -11 -39 -17t-48 -6q-76 0 -117 43t-41 126v275h-64v85h64v183h96v-183h84l27 -85h-111v-276q0 -42 17.5 -60.5t55.5 -18.5q14 0 25 2.5t25 10.5z" />
    <glyph glyph-name="u" unicode="u" horiz-adv-x="600" 
d="M276 -10q-45 0 -82.5 16.5t-65 45t-43 68t-15.5 84.5v316h95v-313q0 -27 9 -49.5t25.5 -39t39.5 -26t50 -9.5q30 0 57 11.5t47 31t31.5 46t11.5 56.5v292h95v-520h-95v60q-27 -33 -70 -51.5t-90 -18.5z" />
    <glyph glyph-name="v" unicode="v" horiz-adv-x="565" 
d="M234 0l-207 520h102l154 -383l153 383h102l-207 -520h-97z" />
    <glyph glyph-name="w" unicode="w" horiz-adv-x="859" 
d="M476 510l124 -335l127 345h102l-192 -520h-73l-133 359l-134 -359h-74l-192 520h102l127 -347l124 337h92z" />
    <glyph glyph-name="x" unicode="x" horiz-adv-x="579" 
d="M437 0l-147 202l-149 -202h-117l207 281l-175 239h117l117 -159l115 159h118l-175 -238l206 -282h-117z" />
    <glyph glyph-name="y" unicode="y" horiz-adv-x="595" 
d="M95 -104q27 -12 48 -12q20 0 35 10.5t26 28.5t20.5 41t19.5 48l-215 508h104l164 -386l165 386h104l-270 -626q-21 -48 -60.5 -74.5t-85.5 -26.5q-41 0 -81 23z" />
    <glyph glyph-name="z" unicode="z" horiz-adv-x="513" 
d="M470 434l-297 -344h298v-90h-426v85l296 345h-298v90h427v-86z" />
    <glyph glyph-name="braceleft" unicode="{" horiz-adv-x="365" 
d="M176 312q22 -33 22 -63v-184q0 -41 32 -66.5t83 -25.5v-82q-45 0 -83 12.5t-65.5 34.5t-43 53t-15.5 67v181q0 15 -10 24t-27 10h-6v80h6q17 0 27 8.5t10 22.5v181q0 36 15 66.5t42.5 52t65.5 33.5t84 12v-83q-54 0 -84.5 -22.5t-30.5 -64.5v-185q0 -35 -22 -62z" />
    <glyph glyph-name="bar" unicode="|" horiz-adv-x="291" 
d="M191 740v-779h-90v779h90z" />
    <glyph glyph-name="braceright" unicode="}" horiz-adv-x="365" 
d="M232 286q2 -2 1.5 -6t-0.5 -8q-6 -6 -9.5 -24.5t-3.5 -34.5q0 -18 0.5 -41.5t2 -48t4 -46t5.5 -34.5q0 -27 -6 -53.5t-16 -47.5t-23.5 -34.5t-28.5 -16.5q-7 4 -12.5 14.5t-9.5 24t-6 29t-2 29.5q9 3 17.5 13t15 25t10 32t3.5 33q0 11 -0.5 33.5t-1.5 47.5t-2 47t-2 31
q0 21 8 48q-5 14 -7 37t-2 39l1 148q2 30 -9 51.5t-31 25.5v84q14 10 31 10q23 0 42.5 -22t30.5 -60v-180q-13 -18 1 -41l2 -37v-15.5t-0.5 -20t-1 -19t-1.5 -12.5z" />
    <glyph glyph-name="asciitilde" unicode="~" horiz-adv-x="591" 
d="M98 256q0 36 8.5 66t24 51.5t36.5 33.5t46 12q27 0 50 -13.5t42.5 -29.5t36 -29.5t30.5 -13.5q19 0 30 24.5t11 60.5l79 -6q0 -34 -8.5 -64t-24 -51.5t-36.5 -34t-46 -12.5q-28 0 -51 13.5t-42.5 29.5t-35.5 29.5t-31 13.5q-18 0 -29 -24t-11 -62z" />
    <glyph glyph-name="uni00A0" unicode="&#xa0;" horiz-adv-x="253" 
 />
    <glyph glyph-name="exclamdown" unicode="&#xa1;" horiz-adv-x="252" 
d="M66 470.003q0 -24.998 17.5 -42.4971t42.5 -17.499t42.5 17.499t17.5 42.4971q0 24.999 -17.5 42.4971q-17.5 17.499 -42.5 17.499t-42.5 -17.499q-17.5 -17.498 -17.5 -42.4971zM175 -180.957l-4 534.967h-89l-4 -534.967h97z" />
    <glyph glyph-name="cent" unicode="&#xa2;" horiz-adv-x="548" 
d="M52 251q0 47 15.5 89t43 76t64 58.5t78.5 34.5v46h87v-42q49 -6 91.5 -30.5t72.5 -61.5l-63 -64q-18 26 -45 41t-56 19v-328q30 4 56 19.5t46 39.5l63 -63q-32 -38 -74.5 -62.5t-90.5 -30.5v-42h-87v47q-42 10 -78.5 33.5t-64 57t-43 75.5t-15.5 88zM148 251
q0 -55 29.5 -97t75.5 -59v316q-46 -18 -75.5 -61.5t-29.5 -98.5z" />
    <glyph glyph-name="sterling" unicode="&#xa3;" horiz-adv-x="633" 
d="M134 271h-62v86h62v98q0 255 250 255q69 0 116.5 -20.5t88.5 -66.5l-29 -90q-40 48 -79 67t-93 19q-155 0 -158 -136v-126h218v-86h-218v-183h362v-88h-458v271z" />
    <glyph glyph-name="currency" unicode="&#xa4;" horiz-adv-x="763" 
d="M116 252q0 42 13 80.5t36 71.5l-111 111l64 64l111 -111q32 23 70.5 35.5t81.5 12.5q42 0 80.5 -12.5t70.5 -35.5l111 111l64 -64l-111 -111q23 -33 36 -71.5t13 -80.5t-12.5 -80.5t-35.5 -70.5l110 -110l-64 -64l-110 111q-33 -23 -71 -35.5t-81 -12.5t-82 12.5
t-71 35.5l-110 -111l-64 64l111 110q-23 32 -36 70.5t-13 80.5zM549 252q0 35 -13 67t-35.5 56t-53.5 38t-66 14q-34 0 -65 -14t-54 -38t-36.5 -55.5t-13.5 -67.5t13.5 -67.5t36.5 -55t53.5 -37t65.5 -13.5t65.5 13.5t53.5 37t36 55t13 67.5z" />
    <glyph glyph-name="yen" unicode="&#xa5;" horiz-adv-x="670" 
d="M289 261h-152v84h137l-242 355h114l191 -279l185 279h113l-235 -355h138v-84h-153v-71h153v-84h-153v-106h-96v106h-152v84h152v71z" />
    <glyph glyph-name="brokenbar" unicode="&#xa6;" horiz-adv-x="551" 
d="M320 290v-329h-89v329h89zM231 410v330h89v-330h-89z" />
    <glyph glyph-name="section" unicode="&#xa7;" horiz-adv-x="513" 
d="M42 544q0 34 17.5 64t47.5 53t70 36.5t84 13.5q63 0 115 -23t88 -68l-59 -58q-22 28 -58.5 43t-79.5 15q-25 0 -48 -6.5t-41 -17t-29 -24.5t-11 -28q0 -22 24.5 -35.5t62 -24t80.5 -22t80.5 -30t62 -48t24.5 -75.5q0 -68 -62 -110q30 -22 46 -53t16 -66
q0 -36 -16.5 -67.5t-45.5 -54t-69 -35.5t-87 -13q-63 0 -113 24.5t-94 75.5l58 57q62 -67 145 -67q26 0 49.5 7t40.5 19t27 28t10 34q0 28 -24.5 44.5t-61.5 28.5t-80 23t-80 28t-61.5 43.5t-24.5 69.5q0 32 16 60t45 51q-31 19 -47.5 47.5t-16.5 60.5zM378 307
q0 16 -11.5 30t-31 24.5t-45 16.5t-54.5 6q-43 0 -70 -13.5t-27 -33.5q0 -18 13.5 -32.5t35.5 -24t50 -15t56 -5.5q39 0 61.5 13t22.5 34z" />
    <glyph glyph-name="dieresis" unicode="&#xa8;" horiz-adv-x="550" 
d="M113 646q0 23 15 38t38 15q22 0 37 -15t15 -38q0 -22 -15 -37t-37 -15q-23 0 -38 15t-15 37zM319 646q0 23 14.5 38t37.5 15t38 -15t15 -38q0 -22 -15 -37t-38 -15t-37.5 15t-14.5 37z" />
    <glyph glyph-name="copyright" unicode="&#xa9;" horiz-adv-x="801" 
d="M121 348q0 -58 22 -109t60 -89t88.5 -60t108.5 -22t109 22t89 60t60 89t22 109q0 59 -22 110t-60 89t-89 60t-109 22t-108.5 -22t-88.5 -60t-60 -89t-22 -110zM46 348q0 73 28 137.5t76 113t112.5 76.5t137.5 28q74 0 138.5 -28t112.5 -76t76 -112.5t28 -138.5
q0 -73 -28 -137.5t-76 -112.5t-112.5 -76t-138.5 -28q-73 0 -137.5 28t-112.5 76t-76 112.5t-28 137.5zM502 419q-18 26 -45 40.5t-56 14.5q-24 0 -46 -10t-38 -27t-25.5 -39.5t-9.5 -48.5q0 -25 9.5 -47.5t25.5 -39.5t38 -26.5t46 -9.5q57 0 102 54l57 -58
q-33 -38 -73.5 -58t-85.5 -20q-43 0 -81 16t-66 44t-44 65t-16 80t16.5 80.5t44.5 65.5t65.5 44.5t79.5 16.5q45 0 86.5 -20.5t74.5 -58.5z" />
    <glyph glyph-name="ordfeminine" unicode="&#xaa;" horiz-adv-x="401" 
d="M281 558q0 20 -7 37.5t-19.5 30.5t-29 20.5t-35.5 7.5q-39 0 -65.5 -27.5t-26.5 -69.5q0 -41 26.5 -68t65.5 -27q38 0 64.5 27.5t26.5 68.5zM185 706q56 0 96 -42v36h55v-285h-55v36q-40 -42 -96 -42q-29 0 -55 11.5t-45.5 32t-30.5 47.5t-11 57q0 31 11 58t30.5 47.5
t45 32t55.5 11.5z" />
    <glyph glyph-name="guillemotleft" unicode="&#xab;" horiz-adv-x="553" 
d="M136 258l149 -176l-64 -36l-185 212l184 212l64 -37zM357 258l149 -176l-64 -36l-185 212l184 212l64 -37z" />
    <glyph glyph-name="logicalnot" unicode="&#xac;" horiz-adv-x="583" 
d="M522 193h-97v174h-364v88h461v-262z" />
    <glyph glyph-name="registered" unicode="&#xae;" horiz-adv-x="639" 
d="M385 493q0 22 -16.5 36t-42.5 14h-74v-100h74q26 0 42.5 14.5t16.5 35.5zM263 390h-11v-121h-55v326h129q50 0 82.5 -29t32.5 -73q0 -21 -8 -38.5t-21.5 -31t-32 -22t-39.5 -9.5l-4 -1l107 -122h-74zM89 432q0 -48 18 -90t49.5 -74t73.5 -50.5t89 -18.5q48 0 90 18.5
t73.5 50.5t49.5 74t18 90t-18 90t-49.5 74t-73.5 50.5t-90 18.5q-47 0 -89 -18.5t-73.5 -50.5t-49.5 -74t-18 -90zM41 432q0 58 22 108.5t59.5 88.5t88.5 60t108 22q58 0 108.5 -22t88.5 -60t60 -88.5t22 -108.5t-22 -108.5t-59.5 -88.5t-88.5 -60t-108 -22q-58 0 -108.5 22
t-88.5 60t-60 88.5t-22 108.5z" />
    <glyph glyph-name="macron" unicode="&#xaf;" horiz-adv-x="516" 
d="M396 658v-71h-276v71h276z" />
    <glyph glyph-name="degree" unicode="&#xb0;" horiz-adv-x="325" 
d="M42 572q0 25 9.5 46.5t26 38t38.5 26t47 9.5t46.5 -9.5t38 -26t26 -38t9.5 -46.5t-9.5 -46.5t-26 -38t-38 -26t-46.5 -9.5t-47 9.5t-38.5 26t-26 38t-9.5 46.5zM106 572q0 -23 16.5 -40t40.5 -17q23 0 39.5 17t16.5 40t-16.5 39.5t-39.5 16.5q-24 0 -40.5 -16.5
t-16.5 -39.5z" />
    <glyph glyph-name="plusminus" unicode="&#xb1;" horiz-adv-x="529" 
d="M440 413h-134v-134h-82v134h-135v78h135v135h82v-135h134v-78zM439 220v-78h-350v78h350z" />
    <glyph glyph-name="twosuperior" unicode="&#xb2;" horiz-adv-x="301" 
d="M53 458l124 103q11 10 20 22.5t9 25.5q0 23 -17.5 35.5t-39.5 12.5q-20 0 -35.5 -10.5t-23.5 -33.5l-43 21q17 37 43.5 55.5t59.5 18.5q22 0 41.5 -7.5t34.5 -20.5t24 -31t9 -40q0 -26 -13 -46t-33 -37l-77 -65h121v-49h-204v46z" />
    <glyph glyph-name="threesuperior" unicode="&#xb3;" horiz-adv-x="308" 
d="M259 658l-57 -62q28 -11 44.5 -35t16.5 -55q0 -21 -8.5 -40t-23.5 -33t-35 -22t-43 -8q-35 0 -62.5 16.5t-44.5 48.5l42 22q20 -36 62 -36q27 0 44.5 15t17.5 38t-19 38.5t-48 15.5h-14l-7 28l59 63h-129v48h205v-42z" />
    <glyph glyph-name="acute" unicode="&#xb4;" horiz-adv-x="311" 
d="M103 584l75 152l96 -32l-102 -120h-69z" />
    <glyph glyph-name="mu" unicode="&#xb5;" horiz-adv-x="612" 
d="M438 58q-27 -33 -68 -50.5t-86 -17.5q-31 0 -58.5 9t-50.5 26v-232h-96v712h96v-316q4 -44 36 -75t83 -31q26 0 51.5 9t46 27t33.5 44t13 59v283h95v-505h-95v58z" />
    <glyph glyph-name="paragraph" unicode="&#xb6;" horiz-adv-x="594" 
d="M44 521q0 35 13.5 67.5t36 57.5t53 39.5t64.5 14.5h322v-749h-90v660h-120v-660h-90v392h-21q-34 0 -64.5 14.5t-53.5 39.5t-36.5 57t-13.5 67z" />
    <glyph glyph-name="periodcentered" unicode="&#xb7;" horiz-adv-x="289" 
d="M83 252q0 26 18.5 44t44.5 18t44 -18t18 -44t-18 -44t-44 -18t-44.5 18t-18.5 44z" />
    <glyph glyph-name="cedilla" unicode="&#xb8;" horiz-adv-x="260" 
d="M158 -94q0 11 -8 16.5t-19 5.5q-8 0 -15.5 -2.5t-14.5 -8.5l-19 24l25 77h60l-15 -45q32 0 52 -19.5t20 -50.5q0 -38 -28.5 -62t-70.5 -24q-25 0 -49 9t-40 25l17 54q14 -15 30.5 -22t31.5 -7q20 0 31.5 8.5t11.5 21.5z" />
    <glyph glyph-name="onesuperior" unicode="&#xb9;" horiz-adv-x="225" 
d="M158 700v-292h-52v221l-43 -35l-16 50l65 56h46z" />
    <glyph glyph-name="ordmasculine" unicode="&#xba;" horiz-adv-x="391" 
d="M290 558q0 20 -7.5 38t-20 31.5t-29.5 21t-37 7.5q-19 0 -36.5 -8t-30.5 -21.5t-20.5 -31t-7.5 -37.5q0 -40 27.5 -68t67.5 -28q20 0 37 7.5t29.5 20.5t20 30.5t7.5 37.5zM46 558q0 31 12 58t32.5 47.5t47.5 32t58 11.5q30 0 57.5 -11.5t47.5 -32t32 -47.5t12 -58
t-11.5 -58t-32 -47t-47.5 -31.5t-58 -11.5t-58.5 11.5t-47.5 31.5t-32 47t-12 58z" />
    <glyph glyph-name="guillemotright" unicode="&#xbb;" horiz-adv-x="553" 
d="M44 433l64 37l184 -212l-185 -212l-64 36l149 176zM265 433l64 37l184 -212l-185 -212l-64 36l149 176z" />
    <glyph glyph-name="onehalf" unicode="&#xbd;" horiz-adv-x="810" 
d="M193 701v-386h-68v295l-57 -48l-21 66l86 73h60zM493 62l168 137q14 12 26 29t12 34q0 31 -23.5 48.5t-54.5 17.5q-26 0 -47.5 -14t-30.5 -43l-56 27q21 48 56 72t80 24q29 0 55 -10t46 -27t32 -41t12 -53q0 -35 -17 -61.5t-44 -48.5l-107 -88h166v-64h-273v61zM599 702
l-404 -701h-74l404 701h74z" />
    <glyph glyph-name="threequarters" unicode="&#xbe;" horiz-adv-x="818" 
d="M324 646l-78 -83q38 -15 60.5 -47t22.5 -73q0 -28 -11.5 -53t-31.5 -43.5t-46.5 -29t-57.5 -10.5q-46 0 -84.5 23t-57.5 62l55 31q11 -23 33 -36.5t50 -13.5q37 0 60.5 20t23.5 50q0 31 -24.5 52t-62.5 21h-20l-10 37l81 84h-174v63h272v-54zM551 136h105v137zM463 128
l196 258h64v-250h55l-20 -62h-35v-73h-67v73h-193v54zM683 701l-405 -700h-73l404 700h74z" />
    <glyph glyph-name="questiondown" unicode="&#xbf;" horiz-adv-x="517" 
d="M359.01 452.003q0 -25.998 -17.998 -43.9971q-17.999 -17.999 -43.998 -17.999q-25.998 0 -44.4971 17.999t-18.499 43.9971q0 25.999 18.499 44.498q18.499 18.498 44.4971 18.498q25.999 0 43.998 -18.498q17.998 -18.499 17.998 -44.498zM346.011 322.011v-157.99
q-35.9971 -12.999 -72.4951 -25.998t-65.9961 -31.998t-48.4971 -44.9971q-18.999 -25.999 -18.999 -63.9961q0 -53.9971 35.998 -81.9951t99.9941 -27.998q50.9961 0 84.4941 18.498q33.498 18.499 56.4971 63.4971l72.9951 -42.998q-33.998 -68.9961 -84.9941 -99.9941
q-50.9971 -30.998 -128.992 -30.998q-51.9971 0 -94.4941 14.499q-42.498 14.5 -72.9961 40.998t-47.4971 64.9961q-16.999 38.4971 -16.999 86.4941q0 44.998 15.499 78.4961q15.499 33.4971 43.4971 58.9961q27.999 25.498 65.4961 45.4971q37.498 19.999 81.4951 36.998
v99.9932h95.9941z" />
    <glyph glyph-name="Agrave" unicode="&#xc0;" horiz-adv-x="699" 
d="M349 567l-113 -286h226zM398 700l277 -700h-102l-77 195h-295l-77 -195h-102l277 700h99zM211 886l96 32l74 -152h-69z" />
    <glyph glyph-name="Aacute" unicode="&#xc1;" horiz-adv-x="705" 
d="M355 567l-113 -286h226zM404 700l277 -700h-102l-77 195h-295l-77 -195h-102l277 700h99zM325 766l75 152l96 -32l-102 -120h-69z" />
    <glyph glyph-name="Acircumflex" unicode="&#xc2;" horiz-adv-x="713" 
d="M357 567l-113 -286h226zM406 700l277 -700h-102l-77 195h-295l-77 -195h-102l277 700h99zM314 890h85l126 -150h-83l-85 83l-85 -83h-84z" />
    <glyph glyph-name="Atilde" unicode="&#xc3;" horiz-adv-x="699" 
d="M349 567l-113 -286h226zM398 700l277 -700h-102l-77 195h-295l-77 -195h-102l277 700h99zM184 785q0 59 26.5 97t68.5 38q23 0 43 -11t37 -24.5t31 -24.5t26 -11q15 0 24 19.5t9 51.5l65 -5q0 -59 -27 -97t-68 -38q-23 0 -42.5 11t-36 24.5t-30.5 24.5t-26 11
q-15 0 -25 -20.5t-10 -50.5z" />
    <glyph glyph-name="Adieresis" unicode="&#xc4;" horiz-adv-x="713" 
d="M357 567l-113 -286h226zM406 700l277 -700h-102l-77 195h-295l-77 -195h-102l277 700h99zM201 826q0 23 15 38t38 15q22 0 37 -15t15 -38q0 -22 -15 -37t-37 -15q-23 0 -38 15t-15 37zM407 826q0 23 14.5 38t37.5 15t38 -15t15 -38q0 -22 -15 -37t-38 -15t-37.5 15
t-14.5 37z" />
    <glyph glyph-name="Aring" unicode="&#xc5;" horiz-adv-x="713" 
d="M357 567l-113 -286h226zM406 700l277 -700h-102l-77 195h-295l-77 -195h-102l277 700h99zM251 833q0 22 8.5 41t22.5 33.5t33 22.5t41 8t41 -8t33.5 -22.5t23 -33.5t8.5 -41t-8.5 -41t-23 -33t-33.5 -22.5t-41 -8.5t-41 8.5t-33 22.5t-22.5 33t-8.5 41zM309 833
q0 -20 13.5 -34t33.5 -14t33.5 14t13.5 34t-13.5 34t-33.5 14t-33.5 -14t-13.5 -34z" />
    <glyph glyph-name="AE" unicode="&#xc6;" horiz-adv-x="983" 
d="M484 609l-175 -308h175v308zM945 613h-365v-187h316v-88h-316v-250h365v-88h-461v215h-223l-122 -215h-109l397 701h518v-88z" />
    <glyph glyph-name="Ccedilla" unicode="&#xc7;" horiz-adv-x="678" 
d="M397 79q51 0 97 21t81 60l65 -65q-41 -44 -98 -71.5t-121 -33.5l-6 -18q32 0 52 -19.5t20 -50.5q0 -37 -28.5 -61.5t-70.5 -24.5q-26 0 -49.5 9t-39.5 25l17 54q29 -29 62 -29q20 0 31.5 9t11.5 22q0 11 -8 16.5t-19 5.5q-16 0 -30 -12l-20 25l17 49q-64 6 -121 37
t-99.5 79t-67 110.5t-24.5 132.5q0 74 27.5 139.5t74.5 115t110 78t133 28.5q71 0 135.5 -29t110.5 -80l-64 -64q-35 40 -81.5 61t-97.5 21q-52 0 -98 -21t-80 -58t-54 -85.5t-20 -104.5t20 -105.5t54 -86t80 -58t98 -21.5z" />
    <glyph glyph-name="Egrave" unicode="&#xc8;" horiz-adv-x="613" 
d="M79 0v700h485v-88h-389v-186h342v-88h-342v-250h389v-88h-485zM193 886l96 32l74 -152h-69z" />
    <glyph glyph-name="Eacute" unicode="&#xc9;" horiz-adv-x="613" 
d="M79 0v700h485v-88h-389v-186h342v-88h-342v-250h389v-88h-485zM275 766l75 152l96 -32l-102 -120h-69z" />
    <glyph glyph-name="Ecircumflex" unicode="&#xca;" horiz-adv-x="612" 
d="M79 0v700h485v-88h-389v-186h342v-88h-342v-250h389v-88h-485zM275 913h85l126 -150h-83l-85 83l-85 -83h-84z" />
    <glyph glyph-name="Edieresis" unicode="&#xcb;" horiz-adv-x="613" 
d="M79 0v700h485v-88h-389v-186h342v-88h-342v-250h389v-88h-485zM158 804q0 23 15 38t38 15q22 0 37 -15t15 -38q0 -22 -15 -37t-37 -15q-23 0 -38 15t-15 37zM364 804q0 23 14.5 38t37.5 15t38 -15t15 -38q0 -22 -15 -37t-38 -15t-37.5 15t-14.5 37z" />
    <glyph glyph-name="Igrave" unicode="&#xcc;" horiz-adv-x="286" 
d="M191 700v-700h-96v700h96zM10 878l96 32l74 -152h-69z" />
    <glyph glyph-name="Iacute" unicode="&#xcd;" horiz-adv-x="287" 
d="M191 700v-700h-96v700h96zM118 751l75 152l96 -32l-102 -120h-69z" />
    <glyph glyph-name="Icircumflex" unicode="&#xce;" horiz-adv-x="286" 
d="M191 700v-700h-96v700h96zM100 905h85l126 -150h-83l-85 83l-85 -83h-84z" />
    <glyph glyph-name="Idieresis" unicode="&#xcf;" horiz-adv-x="286" 
d="M191 700v-700h-96v700h96zM-13 796q0 23 15 38t38 15q22 0 37 -15t15 -38q0 -22 -15 -37t-37 -15q-23 0 -38 15t-15 37zM193 796q0 23 14.5 38t37.5 15t38 -15t15 -38q0 -22 -15 -37t-38 -15t-37.5 15t-14.5 37z" />
    <glyph glyph-name="Eth" unicode="&#xd0;" horiz-adv-x="736" 
d="M680 349q0 -74 -26.5 -137.5t-75.5 -110.5t-117.5 -74t-151.5 -27h-221v280h-50v87h50v334h221q83 0 151.5 -27.5t117 -75t75.5 -111.5t27 -138zM584 350q0 56 -19.5 104t-55 83.5t-86.5 55.5t-114 20h-125v-246h149v-87h-149v-192h125q63 0 114 20t86.5 55t55 83
t19.5 104z" />
    <glyph glyph-name="Ntilde" unicode="&#xd1;" horiz-adv-x="759" 
d="M576 0l-400 547v-547h-96v700h100l399 -545v545h96v-700h-99zM224 785q0 59 26.5 97t68.5 38q23 0 43 -11t37 -24.5t31 -24.5t26 -11q15 0 24 19.5t9 51.5l65 -5q0 -59 -27 -97t-68 -38q-23 0 -42.5 11t-36 24.5t-30.5 24.5t-26 11q-15 0 -25 -20.5t-10 -50.5z" />
    <glyph glyph-name="Ograve" unicode="&#xd2;" horiz-adv-x="799" 
d="M652 350q0 56 -19.5 105t-53.5 86t-79.5 58t-97.5 21t-98 -21t-80 -58t-53.5 -86t-19.5 -105q0 -55 20 -104.5t54.5 -86t80 -58t97.5 -21.5t97.5 21.5t79 58t53 86t19.5 104.5zM54 349q0 75 27.5 141t75 114.5t111 77t135.5 28.5t135 -28t110 -77t74 -114.5t27 -140.5
t-27 -140.5t-74 -114.5t-110 -77t-135 -28t-135.5 28t-111 77t-75 114t-27.5 140zM267 899l96 32l74 -152h-69z" />
    <glyph glyph-name="Oacute" unicode="&#xd3;" horiz-adv-x="789" 
d="M645 350q0 56 -19.5 105t-53.5 86t-79.5 58t-97.5 21t-98 -21t-80 -58t-53.5 -86t-19.5 -105q0 -55 20 -104.5t54.5 -86t80 -58t97.5 -21.5t97.5 21.5t79 58t53 86t19.5 104.5zM47 349q0 75 27.5 141t75 114.5t111 77t135.5 28.5t135 -28t110 -77t74 -114.5t27 -140.5
t-27 -140.5t-74 -114.5t-110 -77t-135 -28t-135.5 28t-111 77t-75 114t-27.5 140zM355 764l75 152l96 -32l-102 -120h-69z" />
    <glyph glyph-name="Ocircumflex" unicode="&#xd4;" horiz-adv-x="789" 
d="M645 350q0 56 -19.5 105t-53.5 86t-79.5 58t-97.5 21t-98 -21t-80 -58t-53.5 -86t-19.5 -105q0 -55 20 -104.5t54.5 -86t80 -58t97.5 -21.5t97.5 21.5t79 58t53 86t19.5 104.5zM47 349q0 75 27.5 141t75 114.5t111 77t135.5 28.5t135 -28t110 -77t74 -114.5t27 -140.5
t-27 -140.5t-74 -114.5t-110 -77t-135 -28t-135.5 28t-111 77t-75 114t-27.5 140zM353 912h85l126 -150h-83l-85 83l-85 -83h-84z" />
    <glyph glyph-name="Otilde" unicode="&#xd5;" horiz-adv-x="785" 
d="M643 350q0 56 -19.5 105t-53.5 86t-79.5 58t-97.5 21t-98 -21t-80 -58t-53.5 -86t-19.5 -105q0 -55 20 -104.5t54.5 -86t80 -58t97.5 -21.5t97.5 21.5t79 58t53 86t19.5 104.5zM45 349q0 75 27.5 141t75 114.5t111 77t135.5 28.5t135 -28t110 -77t74 -114.5t27 -140.5
t-27 -140.5t-74 -114.5t-110 -77t-135 -28t-135.5 28t-111 77t-75 114t-27.5 140zM230 785q0 59 26.5 97t68.5 38q23 0 43 -11t37 -24.5t31 -24.5t26 -11q15 0 24 19.5t9 51.5l65 -5q0 -59 -27 -97t-68 -38q-23 0 -42.5 11t-36 24.5t-30.5 24.5t-26 11q-15 0 -25 -20.5
t-10 -50.5z" />
    <glyph glyph-name="Odieresis" unicode="&#xd6;" horiz-adv-x="789" 
d="M645 350q0 56 -19.5 105t-53.5 86t-79.5 58t-97.5 21t-98 -21t-80 -58t-53.5 -86t-19.5 -105q0 -55 20 -104.5t54.5 -86t80 -58t97.5 -21.5t97.5 21.5t79 58t53 86t19.5 104.5zM47 349q0 75 27.5 141t75 114.5t111 77t135.5 28.5t135 -28t110 -77t74 -114.5t27 -140.5
t-27 -140.5t-74 -114.5t-110 -77t-135 -28t-135.5 28t-111 77t-75 114t-27.5 140zM239 804q0 23 15 38t38 15q22 0 37 -15t15 -38q0 -22 -15 -37t-37 -15q-23 0 -38 15t-15 37zM445 804q0 23 14.5 38t37.5 15t38 -15t15 -38q0 -22 -15 -37t-38 -15t-37.5 15t-14.5 37z" />
    <glyph glyph-name="multiply" unicode="&#xd7;" horiz-adv-x="592" 
d="M158 555l136 -136l136 135l67 -67l-136 -135l139 -139l-67 -67l-139 139l-134 -134l-67 67l134 134l-136 136z" />
    <glyph glyph-name="Oslash" unicode="&#xd8;" horiz-adv-x="793" 
d="M214 43q-37 24 -67.5 56.5t-52.5 71.5t-34 84t-12 94q0 75 27.5 141t75 114.5t111 77t135.5 28.5q54 0 103 -17l18 41h96l-34 -77q75 -48 119.5 -128.5t44.5 -178.5q0 -75 -27 -140.5t-74.5 -114.5t-110.5 -77t-135 -28q-27 0 -52.5 4t-49.5 12l-18 -39h-97zM145 350
q0 -69 29.5 -126t77.5 -94l212 479q-35 11 -68 11q-52 0 -98 -21t-80 -58t-53.5 -86t-19.5 -105zM397 80q52 0 97.5 21.5t79.5 58t53.5 86t19.5 104.5q0 68 -28.5 125t-76.5 94l-211 -479q16 -5 32.5 -7.5t33.5 -2.5z" />
    <glyph glyph-name="Ugrave" unicode="&#xd9;" horiz-adv-x="757" 
d="M83 700h96v-446q0 -36 16 -67.5t43 -55t63 -37.5t77 -14t77.5 13.5t63.5 37.5t42.5 55.5t15.5 67.5v446h96v-447q0 -54 -23.5 -102t-63.5 -84t-93.5 -57t-114.5 -21q-60 0 -114 21t-94 57t-63.5 84t-23.5 102v447zM245 899l96 32l74 -152h-69z" />
    <glyph glyph-name="Uacute" unicode="&#xda;" horiz-adv-x="757" 
d="M83 700h96v-446q0 -36 16 -67.5t43 -55t63 -37.5t77 -14t77.5 13.5t63.5 37.5t42.5 55.5t15.5 67.5v446h96v-447q0 -54 -23.5 -102t-63.5 -84t-93.5 -57t-114.5 -21q-60 0 -114 21t-94 57t-63.5 84t-23.5 102v447zM349 779l75 152l96 -32l-102 -120h-69z" />
    <glyph glyph-name="Ucircumflex" unicode="&#xdb;" horiz-adv-x="757" 
d="M83 700h96v-446q0 -36 16 -67.5t43 -55t63 -37.5t77 -14t77.5 13.5t63.5 37.5t42.5 55.5t15.5 67.5v446h96v-447q0 -54 -23.5 -102t-63.5 -84t-93.5 -57t-114.5 -21q-60 0 -114 21t-94 57t-63.5 84t-23.5 102v447zM336 905h85l126 -150h-83l-85 83l-85 -83h-84z" />
    <glyph glyph-name="Udieresis" unicode="&#xdc;" horiz-adv-x="757" 
d="M83 700h96v-446q0 -36 16 -67.5t43 -55t63 -37.5t77 -14t77.5 13.5t63.5 37.5t42.5 55.5t15.5 67.5v446h96v-447q0 -54 -23.5 -102t-63.5 -84t-93.5 -57t-114.5 -21q-60 0 -114 21t-94 57t-63.5 84t-23.5 102v447zM222 804q0 23 15 38t38 15q22 0 37 -15t15 -38
q0 -22 -15 -37t-37 -15q-23 0 -38 15t-15 37zM428 804q0 23 14.5 38t37.5 15t38 -15t15 -38q0 -22 -15 -37t-38 -15t-37.5 15t-14.5 37z" />
    <glyph glyph-name="Yacute" unicode="&#xdd;" horiz-adv-x="667" 
d="M33 700h112l188 -303l190 303h111l-253 -405l1 -295h-96l-1 295zM305 779l75 152l96 -32l-102 -120h-69z" />
    <glyph glyph-name="Thorn" unicode="&#xde;" horiz-adv-x="614" 
d="M569 348q0 -52 -20.5 -93t-56.5 -69.5t-84 -44t-103 -15.5h-127v-126h-96v700h96v-126h125q55 0 103.5 -15.5t84.5 -44.5t57 -71t21 -95zM473 350q0 33 -13.5 58.5t-37 42.5t-54 26t-65.5 9h-125v-272h127q34 0 64.5 9t53.5 26t36.5 42.5t13.5 58.5z" />
    <glyph glyph-name="germandbls" unicode="&#xdf;" horiz-adv-x="584" 
d="M414 512q0 24 -9.5 44t-25.5 34.5t-38 23t-47 8.5q-53 0 -84.5 -30t-31.5 -80v-512h-97v514q0 42 16 77.5t43.5 62t65.5 41.5t82 15q47 0 87 -14.5t69 -41t45.5 -63.5t16.5 -82t-19.5 -80t-56.5 -59q54 -29 80 -69t26 -97q0 -45 -18.5 -82.5t-51.5 -64.5t-78 -42t-99 -15
h-45v87h45q67 3 109 31t42 82q0 55 -41 86.5t-111 31.5h-44v87h45q57 0 91 30.5t34 76.5z" />
    <glyph glyph-name="agrave" unicode="&#xe0;" 
d="M487 260q0 38 -13.5 70.5t-37 57t-55 38.5t-67.5 14t-67.5 -14t-55 -39t-37 -57.5t-13.5 -70.5q0 -37 13 -70t36.5 -57t55 -38t67.5 -14t68 14t55.5 38.5t37 57.5t13.5 70zM305 530q53 0 100 -20t82 -61v72h96v-521h-96v72q-35 -41 -82.5 -61.5t-100.5 -20.5t-100.5 21.5
t-83 58t-56 86t-20.5 105.5t20.5 105t55.5 85.5t83 57.5t102 21zM208 704l96 32l74 -152h-69z" />
    <glyph glyph-name="aacute" unicode="&#xe1;" 
d="M487 260q0 38 -13.5 70.5t-37 57t-55 38.5t-67.5 14t-67.5 -14t-55 -39t-37 -57.5t-13.5 -70.5q0 -37 13 -70t36.5 -57t55 -38t67.5 -14t68 14t55.5 38.5t37 57.5t13.5 70zM305 530q53 0 100 -20t82 -61v72h96v-521h-96v72q-35 -41 -82.5 -61.5t-100.5 -20.5t-100.5 21.5
t-83 58t-56 86t-20.5 105.5t20.5 105t55.5 85.5t83 57.5t102 21zM273 584l75 152l96 -32l-102 -120h-69z" />
    <glyph glyph-name="acircumflex" unicode="&#xe2;" 
d="M487 260q0 38 -13.5 70.5t-37 57t-55 38.5t-67.5 14t-67.5 -14t-55 -39t-37 -57.5t-13.5 -70.5q0 -37 13 -70t36.5 -57t55 -38t67.5 -14t68 14t55.5 38.5t37 57.5t13.5 70zM305 530q53 0 100 -20t82 -61v72h96v-521h-96v72q-35 -41 -82.5 -61.5t-100.5 -20.5t-100.5 21.5
t-83 58t-56 86t-20.5 105.5t20.5 105t55.5 85.5t83 57.5t102 21zM274 710h85l126 -150h-83l-85 83l-85 -83h-84z" />
    <glyph glyph-name="atilde" unicode="&#xe3;" 
d="M487 260q0 38 -13.5 70.5t-37 57t-55 38.5t-67.5 14t-67.5 -14t-55 -39t-37 -57.5t-13.5 -70.5q0 -37 13 -70t36.5 -57t55 -38t67.5 -14t68 14t55.5 38.5t37 57.5t13.5 70zM305 530q53 0 100 -20t82 -61v72h96v-521h-96v72q-35 -41 -82.5 -61.5t-100.5 -20.5t-100.5 21.5
t-83 58t-56 86t-20.5 105.5t20.5 105t55.5 85.5t83 57.5t102 21zM152 590q0 59 26.5 97t68.5 38q23 0 43 -11t37 -24.5t31 -24.5t26 -11q15 0 24 19.5t9 51.5l65 -5q0 -59 -27 -97t-68 -38q-23 0 -42.5 11t-36 24.5t-30.5 24.5t-26 11q-15 0 -25 -20.5t-10 -50.5z" />
    <glyph glyph-name="adieresis" unicode="&#xe4;" horiz-adv-x="655" 
d="M487 260q0 38 -13.5 70.5t-37 57t-55 38.5t-67.5 14t-67.5 -14t-55 -39t-37 -57.5t-13.5 -70.5q0 -37 13 -70t36.5 -57t55 -38t67.5 -14t68 14t55.5 38.5t37 57.5t13.5 70zM305 530q53 0 100 -20t82 -61v72h96v-521h-96v72q-35 -41 -82.5 -61.5t-100.5 -20.5t-100.5 21.5
t-83 58t-56 86t-20.5 105.5t20.5 105t55.5 85.5t83 57.5t102 21zM160 644q0 23 15 38t38 15q22 0 37 -15t15 -38q0 -22 -15 -37t-37 -15q-23 0 -38 15t-15 37zM366 644q0 23 14.5 38t37.5 15t38 -15t15 -38q0 -22 -15 -37t-38 -15t-37.5 15t-14.5 37z" />
    <glyph glyph-name="aring" unicode="&#xe5;" 
d="M487 260q0 38 -13.5 70.5t-37 57t-55 38.5t-67.5 14t-67.5 -14t-55 -39t-37 -57.5t-13.5 -70.5q0 -37 13 -70t36.5 -57t55 -38t67.5 -14t68 14t55.5 38.5t37 57.5t13.5 70zM305 530q53 0 100 -20t82 -61v72h96v-521h-96v72q-35 -41 -82.5 -61.5t-100.5 -20.5t-100.5 21.5
t-83 58t-56 86t-20.5 105.5t20.5 105t55.5 85.5t83 57.5t102 21zM211 663q0 22 8.5 41t22.5 33.5t33 22.5t41 8t41 -8t33.5 -22.5t23 -33.5t8.5 -41t-8.5 -41t-23 -33t-33.5 -22.5t-41 -8.5t-41 8.5t-33 22.5t-22.5 33t-8.5 41zM269 663q0 -20 13.5 -34t33.5 -14t33.5 14
t13.5 34t-13.5 34t-33.5 14t-33.5 -14t-13.5 -34z" />
    <glyph glyph-name="ae" unicode="&#xe6;" horiz-adv-x="1073" 
d="M41 261q0 56 20.5 105t55.5 85.5t83 57.5t102 21t100.5 -20t81.5 -60v71h92v-69q37 36 85.5 56.5t102.5 20.5q63 0 115 -24.5t88.5 -67t54.5 -99t12 -120.5h-436q6 -30 21.5 -55t38 -44t50.5 -29.5t59 -10.5q44 0 81 19t60 52l62 -62q-33 -45 -89 -71.5t-119 -26.5
q-54 0 -102.5 21t-83.5 56v-68h-92v72q-35 -41 -82 -61.5t-101 -20.5q-53 0 -100.5 21.5t-83 58.5t-56 86.5t-20.5 105.5zM310 80q36 0 68 14t55.5 38.5t37 57.5t13.5 70q0 38 -13.5 70.5t-37 57.5t-55 39t-67.5 14t-67.5 -14.5t-55 -39t-37 -58t-13.5 -71.5q0 -37 13 -69.5
t36.5 -56.5t55 -38t67.5 -14zM764 440q-59 0 -105 -37.5t-62 -100.5h335q-6 30 -22 55.5t-38 44t-50 28.5t-58 10z" />
    <glyph glyph-name="ccedilla" unicode="&#xe7;" horiz-adv-x="550" 
d="M314 530q59 0 110.5 -24t91.5 -72l-64 -63q-25 33 -62.5 51.5t-77.5 18.5q-36 0 -67.5 -14.5t-55.5 -39t-37.5 -57.5t-13.5 -70t14 -70t38 -57.5t56 -38.5t68 -14q39 0 75.5 18t62.5 51l63 -63q-34 -41 -77 -64t-92 -29l-7 -22q32 0 52 -19t20 -50q0 -38 -28.5 -62.5
t-70.5 -24.5q-26 0 -49.5 9t-39.5 26l17 53q28 -28 62 -28q19 0 31 8.5t12 21.5q0 11 -8 16.5t-19 5.5q-8 0 -15.5 -2.5t-14.5 -8.5l-20 24l18 53q-52 5 -96.5 27.5t-77 58.5t-51 82.5t-18.5 98.5q0 55 21 104t57.5 86t86 58.5t106.5 21.5z" />
    <glyph glyph-name="egrave" unicode="&#xe8;" horiz-adv-x="610" 
d="M475 302q-6 30 -21.5 55.5t-38 43.5t-50 28.5t-57.5 10.5q-60 0 -106 -37.5t-62 -100.5h335zM513 88q-33 -46 -88.5 -72t-118.5 -26q-55 0 -104 21t-85.5 58t-57.5 86t-21 105t21.5 105t58 85.5t86 57.5t105.5 21q61 0 112.5 -24t87.5 -66t54.5 -99t12.5 -122h-435
q6 -30 21.5 -55t38 -44t51 -29.5t59.5 -10.5q44 0 81 18.5t60 52.5zM179 704l96 32l74 -152h-69z" />
    <glyph glyph-name="eacute" unicode="&#xe9;" horiz-adv-x="610" 
d="M475 302q-6 30 -21.5 55.5t-38 43.5t-50 28.5t-57.5 10.5q-60 0 -106 -37.5t-62 -100.5h335zM513 88q-33 -46 -88.5 -72t-118.5 -26q-55 0 -104 21t-85.5 58t-57.5 86t-21 105t21.5 105t58 85.5t86 57.5t105.5 21q61 0 112.5 -24t87.5 -66t54.5 -99t12.5 -122h-435
q6 -30 21.5 -55t38 -44t51 -29.5t59.5 -10.5q44 0 81 18.5t60 52.5zM276 584l75 152l96 -32l-102 -120h-69z" />
    <glyph glyph-name="ecircumflex" unicode="&#xea;" horiz-adv-x="610" 
d="M475 302q-6 30 -21.5 55.5t-38 43.5t-50 28.5t-57.5 10.5q-60 0 -106 -37.5t-62 -100.5h335zM513 88q-33 -46 -88.5 -72t-118.5 -26q-55 0 -104 21t-85.5 58t-57.5 86t-21 105t21.5 105t58 85.5t86 57.5t105.5 21q61 0 112.5 -24t87.5 -66t54.5 -99t12.5 -122h-435
q6 -30 21.5 -55t38 -44t51 -29.5t59.5 -10.5q44 0 81 18.5t60 52.5zM262 710h85l126 -150h-83l-85 83l-85 -83h-84z" />
    <glyph glyph-name="edieresis" unicode="&#xeb;" horiz-adv-x="610" 
d="M475 302q-6 30 -21.5 55.5t-38 43.5t-50 28.5t-57.5 10.5q-60 0 -106 -37.5t-62 -100.5h335zM513 88q-33 -46 -88.5 -72t-118.5 -26q-55 0 -104 21t-85.5 58t-57.5 86t-21 105t21.5 105t58 85.5t86 57.5t105.5 21q61 0 112.5 -24t87.5 -66t54.5 -99t12.5 -122h-435
q6 -30 21.5 -55t38 -44t51 -29.5t59.5 -10.5q44 0 81 18.5t60 52.5zM149 646q0 23 15 38t38 15q22 0 37 -15t15 -38q0 -22 -15 -37t-37 -15q-23 0 -38 15t-15 37zM355 646q0 23 14.5 38t37.5 15t38 -15t15 -38q0 -22 -15 -37t-38 -15t-37.5 15t-14.5 37z" />
    <glyph glyph-name="igrave" unicode="&#xec;" horiz-adv-x="268" 
d="M175 520v-520h-96v520h96zM-2 704l96 32l74 -152h-69z" />
    <glyph glyph-name="iacute" unicode="&#xed;" horiz-adv-x="268" 
d="M175 520v-520h-96v520h96zM99 584l75 152l96 -32l-102 -120h-69z" />
    <glyph glyph-name="icircumflex" unicode="&#xee;" horiz-adv-x="268" 
d="M182 520v-520h-96v520h96zM92 710h85l126 -150h-83l-85 83l-85 -83h-84z" />
    <glyph glyph-name="idieresis" unicode="&#xef;" horiz-adv-x="268" 
d="M182 520v-520h-96v520h96zM-22 646q0 23 15 38t38 15q22 0 37 -15t15 -38q0 -22 -15 -37t-37 -15q-23 0 -38 15t-15 37zM184 646q0 23 14.5 38t37.5 15t38 -15t15 -38q0 -22 -15 -37t-38 -15t-37.5 15t-14.5 37z" />
    <glyph glyph-name="eth" unicode="&#xf0;" horiz-adv-x="615" 
d="M292 472q88 0 151 -55q-8 38 -29 72t-51 60l-109 -62l-33 61l79 45q-36 19 -72 23l-27 86q53 -4 98.5 -19t85.5 -41l82 47l33 -61l-57 -33q55 -55 86 -131.5t31 -169.5q0 -70 -18 -126.5t-51.5 -96.5t-81 -61.5t-106.5 -21.5q-55 0 -102 19t-81.5 52.5t-54 79t-19.5 97.5
q1 50 20.5 93.5t52.5 75t77.5 49.5t95.5 18zM295 381q-31 0 -59 -11.5t-49 -31t-33 -46t-12 -56.5q0 -33 12 -61.5t33 -49.5t49 -33.5t60 -12.5q34 0 63.5 12t52 33t35.5 49.5t13 61.5q0 31 -12.5 58t-35 46.5t-52.5 30.5t-65 11z" />
    <glyph glyph-name="ntilde" unicode="&#xf1;" horiz-adv-x="600" 
d="M330 530q45 0 82.5 -16.5t65 -45t43 -67.5t15.5 -85v-315h-95v313q0 54 -34.5 88.5t-90.5 34.5q-30 0 -57 -11t-46.5 -30.5t-31 -46t-11.5 -57.5v-291h-95v519h95v-59q26 32 69.5 50.5t90.5 18.5zM134 590q0 59 26.5 97t68.5 38q23 0 43 -11t37 -24.5t31 -24.5t26 -11
q15 0 24 19.5t9 51.5l65 -5q0 -59 -27 -97t-68 -38q-23 0 -42.5 11t-36 24.5t-30.5 24.5t-26 11q-15 0 -25 -20.5t-10 -50.5z" />
    <glyph glyph-name="ograve" unicode="&#xf2;" horiz-adv-x="618" 
d="M483 259q0 37 -14 70t-37.5 58t-55 39.5t-67.5 14.5q-35 0 -66.5 -14.5t-55.5 -39.5t-38 -58t-14 -70q0 -36 14 -68.5t38 -57t55.5 -39t66.5 -14.5q36 0 67.5 14t55 38.5t37.5 57t14 69.5zM39 259q0 57 21.5 106.5t58 86t86 58t104.5 21.5q56 0 105 -21.5t86 -58t58 -86
t21 -106.5q0 -56 -21 -105t-58 -85.5t-86 -57.5t-105 -21t-105 21t-86 57.5t-58 85.5t-21 105zM170 705l96 32l74 -152h-69z" />
    <glyph glyph-name="oacute" unicode="&#xf3;" horiz-adv-x="618" 
d="M483 259q0 37 -14 70t-37.5 58t-55 39.5t-67.5 14.5q-35 0 -66.5 -14.5t-55.5 -39.5t-38 -58t-14 -70q0 -36 14 -68.5t38 -57t55.5 -39t66.5 -14.5q36 0 67.5 14t55 38.5t37.5 57t14 69.5zM39 259q0 57 21.5 106.5t58 86t86 58t104.5 21.5q56 0 105 -21.5t86 -58t58 -86
t21 -106.5q0 -56 -21 -105t-58 -85.5t-86 -57.5t-105 -21t-105 21t-86 57.5t-58 85.5t-21 105zM268 586l75 152l96 -32l-102 -120h-69z" />
    <glyph glyph-name="ocircumflex" unicode="&#xf4;" horiz-adv-x="618" 
d="M483 259q0 37 -14 70t-37.5 58t-55 39.5t-67.5 14.5q-35 0 -66.5 -14.5t-55.5 -39.5t-38 -58t-14 -70q0 -36 14 -68.5t38 -57t55.5 -39t66.5 -14.5q36 0 67.5 14t55 38.5t37.5 57t14 69.5zM39 259q0 57 21.5 106.5t58 86t86 58t104.5 21.5q56 0 105 -21.5t86 -58t58 -86
t21 -106.5q0 -56 -21 -105t-58 -85.5t-86 -57.5t-105 -21t-105 21t-86 57.5t-58 85.5t-21 105zM266 710h85l126 -150h-83l-85 83l-85 -83h-84z" />
    <glyph glyph-name="otilde" unicode="&#xf5;" horiz-adv-x="618" 
d="M483 259q0 37 -14 70t-37.5 58t-55 39.5t-67.5 14.5q-35 0 -66.5 -14.5t-55.5 -39.5t-38 -58t-14 -70q0 -36 14 -68.5t38 -57t55.5 -39t66.5 -14.5q36 0 67.5 14t55 38.5t37.5 57t14 69.5zM39 259q0 57 21.5 106.5t58 86t86 58t104.5 21.5q56 0 105 -21.5t86 -58t58 -86
t21 -106.5q0 -56 -21 -105t-58 -85.5t-86 -57.5t-105 -21t-105 21t-86 57.5t-58 85.5t-21 105zM144 590q0 59 26.5 97t68.5 38q23 0 43 -11t37 -24.5t31 -24.5t26 -11q15 0 24 19.5t9 51.5l65 -5q0 -59 -27 -97t-68 -38q-23 0 -42.5 11t-36 24.5t-30.5 24.5t-26 11
q-15 0 -25 -20.5t-10 -50.5z" />
    <glyph glyph-name="odieresis" unicode="&#xf6;" horiz-adv-x="618" 
d="M483 259q0 37 -14 70t-37.5 58t-55 39.5t-67.5 14.5q-35 0 -66.5 -14.5t-55.5 -39.5t-38 -58t-14 -70q0 -36 14 -68.5t38 -57t55.5 -39t66.5 -14.5q36 0 67.5 14t55 38.5t37.5 57t14 69.5zM39 259q0 57 21.5 106.5t58 86t86 58t104.5 21.5q56 0 105 -21.5t86 -58t58 -86
t21 -106.5q0 -56 -21 -105t-58 -85.5t-86 -57.5t-105 -21t-105 21t-86 57.5t-58 85.5t-21 105zM153 644q0 23 15 38t38 15q22 0 37 -15t15 -38q0 -22 -15 -37t-37 -15q-23 0 -38 15t-15 37zM359 644q0 23 14.5 38t37.5 15t38 -15t15 -38q0 -22 -15 -37t-38 -15t-37.5 15
t-14.5 37z" />
    <glyph glyph-name="divide" unicode="&#xf7;" horiz-adv-x="599" 
d="M518 393v-85h-437v85h437zM240 518q0 24 17.5 41.5t42.5 17.5q24 0 41.5 -17.5t17.5 -41.5q0 -25 -17.5 -42.5t-41.5 -17.5q-25 0 -42.5 17.5t-17.5 42.5zM240 183q0 24 17.5 41.5t42.5 17.5q24 0 41.5 -17.5t17.5 -41.5q0 -25 -17.5 -42.5t-41.5 -17.5q-25 0 -42.5 17.5
t-17.5 42.5z" />
    <glyph glyph-name="oslash" unicode="&#xf8;" horiz-adv-x="618" 
d="M141 48q-47 37 -74.5 91.5t-27.5 119.5q0 57 21 106.5t58 86t86 58t105 21.5q51 0 100 -19l34 59h90l-57 -99q47 -37 75 -92t28 -121q0 -56 -21 -105t-58 -85.5t-86 -57.5t-105 -21t-100 19l-35 -60h-89zM135 259q0 -38 14.5 -70.5t40.5 -57.5l172 300q-13 5 -26 7.5
t-27 2.5q-36 0 -67.5 -14.5t-55 -39.5t-37.5 -58t-14 -70zM309 80q35 0 66.5 14t55.5 38.5t38 57t14 69.5q0 38 -15 71.5t-40 58.5l-173 -299q28 -10 54 -10z" />
    <glyph glyph-name="ugrave" unicode="&#xf9;" horiz-adv-x="599" 
d="M275 -10q-45 0 -82.5 16.5t-65 45t-43 68t-15.5 84.5v316h95v-313q0 -27 9 -49.5t25.5 -39t39.5 -26t50 -9.5q30 0 57 11.5t47 31t31.5 46t11.5 56.5v292h95v-520h-95v60q-27 -33 -70 -51.5t-90 -18.5zM170 704l96 32l74 -152h-69z" />
    <glyph glyph-name="uacute" unicode="&#xfa;" horiz-adv-x="600" 
d="M276 -10q-45 0 -82.5 16.5t-65 45t-43 68t-15.5 84.5v316h95v-313q0 -27 9 -49.5t25.5 -39t39.5 -26t50 -9.5q30 0 57 11.5t47 31t31.5 46t11.5 56.5v292h95v-520h-95v60q-27 -33 -70 -51.5t-90 -18.5zM262 584l75 152l96 -32l-102 -120h-69z" />
    <glyph glyph-name="ucircumflex" unicode="&#xfb;" horiz-adv-x="600" 
d="M276 -10q-45 0 -82.5 16.5t-65 45t-43 68t-15.5 84.5v316h95v-313q0 -27 9 -49.5t25.5 -39t39.5 -26t50 -9.5q30 0 57 11.5t47 31t31.5 46t11.5 56.5v292h95v-520h-95v60q-27 -33 -70 -51.5t-90 -18.5zM257 710h85l126 -150h-83l-85 83l-85 -83h-84z" />
    <glyph glyph-name="udieresis" unicode="&#xfc;" horiz-adv-x="600" 
d="M276 -10q-45 0 -82.5 16.5t-65 45t-43 68t-15.5 84.5v316h95v-313q0 -27 9 -49.5t25.5 -39t39.5 -26t50 -9.5q30 0 57 11.5t47 31t31.5 46t11.5 56.5v292h95v-520h-95v60q-27 -33 -70 -51.5t-90 -18.5zM144 645q0 23 15 38t38 15q22 0 37 -15t15 -38q0 -22 -15 -37
t-37 -15q-23 0 -38 15t-15 37zM350 645q0 23 14.5 38t37.5 15t38 -15t15 -38q0 -22 -15 -37t-38 -15t-37.5 15t-14.5 37z" />
    <glyph glyph-name="yacute" unicode="&#xfd;" horiz-adv-x="599" 
d="M95 -104q27 -12 48 -12q20 0 35 10.5t26 28.5t20.5 41t19.5 48l-215 508h104l164 -386l165 386h104l-270 -626q-21 -48 -60.5 -74.5t-85.5 -26.5q-41 0 -81 23zM261 584l75 152l96 -32l-102 -120h-69z" />
    <glyph glyph-name="thorn" unicode="&#xfe;" horiz-adv-x="660" 
d="M169 260q0 -37 13.5 -70t37 -58t55 -39t67.5 -14t67.5 14.5t55 39t37 58t13.5 71.5t-13 70.5t-36.5 56.5t-55 37.5t-67.5 13.5t-68 -14t-55.5 -38.5t-37 -57t-13.5 -70.5zM351 -10q-53 0 -100 20t-82 61v-264h-96v894h96v-252q35 41 82.5 61.5t100.5 20.5t100.5 -21.5
t83 -58.5t56 -86.5t20.5 -105.5t-20.5 -105t-55.5 -85.5t-83 -57.5t-102 -21z" />
    <glyph glyph-name="ydieresis" unicode="&#xff;" horiz-adv-x="599" 
d="M95 -104q27 -12 48 -12q20 0 35 10.5t26 28.5t20.5 41t19.5 48l-215 508h104l164 -386l165 386h104l-270 -626q-21 -48 -60.5 -74.5t-85.5 -26.5q-41 0 -81 23zM144 644q0 23 15 38t38 15q22 0 37 -15t15 -38q0 -22 -15 -37t-37 -15q-23 0 -38 15t-15 37zM350 644
q0 23 14.5 38t37.5 15t38 -15t15 -38q0 -22 -15 -37t-38 -15t-37.5 15t-14.5 37z" />
    <glyph glyph-name="Amacron" unicode="&#x100;" horiz-adv-x="715" 
d="M357 567l-113 -286h226zM406 700l277 -700h-102l-77 195h-295l-77 -195h-102l277 700h99zM495 853v-71h-276v71h276z" />
    <glyph glyph-name="amacron" unicode="&#x101;" 
d="M487 260q0 38 -13.5 70.5t-37 57t-55 38.5t-67.5 14t-67.5 -14t-55 -39t-37 -57.5t-13.5 -70.5q0 -37 13 -70t36.5 -57t55 -38t67.5 -14t68 14t55.5 38.5t37 57.5t13.5 70zM305 530q53 0 100 -20t82 -61v72h96v-521h-96v72q-35 -41 -82.5 -61.5t-100.5 -20.5t-100.5 21.5
t-83 58t-56 86t-20.5 105.5t20.5 105t55.5 85.5t83 57.5t102 21zM454 658v-71h-276v71h276z" />
    <glyph glyph-name="Abreve" unicode="&#x102;" horiz-adv-x="715" 
d="M357 567l-113 -286h226zM406 700l277 -700h-102l-77 195h-295l-77 -195h-102l277 700h99zM274 905q38 -35 83 -35q23 0 42 8t42 27l50 -51q-25 -28 -61 -44t-74 -16q-37 0 -71.5 15.5t-60.5 44.5z" />
    <glyph glyph-name="abreve" unicode="&#x103;" 
d="M487 260q0 38 -13.5 70.5t-37 57t-55 38.5t-67.5 14t-67.5 -14t-55 -39t-37 -57.5t-13.5 -70.5q0 -37 13 -70t36.5 -57t55 -38t67.5 -14t68 14t55.5 38.5t37 57.5t13.5 70zM305 530q53 0 100 -20t82 -61v72h96v-521h-96v72q-35 -41 -82.5 -61.5t-100.5 -20.5t-100.5 21.5
t-83 58t-56 86t-20.5 105.5t20.5 105t55.5 85.5t83 57.5t102 21zM233 710q38 -35 83 -35q23 0 42 8t42 27l50 -51q-25 -28 -61 -44t-74 -16q-37 0 -71.5 15.5t-60.5 44.5z" />
    <glyph glyph-name="Aogonek" unicode="&#x104;" horiz-adv-x="713" 
d="M676 -117q28 0 49 19l32 -48q-36 -32 -84 -32q-51 0 -84 32t-33 80q0 49 36 77l-16 3l-74 185h-291l-79 -199h-102l277 700h99l277 -700h-6q-11 0 -21 -4t-18 -10q-23 -22 -17 -51q2 -22 17.5 -37t37.5 -15zM468 285l-111 282l-112 -282h223z" />
    <glyph glyph-name="aogonek" unicode="&#x105;" 
d="M44 261q0 56 20.5 105t56 85.5t83.5 57.5t102 21q52 0 99 -20t82 -60v71h96v-522h-1q-22 0 -39 -14q-22 -21 -16 -50q2 -23 17.5 -37.5t37.5 -14.5q28 0 49 18l32 -47q-39 -33 -84 -33q-25 0 -46.5 8.5t-37.5 24t-25 36t-9 44.5q0 50 39 78l-13 2v58q-35 -42 -82.5 -62.5
t-99.5 -20.5q-54 0 -101.5 21.5t-83 58.5t-56 86.5t-20.5 105.5zM313 80q37 0 68.5 14t55 38.5t37 57.5t13.5 70q0 38 -13.5 70.5t-37 57.5t-55 39t-67.5 14t-67.5 -14.5t-55 -39t-37 -58t-13.5 -71.5q0 -37 13 -69.5t36.5 -56.5t55 -38t67.5 -14z" />
    <glyph glyph-name="Cacute" unicode="&#x106;" horiz-adv-x="678" 
d="M633 96q-45 -50 -110.5 -78.5t-137.5 -28.5q-69 0 -131.5 28.5t-109 77.5t-74 114.5t-27.5 139.5t27.5 139.5t74.5 115t109.5 78t132.5 28.5q72 0 136.5 -29t109.5 -80l-63 -64q-36 40 -82.5 61t-97.5 21q-52 0 -98 -21t-80 -57.5t-53.5 -85.5t-19.5 -105t20 -105t54 -86
t79.5 -58t97.5 -21q51 0 97 21t81 60zM330 779l75 152l96 -32l-102 -120h-69z" />
    <glyph glyph-name="cacute" unicode="&#x107;" horiz-adv-x="548" 
d="M447 371q-24 33 -61.5 51.5t-77.5 18.5q-36 0 -67.5 -14.5t-55.5 -39.5t-38 -58t-14 -70t14 -69.5t38 -57t56 -38.5t68 -14q40 0 76 18t62 50l62 -63q-40 -46 -91.5 -70t-110.5 -24q-57 0 -106 21t-85 57.5t-57 85.5t-21 104q0 56 21 105t57.5 86t85.5 58.5t105 21.5
q59 0 111.5 -24.5t91.5 -71.5zM255 584l75 152l96 -32l-102 -120h-69z" />
    <glyph glyph-name="Ccircumflex" unicode="&#x108;" horiz-adv-x="677" 
d="M633 96q-45 -50 -110.5 -78.5t-137.5 -28.5q-69 0 -131.5 28.5t-109 77.5t-74 114.5t-27.5 139.5t27.5 139.5t74.5 115t109.5 78t132.5 28.5q72 0 136.5 -29t109.5 -80l-63 -64q-36 40 -82.5 61t-97.5 21q-52 0 -98 -21t-80 -57.5t-53.5 -85.5t-19.5 -105t20 -105t54 -86
t79.5 -58t97.5 -21q51 0 97 21t81 60zM359 905h85l126 -150h-83l-85 83l-85 -83h-84z" />
    <glyph glyph-name="ccircumflex" unicode="&#x109;" horiz-adv-x="540" 
d="M447 371q-24 33 -61.5 51.5t-77.5 18.5q-36 0 -67.5 -14.5t-55.5 -39.5t-38 -58t-14 -70t14 -69.5t38 -57t56 -38.5t68 -14q40 0 76 18t62 50l62 -63q-40 -46 -91.5 -70t-110.5 -24q-57 0 -106 21t-85 57.5t-57 85.5t-21 104q0 56 21 105t57.5 86t85.5 58.5t105 21.5
q59 0 111.5 -24.5t91.5 -71.5zM262 710h85l126 -150h-83l-85 83l-85 -83h-84z" />
    <glyph glyph-name="Cdotaccent" unicode="&#x10a;" horiz-adv-x="680" 
d="M633 96q-45 -50 -110.5 -78.5t-137.5 -28.5q-69 0 -131.5 28.5t-109 77.5t-74 114.5t-27.5 139.5t27.5 139.5t74.5 115t109.5 78t132.5 28.5q72 0 136.5 -29t109.5 -80l-63 -64q-36 40 -82.5 61t-97.5 21q-52 0 -98 -21t-80 -57.5t-53.5 -85.5t-19.5 -105t20 -105t54 -86
t79.5 -58t97.5 -21q51 0 97 21t81 60zM295 841q0 23 15 38t37 15q23 0 38 -15t15 -38q0 -22 -15 -37t-38 -15q-22 0 -37 15t-15 37z" />
    <glyph glyph-name="cdotaccent" unicode="&#x10b;" horiz-adv-x="540" 
d="M447 371q-24 33 -61.5 51.5t-77.5 18.5q-36 0 -67.5 -14.5t-55.5 -39.5t-38 -58t-14 -70t14 -69.5t38 -57t56 -38.5t68 -14q40 0 76 18t62 50l62 -63q-40 -46 -91.5 -70t-110.5 -24q-57 0 -106 21t-85 57.5t-57 85.5t-21 104q0 56 21 105t57.5 86t85.5 58.5t105 21.5
q59 0 111.5 -24.5t91.5 -71.5zM247 646q0 23 15 38t37 15q23 0 38 -15t15 -38q0 -22 -15 -37t-38 -15q-22 0 -37 15t-15 37z" />
    <glyph glyph-name="Ccaron" unicode="&#x10c;" horiz-adv-x="677" 
d="M633 96q-45 -50 -110.5 -78.5t-137.5 -28.5q-69 0 -131.5 28.5t-109 77.5t-74 114.5t-27.5 139.5t27.5 139.5t74.5 115t109.5 78t132.5 28.5q72 0 136.5 -29t109.5 -80l-63 -64q-36 40 -82.5 61t-97.5 21q-52 0 -98 -21t-80 -57.5t-53.5 -85.5t-19.5 -105t20 -105t54 -86
t79.5 -58t97.5 -21q51 0 97 21t81 60zM232 905h84l85 -81l85 81h83l-126 -150h-85z" />
    <glyph glyph-name="ccaron" unicode="&#x10d;" horiz-adv-x="548" 
d="M447 371q-24 33 -61.5 51.5t-77.5 18.5q-36 0 -67.5 -14.5t-55.5 -39.5t-38 -58t-14 -70t14 -69.5t38 -57t56 -38.5t68 -14q40 0 76 18t62 50l62 -63q-40 -46 -91.5 -70t-110.5 -24q-57 0 -106 21t-85 57.5t-57 85.5t-21 104q0 56 21 105t57.5 86t85.5 58.5t105 21.5
q59 0 111.5 -24.5t91.5 -71.5zM132 710h84l85 -81l85 81h83l-126 -150h-85z" />
    <glyph glyph-name="Dcaron" unicode="&#x10e;" horiz-adv-x="733" 
d="M180 613v-525h125q63 0 114 20t86.5 55t55 83t19.5 104t-19.5 104t-55 83.5t-86.5 55.5t-114 20h-125zM84 0v701h221q83 0 151 -27.5t117 -75t76 -111.5t27 -138t-27 -137.5t-75.5 -110.5t-117 -74t-151.5 -27h-221zM185 905h84l85 -81l85 81h83l-126 -150h-85z" />
    <glyph glyph-name="dcaron" unicode="&#x10f;" horiz-adv-x="821" 
d="M478 261q0 38 -13.5 70.5t-37.5 57t-55.5 38.5t-67.5 14t-67.5 -14t-55 -39t-37 -57.5t-13.5 -70.5q0 -37 13 -70t36.5 -57t55 -38t67.5 -14q37 0 69 14t55.5 38.5t37 57.5t13.5 70zM296 531q53 0 99.5 -20t82.5 -61v251h96v-700h-96v72q-36 -41 -83.5 -61.5t-99.5 -20.5
q-54 0 -101.5 21.5t-83 58t-56 86t-20.5 105.5t20.5 105t56 85.5t83 57.5t102.5 21zM772 633q0 -45 -21 -82t-63 -62l-34 57q16 10 25.5 26t9.5 33q-21 5 -34.5 22t-13.5 38q0 26 18.5 44.5t43.5 18.5q30 0 49.5 -26t19.5 -69z" />
    <glyph glyph-name="Dcroat" unicode="&#x110;" horiz-adv-x="749" 
d="M693 349q0 -74 -26.5 -137.5t-75.5 -110.5t-117.5 -74t-151.5 -27h-221v280h-50v87h50v334h221q83 0 151.5 -27.5t117 -75t75.5 -111.5t27 -138zM597 350q0 56 -19.5 104t-55 83.5t-86.5 55.5t-114 20h-125v-246h149v-87h-149v-192h125q63 0 114 20t86.5 55t55 83
t19.5 104z" />
    <glyph glyph-name="dcroat" unicode="&#x111;" horiz-adv-x="695" 
d="M42 261q0 56 20.5 105t55.5 85.5t83 57.5t102 21t100.5 -20t81.5 -60v127h-128v74h128v49h96v-49h52v-74h-52v-576h-96v72q-35 -42 -82.5 -62.5t-100.5 -20.5q-54 0 -101 21.5t-82.5 58t-56 86t-20.5 105.5zM310 81q37 0 69 14t55.5 38.5t37 57t13.5 69.5
q0 38 -13.5 70.5t-37 57.5t-55.5 39t-68 14t-67.5 -14t-55 -39t-37 -58t-13.5 -71q0 -37 13 -69.5t36.5 -56.5t55 -38t67.5 -14z" />
    <glyph glyph-name="Emacron" unicode="&#x112;" horiz-adv-x="610" 
d="M79 0v700h485v-88h-389v-186h342v-88h-342v-250h389v-88h-485zM443 838v-71h-276v71h276z" />
    <glyph glyph-name="emacron" unicode="&#x113;" horiz-adv-x="613" 
d="M474 302q-6 30 -21.5 55.5t-38 43.5t-50 28.5t-57.5 10.5q-60 0 -106 -37.5t-62 -100.5h335zM512 88q-33 -46 -88.5 -72t-118.5 -26q-55 0 -104 21t-85.5 58t-57.5 86t-21 105t21.5 105t58 85.5t86 57.5t105.5 21q61 0 112.5 -24t87.5 -66t54.5 -99t12.5 -122h-435
q6 -30 21.5 -55t38 -44t51 -29.5t59.5 -10.5q44 0 81 18.5t60 52.5zM444 658v-71h-276v71h276z" />
    <glyph glyph-name="Ebreve" unicode="&#x114;" horiz-adv-x="601" 
d="M79 0v700h485v-88h-389v-186h342v-88h-342v-250h389v-88h-485zM218 905q38 -35 83 -35q23 0 42 8t42 27l50 -51q-25 -28 -61 -44t-74 -16q-37 0 -71.5 15.5t-60.5 44.5z" />
    <glyph glyph-name="ebreve" unicode="&#x115;" horiz-adv-x="613" 
d="M474 302q-6 30 -21.5 55.5t-38 43.5t-50 28.5t-57.5 10.5q-60 0 -106 -37.5t-62 -100.5h335zM512 88q-33 -46 -88.5 -72t-118.5 -26q-55 0 -104 21t-85.5 58t-57.5 86t-21 105t21.5 105t58 85.5t86 57.5t105.5 21q61 0 112.5 -24t87.5 -66t54.5 -99t12.5 -122h-435
q6 -30 21.5 -55t38 -44t51 -29.5t59.5 -10.5q44 0 81 18.5t60 52.5zM223 710q38 -35 83 -35q23 0 42 8t42 27l50 -51q-25 -28 -61 -44t-74 -16q-37 0 -71.5 15.5t-60.5 44.5z" />
    <glyph glyph-name="Edotaccent" unicode="&#x116;" horiz-adv-x="613" 
d="M79 0v700h485v-88h-389v-186h342v-88h-342v-250h389v-88h-485zM266 841q0 23 15 38t37 15q23 0 38 -15t15 -38q0 -22 -15 -37t-38 -15q-22 0 -37 15t-15 37z" />
    <glyph glyph-name="edotaccent" unicode="&#x117;" horiz-adv-x="613" 
d="M475 302q-6 30 -21.5 55.5t-38 43.5t-50 28.5t-57.5 10.5q-60 0 -106 -37.5t-62 -100.5h335zM513 88q-33 -46 -88.5 -72t-118.5 -26q-55 0 -104 21t-85.5 58t-57.5 86t-21 105t21.5 105t58 85.5t86 57.5t105.5 21q61 0 112.5 -24t87.5 -66t54.5 -99t12.5 -122h-435
q6 -30 21.5 -55t38 -44t51 -29.5t59.5 -10.5q44 0 81 18.5t60 52.5zM254 646q0 23 15 38t37 15q23 0 38 -15t15 -38q0 -22 -15 -37t-38 -15q-22 0 -37 15t-15 37z" />
    <glyph glyph-name="Eogonek" unicode="&#x118;" horiz-adv-x="610" 
d="M564 -116q28 0 48 18l32 -47q-37 -33 -83 -33q-25 0 -46.5 9t-37.5 24t-25 35.5t-9 44.5q0 38 25 66h-389v699h486v-88h-390v-186h342v-88h-342v-249h390v-88h-1q-21 0 -38 -14q-12 -11 -16 -24t-2 -27q2 -23 18 -37.5t38 -14.5z" />
    <glyph glyph-name="eogonek" unicode="&#x119;" horiz-adv-x="613" 
d="M313 80q44 0 81 18.5t60 51.5l62 -61q-35 -49 -90 -72.5t-116 -25.5q-2 -1 -6 -5q-11 -10 -15 -23t-2 -27q2 -23 17.5 -37.5t38.5 -14.5q12 0 25 5t23 13l32 -47q-37 -33 -84 -33q-25 0 -46 9t-37 24t-25 35.5t-9 44.5q0 36 22 64q-44 11 -81.5 35t-64.5 58.5t-42.5 77.5
t-15.5 90q0 56 21.5 105t58 85.5t86 57.5t105.5 21q61 0 112 -24t87 -66t54.5 -98.5t13.5 -122.5h-434q5 -30 20.5 -55t38.5 -43.5t51 -29t59 -10.5zM310 440q-59 0 -105 -37.5t-62 -100.5h335q-6 30 -22 55.5t-38.5 43.5t-50 28.5t-57.5 10.5z" />
    <glyph glyph-name="Ecaron" unicode="&#x11a;" horiz-adv-x="610" 
d="M79 0v700h485v-88h-389v-186h342v-88h-342v-250h389v-88h-485zM143 905h84l85 -81l85 81h83l-126 -150h-85z" />
    <glyph glyph-name="ecaron" unicode="&#x11b;" horiz-adv-x="613" 
d="M474 302q-6 30 -21.5 55.5t-38 43.5t-50 28.5t-57.5 10.5q-60 0 -106 -37.5t-62 -100.5h335zM512 88q-33 -46 -88.5 -72t-118.5 -26q-55 0 -104 21t-85.5 58t-57.5 86t-21 105t21.5 105t58 85.5t86 57.5t105.5 21q61 0 112.5 -24t87.5 -66t54.5 -99t12.5 -122h-435
q6 -30 21.5 -55t38 -44t51 -29.5t59.5 -10.5q44 0 81 18.5t60 52.5zM146 710h84l85 -81l85 81h83l-126 -150h-85z" />
    <glyph glyph-name="Gcircumflex" unicode="&#x11c;" horiz-adv-x="710" 
d="M643 372v-275q-56 -53 -117 -80t-129 -27q-72 0 -136 28.5t-111.5 77t-75 114t-27.5 139.5t27.5 140t74.5 115t110 77.5t134 28.5q65 0 125 -23t98 -60l-47 -80q-73 73 -174 73q-52 0 -97.5 -21t-79.5 -57.5t-53.5 -85t-19.5 -103.5q0 -56 20 -105.5t53.5 -86.5
t78.5 -58.5t95 -21.5q44 0 87 15.5t68 39.5v147h-150v89h246zM318 905h85l126 -150h-83l-85 83l-85 -83h-84z" />
    <glyph glyph-name="gcircumflex" unicode="&#x11d;" horiz-adv-x="638" 
d="M43 268q0 54 19.5 101.5t54 83.5t80.5 56.5t98 20.5q99 0 174 -78v68h96v-499q0 -51 -19.5 -93t-54 -72t-82.5 -46.5t-106 -16.5q-116 0 -183 65l28 85q23 -29 62 -45t87 -16q38 0 69 10t54 27.5t35.5 41.5t12.5 53v64q-74 -77 -171 -77q-52 0 -98.5 21t-81 57.5
t-54.5 85t-20 103.5zM304 92q35 0 65.5 13t52.5 36t34.5 54.5t12.5 68.5q0 38 -12.5 70t-35 55t-53 36.5t-65.5 13.5t-65 -13.5t-52 -36.5t-34.5 -55t-12.5 -69t12.5 -68.5t34.5 -55t52.5 -36.5t65.5 -13zM277 710h85l126 -150h-83l-85 83l-85 -83h-84z" />
    <glyph glyph-name="Gbreve" unicode="&#x11e;" horiz-adv-x="713" 
d="M643 372v-275q-56 -53 -117 -80t-129 -27q-72 0 -136 28.5t-111.5 77t-75 114t-27.5 139.5t27.5 140t74.5 115t110 77.5t134 28.5q65 0 125 -23t98 -60l-47 -80q-73 73 -174 73q-52 0 -97.5 -21t-79.5 -57.5t-53.5 -85t-19.5 -103.5q0 -56 20 -105.5t53.5 -86.5
t78.5 -58.5t95 -21.5q44 0 87 15.5t68 39.5v147h-150v89h246zM274 905q38 -35 83 -35q23 0 42 8t42 27l50 -51q-25 -28 -61 -44t-74 -16q-37 0 -71.5 15.5t-60.5 44.5z" />
    <glyph glyph-name="gbreve" unicode="&#x11f;" horiz-adv-x="639" 
d="M44 268q0 54 19.5 101.5t54 83.5t80.5 56.5t98 20.5q99 0 174 -78v68h96v-499q0 -51 -19.5 -93t-54 -72t-82.5 -46.5t-106 -16.5q-116 0 -183 65l28 85q23 -29 62 -45t87 -16q38 0 69 10t54 27.5t35.5 41.5t12.5 53v64q-74 -77 -171 -77q-52 0 -98.5 21t-81 57.5
t-54.5 85t-20 103.5zM305 92q35 0 65.5 13t52.5 36t34.5 54.5t12.5 68.5q0 38 -12.5 70t-35 55t-53 36.5t-65.5 13.5t-65 -13.5t-52 -36.5t-34.5 -55t-12.5 -69t12.5 -68.5t34.5 -55t52.5 -36.5t65.5 -13zM241 710q38 -35 83 -35q23 0 42 8t42 27l50 -51q-25 -28 -61 -44
t-74 -16q-37 0 -71.5 15.5t-60.5 44.5z" />
    <glyph glyph-name="Gdotaccent" unicode="&#x120;" horiz-adv-x="713" 
d="M643 372v-275q-56 -53 -117 -80t-129 -27q-72 0 -136 28.5t-111.5 77t-75 114t-27.5 139.5t27.5 140t74.5 115t110 77.5t134 28.5q65 0 125 -23t98 -60l-47 -80q-73 73 -174 73q-52 0 -97.5 -21t-79.5 -57.5t-53.5 -85t-19.5 -103.5q0 -56 20 -105.5t53.5 -86.5
t78.5 -58.5t95 -21.5q44 0 87 15.5t68 39.5v147h-150v89h246zM323 841q0 23 15 38t37 15q23 0 38 -15t15 -38q0 -22 -15 -37t-38 -15q-22 0 -37 15t-15 37z" />
    <glyph glyph-name="gdotaccent" unicode="&#x121;" horiz-adv-x="639" 
d="M44 268q0 54 19.5 101.5t54 83.5t80.5 56.5t98 20.5q99 0 174 -78v68h96v-499q0 -51 -19.5 -93t-54 -72t-82.5 -46.5t-106 -16.5q-116 0 -183 65l28 85q23 -29 62 -45t87 -16q38 0 69 10t54 27.5t35.5 41.5t12.5 53v64q-74 -77 -171 -77q-52 0 -98.5 21t-81 57.5
t-54.5 85t-20 103.5zM305 92q35 0 65.5 13t52.5 36t34.5 54.5t12.5 68.5q0 38 -12.5 70t-35 55t-53 36.5t-65.5 13.5t-65 -13.5t-52 -36.5t-34.5 -55t-12.5 -69t12.5 -68.5t34.5 -55t52.5 -36.5t65.5 -13zM266 646q0 23 15 38t37 15q23 0 38 -15t15 -38q0 -22 -15 -37
t-38 -15q-22 0 -37 15t-15 37z" />
    <glyph glyph-name="uni0122" unicode="&#x122;" horiz-adv-x="713" 
d="M643 372v-275q-56 -53 -117 -80t-129 -27q-72 0 -136 28.5t-111.5 77t-75 114t-27.5 139.5t27.5 140t74.5 115t110 77.5t134 28.5q65 0 125 -23t98 -60l-47 -80q-73 73 -174 73q-52 0 -97.5 -21t-79.5 -57.5t-53.5 -85t-19.5 -103.5q0 -56 20 -105.5t53.5 -86.5
t78.5 -58.5t95 -21.5q44 0 87 15.5t68 39.5v147h-150v89h246zM462 -108q0 -35 -19 -67t-54 -54l-34 54q11 7 18.5 18t8.5 27q-14 6 -22.5 19t-8.5 29q0 21 15 35.5t37 14.5q30 0 44.5 -23.5t14.5 -52.5z" />
    <glyph glyph-name="uni0123" unicode="&#x123;" horiz-adv-x="638" 
d="M39 268q0 54 19.5 101.5t54 83.5t80.5 56.5t98 20.5q99 0 174 -78v68h96v-499q0 -51 -19.5 -93t-54 -72t-82.5 -46.5t-106 -16.5q-116 0 -183 65l28 85q23 -29 62 -45t87 -16q38 0 69 10t54 27.5t35.5 41.5t12.5 53v64q-74 -77 -171 -77q-52 0 -98.5 21t-81 57.5
t-54.5 85t-20 103.5zM300 92q35 0 65.5 13t52.5 36t34.5 54.5t12.5 68.5q0 38 -12.5 70t-35 55t-53 36.5t-65.5 13.5t-65 -13.5t-52 -36.5t-34.5 -55t-12.5 -69t12.5 -68.5t34.5 -55t52.5 -36.5t65.5 -13zM241 689q0 44 21 81.5t63 61.5l35 -57q-17 -10 -26.5 -25.5
t-9.5 -32.5q21 -5 34.5 -22t13.5 -39q0 -26 -18.5 -44t-43.5 -18q-30 0 -49.5 26t-19.5 69z" />
    <glyph glyph-name="Hcircumflex" unicode="&#x124;" horiz-adv-x="691" 
d="M512 426v275h96v-701h-96v338h-333v-338h-96v701h96v-275h333zM303 890h85l126 -150h-83l-85 83l-85 -83h-84z" />
    <glyph glyph-name="hcircumflex" unicode="&#x125;" horiz-adv-x="636" 
d="M346 528q47 0 86.5 -18t68 -50t45 -76t16.5 -96v-287h-96v285q0 33 -9.5 60.5t-27 47.5t-42 31t-53.5 11q-32 0 -61 -13t-51.5 -35t-35.5 -50.5t-13 -59.5v-277h-96v700h96v-255q35 40 79 61t94 21zM81 872h85l126 -150h-83l-85 83l-85 -83h-84z" />
    <glyph glyph-name="Hbar" unicode="&#x126;" horiz-adv-x="704" 
d="M187 0h-97v538h-31v71h31v92h97v-92h332v92h97v-92h29v-71h-29v-538h-97v338h-332v-338zM187 426h332v112h-332v-112z" />
    <glyph glyph-name="hbar" unicode="&#x127;" horiz-adv-x="661" 
d="M357 436q-32 0 -61 -13t-51.5 -34.5t-36 -50t-13.5 -59.5v-278h-97v584h-49v74h49v42h97v-42h134v-74h-134v-139q35 42 79 62t94 20q47 0 86.5 -18t68 -50t45 -76t16.5 -96v-287h-96v285q0 33 -10 60.5t-27 47.5t-41 31t-53 11z" />
    <glyph glyph-name="Itilde" unicode="&#x128;" horiz-adv-x="282" 
d="M188 700v-700h-96v700h96zM-25 785q0 59 26.5 97t68.5 38q23 0 43 -11t37 -24.5t31 -24.5t26 -11q15 0 24 19.5t9 51.5l65 -5q0 -59 -27 -97t-68 -38q-23 0 -42.5 11t-36 24.5t-30.5 24.5t-26 11q-15 0 -25 -20.5t-10 -50.5z" />
    <glyph glyph-name="itilde" unicode="&#x129;" horiz-adv-x="300" 
d="M192 520v-520h-96v520h96zM-16 590q0 59 26.5 97t68.5 38q23 0 43 -11t37 -24.5t31 -24.5t26 -11q15 0 24 19.5t9 51.5l65 -5q0 -59 -27 -97t-68 -38q-23 0 -42.5 11t-36 24.5t-30.5 24.5t-26 11q-15 0 -25 -20.5t-10 -50.5z" />
    <glyph glyph-name="Imacron" unicode="&#x12a;" horiz-adv-x="284" 
d="M190 700v-700h-96v700h96zM280 838v-71h-276v71h276z" />
    <glyph glyph-name="imacron" unicode="&#x12b;" horiz-adv-x="268" 
d="M175 520v-520h-96v520h96zM272 658v-71h-276v71h276z" />
    <glyph glyph-name="Ibreve" unicode="&#x12c;" horiz-adv-x="294" 
d="M191 700v-700h-96v700h96zM64 890q38 -35 83 -35q23 0 42 8t42 27l50 -51q-25 -28 -61 -44t-74 -16q-37 0 -71.5 15.5t-60.5 44.5z" />
    <glyph glyph-name="ibreve" unicode="&#x12d;" horiz-adv-x="281" 
d="M182 520v-520h-96v520h96zM57 710q38 -35 83 -35q23 0 42 8t42 27l50 -51q-25 -28 -61 -44t-74 -16q-37 0 -71.5 15.5t-60.5 44.5z" />
    <glyph glyph-name="Iogonek" unicode="&#x12e;" horiz-adv-x="284" 
d="M179 -117q12 0 25 5t21 13l31 -47q-38 -30 -80 -30q-50 0 -83.5 32.5t-33.5 82.5q0 42 34 72v689h96v-700h-10q-25 0 -41.5 -17t-16.5 -41q0 -25 17 -42t41 -17z" />
    <glyph glyph-name="iogonek" unicode="&#x12f;" horiz-adv-x="263" 
d="M165 -117q28 0 49 19l32 -47q-39 -33 -84 -33q-25 0 -46.5 8.5t-37.5 24t-25 36t-9 44.5q0 49 40 78v507h96v-520h-15q-22 0 -39 -14q-22 -21 -16 -51q2 -22 17.5 -37t37.5 -15zM131 599q-23 0 -39 16.5t-16 39.5t16 39.5t39 16.5t39.5 -16.5t16.5 -39.5t-16.5 -39.5
t-39.5 -16.5z" />
    <glyph glyph-name="Idotaccent" unicode="&#x130;" horiz-adv-x="281" 
d="M188 700v-700h-96v700h96zM82 841q0 23 15 38t37 15q23 0 38 -15t15 -38q0 -22 -15 -37t-38 -15q-22 0 -37 15t-15 37z" />
    <glyph glyph-name="dotlessi" unicode="&#x131;" horiz-adv-x="268" 
d="M182 520v-520h-96v520h96z" />
    <glyph glyph-name="IJ" unicode="&#x132;" horiz-adv-x="738" 
d="M191 700v-700h-96v700h96zM676 206q0 -42 -15 -81t-42 -69t-65 -48t-84 -18q-35 0 -71 13t-65 41l27 85q23 -26 51 -36t51 -10q29 0 50.5 11t36 29t22 40t7.5 44v493h97v-494z" />
    <glyph glyph-name="ij" unicode="&#x133;" horiz-adv-x="535" 
d="M79 655q0 23 15.5 39.5t39.5 16.5q23 0 39 -16.5t16 -39.5t-16 -39.5t-39 -16.5q-24 0 -39.5 16.5t-15.5 39.5zM182 520v-520h-95v520h95zM451 -38q0 -82 -42.5 -126.5t-111.5 -44.5q-62 0 -104 32l26 81q26 -22 62 -22q4 0 7.5 0.5t7.5 0.5q29 2 44 21.5t15 65.5v549h96
v-557zM348 656q0 23 16 39t39 16t39 -16t16 -39t-16 -39.5t-39 -16.5t-39 16.5t-16 39.5z" />
    <glyph glyph-name="Jcircumflex" unicode="&#x134;" horiz-adv-x="441" 
d="M380 206q0 -42 -15 -81t-42 -69t-65 -48t-84 -18q-35 0 -71 13t-65 41l27 85q23 -26 51 -36t51 -10q29 0 50.5 11t36 29t22 40t7.5 44v493h97v-494zM277 905h85l126 -150h-83l-85 83l-85 -83h-84z" />
    <glyph glyph-name="jcircumflex" unicode="&#x135;" horiz-adv-x="262" 
d="M180 -39q0 -81 -38 -129.5t-121 -48.5q-65 0 -111 41l28 85q14 -20 36.5 -27t45.5 -7q21 1 33.5 8.5t19.5 19.5t9 28t2 33v556h96v-559zM90 703h85l126 -150h-83l-85 83l-85 -83h-85z" />
    <glyph glyph-name="uni0136" unicode="&#x136;" horiz-adv-x="625" 
d="M599 0h-113l-231 334l-80 -82v-252h-94v700h94v-315l302 315h125l-282 -297zM369 -103q0 -35 -19 -67t-54 -54l-34 54q11 7 18.5 18t8.5 27q-14 6 -22.5 19t-8.5 29q0 21 15 35.5t37 14.5q30 0 44.5 -23.5t14.5 -52.5z" />
    <glyph glyph-name="uni0137" unicode="&#x137;" horiz-adv-x="580" 
d="M545 520l-222 -189l231 -331h-119l-186 268l-78 -65v-202h-96v700h96v-374l230 193h144zM347 -103q0 -35 -19 -67t-54 -54l-34 54q11 7 18.5 18t8.5 27q-14 6 -22.5 19t-8.5 29q0 21 15 35.5t37 14.5q30 0 44.5 -23.5t14.5 -52.5z" />
    <glyph glyph-name="Lacute" unicode="&#x139;" horiz-adv-x="595" 
d="M81 0v701h96v-613h341v-88h-437zM100 779l75 152l96 -32l-102 -120h-69z" />
    <glyph glyph-name="lacute" unicode="&#x13a;" horiz-adv-x="262" 
d="M180 701v-700h-96v700h96zM99 760l75 152l96 -32l-102 -120h-69z" />
    <glyph glyph-name="uni013B" unicode="&#x13b;" horiz-adv-x="585" 
d="M81 0v701h96v-613h341v-88h-437zM349 -103q0 -35 -19 -67t-54 -54l-34 54q11 7 18.5 18t8.5 27q-14 6 -22.5 19t-8.5 29q0 21 15 35.5t37 14.5q30 0 44.5 -23.5t14.5 -52.5z" />
    <glyph glyph-name="uni013C" unicode="&#x13c;" horiz-adv-x="270" 
d="M180 701v-700h-96v700h96zM192 -103q0 -35 -19 -67t-54 -54l-34 54q11 7 18.5 18t8.5 27q-14 6 -22.5 19t-8.5 29q0 21 15 35.5t37 14.5q30 0 44.5 -23.5t14.5 -52.5z" />
    <glyph glyph-name="Lcaron" unicode="&#x13d;" horiz-adv-x="595" 
d="M81 0v701h96v-613h341v-88h-437zM382 637q0 -45 -21 -82t-63 -62l-34 57q16 10 25.5 26t9.5 33q-21 5 -34.5 22t-13.5 38q0 26 18.5 44.5t43.5 18.5q30 0 49.5 -26t19.5 -69z" />
    <glyph glyph-name="lcaron" unicode="&#x13e;" horiz-adv-x="437" 
d="M180 701v-700h-96v700h96zM395 633q0 -45 -21 -82t-63 -62l-34 57q16 10 25.5 26t9.5 33q-21 5 -34.5 22t-13.5 38q0 26 18.5 44.5t43.5 18.5q30 0 49.5 -26t19.5 -69z" />
    <glyph glyph-name="Ldot" unicode="&#x13f;" horiz-adv-x="595" 
d="M81 0v701h96v-613h341v-88h-437zM256 260q0 26 18.5 44t44.5 18t44 -18t18 -44t-18 -44t-44 -18t-44.5 18t-18.5 44z" />
    <glyph glyph-name="ldot" unicode="&#x140;" horiz-adv-x="433" 
d="M180 701v-700h-96v700h96zM261 252q0 26 18.5 44t44.5 18t44 -18t18 -44t-18 -44t-44 -18t-44.5 18t-18.5 44z" />
    <glyph glyph-name="Lslash" unicode="&#x141;" horiz-adv-x="611" 
d="M583 0h-478v265l-55 -32v100l55 32v336h96v-281l118 68v-101l-118 -67v-232h382v-88z" />
    <glyph glyph-name="lslash" unicode="&#x142;" horiz-adv-x="338" 
d="M114 701h97v-271l96 55v-99l-96 -55v-330h-97v274l-82 -48v100l82 48v326z" />
    <glyph glyph-name="Nacute" unicode="&#x143;" horiz-adv-x="781" 
d="M577 0l-400 547v-547h-96v700h100l399 -545v545h96v-700h-99zM330 779l75 152l96 -32l-102 -120h-69z" />
    <glyph glyph-name="nacute" unicode="&#x144;" horiz-adv-x="597" 
d="M329 530q45 0 82.5 -16.5t65 -45t43 -67.5t15.5 -85v-315h-95v313q0 54 -34.5 88.5t-90.5 34.5q-30 0 -57 -11t-46.5 -30.5t-31 -46t-11.5 -57.5v-291h-95v519h95v-59q26 32 69.5 50.5t90.5 18.5zM279 586l75 152l96 -32l-102 -120h-69z" />
    <glyph glyph-name="uni0145" unicode="&#x145;" horiz-adv-x="781" 
d="M577 0l-400 547v-547h-96v700h100l399 -545v545h96v-700h-99zM447 -103q0 -35 -19 -67t-54 -54l-34 54q11 7 18.5 18t8.5 27q-14 6 -22.5 19t-8.5 29q0 21 15 35.5t37 14.5q30 0 44.5 -23.5t14.5 -52.5z" />
    <glyph glyph-name="uni0146" unicode="&#x146;" horiz-adv-x="600" 
d="M330 530q45 0 82.5 -16.5t65 -45t43 -67.5t15.5 -85v-315h-95v313q0 54 -34.5 88.5t-90.5 34.5q-30 0 -57 -11t-46.5 -30.5t-31 -46t-11.5 -57.5v-291h-95v519h95v-59q26 32 69.5 50.5t90.5 18.5zM357 -103q0 -35 -19 -67t-54 -54l-34 54q11 7 18.5 18t8.5 27
q-14 6 -22.5 19t-8.5 29q0 21 15 35.5t37 14.5q30 0 44.5 -23.5t14.5 -52.5z" />
    <glyph glyph-name="Ncaron" unicode="&#x147;" horiz-adv-x="781" 
d="M577 0l-400 547v-547h-96v700h100l399 -545v545h96v-700h-99zM222 905h84l85 -81l85 81h83l-126 -150h-85z" />
    <glyph glyph-name="ncaron" unicode="&#x148;" horiz-adv-x="600" 
d="M330 530q45 0 82.5 -16.5t65 -45t43 -67.5t15.5 -85v-315h-95v313q0 54 -34.5 88.5t-90.5 34.5q-30 0 -57 -11t-46.5 -30.5t-31 -46t-11.5 -57.5v-291h-95v519h95v-59q26 32 69.5 50.5t90.5 18.5zM131 710h84l85 -81l85 81h83l-126 -150h-85z" />
    <glyph glyph-name="napostrophe" unicode="&#x149;" horiz-adv-x="718" 
d="M448 530q45 0 82.5 -16.5t65 -45t43 -67.5t15.5 -85v-315h-95v313q0 54 -34.5 88.5t-90.5 34.5q-30 0 -57 -11t-46.5 -30.5t-31 -46t-11.5 -57.5v-291h-95v519h95v-59q26 32 69.5 50.5t90.5 18.5zM153 462q0 -35 -19 -67t-54 -54l-34 54q11 7 18.5 18t8.5 27
q-14 6 -22.5 19t-8.5 29q0 21 15 35.5t37 14.5q30 0 44.5 -23.5t14.5 -52.5z" />
    <glyph glyph-name="Omacron" unicode="&#x14c;" horiz-adv-x="798" 
d="M652 350q0 56 -19.5 105t-53.5 86t-79.5 58t-97.5 21t-98 -21t-80 -58t-53.5 -86t-19.5 -105q0 -55 20 -104.5t54.5 -86t80 -58t97.5 -21.5t97.5 21.5t79 58t53 86t19.5 104.5zM54 349q0 75 27.5 141t75 114.5t111 77t135.5 28.5t135 -28t110 -77t74 -114.5t27 -140.5
t-27 -140.5t-74 -114.5t-110 -77t-135 -28t-135.5 28t-111 77t-75 114t-27.5 140zM540 853v-71h-276v71h276z" />
    <glyph glyph-name="omacron" unicode="&#x14d;" horiz-adv-x="621" 
d="M484 259q0 37 -14 70t-37.5 58t-55 39.5t-67.5 14.5q-35 0 -66.5 -14.5t-55.5 -39.5t-38 -58t-14 -70q0 -36 14 -68.5t38 -57t55.5 -39t66.5 -14.5q36 0 67.5 14t55 38.5t37.5 57t14 69.5zM40 259q0 57 21.5 106.5t58 86t86 58t104.5 21.5q56 0 105 -21.5t86 -58t58 -86
t21 -106.5q0 -56 -21 -105t-58 -85.5t-86 -57.5t-105 -21t-105 21t-86 57.5t-58 85.5t-21 105zM448 658v-71h-276v71h276z" />
    <glyph glyph-name="Obreve" unicode="&#x14e;" horiz-adv-x="787" 
d="M645 350q0 56 -19.5 105t-53.5 86t-79.5 58t-97.5 21t-98 -21t-80 -58t-53.5 -86t-19.5 -105q0 -55 20 -104.5t54.5 -86t80 -58t97.5 -21.5t97.5 21.5t79 58t53 86t19.5 104.5zM47 349q0 75 27.5 141t75 114.5t111 77t135.5 28.5t135 -28t110 -77t74 -114.5t27 -140.5
t-27 -140.5t-74 -114.5t-110 -77t-135 -28t-135.5 28t-111 77t-75 114t-27.5 140zM313 905q38 -35 83 -35q23 0 42 8t42 27l50 -51q-25 -28 -61 -44t-74 -16q-37 0 -71.5 15.5t-60.5 44.5z" />
    <glyph glyph-name="obreve" unicode="&#x14f;" horiz-adv-x="618" 
d="M483 259q0 37 -14 70t-37.5 58t-55 39.5t-67.5 14.5q-35 0 -66.5 -14.5t-55.5 -39.5t-38 -58t-14 -70q0 -36 14 -68.5t38 -57t55.5 -39t66.5 -14.5q36 0 67.5 14t55 38.5t37.5 57t14 69.5zM39 259q0 57 21.5 106.5t58 86t86 58t104.5 21.5q56 0 105 -21.5t86 -58t58 -86
t21 -106.5q0 -56 -21 -105t-58 -85.5t-86 -57.5t-105 -21t-105 21t-86 57.5t-58 85.5t-21 105zM226 710q38 -35 83 -35q23 0 42 8t42 27l50 -51q-25 -28 -61 -44t-74 -16q-37 0 -71.5 15.5t-60.5 44.5z" />
    <glyph glyph-name="Ohungarumlaut" unicode="&#x150;" horiz-adv-x="799" 
d="M652 350q0 56 -19.5 105t-53.5 86t-79.5 58t-97.5 21t-98 -21t-80 -58t-53.5 -86t-19.5 -105q0 -55 20 -104.5t54.5 -86t80 -58t97.5 -21.5t97.5 21.5t79 58t53 86t19.5 104.5zM54 349q0 75 27.5 141t75 114.5t111 77t135.5 28.5t135 -28t110 -77t74 -114.5t27 -140.5
t-27 -140.5t-74 -114.5t-110 -77t-135 -28t-135.5 28t-111 77t-75 114t-27.5 140zM246 776l74 152l96 -32l-102 -120h-68zM445 776l75 152l96 -32l-102 -120h-69z" />
    <glyph glyph-name="ohungarumlaut" unicode="&#x151;" horiz-adv-x="618" 
d="M483 259q0 37 -14 70t-37.5 58t-55 39.5t-67.5 14.5q-35 0 -66.5 -14.5t-55.5 -39.5t-38 -58t-14 -70q0 -36 14 -68.5t38 -57t55.5 -39t66.5 -14.5q36 0 67.5 14t55 38.5t37.5 57t14 69.5zM39 259q0 57 21.5 106.5t58 86t86 58t104.5 21.5q56 0 105 -21.5t86 -58t58 -86
t21 -106.5q0 -56 -21 -105t-58 -85.5t-86 -57.5t-105 -21t-105 21t-86 57.5t-58 85.5t-21 105zM169 581l74 152l96 -32l-102 -120h-68zM368 581l75 152l96 -32l-102 -120h-69z" />
    <glyph glyph-name="OE" unicode="&#x152;" horiz-adv-x="926" 
d="M48 350q0 74 27.5 138.5t75 111.5t111.5 74t136 27h486v-89h-391v-185h342v-88h-342v-251h391v-88h-486q-72 0 -136 26.5t-111.5 73.5t-75 111t-27.5 139zM145 351q0 -55 20 -103t54 -83t80 -55t98 -20v521q-52 0 -98 -20t-80.5 -55t-54 -82.5t-19.5 -102.5z" />
    <glyph glyph-name="oe" unicode="&#x153;" horiz-adv-x="1053" 
d="M308 -10q-56 0 -105 21t-86 57.5t-58 85.5t-21 105q0 57 21.5 106.5t58 86t85.5 58t104 21.5q70 0 128.5 -32.5t94.5 -87.5q36 54 94.5 86t127.5 32q61 0 112.5 -24.5t88 -66.5t54 -98.5t11.5 -121.5h-433q5 -30 20.5 -55t38.5 -44t51.5 -29.5t59.5 -10.5q43 0 80 19
t60 52l62 -62q-33 -45 -89 -71.5t-119 -26.5q-69 0 -126.5 32t-92.5 86q-37 -54 -95 -86t-127 -32zM308 80q35 0 66.5 14t55 38.5t37.5 57t14 69.5t-14 70t-37.5 58t-55 39.5t-66.5 14.5t-66.5 -14.5t-55.5 -39.5t-38 -58t-14 -70q0 -36 14 -68.5t38 -57t55.5 -39
t66.5 -14.5zM751 440q-59 0 -105 -37.5t-63 -100.5h335q-6 30 -21.5 55.5t-38 44t-50 28.5t-57.5 10z" />
    <glyph glyph-name="Racute" unicode="&#x154;" horiz-adv-x="634" 
d="M502 485q0 27 -11 50.5t-30.5 40.5t-46 26.5t-58.5 9.5h-179v-253h179q30 0 57 10t46.5 27t31 40t11.5 49zM177 271v-271h-96v700h275q52 0 96.5 -16.5t77 -45t51 -68t18.5 -85.5q0 -42 -17 -79t-46.5 -65.5t-69.5 -45.5t-86 -20l-21 -2l238 -273h-123l-236 271h-61z
M246 779l75 152l96 -32l-102 -120h-69z" />
    <glyph glyph-name="racute" unicode="&#x155;" horiz-adv-x="390" 
d="M170 447q41 47 92 62.5t111 15.5l-32 -92q-38 0 -69.5 -12.5t-54 -35t-35 -54.5t-12.5 -70v-260h-96v518h96v-72zM142 584l75 152l96 -32l-102 -120h-69z" />
    <glyph glyph-name="uni0156" unicode="&#x156;" horiz-adv-x="655" 
d="M502 485q0 27 -11 50.5t-30.5 40.5t-46 26.5t-58.5 9.5h-179v-253h179q30 0 57 10t46.5 27t31 40t11.5 49zM177 271v-271h-96v700h275q52 0 96.5 -16.5t77 -45t51 -68t18.5 -85.5q0 -42 -17 -79t-46.5 -65.5t-69.5 -45.5t-86 -20l-21 -2l238 -273h-123l-236 271h-61z
M384 -103q0 -35 -19 -67t-54 -54l-34 54q11 7 18.5 18t8.5 27q-14 6 -22.5 19t-8.5 29q0 21 15 35.5t37 14.5q30 0 44.5 -23.5t14.5 -52.5z" />
    <glyph glyph-name="uni0157" unicode="&#x157;" horiz-adv-x="390" 
d="M170 447q41 47 92 62.5t111 15.5l-32 -92q-38 0 -69.5 -12.5t-54 -35t-35 -54.5t-12.5 -70v-260h-96v518h96v-72zM181 -103q0 -35 -19 -67t-54 -54l-34 54q11 7 18.5 18t8.5 27q-14 6 -22.5 19t-8.5 29q0 21 15 35.5t37 14.5q30 0 44.5 -23.5t14.5 -52.5z" />
    <glyph glyph-name="Rcaron" unicode="&#x158;" horiz-adv-x="634" 
d="M502 485q0 27 -11 50.5t-30.5 40.5t-46 26.5t-58.5 9.5h-179v-253h179q30 0 57 10t46.5 27t31 40t11.5 49zM177 271v-271h-96v700h275q52 0 96.5 -16.5t77 -45t51 -68t18.5 -85.5q0 -42 -17 -79t-46.5 -65.5t-69.5 -45.5t-86 -20l-21 -2l238 -273h-123l-236 271h-61z
M145 905h84l85 -81l85 81h83l-126 -150h-85z" />
    <glyph glyph-name="rcaron" unicode="&#x159;" horiz-adv-x="390" 
d="M170 447q41 47 92 62.5t111 15.5l-32 -92q-38 0 -69.5 -12.5t-54 -35t-35 -54.5t-12.5 -70v-260h-96v518h96v-72zM43 710h84l85 -81l85 81h83l-126 -150h-85z" />
    <glyph glyph-name="Sacute" unicode="&#x15a;" horiz-adv-x="593" 
d="M113 188q6 -23 23 -42.5t40.5 -33.5t53 -22t61.5 -8q35 0 64 9t50 25.5t32.5 39t11.5 49.5q0 46 -38.5 74.5t-124.5 45.5q-239 50 -239 200q0 41 17.5 75t49 58.5t75.5 38t97 13.5q91 0 154.5 -37t85.5 -102l-74 -34q-13 38 -57.5 61.5t-106.5 23.5q-67 0 -108.5 -26.5
t-41.5 -69.5q0 -81 176 -119q118 -26 174.5 -74t56.5 -125q0 -46 -19.5 -86t-53.5 -69t-80.5 -45.5t-100.5 -16.5q-45 0 -85.5 11.5t-74 32.5t-58 51t-37.5 67zM259 779l75 152l96 -32l-102 -120h-69z" />
    <glyph glyph-name="sacute" unicode="&#x15b;" horiz-adv-x="506" 
d="M111 146q17 -31 54 -50t79 -19q24 0 44.5 6t36.5 16.5t25 24.5t9 30q0 25 -23 40.5t-57 27.5t-74.5 23.5t-74.5 28.5t-57 42.5t-23 65.5q0 32 15 59.5t42 47.5t63.5 31.5t78.5 11.5q69 0 122.5 -29t74.5 -77l-71 -40q-14 29 -47 45t-75 16q-22 0 -42 -5t-35 -13
t-23.5 -19.5t-8.5 -23.5q0 -20 23 -32.5t58 -23.5t75 -23.5t75 -31.5t58 -47.5t23 -71.5q0 -35 -16 -65.5t-44.5 -53t-67.5 -35t-84 -12.5q-70 0 -125 29.5t-81 83.5zM219 584l75 152l96 -32l-102 -120h-69z" />
    <glyph glyph-name="Scircumflex" unicode="&#x15c;" horiz-adv-x="593" 
d="M112 188q6 -23 23 -42.5t40.5 -33.5t53 -22t61.5 -8q35 0 64 9t50 25.5t32.5 39t11.5 49.5q0 46 -38.5 74.5t-124.5 45.5q-239 50 -239 200q0 41 17.5 75t49 58.5t75.5 38t97 13.5q91 0 154.5 -37t85.5 -102l-74 -34q-13 38 -57.5 61.5t-106.5 23.5q-67 0 -108.5 -26.5
t-41.5 -69.5q0 -81 176 -119q118 -26 174.5 -74t56.5 -125q0 -46 -19.5 -86t-53.5 -69t-80.5 -45.5t-100.5 -16.5q-45 0 -85.5 11.5t-74 32.5t-58 51t-37.5 67zM275 905h85l126 -150h-83l-85 83l-85 -83h-84z" />
    <glyph glyph-name="scircumflex" unicode="&#x15d;" horiz-adv-x="505" 
d="M110 146q17 -31 54 -50t79 -19q24 0 44.5 6t36.5 16.5t25 24.5t9 30q0 25 -23 40.5t-57 27.5t-74.5 23.5t-74.5 28.5t-57 42.5t-23 65.5q0 32 15 59.5t42 47.5t63.5 31.5t78.5 11.5q69 0 122.5 -29t74.5 -77l-71 -40q-14 29 -47 45t-75 16q-22 0 -42 -5t-35 -13
t-23.5 -19.5t-8.5 -23.5q0 -20 23 -32.5t58 -23.5t75 -23.5t75 -31.5t58 -47.5t23 -71.5q0 -35 -16 -65.5t-44.5 -53t-67.5 -35t-84 -12.5q-70 0 -125 29.5t-81 83.5zM204 710h85l126 -150h-83l-85 83l-85 -83h-84z" />
    <glyph glyph-name="Scedilla" unicode="&#x15e;" horiz-adv-x="590" 
d="M263 -9q-40 3 -76 16.5t-66 34.5t-52 49t-34 62l76 35q7 -23 23.5 -42.5t40.5 -33.5t53.5 -22t61.5 -8q35 0 64 9t50 25.5t33 39t12 49.5q0 46 -39 74.5t-125 45.5q-240 50 -240 200q0 41 17.5 75t49 58.5t76 38t97.5 13.5q91 0 155 -37t85 -102l-74 -34q-12 38 -57 61.5
t-107 23.5q-67 0 -108.5 -26.5t-41.5 -69.5q0 -81 176 -119q119 -26 175.5 -74t56.5 -125q0 -43 -16.5 -80t-46 -65.5t-70 -47t-88.5 -23.5l-7 -20q32 0 52 -19.5t20 -50.5q0 -37 -28.5 -61.5t-70.5 -24.5q-25 0 -49 9t-40 25l17 54q29 -29 63 -29q19 0 30.5 9t11.5 22
q0 11 -7.5 16.5t-18.5 5.5q-16 0 -31 -12l-20 25z" />
    <glyph glyph-name="scedilla" unicode="&#x15f;" horiz-adv-x="504" 
d="M219 -8q-62 6 -107 34t-71 77l73 43q18 -31 54.5 -50t78.5 -19q24 0 45 6.5t36.5 17t25 24.5t9.5 29q0 25 -23 40.5t-57.5 27.5t-74.5 23.5t-74.5 28.5t-57.5 43t-23 66q0 32 15 59t42 47t63.5 31.5t78.5 11.5q69 0 123 -28.5t74 -77.5l-71 -40q-14 29 -46.5 45t-74.5 16
q-46 0 -78 -18t-32 -43q0 -20 23 -32.5t58 -23.5t75.5 -23.5t75.5 -31.5t58 -47.5t23 -71.5q0 -32 -13.5 -60t-37.5 -50t-57.5 -36.5t-72.5 -18.5l-6 -18q32 0 52 -19.5t20 -50.5q0 -37 -28.5 -61.5t-70.5 -24.5q-25 0 -49 9t-40 25l17 54q14 -14 30 -21.5t32 -7.5
q19 0 31 8.5t12 21.5q0 11 -8 17t-19 6q-16 0 -30 -12l-20 25z" />
    <glyph glyph-name="Scaron" unicode="&#x160;" horiz-adv-x="593" 
d="M112 188q6 -23 23 -42.5t40.5 -33.5t53 -22t61.5 -8q35 0 64 9t50 25.5t32.5 39t11.5 49.5q0 46 -38.5 74.5t-124.5 45.5q-239 50 -239 200q0 41 17.5 75t49 58.5t75.5 38t97 13.5q91 0 154.5 -37t85.5 -102l-74 -34q-13 38 -57.5 61.5t-106.5 23.5q-67 0 -108.5 -26.5
t-41.5 -69.5q0 -81 176 -119q118 -26 174.5 -74t56.5 -125q0 -46 -19.5 -86t-53.5 -69t-80.5 -45.5t-100.5 -16.5q-45 0 -85.5 11.5t-74 32.5t-58 51t-37.5 67zM149 905h84l85 -81l85 81h83l-126 -150h-85z" />
    <glyph glyph-name="scaron" unicode="&#x161;" horiz-adv-x="505" 
d="M110 146q17 -31 54 -50t79 -19q24 0 44.5 6t36.5 16.5t25 24.5t9 30q0 25 -23 40.5t-57 27.5t-74.5 23.5t-74.5 28.5t-57 42.5t-23 65.5q0 32 15 59.5t42 47.5t63.5 31.5t78.5 11.5q69 0 122.5 -29t74.5 -77l-71 -40q-14 29 -47 45t-75 16q-22 0 -42 -5t-35 -13
t-23.5 -19.5t-8.5 -23.5q0 -20 23 -32.5t58 -23.5t75 -23.5t75 -31.5t58 -47.5t23 -71.5q0 -35 -16 -65.5t-44.5 -53t-67.5 -35t-84 -12.5q-70 0 -125 29.5t-81 83.5zM78 710h84l85 -81l85 81h83l-126 -150h-85z" />
    <glyph glyph-name="uni0162" unicode="&#x162;" horiz-adv-x="625" 
d="M305 -126q19 0 31 9t12 22q0 11 -8 16.5t-19 5.5q-16 0 -30 -12l-20 25l20 60h-26v612h-218v88h531v-88h-217v-612h-10l-9 -29q32 0 51.5 -19.5t19.5 -50.5q0 -37 -28 -61.5t-70 -24.5q-26 0 -49.5 9t-39.5 25l17 54q29 -29 62 -29z" />
    <glyph glyph-name="uni0163" unicode="&#x163;" horiz-adv-x="378" 
d="M241 -126q20 0 31.5 8.5t11.5 21.5q0 11 -8 16.5t-19 5.5q-8 0 -15.5 -2.5t-14.5 -8.5l-19 24l18 54q-55 9 -88.5 47.5t-33.5 118.5v274h-64v85h64v183h96v-183h84l28 -85h-112v-277q0 -41 17.5 -59.5t55.5 -18.5q14 0 25 2.5t25 10.5l26 -79q-17 -11 -31 -15t-33 -7
l-7 -19q32 0 52 -19.5t20 -50.5q0 -38 -28.5 -62t-70.5 -24q-25 0 -49 9t-40 25l17 54q14 -15 30.5 -22t31.5 -7z" />
    <glyph glyph-name="Tcaron" unicode="&#x164;" horiz-adv-x="625" 
d="M574 612h-222v-612h-96v612h-223v88h541v-88zM140 905h84l85 -81l85 81h83l-126 -150h-85z" />
    <glyph glyph-name="tcaron" unicode="&#x165;" horiz-adv-x="523" 
d="M349 12q-18 -11 -39 -17t-48 -6q-76 0 -117 43t-41 126v275h-64v85h64v183h96v-183h84l27 -85h-111v-276q0 -42 17.5 -60.5t55.5 -18.5q14 0 25 2.5t25 10.5zM473 633q0 -45 -21 -82t-63 -62l-34 57q16 10 25.5 26t9.5 33q-21 5 -34.5 22t-13.5 38q0 26 18.5 44.5
t43.5 18.5q30 0 49.5 -26t19.5 -69z" />
    <glyph glyph-name="Tbar" unicode="&#x166;" horiz-adv-x="610" 
d="M576 700v-88h-222v-176h92v-81h-92v-355h-97v355h-87v81h87v176h-223v88h542z" />
    <glyph glyph-name="tbar" unicode="&#x167;" horiz-adv-x="385" 
d="M270 77q38 0 64 23l26 -80q-38 -31 -96 -31q-77 0 -119 43.5t-42 124.5v276h-64v85h64v65h-63v71h63v47h96v-47h86l23 -71h-109v-65h84l28 -85h-112v-277q0 -79 71 -79z" />
    <glyph glyph-name="Utilde" unicode="&#x168;" horiz-adv-x="758" 
d="M84 700h96v-446q0 -36 16 -67.5t43 -55t63 -37.5t77 -14t77.5 13.5t63.5 37.5t42.5 55.5t15.5 67.5v446h96v-447q0 -54 -23.5 -102t-63.5 -84t-93.5 -57t-114.5 -21q-60 0 -114 21t-94 57t-63.5 84t-23.5 102v447zM213 785q0 59 26.5 97t68.5 38q23 0 43 -11t37 -24.5
t31 -24.5t26 -11q15 0 24 19.5t9 51.5l65 -5q0 -59 -27 -97t-68 -38q-23 0 -42.5 11t-36 24.5t-30.5 24.5t-26 11q-15 0 -25 -20.5t-10 -50.5z" />
    <glyph glyph-name="utilde" unicode="&#x169;" horiz-adv-x="595" 
d="M274 -10q-45 0 -82.5 16.5t-65 45t-43 68t-15.5 84.5v316h95v-313q0 -27 9 -49.5t25.5 -39t39.5 -26t50 -9.5q30 0 57 11.5t47 31t31.5 46t11.5 56.5v292h95v-520h-95v60q-27 -33 -70 -51.5t-90 -18.5zM131 590q0 59 26.5 97t68.5 38q23 0 43 -11t37 -24.5t31 -24.5
t26 -11q15 0 24 19.5t9 51.5l65 -5q0 -59 -27 -97t-68 -38q-23 0 -42.5 11t-36 24.5t-30.5 24.5t-26 11q-15 0 -25 -20.5t-10 -50.5z" />
    <glyph glyph-name="Umacron" unicode="&#x16a;" horiz-adv-x="758" 
d="M83 700h96v-446q0 -36 16 -67.5t43 -55t63 -37.5t77 -14t77.5 13.5t63.5 37.5t42.5 55.5t15.5 67.5v446h96v-447q0 -54 -23.5 -102t-63.5 -84t-93.5 -57t-114.5 -21q-60 0 -114 21t-94 57t-63.5 84t-23.5 102v447zM517 853v-71h-276v71h276z" />
    <glyph glyph-name="umacron" unicode="&#x16b;" horiz-adv-x="595" 
d="M274 -10q-45 0 -82.5 16.5t-65 45t-43 68t-15.5 84.5v316h95v-313q0 -27 9 -49.5t25.5 -39t39.5 -26t50 -9.5q30 0 57 11.5t47 31t31.5 46t11.5 56.5v292h95v-520h-95v60q-27 -33 -70 -51.5t-90 -18.5zM435 658v-71h-276v71h276z" />
    <glyph glyph-name="Ubreve" unicode="&#x16c;" horiz-adv-x="758" 
d="M83 700h96v-446q0 -36 16 -67.5t43 -55t63 -37.5t77 -14t77.5 13.5t63.5 37.5t42.5 55.5t15.5 67.5v446h96v-447q0 -54 -23.5 -102t-63.5 -84t-93.5 -57t-114.5 -21q-60 0 -114 21t-94 57t-63.5 84t-23.5 102v447zM296 905q38 -35 83 -35q23 0 42 8t42 27l50 -51
q-25 -28 -61 -44t-74 -16q-37 0 -71.5 15.5t-60.5 44.5z" />
    <glyph glyph-name="ubreve" unicode="&#x16d;" horiz-adv-x="595" 
d="M274 -10q-45 0 -82.5 16.5t-65 45t-43 68t-15.5 84.5v316h95v-313q0 -27 9 -49.5t25.5 -39t39.5 -26t50 -9.5q30 0 57 11.5t47 31t31.5 46t11.5 56.5v292h95v-520h-95v60q-27 -33 -70 -51.5t-90 -18.5zM214 710q38 -35 83 -35q23 0 42 8t42 27l50 -51q-25 -28 -61 -44
t-74 -16q-37 0 -71.5 15.5t-60.5 44.5z" />
    <glyph glyph-name="Uring" unicode="&#x16e;" horiz-adv-x="758" 
d="M83 700h96v-446q0 -36 16 -67.5t43 -55t63 -37.5t77 -14t77.5 13.5t63.5 37.5t42.5 55.5t15.5 67.5v446h96v-447q0 -54 -23.5 -102t-63.5 -84t-93.5 -57t-114.5 -21q-60 0 -114 21t-94 57t-63.5 84t-23.5 102v447zM273 838q0 22 8.5 41t22.5 33.5t33 22.5t41 8t41 -8
t33.5 -22.5t23 -33.5t8.5 -41t-8.5 -41t-23 -33t-33.5 -22.5t-41 -8.5t-41 8.5t-33 22.5t-22.5 33t-8.5 41zM331 838q0 -20 13.5 -34t33.5 -14t33.5 14t13.5 34t-13.5 34t-33.5 14t-33.5 -14t-13.5 -34z" />
    <glyph glyph-name="uring" unicode="&#x16f;" horiz-adv-x="595" 
d="M274 -10q-45 0 -82.5 16.5t-65 45t-43 68t-15.5 84.5v316h95v-313q0 -27 9 -49.5t25.5 -39t39.5 -26t50 -9.5q30 0 57 11.5t47 31t31.5 46t11.5 56.5v292h95v-520h-95v60q-27 -33 -70 -51.5t-90 -18.5zM192 663q0 22 8.5 41t22.5 33.5t33 22.5t41 8t41 -8t33.5 -22.5
t23 -33.5t8.5 -41t-8.5 -41t-23 -33t-33.5 -22.5t-41 -8.5t-41 8.5t-33 22.5t-22.5 33t-8.5 41zM250 663q0 -20 13.5 -34t33.5 -14t33.5 14t13.5 34t-13.5 34t-33.5 14t-33.5 -14t-13.5 -34z" />
    <glyph glyph-name="Uhungarumlaut" unicode="&#x170;" horiz-adv-x="758" 
d="M83 700h96v-446q0 -36 16 -67.5t43 -55t63 -37.5t77 -14t77.5 13.5t63.5 37.5t42.5 55.5t15.5 67.5v446h96v-447q0 -54 -23.5 -102t-63.5 -84t-93.5 -57t-114.5 -21q-60 0 -114 21t-94 57t-63.5 84t-23.5 102v447zM231 776l74 152l96 -32l-102 -120h-68zM430 776l75 152
l96 -32l-102 -120h-69z" />
    <glyph glyph-name="uhungarumlaut" unicode="&#x171;" horiz-adv-x="595" 
d="M274 -10q-45 0 -82.5 16.5t-65 45t-43 68t-15.5 84.5v316h95v-313q0 -27 9 -49.5t25.5 -39t39.5 -26t50 -9.5q30 0 57 11.5t47 31t31.5 46t11.5 56.5v292h95v-520h-95v60q-27 -33 -70 -51.5t-90 -18.5zM147 581l74 152l96 -32l-102 -120h-68zM346 581l75 152l96 -32
l-102 -120h-69z" />
    <glyph glyph-name="Uogonek" unicode="&#x172;" horiz-adv-x="758" 
d="M342 -8q-54 6 -101 29t-82 58t-55 80t-20 95v446h96v-445q0 -36 15.5 -67.5t42.5 -55.5t63.5 -37.5t77.5 -13.5t77.5 13.5t63.5 37.5t42.5 55.5t15.5 67.5v445h96v-446q0 -50 -20 -95t-55 -80.5t-82.5 -58.5t-101.5 -29q-2 -2 -4 -3l-4 -2q-22 -22 -17 -51q2 -22 18 -37
t38 -15q12 0 25 5t23 14l32 -48q-36 -32 -84 -32q-25 0 -46 8.5t-37 23.5t-25 35.5t-9 44.5q0 32 17 58z" />
    <glyph glyph-name="uogonek" unicode="&#x173;" horiz-adv-x="599" 
d="M435 60q-26 -33 -69 -51.5t-91 -18.5q-45 0 -82.5 16.5t-65 45t-43 68t-15.5 84.5v316h95v-313q0 -54 34.5 -89t90.5 -35q30 0 56.5 11t46.5 30.5t31.5 46t11.5 57.5v292h95v-520h-1q-22 0 -39 -15q-22 -21 -16 -50q2 -23 17 -37.5t38 -14.5q12 0 25 5t23 13l32 -47
q-37 -33 -84 -33q-25 0 -46 9t-37 24t-25 35.5t-9 44.5q0 50 40 78l-13 2v46z" />
    <glyph glyph-name="Wcircumflex" unicode="&#x174;" horiz-adv-x="1081" 
d="M590 647l169 -492l188 545h102l-242 -700h-95l-170 495l-172 -495h-96l-242 700h102l189 -547l171 494h96zM496 905h85l126 -150h-83l-85 83l-85 -83h-84z" />
    <glyph glyph-name="wcircumflex" unicode="&#x175;" horiz-adv-x="858" 
d="M475 510l124 -335l127 345h102l-192 -520h-73l-133 359l-134 -359h-74l-192 520h102l127 -347l124 337h92zM385 710h85l126 -150h-83l-85 83l-85 -83h-84z" />
    <glyph glyph-name="Ycircumflex" unicode="&#x176;" horiz-adv-x="670" 
d="M33 700h112l188 -303l190 303h111l-253 -405l1 -295h-96l-1 295zM291 905h85l126 -150h-83l-85 83l-85 -83h-84z" />
    <glyph glyph-name="ycircumflex" unicode="&#x177;" horiz-adv-x="599" 
d="M95 -104q27 -12 48 -12q20 0 35 10.5t26 28.5t20.5 41t19.5 48l-215 508h104l164 -386l165 386h104l-270 -626q-21 -48 -60.5 -74.5t-85.5 -26.5q-41 0 -81 23zM255 710h85l126 -150h-83l-85 83l-85 -83h-84z" />
    <glyph glyph-name="Ydieresis" unicode="&#x178;" horiz-adv-x="670" 
d="M33 700h112l188 -303l190 303h111l-253 -405l1 -295h-96l-1 295zM166 803q0 23 15 38t38 15q22 0 37 -15t15 -38q0 -22 -15 -37t-37 -15q-23 0 -38 15t-15 37zM372 803q0 23 14.5 38t37.5 15t38 -15t15 -38q0 -22 -15 -37t-38 -15t-37.5 15t-14.5 37z" />
    <glyph glyph-name="Zacute" unicode="&#x179;" horiz-adv-x="640" 
d="M34 82l444 530h-431v88h559v-82l-443 -530h425v-88h-554v82zM250 779l75 152l96 -32l-102 -120h-69z" />
    <glyph glyph-name="zacute" unicode="&#x17a;" horiz-adv-x="505" 
d="M470 434l-297 -344h298v-90h-426v85l296 345h-298v90h427v-86zM205 584l75 152l96 -32l-102 -120h-69z" />
    <glyph glyph-name="Zdotaccent" unicode="&#x17b;" horiz-adv-x="640" 
d="M34 82l444 530h-431v88h559v-82l-443 -530h425v-88h-554v82zM262 841q0 23 15 38t37 15q23 0 38 -15t15 -38q0 -22 -15 -37t-38 -15q-22 0 -37 15t-15 37z" />
    <glyph glyph-name="zdotaccent" unicode="&#x17c;" horiz-adv-x="505" 
d="M470 434l-297 -344h298v-90h-426v85l296 345h-298v90h427v-86zM201 646q0 23 15 38t37 15q23 0 38 -15t15 -38q0 -22 -15 -37t-38 -15q-22 0 -37 15t-15 37z" />
    <glyph glyph-name="Zcaron" unicode="&#x17d;" horiz-adv-x="640" 
d="M34 82l444 530h-431v88h559v-82l-443 -530h425v-88h-554v82zM148 905h84l85 -81l85 81h83l-126 -150h-85z" />
    <glyph glyph-name="zcaron" unicode="&#x17e;" horiz-adv-x="505" 
d="M470 434l-297 -344h298v-90h-426v85l296 345h-298v90h427v-86zM81 710h84l85 -81l85 81h83l-126 -150h-85z" />
    <glyph glyph-name="uni0218" unicode="&#x218;" horiz-adv-x="637" 
d="M112 188q6 -23 23 -42.5t40.5 -33.5t53 -22t61.5 -8q35 0 64 9t50 25.5t32.5 39t11.5 49.5q0 46 -38.5 74.5t-124.5 45.5q-239 50 -239 200q0 41 17.5 75t49 58.5t75.5 38t97 13.5q91 0 154.5 -37t85.5 -102l-74 -34q-13 38 -57.5 61.5t-106.5 23.5q-67 0 -108.5 -26.5
t-41.5 -69.5q0 -81 176 -119q118 -26 174.5 -74t56.5 -125q0 -46 -19.5 -86t-53.5 -69t-80.5 -45.5t-100.5 -16.5q-45 0 -85.5 11.5t-74 32.5t-58 51t-37.5 67zM378 -103q0 -35 -19 -67t-54 -54l-34 54q11 7 18.5 18t8.5 27q-14 6 -22.5 19t-8.5 29q0 21 15 35.5t37 14.5
q30 0 44.5 -23.5t14.5 -52.5z" />
    <glyph glyph-name="uni0219" unicode="&#x219;" horiz-adv-x="508" 
d="M106 146q17 -31 54 -50t79 -19q24 0 44.5 6t36.5 16.5t25 24.5t9 30q0 25 -23 40.5t-57 27.5t-74.5 23.5t-74.5 28.5t-57 42.5t-23 65.5q0 32 15 59.5t42 47.5t63.5 31.5t78.5 11.5q69 0 122.5 -29t74.5 -77l-71 -40q-14 29 -47 45t-75 16q-22 0 -42 -5t-35 -13
t-23.5 -19.5t-8.5 -23.5q0 -20 23 -32.5t58 -23.5t75 -23.5t75 -31.5t58 -47.5t23 -71.5q0 -35 -16 -65.5t-44.5 -53t-67.5 -35t-84 -12.5q-70 0 -125 29.5t-81 83.5zM303 -108q0 -35 -19 -67t-54 -54l-34 54q11 7 18.5 18t8.5 27q-14 6 -22.5 19t-8.5 29q0 21 15 35.5
t37 14.5q30 0 44.5 -23.5t14.5 -52.5z" />
    <glyph glyph-name="uni021A" unicode="&#x21a;" horiz-adv-x="625" 
d="M574 612h-222v-612h-96v612h-223v88h541v-88zM353 -96q0 -35 -19 -67t-54 -54l-34 54q11 7 18.5 18t8.5 27q-14 6 -22.5 19t-8.5 29q0 21 15 35.5t37 14.5q30 0 44.5 -23.5t14.5 -52.5z" />
    <glyph glyph-name="uni021B" unicode="&#x21b;" horiz-adv-x="400" 
d="M352 12q-18 -11 -39 -17t-48 -6q-76 0 -117 43t-41 126v275h-64v85h64v183h96v-183h84l27 -85h-111v-276q0 -42 17.5 -60.5t55.5 -18.5q14 0 25 2.5t25 10.5zM317 -106q0 -35 -19 -67t-54 -54l-34 54q11 7 18.5 18t8.5 27q-14 6 -22.5 19t-8.5 29q0 21 15 35.5t37 14.5
q30 0 44.5 -23.5t14.5 -52.5z" />
    <glyph glyph-name="uni0237" unicode="&#x237;" horiz-adv-x="267" 
d="M182 -38q0 -82 -42.5 -126.5t-112.5 -44.5q-62 0 -104 32l26 81q26 -22 62 -22q4 0 7.5 0.5t8.5 0.5q29 2 44 21.5t15 65.5v549h96v-557z" />
    <glyph glyph-name="circumflex" unicode="&#x2c6;" horiz-adv-x="451" 
d="M183 710h85l126 -150h-83l-85 83l-85 -83h-84z" />
    <glyph glyph-name="caron" unicode="&#x2c7;" horiz-adv-x="461" 
d="M62 710h84l85 -81l85 81h83l-126 -150h-85z" />
    <glyph glyph-name="breve" unicode="&#x2d8;" horiz-adv-x="414" 
d="M124 710q38 -35 83 -35q23 0 42 8t42 27l50 -51q-25 -28 -61 -44t-74 -16q-37 0 -71.5 15.5t-60.5 44.5z" />
    <glyph glyph-name="dotaccent" unicode="&#x2d9;" horiz-adv-x="204" 
d="M50 646q0 23 15 38t37 15q23 0 38 -15t15 -38q0 -22 -15 -37t-38 -15q-22 0 -37 15t-15 37z" />
    <glyph glyph-name="ring" unicode="&#x2da;" horiz-adv-x="318" 
d="M54 663q0 22 8.5 41t22.5 33.5t33 22.5t41 8t41 -8t33.5 -22.5t23 -33.5t8.5 -41t-8.5 -41t-23 -33t-33.5 -22.5t-41 -8.5t-41 8.5t-33 22.5t-22.5 33t-8.5 41zM112 663q0 -20 13.5 -34t33.5 -14t33.5 14t13.5 34t-13.5 34t-33.5 14t-33.5 -14t-13.5 -34z" />
    <glyph glyph-name="ogonek" unicode="&#x2db;" horiz-adv-x="273" 
d="M241 -146q-38 -32 -84 -32q-51 0 -84.5 32t-33.5 80q0 60 56 90l65 -24q-11 0 -21 -4t-18 -10q-22 -22 -16 -51q2 -22 17.5 -37t37.5 -15q28 0 49 19z" />
    <glyph glyph-name="tilde" unicode="&#x2dc;" horiz-adv-x="470" 
d="M70 590q0 59 26.5 97t68.5 38q23 0 43 -11t37 -24.5t31 -24.5t26 -11q15 0 24 19.5t9 51.5l65 -5q0 -59 -27 -97t-68 -38q-23 0 -42.5 11t-36 24.5t-30.5 24.5t-26 11q-15 0 -25 -20.5t-10 -50.5z" />
    <glyph glyph-name="hungarumlaut" unicode="&#x2dd;" horiz-adv-x="506" 
d="M80 581l74 152l96 -32l-102 -120h-68zM279 581l75 152l96 -32l-102 -120h-69z" />
    <glyph glyph-name="Wgrave" unicode="&#x1e80;" horiz-adv-x="1098" 
d="M598 647l169 -492l188 545h102l-242 -700h-95l-170 495l-172 -495h-96l-242 700h102l189 -547l171 494h96zM410 878l96 32l74 -152h-69z" />
    <glyph glyph-name="wgrave" unicode="&#x1e81;" horiz-adv-x="869" 
d="M481 510l124 -335l127 345h102l-192 -520h-73l-133 359l-134 -359h-74l-192 520h102l127 -347l124 337h92zM297 704l96 32l74 -152h-69z" />
    <glyph glyph-name="Wacute" unicode="&#x1e82;" horiz-adv-x="1100" 
d="M599 647l169 -492l188 545h102l-242 -700h-95l-170 495l-172 -495h-96l-242 700h102l189 -547l171 494h96zM526 758l75 152l96 -32l-102 -120h-69z" />
    <glyph glyph-name="wacute" unicode="&#x1e83;" horiz-adv-x="875" 
d="M484 510l124 -335l127 345h102l-192 -520h-73l-133 359l-134 -359h-74l-192 520h102l127 -347l124 337h92zM414 584l75 152l96 -32l-102 -120h-69z" />
    <glyph glyph-name="Wdieresis" unicode="&#x1e84;" horiz-adv-x="1100" 
d="M599 647l169 -492l188 545h102l-242 -700h-95l-170 495l-172 -495h-96l-242 700h102l189 -547l171 494h96zM395 823q0 23 15 38t38 15q22 0 37 -15t15 -38q0 -22 -15 -37t-37 -15q-23 0 -38 15t-15 37zM601 823q0 23 14.5 38t37.5 15t38 -15t15 -38q0 -22 -15 -37
t-38 -15t-37.5 15t-14.5 37z" />
    <glyph glyph-name="wdieresis" unicode="&#x1e85;" horiz-adv-x="855" 
d="M474 510l124 -335l127 345h102l-192 -520h-73l-133 359l-134 -359h-74l-192 520h102l127 -347l124 337h92zM272 646q0 23 15 38t38 15q22 0 37 -15t15 -38q0 -22 -15 -37t-37 -15q-23 0 -38 15t-15 37zM478 646q0 23 14.5 38t37.5 15t38 -15t15 -38q0 -22 -15 -37
t-38 -15t-37.5 15t-14.5 37z" />
    <glyph glyph-name="endash" unicode="&#x2013;" horiz-adv-x="512" 
d="M462 297v-88h-412v88h412z" />
    <glyph glyph-name="emdash" unicode="&#x2014;" horiz-adv-x="998" 
d="M947 299v-88h-896v88h896z" />
    <glyph glyph-name="quoteleft" unicode="&#x2018;" horiz-adv-x="198" 
d="M34 584q0 44 21 81.5t63 61.5l35 -57q-17 -10 -26.5 -25.5t-9.5 -32.5q21 -5 34.5 -22t13.5 -39q0 -26 -18.5 -44t-43.5 -18q-30 0 -49.5 26t-19.5 69z" />
    <glyph glyph-name="quoteright" unicode="&#x2019;" horiz-adv-x="196" 
d="M164 633q0 -45 -21 -82t-63 -62l-34 57q16 10 25.5 26t9.5 33q-21 5 -34.5 22t-13.5 38q0 26 18.5 44.5t43.5 18.5q30 0 49.5 -26t19.5 -69z" />
    <glyph glyph-name="quotesinglbase" unicode="&#x201a;" horiz-adv-x="271" 
d="M135 -136q-24 48 -42.5 91t-18.5 66q0 26 17 42.5t45 16.5t44.5 -16.5t16.5 -43.5q0 -12 -5 -29t-14 -38t-20 -44t-23 -45z" />
    <glyph glyph-name="quotedblleft" unicode="&#x201c;" horiz-adv-x="401" 
d="M46 584q0 44 21 81t63 62l35 -57q-16 -10 -25.5 -25.5t-9.5 -32.5q20 -5 33.5 -22.5t13.5 -38.5q0 -26 -18 -44.5t-44 -18.5q-30 0 -49.5 26.5t-19.5 69.5zM217 583q0 44 21 81.5t63 61.5l35 -56q-17 -10 -26.5 -26t-9.5 -33q21 -5 34.5 -22t13.5 -38q0 -26 -18.5 -44.5
t-43.5 -18.5q-30 0 -49.5 26t-19.5 69z" />
    <glyph glyph-name="quotedblright" unicode="&#x201d;" horiz-adv-x="401" 
d="M179 632q0 -44 -21 -81t-63 -62l-35 57q17 10 26.5 25.5t9.5 32.5q-21 5 -34.5 22.5t-13.5 38.5q0 26 18.5 44.5t43.5 18.5q30 0 49.5 -26.5t19.5 -69.5zM350 632q0 -44 -21 -81.5t-63 -61.5l-35 56q16 10 25.5 26t9.5 33q-20 5 -33.5 22t-13.5 38q0 26 18 44.5t44 18.5
q30 0 49.5 -26t19.5 -69z" />
    <glyph glyph-name="quotedblbase" unicode="&#x201e;" horiz-adv-x="449" 
d="M144 -137q-24 48 -42.5 90.5t-18.5 65.5q0 27 17 43t44 16q28 0 45 -16.5t17 -43.5q0 -11 -5 -28.5t-14 -38t-20 -43.5t-23 -45zM306 -137q-24 48 -42.5 90.5t-18.5 65.5q0 27 17 43t44 16q28 0 45 -16.5t17 -43.5q0 -11 -5 -28.5t-14 -38t-20 -43.5t-23 -45z" />
    <glyph glyph-name="dagger" unicode="&#x2020;" horiz-adv-x="474" 
d="M285 505h140v-87h-140v-518h-95v518h-140v87h140v195h95v-195z" />
    <glyph glyph-name="daggerdbl" unicode="&#x2021;" horiz-adv-x="467" 
d="M46 505h140v195h96v-195h140v-87h-140v-185h86v-87h-86v-246h-96v246h-86v87h86v185h-140v87z" />
    <glyph glyph-name="bullet" unicode="&#x2022;" horiz-adv-x="393" 
d="M76 298q0 26 9.5 48t26 38.5t38.5 26t47 9.5t47 -9.5t38.5 -26t26 -38.5t9.5 -48q0 -25 -9.5 -47.5t-26 -39t-38.5 -26t-47 -9.5t-47 9.5t-38.5 26t-26 39t-9.5 47.5z" />
    <glyph glyph-name="ellipsis" unicode="&#x2026;" horiz-adv-x="689" 
d="M70 54q0 26 18.5 44t44.5 18t44 -18t18 -44t-18 -44.5t-44 -18.5t-44.5 18.5t-18.5 44.5zM284 54q0 26 18.5 44t44.5 18t44 -18t18 -44t-18 -44.5t-44 -18.5t-44.5 18.5t-18.5 44.5zM495 54q0 26 18.5 44t44.5 18t44 -18t18 -44t-18 -44.5t-44 -18.5t-44.5 18.5
t-18.5 44.5z" />
    <glyph glyph-name="perthousand" unicode="&#x2030;" horiz-adv-x="1171" 
d="M578 701h100l-460 -701h-99zM123 544q0 -35 24 -59.5t58 -24.5q17 0 31.5 6.5t25.5 18t17.5 27t6.5 32.5q0 36 -24 61t-57 25q-16 0 -31 -7t-26.5 -18.5t-18 -27t-6.5 -33.5zM42 544q0 34 13 64t35 52.5t52 35.5t63 13t62.5 -13t51.5 -35.5t35 -52.5t13 -64
q0 -33 -13 -62.5t-35 -51.5t-51.5 -35t-62.5 -13t-63 13t-52 35t-35 51.5t-13 62.5zM674 154q0 36 -24 61t-58 25q-16 0 -30.5 -7t-26 -18.5t-18 -27t-6.5 -33.5q0 -17 6.5 -32.5t17.5 -27t26 -18t31 -6.5q34 0 58 24.5t24 59.5zM755 154q0 -33 -13 -62.5t-35 -51.5
t-51.5 -35t-63.5 -13q-33 0 -62.5 13t-51.5 35t-35 51.5t-13 62.5q0 34 13 64t35 52.5t51.5 35.5t62.5 13q34 0 63.5 -13t51.5 -35.5t35 -52.5t13 -64zM1057 154q0 36 -24 61t-58 25q-16 0 -31 -7t-26.5 -18.5t-18 -27t-6.5 -33.5q0 -35 24 -59.5t58 -24.5t58 24.5t24 59.5z
M1138 154q0 -33 -13 -62.5t-35 -51.5t-51.5 -35t-63.5 -13t-63.5 13t-51.5 35t-35 51.5t-13 62.5q0 34 13 64t35 52.5t52 35.5t63 13q34 0 63.5 -13t51.5 -35.5t35 -52.5t13 -64z" />
    <glyph glyph-name="guilsinglleft" unicode="&#x2039;" horiz-adv-x="335" 
d="M140 255l146 -173l-66 -38l-183 211l182 209l66 -37z" />
    <glyph glyph-name="guilsinglright" unicode="&#x203a;" horiz-adv-x="335" 
d="M112 464l182 -209l-183 -211l-66 38l146 173l-146 172z" />
    <glyph glyph-name="fraction" unicode="&#x2044;" horiz-adv-x="412" 
d="M447 701l-405 -701h-74l404 701h75z" />
    <glyph glyph-name="franc" unicode="&#x20a3;" horiz-adv-x="640" 
d="M101 701h492v-88h-395v-187h348v-88h-348v-99h150v-81h-150v-158h-97v158h-49v81h49v462z" />
    <glyph glyph-name="lira" unicode="&#x20a4;" horiz-adv-x="633" 
d="M380 619q-43 0 -71.5 -11.5t-45.5 -30t-24.5 -43t-8.5 -51.5v-54h206v-83h-206v-67h206v-84h-206v-107h362v-88h-458v195h-62v84h62v67h-62v83h62v30q0 120 58 185.5t184 65.5q69 0 118 -21t94 -74l-29 -90q-21 26 -40.5 44t-40 29t-44.5 16t-54 5z" />
    <glyph glyph-name="Euro" unicode="&#x20ac;" horiz-adv-x="618" 
d="M248 231q12 -31 30 -58.5t42 -48t53.5 -32.5t65.5 -12q25 0 48 6.5t43 17.5l47 -75q-34 -20 -71 -29.5t-76 -9.5q-54 1 -100 20.5t-82.5 52.5t-62.5 76.5t-40 91.5h-94v81h78q-1 10 -1.5 19t-0.5 17q0 10 0.5 19t1.5 19h-78v81h95q14 49 40.5 93t63.5 77t84 52t102 19
q36 0 72.5 -10.5t65.5 -27.5l-45 -77q-41 25 -90 25q-35 0 -64.5 -12t-53.5 -32.5t-42.5 -48t-30.5 -58.5h204v-81h-226q-3 -19 -3 -38q0 -9 0.5 -18t1.5 -18h227v-81h-204z" />
    <glyph glyph-name="uni20B9" unicode="&#x20b9;" horiz-adv-x="594" 
d="M357 526q-13 36 -48 62t-89 26h-124v88h443v-88h-123q16 -17 26.5 -40.5t15.5 -47.5h81v-78h-81q-6 -36 -25 -68t-47 -55.5t-64 -37.5t-78 -14h-23l244 -273h-125l-243 272v87h127q51 0 86 25.5t48 63.5h-262v78h261z" />
    <glyph glyph-name="trademark" unicode="&#x2122;" horiz-adv-x="701" 
d="M283 655h-87v-254h-52v254h-95v45h249zM461 528l-70 88v-215h-52v299h50l96 -121l97 121h51v-299h-52v217l-73 -90h-47z" />
    <glyph glyph-name="minus" unicode="&#x2212;" horiz-adv-x="584" 
d="M508 394v-88h-432v88h432z" />
    <glyph glyph-name="commaaccent" horiz-adv-x="262" 
d="M188 -103q0 -35 -19 -67t-54 -54l-34 54q11 7 18.5 18t8.5 27q-14 6 -22.5 19t-8.5 29q0 21 15 35.5t37 14.5q30 0 44.5 -23.5t14.5 -52.5z" />
    <glyph glyph-name="A.alt1" horiz-adv-x="715" 
d="M430 214h-212l-83 -214h-103l276 700h99l276 -700h-103l-222 567l-105 -267h145z" />
    <glyph glyph-name="B.alt1" 
d="M268 428h79q20 0 37 7.5t30.5 20.5t21 30.5t7.5 36.5q0 20 -8 36.5t-22 28.5t-32.5 18.5t-39.5 6.5h-157l-1 -612h-95v700h252q40 0 76 -12.5t63.5 -35.5t43.5 -55.5t16 -71.5q0 -38 -16 -74t-48 -59q51 -31 80 -76t29 -102q0 -48 -21 -87.5t-56.5 -67.5t-81.5 -43.5
t-96 -15.5h-88l27 88h61q30 0 58.5 9.5t51 27t36 41.5t13.5 53q0 27 -11.5 49t-30.5 38t-44 24.5t-53 8.5h-108z" />
    <glyph glyph-name="D.alt1" horiz-adv-x="738" 
d="M268 88h38q63 0 114 20t86.5 55t55 83t19.5 104t-19.5 104t-55 83.5t-86.5 55.5t-114 20h-125v-613h-96v701h221q83 0 151.5 -27.5t117 -75t75.5 -111.5t27 -138t-26.5 -137.5t-75.5 -110.5t-117.5 -74t-151.5 -27h-66z" />
    <glyph glyph-name="P.alt1" horiz-adv-x="644" 
d="M266 359h92q29 0 55 10.5t45.5 28t31 40.5t11.5 48q0 27 -11 50t-30.5 40.5t-45.5 27t-57 9.5h-179v-613h-96v701h275q51 0 95 -16.5t76.5 -45.5t51 -68.5t18.5 -84.5q0 -43 -19.5 -82.5t-52.5 -68.5t-76.5 -46.5t-91.5 -17.5h-119z" />
    <glyph glyph-name="R.alt1" horiz-adv-x="656" 
d="M264 359h90q30 0 57 10t47 27.5t31.5 41t11.5 50.5q0 26 -11 49t-31 39.5t-47 26t-59 9.5h-176v-612h-96v700h272q53 0 97.5 -16t77.5 -44.5t51.5 -67.5t18.5 -85q0 -44 -17 -82t-47.5 -66.5t-72 -46t-91.5 -19.5h-12l240 -273h-123l-238 271z" />
    <glyph glyph-name="Q.alt1" horiz-adv-x="798" 
d="M692 53l-67 -67l-51 52q-43 -27 -87 -37.5t-86 -10.5q-73 0 -136.5 28t-110.5 76.5t-74.5 114.5t-27.5 141q0 74 28 139.5t75.5 114.5t110.5 77.5t132 28.5q74 0 137.5 -28.5t110.5 -77.5t74 -114t27 -139q0 -60 -17.5 -115t-49.5 -100l-69 69q19 32 29 68t10 78
q0 54 -19.5 103t-54 86t-80.5 58.5t-97 21.5t-96.5 -21t-79.5 -57.5t-54 -85.5t-20 -106q0 -56 20.5 -105.5t55.5 -86t80.5 -58t94.5 -21.5q58 0 105 28l-94 95l68 67z" />
    <glyph glyph-name="a.alt1" horiz-adv-x="651" 
d="M487 260q0 38 -13.5 70.5t-37.5 57.5t-55.5 39t-67.5 14t-67.5 -14.5t-54.5 -39t-36.5 -58t-13.5 -71.5q0 -37 13 -69.5t36 -56.5t54 -38t67 -14q26 0 50.5 9t45.5 23l27 -84q-29 -20 -63 -29.5t-69 -9.5q-52 0 -99 21.5t-82.5 58.5t-56 86.5t-20.5 105.5t20.5 105
t56 85.5t83.5 57.5t102 21q53 0 99.5 -20.5t81.5 -59.5v71h96v-522h-96v261z" />
    <glyph glyph-name="b.alt1" horiz-adv-x="652" 
d="M166 260v-261h-96v702h96v-251q35 39 81.5 59.5t100.5 20.5t102 -21t83.5 -57.5t56 -85.5t20.5 -105t-20.5 -105.5t-56 -86.5t-82 -58.5t-99.5 -21.5q-35 0 -69.5 9.5t-63.5 29.5l27 84q22 -14 46.5 -23t50.5 -9q36 0 67 14t54 38t36 56.5t13 69.5q0 38 -13.5 71.5
t-37 58t-55 39t-67.5 14.5t-67.5 -14t-55.5 -39t-37.5 -57.5t-13.5 -70.5z" />
    <glyph glyph-name="d.alt1" horiz-adv-x="652" 
d="M484 260q0 38 -13.5 70.5t-37.5 57.5t-55.5 39t-67.5 14t-67.5 -14.5t-54.5 -39t-36.5 -58t-13.5 -71.5q0 -37 13 -69.5t36 -56.5t54 -38t67 -14q26 0 50.5 9t45.5 23l27 -84q-29 -20 -63 -29.5t-69 -9.5q-52 0 -99 21.5t-82.5 58.5t-56 86.5t-20.5 105.5t20.5 105
t56 85.5t83.5 57.5t102 21q53 0 99.5 -20.5t81.5 -59.5v251h96v-702h-96v261z" />
    <glyph glyph-name="e.alt1" horiz-adv-x="601" 
d="M515 88q-39 -50 -93.5 -74t-111.5 -24q-34 0 -67.5 8.5t-64.5 25.5t-57 42.5t-45 58.5q-28 48 -34.5 101t7 103t45.5 93t81 71q32 19 66.5 28t68.5 9q40 0 78.5 -11.5t71.5 -34t59 -54.5t42 -73l-331 -191l-20 85l226 131q-26 29 -58.5 44t-67.5 15q-43 0 -84 -23
q-31 -19 -52 -48t-30 -63t-5.5 -69.5t20.5 -67.5q25 -45 67.5 -67.5t88.5 -22.5q40 0 76.5 17.5t62.5 52.5z" />
    <glyph glyph-name="g.alt1" horiz-adv-x="638" 
d="M465 264q0 37 -12.5 69t-35 55t-53 36.5t-65.5 13.5t-65 -13.5t-52 -36.5t-34.5 -55t-12.5 -69t12.5 -69t35.5 -55t54.5 -36.5t68.5 -13.5q20 0 36.5 5.5t41.5 19.5l26 -83q-26 -17 -56 -25t-62 -8q-52 0 -98 21.5t-80.5 58t-54.5 85t-20 103.5q0 54 19.5 101.5t54 83.5
t80.5 56.5t98 20.5q99 0 174 -78v68h96v-500q0 -49 -19.5 -91t-54 -73t-82 -48.5t-103.5 -17.5q-57 0 -103 19t-84 61l28 83q24 -35 65.5 -54t91.5 -19q36 0 66.5 10.5t52 29.5t33.5 44.5t12 55.5z" />
    <glyph glyph-name="p.alt1" 
d="M166 260v-452h-96v713h96v-71q35 39 81.5 59.5t99.5 20.5q55 0 103 -21t83.5 -57.5t56 -85.5t20.5 -105t-20.5 -105.5t-56 -86.5t-82 -58.5t-99.5 -21.5q-35 0 -69.5 9.5t-63.5 29.5l27 84q22 -14 46 -23t50 -9q36 0 67 14t54.5 38t36.5 56.5t13 69.5q0 38 -13.5 71.5
t-37 58t-55 39t-67.5 14.5t-67.5 -14t-55.5 -39t-37.5 -57.5t-13.5 -70.5z" />
    <glyph glyph-name="q.alt1" 
d="M483 260q0 38 -13.5 70.5t-37.5 57.5t-55.5 39t-67.5 14t-67.5 -14.5t-54.5 -39t-36.5 -58t-13.5 -71.5q0 -37 13 -69.5t36 -56.5t54 -38t67 -14q26 0 50 9t46 23l27 -84q-29 -20 -63 -29.5t-69 -9.5q-53 0 -100 21.5t-82 58.5t-55.5 86.5t-20.5 105.5t20.5 105t56 85.5
t83.5 57.5t102 21q109 0 181 -80v71h96v-713h-96v452z" />
  </font>
</defs>
</svg>
