<?xml version="1.0" standalone="no"?>
<!DOCTYPE svg PUBLIC "-//W3C//DTD SVG 1.1//EN" "http://www.w3.org/Graphics/SVG/1.1/DTD/svg11.dtd" >
<svg xmlns="http://www.w3.org/2000/svg" xmlns:xlink="http://www.w3.org/1999/xlink" version="1.1">
<metadata>
Created by FontForge 20170731 at Mon Mar 25 03:28:09 2019
 By Aleksey,,,
(c) 2019 KushJain. All rights reserved.
</metadata>
<defs>
<font id="Meticula-Thin" horiz-adv-x="620" >
  <font-face 
    font-family="Meticula-Thin"
    font-weight="400"
    font-stretch="normal"
    units-per-em="1000"
    panose-1="0 0 0 0 0 0 0 0 0 0"
    ascent="774"
    descent="-226"
    x-height="519"
    cap-height="700"
    bbox="-117 -212 1099 951"
    underline-thickness="50"
    underline-position="-225"
    unicode-range="U+0020-FB04"
  />
<missing-glyph horiz-adv-x="340" 
d="M340 699v-699h-340v699h340zM31 28h277v644h-277v-644z" />
    <glyph glyph-name="f_f" unicode="ff" horiz-adv-x="700" 
d="M251 682q-53 0 -76.5 -28.5t-23.5 -92.5v-41h317v41q0 150 126 150q48 0 81 -19l-9 -28q-17 10 -32.5 14t-35.5 4q-53 0 -76.5 -28.5t-23.5 -94.5v-39h142l-10 -30h-132v-490h-30v490h-316v-490h-30v490h-85v30h84v41q0 150 126 150q48 0 81 -19l-9 -28q-17 10 -32.5 14
t-35.5 4z" />
    <glyph glyph-name="fi" unicode="fi" horiz-adv-x="540" 
d="M249 682q-53 0 -76.5 -28.5t-23.5 -94.5v-39h325v-520h-30v490h-295v-490h-30v490h-85v30h85v41q0 150 126 150q48 0 81 -19l-9 -28q-17 10 -32.5 14t-35.5 4z" />
    <glyph glyph-name="fl" unicode="fl" horiz-adv-x="550" 
d="M474 0h-30v490h-295v-490h-30v490h-85v30h85v41q0 150 126 150q48 0 81 -19l-9 -28q-17 10 -32.5 14t-35.5 4q-53 0 -76.5 -28.5t-23.5 -94.5v-39h295v180h30v-700z" />
    <glyph glyph-name="f_f_i" unicode="ffi" horiz-adv-x="891" 
d="M823 520v-520h-30v490h-295v-490h-30v490h-316v-490h-30v490h-85v30h84v41q0 150 126 150q48 0 81 -19l-9 -28q-17 10 -32.5 14t-35.5 4q-53 0 -76.5 -28.5t-23.5 -92.5v-41h317v41q0 150 126 150q48 0 81 -19l-9 -28q-17 10 -32.5 14t-35.5 4q-53 0 -76.5 -28.5
t-23.5 -94.5v-39h325z" />
    <glyph glyph-name="f_f_l" unicode="ffl" horiz-adv-x="890" 
d="M793 490h-295v-490h-30v490h-316v-490h-30v490h-85v30h84v41q0 150 126 150q48 0 81 -19l-9 -28q-17 10 -32.5 14t-35.5 4q-53 0 -76.5 -28.5t-23.5 -92.5v-41h317v41q0 150 126 150q48 0 81 -19l-9 -28q-17 10 -32.5 14t-35.5 4q-53 0 -76.5 -28.5t-23.5 -94.5v-39h295
v180h30v-700h-30v490z" />
    <glyph glyph-name="f_t" unicode="ft" horiz-adv-x="710" 
d="M254 682q-53 0 -76.5 -28.5t-23.5 -94.5v-39h326v181h30v-181h126l10 -30h-136v-346q0 -68 23 -96.5t74 -28.5q22 0 38 4.5t33 13.5l9 -28q-14 -8 -37 -13.5t-48 -5.5q-61 0 -91.5 37.5t-30.5 116.5v346h-326v-490h-30v490h-85v30h85v41q0 150 126 150q48 0 81 -19
l-9 -28q-17 10 -32.5 14t-35.5 4z" />
    <glyph glyph-name=".notdef" horiz-adv-x="340" 
d="M340 699v-699h-340v699h340zM31 28h277v644h-277v-644z" />
    <glyph glyph-name="uni0000" horiz-adv-x="250" 
 />
    <glyph glyph-name="uni0000" horiz-adv-x="250" 
 />
    <glyph glyph-name="nonmarkingreturn" horiz-adv-x="250" 
 />
    <glyph glyph-name="space" unicode=" " horiz-adv-x="289" 
 />
    <glyph glyph-name="exclam" unicode="!" horiz-adv-x="188" 
d="M63 25q0 13 9 22t22 9t22 -9t9 -22t-9 -22t-22 -9t-22 9t-9 22zM109 700v-560h-30v560h30z" />
    <glyph glyph-name="quotedbl" unicode="&#x22;" horiz-adv-x="351" 
d="M141 675q0 -9 -3 -21.5t-7.5 -26.5t-10 -29t-9.5 -29q-4 14 -9.5 29t-10 29t-7.5 26.5t-3 21.5q0 15 8 23.5t22 8.5t22 -8.5t8 -23.5zM271 675q0 -9 -3 -21.5t-7.5 -26.5t-10 -29t-9.5 -29q-4 14 -9.5 29t-10 29t-7.5 26.5t-3 21.5q0 15 8 23.5t22 8.5t22 -8.5t8 -23.5z
" />
    <glyph glyph-name="numbersign" unicode="#" horiz-adv-x="649" 
d="M444 230h146l-6 -30h-146l-43 -200h-31l43 200h-227l-43 -200h-32l43 200h-116l6 30h116l51 240h-146l6 30h146l43 202h32l-43 -202h224l43 202h31l-43 -202h119l-6 -30h-116zM237 470l-51 -240h226l51 240h-226z" />
    <glyph glyph-name="dollar" unicode="$" horiz-adv-x="560" 
d="M254 -7q-77 7 -132 43.5t-84 96.5l27 12q27 -58 83 -90.5t125 -32.5q45 0 83.5 13.5t66 36.5t43.5 54t16 66q0 29 -12 53.5t-37.5 45t-66 37t-98.5 29.5q-115 26 -168.5 70t-53.5 104q0 36 16 68t44 56t66 38.5t82 16.5v60h29v-59q34 0 67 -8.5t61.5 -24t51 -36.5
t34.5 -46l-26 -12q-23 45 -76 71t-119 26q-42 0 -78.5 -11.5t-63.5 -31t-42.5 -46.5t-15.5 -58q0 -105 203 -150q123 -27 177.5 -74t54.5 -117q0 -42 -18 -78t-48.5 -62.5t-72 -42.5t-89.5 -18v-62h-29v63z" />
    <glyph glyph-name="percent" unicode="%" horiz-adv-x="700" 
d="M565 702h36l-462 -702h-36zM306 565q0 24 -9 45.5t-25 37.5t-37.5 25.5t-45.5 9.5t-45.5 -9.5t-37 -25.5t-25 -37.5t-9.5 -45.5t9 -45.5t25 -37.5t37.5 -25.5t45.5 -9.5t45.5 9.5t37.5 25.5t25 37.5t9 45.5zM336 565q0 -30 -11.5 -57t-31.5 -47t-47 -31.5t-57 -11.5
t-57 11.5t-47 31.5t-31.5 47t-11.5 57t11.5 57t31.5 47t47 31.5t57 11.5t57 -11.5t47 -31.5t31.5 -47t11.5 -57zM398 136q0 -24 9 -45.5t25 -37.5t37.5 -25.5t45.5 -9.5t45.5 9.5t37 25.5t25 37.5t9.5 45.5t-9 45.5t-25 37.5t-37.5 25.5t-45.5 9.5t-45.5 -9.5t-37.5 -25.5
t-25 -37.5t-9 -45.5zM368 136q0 30 11.5 57t31.5 47t47 31.5t57 11.5t57 -11.5t47 -31.5t31.5 -47t11.5 -57t-11.5 -57t-31.5 -47t-47 -31.5t-57 -11.5t-57 11.5t-47 31.5t-31.5 47t-11.5 57z" />
    <glyph glyph-name="ampersand" unicode="&#x26;" horiz-adv-x="701" 
d="M82 208q0 -42 15.5 -76.5t43 -59t65.5 -38.5t84 -14q59 0 113.5 22t99.5 64q-62 60 -131 136t-133 154q-84 -38 -120.5 -82.5t-36.5 -105.5zM292 379q54 -64 115 -129.5t115 -119.5q26 27 45 69.5t33 100.5l30 -2q-12 -60 -34 -108.5t-53 -82.5l82 -78l-21 -22l-80 77
q-106 -94 -233 -94q-52 0 -95.5 16t-75.5 44.5t-50 67.5t-18 85q0 72 44 128.5t123 87.5q-39 50 -60.5 88.5t-21.5 72.5q0 28 11 52t31 41t47.5 27t60.5 10q32 0 60.5 -10.5t49.5 -29.5t33 -44t12 -54h-30q0 23 -10 43t-27.5 34.5t-41 23t-50.5 8.5q-24 0 -45.5 -8
t-37 -21.5t-24.5 -31.5t-9 -39q0 -14 5.5 -30.5t19.5 -40t38 -55t62 -76.5z" />
    <glyph glyph-name="quotesingle" unicode="'" horiz-adv-x="200" 
d="M130 675q0 -9 -3 -21.5t-7.5 -26.5t-10 -29t-9.5 -29q-4 14 -9.5 29t-10 29t-7.5 26.5t-3 21.5q0 15 8 23.5t22 8.5t22 -8.5t8 -23.5z" />
    <glyph glyph-name="parenleft" unicode="(" horiz-adv-x="351" 
d="M52 311q0 64 14 126.5t41 120.5t65.5 109.5t87.5 93.5l19 -22q-197 -180 -197 -427q0 -119 47 -223.5t150 -205.5l-20 -21q-48 42 -86.5 93.5t-65 109.5t-41 120.5t-14.5 125.5z" />
    <glyph glyph-name="parenright" unicode=")" horiz-adv-x="351" 
d="M301 311q0 -63 -14.5 -125.5t-41 -120.5t-65 -109.5t-86.5 -93.5l-20 21q103 101 150 205.5t47 223.5q0 247 -197 427l19 22q49 -42 87.5 -93.5t65.5 -109.5t41 -120.5t14 -126.5z" />
    <glyph glyph-name="asterisk" unicode="*" horiz-adv-x="400" 
d="M220 443q0 -25 -4.5 -35.5t-14.5 -10.5q-11 0 -15.5 10.5t-4.5 36.5q0 18 1.5 44t6.5 66q-13 -10 -29 -21t-31 -20.5t-28 -17t-21 -11.5q-15 -6 -25 -6t-15 6q-5 8 1 17.5t18 15.5l123 60l-119 45q-32 13 -24 31q4 10 17 10q12 0 27 -7q12 -5 27 -13t30 -16.5t28 -16
t21 -12.5q-3 27 -5.5 55.5t-2.5 51.5q0 24 4 34t15 10q20 0 20 -44q0 -24 -3.5 -51.5t-6.5 -55.5q9 5 24 14t32 18.5t34 17.5t30 11q9 3 17 3q12 0 15 -8q3 -7 -3 -14.5t-18 -15.5q-9 -5 -23.5 -11.5t-32 -13t-35.5 -12.5t-34 -10l127 -60q9 -5 14.5 -14t3.5 -18
q-3 -9 -14 -9q-10 0 -30 9q-7 4 -19 11.5t-26.5 16.5t-30.5 20t-31 21q3 -29 6.5 -58t3.5 -53z" />
    <glyph glyph-name="plus" unicode="+" horiz-adv-x="613" 
d="M534 335h-214v-211h-30v211h-216v30h216v211h30v-211h214v-30z" />
    <glyph glyph-name="comma" unicode="," horiz-adv-x="219" 
d="M83 -57q11 9 20 21t9 32q-14 0 -25 8t-11 23q0 12 8.5 22t22.5 10q20 0 28 -16.5t8 -30.5q0 -31 -11 -51t-36 -39z" />
    <glyph glyph-name="hyphen" unicode="-" horiz-adv-x="356" 
d="M303 299v-30h-249v30h249z" />
    <glyph glyph-name="period" unicode="." horiz-adv-x="208" 
d="M73 26q0 14 9 23t22 9t22 -9t9 -23q0 -13 -9 -22t-22 -9t-22 9t-9 22z" />
    <glyph glyph-name="slash" unicode="/" horiz-adv-x="367" 
d="M382 746l-376 -807h-33l376 807h33z" />
    <glyph glyph-name="zero" unicode="0" horiz-adv-x="682" 
d="M601 347q0 68 -20.5 128.5t-56 105.5t-82.5 71.5t-100 26.5q-54 0 -101 -26t-82.5 -71t-56 -105.5t-20.5 -129.5q0 -68 20.5 -127.5t56 -104t83 -70.5t101.5 -26q53 0 100 26t82 70.5t55.5 104t20.5 127.5zM52 347q0 74 23 140t62 115.5t91.5 78t111.5 28.5
q60 0 112.5 -28.5t92.5 -78t63 -115.5t23 -140q0 -73 -23 -138.5t-62.5 -114t-92 -77t-112.5 -28.5t-112.5 28.5t-91.5 77t-62 114t-23 138.5z" />
    <glyph glyph-name="one" unicode="1" horiz-adv-x="354" 
d="M239 701v-701h-30v672l-148 -128l-10 31l146 126h42z" />
    <glyph glyph-name="two" unicode="2" horiz-adv-x="590" 
d="M83 44l321 275q56 47 78.5 85t22.5 82q0 41 -16.5 76.5t-45 62t-67.5 41.5t-83 15q-67 0 -121 -34t-78 -92l-28 12q14 32 37 58.5t53.5 45.5t66 29.5t72.5 10.5q50 0 93.5 -17.5t76 -48t51.5 -71t19 -86.5q0 -50 -24.5 -93.5t-80.5 -91.5l-317 -273h418v-30h-448v44z" />
    <glyph glyph-name="three" unicode="3" horiz-adv-x="593" 
d="M523 660l-212 -219q48 0 89 -16.5t71 -46t47 -69t17 -85.5q0 -48 -19.5 -91t-53 -75t-79 -50.5t-98.5 -18.5q-36 0 -70.5 9t-65.5 26t-56 41.5t-43 55.5l25 15q33 -57 89 -87.5t119 -30.5q47 0 87.5 16.5t71 44.5t48 66t17.5 80q0 41 -16.5 75t-46 59.5t-69.5 39.5
t-88 14h-14l-8 23l227 235h-424v30h455v-41z" />
    <glyph glyph-name="four" unicode="4" horiz-adv-x="590" 
d="M68 183h367v489zM37 191l382 510h46v-518h93v-30h-93v-153h-30v153h-398v38z" />
    <glyph glyph-name="five" unicode="5" horiz-adv-x="592" 
d="M89 700h421v-30h-393l-15 -277q48 37 96.5 52.5t100.5 15.5q54 0 100 -17.5t79 -48.5t51.5 -74t18.5 -93q0 -52 -19.5 -95.5t-54.5 -75.5t-83.5 -50t-107.5 -18q-65 0 -119.5 25t-110.5 82l11 33q92 -110 223 -110q51 0 93 15t73 43t48 66.5t17 84.5q0 45 -16 82.5
t-44.5 64t-68 41.5t-87.5 15q-31 0 -62 -6.5t-57.5 -18t-48 -27t-33.5 -33.5l-30 15z" />
    <glyph glyph-name="six" unicode="6" horiz-adv-x="574" 
d="M524 210q0 -47 -17 -87.5t-47 -70t-71.5 -46t-90.5 -16.5q-53 0 -98.5 20t-78.5 55.5t-52 84t-19 105.5q0 94 30.5 174.5t84.5 139.5t129 94t165 38l-10 -30q-71 -3 -135 -32.5t-113.5 -78t-80.5 -112.5t-36 -136q34 53 89.5 81.5t124.5 28.5q48 0 89.5 -16t71.5 -44.5
t47.5 -67.5t17.5 -84zM87 214q0 -39 17.5 -74t46.5 -61.5t68 -42.5t81 -16q41 0 76.5 14.5t61.5 40t41 60t15 74.5q0 39 -15 72.5t-41 58t-62 38.5t-78 14q-44 0 -82.5 -13.5t-67 -37.5t-45 -56.5t-16.5 -70.5z" />
    <glyph glyph-name="seven" unicode="7" horiz-adv-x="560" 
d="M521 659l-366 -659h-34l372 670h-454v30h482v-41z" />
    <glyph glyph-name="eight" unicode="8" horiz-adv-x="578" 
d="M39 197q0 63 42.5 111.5t118.5 74.5q-28 10 -51.5 27t-40.5 39t-27 47.5t-10 50.5q0 35 17 64.5t46.5 52t69 35t85.5 12.5q45 0 85 -13t69 -36t46 -54t17 -66q0 -25 -9 -49t-25.5 -45t-39.5 -38t-51 -27q76 -26 117.5 -74.5t41.5 -111.5q0 -43 -19.5 -81t-53.5 -66
t-80 -44.5t-98 -16.5t-97.5 16.5t-79.5 44.5t-53.5 66t-19.5 81zM289 682q-39 0 -73.5 -10.5t-60 -29t-40.5 -43.5t-15 -53q0 -30 15.5 -57t41.5 -48t60 -33t72 -12q39 0 73.5 11.5t60 31t40 46.5t14.5 57q0 29 -14.5 54.5t-40 44.5t-60 30t-73.5 11zM292 19q46 0 86 13.5
t69 36.5t46 55t17 68q0 37 -17 68.5t-47 55t-70 37t-87 13.5q-46 0 -86.5 -13t-70 -36.5t-46.5 -55t-17 -67.5q0 -37 17.5 -69t47.5 -55.5t71 -37t87 -13.5z" />
    <glyph glyph-name="nine" unicode="9" horiz-adv-x="576" 
d="M41 492q0 47 17 87.5t47 70t71.5 46t90.5 16.5q53 0 98.5 -20t78.5 -55.5t52 -84t19 -105.5q0 -94 -30.5 -174t-84.5 -139.5t-129 -94.5t-165 -38l10 30q71 3 135 32.5t113.5 78t80.5 112.5t36 136q-34 -53 -89.5 -81.5t-124.5 -28.5q-48 0 -89.5 16.5t-71.5 45t-47.5 67
t-17.5 83.5zM478 488q0 39 -17.5 74t-46.5 61.5t-68 42.5t-81 16q-41 0 -76.5 -14.5t-61.5 -40t-41 -60t-15 -74.5q0 -39 15 -72.5t41 -58t62 -38.5t78 -14q44 0 82.5 14t67 38t45 56.5t16.5 69.5z" />
    <glyph glyph-name="colon" unicode=":" horiz-adv-x="300" 
d="M119 26q0 14 9 23t22 9t22 -9t9 -23q0 -13 -9 -22t-22 -9t-22 9t-9 22zM119 459q0 13 9 22t22 9t22 -9t9 -22q0 -14 -9 -23t-22 -9t-22 9t-9 23z" />
    <glyph glyph-name="semicolon" unicode=";" horiz-adv-x="300" 
d="M124 -57q11 9 20 21t9 32q-14 0 -25 8t-11 23q0 12 8.5 22t22.5 10q20 0 28 -16.5t8 -30.5q0 -31 -11 -51t-36 -39zM119 459q0 13 9 22t22 9t22 -9t9 -22q0 -14 -9 -23t-22 -9t-22 9t-9 23z" />
    <glyph glyph-name="less" unicode="&#x3c;" horiz-adv-x="600" 
d="M50 370l454 221v-33l-426 -208l426 -208v-33l-454 221v40z" />
    <glyph glyph-name="equal" unicode="=" horiz-adv-x="551" 
d="M459 228v-30h-367v30h367zM459 450v-30h-367v30h367z" />
    <glyph glyph-name="greater" unicode="&#x3e;" horiz-adv-x="601" 
d="M550 331l-455 -222v34l425 207l-425 207v34l455 -222v-38z" />
    <glyph glyph-name="question" unicode="?" horiz-adv-x="478" 
d="M184 140v176q37 15 77 30t73.5 37.5t55.5 55.5t22 82q0 74 -47 117t-132 43q-56 0 -96.5 -21.5t-70.5 -68.5l-25 16q33 54 79.5 79t110.5 25q99 0 155 -51.5t56 -142.5q0 -37 -11.5 -67.5t-38.5 -57t-70.5 -50.5t-107.5 -48v-154h-30zM200 58q13 0 22 -9t9 -23
q0 -13 -9 -22.5t-22 -9.5t-22.5 9.5t-9.5 22.5q0 14 9.5 23t22.5 9z" />
    <glyph glyph-name="at" unicode="@" horiz-adv-x="899" 
d="M662 162q-38 0 -62 19.5t-41 64.5q-35 -37 -77 -57t-85 -20q-32 0 -58.5 11t-46 31t-30.5 47.5t-11 60.5q0 42 17 80t45.5 67.5t66 46.5t78.5 17q40 0 75.5 -16.5t55.5 -45.5l7 46h30q-5 -28 -9.5 -56t-8.5 -51.5t-7 -42t-5 -28.5q-27 -144 67 -144q54 0 86.5 43.5
t32.5 115.5q0 65 -27 125t-73 105.5t-105.5 72.5t-125.5 27t-127 -27t-107.5 -73t-74 -106.5t-27.5 -127.5q0 -66 27 -126.5t73 -106.5t105.5 -73.5t123.5 -27.5q44 0 87 11t77 35l15 -26q-40 -26 -86 -38t-94 -12q-70 0 -135 29.5t-114.5 79.5t-79 115.5t-29.5 138.5
q0 74 30 140t80 116t116 79.5t138 29.5t138 -29.5t116 -79.5t80 -115.5t30 -136.5q0 -42 -11 -77t-30.5 -59.5t-47.5 -38t-62 -13.5zM576 399q3 20 -5.5 38t-25.5 32t-40.5 22.5t-50.5 8.5q-34 0 -65.5 -15t-55.5 -39.5t-38 -57.5t-14 -69q0 -55 32.5 -87.5t86.5 -32.5
q39 0 75.5 20t82.5 68z" />
    <glyph glyph-name="A" unicode="A" horiz-adv-x="675" 
d="M338 677l-161 -407h322zM362 700l277 -700h-33l-95 240h-346l-95 -240h-33l277 700h48z" />
    <glyph glyph-name="B" unicode="B" horiz-adv-x="600" 
d="M118 670v-270h217q29 0 55 11t45.5 29.5t31 43t11.5 51.5q0 28 -12 52.5t-32.5 43t-48 29t-59.5 10.5h-208zM118 370v-339h197q45 0 83 13t66.5 36t44.5 54t16 66t-15 65.5t-40.5 54t-59 37t-70.5 13.5h-222zM88 1v699h237q38 0 71.5 -13t58.5 -35.5t39 -52.5t14 -65
q0 -91 -95 -147q69 -27 105.5 -74.5t36.5 -108.5q0 -44 -18 -81t-50.5 -64t-76.5 -42.5t-95 -15.5h-227z" />
    <glyph glyph-name="C" unicode="C" horiz-adv-x="662" 
d="M619 77q-43 -42 -102 -65t-122 -23q-70 0 -133 29t-110 78.5t-74.5 115.5t-27.5 140q0 73 28 138t75 114t109.5 78t132.5 29q63 0 122 -23t101 -64l-21 -21q-19 18 -43 32.5t-50.5 25t-54.5 16t-54 5.5q-65 0 -122.5 -26t-100 -71t-67.5 -105t-25 -128q0 -69 25 -129.5
t68 -106t100.5 -72t121.5 -26.5q55 0 109 21.5t94 58.5z" />
    <glyph glyph-name="D" unicode="D" horiz-adv-x="711" 
d="M115 672v-642h175q80 0 144 24t109 66.5t69.5 101.5t24.5 128q0 68 -25 127t-70.5 102.5t-109.5 68t-142 24.5h-175zM85 0v702h205q85 0 154.5 -27t119 -74.5t76.5 -112t27 -139.5t-26.5 -139t-75.5 -110.5t-119 -73t-156 -26.5h-205z" />
    <glyph glyph-name="E" unicode="E" horiz-adv-x="560" 
d="M76 0v699h444v-30h-414v-267h364v-30h-364v-342h414v-30h-444z" />
    <glyph glyph-name="F" unicode="F" horiz-adv-x="550" 
d="M74 700h445v-30h-415v-266h364v-30h-364v-374h-30v700z" />
    <glyph glyph-name="G" unicode="G" horiz-adv-x="691" 
d="M625 340v-256q-50 -46 -109.5 -70.5t-125.5 -24.5q-71 0 -133.5 28t-109 77t-73.5 114.5t-27 140.5t27 141t73.5 115t109 77.5t133.5 28.5q62 0 119.5 -22t100.5 -60l-15 -26q-40 37 -94 57.5t-111 20.5q-65 0 -122 -26t-99.5 -71t-67 -105.5t-24.5 -128.5q0 -69 25 -129
t67 -105t98 -71t118 -26q60 0 117.5 22t92.5 57v212h-195v30h225z" />
    <glyph glyph-name="H" unicode="H" horiz-adv-x="675" 
d="M559 405v297h30v-702h-30v375h-442v-375h-30v702h30v-297h442z" />
    <glyph glyph-name="I" unicode="I" horiz-adv-x="231" 
d="M131 700v-700h-30v700h30z" />
    <glyph glyph-name="J" unicode="J" horiz-adv-x="410" 
d="M337 190q0 -45 -13 -82t-36 -63t-54.5 -40.5t-69.5 -14.5t-72.5 13.5t-55.5 34.5l9 28q21 -20 53.5 -33t67.5 -13q62 0 101.5 45.5t39.5 124.5v510h30v-510z" />
    <glyph glyph-name="K" unicode="K" horiz-adv-x="570" 
d="M542 -1h-37l-268 391l-126 -131v-260h-30v702h30v-401l381 401h40l-274 -289z" />
    <glyph glyph-name="L" unicode="L" horiz-adv-x="539" 
d="M84 0v700h30v-670h386v-30h-416z" />
    <glyph glyph-name="M" unicode="M" horiz-adv-x="808" 
d="M387 316l-273 360v-676h-30v700h50l269 -355l269 355h52v-700h-30v678l-276 -362h-31z" />
    <glyph glyph-name="N" unicode="N" horiz-adv-x="750" 
d="M619 0l-503 671v-671h-30v700h46l503 -671v671h30v-700h-46z" />
    <glyph glyph-name="O" unicode="O" horiz-adv-x="782" 
d="M705 350q0 69 -24.5 129.5t-67 105t-100 70.5t-122.5 26t-122 -26t-100 -71t-67.5 -105t-24.5 -129q0 -68 25 -128.5t67.5 -105.5t100 -71t122.5 -26t122 26t99.5 71t67 105t24.5 129zM47 349q0 75 27 141t74 115t109.5 77.5t134.5 28.5q71 0 133.5 -28.5t109 -77
t73.5 -114.5t27 -141t-27 -141t-73.5 -114.5t-109 -77t-133.5 -28.5q-72 0 -134.5 28t-109.5 77t-74 114.5t-27 140.5z" />
    <glyph glyph-name="P" unicode="P" horiz-adv-x="611" 
d="M111 329h222q44 0 81.5 13t64.5 35.5t42.5 53.5t15.5 67q0 37 -16 69t-43.5 55t-65 36.5t-81.5 13.5h-220v-343zM81 702h250q49 0 92 -16t75 -43.5t50.5 -64.5t18.5 -80q0 -42 -18 -78.5t-49.5 -63t-74 -42t-92.5 -15.5h-222v-299h-30v702z" />
    <glyph glyph-name="Q" unicode="Q" horiz-adv-x="797" 
d="M399 681q-64 0 -121 -26.5t-100 -71.5t-68 -105t-25 -128q0 -69 24.5 -129.5t66.5 -105t99.5 -70t123.5 -25.5q48 0 91 14t88 45l-114 114l21 21l116 -117q52 48 81.5 115.5t29.5 138.5q0 69 -24.5 129t-67 104.5t-99.5 70.5t-122 26zM55 350q0 73 27.5 138.5t74 115
t109 78.5t131.5 29q72 0 134.5 -28t109.5 -77t74 -114.5t27 -140.5q0 -79 -30 -148.5t-90 -126.5l45 -45l-21 -21l-47 47q-49 -35 -96.5 -51t-102.5 -16q-72 0 -135 28t-109.5 76.5t-73.5 114.5t-27 141z" />
    <glyph glyph-name="R" unicode="R" horiz-adv-x="610" 
d="M111 329h226q43 0 79 13t62.5 35.5t41 53.5t14.5 67q0 37 -15.5 68.5t-42.5 54.5t-64 36t-81 13h-220v-341zM81 700h250q49 0 91.5 -15.5t74 -43t49.5 -64.5t18 -80q0 -42 -17 -78t-47.5 -63t-72 -42t-89.5 -15h-72l265 -299h-40l-265 299h-115v-299h-30v700z" />
    <glyph glyph-name="S" unicode="S" horiz-adv-x="561" 
d="M66 145q26 -57 83 -90t128 -33q44 0 81.5 13t65.5 36t43.5 54.5t15.5 68.5q0 60 -48 98t-158 63q-119 28 -174.5 70.5t-55.5 107.5q0 38 17.5 70.5t48 56.5t72.5 37.5t91 13.5q38 0 72.5 -8t63.5 -23t51 -36.5t35 -47.5l-26 -12q-24 45 -76.5 71t-118.5 26
q-43 0 -79.5 -11.5t-63.5 -31t-42 -46t-15 -57.5q0 -54 49.5 -91t155.5 -60q121 -27 176 -72.5t55 -116.5q0 -43 -18.5 -80t-50 -64.5t-74.5 -43t-93 -15.5q-39 0 -76 10t-68 28.5t-55 44.5t-38 58z" />
    <glyph glyph-name="T" unicode="T" horiz-adv-x="590" 
d="M552 670h-242v-670h-30v670h-242v30h514v-30z" />
    <glyph glyph-name="U" unicode="U" horiz-adv-x="741" 
d="M84 700h30v-456q0 -46 20.5 -87.5t56 -72t82.5 -48.5t101 -18q53 0 99.5 17.5t80.5 48t53.5 72t19.5 88.5v456h30v-456q0 -53 -22 -99.5t-60.5 -81t-90 -54.5t-110.5 -20q-58 0 -111 20.5t-92.5 55.5t-63 81t-23.5 98v456z" />
    <glyph glyph-name="V" unicode="V" horiz-adv-x="653" 
d="M306 0l-276 700h32l265 -671l265 671h32l-276 -700h-42z" />
    <glyph glyph-name="W" unicode="W" horiz-adv-x="1076" 
d="M559 642l218 -614l231 673h31l-241 -701h-42l-219 614l-216 -614h-42l-242 701h31l232 -672l215 613h44z" />
    <glyph glyph-name="X" unicode="X" horiz-adv-x="571" 
d="M509 0l-224 332l-224 -332h-36l241 357l-232 344h36l215 -319l215 319h36l-232 -343l242 -358h-37z" />
    <glyph glyph-name="Y" unicode="Y" horiz-adv-x="595" 
d="M34 700h35l227 -369l231 369h35l-251 -400v-300h-30v300z" />
    <glyph glyph-name="Z" unicode="Z" horiz-adv-x="618" 
d="M41 43l519 627h-520v30h548v-42l-520 -628h512v-30h-539v43z" />
    <glyph glyph-name="bracketleft" unicode="[" horiz-adv-x="342" 
d="M97 -91v845h165v-30h-135v-785h135v-30h-165z" />
    <glyph glyph-name="backslash" unicode="\" horiz-adv-x="380" 
d="M363 -57l-373 801h33l373 -801h-33z" />
    <glyph glyph-name="bracketright" unicode="]" horiz-adv-x="340" 
d="M238 -91h-164v30h134v785h-134v30h164v-845z" />
    <glyph glyph-name="asciicircum" unicode="^" horiz-adv-x="707" 
d="M372 691l192 -241h-36l-174 214l-174 -214h-36l192 241h36z" />
    <glyph glyph-name="underscore" unicode="_" horiz-adv-x="542" 
d="M516 -178v-30h-491v30h491z" />
    <glyph glyph-name="grave" unicode="`" horiz-adv-x="201" 
d="M91 580l-68 94l38 12l55 -106h-25z" />
    <glyph glyph-name="a" unicode="a" horiz-adv-x="650" 
d="M308 501q-49 0 -92 -19t-75 -52t-51 -77t-19 -94q0 -49 19 -93t51 -76.5t75 -51.5t92 -19t92 19t75.5 51.5t51 76.5t18.5 94t-18.5 93.5t-51 76.5t-75.5 52t-92 19zM575 0h-32v134q-34 -67 -96.5 -105.5t-135.5 -38.5q-56 0 -105.5 21t-86 58t-58 86t-21.5 104
q0 56 21.5 105.5t58.5 86t86.5 58t104.5 21.5q36 0 70.5 -10t64.5 -29t55 -46t42 -60v134h32v-519z" />
    <glyph glyph-name="b" unicode="b" horiz-adv-x="650" 
d="M340 501q-49 0 -92 -19t-75.5 -52t-51.5 -76.5t-19 -93.5t19 -94t51.5 -77t75.5 -52.5t92 -19.5t92 19.5t75.5 52.5t51 77t18.5 93q0 50 -18.5 94t-51 77t-75.5 52t-92 19zM103 700v-313q36 66 98.5 104.5t137.5 38.5q55 0 104 -21.5t85.5 -58t58 -86t21.5 -105.5
t-21.5 -105.5t-58.5 -86.5t-86.5 -58.5t-105.5 -21.5q-73 0 -133 37.5t-100 107.5v-132h-32v700h32z" />
    <glyph glyph-name="c" unicode="c" horiz-adv-x="520" 
d="M466 443q-30 29 -70 44t-85 15q-49 0 -92.5 -19t-75.5 -52t-51 -77t-19 -94t19 -94t52 -77t77 -52t94 -19q45 0 83 15t69 44l22 -21q-34 -32 -79.5 -49.5t-95.5 -17.5q-56 0 -106 21.5t-87 58.5t-58.5 86.5t-21.5 104.5t21 104.5t57.5 86.5t85.5 58.5t105 21.5
q51 0 97.5 -17t80.5 -49z" />
    <glyph glyph-name="d" unicode="d" horiz-adv-x="650" 
d="M310 501q-49 0 -92 -19t-75 -52t-51 -77t-19 -94q0 -49 19 -93t51 -77t75 -52.5t92 -19.5t92 19.5t75.5 52.5t51.5 77t19 94t-19 93.5t-51.5 76.5t-75.5 52t-92 19zM578 0h-31v132q-40 -70 -100 -107.5t-133 -37.5q-56 0 -106 21.5t-87 58.5t-58.5 86.5t-21.5 105.5
t21.5 105.5t58.5 86t86 58t104 21.5q75 0 137.5 -38.5t98.5 -104.5v313h31v-700z" />
    <glyph glyph-name="e" unicode="e" 
d="M550 276q-4 49 -23.5 90.5t-51 71.5t-73.5 46.5t-90 16.5t-89.5 -16.5t-73.5 -46t-52.5 -71t-25.5 -91.5h479zM508 72q-38 -40 -89 -61.5t-107 -21.5q-57 0 -106.5 21.5t-86 58t-58 86t-21.5 106.5q0 56 21.5 105t58 85.5t86.5 57.5t107 21q58 0 107.5 -21.5t85.5 -60
t56.5 -90t19.5 -111.5h-511q3 -48 23 -90t52 -72.5t74.5 -48.5t89.5 -18q51 0 97.5 20t78.5 56z" />
    <glyph glyph-name="f" unicode="f" horiz-adv-x="350" 
d="M39 490v30h85v41q0 150 126 150q48 0 81 -19l-9 -28q-17 10 -32.5 14t-35.5 4q-53 0 -76.5 -28.5t-23.5 -94.5v-39h140l-10 -30h-130v-490h-30v490h-85z" />
    <glyph glyph-name="g" unicode="g" horiz-adv-x="630" 
d="M296 528q36 0 70.5 -9.5t64.5 -27.5t54 -43.5t40 -57.5v129h31v-504q0 -47 -19 -87.5t-52.5 -70.5t-79.5 -47.5t-100 -17.5q-106 0 -176 69l11 32q63 -71 166 -71q47 0 87.5 15t69.5 40.5t45.5 60.5t16.5 75v127q-32 -65 -92 -102t-132 -37q-54 0 -101 21t-82.5 57.5
t-56 85t-20.5 103.5q0 54 20 101.5t54.5 83t81 55.5t99.5 20zM525 264q0 50 -17.5 92.5t-48 74t-72.5 49.5t-90 18t-89 -17.5t-71 -48.5t-47.5 -73t-17.5 -91t18 -92.5t49 -75.5t73 -50.5t90 -18.5q47 0 88 18t71 49t47 74t17 92z" />
    <glyph glyph-name="h" unicode="h" horiz-adv-x="621" 
d="M548 1h-31v285q0 47 -13.5 85.5t-38 66t-58 43t-73.5 15.5q-45 0 -86.5 -19t-73 -51t-50.5 -73t-19 -86v-266h-30v700h30v-319q18 33 43.5 60t55.5 45.5t63 29t67 10.5q46 0 85 -18t67.5 -50t45 -76t16.5 -97v-285z" />
    <glyph glyph-name="i" unicode="i" horiz-adv-x="200" 
d="M100 680q11 0 18 -7t7 -18t-7 -18t-18 -7t-18 7t-7 18t7 18t18 7zM115 520v-520h-30v520h30z" />
    <glyph glyph-name="j" unicode="j" horiz-adv-x="201" 
d="M115 -52q0 -81 -30.5 -118.5t-95.5 -37.5q-50 0 -84 24l10 29q17 -13 34.5 -18.5t40.5 -5.5q50 0 72.5 29.5t22.5 94.5v575h30v-572zM101 680q11 0 18 -7t7 -18t-7 -18t-18 -7t-18 7t-7 18t7 18t18 7z" />
    <glyph glyph-name="k" unicode="k" horiz-adv-x="550" 
d="M479 520l-206 -174l231 -346h-37l-218 327l-132 -110v-216h-31v700h31v-444l315 263h47z" />
    <glyph glyph-name="l" unicode="l" horiz-adv-x="206" 
d="M118 700v-699h-30v699h30z" />
    <glyph glyph-name="m" unicode="m" horiz-adv-x="951" 
d="M864 0h-31v316q0 87 -40 135t-112 48q-40 0 -75.5 -15t-61.5 -41t-41.5 -61t-15.5 -74v-308h-30v323q0 38 -12.5 70.5t-34 56t-51.5 36.5t-65 13q-39 0 -73 -16t-59.5 -43.5t-40 -65t-14.5 -79.5v-295h-30v519h30v-111q32 57 82 89.5t109 32.5q63 0 110.5 -36t67.5 -98
q27 63 81 98.5t121 35.5q42 0 76.5 -14.5t58.5 -41.5t37.5 -64.5t13.5 -83.5v-326z" />
    <glyph glyph-name="n" unicode="n" horiz-adv-x="598" 
d="M522 0h-31v323q0 38 -13 70t-36.5 55.5t-56.5 37t-73 13.5q-42 0 -79 -15.5t-65 -42.5t-44.5 -63.5t-16.5 -77.5v-300h-31v519h31v-108q14 27 35.5 48.5t49.5 37.5t60 24.5t66 8.5q44 0 81.5 -16t64.5 -44t42.5 -65.5t15.5 -81.5v-323z" />
    <glyph glyph-name="o" unicode="o" 
d="M549 259q0 50 -19 94t-51 77t-75.5 52.5t-92.5 19.5t-92.5 -19.5t-76.5 -52.5t-52 -77t-19 -94q0 -49 19 -93t52 -77t76.5 -52t92.5 -19q50 0 93 19t75.5 51.5t51 76.5t18.5 94zM40 259q0 56 21.5 105.5t58 86.5t86 58.5t105.5 21.5t105 -21.5t85.5 -58t57.5 -86
t21 -106.5t-21 -106t-57.5 -85.5t-85.5 -57.5t-105 -21t-105.5 21t-86 58t-58 86t-21.5 105z" />
    <glyph glyph-name="p" unicode="p" horiz-adv-x="650" 
d="M343 501q-49 0 -92 -19t-75 -52t-50.5 -76.5t-18.5 -93.5t18.5 -94t50.5 -76.5t75 -51.5t92 -19t92 19t75.5 51.5t51 76.5t18.5 93q0 50 -18.5 94t-51 77t-75.5 52t-92 19zM108 519v-134q18 33 43 60t55 46t64.5 29t70.5 10q56 0 105 -21.5t86 -58t58.5 -86t21.5 -105.5
q0 -55 -21.5 -104t-58 -86t-86 -58t-105.5 -21q-73 0 -135.5 38.5t-97.5 105.5v-333h-31v718h31z" />
    <glyph glyph-name="q" unicode="q" horiz-adv-x="650" 
d="M309 501q-49 0 -92 -19t-75 -52t-51 -77t-19 -94q0 -49 19 -93t51 -76.5t75 -51.5t92 -19t92 19t75.5 51.5t51 76.5t18.5 94t-18.5 93.5t-51 76.5t-75.5 52t-92 19zM576 -199h-32v333q-34 -67 -96.5 -105.5t-135.5 -38.5q-56 0 -105.5 21t-86 58t-58 86t-21.5 104
q0 56 21.5 105.5t58.5 86t86.5 58t104.5 21.5q36 0 70.5 -10t64.5 -29t55 -46t42 -60v134h32v-718z" />
    <glyph glyph-name="r" unicode="r" horiz-adv-x="380" 
d="M352 494q-49 0 -93 -15t-77.5 -44t-53 -71.5t-19.5 -98.5v-265h-31v519h31v-129q38 65 98 100t156 35z" />
    <glyph glyph-name="s" unicode="s" horiz-adv-x="460" 
d="M58 120q26 -49 68 -74.5t95 -25.5q34 0 64.5 9t53.5 25.5t36.5 40.5t13.5 54q0 38 -25.5 60t-64.5 36.5t-83.5 25t-83.5 25.5t-64.5 37.5t-25.5 60.5q0 30 14.5 55t39.5 43t58 28t69 10q57 0 105.5 -23.5t72.5 -68.5l-27 -15q-20 38 -61 57t-89 19q-30 0 -57 -7.5
t-47.5 -21.5t-33 -33t-12.5 -42q0 -30 25.5 -48t64 -30t83.5 -23t83.5 -28t64 -44t25.5 -71q0 -37 -15.5 -67t-42.5 -51t-63 -32.5t-76 -11.5q-63 0 -114.5 31t-77.5 85z" />
    <glyph glyph-name="t" unicode="t" horiz-adv-x="340" 
d="M36 490v30h78v180h30v-180h126l10 -30h-136v-347q0 -68 23 -96.5t74 -28.5q22 0 38 4.5t33 13.5l9 -28q-14 -8 -37 -13.5t-48 -5.5q-61 0 -91.5 37.5t-30.5 116.5v347h-78z" />
    <glyph glyph-name="u" unicode="u" horiz-adv-x="600" 
d="M77 519h31v-323q0 -37 13 -69.5t36.5 -56t56.5 -37t73 -13.5q42 0 79.5 16t65 43t44 63.5t16.5 77.5v299h31v-519h-31v109q-13 -27 -35 -49t-50 -37.5t-60 -24.5t-66 -9q-44 0 -81.5 16t-64.5 44t-42.5 66t-15.5 81v323z" />
    <glyph glyph-name="v" unicode="v" horiz-adv-x="521" 
d="M239 0l-207 519h33l196 -489l195 489h33l-207 -519h-43z" />
    <glyph glyph-name="w" unicode="w" horiz-adv-x="850" 
d="M447 508l166 -457l171 468h33l-191 -519h-26l-174 477l-175 -477h-29l-189 519h31l173 -472l167 461h43z" />
    <glyph glyph-name="x" unicode="x" horiz-adv-x="510" 
d="M442 0l-187 256l-187 -256h-38l208 284l-172 235h39l151 -207l149 207h38l-172 -234l209 -285h-38z" />
    <glyph glyph-name="y" unicode="y" horiz-adv-x="560" 
d="M81 -164q32 -14 59 -14t45.5 14t31.5 37t23 51t22 57l-229 539h34l212 -502l216 502h32l-274 -642q-19 -44 -48 -65t-65 -21q-33 0 -68 16z" />
    <glyph glyph-name="z" unicode="z" horiz-adv-x="491" 
d="M451 481l-380 -452h378v-29h-410v39l380 451h-380v29h412v-38z" />
    <glyph glyph-name="braceleft" unicode="{" horiz-adv-x="370" 
d="M320 -120q-45 0 -82.5 11t-64.5 30.5t-42 46.5t-15 60v212q0 55 -61 55h-7v29h7q61 0 61 52v212q0 33 14.5 60.5t41.5 47t64 30t82 10.5v-30q-78 0 -125 -32t-47 -86v-212q0 -37 -30 -67q30 -31 30 -69v-212q0 -26 13 -48t36 -38t55 -24.5t70 -8.5v-29z" />
    <glyph glyph-name="bar" unicode="|" horiz-adv-x="226" 
d="M128 745v-788h-30v788h30z" />
    <glyph glyph-name="braceright" unicode="}" horiz-adv-x="369" 
d="M50 -91q38 0 70 8.5t55 24.5t36 38t13 48v212q0 38 30 69q-30 30 -30 67v212q0 54 -47 86t-125 32v30q45 0 82 -10.5t64 -30t41.5 -47t14.5 -60.5v-212q0 -52 61 -52h7v-29h-7q-61 0 -61 -55v-212q0 -33 -15 -60t-42 -46.5t-64.5 -30.5t-82.5 -11v29z" />
    <glyph glyph-name="asciitilde" unicode="~" horiz-adv-x="557" 
d="M98 273q5 54 32 85t69 31q24 0 45 -14.5t40.5 -32t39.5 -32t44 -14.5q26 0 42.5 23t21.5 67l28 -2q-5 -52 -30 -84t-60 -32q-30 0 -52.5 14.5t-42 32t-39 32t-43.5 14.5q-28 0 -46 -24t-21 -66z" />
    <glyph glyph-name="uni00A0" unicode="&#xa0;" horiz-adv-x="279" 
 />
    <glyph glyph-name="exclamdown" unicode="&#xa1;" horiz-adv-x="188" 
d="M63 500.002q0 -13 9 -21.999t22 -8.99902t22 8.99902t9 21.999q0 12.999 -9 21.998q-9 9 -22 9t-22 -9q-9 -8.99902 -9 -21.998zM109 -174.957v559.966h-30v-559.966h30z" />
    <glyph glyph-name="cent" unicode="&#xa2;" horiz-adv-x="494" 
d="M281 499q53 -5 96.5 -24.5t75.5 -49.5l-17 -17q-26 26 -66.5 41t-88.5 19v-449q48 5 87 20.5t68 40.5l18 -18q-31 -29 -75 -49t-98 -25v-42h-28v45q-44 10 -83 33.5t-68 56.5t-45.5 74t-16.5 86t16.5 86.5t45.5 75.5t68 58.5t83 35.5v43h28v-41zM72 241q0 -37 13.5 -71.5
t37.5 -63.5t57.5 -51t72.5 -35v447q-40 -14 -73 -37t-57 -52.5t-37.5 -64.5t-13.5 -72z" />
    <glyph glyph-name="sterling" unicode="&#xa3;" horiz-adv-x="604" 
d="M141 296h-70v30h70v138q0 129 55 188t175 59q62 0 105 -18.5t84 -63.5l-10 -31q-40 45 -82.5 64.5t-99.5 19.5q-192 0 -197 -186v-170h240v-30h-240v-266h388v-30h-418v296z" />
    <glyph glyph-name="currency" unicode="&#xa4;" horiz-adv-x="699" 
d="M98 248q0 42 16 85t47 85l-118 118l20 21l118 -118q42 32 85 48.5t84 16.5q42 0 85 -16.5t84 -48.5l118 118l20 -21l-118 -118q31 -42 47 -85t16 -85q0 -84 -62 -167l117 -118l-20 -20l-118 117q-42 -32 -85 -48.5t-84 -16.5t-84 16.5t-85 48.5l-117 -117l-21 21l118 117
q-63 81 -63 167zM572 248q0 46 -17.5 87t-48 72t-71 49t-85.5 18t-85.5 -18t-70.5 -49t-48 -72t-18 -87q0 -45 17.5 -85.5t48 -71t71 -48.5t85.5 -18q46 0 86.5 17.5t70.5 48t47.5 71t17.5 86.5z" />
    <glyph glyph-name="yen" unicode="&#xa5;" horiz-adv-x="589" 
d="M35 701h36l226 -334l225 334h36l-246 -366h169v-30h-169v-125h169v-30h-169v-150h-30v150h-167v30h167v125h-167v30h167z" />
    <glyph glyph-name="brokenbar" unicode="&#xa6;" horiz-adv-x="507" 
d="M268 251v-294h-28v294h28zM240 450v295h28v-295h-28z" />
    <glyph glyph-name="section" unicode="&#xa7;" horiz-adv-x="480" 
d="M40 571q0 29 16 54.5t43.5 44.5t64.5 29.5t80 10.5q104 0 170 -63l-19 -22q-36 29 -72 42t-84 13q-35 0 -65.5 -8.5t-53.5 -23.5t-36.5 -34.5t-13.5 -41.5q0 -34 27.5 -54t68.5 -34t88.5 -26t88.5 -29.5t68.5 -45t27.5 -71.5q0 -40 -27.5 -68.5t-87.5 -50.5
q51 -17 82.5 -54t31.5 -80q0 -32 -15.5 -60t-42.5 -48.5t-63.5 -32.5t-78.5 -12q-103 0 -180 75l21 21q71 -66 161 -66q36 0 67 9.5t53.5 26t35 39t12.5 49.5q0 41 -27 64t-68 38t-88 26.5t-88 28.5t-68 44t-27 73q0 42 30 72.5t85 45.5q-25 7 -46.5 19.5t-37 28.5
t-24.5 34.5t-9 36.5zM409 311q0 24 -15.5 45.5t-42.5 37.5t-62.5 25.5t-74.5 9.5q-29 0 -55 -7.5t-45.5 -20.5t-31 -30t-11.5 -36q0 -24 15.5 -45t42.5 -37t63 -25t77 -9q29 0 54.5 7t44.5 19.5t30 29.5t11 36z" />
    <glyph glyph-name="dieresis" unicode="&#xa8;" horiz-adv-x="300" 
d="M80 650q11 0 18 -7t7 -18t-7 -18t-18 -7t-18 7t-7 18t7 18t18 7zM220 650q11 0 18 -7t7 -18t-7 -18t-18 -7t-18 7t-7 18t7 18t18 7z" />
    <glyph glyph-name="copyright" unicode="&#xa9;" horiz-adv-x="800" 
d="M73 349q0 -68 25.5 -128t70 -104.5t104 -70.5t127.5 -26t127.5 25.5t104 70t70 104.5t25.5 129q0 68 -25.5 128t-70 104.5t-104 70t-127.5 25.5t-127.5 -26t-104 -70.5t-70 -104t-25.5 -127.5zM45 348q0 73 28 138t76.5 113.5t113.5 76.5t138 28t137.5 -28t112.5 -76.5
t76 -113t28 -137.5t-28 -138t-76 -113t-112.5 -76t-137.5 -28t-138 28t-113.5 76t-76.5 112.5t-28 137.5zM516 465q-24 24 -54.5 37t-62.5 13q-33 0 -62.5 -13.5t-51.5 -36t-35 -53t-13 -64.5t13 -64t35 -52.5t51.5 -35.5t62.5 -13q64 0 116 49l19 -19q-29 -29 -64.5 -44
t-73.5 -15q-39 0 -73.5 15.5t-60.5 41.5t-41 61.5t-15 75.5q0 41 15.5 76.5t41.5 62t61.5 42t74.5 15.5q75 0 137 -59z" />
    <glyph glyph-name="ordfeminine" unicode="&#xaa;" horiz-adv-x="400" 
d="M182 681q-24 0 -44.5 -9t-35.5 -25.5t-24 -38t-9 -47.5q0 -25 9 -47.5t25 -39t37 -26t45 -9.5q25 0 46.5 9.5t37 26t24.5 38.5t9 48t-9.5 47.5t-25.5 38t-38 25.5t-47 9zM326 422h-24v57q-20 -30 -51 -46.5t-67 -16.5q-28 0 -53.5 11.5t-45 31t-30.5 46t-11 56.5t11 56
t29.5 46t44 31.5t53.5 11.5q35 0 67.5 -17.5t52.5 -46.5v58h24v-278z" />
    <glyph glyph-name="guillemotleft" unicode="&#xab;" horiz-adv-x="491" 
d="M90 250l151 -182l-27 -13l-163 195l164 194l27 -12zM284 250l151 -182l-27 -13l-163 195l164 194l27 -12z" />
    <glyph glyph-name="logicalnot" unicode="&#xac;" horiz-adv-x="555" 
d="M494 213h-30v188h-403v30h433v-218z" />
    <glyph glyph-name="registered" unicode="&#xae;" horiz-adv-x="635" 
d="M245 433h83q29 0 48.5 17.5t19.5 41.5q0 26 -19.5 43t-48.5 17h-83v-119zM216 580h112q42 0 69.5 -25t27.5 -63q0 -37 -27.5 -61.5t-69.5 -24.5h-10l103 -117h-40l-104 117h-32v-117h-29v291zM68 435q0 -51 19.5 -96.5t53.5 -79.5t79.5 -53.5t96.5 -19.5t96.5 19.5
t79.5 53.5t53.5 79.5t19.5 96.5t-19.5 96t-53.5 79t-79.5 53.5t-96.5 19.5t-96.5 -19.5t-79.5 -53.5t-53.5 -79t-19.5 -96zM42 435q0 57 21.5 107t59 87t87.5 58.5t107 21.5t107.5 -21.5t88 -58.5t59 -87t21.5 -107t-21.5 -107t-59 -87.5t-88 -59.5t-107.5 -22t-107 22
t-87.5 59.5t-59 87.5t-21.5 107z" />
    <glyph glyph-name="macron" unicode="&#xaf;" horiz-adv-x="482" 
d="M362 655v-25h-242v25h242z" />
    <glyph glyph-name="degree" unicode="&#xb0;" horiz-adv-x="300" 
d="M45 603q0 21 8 39.5t22 32.5t32.5 22t39.5 8t39.5 -8t33 -22t22.5 -32.5t8 -39.5t-8 -40t-22.5 -33t-33 -22t-39.5 -8t-39.5 8t-32.5 22t-22 33t-8 40zM68 603q0 -33 23 -56.5t56 -23.5t56.5 23.5t23.5 56.5t-23.5 56t-56.5 23t-56 -23t-23 -56z" />
    <glyph glyph-name="plusminus" unicode="&#xb1;" horiz-adv-x="500" 
d="M411 457h-148v-148h-25v148h-149v25h149v148h25v-148h148v-25zM411 200v-25h-322v25h322z" />
    <glyph glyph-name="twosuperior" unicode="&#xb2;" horiz-adv-x="271" 
d="M47 446l128 107q14 12 23.5 28t9.5 35q0 31 -22 49t-51 18q-26 0 -45.5 -14t-30.5 -37l-19 15q14 27 39.5 43.5t55.5 16.5q19 0 36.5 -7t31 -19t21.5 -28.5t8 -36.5q0 -26 -9 -42t-28 -33l-112 -96h148v-24h-184v25z" />
    <glyph glyph-name="threesuperior" unicode="&#xb3;" horiz-adv-x="261" 
d="M230 678l-74 -77q33 -4 56 -28.5t23 -59.5q0 -38 -27.5 -64.5t-69.5 -26.5q-32 0 -57.5 15t-39.5 42l20 11q11 -21 31.5 -33t45.5 -12q32 0 53 20t21 49t-22.5 48.5t-54.5 19.5h-9l-6 14l77 81h-149v23h182v-22z" />
    <glyph glyph-name="acute" unicode="&#xb4;" horiz-adv-x="200" 
d="M152 686l39 -12l-68 -94h-25z" />
    <glyph glyph-name="mu" unicode="&#xb5;" horiz-adv-x="598" 
d="M289 -11q-57 0 -103 26t-73 69v-294h-30v709h30v-311q0 -33 12.5 -63.5t36 -54t56 -37.5t72.5 -14q33 0 68 13t63.5 38t46.5 61.5t18 83.5v284h30v-499h-30v102q-15 -27 -38 -48t-49.5 -35.5t-55 -22t-54.5 -7.5z" />
    <glyph glyph-name="paragraph" unicode="&#xb6;" horiz-adv-x="552" 
d="M494 -54h-30v725h-188v-725h-30v431h-50q-30 0 -57.5 13t-48.5 35.5t-33.5 51.5t-12.5 61t12.5 61.5t33.5 52t48.5 36t57.5 13.5h298v-755z" />
    <glyph glyph-name="periodcentered" unicode="&#xb7;" horiz-adv-x="226" 
d="M82 244q0 12 9.5 21.5t22.5 9.5q12 0 21.5 -9.5t9.5 -21.5q0 -13 -9.5 -22.5t-21.5 -9.5q-13 0 -22.5 9.5t-9.5 22.5z" />
    <glyph glyph-name="cedilla" unicode="&#xb8;" horiz-adv-x="200" 
d="M95 -55q5 1 14 1q28 0 43.5 -14.5t15.5 -37.5q0 -29 -22.5 -48.5t-53.5 -19.5q-17 0 -33.5 7t-34.5 24l8 25q10 -13 28 -22.5t36 -9.5q20 0 34 11.5t14 28.5q0 15 -11 23.5t-26 8.5t-26 -7l-16 12l24 73h25z" />
    <glyph glyph-name="onesuperior" unicode="&#xb9;" horiz-adv-x="195" 
d="M132 700v-270h-23v241l-52 -43l-7 24l57 48h25z" />
    <glyph glyph-name="ordmasculine" unicode="&#xba;" horiz-adv-x="400" 
d="M321 562q0 25 -9.5 46.5t-26 38t-38.5 26t-47 9.5t-47 -9.5t-38 -26t-25.5 -38t-9.5 -46.5t9.5 -47t25.5 -38.5t38 -26t47 -9.5q26 0 48 9.5t38 25.5t25.5 38.5t9.5 47.5zM57 562q0 29 11.5 55t31 45.5t45.5 31t55 11.5q30 0 56 -11t45.5 -30.5t30.5 -45.5t11 -56
t-11 -56t-30.5 -45.5t-45.5 -30.5t-56 -11q-29 0 -55 11t-45.5 30.5t-31 45.5t-11.5 56z" />
    <glyph glyph-name="guillemotright" unicode="&#xbb;" horiz-adv-x="491" 
d="M247 432l27 12l164 -194l-163 -195l-27 13l151 182zM53 432l27 12l164 -194l-163 -195l-27 13l151 182z" />
    <glyph glyph-name="onequarter" unicode="&#xbc;" horiz-adv-x="720" 
d="M159 699v-392h-26v363l-79 -65l-9 26l84 68h30zM402 110h191v250zM372 112l215 282h32v-284h52l-8 -25h-44v-84h-26v84h-221v27zM563 700l-404 -699h-32l404 699h32z" />
    <glyph glyph-name="onehalf" unicode="&#xbd;" horiz-adv-x="770" 
d="M159 699v-392h-26v363l-79 -65l-9 26l84 68h30zM483 31l177 152q22 19 38 40.5t16 50.5q0 22 -9 40.5t-24.5 31.5t-35.5 20t-42 7q-35 0 -65 -20t-44 -54l-21 15q17 39 53 61.5t78 22.5q27 0 51.5 -9t43 -25.5t29.5 -39t11 -49.5q0 -34 -16.5 -60t-42.5 -47l-165 -142
h222v-25h-254v30zM563 700l-404 -699h-32l404 699h32z" />
    <glyph glyph-name="threequarters" unicode="&#xbe;" horiz-adv-x="749" 
d="M305 672l-114 -115q26 -1 48 -11.5t38.5 -27.5t25.5 -39t9 -47q0 -27 -10.5 -50.5t-29.5 -41.5t-44.5 -28t-54.5 -10q-43 0 -80 21.5t-54 57.5l21 13q15 -32 45.5 -49.5t65.5 -17.5q25 0 46.5 8.5t37 23t24.5 34t9 40.5q0 43 -33.5 71.5t-84.5 28.5h-13l-6 18l122 124
h-225v25h257v-28zM445 110h191v250zM415 112l215 282h32v-284h52l-8 -25h-44v-84h-26v84h-221v27zM626 700l-404 -699h-32l404 699h32z" />
    <glyph glyph-name="questiondown" unicode="&#xbf;" horiz-adv-x="500" 
d="M304.012 366.009v-175.989q-36.998 -14.999 -76.9961 -29.998q-39.9971 -14.999 -73.4951 -37.498t-55.4971 -55.4971q-21.998 -32.9971 -21.998 -81.9941q0 -73.9961 46.9971 -116.993t131.992 -42.9971q55.9961 0 96.4941 21.498q40.4971 21.499 70.4951 68.4961
l24.999 -15.999q-32.998 -53.9971 -79.4951 -78.9951q-46.498 -24.999 -110.494 -24.999q-98.9932 0 -154.99 51.4971q-55.9961 51.4971 -55.9961 142.491q0 36.998 11.499 67.4961t38.4971 56.9971q26.999 26.498 70.4961 50.4961q43.4971 23.999 107.493 47.9971v153.991
h29.999zM288.012 448.004q-12.999 0 -21.998 8.99902q-9 8.99902 -9 22.999q0 12.999 9 22.498q8.99902 9.5 21.998 9.5q13 0 22.499 -9.5q9.49902 -9.49902 9.49902 -22.498q0 -14 -9.49902 -22.999t-22.499 -8.99902z" />
    <glyph glyph-name="Agrave" unicode="&#xc0;" horiz-adv-x="650" 
d="M327 677l-161 -407h322zM351 700l277 -700h-33l-95 240h-346l-95 -240h-33l277 700h48zM303 780l-68 94l38 12l55 -106h-25z" />
    <glyph glyph-name="Aacute" unicode="&#xc1;" horiz-adv-x="653" 
d="M327 677l-161 -407h322zM351 700l277 -700h-33l-95 240h-346l-95 -240h-33l277 700h48zM381 886l39 -12l-68 -94h-25z" />
    <glyph glyph-name="Acircumflex" unicode="&#xc2;" horiz-adv-x="675" 
d="M338 677l-161 -407h322zM362 700l277 -700h-33l-95 240h-346l-95 -240h-33l277 700h48zM355 870l104 -110h-28l-93 87l-94 -87h-28l104 110h35z" />
    <glyph glyph-name="Atilde" unicode="&#xc3;" horiz-adv-x="653" 
d="M327 677l-161 -407h322zM351 700l277 -700h-33l-95 240h-346l-95 -240h-33l277 700h48zM189 812q3 42 23 68t51 26q21 0 38 -12t32 -26t29.5 -26t31.5 -12q41 0 50 71l21 -2q-3 -43 -22.5 -67.5t-48.5 -24.5q-21 0 -38 12t-32 26t-29.5 26t-31.5 12q-22 0 -36 -19.5
t-17 -53.5z" />
    <glyph glyph-name="Adieresis" unicode="&#xc4;" horiz-adv-x="675" 
d="M338 677l-161 -407h322zM362 700l277 -700h-33l-95 240h-346l-95 -240h-33l277 700h48zM268 830q11 0 18 -7t7 -18t-7 -18t-18 -7t-18 7t-7 18t7 18t18 7zM408 830q11 0 18 -7t7 -18t-7 -18t-18 -7t-18 7t-7 18t7 18t18 7z" />
    <glyph glyph-name="Aring" unicode="&#xc5;" horiz-adv-x="653" 
d="M327 677l-161 -407h322zM351 700l277 -700h-33l-95 240h-346l-95 -240h-33l277 700h48zM327 929q32 0 54.5 -22t22.5 -54q-1 -33 -23 -55t-54 -22t-54 22.5t-22 54.5q-1 32 21.5 54t54.5 22zM327 905q-21 0 -36.5 -15.5t-15.5 -36.5t15.5 -36.5t36.5 -15.5t36.5 15.5
t15.5 36.5t-15.5 36.5t-36.5 15.5z" />
    <glyph glyph-name="AE" unicode="&#xc6;" horiz-adv-x="940" 
d="M232 276h229v395zM461 0v246h-246l-142 -246h-34l404 701h457v-30h-409v-270h355v-30h-355v-341h409v-30h-439z" />
    <glyph glyph-name="Ccedilla" unicode="&#xc7;" horiz-adv-x="662" 
d="M395 18q55 0 109 21.5t94 58.5l21 -21q-41 -39 -95.5 -62t-114.5 -26l-15 -44q5 1 14 1q28 0 43.5 -14.5t15.5 -37.5q0 -29 -22.5 -48.5t-53.5 -19.5q-17 0 -33.5 7t-34.5 24l8 25q10 -13 28 -22.5t36 -9.5q20 0 34 11.5t14 28.5q0 15 -11 23.5t-26 8.5t-26 -7l-16 12
l20 62q-69 0 -129.5 29.5t-106 79.5t-72 115.5t-26.5 138.5t28 138t75 114t109.5 78t132.5 29q63 0 122 -23t101 -64l-21 -21q-19 18 -43 32.5t-50.5 25t-54.5 16t-54 5.5q-65 0 -122.5 -26t-100 -71t-67.5 -105t-25 -128q0 -69 25 -129.5t68 -106t100.5 -72t121.5 -26.5z
" />
    <glyph glyph-name="Egrave" unicode="&#xc8;" horiz-adv-x="575" 
d="M76 0v699h444v-30h-414v-267h364v-30h-364v-342h414v-30h-444zM294 780l-68 94l38 12l55 -106h-25z" />
    <glyph glyph-name="Eacute" unicode="&#xc9;" horiz-adv-x="575" 
d="M76 0v699h444v-30h-414v-267h364v-30h-364v-342h414v-30h-444zM328 886l39 -12l-68 -94h-25z" />
    <glyph glyph-name="Ecircumflex" unicode="&#xca;" horiz-adv-x="575" 
d="M74 0v699h444v-30h-414v-267h364v-30h-364v-342h414v-30h-444zM305 890l104 -110h-28l-93 87l-94 -87h-28l104 110h35z" />
    <glyph glyph-name="Edieresis" unicode="&#xcb;" horiz-adv-x="575" 
d="M76 0v699h444v-30h-414v-267h364v-30h-364v-342h414v-30h-444zM215 850q11 0 18 -7t7 -18t-7 -18t-18 -7t-18 7t-7 18t7 18t18 7zM355 850q11 0 18 -7t7 -18t-7 -18t-18 -7t-18 7t-7 18t7 18t18 7z" />
    <glyph glyph-name="Igrave" unicode="&#xcc;" horiz-adv-x="231" 
d="M131 700v-700h-30v700h30zM106 780l-68 94l38 12l55 -106h-25z" />
    <glyph glyph-name="Iacute" unicode="&#xcd;" horiz-adv-x="231" 
d="M131 700v-700h-30v700h30zM166 886l39 -12l-68 -94h-25z" />
    <glyph glyph-name="Icircumflex" unicode="&#xce;" horiz-adv-x="231" 
d="M131 700v-700h-30v700h30zM133 890l104 -110h-28l-93 87l-94 -87h-28l104 110h35z" />
    <glyph glyph-name="Idieresis" unicode="&#xcf;" horiz-adv-x="231" 
d="M131 700v-700h-30v700h30zM43 850q11 0 18 -7t7 -18t-7 -18t-18 -7t-18 7t-7 18t7 18t18 7zM183 850q11 0 18 -7t7 -18t-7 -18t-18 -7t-18 7t-7 18t7 18t18 7z" />
    <glyph glyph-name="Eth" unicode="&#xd0;" horiz-adv-x="729" 
d="M680 349q0 -73 -26.5 -136.5t-75.5 -111t-117.5 -74.5t-152.5 -27h-205v283h-50v30h50v389h205q84 0 152.5 -27.5t117 -75.5t75.5 -112.5t27 -137.5zM650 350q0 67 -24.5 126t-69.5 102.5t-108 68.5t-140 25h-175v-359h169v-30h-169v-253h175q78 0 141 24.5t107.5 68
t69 102t24.5 125.5z" />
    <glyph glyph-name="Ntilde" unicode="&#xd1;" horiz-adv-x="771" 
d="M619 0l-503 671v-671h-30v700h46l503 -671v671h30v-700h-46zM248 812q3 42 23 68t51 26q21 0 38 -12t32 -26t29.5 -26t31.5 -12q41 0 50 71l21 -2q-3 -43 -22.5 -67.5t-48.5 -24.5q-21 0 -38 12t-32 26t-29.5 26t-31.5 12q-22 0 -36 -19.5t-17 -53.5z" />
    <glyph glyph-name="Ograve" unicode="&#xd2;" horiz-adv-x="782" 
d="M705 350q0 69 -24.5 129.5t-67 105t-100 70.5t-122.5 26t-122 -26t-100 -71t-67.5 -105t-24.5 -129q0 -68 25 -128.5t67.5 -105.5t100 -71t122.5 -26t122 26t99.5 71t67 105t24.5 129zM47 349q0 75 27 141t74 115t109.5 77.5t134.5 28.5q71 0 133.5 -28.5t109 -77
t73.5 -114.5t27 -141t-27 -141t-73.5 -114.5t-109 -77t-133.5 -28.5q-72 0 -134.5 28t-109.5 77t-74 114.5t-27 140.5zM369 780l-68 94l38 12l55 -106h-25z" />
    <glyph glyph-name="Oacute" unicode="&#xd3;" horiz-adv-x="782" 
d="M705 350q0 69 -24.5 129.5t-67 105t-100 70.5t-122.5 26t-122 -26t-100 -71t-67.5 -105t-24.5 -129q0 -68 25 -128.5t67.5 -105.5t100 -71t122.5 -26t122 26t99.5 71t67 105t24.5 129zM47 349q0 75 27 141t74 115t109.5 77.5t134.5 28.5q71 0 133.5 -28.5t109 -77
t73.5 -114.5t27 -141t-27 -141t-73.5 -114.5t-109 -77t-133.5 -28.5q-72 0 -134.5 28t-109.5 77t-74 114.5t-27 140.5zM399 866l39 -12l-68 -94h-25z" />
    <glyph glyph-name="Ocircumflex" unicode="&#xd4;" horiz-adv-x="782" 
d="M705 350q0 69 -24.5 129.5t-67 105t-100 70.5t-122.5 26t-122 -26t-100 -71t-67.5 -105t-24.5 -129q0 -68 25 -128.5t67.5 -105.5t100 -71t122.5 -26t122 26t99.5 71t67 105t24.5 129zM47 349q0 75 27 141t74 115t109.5 77.5t134.5 28.5q71 0 133.5 -28.5t109 -77
t73.5 -114.5t27 -141t-27 -141t-73.5 -114.5t-109 -77t-133.5 -28.5q-72 0 -134.5 28t-109.5 77t-74 114.5t-27 140.5zM409 890l104 -110h-28l-93 87l-94 -87h-28l104 110h35z" />
    <glyph glyph-name="Otilde" unicode="&#xd5;" horiz-adv-x="782" 
d="M705 350q0 69 -24.5 129.5t-67 105t-100 70.5t-122.5 26t-122 -26t-100 -71t-67.5 -105t-24.5 -129q0 -68 25 -128.5t67.5 -105.5t100 -71t122.5 -26t122 26t99.5 71t67 105t24.5 129zM47 349q0 75 27 141t74 115t109.5 77.5t134.5 28.5q71 0 133.5 -28.5t109 -77
t73.5 -114.5t27 -141t-27 -141t-73.5 -114.5t-109 -77t-133.5 -28.5q-72 0 -134.5 28t-109.5 77t-74 114.5t-27 140.5zM254 812q3 42 23 68t51 26q21 0 38 -12t32 -26t29.5 -26t31.5 -12q41 0 50 71l21 -2q-3 -43 -22.5 -67.5t-48.5 -24.5q-21 0 -38 12t-32 26t-29.5 26
t-31.5 12q-22 0 -36 -19.5t-17 -53.5z" />
    <glyph glyph-name="Odieresis" unicode="&#xd6;" horiz-adv-x="782" 
d="M705 350q0 69 -24.5 129.5t-67 105t-100 70.5t-122.5 26t-122 -26t-100 -71t-67.5 -105t-24.5 -129q0 -68 25 -128.5t67.5 -105.5t100 -71t122.5 -26t122 26t99.5 71t67 105t24.5 129zM47 349q0 75 27 141t74 115t109.5 77.5t134.5 28.5q71 0 133.5 -28.5t109 -77
t73.5 -114.5t27 -141t-27 -141t-73.5 -114.5t-109 -77t-133.5 -28.5q-72 0 -134.5 28t-109.5 77t-74 114.5t-27 140.5zM319 850q11 0 18 -7t7 -18t-7 -18t-18 -7t-18 7t-7 18t7 18t18 7zM459 850q11 0 18 -7t7 -18t-7 -18t-18 -7t-18 7t-7 18t7 18t18 7z" />
    <glyph glyph-name="multiply" unicode="&#xd7;" horiz-adv-x="530" 
d="M114 524l150 -150l149 150l22 -22l-149 -150l152 -152l-22 -22l-152 152l-150 -150l-22 22l150 150l-150 150z" />
    <glyph glyph-name="Oslash" unicode="&#xd8;" horiz-adv-x="782" 
d="M233 29q-42 23 -76 56t-58.5 74t-38 89.5t-13.5 100.5q0 75 27 141t74 115t109.5 77.5t134.5 28.5q35 0 68 -7t63 -20l31 69h33l-37 -82q41 -23 75 -56.5t58.5 -74.5t38 -89t13.5 -101q0 -75 -27 -141t-73.5 -114.5t-109 -77t-133.5 -28.5q-35 0 -68 7t-64 20l-31 -70
h-33zM77 350q0 -48 12 -91.5t34.5 -81.5t53.5 -68.5t68 -51.5l266 599q-58 25 -120 25q-65 0 -122 -26t-100 -71t-67.5 -105t-24.5 -129zM392 19q65 0 122 26t99.5 71t67 105t24.5 129q0 97 -46 174t-121 119l-266 -599q58 -25 120 -25z" />
    <glyph glyph-name="Ugrave" unicode="&#xd9;" horiz-adv-x="741" 
d="M84 700h30v-456q0 -46 20.5 -87.5t56 -72t82.5 -48.5t101 -18q53 0 99.5 17.5t80.5 48t53.5 72t19.5 88.5v456h30v-456q0 -53 -22 -99.5t-60.5 -81t-90 -54.5t-110.5 -20q-58 0 -111 20.5t-92.5 55.5t-63 81t-23.5 98v456zM365 780l-68 94l38 12l55 -106h-25z" />
    <glyph glyph-name="Uacute" unicode="&#xda;" horiz-adv-x="741" 
d="M84 700h30v-456q0 -46 20.5 -87.5t56 -72t82.5 -48.5t101 -18q53 0 99.5 17.5t80.5 48t53.5 72t19.5 88.5v456h30v-456q0 -53 -22 -99.5t-60.5 -81t-90 -54.5t-110.5 -20q-58 0 -111 20.5t-92.5 55.5t-63 81t-23.5 98v456zM422 886l39 -12l-68 -94h-25z" />
    <glyph glyph-name="Ucircumflex" unicode="&#xdb;" horiz-adv-x="741" 
d="M84 700h30v-456q0 -46 20.5 -87.5t56 -72t82.5 -48.5t101 -18q53 0 99.5 17.5t80.5 48t53.5 72t19.5 88.5v456h30v-456q0 -53 -22 -99.5t-60.5 -81t-90 -54.5t-110.5 -20q-58 0 -111 20.5t-92.5 55.5t-63 81t-23.5 98v456zM388 890l104 -110h-28l-93 87l-94 -87h-28
l104 110h35z" />
    <glyph glyph-name="Udieresis" unicode="&#xdc;" horiz-adv-x="741" 
d="M84 700h30v-456q0 -46 20.5 -87.5t56 -72t82.5 -48.5t101 -18q53 0 99.5 17.5t80.5 48t53.5 72t19.5 88.5v456h30v-456q0 -53 -22 -99.5t-60.5 -81t-90 -54.5t-110.5 -20q-58 0 -111 20.5t-92.5 55.5t-63 81t-23.5 98v456zM298 850q11 0 18 -7t7 -18t-7 -18t-18 -7t-18 7
t-7 18t7 18t18 7zM438 850q11 0 18 -7t7 -18t-7 -18t-18 -7t-18 7t-7 18t7 18t18 7z" />
    <glyph glyph-name="Yacute" unicode="&#xdd;" horiz-adv-x="595" 
d="M34 700h35l227 -369l231 369h35l-251 -400v-300h-30v300zM348 886l39 -12l-68 -94h-25z" />
    <glyph glyph-name="Thorn" unicode="&#xde;" horiz-adv-x="584" 
d="M539 348q0 -45 -19 -83t-53 -66t-80.5 -44t-101.5 -16h-178v-139h-30v701h30v-140h176q54 0 101 -16.5t81.5 -45t54 -67.5t19.5 -84zM509 348q0 40 -17 73.5t-47 58t-71.5 38t-90.5 13.5h-176v-362h178q49 0 90 13.5t71 37t46.5 56.5t16.5 72z" />
    <glyph glyph-name="germandbls" unicode="&#xdf;" horiz-adv-x="569" 
d="M453 541q0 35 -13.5 64t-37 50t-56.5 33t-72 12q-77 0 -120.5 -41.5t-43.5 -114.5v-544h-30v547q0 41 14 75t39.5 58t61 37t79.5 13q46 0 84.5 -14t66 -39t43 -60t15.5 -77q0 -23 -9 -46.5t-25.5 -45.5t-40 -40.5t-51.5 -31.5q78 -31 119 -78.5t41 -105.5
q0 -41 -19 -76.5t-52 -61t-78.5 -40t-99.5 -14.5h-28v30h28q47 0 87.5 12t69.5 33.5t45.5 51t16.5 64.5q0 32 -18 62t-47.5 53.5t-67.5 38t-78 14.5h-46v30h47q32 0 63.5 13.5t56.5 35t40.5 48.5t15.5 55z" />
    <glyph glyph-name="agrave" unicode="&#xe0;" horiz-adv-x="649" 
d="M308 501q-49 0 -92 -19t-75 -52t-51 -77t-19 -94q0 -49 19 -93t51 -76.5t75 -51.5t92 -19t92 19t75.5 51.5t51 76.5t18.5 94t-18.5 93.5t-51 76.5t-75.5 52t-92 19zM575 0h-32v134q-34 -67 -96.5 -105.5t-135.5 -38.5q-56 0 -105.5 21t-86 58t-58 86t-21.5 104
q0 56 21.5 105.5t58.5 86t86.5 58t104.5 21.5q36 0 70.5 -10t64.5 -29t55 -46t42 -60v134h32v-519zM297 580l-68 94l38 12l55 -106h-25z" />
    <glyph glyph-name="aacute" unicode="&#xe1;" horiz-adv-x="650" 
d="M308 501q-49 0 -92 -19t-75 -52t-51 -77t-19 -94q0 -49 19 -93t51 -76.5t75 -51.5t92 -19t92 19t75.5 51.5t51 76.5t18.5 94t-18.5 93.5t-51 76.5t-75.5 52t-92 19zM575 0h-32v134q-34 -67 -96.5 -105.5t-135.5 -38.5q-56 0 -105.5 21t-86 58t-58 86t-21.5 104
q0 56 21.5 105.5t58.5 86t86.5 58t104.5 21.5q36 0 70.5 -10t64.5 -29t55 -46t42 -60v134h32v-519zM349 686l39 -12l-68 -94h-25z" />
    <glyph glyph-name="acircumflex" unicode="&#xe2;" horiz-adv-x="650" 
d="M308 501q-49 0 -92 -19t-75 -52t-51 -77t-19 -94q0 -49 19 -93t51 -76.5t75 -51.5t92 -19t92 19t75.5 51.5t51 76.5t18.5 94t-18.5 93.5t-51 76.5t-75.5 52t-92 19zM575 0h-32v134q-34 -67 -96.5 -105.5t-135.5 -38.5q-56 0 -105.5 21t-86 58t-58 86t-21.5 104
q0 56 21.5 105.5t58.5 86t86.5 58t104.5 21.5q36 0 70.5 -10t64.5 -29t55 -46t42 -60v134h32v-519zM331 690l104 -110h-28l-93 87l-94 -87h-28l104 110h35z" />
    <glyph glyph-name="atilde" unicode="&#xe3;" horiz-adv-x="650" 
d="M308 501q-49 0 -92 -19t-75 -52t-51 -77t-19 -94q0 -49 19 -93t51 -76.5t75 -51.5t92 -19t92 19t75.5 51.5t51 76.5t18.5 94t-18.5 93.5t-51 76.5t-75.5 52t-92 19zM575 0h-32v134q-34 -67 -96.5 -105.5t-135.5 -38.5q-56 0 -105.5 21t-86 58t-58 86t-21.5 104
q0 56 21.5 105.5t58.5 86t86.5 58t104.5 21.5q36 0 70.5 -10t64.5 -29t55 -46t42 -60v134h32v-519zM176 612q3 42 23 68t51 26q21 0 38 -12t32 -26t29.5 -26t31.5 -12q41 0 50 71l21 -2q-3 -43 -22.5 -67.5t-48.5 -24.5q-21 0 -38 12t-32 26t-29.5 26t-31.5 12
q-22 0 -36 -19.5t-17 -53.5z" />
    <glyph glyph-name="adieresis" unicode="&#xe4;" horiz-adv-x="650" 
d="M308 501q-49 0 -92 -19t-75 -52t-51 -77t-19 -94q0 -49 19 -93t51 -76.5t75 -51.5t92 -19t92 19t75.5 51.5t51 76.5t18.5 94t-18.5 93.5t-51 76.5t-75.5 52t-92 19zM575 0h-32v134q-34 -67 -96.5 -105.5t-135.5 -38.5q-56 0 -105.5 21t-86 58t-58 86t-21.5 104
q0 56 21.5 105.5t58.5 86t86.5 58t104.5 21.5q36 0 70.5 -10t64.5 -29t55 -46t42 -60v134h32v-519zM241 650q11 0 18 -7t7 -18t-7 -18t-18 -7t-18 7t-7 18t7 18t18 7zM381 650q11 0 18 -7t7 -18t-7 -18t-18 -7t-18 7t-7 18t7 18t18 7z" />
    <glyph glyph-name="aring" unicode="&#xe5;" horiz-adv-x="650" 
d="M308 501q-49 0 -92 -19t-75 -52t-51 -77t-19 -94q0 -49 19 -93t51 -76.5t75 -51.5t92 -19t92 19t75.5 51.5t51 76.5t18.5 94t-18.5 93.5t-51 76.5t-75.5 52t-92 19zM575 0h-32v134q-34 -67 -96.5 -105.5t-135.5 -38.5q-56 0 -105.5 21t-86 58t-58 86t-21.5 104
q0 56 21.5 105.5t58.5 86t86.5 58t104.5 21.5q36 0 70.5 -10t64.5 -29t55 -46t42 -60v134h32v-519zM313 737q32 0 54.5 -22t22.5 -54q-1 -33 -23 -55t-54 -22t-54 22.5t-22 54.5q-1 32 21.5 54t54.5 22zM313 713q-21 0 -36.5 -15.5t-15.5 -36.5t15.5 -36.5t36.5 -15.5
t36.5 15.5t15.5 36.5t-15.5 36.5t-36.5 15.5z" />
    <glyph glyph-name="ae" unicode="&#xe6;" horiz-adv-x="1140" 
d="M323 533q73 0 135.5 -38.5t97.5 -105.5v130h32v-134q33 66 97.5 105.5t144.5 39.5q58 0 107 -22t85 -60t56.5 -89.5t20.5 -111.5h-510q2 -49 22.5 -91t53 -73t75 -48t89.5 -17q50 0 95.5 19.5t79.5 56.5l21 -22q-38 -40 -89 -61.5t-108 -21.5q-39 0 -75.5 10.5t-67.5 30
t-55.5 46t-41.5 59.5v-135h-32v130q-40 -68 -100.5 -105.5t-132.5 -37.5q-55 0 -104.5 21.5t-87 59t-59 87t-21.5 104.5q0 56 21.5 105.5t59 87t87 59.5t104.5 22zM557 260q0 50 -18.5 94t-51 77t-75.5 52.5t-91 19.5q-49 0 -92.5 -19.5t-76 -53t-51.5 -77.5t-19 -94
q0 -49 19 -93t51.5 -77t76 -52.5t92.5 -19.5q48 0 91 19t75.5 52t51 77.5t18.5 94.5zM828 501q-48 0 -89.5 -16.5t-73 -46.5t-51.5 -71t-25 -91h478q-3 50 -23 91.5t-52 71t-74 46t-90 16.5z" />
    <glyph glyph-name="ccedilla" unicode="&#xe7;" horiz-adv-x="530" 
d="M316 531q51 0 97.5 -17t80.5 -49l-22 -22q-30 29 -70 44t-85 15q-49 0 -92.5 -19t-75.5 -52t-51 -77t-19 -94t19 -94t52 -77t77 -52t94 -19q45 0 83 15t69 44l22 -21q-32 -30 -74 -47.5t-89 -19.5l-15 -44q5 1 14 1q28 0 43.5 -14.5t15.5 -37.5q0 -29 -22.5 -48.5
t-53.5 -19.5q-34 0 -67 30l7 26q11 -13 28.5 -22.5t35.5 -9.5q20 0 34 11.5t14 28.5q0 15 -11 23.5t-26 8.5t-26 -7l-16 12l20 62q-54 3 -101.5 25.5t-82.5 59t-55.5 84.5t-20.5 102q0 55 21 104.5t57.5 86.5t85.5 58.5t105 21.5z" />
    <glyph glyph-name="egrave" unicode="&#xe8;" 
d="M550 276q-4 49 -23.5 90.5t-51 71.5t-73.5 46.5t-90 16.5t-89.5 -16.5t-73.5 -46t-52.5 -71t-25.5 -91.5h479zM508 72q-38 -40 -89 -61.5t-107 -21.5q-57 0 -106.5 21.5t-86 58t-58 86t-21.5 106.5q0 56 21.5 105t58 85.5t86.5 57.5t107 21q58 0 107.5 -21.5t85.5 -60
t56.5 -90t19.5 -111.5h-511q3 -48 23 -90t52 -72.5t74.5 -48.5t89.5 -18q51 0 97.5 20t78.5 56zM291 580l-68 94l38 12l55 -106h-25z" />
    <glyph glyph-name="eacute" unicode="&#xe9;" 
d="M550 276q-4 49 -23.5 90.5t-51 71.5t-73.5 46.5t-90 16.5t-89.5 -16.5t-73.5 -46t-52.5 -71t-25.5 -91.5h479zM508 72q-38 -40 -89 -61.5t-107 -21.5q-57 0 -106.5 21.5t-86 58t-58 86t-21.5 106.5q0 56 21.5 105t58 85.5t86.5 57.5t107 21q58 0 107.5 -21.5t85.5 -60
t56.5 -90t19.5 -111.5h-511q3 -48 23 -90t52 -72.5t74.5 -48.5t89.5 -18q51 0 97.5 20t78.5 56zM341 686l39 -12l-68 -94h-25z" />
    <glyph glyph-name="ecircumflex" unicode="&#xea;" 
d="M550 276q-4 49 -23.5 90.5t-51 71.5t-73.5 46.5t-90 16.5t-89.5 -16.5t-73.5 -46t-52.5 -71t-25.5 -91.5h479zM508 72q-38 -40 -89 -61.5t-107 -21.5q-57 0 -106.5 21.5t-86 58t-58 86t-21.5 106.5q0 56 21.5 105t58 85.5t86.5 57.5t107 21q58 0 107.5 -21.5t85.5 -60
t56.5 -90t19.5 -111.5h-511q3 -48 23 -90t52 -72.5t74.5 -48.5t89.5 -18q51 0 97.5 20t78.5 56zM328 690l104 -110h-28l-93 87l-94 -87h-28l104 110h35z" />
    <glyph glyph-name="edieresis" unicode="&#xeb;" 
d="M550 276q-4 49 -23.5 90.5t-51 71.5t-73.5 46.5t-90 16.5t-89.5 -16.5t-73.5 -46t-52.5 -71t-25.5 -91.5h479zM508 72q-38 -40 -89 -61.5t-107 -21.5q-57 0 -106.5 21.5t-86 58t-58 86t-21.5 106.5q0 56 21.5 105t58 85.5t86.5 57.5t107 21q58 0 107.5 -21.5t85.5 -60
t56.5 -90t19.5 -111.5h-511q3 -48 23 -90t52 -72.5t74.5 -48.5t89.5 -18q51 0 97.5 20t78.5 56zM240 650q11 0 18 -7t7 -18t-7 -18t-18 -7t-18 7t-7 18t7 18t18 7zM380 650q11 0 18 -7t7 -18t-7 -18t-18 -7t-18 7t-7 18t7 18t18 7z" />
    <glyph glyph-name="igrave" unicode="&#xec;" horiz-adv-x="214" 
d="M122 520v-520h-30v520h30zM95 580l-68 94l38 12l55 -106h-25z" />
    <glyph glyph-name="iacute" unicode="&#xed;" horiz-adv-x="214" 
d="M122 520v-520h-30v520h30zM149 686l39 -12l-68 -94h-25z" />
    <glyph glyph-name="icircumflex" unicode="&#xee;" horiz-adv-x="214" 
d="M122 520v-520h-30v520h30zM125 690l104 -110h-28l-93 87l-94 -87h-28l104 110h35z" />
    <glyph glyph-name="idieresis" unicode="&#xef;" horiz-adv-x="214" 
d="M122 520v-520h-30v520h30zM37 650q11 0 18 -7t7 -18t-7 -18t-18 -7t-18 7t-7 18t7 18t18 7zM177 650q11 0 18 -7t7 -18t-7 -18t-18 -7t-18 7t-7 18t7 18t18 7z" />
    <glyph glyph-name="eth" unicode="&#xf0;" horiz-adv-x="600" 
d="M301 -10q-54 0 -100.5 19t-80.5 52t-53.5 78.5t-19.5 98.5q3 52 23 95t53.5 74t79 48.5t98.5 17.5q72 0 128.5 -31.5t94.5 -93.5q-8 78 -39 139.5t-85 106.5l-128 -74l-13 23l119 69q-30 21 -65.5 37t-77.5 25l-9 32q104 -18 181 -78l73 42l13 -22l-65 -37
q62 -56 95.5 -135.5t33.5 -177.5q0 -70 -18 -127t-51.5 -97.5t-80.5 -62t-106 -21.5zM520 241q0 43 -17 80t-46.5 64.5t-69 43t-85.5 15.5q-47 0 -88 -16.5t-71.5 -45t-48 -67t-17.5 -82.5q0 -45 17.5 -84t47.5 -68t70.5 -45.5t87.5 -16.5q45 0 85 17.5t70 48t47.5 71
t17.5 85.5z" />
    <glyph glyph-name="ntilde" unicode="&#xf1;" horiz-adv-x="580" 
d="M522 0h-31v323q0 38 -13 70t-36.5 55.5t-56.5 37t-73 13.5q-42 0 -79 -15.5t-65 -42.5t-44.5 -63.5t-16.5 -77.5v-300h-31v519h31v-108q14 27 35.5 48.5t49.5 37.5t60 24.5t66 8.5q44 0 81.5 -16t64.5 -44t42.5 -65.5t15.5 -81.5v-323zM153 612q3 42 23 68t51 26
q21 0 38 -12t32 -26t29.5 -26t31.5 -12q41 0 50 71l21 -2q-3 -43 -22.5 -67.5t-48.5 -24.5q-21 0 -38 12t-32 26t-29.5 26t-31.5 12q-22 0 -36 -19.5t-17 -53.5z" />
    <glyph glyph-name="ograve" unicode="&#xf2;" 
d="M549 259q0 50 -19 94t-51 77t-75.5 52.5t-92.5 19.5t-92.5 -19.5t-76.5 -52.5t-52 -77t-19 -94q0 -49 19 -93t52 -77t76.5 -52t92.5 -19q50 0 93 19t75.5 51.5t51 76.5t18.5 94zM40 259q0 56 21.5 105.5t58 86.5t86 58.5t105.5 21.5t105 -21.5t85.5 -58t57.5 -86
t21 -106.5t-21 -106t-57.5 -85.5t-85.5 -57.5t-105 -21t-105.5 21t-86 58t-58 86t-21.5 105zM297 580l-68 94l38 12l55 -106h-25z" />
    <glyph glyph-name="oacute" unicode="&#xf3;" 
d="M549 259q0 50 -19 94t-51 77t-75.5 52.5t-92.5 19.5t-92.5 -19.5t-76.5 -52.5t-52 -77t-19 -94q0 -49 19 -93t52 -77t76.5 -52t92.5 -19q50 0 93 19t75.5 51.5t51 76.5t18.5 94zM40 259q0 56 21.5 105.5t58 86.5t86 58.5t105.5 21.5t105 -21.5t85.5 -58t57.5 -86
t21 -106.5t-21 -106t-57.5 -85.5t-85.5 -57.5t-105 -21t-105.5 21t-86 58t-58 86t-21.5 105zM349 686l39 -12l-68 -94h-25z" />
    <glyph glyph-name="ocircumflex" unicode="&#xf4;" 
d="M549 259q0 50 -19 94t-51 77t-75.5 52.5t-92.5 19.5t-92.5 -19.5t-76.5 -52.5t-52 -77t-19 -94q0 -49 19 -93t52 -77t76.5 -52t92.5 -19q50 0 93 19t75.5 51.5t51 76.5t18.5 94zM40 259q0 56 21.5 105.5t58 86.5t86 58.5t105.5 21.5t105 -21.5t85.5 -58t57.5 -86
t21 -106.5t-21 -106t-57.5 -85.5t-85.5 -57.5t-105 -21t-105.5 21t-86 58t-58 86t-21.5 105zM328 690l104 -110h-28l-93 87l-94 -87h-28l104 110h35z" />
    <glyph glyph-name="otilde" unicode="&#xf5;" 
d="M549 259q0 50 -19 94t-51 77t-75.5 52.5t-92.5 19.5t-92.5 -19.5t-76.5 -52.5t-52 -77t-19 -94q0 -49 19 -93t52 -77t76.5 -52t92.5 -19q50 0 93 19t75.5 51.5t51 76.5t18.5 94zM40 259q0 56 21.5 105.5t58 86.5t86 58.5t105.5 21.5t105 -21.5t85.5 -58t57.5 -86
t21 -106.5t-21 -106t-57.5 -85.5t-85.5 -57.5t-105 -21t-105.5 21t-86 58t-58 86t-21.5 105zM172 612q3 42 23 68t51 26q21 0 38 -12t32 -26t29.5 -26t31.5 -12q41 0 50 71l21 -2q-3 -43 -22.5 -67.5t-48.5 -24.5q-21 0 -38 12t-32 26t-29.5 26t-31.5 12q-22 0 -36 -19.5
t-17 -53.5z" />
    <glyph glyph-name="odieresis" unicode="&#xf6;" horiz-adv-x="631" 
d="M549 259q0 50 -19 94t-51 77t-75.5 52.5t-92.5 19.5t-92.5 -19.5t-76.5 -52.5t-52 -77t-19 -94q0 -49 19 -93t52 -77t76.5 -52t92.5 -19q50 0 93 19t75.5 51.5t51 76.5t18.5 94zM40 259q0 56 21.5 105.5t58 86.5t86 58.5t105.5 21.5t105 -21.5t85.5 -58t57.5 -86
t21 -106.5t-21 -106t-57.5 -85.5t-85.5 -57.5t-105 -21t-105.5 21t-86 58t-58 86t-21.5 105zM229 650q11 0 18 -7t7 -18t-7 -18t-18 -7t-18 7t-7 18t7 18t18 7zM369 650q11 0 18 -7t7 -18t-7 -18t-18 -7t-18 7t-7 18t7 18t18 7z" />
    <glyph glyph-name="divide" unicode="&#xf7;" horiz-adv-x="553" 
d="M477 366v-30h-401v30h401zM245 472q0 12 9.5 21.5t23.5 9.5q12 0 21.5 -9.5t9.5 -21.5q0 -13 -9.5 -22.5t-21.5 -9.5q-14 0 -23.5 9.5t-9.5 22.5zM245 222q0 12 9.5 21.5t23.5 9.5q12 0 21.5 -9.5t9.5 -21.5q0 -14 -9.5 -23.5t-21.5 -9.5q-14 0 -23.5 9.5t-9.5 23.5z" />
    <glyph glyph-name="oslash" unicode="&#xf8;" 
d="M161 33q-54 37 -87.5 96t-33.5 130q0 56 21.5 105.5t58 86.5t86 58.5t105.5 21.5q65 0 121 -29l39 69h34l-48 -82q57 -37 90 -97t33 -133q0 -57 -21 -106t-57.5 -85.5t-85.5 -57.5t-105 -21q-34 0 -65 8t-60 22l-39 -69h-33zM311 18q50 0 93 19t75.5 51.5t51 76.5
t18.5 94q0 63 -29 116.5t-78 86.5l-240 -417q48 -27 109 -27zM71 259q0 -62 29 -114.5t77 -85.5l240 417q-49 26 -106 26q-49 0 -92.5 -19.5t-76.5 -52.5t-52 -77t-19 -94z" />
    <glyph glyph-name="ugrave" unicode="&#xf9;" horiz-adv-x="579" 
d="M77 519h31v-323q0 -37 13 -69.5t36.5 -56t56.5 -37t73 -13.5q42 0 79.5 16t65 43t44 63.5t16.5 77.5v299h31v-519h-31v109q-13 -27 -35 -49t-50 -37.5t-60 -24.5t-66 -9q-44 0 -81.5 16t-64.5 44t-42.5 66t-15.5 81v323zM295 580l-68 94l38 12l55 -106h-25z" />
    <glyph glyph-name="uacute" unicode="&#xfa;" horiz-adv-x="579" 
d="M77 519h31v-323q0 -37 13 -69.5t36.5 -56t56.5 -37t73 -13.5q42 0 79.5 16t65 43t44 63.5t16.5 77.5v299h31v-519h-31v109q-13 -27 -35 -49t-50 -37.5t-60 -24.5t-66 -9q-44 0 -81.5 16t-64.5 44t-42.5 66t-15.5 81v323zM329 686l39 -12l-68 -94h-25z" />
    <glyph glyph-name="ucircumflex" unicode="&#xfb;" horiz-adv-x="579" 
d="M77 519h31v-323q0 -37 13 -69.5t36.5 -56t56.5 -37t73 -13.5q42 0 79.5 16t65 43t44 63.5t16.5 77.5v299h31v-519h-31v109q-13 -27 -35 -49t-50 -37.5t-60 -24.5t-66 -9q-44 0 -81.5 16t-64.5 44t-42.5 66t-15.5 81v323zM307 690l104 -110h-28l-93 87l-94 -87h-28
l104 110h35z" />
    <glyph glyph-name="udieresis" unicode="&#xfc;" horiz-adv-x="579" 
d="M77 519h31v-323q0 -37 13 -69.5t36.5 -56t56.5 -37t73 -13.5q42 0 79.5 16t65 43t44 63.5t16.5 77.5v299h31v-519h-31v109q-13 -27 -35 -49t-50 -37.5t-60 -24.5t-66 -9q-44 0 -81.5 16t-64.5 44t-42.5 66t-15.5 81v323zM217 650q11 0 18 -7t7 -18t-7 -18t-18 -7t-18 7
t-7 18t7 18t18 7zM357 650q11 0 18 -7t7 -18t-7 -18t-18 -7t-18 7t-7 18t7 18t18 7z" />
    <glyph glyph-name="yacute" unicode="&#xfd;" horiz-adv-x="559" 
d="M72 -164q32 -14 59 -14t45.5 14t31.5 37t23 51t22 57l-229 539h34l212 -502l216 502h32l-274 -642q-19 -44 -48 -65t-65 -21q-33 0 -68 16zM313 686l39 -12l-68 -94h-25z" />
    <glyph glyph-name="thorn" unicode="&#xfe;" horiz-adv-x="642" 
d="M344 511q52 0 97.5 -20.5t79 -56t53 -83t19.5 -101.5t-19.5 -101t-53.5 -82.5t-79.5 -55.5t-97.5 -20q-26 0 -57.5 6.5t-62.5 22t-59 41t-49 63.5v-324h-30v910h30v-330q23 39 52 64.5t60 40.5t61.5 20.5t55.5 5.5zM115 251q0 -49 17 -91t47 -73t71 -48.5t88 -17.5
t88 17.5t71.5 48.5t48 73t17.5 91t-17.5 91t-48 73t-71.5 48.5t-88 17.5t-88 -17.5t-71 -48.5t-47 -73t-17 -91z" />
    <glyph glyph-name="ydieresis" unicode="&#xff;" horiz-adv-x="559" 
d="M80 -164q32 -14 59 -14t45.5 14t31.5 37t23 51t22 57l-229 539h34l212 -502l216 502h32l-274 -642q-19 -44 -48 -65t-65 -21q-33 0 -68 16zM209 650q11 0 18 -7t7 -18t-7 -18t-18 -7t-18 7t-7 18t7 18t18 7zM349 650q11 0 18 -7t7 -18t-7 -18t-18 -7t-18 7t-7 18t7 18
t18 7z" />
    <glyph glyph-name="Amacron" unicode="&#x100;" horiz-adv-x="653" 
d="M316 677l-161 -407h322zM340 700l277 -700h-33l-95 240h-346l-95 -240h-33l277 700h48zM448 855v-25h-242v25h242z" />
    <glyph glyph-name="amacron" unicode="&#x101;" horiz-adv-x="650" 
d="M308 501q-49 0 -92 -19t-75 -52t-51 -77t-19 -94q0 -49 19 -93t51 -76.5t75 -51.5t92 -19t92 19t75.5 51.5t51 76.5t18.5 94t-18.5 93.5t-51 76.5t-75.5 52t-92 19zM575 0h-32v134q-34 -67 -96.5 -105.5t-135.5 -38.5q-56 0 -105.5 21t-86 58t-58 86t-21.5 104
q0 56 21.5 105.5t58.5 86t86.5 58t104.5 21.5q36 0 70.5 -10t64.5 -29t55 -46t42 -60v134h32v-519zM434 655v-25h-242v25h242z" />
    <glyph glyph-name="Abreve" unicode="&#x102;" horiz-adv-x="653" 
d="M316 677l-161 -407h322zM340 700l277 -700h-33l-95 240h-346l-95 -240h-33l277 700h48zM253 847q17 -14 36.5 -21.5t37.5 -7.5q17 0 37 7.5t37 21.5l16 -15q-22 -21 -43 -29.5t-47 -8.5q-27 0 -48 8.5t-41 29.5z" />
    <glyph glyph-name="abreve" unicode="&#x103;" horiz-adv-x="650" 
d="M308 501q-49 0 -92 -19t-75 -52t-51 -77t-19 -94q0 -49 19 -93t51 -76.5t75 -51.5t92 -19t92 19t75.5 51.5t51 76.5t18.5 94t-18.5 93.5t-51 76.5t-75.5 52t-92 19zM575 0h-32v134q-34 -67 -96.5 -105.5t-135.5 -38.5q-56 0 -105.5 21t-86 58t-58 86t-21.5 104
q0 56 21.5 105.5t58.5 86t86.5 58t104.5 21.5q36 0 70.5 -10t64.5 -29t55 -46t42 -60v134h32v-519zM239 647q17 -14 36.5 -21.5t37.5 -7.5q17 0 37 7.5t37 21.5l16 -15q-22 -21 -43 -29.5t-47 -8.5q-27 0 -48 8.5t-41 29.5z" />
    <glyph glyph-name="Aogonek" unicode="&#x104;" horiz-adv-x="675" 
d="M653 -135q11 0 25 6.5t22 14.5l18 -18q-14 -14 -30.5 -20.5t-33.5 -6.5q-45 0 -73 27t-28 71q0 23 14.5 42.5t34.5 27.5l-91 231h-346l-95 -240h-33l277 700h48l277 -700h-3q-23 0 -40.5 -20t-17.5 -42q0 -32 20.5 -52.5t54.5 -20.5zM499 270l-161 407l-161 -407h322z
" />
    <glyph glyph-name="aogonek" unicode="&#x105;" horiz-adv-x="650" 
d="M315 530q75 0 137.5 -39t97.5 -106v134h32v-519h-6q-11 0 -21 -7t-17 -17t-11 -21.5t-4 -21.5q0 -29 20.5 -48t49.5 -19q17 0 31 6t21 15l19 -19q-30 -27 -69 -27q-42 0 -69.5 26t-27.5 65q0 29 14.5 50t37.5 28v124q-34 -67 -96.5 -105.5t-137.5 -38.5q-55 0 -104 21
t-85.5 58t-58 86t-21.5 104q0 56 21.5 105.5t58 86t85.5 58t103 21.5zM552 260q0 50 -18.5 93.5t-51 76.5t-75.5 52t-92 19t-92 -19t-75 -52t-51 -77t-19 -94q0 -49 19 -93t51 -76.5t75 -51.5t92 -19t92 19t75.5 51.5t51 76.5t18.5 94z" />
    <glyph glyph-name="Cacute" unicode="&#x106;" horiz-adv-x="662" 
d="M619 77q-43 -42 -102 -65t-122 -23q-70 0 -133 29t-110 78.5t-74.5 115.5t-27.5 140q0 73 28 138t75 114t109.5 78t132.5 29q63 0 122 -23t101 -64l-21 -21q-19 18 -43 32.5t-50.5 25t-54.5 16t-54 5.5q-65 0 -122.5 -26t-100 -71t-67.5 -105t-25 -128q0 -69 25 -129.5
t68 -106t100.5 -72t121.5 -26.5q55 0 109 21.5t94 58.5zM442 866l39 -12l-68 -94h-25z" />
    <glyph glyph-name="cacute" unicode="&#x107;" horiz-adv-x="530" 
d="M466 443q-30 29 -70 44t-85 15q-49 0 -92.5 -19t-75.5 -52t-51 -77t-19 -94t19 -94t52 -77t77 -52t94 -19q45 0 83 15t69 44l22 -21q-34 -32 -79.5 -49.5t-95.5 -17.5q-56 0 -106 21.5t-87 58.5t-58.5 86.5t-21.5 104.5t21 104.5t57.5 86.5t85.5 58.5t105 21.5
q51 0 97.5 -17t80.5 -49zM342 676l39 -12l-68 -94h-25z" />
    <glyph glyph-name="Ccircumflex" unicode="&#x108;" horiz-adv-x="662" 
d="M619 77q-43 -42 -102 -65t-122 -23q-70 0 -133 29t-110 78.5t-74.5 115.5t-27.5 140q0 73 28 138t75 114t109.5 78t132.5 29q63 0 122 -23t101 -64l-21 -21q-19 18 -43 32.5t-50.5 25t-54.5 16t-54 5.5q-65 0 -122.5 -26t-100 -71t-67.5 -105t-25 -128q0 -69 25 -129.5
t68 -106t100.5 -72t121.5 -26.5q55 0 109 21.5t94 58.5zM391 890l104 -110h-28l-93 87l-94 -87h-28l104 110h35z" />
    <glyph glyph-name="ccircumflex" unicode="&#x109;" horiz-adv-x="532" 
d="M466 443q-30 29 -70 44t-85 15q-49 0 -92.5 -19t-75.5 -52t-51 -77t-19 -94t19 -94t52 -77t77 -52t94 -19q45 0 83 15t69 44l22 -21q-34 -32 -79.5 -49.5t-95.5 -17.5q-56 0 -106 21.5t-87 58.5t-58.5 86.5t-21.5 104.5t21 104.5t57.5 86.5t85.5 58.5t105 21.5
q51 0 97.5 -17t80.5 -49zM333 690l104 -110h-28l-93 87l-94 -87h-28l104 110h35z" />
    <glyph glyph-name="Cdotaccent" unicode="&#x10a;" horiz-adv-x="662" 
d="M619 77q-43 -42 -102 -65t-122 -23q-70 0 -133 29t-110 78.5t-74.5 115.5t-27.5 140q0 73 28 138t75 114t109.5 78t132.5 29q63 0 122 -23t101 -64l-21 -21q-19 18 -43 32.5t-50.5 25t-54.5 16t-54 5.5q-65 0 -122.5 -26t-100 -71t-67.5 -105t-25 -128q0 -69 25 -129.5
t68 -106t100.5 -72t121.5 -26.5q55 0 109 21.5t94 58.5zM399 790q11 0 18 -7t7 -18t-7 -18t-18 -7t-18 7t-7 18t7 18t18 7z" />
    <glyph glyph-name="cdotaccent" unicode="&#x10b;" horiz-adv-x="532" 
d="M466 443q-30 29 -70 44t-85 15q-49 0 -92.5 -19t-75.5 -52t-51 -77t-19 -94t19 -94t52 -77t77 -52t94 -19q45 0 83 15t69 44l22 -21q-34 -32 -79.5 -49.5t-95.5 -17.5q-56 0 -106 21.5t-87 58.5t-58.5 86.5t-21.5 104.5t21 104.5t57.5 86.5t85.5 58.5t105 21.5
q51 0 97.5 -17t80.5 -49zM304 589q11 0 18 -7t7 -18t-7 -18t-18 -7t-18 7t-7 18t7 18t18 7z" />
    <glyph glyph-name="Ccaron" unicode="&#x10c;" horiz-adv-x="662" 
d="M619 77q-43 -42 -102 -65t-122 -23q-70 0 -133 29t-110 78.5t-74.5 115.5t-27.5 140q0 73 28 138t75 114t109.5 78t132.5 29q63 0 122 -23t101 -64l-21 -21q-19 18 -43 32.5t-50.5 25t-54.5 16t-54 5.5q-65 0 -122.5 -26t-100 -71t-67.5 -105t-25 -128q0 -69 25 -129.5
t68 -106t100.5 -72t121.5 -26.5q55 0 109 21.5t94 58.5zM280 890h28l94 -87l93 87h28l-104 -110h-35z" />
    <glyph glyph-name="ccaron" unicode="&#x10d;" horiz-adv-x="530" 
d="M466 443q-30 29 -70 44t-85 15q-49 0 -92.5 -19t-75.5 -52t-51 -77t-19 -94t19 -94t52 -77t77 -52t94 -19q45 0 83 15t69 44l22 -21q-34 -32 -79.5 -49.5t-95.5 -17.5q-56 0 -106 21.5t-87 58.5t-58.5 86.5t-21.5 104.5t21 104.5t57.5 86.5t85.5 58.5t105 21.5
q51 0 97.5 -17t80.5 -49zM179 690h28l94 -87l93 87h28l-104 -110h-35z" />
    <glyph glyph-name="Dcaron" unicode="&#x10e;" horiz-adv-x="723" 
d="M115 672v-642h175q80 0 144 24t109 66.5t69.5 101.5t24.5 128q0 68 -25 127t-70.5 102.5t-109.5 68t-142 24.5h-175zM85 0v702h205q85 0 154.5 -27t119 -74.5t76.5 -112t27 -139.5t-26.5 -139t-75.5 -110.5t-119 -73t-156 -26.5h-205zM213 890h28l94 -87l93 87h28
l-104 -110h-35z" />
    <glyph glyph-name="dcaron" unicode="&#x10f;" horiz-adv-x="772" 
d="M310 501q-49 0 -92 -19t-75 -52t-51 -77t-19 -94q0 -49 19 -93t51 -77t75 -52.5t92 -19.5t92 19.5t75.5 52.5t51.5 77t19 94t-19 93.5t-51.5 76.5t-75.5 52t-92 19zM578 0h-31v132q-40 -70 -100 -107.5t-133 -37.5q-56 0 -106 21.5t-87 58.5t-58.5 86.5t-21.5 105.5
t21.5 105.5t58.5 86t86 58t104 21.5q75 0 137.5 -38.5t98.5 -104.5v313h31v-700zM679 594q11 9 20 21t9 32q-14 0 -25 8t-11 23q0 12 8.5 22t22.5 10q20 0 28 -16.5t8 -30.5q0 -31 -11 -51t-36 -39z" />
    <glyph glyph-name="Dcroat" unicode="&#x110;" horiz-adv-x="724" 
d="M675 349q0 -73 -26.5 -136.5t-75.5 -111t-117.5 -74.5t-152.5 -27h-205v283h-50v30h50v389h205q84 0 152.5 -27.5t117 -75.5t75.5 -112.5t27 -137.5zM645 350q0 67 -24.5 126t-69.5 102.5t-108 68.5t-140 25h-175v-359h169v-30h-169v-253h175q78 0 141 24.5t107.5 68
t69 102t24.5 125.5z" />
    <glyph glyph-name="dcroat" unicode="&#x111;" horiz-adv-x="690" 
d="M318 533q36 0 70.5 -10t64.5 -28.5t55 -45.5t42 -60v231h-161v29h161v51h32v-51h50v-29h-50v-620h-32v130q-40 -68 -100 -105.5t-132 -37.5q-56 0 -105.5 21.5t-87 59t-59 87t-21.5 104.5q0 56 21.5 105.5t59 87t87 59.5t105.5 22zM552 260q0 50 -19 94t-51 77
t-75.5 52.5t-91.5 19.5q-49 0 -92.5 -19.5t-76 -53t-51.5 -77.5t-19 -94q0 -49 19 -93t51.5 -77t76 -52.5t92.5 -19.5q48 0 91.5 19t75.5 52t51 77.5t19 94.5z" />
    <glyph glyph-name="Emacron" unicode="&#x112;" horiz-adv-x="550" 
d="M76 0v699h444v-30h-414v-267h364v-30h-364v-342h414v-30h-444zM396 835v-25h-242v25h242z" />
    <glyph glyph-name="emacron" unicode="&#x113;" 
d="M550 276q-4 49 -23.5 90.5t-51 71.5t-73.5 46.5t-90 16.5t-89.5 -16.5t-73.5 -46t-52.5 -71t-25.5 -91.5h479zM508 72q-38 -40 -89 -61.5t-107 -21.5q-57 0 -106.5 21.5t-86 58t-58 86t-21.5 106.5q0 56 21.5 105t58 85.5t86.5 57.5t107 21q58 0 107.5 -21.5t85.5 -60
t56.5 -90t19.5 -111.5h-511q3 -48 23 -90t52 -72.5t74.5 -48.5t89.5 -18q51 0 97.5 20t78.5 56zM431 655v-25h-242v25h242z" />
    <glyph glyph-name="Ebreve" unicode="&#x114;" horiz-adv-x="575" 
d="M76 0v699h444v-30h-414v-267h364v-30h-364v-342h414v-30h-444zM214 847q17 -14 36.5 -21.5t37.5 -7.5q17 0 37 7.5t37 21.5l16 -15q-22 -21 -43 -29.5t-47 -8.5q-27 0 -48 8.5t-41 29.5z" />
    <glyph glyph-name="ebreve" unicode="&#x115;" 
d="M550 276q-4 49 -23.5 90.5t-51 71.5t-73.5 46.5t-90 16.5t-89.5 -16.5t-73.5 -46t-52.5 -71t-25.5 -91.5h479zM508 72q-38 -40 -89 -61.5t-107 -21.5q-57 0 -106.5 21.5t-86 58t-58 86t-21.5 106.5q0 56 21.5 105t58 85.5t86.5 57.5t107 21q58 0 107.5 -21.5t85.5 -60
t56.5 -90t19.5 -111.5h-511q3 -48 23 -90t52 -72.5t74.5 -48.5t89.5 -18q51 0 97.5 20t78.5 56zM236 647q17 -14 36.5 -21.5t37.5 -7.5q17 0 37 7.5t37 21.5l16 -15q-22 -21 -43 -29.5t-47 -8.5q-27 0 -48 8.5t-41 29.5z" />
    <glyph glyph-name="Edotaccent" unicode="&#x116;" horiz-adv-x="575" 
d="M76 0v699h444v-30h-414v-267h364v-30h-364v-342h414v-30h-444zM288 850q11 0 18 -7t7 -18t-7 -18t-18 -7t-18 7t-7 18t7 18t18 7z" />
    <glyph glyph-name="edotaccent" unicode="&#x117;" 
d="M550 276q-4 49 -23.5 90.5t-51 71.5t-73.5 46.5t-90 16.5t-89.5 -16.5t-73.5 -46t-52.5 -71t-25.5 -91.5h479zM508 72q-38 -40 -89 -61.5t-107 -21.5q-57 0 -106.5 21.5t-86 58t-58 86t-21.5 106.5q0 56 21.5 105t58 85.5t86.5 57.5t107 21q58 0 107.5 -21.5t85.5 -60
t56.5 -90t19.5 -111.5h-511q3 -48 23 -90t52 -72.5t74.5 -48.5t89.5 -18q51 0 97.5 20t78.5 56zM310.004 630q-10.999 0 -17.998 -7q-7 -7 -7 -18t7 -18q6.99902 -7 17.998 -7q11 0 17.999 7q7 7 7 18t-7 18q-6.99902 7 -17.999 7z" />
    <glyph glyph-name="Eogonek" unicode="&#x118;" horiz-adv-x="550" 
d="M545 -134q11 0 25 6.5t22 14.5l18 -18q-14 -14 -30.5 -20.5t-33.5 -6.5q-45 0 -73 27t-28 71q0 18 8.5 33.5t22.5 26.5h-400v699h447l-1 -30h-416v-267h364l-1 -30h-363v-342h419l-1 -30h-4q-8 -1 -16 -6q-14 -8 -24 -23t-10 -32q0 -32 20.5 -52.5t54.5 -20.5z" />
    <glyph glyph-name="eogonek" unicode="&#x119;" 
d="M314 18q51 0 97.5 20t78.5 56l22 -22q-38 -40 -89 -61.5t-107 -21.5h-10t-10 1q-12 -10 -19.5 -23.5t-7.5 -27.5q0 -33 20.5 -53t55.5 -20q11 0 24.5 6t20.5 15l19 -19q-30 -27 -64 -27q-45 0 -73 26.5t-28 71.5q0 32 24 54q-48 9 -89 33t-71 59.5t-47 80.5t-17 95
q0 56 21.5 105t58 85.5t86.5 57.5t107 21q58 0 107.5 -21.5t85.5 -60t56.5 -90t19.5 -111.5h-511q3 -48 23 -90t52 -72.5t74.5 -48.5t89.5 -18zM316 501q-48 0 -89.5 -16.5t-73.5 -46t-52.5 -71t-25.5 -91.5h479q-4 49 -23.5 90.5t-51 71.5t-73.5 46.5t-90 16.5z" />
    <glyph glyph-name="Ecaron" unicode="&#x11a;" horiz-adv-x="575" 
d="M76 0v699h444v-30h-414v-267h364v-30h-364v-342h414v-30h-444zM139 890h28l94 -87l93 87h28l-104 -110h-35z" />
    <glyph glyph-name="ecaron" unicode="&#x11b;" 
d="M550 276q-4 49 -23.5 90.5t-51 71.5t-73.5 46.5t-90 16.5t-89.5 -16.5t-73.5 -46t-52.5 -71t-25.5 -91.5h479zM508 72q-38 -40 -89 -61.5t-107 -21.5q-57 0 -106.5 21.5t-86 58t-58 86t-21.5 106.5q0 56 21.5 105t58 85.5t86.5 57.5t107 21q58 0 107.5 -21.5t85.5 -60
t56.5 -90t19.5 -111.5h-511q3 -48 23 -90t52 -72.5t74.5 -48.5t89.5 -18q51 0 97.5 20t78.5 56zM189 690h28l94 -87l93 87h28l-104 -110h-35z" />
    <glyph glyph-name="Gcircumflex" unicode="&#x11c;" horiz-adv-x="691" 
d="M625 340v-256q-50 -46 -109.5 -70.5t-125.5 -24.5q-71 0 -133.5 28t-109 77t-73.5 114.5t-27 140.5t27 141t73.5 115t109 77.5t133.5 28.5q62 0 119.5 -22t100.5 -60l-15 -26q-40 37 -94 57.5t-111 20.5q-65 0 -122 -26t-99.5 -71t-67 -105.5t-24.5 -128.5q0 -69 25 -129
t67 -105t98 -71t118 -26q60 0 117.5 22t92.5 57v212h-195v30h225zM363 890l104 -110h-28l-93 87l-94 -87h-28l104 110h35z" />
    <glyph glyph-name="gcircumflex" unicode="&#x11d;" horiz-adv-x="647" 
d="M296 528q36 0 70.5 -9.5t64.5 -27.5t54 -43.5t40 -57.5v129h31v-504q0 -47 -19 -87.5t-52.5 -70.5t-79.5 -47.5t-100 -17.5q-106 0 -176 69l11 32q63 -71 166 -71q47 0 87.5 15t69.5 40.5t45.5 60.5t16.5 75v127q-32 -65 -92 -102t-132 -37q-54 0 -101 21t-82.5 57.5
t-56 85t-20.5 103.5q0 54 20 101.5t54.5 83t81 55.5t99.5 20zM525 264q0 50 -17.5 92.5t-48 74t-72.5 49.5t-90 18t-89 -17.5t-71 -48.5t-47.5 -73t-17.5 -91t18 -92.5t49 -75.5t73 -50.5t90 -18.5q47 0 88 18t71 49t47 74t17 92zM317 690l104 -110h-28l-93 87l-94 -87h-28
l104 110h35z" />
    <glyph glyph-name="Gbreve" unicode="&#x11e;" horiz-adv-x="691" 
d="M625 340v-256q-50 -46 -109.5 -70.5t-125.5 -24.5q-71 0 -133.5 28t-109 77t-73.5 114.5t-27 140.5t27 141t73.5 115t109 77.5t133.5 28.5q62 0 119.5 -22t100.5 -60l-15 -26q-40 37 -94 57.5t-111 20.5q-65 0 -122 -26t-99.5 -71t-67 -105.5t-24.5 -128.5q0 -69 25 -129
t67 -105t98 -71t118 -26q60 0 117.5 22t92.5 57v212h-195v30h225zM272 847q17 -14 36.5 -21.5t37.5 -7.5q17 0 37 7.5t37 21.5l16 -15q-22 -21 -43 -29.5t-47 -8.5q-27 0 -48 8.5t-41 29.5z" />
    <glyph glyph-name="gbreve" unicode="&#x11f;" horiz-adv-x="647" 
d="M296 528q36 0 70.5 -9.5t64.5 -27.5t54 -43.5t40 -57.5v129h31v-504q0 -47 -19 -87.5t-52.5 -70.5t-79.5 -47.5t-100 -17.5q-106 0 -176 69l11 32q63 -71 166 -71q47 0 87.5 15t69.5 40.5t45.5 60.5t16.5 75v127q-32 -65 -92 -102t-132 -37q-54 0 -101 21t-82.5 57.5
t-56 85t-20.5 103.5q0 54 20 101.5t54.5 83t81 55.5t99.5 20zM525 264q0 50 -17.5 92.5t-48 74t-72.5 49.5t-90 18t-89 -17.5t-71 -48.5t-47.5 -73t-17.5 -91t18 -92.5t49 -75.5t73 -50.5t90 -18.5q47 0 88 18t71 49t47 74t17 92zM245 647q17 -14 36.5 -21.5t37.5 -7.5
q17 0 37 7.5t37 21.5l16 -15q-22 -21 -43 -29.5t-47 -8.5q-27 0 -48 8.5t-41 29.5z" />
    <glyph glyph-name="Gdotaccent" unicode="&#x120;" horiz-adv-x="691" 
d="M625 340v-256q-50 -46 -109.5 -70.5t-125.5 -24.5q-71 0 -133.5 28t-109 77t-73.5 114.5t-27 140.5t27 141t73.5 115t109 77.5t133.5 28.5q62 0 119.5 -22t100.5 -60l-15 -26q-40 37 -94 57.5t-111 20.5q-65 0 -122 -26t-99.5 -71t-67 -105.5t-24.5 -128.5q0 -69 25 -129
t67 -105t98 -71t118 -26q60 0 117.5 22t92.5 57v212h-195v30h225zM384 850q11 0 18 -7t7 -18t-7 -18t-18 -7t-18 7t-7 18t7 18t18 7z" />
    <glyph glyph-name="gdotaccent" unicode="&#x121;" horiz-adv-x="647" 
d="M296 528q36 0 70.5 -9.5t64.5 -27.5t54 -43.5t40 -57.5v129h31v-504q0 -47 -19 -87.5t-52.5 -70.5t-79.5 -47.5t-100 -17.5q-106 0 -176 69l11 32q63 -71 166 -71q47 0 87.5 15t69.5 40.5t45.5 60.5t16.5 75v127q-32 -65 -92 -102t-132 -37q-54 0 -101 21t-82.5 57.5
t-56 85t-20.5 103.5q0 54 20 101.5t54.5 83t81 55.5t99.5 20zM525 264q0 50 -17.5 92.5t-48 74t-72.5 49.5t-90 18t-89 -17.5t-71 -48.5t-47.5 -73t-17.5 -91t18 -92.5t49 -75.5t73 -50.5t90 -18.5q47 0 88 18t71 49t47 74t17 92zM324 650q11 0 18 -7t7 -18t-7 -18t-18 -7
t-18 7t-7 18t7 18t18 7z" />
    <glyph glyph-name="uni0122" unicode="&#x122;" horiz-adv-x="691" 
d="M625 340v-256q-50 -46 -109.5 -70.5t-125.5 -24.5q-71 0 -133.5 28t-109 77t-73.5 114.5t-27 140.5t27 141t73.5 115t109 77.5t133.5 28.5q62 0 119.5 -22t100.5 -60l-15 -26q-40 37 -94 57.5t-111 20.5q-65 0 -122 -26t-99.5 -71t-67 -105.5t-24.5 -128.5q0 -69 25 -129
t67 -105t98 -71t118 -26q60 0 117.5 22t92.5 57v212h-195v30h225zM348 -156q11 9 20 21t9 32q-14 0 -25 8t-11 23q0 12 8.5 22t22.5 10q20 0 28 -16.5t8 -30.5q0 -31 -11 -51t-36 -39z" />
    <glyph glyph-name="uni0123" unicode="&#x123;" horiz-adv-x="630" 
d="M296 528q36 0 70.5 -9.5t64.5 -27.5t54 -43.5t40 -57.5v129h31v-504q0 -47 -19 -87.5t-52.5 -70.5t-79.5 -47.5t-100 -17.5q-106 0 -176 69l11 32q63 -71 166 -71q47 0 87.5 15t69.5 40.5t45.5 60.5t16.5 75v127q-32 -65 -92 -102t-132 -37q-54 0 -101 21t-82.5 57.5
t-56 85t-20.5 103.5q0 54 20 101.5t54.5 83t81 55.5t99.5 20zM525 264q0 50 -17.5 92.5t-48 74t-72.5 49.5t-90 18t-89 -17.5t-71 -48.5t-47.5 -73t-17.5 -91t18 -92.5t49 -75.5t73 -50.5t90 -18.5q47 0 88 18t71 49t47 74t17 92zM328 706q-11 -9 -20 -21t-9 -32q14 0 25 -8
t11 -23q0 -12 -8.5 -22t-22.5 -10q-20 0 -28 16.5t-8 30.5q0 31 11 51t36 39z" />
    <glyph glyph-name="Hcircumflex" unicode="&#x124;" horiz-adv-x="675" 
d="M559 405v297h30v-702h-30v375h-442v-375h-30v702h30v-297h442zM355 870l104 -110h-28l-93 87l-94 -87h-28l104 110h35z" />
    <glyph glyph-name="hcircumflex" unicode="&#x125;" horiz-adv-x="621" 
d="M548 1h-31v285q0 47 -13.5 85.5t-38 66t-58 43t-73.5 15.5q-45 0 -86.5 -19t-73 -51t-50.5 -73t-19 -86v-266h-30v700h30v-319q18 33 43.5 60t55.5 45.5t63 29t67 10.5q46 0 85 -18t67.5 -50t45 -76t16.5 -97v-285zM107 840l104 -110h-28l-93 87l-94 -87h-28l104 110h35z
" />
    <glyph glyph-name="Hbar" unicode="&#x126;" horiz-adv-x="679" 
d="M121 0h-30v566h-30v30h30v106h30v-106h440v106h30v-106h28v-30h-28v-566h-30v372h-440v-372zM121 402h440v164h-440v-164z" />
    <glyph glyph-name="hbar" unicode="&#x127;" horiz-adv-x="621" 
d="M334 527q46 0 85 -18t67.5 -50t45 -76t16.5 -97v-285h-31v285q0 47 -13.5 85.5t-38 66t-58 43t-73.5 15.5q-45 0 -86.5 -19t-73 -51t-50.5 -73t-19 -86v-266h-30v629h-34v25h34v46h30v-46h179v-25h-179v-248q18 33 43.5 60t55.5 45.5t63 29t67 10.5z" />
    <glyph glyph-name="Itilde" unicode="&#x128;" horiz-adv-x="231" 
d="M131 700v-700h-30v700h30zM-22 812q3 42 23 68t51 26q21 0 38 -12t32 -26t29.5 -26t31.5 -12q41 0 50 71l21 -2q-3 -43 -22.5 -67.5t-48.5 -24.5q-21 0 -38 12t-32 26t-29.5 26t-31.5 12q-22 0 -36 -19.5t-17 -53.5z" />
    <glyph glyph-name="itilde" unicode="&#x129;" horiz-adv-x="214" 
d="M122 520v-520h-30v520h30zM-31 612q3 42 23 68t51 26q21 0 38 -12t32 -26t29.5 -26t31.5 -12q41 0 50 71l21 -2q-3 -43 -22.5 -67.5t-48.5 -24.5q-21 0 -38 12t-32 26t-29.5 26t-31.5 12q-22 0 -36 -19.5t-17 -53.5z" />
    <glyph glyph-name="Imacron" unicode="&#x12a;" horiz-adv-x="231" 
d="M131 700v-700h-30v700h30zM236 835v-25h-242v25h242z" />
    <glyph glyph-name="imacron" unicode="&#x12b;" horiz-adv-x="214" 
d="M122 520v-520h-30v520h30zM228 655v-25h-242v25h242z" />
    <glyph glyph-name="Ibreve" unicode="&#x12c;" horiz-adv-x="231" 
d="M131 700v-700h-30v700h30zM41 827q17 -14 36.5 -21.5t37.5 -7.5q17 0 37 7.5t37 21.5l16 -15q-22 -21 -43 -29.5t-47 -8.5q-27 0 -48 8.5t-41 29.5z" />
    <glyph glyph-name="ibreve" unicode="&#x12d;" horiz-adv-x="214" 
d="M122 520v-520h-30v520h30zM32 647q17 -14 36.5 -21.5t37.5 -7.5q17 0 37 7.5t37 21.5l16 -15q-22 -21 -43 -29.5t-47 -8.5q-27 0 -48 8.5t-41 29.5z" />
    <glyph glyph-name="Iogonek" unicode="&#x12e;" horiz-adv-x="231" 
d="M148 -135q11 0 25 6.5t21 14.5l19 -18q-14 -14 -30.5 -20.5t-33.5 -6.5q-45 0 -73 27t-28 71q0 24 14.5 44t37.5 27v691h30v-701h-3q-20 -2 -37 -20.5t-17 -41.5q0 -32 20.5 -52.5t54.5 -20.5z" />
    <glyph glyph-name="iogonek" unicode="&#x12f;" horiz-adv-x="200" 
d="M132 -134q11 0 24.5 6.5t21.5 14.5l18 -18q-28 -27 -64 -27q-45 0 -72.5 27t-27.5 71q0 24 15 44t38 27v509h30v-520h-9q-7 -2 -15 -6q-14 -8 -24.5 -23t-10.5 -32q0 -32 21 -52.5t55 -20.5zM75 655q0 11 7 18t18 7t18 -7t7 -18t-7 -18t-18 -7t-18 7t-7 18z" />
    <glyph glyph-name="Idotaccent" unicode="&#x130;" horiz-adv-x="231" 
d="M131 700v-700h-30v700h30zM116 850q11 0 18 -7t7 -18t-7 -18t-18 -7t-18 7t-7 18t7 18t18 7z" />
    <glyph glyph-name="dotlessi" unicode="&#x131;" horiz-adv-x="214" 
d="M122 520v-520h-30v520h30z" />
    <glyph glyph-name="IJ" unicode="&#x132;" horiz-adv-x="627" 
d="M131 700v-700h-30v700h30zM568 190q0 -45 -13 -82t-36 -63t-54.5 -40.5t-69.5 -14.5t-72.5 13.5t-55.5 34.5l9 28q21 -20 53.5 -33t67.5 -13q62 0 101.5 45.5t39.5 124.5v510h30v-510z" />
    <glyph glyph-name="ij" unicode="&#x133;" horiz-adv-x="401" 
d="M100 680q11 0 18 -7t7 -18t-7 -18t-18 -7t-18 7t-7 18t7 18t18 7zM115 520v-520h-30v520h30zM315 -33q0 -87 -32 -131.5t-95 -44.5q-31 0 -59 10.5t-46 28.5l10 30q22 -20 43 -29.5t47 -9.5q102 0 102 147v552h30v-553zM301 680q11 0 18 -7t7 -18t-7 -18t-18 -7t-18 7
t-7 18t7 18t18 7z" />
    <glyph glyph-name="Jcircumflex" unicode="&#x134;" horiz-adv-x="499" 
d="M337 190q0 -45 -13 -82t-36 -63t-54.5 -40.5t-69.5 -14.5t-72.5 13.5t-55.5 34.5l9 28q21 -20 53.5 -33t67.5 -13q62 0 101.5 45.5t39.5 124.5v510h30v-510zM328 890l104 -110h-28l-93 87l-94 -87h-28l104 110h35z" />
    <glyph glyph-name="jcircumflex" unicode="&#x135;" horiz-adv-x="221" 
d="M125 -33q0 -35 -6.5 -66.5t-21.5 -55t-40.5 -37.5t-63.5 -14q-32 0 -57.5 9.5t-42.5 27.5l9 28q38 -35 93 -35q34 0 53.5 13.5t30 34.5t13.5 46.5t3 49.5v552h30v-553zM126 670l104 -110h-28l-93 87l-94 -87h-28l104 110h35z" />
    <glyph glyph-name="uni0136" unicode="&#x136;" horiz-adv-x="559" 
d="M542 -1h-37l-268 391l-126 -131v-260h-30v702h30v-401l381 401h40l-274 -289zM254 -156q11 9 20 21t9 32q-14 0 -25 8t-11 23q0 12 8.5 22t22.5 10q20 0 28 -16.5t8 -30.5q0 -31 -11 -51t-36 -39z" />
    <glyph glyph-name="uni0137" unicode="&#x137;" horiz-adv-x="531" 
d="M479 520l-206 -174l231 -346h-37l-218 327l-132 -110v-216h-31v700h31v-444l315 263h47zM239 -156q11 9 20 21t9 32q-14 0 -25 8t-11 23q0 12 8.5 22t22.5 10q20 0 28 -16.5t8 -30.5q0 -31 -11 -51t-36 -39z" />
    <glyph glyph-name="Lacute" unicode="&#x139;" horiz-adv-x="543" 
d="M84 0v700h30v-670h386v-30h-416zM151 886l39 -12l-68 -94h-25z" />
    <glyph glyph-name="lacute" unicode="&#x13a;" horiz-adv-x="206" 
d="M118 700v-699h-30v699h30zM146 866l39 -12l-68 -94h-25z" />
    <glyph glyph-name="uni013B" unicode="&#x13b;" horiz-adv-x="543" 
d="M84 0v700h30v-670h386v-30h-416zM245 -156q11 9 20 21t9 32q-14 0 -25 8t-11 23q0 12 8.5 22t22.5 10q20 0 28 -16.5t8 -30.5q0 -31 -11 -51t-36 -39z" />
    <glyph glyph-name="uni013C" unicode="&#x13c;" horiz-adv-x="206" 
d="M118 700v-699h-30v699h30zM76 -156q11 9 20 21t9 32q-14 0 -25 8t-11 23q0 12 8.5 22t22.5 10q20 0 28 -16.5t8 -30.5q0 -31 -11 -51t-36 -39z" />
    <glyph glyph-name="Lcaron" unicode="&#x13d;" horiz-adv-x="543" 
d="M84 0v700h30v-670h386v-30h-416zM196 591q11 9 20 21t9 32q-14 0 -25 8t-11 23q0 12 8.5 22t22.5 10q20 0 28 -16.5t8 -30.5q0 -31 -11 -51t-36 -39z" />
    <glyph glyph-name="lcaron" unicode="&#x13e;" horiz-adv-x="328" 
d="M118 700v-699h-30v699h30zM229 594q11 9 20 21t9 32q-14 0 -25 8t-11 23q0 12 8.5 22t22.5 10q20 0 28 -16.5t8 -30.5q0 -31 -11 -51t-36 -39z" />
    <glyph glyph-name="Ldot" unicode="&#x13f;" horiz-adv-x="543" 
d="M84 0v700h30v-670h386v-30h-416zM240 244q0 12 9.5 21.5t22.5 9.5q12 0 21.5 -9.5t9.5 -21.5q0 -13 -9.5 -22.5t-21.5 -9.5q-13 0 -22.5 9.5t-9.5 22.5z" />
    <glyph glyph-name="ldot" unicode="&#x140;" horiz-adv-x="300" 
d="M118 700v-699h-30v699h30zM196 244q0 12 9.5 21.5t22.5 9.5q12 0 21.5 -9.5t9.5 -21.5q0 -13 -9.5 -22.5t-21.5 -9.5q-13 0 -22.5 9.5t-9.5 22.5z" />
    <glyph glyph-name="Lslash" unicode="&#x141;" horiz-adv-x="607" 
d="M574 0h-426v306l-98 -56v35l98 56v361h30v-343l122 70v-35l-122 -70v-294h396v-30z" />
    <glyph glyph-name="lslash" unicode="&#x142;" horiz-adv-x="347" 
d="M138 701h30v-350l130 75v-35l-130 -75v-315h-30v298l-90 -52v35l90 52v367z" />
    <glyph glyph-name="Nacute" unicode="&#x143;" horiz-adv-x="771" 
d="M619 0l-503 671v-671h-30v700h46l503 -671v671h30v-700h-46zM411 886l39 -12l-68 -94h-25z" />
    <glyph glyph-name="nacute" unicode="&#x144;" horiz-adv-x="580" 
d="M522 0h-31v323q0 38 -13 70t-36.5 55.5t-56.5 37t-73 13.5q-42 0 -79 -15.5t-65 -42.5t-44.5 -63.5t-16.5 -77.5v-300h-31v519h31v-108q14 27 35.5 48.5t49.5 37.5t60 24.5t66 8.5q44 0 81.5 -16t64.5 -44t42.5 -65.5t15.5 -81.5v-323zM344 696l39 -12l-68 -94h-25z" />
    <glyph glyph-name="uni0145" unicode="&#x145;" horiz-adv-x="771" 
d="M619 0l-503 671v-671h-30v700h46l503 -671v671h30v-700h-46zM360 -156q11 9 20 21t9 32q-14 0 -25 8t-11 23q0 12 8.5 22t22.5 10q20 0 28 -16.5t8 -30.5q0 -31 -11 -51t-36 -39z" />
    <glyph glyph-name="uni0146" unicode="&#x146;" horiz-adv-x="580" 
d="M522 0h-31v323q0 38 -13 70t-36.5 55.5t-56.5 37t-73 13.5q-42 0 -79 -15.5t-65 -42.5t-44.5 -63.5t-16.5 -77.5v-300h-31v519h31v-108q14 27 35.5 48.5t49.5 37.5t60 24.5t66 8.5q44 0 81.5 -16t64.5 -44t42.5 -65.5t15.5 -81.5v-323zM264 -156q11 9 20 21t9 32
q-14 0 -25 8t-11 23q0 12 8.5 22t22.5 10q20 0 28 -16.5t8 -30.5q0 -31 -11 -51t-36 -39z" />
    <glyph glyph-name="Ncaron" unicode="&#x147;" horiz-adv-x="771" 
d="M619 0l-503 671v-671h-30v700h46l503 -671v671h30v-700h-46zM237 890h28l94 -87l93 87h28l-104 -110h-35z" />
    <glyph glyph-name="ncaron" unicode="&#x148;" horiz-adv-x="580" 
d="M522 0h-31v323q0 38 -13 70t-36.5 55.5t-56.5 37t-73 13.5q-42 0 -79 -15.5t-65 -42.5t-44.5 -63.5t-16.5 -77.5v-300h-31v519h31v-108q14 27 35.5 48.5t49.5 37.5t60 24.5t66 8.5q44 0 81.5 -16t64.5 -44t42.5 -65.5t15.5 -81.5v-323zM142 690h28l94 -87l93 87h28
l-104 -110h-35z" />
    <glyph glyph-name="napostrophe" unicode="&#x149;" horiz-adv-x="670" 
d="M594 0h-31v323q0 38 -13 70t-36.5 55.5t-56.5 37t-73 13.5q-42 0 -79 -15.5t-65 -42.5t-44.5 -63.5t-16.5 -77.5v-300h-31v519h31v-108q14 27 35.5 48.5t49.5 37.5t60 24.5t66 8.5q44 0 81.5 -16t64.5 -44t42.5 -65.5t15.5 -81.5v-323zM51 434q11 9 20 21t9 32
q-14 0 -25 8t-11 23q0 12 8.5 22t22.5 10q20 0 28 -16.5t8 -30.5q0 -31 -11 -51t-36 -39z" />
    <glyph glyph-name="Omacron" unicode="&#x14c;" horiz-adv-x="782" 
d="M705 350q0 69 -24.5 129.5t-67 105t-100 70.5t-122.5 26t-122 -26t-100 -71t-67.5 -105t-24.5 -129q0 -68 25 -128.5t67.5 -105.5t100 -71t122.5 -26t122 26t99.5 71t67 105t24.5 129zM47 349q0 75 27 141t74 115t109.5 77.5t134.5 28.5q71 0 133.5 -28.5t109 -77
t73.5 -114.5t27 -141t-27 -141t-73.5 -114.5t-109 -77t-133.5 -28.5q-72 0 -134.5 28t-109.5 77t-74 114.5t-27 140.5zM512 855v-25h-242v25h242z" />
    <glyph glyph-name="omacron" unicode="&#x14d;" horiz-adv-x="631" 
d="M550 259q0 50 -19 94t-51 77t-75.5 52.5t-92.5 19.5t-92.5 -19.5t-76.5 -52.5t-52 -77t-19 -94q0 -49 19 -93t52 -77t76.5 -52t92.5 -19q50 0 93 19t75.5 51.5t51 76.5t18.5 94zM41 259q0 56 21.5 105.5t58 86.5t86 58.5t105.5 21.5t105 -21.5t85.5 -58t57.5 -86
t21 -106.5t-21 -106t-57.5 -85.5t-85.5 -57.5t-105 -21t-105.5 21t-86 58t-58 86t-21.5 105zM437 655v-25h-242v25h242z" />
    <glyph glyph-name="Obreve" unicode="&#x14e;" horiz-adv-x="782" 
d="M705 350q0 69 -24.5 129.5t-67 105t-100 70.5t-122.5 26t-122 -26t-100 -71t-67.5 -105t-24.5 -129q0 -68 25 -128.5t67.5 -105.5t100 -71t122.5 -26t122 26t99.5 71t67 105t24.5 129zM47 349q0 75 27 141t74 115t109.5 77.5t134.5 28.5q71 0 133.5 -28.5t109 -77
t73.5 -114.5t27 -141t-27 -141t-73.5 -114.5t-109 -77t-133.5 -28.5q-72 0 -134.5 28t-109.5 77t-74 114.5t-27 140.5zM317 847q17 -14 36.5 -21.5t37.5 -7.5q17 0 37 7.5t37 21.5l16 -15q-22 -21 -43 -29.5t-47 -8.5q-27 0 -48 8.5t-41 29.5z" />
    <glyph glyph-name="obreve" unicode="&#x14f;" horiz-adv-x="631" 
d="M550 259q0 50 -19 94t-51 77t-75.5 52.5t-92.5 19.5t-92.5 -19.5t-76.5 -52.5t-52 -77t-19 -94q0 -49 19 -93t52 -77t76.5 -52t92.5 -19q50 0 93 19t75.5 51.5t51 76.5t18.5 94zM41 259q0 56 21.5 105.5t58 86.5t86 58.5t105.5 21.5t105 -21.5t85.5 -58t57.5 -86
t21 -106.5t-21 -106t-57.5 -85.5t-85.5 -57.5t-105 -21t-105.5 21t-86 58t-58 86t-21.5 105zM241 647q17 -14 36.5 -21.5t37.5 -7.5q17 0 37 7.5t37 21.5l16 -15q-22 -21 -43 -29.5t-47 -8.5q-27 0 -48 8.5t-41 29.5z" />
    <glyph glyph-name="Ohungarumlaut" unicode="&#x150;" horiz-adv-x="782" 
d="M705 350q0 69 -24.5 129.5t-67 105t-100 70.5t-122.5 26t-122 -26t-100 -71t-67.5 -105t-24.5 -129q0 -68 25 -128.5t67.5 -105.5t100 -71t122.5 -26t122 26t99.5 71t67 105t24.5 129zM47 349q0 75 27 141t74 115t109.5 77.5t134.5 28.5q71 0 133.5 -28.5t109 -77
t73.5 -114.5t27 -141t-27 -141t-73.5 -114.5t-109 -77t-133.5 -28.5q-72 0 -134.5 28t-109.5 77t-74 114.5t-27 140.5zM276 800l42 87l33 -11l-55 -76h-20zM446 800l42 87l33 -11l-55 -76h-20z" />
    <glyph glyph-name="ohungarumlaut" unicode="&#x151;" 
d="M71.0332 259q0 50 18.999 94t50.9971 77t75.4951 52.5t92.4941 19.5t92.4951 -19.5q43.4971 -19.5 76.4951 -52.5t51.9971 -77q18.998 -44 18.998 -94q0 -49 -18.998 -93q-18.999 -44 -51.9971 -77t-76.4951 -52q-43.498 -19 -92.4951 -19q-49.9961 0 -92.9941 19
q-42.9971 19 -75.4951 51.5t-50.9971 76.5t-18.499 94zM580.002 259q0 56 -21.498 105.5q-21.499 49.5 -57.9971 86.5q-36.4971 37 -85.9941 58.5t-105.494 21.5q-55.9961 0 -104.993 -21.5t-85.4951 -58q-36.4971 -36.5 -57.4961 -86t-20.999 -106.5t20.999 -106
t57.4961 -85.5q36.498 -36.5 85.4951 -57.5t104.993 -21q55.9971 0 105.494 21t85.9941 58q36.498 37 57.9971 86q21.498 49 21.498 105zM210 598l42 87l33 -11l-55 -76h-20zM380 598l42 87l33 -11l-55 -76h-20z" />
    <glyph glyph-name="OE" unicode="&#x152;" horiz-adv-x="899" 
d="M398 -1q-71 0 -134 26.5t-110.5 73t-75 111t-27.5 139.5q0 83 27.5 148t75 111t110.5 70t134 24h455v-30h-401v-268h348v-30h-348v-345h401v-30h-455zM422 672q-87 0 -151 -25t-106.5 -68.5t-63 -102.5t-20.5 -126q0 -69 24 -128t68.5 -102t107.5 -67t141 -24v643z" />
    <glyph glyph-name="oe" unicode="&#x153;" horiz-adv-x="1151" 
d="M315 -11q-56 0 -105.5 21t-86 58t-58 86t-21.5 105t21.5 105.5t58 86.5t86 58.5t105.5 21.5q45 0 85 -13.5t73.5 -37.5t58.5 -57.5t39 -73.5q14 40 39 73.5t58.5 57.5t74.5 37t86 13q58 0 107 -22t85 -60t56.5 -89.5t20.5 -111.5h-510q2 -49 22.5 -91t53 -73t75 -48
t89.5 -17q50 0 95.5 19.5t78.5 56.5l22 -22q-38 -40 -89 -61.5t-108 -21.5q-45 0 -85 13t-73.5 37t-58 57.5t-38.5 73.5q-14 -39 -39 -72.5t-58.5 -57.5t-74 -37.5t-85.5 -13.5zM315 18q50 0 93.5 19t76 51.5t51.5 76.5t19 94t-19 94t-52 77t-76.5 52.5t-92.5 19.5
t-92.5 -19.5t-76.5 -52.5t-52 -77t-19 -94q0 -49 19 -93t52 -77t76.5 -52t92.5 -19zM827 501q-48 0 -89.5 -16.5t-73 -46.5t-51.5 -71t-25 -91h478q-3 50 -23 91.5t-52 71t-74 46t-90 16.5z" />
    <glyph glyph-name="Racute" unicode="&#x154;" horiz-adv-x="598" 
d="M111 329h226q43 0 79 13t62.5 35.5t41 53.5t14.5 67q0 37 -15.5 68.5t-42.5 54.5t-64 36t-81 13h-220v-341zM81 700h250q49 0 91.5 -15.5t74 -43t49.5 -64.5t18 -80q0 -42 -17 -78t-47.5 -63t-72 -42t-89.5 -15h-72l265 -299h-40l-265 299h-115v-299h-30v700zM324 886
l39 -12l-68 -94h-25z" />
    <glyph glyph-name="racute" unicode="&#x155;" horiz-adv-x="403" 
d="M352 494q-49 0 -93 -15t-77.5 -44t-53 -71.5t-19.5 -98.5v-265h-31v519h31v-129q38 65 98 100t156 35zM227 686l39 -12l-68 -94h-25z" />
    <glyph glyph-name="uni0156" unicode="&#x156;" horiz-adv-x="598" 
d="M111 329h226q43 0 79 13t62.5 35.5t41 53.5t14.5 67q0 37 -15.5 68.5t-42.5 54.5t-64 36t-81 13h-220v-341zM81 700h250q49 0 91.5 -15.5t74 -43t49.5 -64.5t18 -80q0 -42 -17 -78t-47.5 -63t-72 -42t-89.5 -15h-72l265 -299h-40l-265 299h-115v-299h-30v700zM273 -156
q11 9 20 21t9 32q-14 0 -25 8t-11 23q0 12 8.5 22t22.5 10q20 0 28 -16.5t8 -30.5q0 -31 -11 -51t-36 -39z" />
    <glyph glyph-name="uni0157" unicode="&#x157;" horiz-adv-x="403" 
d="M352 494q-49 0 -93 -15t-77.5 -44t-53 -71.5t-19.5 -98.5v-265h-31v519h31v-129q38 65 98 100t156 35zM65 -156q11 9 20 21t9 32q-14 0 -25 8t-11 23q0 12 8.5 22t22.5 10q20 0 28 -16.5t8 -30.5q0 -31 -11 -51t-36 -39z" />
    <glyph glyph-name="Rcaron" unicode="&#x158;" horiz-adv-x="598" 
d="M111 329h226q43 0 79 13t62.5 35.5t41 53.5t14.5 67q0 37 -15.5 68.5t-42.5 54.5t-64 36t-81 13h-220v-341zM81 700h250q49 0 91.5 -15.5t74 -43t49.5 -64.5t18 -80q0 -42 -17 -78t-47.5 -63t-72 -42t-89.5 -15h-72l265 -299h-40l-265 299h-115v-299h-30v700zM151 890h28
l94 -87l93 87h28l-104 -110h-35z" />
    <glyph glyph-name="rcaron" unicode="&#x159;" horiz-adv-x="403" 
d="M352 494q-49 0 -93 -15t-77.5 -44t-53 -71.5t-19.5 -98.5v-265h-31v519h31v-129q38 65 98 100t156 35zM53 690h28l94 -87l93 87h28l-104 -110h-35z" />
    <glyph glyph-name="Sacute" unicode="&#x15a;" horiz-adv-x="570" 
d="M68 145q26 -57 83 -90t128 -33q44 0 81.5 13t65.5 36t43.5 54.5t15.5 68.5q0 60 -48 98t-158 63q-119 28 -174.5 70.5t-55.5 107.5q0 38 17.5 70.5t48 56.5t72.5 37.5t91 13.5q38 0 72.5 -8t63.5 -23t51 -36.5t35 -47.5l-26 -12q-24 45 -76.5 71t-118.5 26
q-43 0 -79.5 -11.5t-63.5 -31t-42 -46t-15 -57.5q0 -54 49.5 -91t155.5 -60q121 -27 176 -72.5t55 -116.5q0 -43 -18.5 -80t-50 -64.5t-74.5 -43t-93 -15.5q-39 0 -76 10t-68 28.5t-55 44.5t-38 58zM328 886l39 -12l-68 -94h-25z" />
    <glyph glyph-name="sacute" unicode="&#x15b;" horiz-adv-x="460" 
d="M58 120q26 -49 68 -74.5t95 -25.5q34 0 64.5 9t53.5 25.5t36.5 40.5t13.5 54q0 38 -25.5 60t-64.5 36.5t-83.5 25t-83.5 25.5t-64.5 37.5t-25.5 60.5q0 30 14.5 55t39.5 43t58 28t69 10q57 0 105.5 -23.5t72.5 -68.5l-27 -15q-20 38 -61 57t-89 19q-30 0 -57 -7.5
t-47.5 -21.5t-33 -33t-12.5 -42q0 -30 25.5 -48t64 -30t83.5 -23t83.5 -28t64 -44t25.5 -71q0 -37 -15.5 -67t-42.5 -51t-63 -32.5t-76 -11.5q-63 0 -114.5 31t-77.5 85zM264 686l39 -12l-68 -94h-25z" />
    <glyph glyph-name="Scircumflex" unicode="&#x15c;" horiz-adv-x="570" 
d="M68 145q26 -57 83 -90t128 -33q44 0 81.5 13t65.5 36t43.5 54.5t15.5 68.5q0 60 -48 98t-158 63q-119 28 -174.5 70.5t-55.5 107.5q0 38 17.5 70.5t48 56.5t72.5 37.5t91 13.5q38 0 72.5 -8t63.5 -23t51 -36.5t35 -47.5l-26 -12q-24 45 -76.5 71t-118.5 26
q-43 0 -79.5 -11.5t-63.5 -31t-42 -46t-15 -57.5q0 -54 49.5 -91t155.5 -60q121 -27 176 -72.5t55 -116.5q0 -43 -18.5 -80t-50 -64.5t-74.5 -43t-93 -15.5q-39 0 -76 10t-68 28.5t-55 44.5t-38 58zM303 890l104 -110h-28l-93 87l-94 -87h-28l104 110h35z" />
    <glyph glyph-name="scircumflex" unicode="&#x15d;" horiz-adv-x="460" 
d="M58 120q26 -49 68 -74.5t95 -25.5q34 0 64.5 9t53.5 25.5t36.5 40.5t13.5 54q0 38 -25.5 60t-64.5 36.5t-83.5 25t-83.5 25.5t-64.5 37.5t-25.5 60.5q0 30 14.5 55t39.5 43t58 28t69 10q57 0 105.5 -23.5t72.5 -68.5l-27 -15q-20 38 -61 57t-89 19q-30 0 -57 -7.5
t-47.5 -21.5t-33 -33t-12.5 -42q0 -30 25.5 -48t64 -30t83.5 -23t83.5 -28t64 -44t25.5 -71q0 -37 -15.5 -67t-42.5 -51t-63 -32.5t-76 -11.5q-63 0 -114.5 31t-77.5 85zM248 690l104 -110h-28l-93 87l-94 -87h-28l104 110h35z" />
    <glyph glyph-name="Scedilla" unicode="&#x15e;" horiz-adv-x="561" 
d="M270 -8q-38 0 -73.5 10.5t-65.5 29t-53.5 44.5t-37.5 57l26 12q26 -57 83 -90t128 -33q44 0 81.5 13t65.5 36t43.5 54.5t15.5 68.5q0 60 -48 98t-158 63q-119 28 -174.5 70.5t-55.5 107.5q0 38 17.5 70.5t48 56.5t72.5 37.5t91 13.5q38 0 72.5 -8t63.5 -23t51 -36.5
t35 -47.5l-26 -12q-24 45 -76.5 71t-118.5 26q-43 0 -79.5 -11.5t-63.5 -31t-42 -46t-15 -57.5q0 -54 49.5 -91t155.5 -60q121 -27 176 -72.5t55 -116.5q0 -41 -16.5 -76.5t-46 -62.5t-69.5 -43.5t-87 -19.5l-14 -43q5 1 14 1q27 0 42.5 -14.5t15.5 -37.5q0 -29 -22 -48.5
t-53 -19.5q-17 0 -34 7t-35 24l8 25q11 -13 28.5 -22.5t35.5 -9.5q20 0 34 11.5t14 28.5q0 15 -11 23.5t-26 8.5q-13 0 -26 -7l-15 12z" />
    <glyph glyph-name="scedilla" unicode="&#x15f;" horiz-adv-x="460" 
d="M212 -11q-60 3 -108 33.5t-73 82.5l27 15q26 -49 67.5 -74.5t95.5 -25.5q34 0 64 9t53 25.5t36.5 40.5t13.5 54q0 38 -25.5 60t-64 36.5t-83.5 25t-83.5 25.5t-64 37.5t-25.5 60.5q0 30 14.5 55t39.5 43t57.5 28t69.5 10q57 0 106.5 -25t73.5 -67l-27 -15
q-20 35 -62.5 55.5t-89.5 20.5q-30 0 -57 -7.5t-48 -21.5t-33.5 -33t-12.5 -42q0 -30 25.5 -48t64.5 -30t83.5 -23t83.5 -28t64.5 -44t25.5 -71q0 -36 -14.5 -65t-40 -50t-58.5 -33t-71 -14l-13 -40q5 1 14 1q28 0 43.5 -14.5t15.5 -37.5q0 -29 -22.5 -48.5t-53.5 -19.5
q-17 0 -33.5 7t-34.5 24l8 25q10 -13 28 -22.5t36 -9.5q20 0 34 11.5t14 28.5q0 15 -11 23.5t-26 8.5q-13 0 -26 -7l-16 12z" />
    <glyph glyph-name="Scaron" unicode="&#x160;" horiz-adv-x="570" 
d="M68 145q26 -57 83 -90t128 -33q44 0 81.5 13t65.5 36t43.5 54.5t15.5 68.5q0 60 -48 98t-158 63q-119 28 -174.5 70.5t-55.5 107.5q0 38 17.5 70.5t48 56.5t72.5 37.5t91 13.5q38 0 72.5 -8t63.5 -23t51 -36.5t35 -47.5l-26 -12q-24 45 -76.5 71t-118.5 26
q-43 0 -79.5 -11.5t-63.5 -31t-42 -46t-15 -57.5q0 -54 49.5 -91t155.5 -60q121 -27 176 -72.5t55 -116.5q0 -43 -18.5 -80t-50 -64.5t-74.5 -43t-93 -15.5q-39 0 -76 10t-68 28.5t-55 44.5t-38 58zM164 890h28l94 -87l93 87h28l-104 -110h-35z" />
    <glyph glyph-name="scaron" unicode="&#x161;" horiz-adv-x="460" 
d="M56 120q26 -49 68 -74.5t95 -25.5q34 0 64.5 9t53.5 25.5t36.5 40.5t13.5 54q0 38 -25.5 60t-64.5 36.5t-83.5 25t-83.5 25.5t-64.5 37.5t-25.5 60.5q0 30 14.5 55t39.5 43t58 28t69 10q57 0 105.5 -23.5t72.5 -68.5l-27 -15q-20 38 -61 57t-89 19q-30 0 -57 -7.5
t-47.5 -21.5t-33 -33t-12.5 -42q0 -30 25.5 -48t64 -30t83.5 -23t83.5 -28t64 -44t25.5 -71q0 -37 -15.5 -67t-42.5 -51t-63 -32.5t-76 -11.5q-63 0 -114.5 31t-77.5 85zM109 690h28l94 -87l93 87h28l-104 -110h-35z" />
    <glyph glyph-name="uni0162" unicode="&#x162;" horiz-adv-x="590" 
d="M343 -100q0 15 -11 23.5t-26 8.5t-26 -7l-16 12l21 63h-4v670h-242v30h514v-30h-242v-670h-1l-16 -45q5 1 14 1q28 0 43.5 -14.5t15.5 -37.5q0 -29 -22.5 -48.5t-53.5 -19.5q-17 0 -33.5 7t-34.5 24l8 25q10 -13 28 -22.5t36 -9.5q20 0 34 11.5t14 28.5z" />
    <glyph glyph-name="uni0163" unicode="&#x163;" horiz-adv-x="350" 
d="M296 -110q0 15 -11 23.5t-26 8.5t-26 -7l-16 12l19 62q-61 0 -91.5 37.5t-30.5 115.5v348h-78v30h78v180h30v-180h126l10 -30h-136v-350q0 -66 23 -94t74 -28q24 0 39 4.5t32 13.5l9 -28q-26 -14 -58 -17l-16 -46q5 1 14 1q28 0 43.5 -14.5t15.5 -37.5q0 -29 -22.5 -48.5
t-53.5 -19.5q-17 0 -33.5 7t-34.5 24l8 25q10 -13 28 -22.5t36 -9.5q20 0 34 11.5t14 28.5z" />
    <glyph glyph-name="Tcaron" unicode="&#x164;" horiz-adv-x="590" 
d="M552 670h-242v-670h-30v670h-242v30h514v-30zM174 890h28l94 -87l93 87h28l-104 -110h-35z" />
    <glyph glyph-name="tcaron" unicode="&#x165;" horiz-adv-x="430" 
d="M36 490v30h78v180h30v-180h126l10 -30h-136v-347q0 -68 23 -96.5t74 -28.5q22 0 38 4.5t33 13.5l9 -28q-14 -8 -37 -13.5t-48 -5.5q-61 0 -91.5 37.5t-30.5 116.5v347h-78zM326 594q11 9 20 21t9 32q-14 0 -25 8t-11 23q0 12 8.5 22t22.5 10q20 0 28 -16.5t8 -30.5
q0 -31 -11 -51t-36 -39z" />
    <glyph glyph-name="Tbar" unicode="&#x166;" horiz-adv-x="590" 
d="M552 701v-30h-242v-226h110v-30h-110v-415h-30v415h-102v30h102v226h-242v30h514z" />
    <glyph glyph-name="tbar" unicode="&#x167;" horiz-adv-x="371" 
d="M250 -10q-66 0 -101 39.5t-35 112.5v348h-78v30h78v91h-76v25h76v64h30v-64h118l8 -25h-126v-91h116l10 -30h-126v-350q0 -120 102 -120q47 0 84 27l9 -28q-36 -29 -89 -29z" />
    <glyph glyph-name="Utilde" unicode="&#x168;" horiz-adv-x="741" 
d="M84 700h30v-456q0 -46 20.5 -87.5t56 -72t82.5 -48.5t101 -18q53 0 99.5 17.5t80.5 48t53.5 72t19.5 88.5v456h30v-456q0 -53 -22 -99.5t-60.5 -81t-90 -54.5t-110.5 -20q-58 0 -111 20.5t-92.5 55.5t-63 81t-23.5 98v456zM233 812q3 42 23 68t51 26q21 0 38 -12t32 -26
t29.5 -26t31.5 -12q41 0 50 71l21 -2q-3 -43 -22.5 -67.5t-48.5 -24.5q-21 0 -38 12t-32 26t-29.5 26t-31.5 12q-22 0 -36 -19.5t-17 -53.5z" />
    <glyph glyph-name="utilde" unicode="&#x169;" horiz-adv-x="579" 
d="M77 519h31v-323q0 -37 13 -69.5t36.5 -56t56.5 -37t73 -13.5q42 0 79.5 16t65 43t44 63.5t16.5 77.5v299h31v-519h-31v109q-13 -27 -35 -49t-50 -37.5t-60 -24.5t-66 -9q-44 0 -81.5 16t-64.5 44t-42.5 66t-15.5 81v323zM152 612q3 42 23 68t51 26q21 0 38 -12t32 -26
t29.5 -26t31.5 -12q41 0 50 71l21 -2q-3 -43 -22.5 -67.5t-48.5 -24.5q-21 0 -38 12t-32 26t-29.5 26t-31.5 12q-22 0 -36 -19.5t-17 -53.5z" />
    <glyph glyph-name="Umacron" unicode="&#x16a;" horiz-adv-x="741" 
d="M84 700h30v-456q0 -46 20.5 -87.5t56 -72t82.5 -48.5t101 -18q53 0 99.5 17.5t80.5 48t53.5 72t19.5 88.5v456h30v-456q0 -53 -22 -99.5t-60.5 -81t-90 -54.5t-110.5 -20q-58 0 -111 20.5t-92.5 55.5t-63 81t-23.5 98v456zM492 855v-25h-242v25h242z" />
    <glyph glyph-name="umacron" unicode="&#x16b;" horiz-adv-x="579" 
d="M77 519h31v-323q0 -37 13 -69.5t36.5 -56t56.5 -37t73 -13.5q42 0 79.5 16t65 43t44 63.5t16.5 77.5v299h31v-519h-31v109q-13 -27 -35 -49t-50 -37.5t-60 -24.5t-66 -9q-44 0 -81.5 16t-64.5 44t-42.5 66t-15.5 81v323zM411 655v-25h-242v25h242z" />
    <glyph glyph-name="Ubreve" unicode="&#x16c;" horiz-adv-x="741" 
d="M84 700h30v-456q0 -46 20.5 -87.5t56 -72t82.5 -48.5t101 -18q53 0 99.5 17.5t80.5 48t53.5 72t19.5 88.5v456h30v-456q0 -53 -22 -99.5t-60.5 -81t-90 -54.5t-110.5 -20q-58 0 -111 20.5t-92.5 55.5t-63 81t-23.5 98v456zM297 847q17 -14 36.5 -21.5t37.5 -7.5
q17 0 37 7.5t37 21.5l16 -15q-22 -21 -43 -29.5t-47 -8.5q-27 0 -48 8.5t-41 29.5z" />
    <glyph glyph-name="ubreve" unicode="&#x16d;" horiz-adv-x="579" 
d="M77 519h31v-323q0 -37 13 -69.5t36.5 -56t56.5 -37t73 -13.5q42 0 79.5 16t65 43t44 63.5t16.5 77.5v299h31v-519h-31v109q-13 -27 -35 -49t-50 -37.5t-60 -24.5t-66 -9q-44 0 -81.5 16t-64.5 44t-42.5 66t-15.5 81v323zM216 647q17 -14 36.5 -21.5t37.5 -7.5
q17 0 37 7.5t37 21.5l16 -15q-22 -21 -43 -29.5t-47 -8.5q-27 0 -48 8.5t-41 29.5z" />
    <glyph glyph-name="Uring" unicode="&#x16e;" horiz-adv-x="741" 
d="M84 700h30v-456q0 -46 20.5 -87.5t56 -72t82.5 -48.5t101 -18q53 0 99.5 17.5t80.5 48t53.5 72t19.5 88.5v456h30v-456q0 -53 -22 -99.5t-60.5 -81t-90 -54.5t-110.5 -20q-58 0 -111 20.5t-92.5 55.5t-63 81t-23.5 98v456zM371 951q32 0 54.5 -22t22.5 -54
q-1 -33 -23 -55t-54 -22t-54 22.5t-22 54.5q-1 32 21.5 54t54.5 22zM371 927q-21 0 -36.5 -15.5t-15.5 -36.5t15.5 -36.5t36.5 -15.5t36.5 15.5t15.5 36.5t-15.5 36.5t-36.5 15.5z" />
    <glyph glyph-name="uring" unicode="&#x16f;" horiz-adv-x="579" 
d="M77 519h31v-323q0 -37 13 -69.5t36.5 -56t56.5 -37t73 -13.5q42 0 79.5 16t65 43t44 63.5t16.5 77.5v299h31v-519h-31v109q-13 -27 -35 -49t-50 -37.5t-60 -24.5t-66 -9q-44 0 -81.5 16t-64.5 44t-42.5 66t-15.5 81v323zM290 753q32 0 54.5 -22t22.5 -54q-1 -33 -23 -55
t-54 -22t-54 22.5t-22 54.5q-1 32 21.5 54t54.5 22zM290 729q-21 0 -36.5 -15.5t-15.5 -36.5t15.5 -36.5t36.5 -15.5t36.5 15.5t15.5 36.5t-15.5 36.5t-36.5 15.5z" />
    <glyph glyph-name="Uhungarumlaut" unicode="&#x170;" horiz-adv-x="741" 
d="M84 700h30v-456q0 -46 20.5 -87.5t56 -72t82.5 -48.5t101 -18q53 0 99.5 17.5t80.5 48t53.5 72t19.5 88.5v456h30v-456q0 -53 -22 -99.5t-60.5 -81t-90 -54.5t-110.5 -20q-58 0 -111 20.5t-92.5 55.5t-63 81t-23.5 98v456zM250 800l42 87l33 -11l-55 -76h-20zM420 800
l42 87l33 -11l-55 -76h-20z" />
    <glyph glyph-name="uhungarumlaut" unicode="&#x171;" horiz-adv-x="579" 
d="M77 519h31v-323q0 -37 13 -69.5t36.5 -56t56.5 -37t73 -13.5q42 0 79.5 16t65 43t44 63.5t16.5 77.5v299h31v-519h-31v109q-13 -27 -35 -49t-50 -37.5t-60 -24.5t-66 -9q-44 0 -81.5 16t-64.5 44t-42.5 66t-15.5 81v323zM190 600l42 87l33 -11l-55 -76h-20zM360 600
l42 87l33 -11l-55 -76h-20z" />
    <glyph glyph-name="Uogonek" unicode="&#x172;" horiz-adv-x="741" 
d="M363 -11q-57 2 -107.5 23.5t-88.5 56t-60.5 79.5t-22.5 96v456h30v-456q0 -46 20.5 -87.5t56 -72t82.5 -48.5t101 -18q53 0 99.5 17.5t80.5 48t53.5 72t19.5 88.5v456h30v-456q0 -49 -19.5 -93.5t-54 -78.5t-80.5 -55.5t-100 -26.5q-5 -2 -9 -3.5t-8 -5.5
q-11 -8 -17.5 -21.5t-6.5 -27.5q0 -32 20.5 -52.5t54.5 -20.5q11 0 25 6.5t21 14.5l19 -18q-14 -14 -30.5 -20.5t-33.5 -6.5q-45 0 -73 27t-28 71q0 17 7 31t19 25z" />
    <glyph glyph-name="uogonek" unicode="&#x173;" horiz-adv-x="600" 
d="M285 -11q-45 0 -83 16t-65.5 43.5t-43.5 65.5t-16 82v323h31v-323q0 -39 13.5 -71t37 -55.5t56 -36.5t70.5 -13q43 0 81 16t66 43t44 63.5t16 77.5v299h31v-519h-2q-8 -1 -17.5 -5t-17.5 -11q-20 -20 -20 -48q0 -31 19.5 -50.5t48.5 -19.5q16 0 30.5 6.5t22.5 14.5
l19 -19q-32 -27 -69 -27q-42 0 -69 27t-27 66q0 29 14 50t37 27v98q-13 -27 -35 -49t-49.5 -38t-58.5 -24.5t-64 -8.5z" />
    <glyph glyph-name="Wcircumflex" unicode="&#x174;" horiz-adv-x="1076" 
d="M559 642l218 -614l231 673h31l-241 -701h-42l-219 614l-216 -614h-42l-242 701h31l232 -672l215 613h44zM556 890l104 -110h-28l-93 87l-94 -87h-28l104 110h35z" />
    <glyph glyph-name="wcircumflex" unicode="&#x175;" horiz-adv-x="840" 
d="M442 508l166 -457l171 468h33l-191 -519h-26l-174 477l-175 -477h-29l-189 519h31l173 -472l167 461h43zM438 690l104 -110h-28l-93 87l-94 -87h-28l104 110h35z" />
    <glyph glyph-name="Ycircumflex" unicode="&#x176;" horiz-adv-x="595" 
d="M34 700h35l227 -369l231 369h35l-251 -400v-300h-30v300zM315 890l104 -110h-28l-93 87l-94 -87h-28l104 110h35z" />
    <glyph glyph-name="ycircumflex" unicode="&#x177;" horiz-adv-x="580" 
d="M83 -164q32 -14 59 -14t45.5 14t31.5 37t23 51t22 57l-229 539h34l212 -502l216 502h32l-274 -642q-19 -44 -48 -65t-65 -21q-33 0 -68 16zM297 690l104 -110h-28l-93 87l-94 -87h-28l104 110h35z" />
    <glyph glyph-name="Ydieresis" unicode="&#x178;" horiz-adv-x="595" 
d="M34 700h35l227 -369l231 369h35l-251 -400v-300h-30v300zM225 850q11 0 18 -7t7 -18t-7 -18t-18 -7t-18 7t-7 18t7 18t18 7zM365 850q11 0 18 -7t7 -18t-7 -18t-18 -7t-18 7t-7 18t7 18t18 7z" />
    <glyph glyph-name="Zacute" unicode="&#x179;" horiz-adv-x="618" 
d="M41 43l519 627h-520v30h548v-42l-520 -628h512v-30h-539v43zM349 864l39 -12l-68 -94h-25z" />
    <glyph glyph-name="zacute" unicode="&#x17a;" horiz-adv-x="479" 
d="M451 481l-380 -452h378v-29h-410v39l380 451h-380v29h412v-38zM277 686l39 -12l-68 -94h-25z" />
    <glyph glyph-name="Zdotaccent" unicode="&#x17b;" horiz-adv-x="618" 
d="M41 43l519 627h-520v30h548v-42l-520 -628h512v-30h-539v43zM309 850q11 0 18 -7t7 -18t-7 -18t-18 -7t-18 7t-7 18t7 18t18 7z" />
    <glyph glyph-name="zdotaccent" unicode="&#x17c;" horiz-adv-x="479" 
d="M451 481l-380 -452h378v-29h-410v39l380 451h-380v29h412v-38zM240 630q11 0 18 -7t7 -18t-7 -18t-18 -7t-18 7t-7 18t7 18t18 7z" />
    <glyph glyph-name="Zcaron" unicode="&#x17d;" horiz-adv-x="618" 
d="M41 43l519 627h-520v30h548v-42l-520 -628h512v-30h-539v43zM188 890h28l94 -87l93 87h28l-104 -110h-35z" />
    <glyph glyph-name="zcaron" unicode="&#x17e;" horiz-adv-x="479" 
d="M451 481l-380 -452h378v-29h-410v39l380 451h-380v29h412v-38zM131 684h28l94 -87l93 87h28l-104 -110h-35z" />
    <glyph glyph-name="uni0218" unicode="&#x218;" horiz-adv-x="613" 
d="M66 145q26 -57 83 -90t128 -33q44 0 81.5 13t65.5 36t43.5 54.5t15.5 68.5q0 60 -48 98t-158 63q-119 28 -174.5 70.5t-55.5 107.5q0 38 17.5 70.5t48 56.5t72.5 37.5t91 13.5q38 0 72.5 -8t63.5 -23t51 -36.5t35 -47.5l-26 -12q-24 45 -76.5 71t-118.5 26
q-43 0 -79.5 -11.5t-63.5 -31t-42 -46t-15 -57.5q0 -54 49.5 -91t155.5 -60q121 -27 176 -72.5t55 -116.5q0 -43 -18.5 -80t-50 -64.5t-74.5 -43t-93 -15.5q-39 0 -76 10t-68 28.5t-55 44.5t-38 58zM280 -156q11 9 20 21t9 32q-14 0 -25 8t-11 23q0 12 8.5 22t22.5 10
q20 0 28 -16.5t8 -30.5q0 -31 -11 -51t-36 -39z" />
    <glyph glyph-name="uni0219" unicode="&#x219;" horiz-adv-x="462" 
d="M56 120q26 -49 68 -74.5t95 -25.5q34 0 64.5 9t53.5 25.5t36.5 40.5t13.5 54q0 38 -25.5 60t-64.5 36.5t-83.5 25t-83.5 25.5t-64.5 37.5t-25.5 60.5q0 30 14.5 55t39.5 43t58 28t69 10q57 0 105.5 -23.5t72.5 -68.5l-27 -15q-20 38 -61 57t-89 19q-30 0 -57 -7.5
t-47.5 -21.5t-33 -33t-12.5 -42q0 -30 25.5 -48t64 -30t83.5 -23t83.5 -28t64 -44t25.5 -71q0 -37 -15.5 -67t-42.5 -51t-63 -32.5t-76 -11.5q-63 0 -114.5 31t-77.5 85zM205 -155q11 9 20 21t9 32q-14 0 -25 8t-11 23q0 12 8.5 22t22.5 10q20 0 28 -16.5t8 -30.5
q0 -31 -11 -51t-36 -39z" />
    <glyph glyph-name="uni021A" unicode="&#x21a;" horiz-adv-x="590" 
d="M552 670h-242v-670h-30v670h-242v30h514v-30zM268 -179q11 9 20 21t9 32q-14 0 -25 8t-11 23q0 12 8.5 22t22.5 10q20 0 28 -16.5t8 -30.5q0 -31 -11 -51t-36 -39z" />
    <glyph glyph-name="uni021B" unicode="&#x21b;" horiz-adv-x="361" 
d="M36 490v30h78v180h30v-180h126l10 -30h-136v-347q0 -68 23 -96.5t74 -28.5q22 0 38 4.5t33 13.5l9 -28q-14 -8 -37 -13.5t-48 -5.5q-61 0 -91.5 37.5t-30.5 116.5v347h-78zM198 -156q11 9 20 21t9 32q-14 0 -25 8t-11 23q0 12 8.5 22t22.5 10q20 0 28 -16.5t8 -30.5
q0 -31 -11 -51t-36 -39z" />
    <glyph glyph-name="uni0237" unicode="&#x237;" horiz-adv-x="201" 
d="M115 -33q0 -87 -32 -131.5t-95 -44.5q-31 0 -59 10.5t-46 28.5l10 30q22 -20 43 -29.5t47 -9.5q102 0 102 147v552h30v-553z" />
    <glyph glyph-name="circumflex" unicode="&#x2c6;" horiz-adv-x="363" 
d="M199 690l104 -110h-28l-93 87l-94 -87h-28l104 110h35z" />
    <glyph glyph-name="caron" unicode="&#x2c7;" horiz-adv-x="308" 
d="M33 690h28l94 -87l93 87h28l-104 -110h-35z" />
    <glyph glyph-name="breve" unicode="&#x2d8;" horiz-adv-x="251" 
d="M51 647q17 -14 36.5 -21.5t37.5 -7.5q17 0 37 7.5t37 21.5l16 -15q-22 -21 -43 -29.5t-47 -8.5q-27 0 -48 8.5t-41 29.5z" />
    <glyph glyph-name="dotaccent" unicode="&#x2d9;" horiz-adv-x="140" 
d="M70 650q11 0 18 -7t7 -18t-7 -18t-18 -7t-18 7t-7 18t7 18t18 7z" />
    <glyph glyph-name="ring" unicode="&#x2da;" horiz-adv-x="271" 
d="M136 776q32 0 54.5 -22t22.5 -54q-1 -33 -23 -55t-54 -22t-54 22.5t-22 54.5q-1 32 21.5 54t54.5 22zM136 752q-21 0 -36.5 -15.5t-15.5 -36.5t15.5 -36.5t36.5 -15.5t36.5 15.5t15.5 36.5t-15.5 36.5t-36.5 15.5z" />
    <glyph glyph-name="ogonek" unicode="&#x2db;" horiz-adv-x="240" 
d="M205 -127q-14 -14 -30.5 -20.5t-33.5 -6.5q-45 0 -73 27t-28 71q0 24 14.5 44t37.5 27l30 -10q-11 0 -21.5 -6t-18.5 -15t-12.5 -20t-4.5 -21q0 -32 20.5 -52.5t54.5 -20.5q11 0 25 6.5t21 14.5z" />
    <glyph glyph-name="tilde" unicode="&#x2dc;" horiz-adv-x="430" 
d="M77 612q3 42 23 68t51 26q21 0 38 -12t32 -26t29.5 -26t31.5 -12q41 0 50 71l21 -2q-3 -43 -22.5 -67.5t-48.5 -24.5q-21 0 -38 12t-32 26t-29.5 26t-31.5 12q-22 0 -36 -19.5t-17 -53.5z" />
    <glyph glyph-name="hungarumlaut" unicode="&#x2dd;" horiz-adv-x="350" 
d="M65 600l42 87l33 -11l-55 -76h-20zM235 600l42 87l33 -11l-55 -76h-20z" />
    <glyph glyph-name="Wgrave" unicode="&#x1e80;" horiz-adv-x="1076" 
d="M559 642l218 -614l231 673h31l-241 -701h-42l-219 614l-216 -614h-42l-242 701h31l232 -672l215 613h44zM523 760l-68 94l38 12l55 -106h-25z" />
    <glyph glyph-name="wgrave" unicode="&#x1e81;" horiz-adv-x="840" 
d="M442 508l166 -457l171 468h33l-191 -519h-26l-174 477l-175 -477h-29l-189 519h31l173 -472l167 461h43zM412 580l-68 94l38 12l55 -106h-25z" />
    <glyph glyph-name="Wacute" unicode="&#x1e82;" horiz-adv-x="1076" 
d="M559 642l218 -614l231 673h31l-241 -701h-42l-219 614l-216 -614h-42l-242 701h31l232 -672l215 613h44zM584 866l39 -12l-68 -94h-25z" />
    <glyph glyph-name="wacute" unicode="&#x1e83;" horiz-adv-x="840" 
d="M442 508l166 -457l171 468h33l-191 -519h-26l-174 477l-175 -477h-29l-189 519h31l173 -472l167 461h43zM478 686l39 -12l-68 -94h-25z" />
    <glyph glyph-name="Wdieresis" unicode="&#x1e84;" horiz-adv-x="1076" 
d="M559 642l218 -614l231 673h31l-241 -701h-42l-219 614l-216 -614h-42l-242 701h31l232 -672l215 613h44zM466 769q11 0 18 -7t7 -18t-7 -18t-18 -7t-18 7t-7 18t7 18t18 7zM606 769q11 0 18 -7t7 -18t-7 -18t-18 -7t-18 7t-7 18t7 18t18 7z" />
    <glyph glyph-name="wdieresis" unicode="&#x1e85;" horiz-adv-x="840" 
d="M442 508l166 -457l171 468h33l-191 -519h-26l-174 477l-175 -477h-29l-189 519h31l173 -472l167 461h43zM348 650q11 0 18 -7t7 -18t-7 -18t-18 -7t-18 7t-7 18t7 18t18 7zM488 650q11 0 18 -7t7 -18t-7 -18t-18 -7t-18 7t-7 18t7 18t18 7z" />
    <glyph glyph-name="endash" unicode="&#x2013;" horiz-adv-x="480" 
d="M430 259v-30h-380v30h380z" />
    <glyph glyph-name="emdash" unicode="&#x2014;" horiz-adv-x="1015" 
d="M964 259v-30h-913v30h913z" />
    <glyph glyph-name="quoteleft" unicode="&#x2018;" horiz-adv-x="134" 
d="M97 689q-11 -9 -20 -21t-9 -32q14 0 25 -8t11 -23q0 -12 -8.5 -22t-22.5 -10q-20 0 -28 16.5t-8 30.5q0 31 11 51t36 39z" />
    <glyph glyph-name="quoteright" unicode="&#x2019;" horiz-adv-x="134" 
d="M41 594q11 9 20 21t9 32q-14 0 -25 8t-11 23q0 12 8.5 22t22.5 10q20 0 28 -16.5t8 -30.5q0 -31 -11 -51t-36 -39z" />
    <glyph glyph-name="quotesinglbase" unicode="&#x201a;" horiz-adv-x="208" 
d="M134 8q0 -9 -3 -21.5t-7.5 -26.5t-10 -29.5t-9.5 -28.5q-4 13 -9.5 28.5t-10 29.5t-7.5 26.5t-3 21.5q0 15 8 23.5t22 8.5t22 -8.5t8 -23.5z" />
    <glyph glyph-name="quotedblleft" unicode="&#x201c;" horiz-adv-x="300" 
d="M126 689q-11 -9 -20 -21t-9 -32q14 0 25 -8t11 -23q0 -12 -8.5 -22t-22.5 -10q-20 0 -28 16.5t-8 30.5q0 31 11 51t36 39zM227 689q-11 -9 -20 -21t-9 -32q14 0 25 -8t11 -23q0 -12 -8.5 -22t-22.5 -10q-20 0 -28 16.5t-8 30.5q0 31 11 51t36 39z" />
    <glyph glyph-name="quotedblright" unicode="&#x201d;" horiz-adv-x="300" 
d="M174 594q11 9 20 21t9 32q-14 0 -25 8t-11 23q0 12 8.5 22t22.5 10q20 0 28 -16.5t8 -30.5q0 -31 -11 -51t-36 -39zM73 594q11 9 20 21t9 32q-14 0 -25 8t-11 23q0 12 8.5 22t22.5 10q20 0 28 -16.5t8 -30.5q0 -31 -11 -51t-36 -39z" />
    <glyph glyph-name="quotedblbase" unicode="&#x201e;" horiz-adv-x="384" 
d="M157 4q0 -9 -3 -21.5t-7.5 -26.5t-10 -29.5t-9.5 -28.5q-4 13 -9.5 28.5t-10 29.5t-7.5 26.5t-3 21.5q0 15 8 23.5t22 8.5t22 -8.5t8 -23.5zM287 4q0 -9 -3 -21.5t-7.5 -26.5t-10 -29.5t-9.5 -28.5q-4 13 -9.5 28.5t-10 29.5t-7.5 26.5t-3 21.5q0 15 8 23.5t22 8.5
t22 -8.5t8 -23.5z" />
    <glyph glyph-name="dagger" unicode="&#x2020;" horiz-adv-x="401" 
d="M186 701h30v-201h132v-30h-132v-570h-30v570h-132v30h132v201z" />
    <glyph glyph-name="daggerdbl" unicode="&#x2021;" horiz-adv-x="400" 
d="M347 500v-30h-132v-270h84v-30h-84v-270h-30v270h-84v30h84v270h-132v30h132v201h30v-201h132z" />
    <glyph glyph-name="bullet" unicode="&#x2022;" horiz-adv-x="348" 
d="M78 274q0 20 7.5 38t20.5 31.5t30.5 21t37.5 7.5t37.5 -7.5t30.5 -21t20.5 -31.5t7.5 -38t-7.5 -38t-20.5 -31.5t-30.5 -21t-37.5 -7.5t-37.5 7.5t-30.5 21t-20.5 31.5t-7.5 38z" />
    <glyph glyph-name="ellipsis" unicode="&#x2026;" horiz-adv-x="501" 
d="M86 21q0 13 9.5 22.5t22.5 9.5q12 0 21.5 -9.5t9.5 -22.5t-9.5 -22.5t-21.5 -9.5q-13 0 -22.5 9.5t-9.5 22.5zM219 21q0 13 9.5 22.5t22.5 9.5q12 0 21.5 -9.5t9.5 -22.5t-9.5 -22.5t-21.5 -9.5q-13 0 -22.5 9.5t-9.5 22.5zM351 21q0 13 9.5 22.5t22.5 9.5
q12 0 21.5 -9.5t9.5 -22.5t-9.5 -22.5t-21.5 -9.5q-13 0 -22.5 9.5t-9.5 22.5z" />
    <glyph glyph-name="perthousand" unicode="&#x2030;" horiz-adv-x="1101" 
d="M565 702h36l-462 -702h-36zM306 565q0 24 -9 45.5t-25 37.5t-37.5 25.5t-45.5 9.5t-45.5 -9.5t-37 -25.5t-25 -37.5t-9.5 -45.5t9 -45.5t25 -37.5t37.5 -25.5t45.5 -9.5t45.5 9.5t37.5 25.5t25 37.5t9 45.5zM336 565q0 -30 -11.5 -57t-31.5 -47t-47 -31.5t-57 -11.5
t-57 11.5t-47 31.5t-31.5 47t-11.5 57t11.5 57t31.5 47t47 31.5t57 11.5t57 -11.5t47 -31.5t31.5 -47t11.5 -57zM398 136q0 -24 9 -45.5t25 -37.5t37.5 -25.5t45.5 -9.5t45.5 9.5t37 25.5t25 37.5t9.5 45.5t-9 45.5t-25 37.5t-37.5 25.5t-45.5 9.5t-45.5 -9.5t-37.5 -25.5
t-25 -37.5t-9 -45.5zM368 136q0 30 11.5 57t31.5 47t47 31.5t57 11.5t57 -11.5t47 -31.5t31.5 -47t11.5 -57t-11.5 -57t-31.5 -47t-47 -31.5t-57 -11.5t-57 11.5t-47 31.5t-31.5 47t-11.5 57zM766 136q0 -24 9 -45.5t25 -37.5t37.5 -25.5t45.5 -9.5t45.5 9.5t37 25.5
t25 37.5t9.5 45.5t-9 45.5t-25 37.5t-37.5 25.5t-45.5 9.5t-45.5 -9.5t-37.5 -25.5t-25 -37.5t-9 -45.5zM736 136q0 30 11.5 57t31.5 47t47 31.5t57 11.5t57 -11.5t47 -31.5t31.5 -47t11.5 -57t-11.5 -57t-31.5 -47t-47 -31.5t-57 -11.5t-57 11.5t-47 31.5t-31.5 47
t-11.5 57z" />
    <glyph glyph-name="guilsinglleft" unicode="&#x2039;" horiz-adv-x="278" 
d="M83 250l151 -182l-27 -13l-163 195l164 194l27 -12z" />
    <glyph glyph-name="guilsinglright" unicode="&#x203a;" horiz-adv-x="278" 
d="M71 444l164 -194l-163 -195l-27 13l151 182l-152 182z" />
    <glyph glyph-name="fraction" unicode="&#x2044;" horiz-adv-x="385" 
d="M411 700l-404 -699h-32l404 699h32z" />
    <glyph glyph-name="franc" unicode="&#x20a3;" horiz-adv-x="601" 
d="M106 0v176h-54v29h54v497h455v-27h-424v-274h372v-27h-372v-169h165v-29h-165v-176h-31z" />
    <glyph glyph-name="lira" unicode="&#x20a4;" horiz-adv-x="604" 
d="M368 682q-58 0 -96 -17t-60 -44t-31 -60t-10 -65v-106h239v-30h-239v-125h240v-30h-240v-175h388v-30h-418v205h-70v30h70v125h-70v30h70v74q0 118 52.5 182.5t174.5 64.5q62 0 108 -22.5t89 -69.5l-11 -33q-21 23 -40.5 41t-41 30t-47 18.5t-57.5 6.5z" />
    <glyph glyph-name="Euro" unicode="&#x20ac;" horiz-adv-x="576" 
d="M430 -14q-49 0 -93.5 19t-81.5 54t-65 84.5t-45 111.5h-95v30h90q-1 11 -2.5 31t-1.5 31q0 8 0.5 29t2.5 40h-89v30h96q17 62 45 111t64.5 83.5t80.5 53t93 18.5q54 0 104 -28l-17 -26q-23 12 -43.5 18t-41.5 6q-88 0 -152 -59.5t-103 -176.5h240v-30h-246
q-2 -17 -3 -32.5t-1 -36.5q0 -11 1.5 -31t2.5 -31h246v-30h-240q16 -55 41.5 -99.5t59 -75.5t73 -47.5t83.5 -16.5q40 0 85 24l17 -26q-50 -28 -105 -28z" />
    <glyph glyph-name="uni20B9" unicode="&#x20b9;" horiz-adv-x="555" 
d="M71 485v30h316q-8 34 -24 62.5t-36 49t-41.5 32t-40.5 11.5h-174v30h419v-30h-168q49 -38 68.5 -77.5t26.5 -77.5h73v-30h-72q-7 -40 -26 -74t-48 -59t-66.5 -39t-81.5 -14h-86l273 -299h-41l-272 299v30h125q74 0 126 42.5t67 113.5h-317z" />
    <glyph glyph-name="trademark" unicode="&#x2122;" horiz-adv-x="648" 
d="M274 674h-95v-269h-26v269h-101v26h231zM445 538l-102 126v-259h-26v295h31l107 -134l110 134h32v-295h-27v260l-105 -127h-20z" />
    <glyph glyph-name="minus" unicode="&#x2212;" horiz-adv-x="553" 
d="M477 366v-30h-401v30h401z" />
    <glyph glyph-name="commaaccent" horiz-adv-x="289" 
d="M118 -156q11 9 20 21t9 32q-14 0 -25 8t-11 23q0 12 8.5 22t22.5 10q20 0 28 -16.5t8 -30.5q0 -31 -11 -51t-36 -39z" />
    <glyph glyph-name="A.alt1" horiz-adv-x="676" 
d="M338 691l-165 -416h239l11 -30h-260l-99 -245h-31l284 720h42l284 -720h-32z" />
    <glyph glyph-name="B.alt1" horiz-adv-x="625" 
d="M190 405h143q28 0 54 11.5t46.5 30.5t33 43.5t12.5 50.5q0 30 -12.5 54t-33.5 41.5t-48.5 26.5t-57.5 9h-208v-671h-30v701h237q36 0 69 -11t58.5 -31.5t40.5 -50t15 -65.5q0 -41 -24.5 -82t-76.5 -71q69 -32 109 -81t40 -106q0 -47 -20.5 -84.5t-54 -64t-77 -40.5
t-89.5 -14h-136l10 30h126q40 0 78 12t67.5 34.5t47.5 55.5t18 74q0 35 -20 65.5t-48 53.5t-58.5 36t-51.5 13h-169z" />
    <glyph glyph-name="D.alt1" horiz-adv-x="723" 
d="M186 29h104q78 0 141 25t107.5 68t69 102t24.5 126t-24.5 126t-69.5 102.5t-108 69t-140 25.5h-175v-673h-30v702h205q84 0 152.5 -27.5t117 -75.5t75.5 -112.5t27 -137.5t-26.5 -136.5t-75.5 -111t-117.5 -74.5t-152.5 -27h-114z" />
    <glyph glyph-name="P.alt1" horiz-adv-x="600" 
d="M328 702q50 0 93.5 -16t76 -43.5t51.5 -64.5t19 -79q0 -41 -18 -77.5t-49.5 -63.5t-73.5 -43t-89 -16h-148l10 30h138q42 0 78.5 13.5t63.5 36.5t42.5 54t15.5 66q0 36 -16.5 68t-45 55t-66.5 36.5t-82 13.5h-216v-672h-30v702h246z" />
    <glyph glyph-name="R.alt1" horiz-adv-x="600" 
d="M316 701q54 0 99.5 -15t78.5 -42t51.5 -64.5t18.5 -82.5q0 -43 -17.5 -79.5t-48.5 -63t-74.5 -41t-96.5 -14.5h-62l267 -299h-41l-265 299l10 30h90q47 0 85.5 12t65.5 34t42 53t15 68q0 39 -16 71t-45 55.5t-69 36t-88 12.5h-205v-671h-30v701h235z" />
    <glyph glyph-name="Q.alt1" horiz-adv-x="797" 
d="M667 31l-21 -21l-47 47q-48 -33 -98.5 -50.5t-100.5 -17.5q-72 0 -135 28t-109.5 77t-73.5 115t-27 141q0 73 27.5 138.5t74 115t109 78.5t131.5 29q72 0 134.5 -28t109.5 -77t74 -114.5t27 -140.5q0 -59 -18.5 -116.5t-50.5 -99.5l-21 21q13 18 24 41t19 49t12.5 53
t4.5 52q0 68 -25 128t-67.5 105t-99.5 71t-121 26t-121 -26.5t-100 -71.5t-68 -105t-25 -128q0 -69 24.5 -129t67 -105t100 -71t122.5 -26q45 0 88 14.5t91 45.5l-114 114l21 21z" />
    <glyph glyph-name="a.alt1" horiz-adv-x="626" 
d="M494 58q-37 -34 -81.5 -52.5t-94.5 -18.5q-56 0 -105.5 21.5t-87 59t-59 87t-21.5 104.5q0 56 21.5 105.5t59 87t87 59.5t105.5 22q36 0 70.5 -10t64.5 -28.5t55 -45.5t42 -60v130h32v-519h-32l2 260q0 50 -19 94t-51 77t-75.5 52.5t-91.5 19.5q-49 0 -92.5 -19.5
t-76 -53t-51.5 -77.5t-19 -94q0 -49 19 -93t51.5 -77t76 -52.5t92.5 -19.5q48 0 93 20t76 54z" />
    <glyph glyph-name="b.alt1" horiz-adv-x="650" 
d="M169 91q31 -34 76 -54t93 -20q49 0 92.5 19.5t76 52.5t51.5 77t19 93q0 50 -19 94t-51.5 77.5t-76 53t-92.5 19.5q-48 0 -91 -19.5t-75.5 -52.5t-51 -77t-18.5 -94l1 -260h-32v700h32v-311q35 67 97.5 105.5t135.5 38.5q56 0 105 -22t86.5 -59.5t59 -87t21.5 -105.5
q0 -55 -21.5 -104.5t-59 -87t-86.5 -59t-105 -21.5q-51 0 -95.5 18.5t-81.5 52.5z" />
    <glyph glyph-name="d.alt1" horiz-adv-x="650" 
d="M494 58q-37 -34 -82 -52.5t-95 -18.5q-56 0 -105.5 21.5t-87 59t-59 87t-21.5 104.5q0 56 21.5 105.5t59 87t87 59.5t105.5 22q73 0 135.5 -38.5t97.5 -105.5v311h31v-700h-31l1 260q0 50 -18.5 94t-51 77t-75.5 52.5t-91 19.5q-49 0 -92.5 -19.5t-76 -53t-51.5 -77.5
t-19 -94q0 -49 19 -93t51.5 -77t76 -52.5t92.5 -19.5q48 0 93 20t75 54z" />
    <glyph glyph-name="e.alt1" horiz-adv-x="601" 
d="M510 71q-40 -42 -90 -62t-103 -20q-35 0 -69.5 9t-66 26t-58 42.5t-45.5 59.5q-28 49 -34 102t8 103t46.5 93t80.5 71q63 36 133 36q73 0 138 -38.5t105 -109.5l-388 -224l-7 30l353 204q-36 53 -88.5 81t-110.5 28q-63 0 -120 -33q-44 -25 -72.5 -63.5t-40.5 -83
t-6.5 -91.5t30.5 -90q35 -60 92 -91t120 -31q47 0 92 18t80 56z" />
    <glyph glyph-name="g.alt1" horiz-adv-x="651" 
d="M538 264q0 50 -18 93t-48.5 74.5t-72 50t-89.5 18.5t-90 -18.5t-73 -50t-49 -74.5t-18 -92t18 -92t49 -75t73.5 -50.5t90.5 -18.5q51 0 91 18.5t71 49.5l10 -31q-35 -32 -79.5 -49.5t-92.5 -17.5q-54 0 -101.5 21t-83 57t-56 84.5t-20.5 103.5t20.5 103t56 84t82 57
t98.5 21q69 0 130.5 -36.5t100.5 -99.5v125h31v-516q0 -47 -19 -86t-52 -68t-77.5 -45t-95.5 -16q-54 0 -98 19t-84 60l11 32q35 -40 77 -60.5t97 -20.5q44 0 82 14t66.5 38.5t45 58t16.5 72.5v263z" />
    <glyph glyph-name="p.alt1" horiz-adv-x="652" 
d="M169 91q31 -34 76 -54t93 -20q49 0 92.5 19.5t76 52.5t51.5 77t19 93q0 50 -19 94t-51.5 77.5t-76 53t-92.5 19.5q-48 0 -91 -19.5t-75.5 -52.5t-51 -77t-18.5 -94l1 -449h-31v708h31v-130q35 67 97.5 105.5t135.5 38.5q56 0 105.5 -22t86.5 -59.5t58.5 -87t21.5 -105.5
q0 -55 -21.5 -104.5t-58.5 -87t-86.5 -59t-105.5 -21.5q-51 0 -95.5 18.5t-81.5 52.5z" />
    <glyph glyph-name="q.alt1" horiz-adv-x="650" 
d="M494 58q-37 -34 -81.5 -52.5t-95.5 -18.5q-56 0 -105.5 21.5t-86.5 59t-58.5 87t-21.5 104.5q0 56 21.5 105.5t58.5 87t86.5 59.5t105.5 22q73 0 135.5 -38.5t97.5 -105.5v130h31v-708h-31l1 449q0 50 -18.5 94t-51 77t-75.5 52.5t-91 19.5q-49 0 -92.5 -19.5t-76 -53
t-51.5 -77.5t-19 -94q0 -49 19 -93t51.5 -77t76 -52.5t92.5 -19.5q48 0 93 20t76 54z" />
  </font>
</defs>
</svg>
