<?xml version="1.0" standalone="no"?>
<!DOCTYPE svg PUBLIC "-//W3C//DTD SVG 1.1//EN" "http://www.w3.org/Graphics/SVG/1.1/DTD/svg11.dtd" >
<svg xmlns="http://www.w3.org/2000/svg" xmlns:xlink="http://www.w3.org/1999/xlink" version="1.1">
<metadata>
Created by FontForge 20170731 at Mon Mar 25 03:27:55 2019
 By Aleksey,,,
(c) 2019 KushJain. All rights reserved.
</metadata>
<defs>
<font id="Meticula-SemiBold" horiz-adv-x="650" >
  <font-face 
    font-family="Meticula-SemiBold"
    font-weight="400"
    font-stretch="normal"
    units-per-em="1000"
    panose-1="0 0 0 0 0 0 0 0 0 0"
    ascent="775"
    descent="-225"
    x-height="520"
    cap-height="700"
    bbox="-89 -254 1197 963"
    underline-thickness="50"
    underline-position="-225"
    unicode-range="U+0020-FB04"
  />
<missing-glyph horiz-adv-x="383" 
d="M383 701v-701h-383v701h383zM105 95h172v511h-172v-511z" />
    <glyph glyph-name="f_f" unicode="ff" horiz-adv-x="785" 
d="M271 712q32 0 58 -7t41 -19l-30 -91q-22 14 -51 14q-36 0 -53 -17.5t-17 -57.5v-19h276v24q0 82 44.5 127.5t123.5 45.5q32 0 58 -7t41 -19l-30 -91q-22 14 -51 14q-36 0 -53 -17.5t-17 -57.5v-19h108l-32 -100h-75v-415h-118v415h-274v-415h-118v415h-62v100h62v24
q0 82 45 127.5t124 45.5z" />
    <glyph glyph-name="fi" unicode="fi" horiz-adv-x="667" 
d="M268 712q31 0 56.5 -6.5t42.5 -19.5l-30 -91q-12 7 -23 10.5t-25 3.5q-39 0 -56 -18.5t-17 -56.5v-19h364v-515h-117v415h-246v-415h-117v415h-63v100h63v24q0 82 44.5 127.5t123.5 45.5z" />
    <glyph glyph-name="fl" unicode="fl" horiz-adv-x="667" 
d="M578 0h-116v415h-245v-415h-117v415h-63v100h63v24q0 82 44.5 127.5t125.5 45.5q31 0 56 -6.5t41 -19.5l-30 -91q-22 14 -51 14q-35 0 -52.5 -18t-17.5 -57v-19h246v185h116v-700z" />
    <glyph glyph-name="f_f_i" unicode="ffi" horiz-adv-x="1050" 
d="M975 515v-515h-116v415h-246v-415h-117v415h-275v-415h-117v415h-62v100h62v24q0 83 45 128t125 45q31 0 56.5 -7t40.5 -19l-30 -91q-22 14 -50 14q-36 0 -53 -18t-17 -57v-19h275v24q0 83 45 128t125 45q31 0 56.5 -7t40.5 -19l-30 -91q-22 14 -50 14q-36 0 -53 -18
t-17 -57v-19h362z" />
    <glyph glyph-name="f_f_l" unicode="ffl" horiz-adv-x="1051" 
d="M857 415h-245v-415h-118v415h-274v-415h-118v415h-62v100h63v24q0 83 45 128t124 45q31 0 57 -7t41 -19l-30 -91q-22 14 -51 14q-36 0 -53 -18t-17 -57v-19h276v24q0 83 45 128t124 45q31 0 57 -7t41 -19l-30 -91q-22 14 -52 14q-35 0 -52 -18t-17 -57v-19h246v185h117
v-700h-117v415z" />
    <glyph glyph-name="f_t" unicode="ft" horiz-adv-x="775" 
d="M270 712q32 0 58 -7t42 -19l-30 -91q-12 7 -23 10.5t-26 3.5q-38 0 -55 -18.5t-17 -56.5v-19h271v185h117v-185h80l32 -100h-112l-1 -251q0 -71 72 -71q14 0 25 3t24 11l30 -91q-36 -26 -96 -26q-81 0 -126 45t-45 127v253h-270v-415h-118v415h-62v100h62v24q0 81 44 127
t124 46z" />
    <glyph glyph-name=".notdef" horiz-adv-x="383" 
d="M383 701v-701h-383v701h383zM105 95h172v511h-172v-511z" />
    <glyph glyph-name="uni0000" horiz-adv-x="236" 
 />
    <glyph glyph-name="uni0000" horiz-adv-x="236" 
 />
    <glyph glyph-name="nonmarkingreturn" horiz-adv-x="236" 
 />
    <glyph glyph-name="space" unicode=" " horiz-adv-x="255" 
 />
    <glyph glyph-name="exclam" unicode="!" horiz-adv-x="273" 
d="M68 60q0 29 21 50t50 21t49.5 -21t20.5 -50t-20.5 -49.5t-49.5 -20.5t-50 20.5t-21 49.5zM199 701l-5 -517h-108l-6 517h119z" />
    <glyph glyph-name="quotedbl" unicode="&#x22;" horiz-adv-x="467" 
d="M132 465q-12 23 -24.5 48.5t-23 49.5t-17 45t-6.5 35q0 30 20 48.5t52 18.5t51.5 -18.5t19.5 -49.5q0 -14 -7 -35t-17.5 -45t-23 -49.5t-24.5 -47.5zM334 465q-12 23 -24.5 48.5t-23 49.5t-17 45t-6.5 35q0 30 20 48.5t52 18.5t51.5 -18.5t19.5 -49.5q0 -14 -7 -35
t-17.5 -45t-23 -49.5t-24.5 -47.5z" />
    <glyph glyph-name="numbersign" unicode="#" horiz-adv-x="725" 
d="M527 286h124l-22 -100h-123l-40 -185h-107l39 185h-150l-39 -185h-107l39 185h-99l22 100h102l30 140h-125l22 100h126l38 176h107l-37 -176h149l38 176h107l-38 -176h94l-22 -100h-98zM303 426l-30 -140h147l30 140h-147z" />
    <glyph glyph-name="dollar" unicode="$" horiz-adv-x="600" 
d="M156 522q0 -70 163 -106q118 -26 176.5 -76t58.5 -129q0 -41 -15 -77.5t-42.5 -65t-66 -47.5t-84.5 -26v-65h-104v65q-75 12 -130 54.5t-78 106.5l90 41q6 -21 22 -39t38.5 -31t50 -20.5t57.5 -7.5q32 0 59 9t46 24t29.5 35t10.5 42q0 41 -35 67t-118 43q-118 24 -178 76
t-60 127q0 37 13.5 68.5t39 55.5t62 39.5t81.5 21.5v63h104l-1 -64q72 -10 121.5 -45.5t67.5 -90.5l-87 -40q-12 35 -53 56t-100 21q-60 0 -99 -23.5t-39 -61.5z" />
    <glyph glyph-name="percent" unicode="%" horiz-adv-x="837" 
d="M592 701h111l-458 -701h-110zM130 538q0 -16 6.5 -30.5t17 -25.5t24.5 -17.5t30 -6.5t30 6.5t24.5 17.5t17 25.5t6.5 30.5q0 34 -23 58t-55 24t-55 -24t-23 -58zM39 538q0 36 13.5 67t36.5 54t54 36.5t65 13.5q35 0 65.5 -13.5t53.5 -36.5t36.5 -54.5t13.5 -66.5
t-13.5 -65.5t-36.5 -53.5t-53.5 -36.5t-65.5 -13.5t-65.5 13.5t-53.5 36.5t-36.5 53.5t-13.5 65.5zM708 160q0 34 -23 58t-55 24q-16 0 -30 -6.5t-24.5 -18t-17 -26t-6.5 -31.5q0 -16 6.5 -31t17 -26t24.5 -17.5t30 -6.5t30 6.5t24.5 17.5t17 26t6.5 31zM799 160
q0 -35 -13.5 -66t-36.5 -54t-53.5 -36.5t-65.5 -13.5t-65.5 13.5t-53.5 36.5t-36.5 54t-13.5 66q0 36 13.5 67t36.5 54t54 36.5t65 13.5q35 0 65.5 -13.5t53.5 -36.5t36.5 -54t13.5 -67z" />
    <glyph glyph-name="ampersand" unicode="&#x26;" horiz-adv-x="721" 
d="M433 138q-46 44 -92 94.5t-88 103.5q-42 -22 -60 -48t-18 -62q0 -57 39 -91t105 -34q61 0 114 37zM247 547q0 -18 16.5 -46.5t42 -61.5t57 -68t61 -66t54.5 -55.5t37 -36.5q14 25 23 54t13 62l108 -17q-5 -48 -22 -93t-46 -82l66 -65l-78 -78l-66 65q-44 -33 -94.5 -50.5
t-104.5 -17.5q-55 0 -102 17t-81.5 48t-53.5 73t-19 92q0 128 128 200q-29 38 -42 68.5t-13 60.5q0 33 14.5 62.5t40 51t59 34t72.5 12.5t72.5 -13t57.5 -36.5t37.5 -56t13.5 -70.5h-113q0 32 -19.5 51t-50.5 19q-29 0 -48.5 -16.5t-19.5 -40.5z" />
    <glyph glyph-name="quotesingle" unicode="'" horiz-adv-x="283" 
d="M141 465q-12 23 -24.5 48.5t-23 49.5t-17 45t-6.5 35q0 30 20 48.5t52 18.5t51.5 -18.5t19.5 -49.5q0 -14 -7 -35t-17.5 -45t-23 -49.5t-24.5 -47.5z" />
    <glyph glyph-name="parenleft" unicode="(" horiz-adv-x="454" 
d="M73 315q0 265 218 441l71 -77q-46 -46 -79 -89.5t-53 -87t-29.5 -89t-9.5 -97.5t9.5 -98.5t30 -90t53 -87t78.5 -89.5l-71 -77q-218 176 -218 441z" />
    <glyph glyph-name="parenright" unicode=")" horiz-adv-x="454" 
d="M89 -49q46 46 78 89.5t52.5 87t30 90t9.5 98.5t-9.5 97.5t-29.5 89t-52.5 87t-78.5 89.5l70 77q218 -175 218 -441q0 -134 -53.5 -243t-164.5 -198z" />
    <glyph glyph-name="asterisk" unicode="*" horiz-adv-x="440" 
d="M252 468q3 -23 6.5 -45t3.5 -37q0 -26 -11 -41t-31 -15t-31.5 14.5t-11.5 39.5q0 16 4 38t6 45q-14 -10 -35 -26.5t-36 -23.5q-20 -10 -37 -10q-25 0 -34 21q-8 18 1 36t29 27q6 2 17.5 6.5t24 9.5t24.5 9.5t18 7.5q-7 2 -19 6.5t-25.5 10t-25.5 10.5t-19 8
q-20 10 -27.5 28.5t2.5 34.5q11 19 35 19q14 0 27 -6q8 -4 18.5 -10.5t21.5 -14.5t21.5 -16t18.5 -14q-3 25 -6.5 47.5t-3.5 36.5q0 24 12 39.5t31 15.5q18 0 30 -16t12 -40q0 -14 -3.5 -36.5t-7.5 -46.5q23 16 40 27t31 17q20 10 39 10q22 0 33 -17q10 -17 2 -34.5
t-31 -31.5q-12 -8 -31 -14.5t-49 -13.5l21 -7l24 -8t22 -7.5t14 -5.5q21 -9 30 -28.5t0 -37.5q-11 -20 -34 -20q-18 0 -44 14q-15 8 -33.5 22t-32.5 23z" />
    <glyph glyph-name="plus" unicode="+" horiz-adv-x="648" 
d="M569 295h-187v-186h-116v186h-188v111h188v186h116v-186h187v-111z" />
    <glyph glyph-name="comma" unicode="," horiz-adv-x="302" 
d="M227 26q0 -50 -24.5 -92.5t-72.5 -71.5l-42 67q17 11 27 27.5t10 35.5q-22 8 -35.5 27t-13.5 42q0 30 21.5 50.5t50.5 20.5q35 0 57 -29t22 -77z" />
    <glyph glyph-name="hyphen" unicode="-" horiz-adv-x="417" 
d="M365 382v-107h-312v107h312z" />
    <glyph glyph-name="period" unicode="." horiz-adv-x="291" 
d="M74 63q0 29 21.5 50.5t51.5 21.5q29 0 50 -21.5t21 -50.5q0 -30 -21 -51.5t-50 -21.5q-30 0 -51.5 21.5t-21.5 51.5z" />
    <glyph glyph-name="slash" unicode="/" horiz-adv-x="449" 
d="M462 739l-370 -793h-113l370 793h113z" />
    <glyph glyph-name="zero" unicode="0" horiz-adv-x="700" 
d="M532 347q0 51 -14.5 97t-39 80.5t-57.5 54.5t-70 20t-70.5 -20t-58.5 -54.5t-39.5 -80.5t-14.5 -97q0 -50 14.5 -95t40 -79t59 -54t70.5 -20t70 19.5t57.5 53.5t38.5 79t14 96zM51 347q0 74 23.5 140t64 115t95 77.5t115.5 28.5q62 0 116.5 -28.5t95.5 -77.5t65 -115
t24 -140q0 -73 -23.5 -138t-64.5 -113.5t-95.5 -77t-116.5 -28.5q-61 0 -115.5 28t-95.5 77t-64.5 114t-23.5 138z" />
    <glyph glyph-name="one" unicode="1" horiz-adv-x="421" 
d="M314 700v-700h-118v546l-106 -89l-36 111l155 132h105z" />
    <glyph glyph-name="two" unicode="2" horiz-adv-x="616" 
d="M70 100l303 253q38 33 54.5 61.5t16.5 59.5q0 27 -11 50t-30.5 40t-46 26.5t-57.5 9.5q-51 0 -89.5 -25.5t-58.5 -73.5l-95 42q35 81 98 124t147 43q55 0 102.5 -18t83 -50t55.5 -74.5t20 -92.5q0 -55 -26.5 -102.5t-82.5 -94.5l-205 -173h311v-105h-489v100z" />
    <glyph glyph-name="three" unicode="3" horiz-adv-x="621" 
d="M553 607l-151 -157q36 -12 65.5 -33.5t50.5 -50t32 -62t11 -71.5q0 -52 -21 -97t-57.5 -78t-86.5 -52t-107 -19q-156 0 -242 150l89 51q54 -91 149 -91q35 0 64.5 10.5t51 29t33.5 44t12 55.5q0 63 -51 99t-144 36l-20 59l156 164h-325v106h491v-93z" />
    <glyph glyph-name="four" unicode="4" horiz-adv-x="640" 
d="M194 241h197v265zM44 228q48 64 91 121.5t85 114t84.5 114.5t90.5 122h114v-459h97v-106h-97v-135h-118v135h-347v93z" />
    <glyph glyph-name="five" unicode="5" horiz-adv-x="630" 
d="M95 700h456v-105h-349l-8 -141q56 33 127 33q57 0 105.5 -19t84 -52t55 -79t19.5 -100q0 -55 -20.5 -100.5t-58 -78.5t-89.5 -51t-114 -18q-73 0 -137 30t-113 87l35 109q37 -54 93 -84.5t122 -30.5q75 0 119.5 37t44.5 100q0 31 -11.5 56.5t-32 44t-49 28.5t-63.5 10
q-47 0 -91.5 -18.5t-79.5 -53.5l-64 37z" />
    <glyph glyph-name="six" unicode="6" horiz-adv-x="620" 
d="M568 224q0 -50 -19.5 -92.5t-54 -74t-80.5 -49.5t-100 -18q-57 0 -103.5 20.5t-79.5 58t-51 91t-18 118.5q0 92 34.5 169.5t96.5 133.5t147.5 87.5t187.5 31.5l-35 -108q-48 0 -92 -13t-80.5 -36t-64 -56t-43.5 -74q49 37 119 37q50 0 93.5 -17.5t75 -47.5t49.5 -71.5
t18 -89.5zM187 223q0 -26 10 -48.5t27 -39t41 -25.5t52 -9q29 0 53.5 9.5t42.5 26t28 39t10 48.5q0 51 -36.5 83t-96.5 32q-59 0 -95 -32t-36 -84z" />
    <glyph glyph-name="seven" unicode="7" horiz-adv-x="615" 
d="M572 610l-339 -610h-131l330 596h-389v105h529v-91z" />
    <glyph glyph-name="eight" unicode="8" horiz-adv-x="620" 
d="M44 208q0 54 28.5 101.5t76.5 73.5q-36 26 -56.5 61t-20.5 79q0 43 19.5 77.5t52 59t75.5 38t90 13.5t90 -13.5t75.5 -38t52 -59.5t19.5 -78t-20 -77.5t-57 -62.5q49 -26 77.5 -72t28.5 -100q0 -48 -22.5 -88.5t-59.5 -70t-85 -46t-99 -16.5t-99 16.5t-84.5 46t-59 69.5
t-22.5 87zM309 604q-23 0 -45 -5.5t-39 -16t-27.5 -26.5t-10.5 -36t10.5 -36t27.5 -27.5t39 -17.5t45 -6t45 6t39.5 17.5t28 27.5t10.5 36t-10.5 36t-28 26.5t-39.5 16t-45 5.5zM309 100q29 0 55.5 8t47 22.5t33 35.5t12.5 48q0 26 -12 47t-32.5 35.5t-47 22t-55.5 7.5
t-56 -7.5t-47.5 -22t-32.5 -35.5t-12 -47q0 -27 12 -48t32.5 -35.5t47 -22.5t55.5 -8z" />
    <glyph glyph-name="nine" unicode="9" horiz-adv-x="619" 
d="M52 478q0 50 19.5 93t54 74.5t81 49t99.5 17.5q57 0 103.5 -20.5t79.5 -58t51 -90.5t18 -119q0 -92 -34.5 -169.5t-96.5 -133.5t-147.5 -87.5t-187.5 -31.5l35 108q48 0 92 13t80.5 36.5t64 57t43.5 73.5q-49 -37 -119 -37q-50 0 -93.5 17.5t-75 47.5t-49.5 71t-18 89z
M433 479q0 54 -36.5 88t-93.5 34q-29 0 -53.5 -9t-42.5 -25.5t-28 -39t-10 -48.5q0 -51 36.5 -83t96.5 -32q59 0 95 31.5t36 83.5z" />
    <glyph glyph-name="colon" unicode=":" horiz-adv-x="420" 
d="M139 63q0 30 21 51.5t51 21.5q29 0 50.5 -21.5t21.5 -51.5t-21.5 -51.5t-50.5 -21.5q-30 0 -51 21.5t-21 51.5zM139 434q0 30 21 51.5t51 21.5q29 0 50.5 -21.5t21.5 -51.5q0 -29 -21.5 -50.5t-50.5 -21.5q-30 0 -51 21.5t-21 50.5z" />
    <glyph glyph-name="semicolon" unicode=";" horiz-adv-x="292" 
d="M222 26q0 -50 -24.5 -92.5t-72.5 -71.5l-42 68q17 11 27 27.5t10 35.5q-22 8 -35.5 26.5t-13.5 41.5q0 30 21.5 51t50.5 21q35 0 57 -29.5t22 -77.5zM75 433q0 30 21 51t51 21q29 0 50.5 -21t21.5 -51t-21.5 -51.5t-50.5 -21.5q-30 0 -51 21.5t-21 51.5z" />
    <glyph glyph-name="less" unicode="&#x3c;" horiz-adv-x="638" 
d="M72 400l474 229v-120l-328 -159l328 -159v-120l-474 229v100z" />
    <glyph glyph-name="equal" unicode="=" horiz-adv-x="574" 
d="M493 476v-103h-412v103h412zM493 272v-103h-412v103h412z" />
    <glyph glyph-name="greater" unicode="&#x3e;" horiz-adv-x="638" 
d="M559 300l-474 -229v120l328 159l-328 159v120l474 -229v-100z" />
    <glyph glyph-name="question" unicode="?" horiz-adv-x="525" 
d="M168 62q0 30 21.5 51t51.5 21t50.5 -21t20.5 -51q0 -29 -20.5 -50.5t-50.5 -21.5t-51.5 21.5t-21.5 50.5zM180 195v152q39 13 75.5 27t64 32.5t44 42t16.5 56.5q0 48 -32.5 72t-90.5 24q-48 0 -80 -17t-54 -58l-87 50q35 70 87.5 102.5t133.5 32.5q54 0 98.5 -14.5
t76 -42t49 -67t17.5 -88.5q0 -42 -14 -75t-40.5 -59.5t-63.5 -47.5t-82 -39v-83h-118z" />
    <glyph glyph-name="at" unicode="@" horiz-adv-x="905" 
d="M541 209q-12 -12 -28 -22t-35 -17.5t-38.5 -11.5t-38.5 -4q-34 0 -63.5 12.5t-51 35t-33.5 53t-12 66.5q0 44 18 84t47.5 71t68 49.5t80.5 18.5q58 0 102 -35l4 23h87q-6 -33 -12.5 -67t-12 -65t-10 -58.5t-8.5 -48.5q-5 -28 7 -44t38 -16q41 0 64.5 34t23.5 94
q0 53 -23.5 102.5t-63 87.5t-90.5 61t-105 23q-57 0 -109 -24t-92 -64t-64 -92.5t-24 -109.5t22.5 -109t60.5 -91t88 -62.5t105 -23.5q44 0 89.5 13.5t81.5 42.5l41 -64q-49 -35 -102.5 -51t-108.5 -16q-71 0 -135 29t-112.5 78.5t-77 115t-28.5 138.5q0 72 29.5 138.5
t80 116.5t116.5 80t138 30t137 -29t114.5 -78.5t78.5 -114t29 -136.5q0 -45 -12 -82.5t-33 -64.5t-50 -42t-64 -15q-40 0 -69.5 16t-44.5 45zM533 386q5 30 -15.5 49.5t-55.5 19.5q-25 0 -48.5 -11t-41.5 -29t-28.5 -42t-10.5 -50q0 -36 20.5 -56.5t55.5 -20.5q28 0 54 14
t58 46z" />
    <glyph glyph-name="A" unicode="A" horiz-adv-x="726" 
d="M363 529l-97 -246h194zM420 700l277 -700h-125l-71 180h-275l-71 -180h-125l276 700h114z" />
    <glyph glyph-name="B" unicode="B" 
d="M202 595v-159h151q33 0 57 24.5t24 57.5q0 34 -25.5 55.5t-61.5 21.5h-145zM202 331v-224h136q27 0 52 8.5t44 24.5t30.5 37.5t11.5 46.5q0 24 -9.5 43.5t-26 33.5t-38.5 22t-47 8h-153zM84 1v700h262q42 0 79.5 -13t65.5 -37t44 -57t16 -73q0 -38 -15 -71.5t-43 -56.5
q48 -32 74 -76.5t26 -98.5q0 -48 -20.5 -88t-55.5 -68.5t-81 -44.5t-98 -16h-254z" />
    <glyph glyph-name="C" unicode="C" horiz-adv-x="685" 
d="M647 104q-50 -55 -116 -85t-140 -30q-70 0 -132.5 28.5t-109.5 77.5t-74.5 114.5t-27.5 139.5t27.5 139.5t75 115t110.5 78t133 28.5q74 0 139.5 -30t115.5 -86l-78 -78q-35 42 -79 63.5t-95 21.5q-48 0 -90 -19.5t-73.5 -53.5t-50 -80t-18.5 -98t18.5 -98t50 -80
t73.5 -54t90 -20q50 0 94 21.5t78 62.5z" />
    <glyph glyph-name="D" unicode="D" horiz-adv-x="736" 
d="M201 595v-489h108q58 0 105 18.5t80.5 51t51.5 77.5t18 97q0 53 -18 98t-51.5 77.5t-80.5 51t-105 18.5h-108zM83 0v701h226q82 0 150.5 -27t118 -74.5t77 -111.5t27.5 -139t-27.5 -138.5t-76.5 -110.5t-117.5 -73.5t-151.5 -26.5h-226z" />
    <glyph glyph-name="E" unicode="E" horiz-adv-x="625" 
d="M80 1v699h499v-106h-381v-162h335v-106h-335v-219h381v-106h-499z" />
    <glyph glyph-name="F" unicode="F" horiz-adv-x="626" 
d="M80 701h499v-106h-381v-163h335v-106h-335v-327h-118v702z" />
    <glyph glyph-name="G" unicode="G" horiz-adv-x="724" 
d="M651 381v-280q-114 -111 -253 -111q-73 0 -137.5 28t-112.5 76.5t-76 114t-28 139.5q0 75 28 140.5t76 115t112 78t136 28.5q64 0 122.5 -22t98.5 -58l-57 -98q-32 32 -74.5 50.5t-89.5 18.5q-48 0 -90 -19.5t-74 -53t-50.5 -79t-18.5 -97.5t18.5 -98t50 -80.5
t73.5 -54.5t88 -20q40 0 79 14t62 34v128h-143v106h260z" />
    <glyph glyph-name="H" unicode="H" horiz-adv-x="701" 
d="M502 432v269h117v-701h-117v326h-303v-326h-117v701h117v-269h303z" />
    <glyph glyph-name="I" unicode="I" horiz-adv-x="298" 
d="M209 700v-700h-118v700h118z" />
    <glyph glyph-name="J" unicode="J" horiz-adv-x="470" 
d="M394 211q0 -44 -15.5 -84t-43.5 -70.5t-66.5 -48.5t-84.5 -18q-39 0 -78 15t-69 46l31 98q26 -28 52 -37.5t49 -9.5q26 0 46 9.5t34 25t21 35.5t7 40v488h117v-489z" />
    <glyph glyph-name="K" unicode="K" horiz-adv-x="655" 
d="M622 0h-137l-224 317l-66 -69v-248h-114v700h114v-287l277 287h152l-283 -300z" />
    <glyph glyph-name="L" unicode="L" horiz-adv-x="590" 
d="M77 0v701h118v-595h329v-106h-447z" />
    <glyph glyph-name="M" unicode="M" horiz-adv-x="821" 
d="M354 297l-158 208v-505h-118v700h115l216 -283l219 283h115v-700h-118v507l-162 -210h-109z" />
    <glyph glyph-name="N" unicode="N" horiz-adv-x="760" 
d="M567 0l-373 506v-506h-117v700h117l372 -504v504h117v-700h-116z" />
    <glyph glyph-name="O" unicode="O" horiz-adv-x="793" 
d="M630 350q0 52 -18.5 97.5t-50 79.5t-74 54t-91.5 20q-48 0 -90.5 -20t-74 -54t-50 -79.5t-18.5 -97.5q0 -51 18.5 -97t50.5 -80t74.5 -54t90.5 -20t90.5 20t74 54t50 79.5t18.5 97.5zM45 349q0 75 27.5 140.5t75.5 114.5t112 77.5t137 28.5t137 -28t111.5 -77t75 -114.5
t27.5 -140.5t-27.5 -140.5t-75 -114t-111.5 -77t-137 -28.5t-137 28t-112 77t-75.5 114t-27.5 140z" />
    <glyph glyph-name="P" unicode="P" horiz-adv-x="656" 
d="M199 369h164q25 0 48 9t40.5 25t28 36.5t10.5 42.5q0 24 -9.5 44.5t-27 36t-40.5 24t-50 8.5h-164v-226zM81 701h282q52 0 96.5 -17t77.5 -46t52 -69t19 -87q0 -44 -19.5 -84t-53.5 -70t-78 -47.5t-94 -17.5h-164v-263h-118v701z" />
    <glyph glyph-name="Q" unicode="Q" horiz-adv-x="799" 
d="M400 601q-48 0 -90 -19.5t-73.5 -53.5t-50 -79.5t-18.5 -98.5q0 -52 19 -97.5t51 -80t74.5 -54.5t88.5 -20q24 0 43 5t39 15l-87 88l81 81l99 -100q26 31 41.5 74t15.5 89q0 51 -18.5 96.5t-50.5 80t-74 54.5t-90 20zM49 350q0 74 28.5 139t76.5 114.5t111 78t133 28.5
q74 0 138.5 -28.5t112 -77t75 -114t27.5 -139.5t-25 -136t-68 -110l43 -43l-81 -82l-53 54q-39 -24 -81.5 -34t-84.5 -10q-73 0 -137 28t-112 77t-75.5 114.5t-27.5 140.5z" />
    <glyph glyph-name="R" unicode="R" horiz-adv-x="665" 
d="M490 482q0 49 -35.5 80.5t-95.5 31.5h-160v-225h161q27 0 51 9t41.5 24t27.5 35.5t10 44.5zM199 263v-263h-118v700h279q54 0 99.5 -16.5t78.5 -46t51.5 -69t18.5 -86.5q0 -40 -15.5 -76t-42.5 -64t-64 -47t-79 -25l-20 -2l227 -268h-145l-223 263h-47z" />
    <glyph glyph-name="S" unicode="S" horiz-adv-x="600" 
d="M125 198q6 -22 22 -40t38 -31t49 -20.5t57 -7.5q32 0 58.5 8.5t46 23t30.5 34.5t11 44q0 42 -36 67.5t-116 42.5q-238 49 -238 204q0 42 17.5 76.5t49.5 59t77 38t100 13.5q92 0 156 -37t87 -103l-87 -40q-12 35 -53 56t-98 21q-62 0 -100.5 -23.5t-38.5 -61.5
q0 -70 163 -106q120 -27 177.5 -77t57.5 -128q0 -48 -20 -88.5t-54.5 -70t-82 -46t-103.5 -16.5q-46 0 -88 12t-75.5 33.5t-58.5 52.5t-38 69z" />
    <glyph glyph-name="T" unicode="T" horiz-adv-x="625" 
d="M592 594h-221v-594h-117v594h-221v106h559v-106z" />
    <glyph glyph-name="U" unicode="U" horiz-adv-x="765" 
d="M83 700h117v-441q0 -33 14.5 -62t39 -51t58 -34.5t70.5 -12.5q38 0 71.5 12.5t58.5 34.5t39.5 51t14.5 62v441h117v-443q0 -55 -24 -104t-65 -85.5t-95.5 -57.5t-116.5 -21q-61 0 -115.5 21t-95.5 57.5t-64.5 85.5t-23.5 104v443z" />
    <glyph glyph-name="V" unicode="V" horiz-adv-x="726" 
d="M307 0l-275 700h124l207 -523l207 523h124l-275 -700h-112z" />
    <glyph glyph-name="W" unicode="W" horiz-adv-x="1087" 
d="M601 648l156 -451l175 503h124l-243 -700h-109l-159 457l-161 -457h-109l-244 700h125l175 -504l158 452h112z" />
    <glyph glyph-name="X" unicode="X" horiz-adv-x="687" 
d="M521 0l-177 262l-178 -262h-136l244 361l-229 339h135l164 -243l164 243h134l-229 -338l245 -362h-137z" />
    <glyph glyph-name="Y" unicode="Y" horiz-adv-x="692" 
d="M34 700h135l178 -283l178 283h135l-255 -406l1 -294h-118l-1 294z" />
    <glyph glyph-name="Z" unicode="Z" horiz-adv-x="654" 
d="M39 93l416 501h-407v106h567v-93l-416 -501h403v-106h-563v93z" />
    <glyph glyph-name="bracketleft" unicode="[" horiz-adv-x="413" 
d="M97 -80v828h236v-106h-118v-616h118v-106h-236z" />
    <glyph glyph-name="backslash" unicode="\" horiz-adv-x="444" 
d="M353 -51l-368 789h113l368 -789h-113z" />
    <glyph glyph-name="bracketright" unicode="]" horiz-adv-x="411" 
d="M309 -80h-235v106h117v616h-117v106h235v-828z" />
    <glyph glyph-name="asciicircum" unicode="^" horiz-adv-x="761" 
d="M429 700l217 -275h-134l-131 153l-132 -153h-134l218 275h96z" />
    <glyph glyph-name="underscore" unicode="_" horiz-adv-x="573" 
d="M547 -78v-105h-522v105h522z" />
    <glyph glyph-name="grave" unicode="`" horiz-adv-x="351" 
d="M43 713l111 37l84 -171h-81z" />
    <glyph glyph-name="a" unicode="a" 
d="M465 260q0 34 -12 63.5t-33 51.5t-49 34.5t-60 12.5q-33 0 -61 -12.5t-48.5 -34.5t-32.5 -51.5t-12 -64.5q0 -34 11.5 -63.5t32 -51t48.5 -33.5t61 -12t61.5 12.5t49 34.5t32.5 51t12 63zM297 530q50 0 93 -18.5t75 -54.5v64h117v-520h-117v64q-34 -37 -77 -56t-91 -19
q-52 0 -99 21.5t-82.5 59t-56 87t-20.5 105.5q0 55 20.5 103.5t55.5 85t82 57.5t100 21z" />
    <glyph glyph-name="b" unicode="b" horiz-adv-x="651" 
d="M188 260q0 -34 12 -63t32.5 -51t49 -34.5t61.5 -12.5t61 12t48.5 33.5t32 51t11.5 63.5q0 35 -12 64.5t-32.5 51.5t-48.5 34.5t-61 12.5q-32 0 -60 -12.5t-49 -34.5t-33 -51.5t-12 -63.5zM356 530q54 0 101 -21t82 -57.5t55 -85t20 -103.5q0 -56 -20.5 -105.5t-56 -87
t-82 -59t-99.5 -21.5q-48 0 -91 19t-77 56v-64h-117v700h117v-244q32 36 75 54.5t93 18.5z" />
    <glyph glyph-name="c" unicode="c" horiz-adv-x="540" 
d="M435 356q-22 31 -57 49t-72 18q-31 0 -59 -13t-49 -35.5t-33.5 -52t-12.5 -62.5t12.5 -62.5t33.5 -51.5t49.5 -34.5t61.5 -12.5q37 0 70 16.5t56 48.5l76 -75q-83 -98 -204 -98q-57 0 -106.5 21t-86.5 57t-58 85t-21 105t21 105.5t57.5 86.5t86 58.5t105.5 21.5
q60 0 113 -25t93 -73z" />
    <glyph glyph-name="d" unicode="d" 
d="M461 260q0 34 -12 63.5t-33 51.5t-49 34.5t-61 12.5q-32 0 -60 -12.5t-49 -34.5t-33 -51.5t-12 -64.5q0 -34 11.5 -63.5t32 -51t48.5 -33.5t61 -12t61.5 12.5t49.5 34.5t33 51t12 63zM293 530q49 0 92.5 -18.5t75.5 -54.5v244h117v-700h-117v64q-34 -37 -77 -56t-91 -19
q-53 0 -100 21.5t-82 59t-55.5 87t-20.5 105.5q0 55 20 103.5t55 85t82 57.5t101 21z" />
    <glyph glyph-name="e" unicode="e" horiz-adv-x="610" 
d="M453 308q-14 51 -54 83t-92 32q-51 0 -90.5 -31t-55.5 -84h292zM509 85q-32 -43 -87.5 -68.5t-117.5 -25.5q-55 0 -104 21t-86 58t-58 86t-21 105t21.5 104.5t59 85t87.5 57.5t107 21q62 0 113.5 -24.5t87.5 -67t54 -100.5t12 -125h-415q6 -25 20 -46t34 -36.5t45 -24
t52 -8.5q38 0 69.5 16t54.5 45z" />
    <glyph glyph-name="f" unicode="f" horiz-adv-x="390" 
d="M340 595q-21 14 -51 14q-36 0 -52.5 -18t-16.5 -57v-19h108l-33 -100h-75v-415h-117v415h-63v100h63v24q0 81 44.5 127t123.5 46q31 0 57 -6.5t42 -19.5z" />
    <glyph glyph-name="g" unicode="g" horiz-adv-x="642" 
d="M36 267q0 54 20 102t54 83.5t79.5 56t97.5 20.5q94 0 163 -71v61h118v-489q0 -53 -19.5 -97t-55 -75.5t-85 -49t-109.5 -17.5q-116 0 -188 69l32 95q23 -27 61 -42.5t85 -15.5q35 0 64.5 9t51 24.5t33.5 37.5t12 48v52q-69 -71 -161 -71q-51 0 -97 21.5t-80.5 58.5
t-55 86t-20.5 104zM302 106q32 0 59 12t47 33t31 49.5t11 61.5q0 34 -11.5 63t-31.5 50.5t-47 33.5t-59 12q-31 0 -58 -12t-47 -33t-31 -50t-11 -63t11 -63t31 -50t47 -32.5t59 -11.5z" />
    <glyph glyph-name="h" unicode="h" horiz-adv-x="646" 
d="M355 529q46 0 85.5 -17.5t68.5 -49t45.5 -74t16.5 -92.5v-295h-117v291q0 56 -33.5 91.5t-86.5 35.5q-29 0 -54.5 -11t-45 -29.5t-30.5 -43.5t-11 -53v-281h-118v701h118v-247q29 35 71.5 54.5t90.5 19.5z" />
    <glyph glyph-name="i" unicode="i" horiz-adv-x="270" 
d="M70 652q0 28 18.5 47t46.5 19q27 0 46 -19t19 -47t-19 -47t-46 -19q-28 0 -46.5 19t-18.5 47zM193 521v-520h-116v520h116z" />
    <glyph glyph-name="j" unicode="j" horiz-adv-x="270" 
d="M193 -28q0 -85 -44.5 -133t-125.5 -48q-57 0 -101 29l31 94q19 -16 53 -16q71 2 71 82l-1 540h117v-548zM70 652q0 27 19 46t46 19t46 -19t19 -46t-19 -46.5t-46 -19.5t-46 19.5t-19 46.5z" />
    <glyph glyph-name="k" unicode="k" horiz-adv-x="600" 
d="M566 520l-224 -192l233 -329h-145l-177 252l-62 -53v-197h-117v699h117v-351l202 171h173z" />
    <glyph glyph-name="l" unicode="l" horiz-adv-x="275" 
d="M197 700v-699h-117v699h117z" />
    <glyph glyph-name="m" unicode="m" horiz-adv-x="928" 
d="M649 530q46 0 84 -16t65.5 -44.5t42.5 -67.5t15 -86v-316h-116v306q0 53 -27.5 84t-72.5 31q-24 0 -45.5 -9.5t-37 -25.5t-24.5 -38t-9 -47v-301h-117v309q0 50 -28 81t-73 31q-24 0 -45 -9.5t-36.5 -26.5t-24.5 -40t-9 -49v-296h-117v520h117v-55q23 30 60 47.5t79 17.5
q48 0 86.5 -22.5t64.5 -65.5q61 88 168 88z" />
    <glyph glyph-name="n" unicode="n" horiz-adv-x="614" 
d="M342 530q45 0 83 -16.5t65.5 -45.5t43.5 -68.5t16 -85.5v-314h-116v308q0 24 -8.5 44.5t-23.5 35t-36 23t-46 8.5q-27 0 -51 -9.5t-41 -27t-27 -41t-10 -50.5v-291h-117v521h117v-57q24 31 65 48.5t86 17.5z" />
    <glyph glyph-name="o" unicode="o" horiz-adv-x="615" 
d="M463 259q0 33 -12.5 63t-33.5 52t-49 35t-60 13q-31 0 -59 -13t-49 -35.5t-33.5 -52t-12.5 -62.5t12.5 -62t33.5 -50.5t49 -34.5t59 -13q32 0 60 12.5t49 34.5t33.5 51t12.5 62zM37 259q0 56 21.5 105.5t58 86.5t86 58t105.5 21t105.5 -21t86.5 -58t58.5 -86t21.5 -106
q0 -56 -21.5 -105t-58 -85t-86 -57t-106.5 -21q-56 0 -105.5 21t-86 57.5t-58 85.5t-21.5 104z" />
    <glyph glyph-name="p" unicode="p" 
d="M188 261q0 -34 12 -63.5t33 -51.5t49 -34.5t60 -12.5q33 0 61 12.5t48.5 34.5t32.5 52t12 64t-11.5 63.5t-32 51t-48.5 33.5t-61 12t-61.5 -12.5t-49 -34t-32.5 -51t-12 -63.5zM356 -9q-50 0 -93 18.5t-75 54.5v-264h-117v720h117v-64q34 37 77 55.5t91 18.5
q53 0 99.5 -21.5t82 -58.5t56 -86.5t20.5 -105.5q0 -55 -20 -103.5t-55 -85t-82 -57.5t-101 -21z" />
    <glyph glyph-name="q" unicode="q" 
d="M461 261q0 34 -12 63.5t-32.5 51.5t-49 34.5t-61.5 12.5t-61 -12.5t-48.5 -34t-32 -51t-11.5 -63.5t12 -64t32.5 -52t48.5 -34.5t61 -12.5q32 0 60 12.5t49 34.5t33 51.5t12 63.5zM293 -9q-54 0 -101 21t-82 57.5t-55 85.5t-20 104q0 56 20.5 105t56 86.5t82.5 59
t99 21.5q48 0 91 -18.5t77 -56.5v65h117v-721h-117v264q-32 -36 -75 -54.5t-93 -18.5z" />
    <glyph glyph-name="r" unicode="r" horiz-adv-x="400" 
d="M190 453q40 43 90.5 58t107.5 15l-36 -110q-74 0 -118 -40t-44 -116v-260h-117v520h117v-67z" />
    <glyph glyph-name="s" unicode="s" horiz-adv-x="510" 
d="M116 152q17 -28 52 -45t75 -17q21 0 39.5 5t32.5 13.5t22 20t8 24.5q0 21 -22 35t-55.5 26t-72 24t-72 30t-55.5 44t-22 66q0 33 15.5 61t43 49t65 32.5t81.5 11.5q72 0 127 -29.5t75 -79.5l-78 -46q-14 27 -45 42t-73 15t-69.5 -15t-28.5 -38q0 -17 22.5 -28.5t56 -22.5
t73 -23.5t73 -32t56 -48t22.5 -71.5q0 -35 -16.5 -65.5t-45.5 -53t-68.5 -35t-86.5 -12.5q-72 0 -129 30t-85 82z" />
    <glyph glyph-name="t" unicode="t" horiz-adv-x="400" 
d="M370 15q-37 -26 -95 -26q-82 0 -127 45t-45 127v253h-62v100h62v186h117v-186h79l33 -100h-112l-1 -251q0 -71 72 -71q25 0 49 14z" />
    <glyph glyph-name="u" unicode="u" horiz-adv-x="613" 
d="M278 -10q-45 0 -83.5 16.5t-66 46t-43.5 69t-16 85.5v313h117v-308q0 -48 31.5 -79.5t82.5 -31.5q27 0 50.5 10t40.5 27t27 41t10 51v290h117v-521h-117v58q-24 -32 -64.5 -49.5t-85.5 -17.5z" />
    <glyph glyph-name="v" unicode="v" horiz-adv-x="580" 
d="M234 0l-207 520h125l138 -345l138 345h125l-207 -520h-112z" />
    <glyph glyph-name="w" unicode="w" horiz-adv-x="867" 
d="M487 511l112 -299l114 308h124l-194 -520h-89l-120 320l-119 -320h-90l-195 520h125l115 -308l110 299h107z" />
    <glyph glyph-name="x" unicode="x" horiz-adv-x="608" 
d="M439 0l-135 185l-136 -185h-141l206 280l-175 240h141l105 -143l104 143h141l-175 -239l206 -281h-141z" />
    <glyph glyph-name="y" unicode="y" horiz-adv-x="610" 
d="M101 -88q25 -13 45 -13q35 0 55.5 34t39.5 87l-212 500h126l150 -352l150 352h126l-265 -615q-23 -53 -65.5 -82t-91.5 -29q-46 0 -88 27z" />
    <glyph glyph-name="z" unicode="z" horiz-adv-x="525" 
d="M481 424l-273 -316h273v-108h-434v96l273 317h-275v108h436v-97z" />
    <glyph glyph-name="braceleft" unicode="{" horiz-adv-x="380" 
d="M196 312q22 -28 22 -61v-171q0 -43 29 -66.5t80 -23.5v-96q-49 0 -89 12.5t-69 35.5t-45 54.5t-16 70.5v164q0 15 -11 25.5t-27 11.5h-7v91h7q17 0 27.5 10t10.5 25v164q0 39 15.5 70t44.5 53.5t69.5 34.5t89.5 12v-97q-109 0 -109 -86v-171q0 -37 -22 -62z" />
    <glyph glyph-name="bar" unicode="|" horiz-adv-x="313" 
d="M211 739v-777h-108v777h108z" />
    <glyph glyph-name="braceright" unicode="}" horiz-adv-x="380" 
d="M194 295v-29v-87v-142v-143v126v112v121v32v88v98v66v100v45v-32v-162v-55v-73v-65z" />
    <glyph glyph-name="asciitilde" unicode="~" horiz-adv-x="603" 
d="M96 239q0 80 33.5 128.5t86.5 48.5q28 0 52 -13t44 -29t36 -29t29 -13q17 0 27 24.5t10 60.5l93 -8q0 -38 -9 -70.5t-25 -56t-38 -36.5t-48 -13q-28 0 -52 13t-44 29t-36.5 29t-29.5 13q-16 0 -26 -24.5t-10 -60.5z" />
    <glyph glyph-name="uni00A0" unicode="&#xa0;" horiz-adv-x="245" 
 />
    <glyph glyph-name="exclamdown" unicode="&#xa1;" horiz-adv-x="273" 
d="M66 460.004q0 -28.998 21 -49.9971t50 -20.999t49.5 20.999t20.5 49.9971t-20.5 49.4971q-20.5 20.498 -49.5 20.498t-50 -20.498q-21 -20.499 -21 -49.4971zM197 -180.957l-5 516.969h-108l-6 -516.969h119z" />
    <glyph glyph-name="cent" unicode="&#xa2;" horiz-adv-x="562" 
d="M52 254q0 47 15.5 89t43 76t64.5 58.5t80 35.5v47h102v-44q47 -7 87.5 -31t71.5 -62l-78 -77q-15 21 -36 34.5t-45 19.5v-289q49 11 82 55l78 -78q-33 -39 -73 -63t-87 -31v-44h-102v48q-43 11 -80 35t-64.5 57.5t-43 75.5t-15.5 88zM168 255q0 -48 24.5 -84.5
t62.5 -53.5v279q-38 -18 -62.5 -55.5t-24.5 -85.5z" />
    <glyph glyph-name="sterling" unicode="&#xa3;" horiz-adv-x="645" 
d="M133 266h-60v99h60v87q0 258 257 258q70 0 119 -20.5t90 -68.5l-34 -104q-39 47 -77.5 65.5t-91.5 18.5q-142 0 -145 -122v-114h211v-99h-211v-160h355v-106h-473v266z" />
    <glyph glyph-name="currency" unicode="&#xa4;" horiz-adv-x="775" 
d="M119 255q0 79 45 147l-108 109l77 78l111 -110q63 43 144 43t144 -43l110 110l78 -78l-109 -109q45 -68 45 -147q0 -41 -11.5 -77.5t-32.5 -67.5l108 -108l-78 -78l-109 109q-32 -20 -68.5 -31.5t-76.5 -11.5q-41 0 -77.5 11.5t-67.5 31.5l-110 -109l-78 78l109 108
q-21 32 -33 68.5t-12 76.5zM538 255q0 32 -11.5 61t-32 51t-47.5 34.5t-59 12.5q-31 0 -58.5 -12.5t-48 -34.5t-32.5 -51t-12 -61t12 -60.5t32.5 -50t48 -34t58.5 -12.5t58.5 12.5t47.5 33.5t32 49.5t12 61.5z" />
    <glyph glyph-name="yen" unicode="&#xa5;" horiz-adv-x="697" 
d="M292 263h-148v97h119l-228 340h137l179 -266l175 266h137l-224 -340h120v-97h-149v-64h149v-98h-148v-101h-118v101h-149v98h148v64z" />
    <glyph glyph-name="brokenbar" unicode="&#xa6;" horiz-adv-x="551" 
d="M329 300v-338h-106v338h106zM223 400v339h106v-339h-106z" />
    <glyph glyph-name="section" unicode="&#xa7;" horiz-adv-x="527" 
d="M44 540q0 35 18 66t49 54.5t72 37t87 13.5q64 0 118 -24.5t92 -71.5l-68 -68q-21 27 -57.5 42t-78.5 15q-22 0 -43 -5.5t-37 -14t-25.5 -20t-9.5 -23.5q0 -20 24 -32t60 -22.5t78 -22.5t78 -31.5t60 -49t24 -74.5q0 -65 -56 -109q56 -47 56 -117q0 -37 -17 -69t-47 -55.5
t-71.5 -37t-89.5 -13.5q-64 0 -116.5 25.5t-97.5 80.5l68 66q60 -65 139 -65q24 0 44.5 6.5t36.5 17t25 24t9 28.5q0 25 -24 40t-59.5 26t-77 22t-77 28.5t-59.5 44.5t-24 71q0 60 55 109q-28 20 -43 48t-15 60zM369 308q0 13 -10 24.5t-27 20.5t-39.5 14t-48.5 5
q-36 0 -58.5 -10.5t-23.5 -27.5q0 -15 11.5 -26.5t30.5 -20t43.5 -13t49.5 -4.5q35 0 53.5 10.5t18.5 27.5z" />
    <glyph glyph-name="dieresis" unicode="&#xa8;" horiz-adv-x="550" 
d="M96 649q0 25 17 42t43 17q25 0 42 -17t17 -42t-17 -42.5t-42 -17.5q-26 0 -43 17.5t-17 42.5zM311 649q0 25 17 42t43 17q25 0 42 -17t17 -42t-17 -42.5t-42 -17.5q-26 0 -43 17.5t-17 42.5z" />
    <glyph glyph-name="copyright" unicode="&#xa9;" horiz-adv-x="800" 
d="M123 349q0 -57 22 -108t59.5 -88.5t88 -59.5t107.5 -22q58 0 108.5 22t88 59.5t59.5 88.5t22 108t-22 108t-59.5 88.5t-88 59.5t-108.5 22q-57 0 -107.5 -22t-88 -59.5t-59.5 -88.5t-22 -108zM46 348q0 73 28 137.5t76 113t112.5 76.5t137.5 28q74 0 138.5 -28t112.5 -76
t76 -112.5t28 -137.5t-28 -138t-76 -113t-112.5 -76t-138.5 -28q-73 0 -137.5 28t-112.5 76t-76 112.5t-28 137.5zM497 414q-17 23 -43 37.5t-53 14.5q-22 0 -42 -9.5t-35 -25t-23.5 -36.5t-8.5 -45t8.5 -44.5t23.5 -36t35.5 -24.5t43.5 -9q55 0 94 51l65 -65
q-67 -78 -160 -78q-44 0 -82 16t-66.5 43.5t-44.5 65t-16 80.5q0 44 16.5 82t44.5 66t65.5 44.5t80.5 16.5q47 0 88.5 -20.5t73.5 -58.5z" />
    <glyph glyph-name="ordfeminine" unicode="&#xaa;" horiz-adv-x="409" 
d="M277 555q0 38 -24 63.5t-59 25.5q-18 0 -33 -7t-26.5 -19t-18 -28t-6.5 -35q0 -38 24 -63t60 -25q35 0 59 25.5t24 62.5zM188 706q52 0 89 -37v31h67v-290h-67v31q-40 -37 -89 -37q-30 0 -56.5 12t-46 32.5t-31 48t-11.5 58.5t11.5 58.5t31 48t46 32.5t56.5 12z" />
    <glyph glyph-name="guillemotleft" unicode="&#xab;" horiz-adv-x="597" 
d="M162 263l148 -175l-79 -45l-192 220l191 219l79 -44zM404 263l148 -175l-79 -45l-192 220l191 219l79 -44z" />
    <glyph glyph-name="logicalnot" unicode="&#xac;" horiz-adv-x="594" 
d="M533 188h-118v169h-353v106h471v-275z" />
    <glyph glyph-name="registered" unicode="&#xae;" horiz-adv-x="643" 
d="M381 492q0 20 -15 32.5t-40 12.5h-69l2 -92h68q23 0 38.5 13.5t15.5 33.5zM268 390h-9v-117h-60v319h128q50 0 82 -28.5t32 -72.5q0 -38 -26.5 -65.5t-65.5 -32.5l-5 -1l103 -119h-77zM92 433q0 -48 18 -90t49 -73.5t73 -49.5t89 -18t88.5 18t73 49.5t49.5 73.5t18 90
q0 47 -18 89t-49.5 73.5t-73 49.5t-88.5 18t-89 -18t-73 -49.5t-49 -73.5t-18 -89zM42 433q0 58 22 108.5t60 88t88.5 59.5t108.5 22t108.5 -22t88 -59.5t59.5 -88t22 -108.5t-22 -108.5t-59.5 -88.5t-88 -60t-108.5 -22t-108.5 22t-88.5 60t-60 88.5t-22 108.5z" />
    <glyph glyph-name="macron" unicode="&#xaf;" horiz-adv-x="533" 
d="M413 666v-81h-293v81h293z" />
    <glyph glyph-name="degree" unicode="&#xb0;" horiz-adv-x="342" 
d="M44 571q0 26 10 49.5t27.5 40.5t41 27t49.5 10t49 -10t40.5 -27t27.5 -40.5t10 -49.5t-10 -49.5t-27.5 -41t-40.5 -27.5t-49 -10t-49.5 10t-41 27.5t-27.5 41t-10 49.5zM117 571q0 -23 16 -39t39 -16t38.5 16t15.5 39t-15.5 39t-38.5 16t-39 -16t-16 -39z" />
    <glyph glyph-name="plusminus" unicode="&#xb1;" horiz-adv-x="543" 
d="M455 407h-131v-131h-104v131h-131v97h131v131h104v-131h131v-97zM453 213v-95h-364v95h364z" />
    <glyph glyph-name="twosuperior" unicode="&#xb2;" horiz-adv-x="317" 
d="M56 458l126 104q11 10 18.5 21t7.5 22q0 20 -15.5 31.5t-35.5 11.5q-41 0 -56 -43l-52 24q36 79 109 79q23 0 43.5 -8t36 -21.5t24.5 -32.5t9 -41q0 -26 -12.5 -46.5t-34.5 -38.5l-67 -56h113v-58h-214v52z" />
    <glyph glyph-name="threesuperior" unicode="&#xb3;" horiz-adv-x="331" 
d="M275 653l-55 -58q27 -13 42.5 -36.5t15.5 -53.5q0 -22 -9 -42t-24.5 -34.5t-37 -23t-45.5 -8.5q-72 0 -110 69l48 26q18 -35 59 -35q26 0 42 14t16 35q0 23 -18.5 37t-50.5 14h-10l-9 29l54 58h-121v56h213v-47z" />
    <glyph glyph-name="acute" unicode="&#xb4;" horiz-adv-x="341" 
d="M117 579l84 171l111 -37l-114 -134h-81z" />
    <glyph glyph-name="mu" unicode="&#xb5;" horiz-adv-x="619" 
d="M428 55q-24 -31 -63 -48t-83 -17q-52 0 -90 26v-221h-116v715h116v-311q3 -42 32.5 -70.5t77.5 -28.5q24 0 46.5 8.5t40.5 24.5t28.5 39.5t10.5 52.5v285h116v-511h-116v56z" />
    <glyph glyph-name="paragraph" unicode="&#xb6;" horiz-adv-x="619" 
d="M43 517q0 37 13.5 70.5t36.5 58.5t54 39.5t66 14.5h343v-747h-103v640h-117v-640h-103v380h-18q-34 0 -65 15.5t-55 41t-38 58.5t-14 69z" />
    <glyph glyph-name="periodcentered" unicode="&#xb7;" horiz-adv-x="309" 
d="M83 254q0 29 21.5 50.5t51.5 21.5q29 0 50 -21.5t21 -50.5q0 -30 -21 -51t-50 -21q-30 0 -51.5 21t-21.5 51z" />
    <glyph glyph-name="cedilla" unicode="&#xb8;" horiz-adv-x="286" 
d="M168 -97q0 10 -7 15t-18 5q-15 0 -28 -10l-24 29l26 77h70l-16 -46q32 -2 51 -21.5t19 -50.5q0 -39 -29 -65t-74 -26q-26 0 -52 9.5t-43 26.5l19 58q14 -14 31.5 -21.5t33.5 -7.5q18 0 29.5 8t11.5 20z" />
    <glyph glyph-name="onesuperior" unicode="&#xb9;" horiz-adv-x="250" 
d="M172 700v-298h-62v212l-39 -33l-20 61l69 58h52z" />
    <glyph glyph-name="ordmasculine" unicode="&#xba;" horiz-adv-x="403" 
d="M287 556q0 19 -6.5 35t-18 28t-27 19t-33.5 7t-33.5 -7t-27 -19t-18.5 -28.5t-7 -34.5t6.5 -33.5t18.5 -27.5t27.5 -19t33.5 -7t33.5 7t27 18.5t18 27.5t6.5 34zM49 556q0 32 12 59.5t33 48t49 32.5t59 12q32 0 59.5 -12t48 -32.5t32.5 -48t12 -59.5q0 -31 -12 -58.5
t-32.5 -47.5t-48 -32t-59.5 -12t-60 12t-48.5 32t-32.5 47.5t-12 58.5z" />
    <glyph glyph-name="guillemotright" unicode="&#xbb;" horiz-adv-x="597" 
d="M43 438l79 44l191 -219l-192 -220l-78 45l148 175zM285 438l79 44l191 -219l-192 -220l-78 45l148 175z" />
    <glyph glyph-name="onehalf" unicode="&#xbd;" horiz-adv-x="820" 
d="M200 701v-389h-79v281l-52 -43l-25 75l89 76h67zM495 68l168 136q14 12 24.5 27t10.5 31q0 27 -21.5 42.5t-50.5 15.5q-26 0 -45 -13t-28 -40l-63 30q21 49 56.5 74t81.5 25q31 0 58 -10t47.5 -28t32.5 -43t12 -54q0 -34 -16.5 -61t-45.5 -49l-95 -77h155v-73h-281v67z
M608 702l-404 -701h-84l404 701h84z" />
    <glyph glyph-name="threequarters" unicode="&#xbe;" horiz-adv-x="837" 
d="M329 639l-72 -77q36 -16 57 -47.5t21 -70.5q0 -29 -12 -54.5t-32.5 -44t-48.5 -29.5t-61 -11q-47 0 -83.5 23t-59.5 66l61 34q25 -47 80 -47q34 0 55.5 17.5t21.5 46.5t-23.5 47.5t-61.5 18.5h-17l-12 41l72 76h-163v72h278v-61zM579 144h84v110zM476 133l193 256h73
v-245h55l-24 -72h-31v-71h-79v71h-187v61zM693 701l-405 -701h-84l404 701h85z" />
    <glyph glyph-name="questiondown" unicode="&#xbf;" horiz-adv-x="535" 
d="M372.01 448.004q0 -29.998 -21.498 -50.9971q-21.499 -20.999 -51.4971 -20.999t-50.4971 20.999q-20.498 20.999 -20.498 50.9971q0 28.998 20.498 50.4971q20.499 21.498 50.4971 21.498t51.4971 -21.498q21.498 -21.499 21.498 -50.4971zM360.011 315.012v-151.99
q-38.9971 -13 -75.4951 -26.999t-63.9961 -32.498q-27.498 -18.498 -43.9971 -41.9971q-16.499 -23.498 -16.499 -56.4961q0 -47.9971 32.498 -71.9961q32.498 -23.998 90.4941 -23.998q47.9971 0 79.9951 16.998q31.998 16.999 53.9971 57.9971l86.9941 -49.9971
q-34.998 -69.9961 -87.4941 -102.494q-52.4971 -32.498 -133.492 -32.498q-53.9971 0 -98.4941 14.5q-44.4971 14.499 -75.9951 41.9971t-48.9971 66.9961q-17.499 39.4971 -17.499 88.4941q0 41.998 13.999 74.9951q13.999 32.998 40.498 59.4971
q26.498 26.498 63.4961 47.4971q36.9971 20.998 81.9951 38.9971v82.9951h117.992z" />
    <glyph glyph-name="Agrave" unicode="&#xc0;" horiz-adv-x="717" 
d="M358 529l-97 -246h194zM415 700l277 -700h-125l-71 180h-275l-71 -180h-125l276 700h114zM197 894l111 37l84 -171h-81z" />
    <glyph glyph-name="Aacute" unicode="&#xc1;" horiz-adv-x="721" 
d="M362 529l-97 -246h194zM419 700l277 -700h-125l-71 180h-275l-71 -180h-125l276 700h114zM325 760l84 171l111 -37l-114 -134h-81z" />
    <glyph glyph-name="Acircumflex" unicode="&#xc2;" horiz-adv-x="726" 
d="M363 529l-97 -246h194zM420 700l277 -700h-125l-71 180h-275l-71 -180h-125l276 700h114zM317 900h92l135 -159h-98l-83 79l-82 -79h-99z" />
    <glyph glyph-name="Atilde" unicode="&#xc3;" horiz-adv-x="717" 
d="M358 529l-97 -246h194zM415 700l277 -700h-125l-71 180h-275l-71 -180h-125l276 700h114zM186 774q0 66 27.5 106.5t71.5 40.5q24 0 44.5 -11t37.5 -24.5t31.5 -24.5t24.5 -11q14 0 22 20t8 51l76 -6q0 -65 -27.5 -106t-70.5 -41q-23 0 -43.5 11t-37.5 24t-31 24t-25 11
q-14 0 -23 -20.5t-9 -49.5z" />
    <glyph glyph-name="Adieresis" unicode="&#xc4;" horiz-adv-x="726" 
d="M363 529l-97 -246h194zM420 700l277 -700h-125l-71 180h-275l-71 -180h-125l276 700h114zM196 829q0 25 17 42t43 17q25 0 42 -17t17 -42t-17 -42.5t-42 -17.5q-26 0 -43 17.5t-17 42.5zM411 829q0 25 17 42t43 17q25 0 42 -17t17 -42t-17 -42.5t-42 -17.5
q-26 0 -43 17.5t-17 42.5z" />
    <glyph glyph-name="Aring" unicode="&#xc5;" horiz-adv-x="726" 
d="M363 529l-97 -246h194zM420 700l277 -700h-125l-71 180h-275l-71 -180h-125l276 700h114zM248 843q0 24 9 44.5t25 36.5t36.5 25t44.5 9t45 -9t36.5 -25t25 -36.5t9.5 -44.5t-9.5 -45t-25 -37t-36.5 -25t-45 -9t-44.5 9t-36.5 25t-25 37t-9 45zM316 843q0 -20 13.5 -34.5
t33.5 -14.5t34 14.5t14 34.5t-14 34.5t-34 14.5t-33.5 -14.5t-13.5 -34.5z" />
    <glyph glyph-name="AE" unicode="&#xc6;" horiz-adv-x="1015" 
d="M493 592l-162 -291h162v291zM975 595h-365v-163h318v-106h-318v-219h365v-106h-482v198h-219l-111 -198h-132l389 700h555v-106z" />
    <glyph glyph-name="Ccedilla" unicode="&#xc7;" horiz-adv-x="686" 
d="M395 99q50 0 94.5 21.5t78.5 62.5l78 -78q-44 -49 -101 -78.5t-122 -35.5l-6 -18q32 -2 51.5 -21.5t19.5 -50.5q0 -20 -8 -36.5t-22 -28.5t-33 -19t-41 -7q-27 0 -52.5 9.5t-42.5 26.5l19 58q14 -14 31 -21.5t34 -7.5q18 0 29.5 8t11.5 20q0 10 -7.5 15t-18.5 5
q-16 0 -27 -10l-24 29l17 50q-64 7 -120 38t-97.5 79t-65.5 110t-24 131q0 74 27.5 139.5t74.5 114.5t110 77.5t133 28.5q75 0 140.5 -30t114.5 -86l-77 -77q-72 84 -175 84q-48 0 -90 -19.5t-73.5 -53.5t-49.5 -79.5t-18 -97.5t18 -98t49.5 -80t73.5 -54t90 -20z" />
    <glyph glyph-name="Egrave" unicode="&#xc8;" horiz-adv-x="626" 
d="M80 1v699h499v-106h-381v-162h335v-106h-335v-219h381v-106h-499zM175 894l111 37l84 -171h-81z" />
    <glyph glyph-name="Eacute" unicode="&#xc9;" horiz-adv-x="625" 
d="M80 1v699h499v-106h-381v-162h335v-106h-335v-219h381v-106h-499zM268 760l84 171l111 -37l-114 -134h-81z" />
    <glyph glyph-name="Ecircumflex" unicode="&#xca;" horiz-adv-x="625" 
d="M80 1v699h499v-106h-381v-162h335v-106h-335v-219h381v-106h-499zM272 915h92l135 -159h-98l-83 79l-82 -79h-99z" />
    <glyph glyph-name="Edieresis" unicode="&#xcb;" horiz-adv-x="625" 
d="M80 1v699h499v-106h-381v-162h335v-106h-335v-219h381v-106h-499zM147 815q0 25 17 42t43 17q25 0 42 -17t17 -42t-17 -42.5t-42 -17.5q-26 0 -43 17.5t-17 42.5zM362 815q0 25 17 42t43 17q25 0 42 -17t17 -42t-17 -42.5t-42 -17.5q-26 0 -43 17.5t-17 42.5z" />
    <glyph glyph-name="Igrave" unicode="&#xcc;" horiz-adv-x="298" 
d="M209 700v-700h-118v700h118zM0 889l111 37l84 -171h-81z" />
    <glyph glyph-name="Iacute" unicode="&#xcd;" horiz-adv-x="298" 
d="M209 700v-700h-118v700h118zM117 750l84 171l111 -37l-114 -134h-81z" />
    <glyph glyph-name="Icircumflex" unicode="&#xce;" horiz-adv-x="298" 
d="M209 700v-700h-118v700h118zM102 910h92l135 -159h-98l-83 79l-82 -79h-99z" />
    <glyph glyph-name="Idieresis" unicode="&#xcf;" horiz-adv-x="298" 
d="M209 700v-700h-118v700h118zM-18 809q0 25 17 42t43 17q25 0 42 -17t17 -42t-17 -42.5t-42 -17.5q-26 0 -43 17.5t-17 42.5zM197 809q0 25 17 42t43 17q25 0 42 -17t17 -42t-17 -42.5t-42 -17.5q-26 0 -43 17.5t-17 42.5z" />
    <glyph glyph-name="Eth" unicode="&#xd0;" horiz-adv-x="741" 
d="M691 350q0 -75 -27 -139t-76.5 -111t-117.5 -73.5t-151 -26.5h-227v294h-50v101h50v306h227q82 0 150.5 -27t117.5 -74t76.5 -111.5t27.5 -138.5zM573 351q0 53 -18 97.5t-51 77t-80 51t-105 18.5h-109v-200h144v-101h-144v-188h109q58 0 105 18.5t80 51t51 77.5t18 98z
" />
    <glyph glyph-name="Ntilde" unicode="&#xd1;" horiz-adv-x="768" 
d="M567 0l-373 506v-506h-117v700h117l372 -504v504h117v-700h-116zM219 774q0 66 27.5 106.5t71.5 40.5q24 0 44.5 -11t37.5 -24.5t31.5 -24.5t24.5 -11q14 0 22 20t8 51l76 -6q0 -65 -27.5 -106t-70.5 -41q-23 0 -43.5 11t-37.5 24t-31 24t-25 11q-14 0 -23 -20.5
t-9 -49.5z" />
    <glyph glyph-name="Ograve" unicode="&#xd2;" horiz-adv-x="799" 
d="M635 350q0 52 -18.5 97.5t-50 79.5t-74 54t-91.5 20q-48 0 -90.5 -20t-74 -54t-50 -79.5t-18.5 -97.5q0 -51 18.5 -97t50.5 -80t74.5 -54t90.5 -20t90.5 20t74 54t50 79.5t18.5 97.5zM50 349q0 75 27.5 140.5t75.5 114.5t112 77.5t137 28.5t137 -28t111.5 -77t75 -114.5
t27.5 -140.5t-27.5 -140.5t-75 -114t-111.5 -77t-137 -28.5t-137 28t-112 77t-75.5 114t-27.5 140zM246 903l111 37l84 -171h-81z" />
    <glyph glyph-name="Oacute" unicode="&#xd3;" horiz-adv-x="793" 
d="M630 350q0 52 -18.5 97.5t-50 79.5t-74 54t-91.5 20q-48 0 -90.5 -20t-74 -54t-50 -79.5t-18.5 -97.5q0 -51 18.5 -97t50.5 -80t74.5 -54t90.5 -20t90.5 20t74 54t50 79.5t18.5 97.5zM45 349q0 75 27.5 140.5t75.5 114.5t112 77.5t137 28.5t137 -28t111.5 -77t75 -114.5
t27.5 -140.5t-27.5 -140.5t-75 -114t-111.5 -77t-137 -28.5t-137 28t-112 77t-75.5 114t-27.5 140zM351 759l84 171l111 -37l-114 -134h-81z" />
    <glyph glyph-name="Ocircumflex" unicode="&#xd4;" horiz-adv-x="793" 
d="M630 350q0 52 -18.5 97.5t-50 79.5t-74 54t-91.5 20q-48 0 -90.5 -20t-74 -54t-50 -79.5t-18.5 -97.5q0 -51 18.5 -97t50.5 -80t74.5 -54t90.5 -20t90.5 20t74 54t50 79.5t18.5 97.5zM45 349q0 75 27.5 140.5t75.5 114.5t112 77.5t137 28.5t137 -28t111.5 -77t75 -114.5
t27.5 -140.5t-27.5 -140.5t-75 -114t-111.5 -77t-137 -28.5t-137 28t-112 77t-75.5 114t-27.5 140zM352 915h92l135 -159h-98l-83 79l-82 -79h-99z" />
    <glyph glyph-name="Otilde" unicode="&#xd5;" horiz-adv-x="790" 
d="M629 350q0 52 -18.5 97.5t-50 79.5t-74 54t-91.5 20q-48 0 -90.5 -20t-74 -54t-50 -79.5t-18.5 -97.5q0 -51 18.5 -97t50.5 -80t74.5 -54t90.5 -20t90.5 20t74 54t50 79.5t18.5 97.5zM44 349q0 75 27.5 140.5t75.5 114.5t112 77.5t137 28.5t137 -28t111.5 -77t75 -114.5
t27.5 -140.5t-27.5 -140.5t-75 -114t-111.5 -77t-137 -28.5t-137 28t-112 77t-75.5 114t-27.5 140zM229 774q0 66 27.5 106.5t71.5 40.5q24 0 44.5 -11t37.5 -24.5t31.5 -24.5t24.5 -11q14 0 22 20t8 51l76 -6q0 -65 -27.5 -106t-70.5 -41q-23 0 -43.5 11t-37.5 24t-31 24
t-25 11q-14 0 -23 -20.5t-9 -49.5z" />
    <glyph glyph-name="Odieresis" unicode="&#xd6;" horiz-adv-x="793" 
d="M630 350q0 52 -18.5 97.5t-50 79.5t-74 54t-91.5 20q-48 0 -90.5 -20t-74 -54t-50 -79.5t-18.5 -97.5q0 -51 18.5 -97t50.5 -80t74.5 -54t90.5 -20t90.5 20t74 54t50 79.5t18.5 97.5zM45 349q0 75 27.5 140.5t75.5 114.5t112 77.5t137 28.5t137 -28t111.5 -77t75 -114.5
t27.5 -140.5t-27.5 -140.5t-75 -114t-111.5 -77t-137 -28.5t-137 28t-112 77t-75.5 114t-27.5 140zM230 814q0 25 17 42t43 17q25 0 42 -17t17 -42t-17 -42.5t-42 -17.5q-26 0 -43 17.5t-17 42.5zM445 814q0 25 17 42t43 17q25 0 42 -17t17 -42t-17 -42.5t-42 -17.5
q-26 0 -43 17.5t-17 42.5z" />
    <glyph glyph-name="multiply" unicode="&#xd7;" horiz-adv-x="611" 
d="M172 565l132 -132l132 131l81 -81l-132 -131l134 -135l-80 -80l-135 135l-130 -131l-81 81l130 130l-132 132z" />
    <glyph glyph-name="Oslash" unicode="&#xd8;" horiz-adv-x="795" 
d="M210 45q-37 24 -67 56.5t-51.5 71.5t-33.5 83.5t-12 92.5q0 75 27.5 140.5t75.5 114.5t112 77.5t137 28.5q49 0 94 -14l18 41h113l-36 -83q36 -24 66 -56.5t51.5 -71.5t33 -83.5t11.5 -92.5q0 -75 -27.5 -140.5t-75 -114t-111.5 -77t-137 -28.5q-47 0 -94 14l-18 -41
h-112zM164 350q0 -60 25 -111.5t67 -85.5l192 440q-12 5 -24.5 6.5t-26.5 1.5q-48 0 -90.5 -20t-74 -54t-50 -79.5t-18.5 -97.5zM398 99q48 0 90.5 20t74 54t50 79.5t18.5 97.5q0 60 -24 111.5t-66 85.5l-193 -441q12 -3 24.5 -5t25.5 -2z" />
    <glyph glyph-name="Ugrave" unicode="&#xd9;" horiz-adv-x="765" 
d="M83 700h117v-441q0 -33 14.5 -62t39 -51t58 -34.5t70.5 -12.5q38 0 71.5 12.5t58.5 34.5t39.5 51t14.5 62v441h117v-443q0 -55 -24 -104t-65 -85.5t-95.5 -57.5t-116.5 -21q-61 0 -115.5 21t-95.5 57.5t-64.5 85.5t-23.5 104v443zM232 903l111 37l84 -171h-81z" />
    <glyph glyph-name="Uacute" unicode="&#xda;" horiz-adv-x="765" 
d="M83 700h117v-441q0 -33 14.5 -62t39 -51t58 -34.5t70.5 -12.5q38 0 71.5 12.5t58.5 34.5t39.5 51t14.5 62v441h117v-443q0 -55 -24 -104t-65 -85.5t-95.5 -57.5t-116.5 -21q-61 0 -115.5 21t-95.5 57.5t-64.5 85.5t-23.5 104v443zM343 769l84 171l111 -37l-114 -134h-81z
" />
    <glyph glyph-name="Ucircumflex" unicode="&#xdb;" horiz-adv-x="765" 
d="M83 700h117v-441q0 -33 14.5 -62t39 -51t58 -34.5t70.5 -12.5q38 0 71.5 12.5t58.5 34.5t39.5 51t14.5 62v441h117v-443q0 -55 -24 -104t-65 -85.5t-95.5 -57.5t-116.5 -21q-61 0 -115.5 21t-95.5 57.5t-64.5 85.5t-23.5 104v443zM336 910h92l135 -159h-98l-83 79
l-82 -79h-99z" />
    <glyph glyph-name="Udieresis" unicode="&#xdc;" horiz-adv-x="765" 
d="M83 700h117v-441q0 -33 14.5 -62t39 -51t58 -34.5t70.5 -12.5q38 0 71.5 12.5t58.5 34.5t39.5 51t14.5 62v441h117v-443q0 -55 -24 -104t-65 -85.5t-95.5 -57.5t-116.5 -21q-61 0 -115.5 21t-95.5 57.5t-64.5 85.5t-23.5 104v443zM216 814q0 25 17 42t43 17q25 0 42 -17
t17 -42t-17 -42.5t-42 -17.5q-26 0 -43 17.5t-17 42.5zM431 814q0 25 17 42t43 17q25 0 42 -17t17 -42t-17 -42.5t-42 -17.5q-26 0 -43 17.5t-17 42.5z" />
    <glyph glyph-name="Yacute" unicode="&#xdd;" horiz-adv-x="692" 
d="M34 700h135l178 -283l178 283h135l-255 -406l1 -294h-118l-1 294zM305 769l84 171l111 -37l-114 -134h-81z" />
    <glyph glyph-name="Thorn" unicode="&#xde;" horiz-adv-x="623" 
d="M578 349q0 -52 -20.5 -94t-56.5 -71.5t-85 -45.5t-106 -16h-111v-122h-117v701h117v-122h109q57 0 106 -16t85.5 -46t57.5 -72.5t21 -95.5zM461 351q0 29 -12 51.5t-33 38.5t-48.5 24t-59.5 8h-109v-245h111q31 0 58.5 8.5t48 24t32.5 38.5t12 52z" />
    <glyph glyph-name="germandbls" unicode="&#xdf;" horiz-adv-x="593" 
d="M407 508q0 43 -30 70t-75 27q-48 0 -76 -27t-28 -71v-507h-118v509q0 43 16.5 79.5t46 63.5t69 42t85.5 15q48 0 89 -15t71 -42t46.5 -64.5t16.5 -82.5q0 -85 -65 -135q94 -55 94 -160q0 -46 -19 -84.5t-52.5 -66.5t-80 -43.5t-101.5 -15.5h-41v103h41q62 3 99 28.5
t37 73.5t-36.5 76t-99.5 28h-41v103h41q51 0 81 27t30 69z" />
    <glyph glyph-name="agrave" unicode="&#xe0;" 
d="M465 260q0 34 -12 63.5t-33 51.5t-49 34.5t-60 12.5q-33 0 -61 -12.5t-48.5 -34.5t-32.5 -51.5t-12 -64.5q0 -34 11.5 -63.5t32 -51t48.5 -33.5t61 -12t61.5 12.5t49 34.5t32.5 51t12 63zM297 530q50 0 93 -18.5t75 -54.5v64h117v-520h-117v64q-34 -37 -77 -56t-91 -19
q-52 0 -99 21.5t-82.5 59t-56 87t-20.5 105.5q0 55 20.5 103.5t55.5 85t82 57.5t100 21zM178 713l111 37l84 -171h-81z" />
    <glyph glyph-name="aacute" unicode="&#xe1;" 
d="M466 260q0 34 -12 63.5t-33 51.5t-49 34.5t-60 12.5q-33 0 -61 -12.5t-48.5 -34.5t-32.5 -51.5t-12 -64.5q0 -34 11.5 -63.5t32 -51t48.5 -33.5t61 -12t61.5 12.5t49 34.5t32.5 51t12 63zM298 530q50 0 93 -18.5t75 -54.5v64h117v-520h-117v64q-34 -37 -77 -56t-91 -19
q-52 0 -99 21.5t-82.5 59t-56 87t-20.5 105.5q0 55 20.5 103.5t55.5 85t82 57.5t100 21zM265 579l84 171l111 -37l-114 -134h-81z" />
    <glyph glyph-name="acircumflex" unicode="&#xe2;" 
d="M465 260q0 34 -12 63.5t-33 51.5t-49 34.5t-60 12.5q-33 0 -61 -12.5t-48.5 -34.5t-32.5 -51.5t-12 -64.5q0 -34 11.5 -63.5t32 -51t48.5 -33.5t61 -12t61.5 12.5t49 34.5t32.5 51t12 63zM297 530q50 0 93 -18.5t75 -54.5v64h117v-520h-117v64q-34 -37 -77 -56t-91 -19
q-52 0 -99 21.5t-82.5 59t-56 87t-20.5 105.5q0 55 20.5 103.5t55.5 85t82 57.5t100 21zM273 720h92l135 -159h-98l-83 79l-82 -79h-99z" />
    <glyph glyph-name="atilde" unicode="&#xe3;" 
d="M464 260q0 34 -12 63.5t-33 51.5t-49 34.5t-60 12.5q-33 0 -61 -12.5t-48.5 -34.5t-32.5 -51.5t-12 -64.5q0 -34 11.5 -63.5t32 -51t48.5 -33.5t61 -12t61.5 12.5t49 34.5t32.5 51t12 63zM296 530q50 0 93 -18.5t75 -54.5v64h117v-520h-117v64q-34 -37 -77 -56t-91 -19
q-52 0 -99 21.5t-82.5 59t-56 87t-20.5 105.5q0 55 20.5 103.5t55.5 85t82 57.5t100 21zM152 584q0 66 27.5 106.5t71.5 40.5q24 0 44.5 -11t37.5 -24.5t31.5 -24.5t24.5 -11q14 0 22 20t8 51l76 -6q0 -65 -27.5 -106t-70.5 -41q-23 0 -43.5 11t-37.5 24t-31 24t-25 11
q-14 0 -23 -20.5t-9 -49.5z" />
    <glyph glyph-name="adieresis" unicode="&#xe4;" horiz-adv-x="660" 
d="M466 260q0 34 -12 63.5t-33 51.5t-49 34.5t-60 12.5q-33 0 -61 -12.5t-48.5 -34.5t-32.5 -51.5t-12 -64.5q0 -34 11.5 -63.5t32 -51t48.5 -33.5t61 -12t61.5 12.5t49 34.5t32.5 51t12 63zM298 530q50 0 93 -18.5t75 -54.5v64h117v-520h-117v64q-34 -37 -77 -56t-91 -19
q-52 0 -99 21.5t-82.5 59t-56 87t-20.5 105.5q0 55 20.5 103.5t55.5 85t82 57.5t100 21zM152 648q0 25 17 42t43 17q25 0 42 -17t17 -42t-17 -42.5t-42 -17.5q-26 0 -43 17.5t-17 42.5zM367 648q0 25 17 42t43 17q25 0 42 -17t17 -42t-17 -42.5t-42 -17.5q-26 0 -43 17.5
t-17 42.5z" />
    <glyph glyph-name="aring" unicode="&#xe5;" 
d="M466 260q0 34 -12 63.5t-33 51.5t-49 34.5t-60 12.5q-33 0 -61 -12.5t-48.5 -34.5t-32.5 -51.5t-12 -64.5q0 -34 11.5 -63.5t32 -51t48.5 -33.5t61 -12t61.5 12.5t49 34.5t32.5 51t12 63zM298 530q50 0 93 -18.5t75 -54.5v64h117v-520h-117v64q-34 -37 -77 -56t-91 -19
q-52 0 -99 21.5t-82.5 59t-56 87t-20.5 105.5q0 55 20.5 103.5t55.5 85t82 57.5t100 21zM204 671q0 24 9 44.5t25 36.5t36.5 25t44.5 9t45 -9t36.5 -25t25 -36.5t9.5 -44.5t-9.5 -45t-25 -37t-36.5 -25t-45 -9t-44.5 9t-36.5 25t-25 37t-9 45zM272 671q0 -20 13.5 -34.5
t33.5 -14.5t34 14.5t14 34.5t-14 34.5t-34 14.5t-33.5 -14.5t-13.5 -34.5z" />
    <glyph glyph-name="ae" unicode="&#xe6;" horiz-adv-x="1065" 
d="M37 262q0 56 20.5 104.5t55.5 84.5t82 57t100 21q50 0 93 -18t75 -55v64h110v-62q36 33 83 52t100 19q65 0 118 -25.5t89 -69t53.5 -101t11.5 -121.5h-417q6 -25 20.5 -46t34.5 -36.5t44.5 -24t51.5 -8.5q38 0 69.5 16t54.5 45l72 -73q-32 -43 -88 -68.5t-118 -25.5
q-51 0 -97.5 19t-81.5 52v-62h-110v65q-34 -38 -76.5 -56.5t-91.5 -18.5q-52 0 -99 21.5t-82.5 59t-56 87t-20.5 104.5zM308 99q33 0 61.5 12.5t49 34t32.5 51t12 63.5t-12 63.5t-33 51.5t-49 34.5t-60 12.5q-33 0 -61 -12.5t-48.5 -34.5t-32.5 -52t-12 -64t11.5 -63.5
t32 -51t48.5 -33.5t61 -12zM756 423q-51 0 -90.5 -31t-55.5 -84h291q-14 52 -53.5 83.5t-91.5 31.5z" />
    <glyph glyph-name="ccedilla" unicode="&#xe7;" horiz-adv-x="551" 
d="M312 531q60 0 112 -25t92 -73l-77 -78q-23 32 -58 50t-73 18q-31 0 -59 -13t-49 -35t-33 -51.5t-12 -62.5t12.5 -62.5t33.5 -51.5t49.5 -34.5t61.5 -12.5q36 0 69 17t58 50l77 -78q-70 -83 -169 -95l-7 -22q31 -2 50.5 -22t19.5 -51q0 -39 -29.5 -64.5t-74.5 -25.5
q-26 0 -52 9.5t-43 25.5l19 59q14 -15 31.5 -22.5t33.5 -7.5q19 0 30 8.5t11 20.5q0 9 -7 14.5t-17 5.5q-15 0 -29 -11l-23 29l18 54q-51 6 -94.5 29.5t-76 58.5t-50.5 81t-18 97q0 56 21.5 105.5t58 86t86.5 58t107 21.5z" />
    <glyph glyph-name="egrave" unicode="&#xe8;" horiz-adv-x="610" 
d="M453 308q-14 51 -54 83t-92 32q-51 0 -90.5 -31t-55.5 -84h292zM509 85q-32 -43 -87.5 -68.5t-117.5 -25.5q-55 0 -104 21t-86 58t-58 86t-21 105t21.5 104.5t59 85t87.5 57.5t107 21q62 0 113.5 -24.5t87.5 -67t54 -100.5t12 -125h-415q6 -25 20 -46t34 -36.5t45 -24
t52 -8.5q38 0 69.5 16t54.5 45zM157 713l111 37l84 -171h-81z" />
    <glyph glyph-name="eacute" unicode="&#xe9;" horiz-adv-x="610" 
d="M453 308q-14 51 -54 83t-92 32q-51 0 -90.5 -31t-55.5 -84h292zM509 85q-32 -43 -87.5 -68.5t-117.5 -25.5q-55 0 -104 21t-86 58t-58 86t-21 105t21.5 104.5t59 85t87.5 57.5t107 21q62 0 113.5 -24.5t87.5 -67t54 -100.5t12 -125h-415q6 -25 20 -46t34 -36.5t45 -24
t52 -8.5q38 0 69.5 16t54.5 45zM269 579l84 171l111 -37l-114 -134h-81z" />
    <glyph glyph-name="ecircumflex" unicode="&#xea;" horiz-adv-x="610" 
d="M453 308q-14 51 -54 83t-92 32q-51 0 -90.5 -31t-55.5 -84h292zM509 85q-32 -43 -87.5 -68.5t-117.5 -25.5q-55 0 -104 21t-86 58t-58 86t-21 105t21.5 104.5t59 85t87.5 57.5t107 21q62 0 113.5 -24.5t87.5 -67t54 -100.5t12 -125h-415q6 -25 20 -46t34 -36.5t45 -24
t52 -8.5q38 0 69.5 16t54.5 45zM259 720h92l135 -159h-98l-83 79l-82 -79h-99z" />
    <glyph glyph-name="edieresis" unicode="&#xeb;" horiz-adv-x="610" 
d="M453 308q-14 51 -54 83t-92 32q-51 0 -90.5 -31t-55.5 -84h292zM509 85q-32 -43 -87.5 -68.5t-117.5 -25.5q-55 0 -104 21t-86 58t-58 86t-21 105t21.5 104.5t59 85t87.5 57.5t107 21q62 0 113.5 -24.5t87.5 -67t54 -100.5t12 -125h-415q6 -25 20 -46t34 -36.5t45 -24
t52 -8.5q38 0 69.5 16t54.5 45zM139 649q0 25 17 42t43 17q25 0 42 -17t17 -42t-17 -42.5t-42 -17.5q-26 0 -43 17.5t-17 42.5zM354 649q0 25 17 42t43 17q25 0 42 -17t17 -42t-17 -42.5t-42 -17.5q-26 0 -43 17.5t-17 42.5z" />
    <glyph glyph-name="igrave" unicode="&#xec;" horiz-adv-x="279" 
d="M184 520v-520h-117v520h117zM-15 713l111 37l84 -171h-81z" />
    <glyph glyph-name="iacute" unicode="&#xed;" horiz-adv-x="279" 
d="M184 520v-520h-117v520h117zM90 579l84 171l111 -37l-114 -134h-81z" />
    <glyph glyph-name="icircumflex" unicode="&#xee;" horiz-adv-x="279" 
d="M198 520v-520h-117v520h117zM93 720h92l135 -159h-98l-83 79l-82 -79h-99z" />
    <glyph glyph-name="idieresis" unicode="&#xef;" horiz-adv-x="279" 
d="M198 520v-520h-117v520h117zM-27 649q0 25 17 42t43 17q25 0 42 -17t17 -42t-17 -42.5t-42 -17.5q-26 0 -43 17.5t-17 42.5zM188 649q0 25 17 42t43 17q25 0 42 -17t17 -42t-17 -42.5t-42 -17.5q-26 0 -43 17.5t-17 42.5z" />
    <glyph glyph-name="eth" unicode="&#xf0;" horiz-adv-x="613" 
d="M291 469q74 0 129 -43q-7 32 -24 61t-42 52l-97 -56l-36 65l66 39q-14 7 -29 11.5t-30 6.5l-32 97q55 -2 101 -17.5t88 -41.5l78 45l36 -66l-52 -29q55 -55 85.5 -131.5t30.5 -168.5q0 -70 -18 -126t-51.5 -95.5t-81.5 -61t-107 -21.5q-55 0 -102.5 19t-82 52t-54.5 78.5
t-20 97.5q1 50 20 92.5t52 73.5t77.5 49t95.5 18zM298 360q-28 0 -53 -10t-43 -27t-28.5 -40t-10.5 -49q0 -28 10.5 -53t29 -43.5t43.5 -29t53 -10.5q30 0 55.5 10.5t45 28.5t30.5 43t11 53q0 27 -11 50.5t-30 40.5t-45.5 26.5t-56.5 9.5z" />
    <glyph glyph-name="ntilde" unicode="&#xf1;" horiz-adv-x="614" 
d="M341 530q45 0 83 -16.5t65.5 -45.5t43.5 -68.5t16 -85.5v-314h-116v308q0 24 -8.5 44.5t-23.5 35t-36 23t-46 8.5q-27 0 -51 -9.5t-41 -27t-27 -41t-10 -50.5v-291h-117v521h117v-57q24 31 65 48.5t86 17.5zM135 584q0 66 27.5 106.5t71.5 40.5q24 0 44.5 -11t37.5 -24.5
t31.5 -24.5t24.5 -11q14 0 22 20t8 51l76 -6q0 -65 -27.5 -106t-70.5 -41q-23 0 -43.5 11t-37.5 24t-31 24t-25 11q-14 0 -23 -20.5t-9 -49.5z" />
    <glyph glyph-name="ograve" unicode="&#xf2;" horiz-adv-x="615" 
d="M463 259q0 33 -12.5 63t-33.5 52t-49 35t-60 13q-31 0 -59 -13t-49 -35.5t-33.5 -52t-12.5 -62.5t12.5 -62t33.5 -50.5t49 -34.5t59 -13q32 0 60 12.5t49 34.5t33.5 51t12.5 62zM37 259q0 56 21.5 105.5t58 86.5t86 58t105.5 21t105.5 -21t86.5 -58t58.5 -86t21.5 -106
q0 -56 -21.5 -105t-58 -85t-86 -57t-106.5 -21q-56 0 -105.5 21t-86 57.5t-58 85.5t-21.5 104zM156 714l111 37l84 -171h-81z" />
    <glyph glyph-name="oacute" unicode="&#xf3;" horiz-adv-x="615" 
d="M463 259q0 33 -12.5 63t-33.5 52t-49 35t-60 13q-31 0 -59 -13t-49 -35.5t-33.5 -52t-12.5 -62.5t12.5 -62t33.5 -50.5t49 -34.5t59 -13q32 0 60 12.5t49 34.5t33.5 51t12.5 62zM37 259q0 56 21.5 105.5t58 86.5t86 58t105.5 21t105.5 -21t86.5 -58t58.5 -86t21.5 -106
q0 -56 -21.5 -105t-58 -85t-86 -57t-106.5 -21q-56 0 -105.5 21t-86 57.5t-58 85.5t-21.5 104zM266 580l84 171l111 -37l-114 -134h-81z" />
    <glyph glyph-name="ocircumflex" unicode="&#xf4;" horiz-adv-x="615" 
d="M463 259q0 33 -12.5 63t-33.5 52t-49 35t-60 13q-31 0 -59 -13t-49 -35.5t-33.5 -52t-12.5 -62.5t12.5 -62t33.5 -50.5t49 -34.5t59 -13q32 0 60 12.5t49 34.5t33.5 51t12.5 62zM37 259q0 56 21.5 105.5t58 86.5t86 58t105.5 21t105.5 -21t86.5 -58t58.5 -86t21.5 -106
q0 -56 -21.5 -105t-58 -85t-86 -57t-106.5 -21q-56 0 -105.5 21t-86 57.5t-58 85.5t-21.5 104zM261 720h92l135 -159h-98l-83 79l-82 -79h-99z" />
    <glyph glyph-name="otilde" unicode="&#xf5;" horiz-adv-x="615" 
d="M463 259q0 33 -12.5 63t-33.5 52t-49 35t-60 13q-31 0 -59 -13t-49 -35.5t-33.5 -52t-12.5 -62.5t12.5 -62t33.5 -50.5t49 -34.5t59 -13q32 0 60 12.5t49 34.5t33.5 51t12.5 62zM37 259q0 56 21.5 105.5t58 86.5t86 58t105.5 21t105.5 -21t86.5 -58t58.5 -86t21.5 -106
q0 -56 -21.5 -105t-58 -85t-86 -57t-106.5 -21q-56 0 -105.5 21t-86 57.5t-58 85.5t-21.5 104zM136 584q0 66 27.5 106.5t71.5 40.5q24 0 44.5 -11t37.5 -24.5t31.5 -24.5t24.5 -11q14 0 22 20t8 51l76 -6q0 -65 -27.5 -106t-70.5 -41q-23 0 -43.5 11t-37.5 24t-31 24
t-25 11q-14 0 -23 -20.5t-9 -49.5z" />
    <glyph glyph-name="odieresis" unicode="&#xf6;" horiz-adv-x="615" 
d="M463 259q0 33 -12.5 63t-33.5 52t-49 35t-60 13q-31 0 -59 -13t-49 -35.5t-33.5 -52t-12.5 -62.5t12.5 -62t33.5 -50.5t49 -34.5t59 -13q32 0 60 12.5t49 34.5t33.5 51t12.5 62zM37 259q0 56 21.5 105.5t58 86.5t86 58t105.5 21t105.5 -21t86.5 -58t58.5 -86t21.5 -106
q0 -56 -21.5 -105t-58 -85t-86 -57t-106.5 -21q-56 0 -105.5 21t-86 57.5t-58 85.5t-21.5 104zM141 648q0 25 17 42t43 17q25 0 42 -17t17 -42t-17 -42.5t-42 -17.5q-26 0 -43 17.5t-17 42.5zM356 648q0 25 17 42t43 17q25 0 42 -17t17 -42t-17 -42.5t-42 -17.5
q-26 0 -43 17.5t-17 42.5z" />
    <glyph glyph-name="divide" unicode="&#xf7;" horiz-adv-x="627" 
d="M542 401v-100h-456v100h456zM247 532q0 28 19.5 47.5t47.5 19.5t47.5 -19.5t19.5 -47.5t-19.5 -47.5t-47.5 -19.5t-47.5 19.5t-19.5 47.5zM247 169q0 28 19.5 47.5t47.5 19.5t47.5 -19.5t19.5 -47.5t-19.5 -47.5t-47.5 -19.5t-47.5 19.5t-19.5 47.5z" />
    <glyph glyph-name="oslash" unicode="&#xf8;" horiz-adv-x="615" 
d="M137 50q-46 38 -73.5 92t-27.5 117q0 56 21.5 105.5t58.5 86.5t86.5 58t105.5 21q50 0 96 -17l34 57h99l-58 -100q46 -37 73 -91.5t27 -119.5q0 -56 -21 -105t-58 -85t-86.5 -57t-105.5 -21q-51 0 -96 18l-33 -59h-99zM153 259q0 -31 11.5 -58.5t31.5 -48.5l152 263
q-18 7 -40 7q-31 0 -59.5 -13t-49.5 -35.5t-33.5 -52t-12.5 -62.5zM308 99q32 0 60 12.5t49 34.5t33 51t12 62q0 32 -11 60t-31 49l-151 -262q9 -3 18.5 -5t20.5 -2z" />
    <glyph glyph-name="ugrave" unicode="&#xf9;" horiz-adv-x="611" 
d="M277 -10q-45 0 -83.5 16.5t-66 46t-43.5 69t-16 85.5v313h117v-308q0 -48 31.5 -79.5t82.5 -31.5q27 0 50.5 10t40.5 27t27 41t10 51v290h117v-521h-117v58q-24 -32 -64.5 -49.5t-85.5 -17.5zM156 713l111 37l84 -171h-81z" />
    <glyph glyph-name="uacute" unicode="&#xfa;" horiz-adv-x="614" 
d="M278 -10q-45 0 -83.5 16.5t-66 46t-43.5 69t-16 85.5v313h117v-308q0 -48 31.5 -79.5t82.5 -31.5q27 0 50.5 10t40.5 27t27 41t10 51v290h117v-521h-117v58q-24 -32 -64.5 -49.5t-85.5 -17.5zM264 579l84 171l111 -37l-114 -134h-81z" />
    <glyph glyph-name="ucircumflex" unicode="&#xfb;" horiz-adv-x="614" 
d="M278 -10q-45 0 -83.5 16.5t-66 46t-43.5 69t-16 85.5v313h117v-308q0 -48 31.5 -79.5t82.5 -31.5q27 0 50.5 10t40.5 27t27 41t10 51v290h117v-521h-117v58q-24 -32 -64.5 -49.5t-85.5 -17.5zM261 720h92l135 -159h-98l-83 79l-82 -79h-99z" />
    <glyph glyph-name="udieresis" unicode="&#xfc;" horiz-adv-x="614" 
d="M278 -10q-45 0 -83.5 16.5t-66 46t-43.5 69t-16 85.5v313h117v-308q0 -48 31.5 -79.5t82.5 -31.5q27 0 50.5 10t40.5 27t27 41t10 51v290h117v-521h-117v58q-24 -32 -64.5 -49.5t-85.5 -17.5zM140 648q0 25 17 42t43 17q25 0 42 -17t17 -42t-17 -42.5t-42 -17.5
q-26 0 -43 17.5t-17 42.5zM355 648q0 25 17 42t43 17q25 0 42 -17t17 -42t-17 -42.5t-42 -17.5q-26 0 -43 17.5t-17 42.5z" />
    <glyph glyph-name="yacute" unicode="&#xfd;" horiz-adv-x="617" 
d="M101 -88q25 -13 45 -13q35 0 55.5 34t39.5 87l-212 500h126l150 -352l150 352h126l-265 -615q-23 -53 -65.5 -82t-91.5 -29q-46 0 -88 27zM262 579l84 171l111 -37l-114 -134h-81z" />
    <glyph glyph-name="thorn" unicode="&#xfe;" horiz-adv-x="661" 
d="M188 261q0 -34 12 -64t33 -52t49 -34.5t61 -12.5q32 0 60 12.5t49 35t33 52.5t12 64t-11.5 63.5t-32 51t-48.5 33.5t-61 12t-61.5 -12.5t-49.5 -34t-33 -51t-12 -63.5zM356 -9q-49 0 -92.5 18.5t-75.5 54.5v-259h-117v897h117v-246q34 38 77 56.5t91 18.5q53 0 100 -21.5
t82.5 -59t56 -87t20.5 -105.5q0 -55 -20 -103.5t-55.5 -85t-82.5 -57.5t-101 -21z" />
    <glyph glyph-name="ydieresis" unicode="&#xff;" horiz-adv-x="617" 
d="M101 -88q25 -13 45 -13q35 0 55.5 34t39.5 87l-212 500h126l150 -352l150 352h126l-265 -615q-23 -53 -65.5 -82t-91.5 -29q-46 0 -88 27zM142 648q0 25 17 42t43 17q25 0 42 -17t17 -42t-17 -42.5t-42 -17.5q-26 0 -43 17.5t-17 42.5zM357 648q0 25 17 42t43 17
q25 0 42 -17t17 -42t-17 -42.5t-42 -17.5q-26 0 -43 17.5t-17 42.5z" />
    <glyph glyph-name="Amacron" unicode="&#x100;" horiz-adv-x="729" 
d="M363 529l-97 -246h194zM420 700l277 -700h-125l-71 180h-275l-71 -180h-125l276 700h114zM511 856v-81h-293v81h293z" />
    <glyph glyph-name="amacron" unicode="&#x101;" 
d="M466 260q0 34 -12 63.5t-33 51.5t-49 34.5t-60 12.5q-33 0 -61 -12.5t-48.5 -34.5t-32.5 -51.5t-12 -64.5q0 -34 11.5 -63.5t32 -51t48.5 -33.5t61 -12t61.5 12.5t49 34.5t32.5 51t12 63zM298 530q50 0 93 -18.5t75 -54.5v64h117v-520h-117v64q-34 -37 -77 -56t-91 -19
q-52 0 -99 21.5t-82.5 59t-56 87t-20.5 105.5q0 55 20.5 103.5t55.5 85t82 57.5t100 21zM466 666v-81h-293v81h293z" />
    <glyph glyph-name="Abreve" unicode="&#x102;" horiz-adv-x="729" 
d="M363 529l-97 -246h194zM420 700l277 -700h-125l-71 180h-275l-71 -180h-125l276 700h114zM277 903q42 -37 89 -37q23 0 43.5 8.5t43.5 28.5l57 -55q-27 -32 -65.5 -50.5t-80.5 -18.5q-41 0 -78 17.5t-66 50.5z" />
    <glyph glyph-name="abreve" unicode="&#x103;" 
d="M465 260q0 34 -12 63.5t-33 51.5t-49 34.5t-60 12.5q-33 0 -61 -12.5t-48.5 -34.5t-32.5 -51.5t-12 -64.5q0 -34 11.5 -63.5t32 -51t48.5 -33.5t61 -12t61.5 12.5t49 34.5t32.5 51t12 63zM297 530q50 0 93 -18.5t75 -54.5v64h117v-520h-117v64q-34 -37 -77 -56t-91 -19
q-52 0 -99 21.5t-82.5 59t-56 87t-20.5 105.5q0 55 20.5 103.5t55.5 85t82 57.5t100 21zM231 713q42 -37 89 -37q23 0 43.5 8.5t43.5 28.5l57 -55q-27 -32 -65.5 -50.5t-80.5 -18.5q-41 0 -78 17.5t-66 50.5z" />
    <glyph glyph-name="Aogonek" unicode="&#x104;" horiz-adv-x="726" 
d="M695 -113q27 0 48 19l35 -51q-43 -37 -90 -37q-25 0 -47 9t-38.5 24.5t-25.5 37t-9 46.5q0 44 32 73l-32 1l-70 179h-269l-74 -188h-125l276 700h114l277 -700h-5q-20 0 -36 -14q-12 -11 -15.5 -26t1.5 -30q4 -19 18.5 -31t34.5 -12zM457 291l-94 238l-94 -238h188z" />
    <glyph glyph-name="aogonek" unicode="&#x105;" 
d="M40 262q0 56 20 104.5t55 84.5t82 57t101 21q49 0 92.5 -18t75.5 -55v64h117v-520h-1q-20 0 -36 -14q-12 -11 -16 -26t1 -30q4 -19 18.5 -31t34.5 -12q29 0 48 19l35 -51q-41 -37 -89 -37q-26 0 -48 9t-38 24.5t-25 37t-9 46.5q0 45 33 74l-25 1v55q-34 -38 -77 -56.5
t-91 -18.5q-52 0 -99 21.5t-82.5 59t-56 87t-20.5 104.5zM310 99q33 0 61.5 12.5t49.5 34t33 51t12 63.5t-12 63.5t-33 51.5t-49 34.5t-61 12.5q-32 0 -60 -12.5t-48.5 -34.5t-32.5 -52t-12 -64t11.5 -63.5t32 -51t48 -33.5t60.5 -12z" />
    <glyph glyph-name="Cacute" unicode="&#x106;" horiz-adv-x="686" 
d="M643 104q-50 -55 -116 -85t-140 -30q-70 0 -132.5 28.5t-109.5 77.5t-74.5 114.5t-27.5 139.5t27.5 139.5t75 115t110.5 78t133 28.5q74 0 139.5 -30t115.5 -86l-78 -78q-35 42 -79 63.5t-95 21.5q-48 0 -90 -19.5t-73.5 -53.5t-50 -80t-18.5 -98t18.5 -98t50 -80
t73.5 -54t90 -20q50 0 94 21.5t78 62.5zM336 769l84 171l111 -37l-114 -134h-81z" />
    <glyph glyph-name="cacute" unicode="&#x107;" horiz-adv-x="545" 
d="M435 356q-22 31 -57 49t-72 18q-31 0 -59 -13t-49 -35.5t-33.5 -52t-12.5 -62.5t12.5 -62.5t33.5 -51.5t49.5 -34.5t61.5 -12.5q37 0 70 16.5t56 48.5l76 -75q-83 -98 -204 -98q-57 0 -106.5 21t-86.5 57t-58 85t-21 105t21 105.5t57.5 86.5t86 58.5t105.5 21.5
q60 0 113 -25t93 -73zM255 579l84 171l111 -37l-114 -134h-81z" />
    <glyph glyph-name="Ccircumflex" unicode="&#x108;" horiz-adv-x="684" 
d="M643 104q-50 -55 -116 -85t-140 -30q-70 0 -132.5 28.5t-109.5 77.5t-74.5 114.5t-27.5 139.5t27.5 139.5t75 115t110.5 78t133 28.5q74 0 139.5 -30t115.5 -86l-78 -78q-35 42 -79 63.5t-95 21.5q-48 0 -90 -19.5t-73.5 -53.5t-50 -80t-18.5 -98t18.5 -98t50 -80
t73.5 -54t90 -20q50 0 94 21.5t78 62.5zM359 910h92l135 -159h-98l-83 79l-82 -79h-99z" />
    <glyph glyph-name="ccircumflex" unicode="&#x109;" horiz-adv-x="540" 
d="M435 356q-22 31 -57 49t-72 18q-31 0 -59 -13t-49 -35.5t-33.5 -52t-12.5 -62.5t12.5 -62.5t33.5 -51.5t49.5 -34.5t61.5 -12.5q37 0 70 16.5t56 48.5l76 -75q-83 -98 -204 -98q-57 0 -106.5 21t-86.5 57t-58 85t-21 105t21 105.5t57.5 86.5t86 58.5t105.5 21.5
q60 0 113 -25t93 -73zM255 720h92l135 -159h-98l-83 79l-82 -79h-99z" />
    <glyph glyph-name="Cdotaccent" unicode="&#x10a;" horiz-adv-x="686" 
d="M643 104q-50 -55 -116 -85t-140 -30q-70 0 -132.5 28.5t-109.5 77.5t-74.5 114.5t-27.5 139.5t27.5 139.5t75 115t110.5 78t133 28.5q74 0 139.5 -30t115.5 -86l-78 -78q-35 42 -79 63.5t-95 21.5q-48 0 -90 -19.5t-73.5 -53.5t-50 -80t-18.5 -98t18.5 -98t50 -80
t73.5 -54t90 -20q50 0 94 21.5t78 62.5zM292 839q0 25 17 42t42 17t42.5 -17t17.5 -42t-17.5 -42.5t-42.5 -17.5t-42 17.5t-17 42.5z" />
    <glyph glyph-name="cdotaccent" unicode="&#x10b;" horiz-adv-x="540" 
d="M435 356q-22 31 -57 49t-72 18q-31 0 -59 -13t-49 -35.5t-33.5 -52t-12.5 -62.5t12.5 -62.5t33.5 -51.5t49.5 -34.5t61.5 -12.5q37 0 70 16.5t56 48.5l76 -75q-83 -98 -204 -98q-57 0 -106.5 21t-86.5 57t-58 85t-21 105t21 105.5t57.5 86.5t86 58.5t105.5 21.5
q60 0 113 -25t93 -73zM237 649q0 25 17 42t42 17t42.5 -17t17.5 -42t-17.5 -42.5t-42.5 -17.5t-42 17.5t-17 42.5z" />
    <glyph glyph-name="Ccaron" unicode="&#x10c;" horiz-adv-x="685" 
d="M643 104q-50 -55 -116 -85t-140 -30q-70 0 -132.5 28.5t-109.5 77.5t-74.5 114.5t-27.5 139.5t27.5 139.5t75 115t110.5 78t133 28.5q74 0 139.5 -30t115.5 -86l-78 -78q-35 42 -79 63.5t-95 21.5q-48 0 -90 -19.5t-73.5 -53.5t-50 -80t-18.5 -98t18.5 -98t50 -80
t73.5 -54t90 -20q50 0 94 21.5t78 62.5zM219 910h98l83 -79l82 79h98l-134 -159h-93z" />
    <glyph glyph-name="ccaron" unicode="&#x10d;" horiz-adv-x="545" 
d="M435 356q-22 31 -57 49t-72 18q-31 0 -59 -13t-49 -35.5t-33.5 -52t-12.5 -62.5t12.5 -62.5t33.5 -51.5t49.5 -34.5t61.5 -12.5q37 0 70 16.5t56 48.5l76 -75q-83 -98 -204 -98q-57 0 -106.5 21t-86.5 57t-58 85t-21 105t21 105.5t57.5 86.5t86 58.5t105.5 21.5
q60 0 113 -25t93 -73zM120 720h98l83 -79l82 79h98l-134 -159h-93z" />
    <glyph glyph-name="Dcaron" unicode="&#x10e;" horiz-adv-x="736" 
d="M201 595v-489h108q58 0 105 18.5t80.5 51t51.5 77.5t18 97q0 53 -18 98t-51.5 77.5t-80.5 51t-105 18.5h-108zM83 0v701h226q82 0 150.5 -27t118 -74.5t77 -111.5t27.5 -139t-27.5 -138.5t-76.5 -110.5t-117.5 -73.5t-151.5 -26.5h-226zM177 910h98l83 -79l82 79h98
l-134 -159h-93z" />
    <glyph glyph-name="dcaron" unicode="&#x10f;" horiz-adv-x="844" 
d="M459 260q0 34 -12 63.5t-33 51.5t-49 34.5t-61 12.5q-32 0 -60 -12.5t-49 -34.5t-33 -51.5t-12 -64.5q0 -34 11.5 -63.5t32 -51t48.5 -33.5t61 -12t61.5 12.5t49.5 34.5t33 51t12 63zM291 530q49 0 92.5 -18.5t75.5 -54.5v244h117v-700h-117v64q-34 -37 -77 -56t-91 -19
q-53 0 -100 21.5t-82 59t-55.5 87t-20.5 105.5q0 55 20 103.5t55 85t82 57.5t101 21zM795 632q0 -49 -24.5 -91.5t-72.5 -71.5l-42 67q17 11 27 27.5t10 35.5q-22 8 -35.5 26.5t-13.5 41.5q0 30 21.5 51t50.5 21q35 0 57 -29.5t22 -77.5z" />
    <glyph glyph-name="Dcroat" unicode="&#x110;" horiz-adv-x="750" 
d="M700 350q0 -75 -27 -139t-76.5 -111t-117.5 -73.5t-151 -26.5h-227v294h-50v101h50v306h227q82 0 150.5 -27t117.5 -74t76.5 -111.5t27.5 -138.5zM582 351q0 53 -18 97.5t-51 77t-80 51t-105 18.5h-109v-200h144v-101h-144v-188h109q58 0 105 18.5t80 51t51 77.5t18 98z
" />
    <glyph glyph-name="dcroat" unicode="&#x111;" horiz-adv-x="688" 
d="M39 263q0 56 20 104.5t55 84.5t81.5 57t100.5 21q50 0 93 -18t75 -55v112h-122v84h122v48h117v-48h53v-84h-53v-569h-117v65q-34 -38 -77 -56.5t-91 -18.5q-52 0 -99 21.5t-82 59t-55.5 87t-20.5 105.5zM308 99q33 0 61.5 12.5t49.5 34.5t33 51t12 63t-12 64t-33 52
t-49 34.5t-61 12.5q-32 0 -60 -12.5t-48.5 -35t-32.5 -52t-12 -64.5q0 -34 11.5 -63.5t32 -51t48 -33.5t60.5 -12z" />
    <glyph glyph-name="Emacron" unicode="&#x112;" horiz-adv-x="620" 
d="M80 1v699h499v-106h-381v-162h335v-106h-335v-219h381v-106h-499zM457 846v-81h-293v81h293z" />
    <glyph glyph-name="emacron" unicode="&#x113;" horiz-adv-x="616" 
d="M452 308q-14 51 -54 83t-92 32q-51 0 -90.5 -31t-55.5 -84h292zM508 85q-32 -43 -87.5 -68.5t-117.5 -25.5q-55 0 -104 21t-86 58t-58 86t-21 105t21.5 104.5t59 85t87.5 57.5t107 21q62 0 113.5 -24.5t87.5 -67t54 -100.5t12 -125h-415q6 -25 20 -46t34 -36.5t45 -24
t52 -8.5q38 0 69.5 16t54.5 45zM455 666v-81h-293v81h293z" />
    <glyph glyph-name="Ebreve" unicode="&#x114;" horiz-adv-x="617" 
d="M80 1v699h499v-106h-381v-162h335v-106h-335v-219h381v-106h-499zM222 903q42 -37 89 -37q23 0 43.5 8.5t43.5 28.5l57 -55q-27 -32 -65.5 -50.5t-80.5 -18.5q-41 0 -78 17.5t-66 50.5z" />
    <glyph glyph-name="ebreve" unicode="&#x115;" horiz-adv-x="615" 
d="M452 308q-14 51 -54 83t-92 32q-51 0 -90.5 -31t-55.5 -84h292zM508 85q-32 -43 -87.5 -68.5t-117.5 -25.5q-55 0 -104 21t-86 58t-58 86t-21 105t21.5 104.5t59 85t87.5 57.5t107 21q62 0 113.5 -24.5t87.5 -67t54 -100.5t12 -125h-415q6 -25 20 -46t34 -36.5t45 -24
t52 -8.5q38 0 69.5 16t54.5 45zM220 713q42 -37 89 -37q23 0 43.5 8.5t43.5 28.5l57 -55q-27 -32 -65.5 -50.5t-80.5 -18.5q-41 0 -78 17.5t-66 50.5z" />
    <glyph glyph-name="Edotaccent" unicode="&#x116;" horiz-adv-x="625" 
d="M80 1v699h499v-106h-381v-162h335v-106h-335v-219h381v-106h-499zM261 839q0 25 17 42t42 17t42.5 -17t17.5 -42t-17.5 -42.5t-42.5 -17.5t-42 17.5t-17 42.5z" />
    <glyph glyph-name="edotaccent" unicode="&#x117;" horiz-adv-x="615" 
d="M452 308q-14 51 -54 83t-92 32q-51 0 -90.5 -31t-55.5 -84h292zM508 85q-32 -43 -87.5 -68.5t-117.5 -25.5q-55 0 -104 21t-86 58t-58 86t-21 105t21.5 104.5t59 85t87.5 57.5t107 21q62 0 113.5 -24.5t87.5 -67t54 -100.5t12 -125h-415q6 -25 20 -46t34 -36.5t45 -24
t52 -8.5q38 0 69.5 16t54.5 45zM248 649q0 25 17 42t42 17t42.5 -17t17.5 -42t-17.5 -42.5t-42.5 -17.5t-42 17.5t-17 42.5z" />
    <glyph glyph-name="Eogonek" unicode="&#x118;" horiz-adv-x="620" 
d="M581 -112q27 0 48 19l35 -52q-40 -36 -90 -36q-25 0 -47 9t-38.5 24.5t-25.5 36.5t-9 46q0 39 25 66h-400v699h501v-106h-383v-162h336v-106h-336v-219h383v-106h-2q-20 0 -34 -13q-14 -12 -17.5 -27.5t1.5 -30.5q4 -18 18.5 -30t34.5 -12z" />
    <glyph glyph-name="eogonek" unicode="&#x119;" horiz-adv-x="615" 
d="M318 97q38 0 69.5 16t54.5 45l72 -73q-32 -44 -84 -67t-109 -26q-2 -2 -3.5 -3t-3.5 -2q-12 -11 -16 -26.5t1 -29.5q4 -19 18.5 -31t34.5 -12q29 0 48 19l35 -52q-40 -36 -89 -36q-26 0 -48 9t-38 24.5t-25 36.5t-9 46q0 38 22 63q-45 11 -83 35.5t-65.5 59t-43.5 77.5
t-16 91q0 56 21.5 104.5t59 85t87 57.5t106.5 21q62 0 113 -24t87 -66.5t54.5 -100.5t13.5 -126h-415q6 -25 20 -46t34 -36.5t45 -24t52 -8.5zM312 423q-51 0 -90.5 -31t-55.5 -84h291q-14 52 -54 83.5t-91 31.5z" />
    <glyph glyph-name="Ecaron" unicode="&#x11a;" horiz-adv-x="620" 
d="M80 1v699h499v-106h-381v-162h335v-106h-335v-219h381v-106h-499zM134 910h98l83 -79l82 79h98l-134 -159h-93z" />
    <glyph glyph-name="ecaron" unicode="&#x11b;" horiz-adv-x="616" 
d="M452 308q-14 51 -54 83t-92 32q-51 0 -90.5 -31t-55.5 -84h292zM508 85q-32 -43 -87.5 -68.5t-117.5 -25.5q-55 0 -104 21t-86 58t-58 86t-21 105t21.5 104.5t59 85t87.5 57.5t107 21q62 0 113.5 -24.5t87.5 -67t54 -100.5t12 -125h-415q6 -25 20 -46t34 -36.5t45 -24
t52 -8.5q38 0 69.5 16t54.5 45zM133 720h98l83 -79l82 79h98l-134 -159h-93z" />
    <glyph glyph-name="Gcircumflex" unicode="&#x11c;" horiz-adv-x="720" 
d="M651 381v-280q-114 -111 -253 -111q-73 0 -137.5 28t-112.5 76.5t-76 114t-28 139.5q0 75 28 140.5t76 115t112 78t136 28.5q64 0 122.5 -22t98.5 -58l-57 -98q-32 32 -74.5 50.5t-89.5 18.5q-48 0 -90 -19.5t-74 -53t-50.5 -79t-18.5 -97.5t18.5 -98t50 -80.5
t73.5 -54.5t88 -20q40 0 79 14t62 34v128h-143v106h260zM324 910h92l135 -159h-98l-83 79l-82 -79h-99z" />
    <glyph glyph-name="gcircumflex" unicode="&#x11d;" horiz-adv-x="643" 
d="M39 267q0 54 20 102t54 83.5t79.5 56t97.5 20.5q94 0 163 -71v61h118v-489q0 -53 -19.5 -97t-55 -75.5t-85 -49t-109.5 -17.5q-116 0 -188 69l32 95q23 -27 61 -42.5t85 -15.5q35 0 64.5 9t51 24.5t33.5 37.5t12 48v52q-69 -71 -161 -71q-51 0 -97 21.5t-80.5 58.5
t-55 86t-20.5 104zM305 106q32 0 59 12t47 33t31 49.5t11 61.5q0 34 -11.5 63t-31.5 50.5t-47 33.5t-59 12q-31 0 -58 -12t-47 -33t-31 -50t-11 -63t11 -63t31 -50t47 -32.5t59 -11.5zM276 720h92l135 -159h-98l-83 79l-82 -79h-99z" />
    <glyph glyph-name="Gbreve" unicode="&#x11e;" horiz-adv-x="726" 
d="M651 381v-280q-114 -111 -253 -111q-73 0 -137.5 28t-112.5 76.5t-76 114t-28 139.5q0 75 28 140.5t76 115t112 78t136 28.5q64 0 122.5 -22t98.5 -58l-57 -98q-32 32 -74.5 50.5t-89.5 18.5q-48 0 -90 -19.5t-74 -53t-50.5 -79t-18.5 -97.5t18.5 -98t50 -80.5
t73.5 -54.5t88 -20q40 0 79 14t62 34v128h-143v106h260zM275 903q42 -37 89 -37q23 0 43.5 8.5t43.5 28.5l57 -55q-27 -32 -65.5 -50.5t-80.5 -18.5q-41 0 -78 17.5t-66 50.5z" />
    <glyph glyph-name="gbreve" unicode="&#x11f;" horiz-adv-x="644" 
d="M39 267q0 54 20 102t54 83.5t79.5 56t97.5 20.5q94 0 163 -71v61h118v-489q0 -53 -19.5 -97t-55 -75.5t-85 -49t-109.5 -17.5q-116 0 -188 69l32 95q23 -27 61 -42.5t85 -15.5q35 0 64.5 9t51 24.5t33.5 37.5t12 48v52q-69 -71 -161 -71q-51 0 -97 21.5t-80.5 58.5
t-55 86t-20.5 104zM305 106q32 0 59 12t47 33t31 49.5t11 61.5q0 34 -11.5 63t-31.5 50.5t-47 33.5t-59 12q-31 0 -58 -12t-47 -33t-31 -50t-11 -63t11 -63t31 -50t47 -32.5t59 -11.5zM237 713q42 -37 89 -37q23 0 43.5 8.5t43.5 28.5l57 -55q-27 -32 -65.5 -50.5
t-80.5 -18.5q-41 0 -78 17.5t-66 50.5z" />
    <glyph glyph-name="Gdotaccent" unicode="&#x120;" horiz-adv-x="726" 
d="M651 381v-280q-114 -111 -253 -111q-73 0 -137.5 28t-112.5 76.5t-76 114t-28 139.5q0 75 28 140.5t76 115t112 78t136 28.5q64 0 122.5 -22t98.5 -58l-57 -98q-32 32 -74.5 50.5t-89.5 18.5q-48 0 -90 -19.5t-74 -53t-50.5 -79t-18.5 -97.5t18.5 -98t50 -80.5
t73.5 -54.5t88 -20q40 0 79 14t62 34v128h-143v106h260zM316 839q0 25 17 42t42 17t42.5 -17t17.5 -42t-17.5 -42.5t-42.5 -17.5t-42 17.5t-17 42.5z" />
    <glyph glyph-name="gdotaccent" unicode="&#x121;" horiz-adv-x="644" 
d="M39 267q0 54 20 102t54 83.5t79.5 56t97.5 20.5q94 0 163 -71v61h118v-489q0 -53 -19.5 -97t-55 -75.5t-85 -49t-109.5 -17.5q-116 0 -188 69l32 95q23 -27 61 -42.5t85 -15.5q35 0 64.5 9t51 24.5t33.5 37.5t12 48v52q-69 -71 -161 -71q-51 0 -97 21.5t-80.5 58.5
t-55 86t-20.5 104zM305 106q32 0 59 12t47 33t31 49.5t11 61.5q0 34 -11.5 63t-31.5 50.5t-47 33.5t-59 12q-31 0 -58 -12t-47 -33t-31 -50t-11 -63t11 -63t31 -50t47 -32.5t59 -11.5zM261 649q0 25 17 42t42 17t42.5 -17t17.5 -42t-17.5 -42.5t-42.5 -17.5t-42 17.5
t-17 42.5z" />
    <glyph glyph-name="uni0122" unicode="&#x122;" horiz-adv-x="726" 
d="M651 381v-280q-114 -111 -253 -111q-73 0 -137.5 28t-112.5 76.5t-76 114t-28 139.5q0 75 28 140.5t76 115t112 78t136 28.5q64 0 122.5 -22t98.5 -58l-57 -98q-32 32 -74.5 50.5t-89.5 18.5q-48 0 -90 -19.5t-74 -53t-50.5 -79t-18.5 -97.5t18.5 -98t50 -80.5
t73.5 -54.5t88 -20q40 0 79 14t62 34v128h-143v106h260zM471 -116q0 -41 -21 -76.5t-62 -61.5l-39 61q13 8 21 20.5t8 29.5q-15 7 -24.5 22t-9.5 33q0 25 17 41.5t43 16.5q32 0 49.5 -25t17.5 -61z" />
    <glyph glyph-name="uni0123" unicode="&#x123;" horiz-adv-x="643" 
d="M36 267q0 54 20 102t54 83.5t79.5 56t97.5 20.5q94 0 163 -71v61h118v-489q0 -53 -19.5 -97t-55 -75.5t-85 -49t-109.5 -17.5q-116 0 -188 69l32 95q23 -27 61 -42.5t85 -15.5q35 0 64.5 9t51 24.5t33.5 37.5t12 48v52q-69 -71 -161 -71q-51 0 -97 21.5t-80.5 58.5
t-55 86t-20.5 104zM302 106q32 0 59 12t47 33t31 49.5t11 61.5q0 34 -11.5 63t-31.5 50.5t-47 33.5t-59 12q-31 0 -58 -12t-47 -33t-31 -50t-11 -63t11 -63t31 -50t47 -32.5t59 -11.5zM237 701q0 49 24.5 91.5t72.5 71.5l42 -67q-17 -11 -27 -27.5t-10 -35.5
q22 -8 35.5 -26.5t13.5 -41.5q0 -30 -21.5 -51t-50.5 -21q-35 0 -57 29.5t-22 77.5z" />
    <glyph glyph-name="Hcircumflex" unicode="&#x124;" horiz-adv-x="701" 
d="M502 432v269h117v-701h-117v326h-303v-326h-117v701h117v-269h303zM304 900h92l135 -159h-98l-83 79l-82 -79h-99z" />
    <glyph glyph-name="hcircumflex" unicode="&#x125;" horiz-adv-x="641" 
d="M355 529q46 0 85.5 -17.5t68.5 -49t45.5 -74t16.5 -92.5v-295h-117v291q0 56 -33.5 91.5t-86.5 35.5q-29 0 -54.5 -11t-45 -29.5t-30.5 -43.5t-11 -53v-281h-118v701h118v-247q29 35 71.5 54.5t90.5 19.5zM86 884h92l135 -159h-98l-83 79l-82 -79h-99z" />
    <glyph glyph-name="Hbar" unicode="&#x126;" horiz-adv-x="719" 
d="M209 0h-117v536h-35v81h35v85h117v-85h303v85h117v-85h34v-81h-34v-536h-117v326h-303v-326zM209 432h303v104h-303v-104z" />
    <glyph glyph-name="hbar" unicode="&#x127;" horiz-adv-x="667" 
d="M356 419q-28 0 -53.5 -11t-45 -29.5t-30.5 -43t-11 -51.5v-283h-118v579h-51v83h51v38h118v-38h131v-83h-131v-125q29 36 71.5 55t90.5 19q46 0 85 -17.5t68 -49t45.5 -74t16.5 -92.5v-295h-117v290q0 57 -34 92.5t-86 35.5z" />
    <glyph glyph-name="Itilde" unicode="&#x128;" horiz-adv-x="288" 
d="M204 700v-700h-118v700h118zM-28 774q0 66 27.5 106.5t71.5 40.5q24 0 44.5 -11t37.5 -24.5t31.5 -24.5t24.5 -11q14 0 22 20t8 51l76 -6q0 -65 -27.5 -106t-70.5 -41q-23 0 -43.5 11t-37.5 24t-31 24t-25 11q-14 0 -23 -20.5t-9 -49.5z" />
    <glyph glyph-name="itilde" unicode="&#x129;" horiz-adv-x="301" 
d="M196 520v-520h-117v520h117zM-22 584q0 66 27.5 106.5t71.5 40.5q24 0 44.5 -11t37.5 -24.5t31.5 -24.5t24.5 -11q14 0 22 20t8 51l76 -6q0 -65 -27.5 -106t-70.5 -41q-23 0 -43.5 11t-37.5 24t-31 24t-25 11q-14 0 -23 -20.5t-9 -49.5z" />
    <glyph glyph-name="Imacron" unicode="&#x12a;" horiz-adv-x="292" 
d="M206 700v-700h-118v700h118zM293 846v-81h-293v81h293z" />
    <glyph glyph-name="imacron" unicode="&#x12b;" horiz-adv-x="278" 
d="M185 520v-520h-117v520h117zM286 666v-81h-293v81h293z" />
    <glyph glyph-name="Ibreve" unicode="&#x12c;" horiz-adv-x="313" 
d="M209 700v-700h-118v700h118zM68 893q42 -37 89 -37q23 0 43.5 8.5t43.5 28.5l57 -55q-27 -32 -65.5 -50.5t-80.5 -18.5q-41 0 -78 17.5t-66 50.5z" />
    <glyph glyph-name="ibreve" unicode="&#x12d;" horiz-adv-x="304" 
d="M198 520v-520h-117v520h117zM64 713q42 -37 89 -37q23 0 43.5 8.5t43.5 28.5l57 -55q-27 -32 -65.5 -50.5t-80.5 -18.5q-41 0 -78 17.5t-66 50.5z" />
    <glyph glyph-name="Iogonek" unicode="&#x12e;" horiz-adv-x="293" 
d="M186 -108q25 0 45 18l34 -51q-40 -34 -87 -34q-25 0 -47 9t-38 24.5t-25 36.5t-9 46q0 39 27 66v693h118v-700h-19q-24 0 -39.5 -15t-15.5 -38t16 -39t40 -16z" />
    <glyph glyph-name="iogonek" unicode="&#x12f;" horiz-adv-x="276" 
d="M172 -112q29 0 48 19l35 -52q-40 -36 -89 -36q-26 0 -48 9t-38 24.5t-25 36.5t-9 46q0 47 34 74v512h116v-520h-26q-10 0 -19 -4t-17 -10q-12 -11 -16 -26.5t1 -29.5q4 -19 18.5 -31t34.5 -12zM137 586q-28 0 -46.5 19t-18.5 47t18.5 47t46.5 19q27 0 46 -19t19 -47
t-19 -47t-46 -19z" />
    <glyph glyph-name="Idotaccent" unicode="&#x130;" horiz-adv-x="287" 
d="M204 700v-700h-118v700h118zM80 839q0 25 17 42t42 17t42.5 -17t17.5 -42t-17.5 -42.5t-42.5 -17.5t-42 17.5t-17 42.5z" />
    <glyph glyph-name="dotlessi" unicode="&#x131;" horiz-adv-x="278" 
d="M198 520v-520h-117v520h117z" />
    <glyph glyph-name="IJ" unicode="&#x132;" horiz-adv-x="774" 
d="M209 700v-700h-118v700h118zM712 211q0 -44 -15.5 -84t-43.5 -70.5t-66.5 -48.5t-84.5 -18q-39 0 -78 15t-69 46l31 98q26 -28 52 -37.5t49 -9.5q26 0 46 9.5t34 25t21 35.5t7 40v488h117v-489z" />
    <glyph glyph-name="ij" unicode="&#x133;" horiz-adv-x="571" 
d="M76 652q0 28 19 47t46 19q28 0 47 -19t19 -47t-19 -47t-47 -19q-27 0 -46 19t-19 47zM201 521v-520h-117v520h117zM487 -28q0 -85 -45 -133t-121 -48q-65 0 -112 35l31 94q23 -20 56 -20h11t12 2q25 5 38 23t13 55v540h117v-548zM364 653q0 27 19 46t46 19t46 -19.5
t19 -45.5q0 -27 -19 -46.5t-46 -19.5t-46 19t-19 47z" />
    <glyph glyph-name="Jcircumflex" unicode="&#x134;" horiz-adv-x="457" 
d="M394 211q0 -44 -15.5 -84t-43.5 -70.5t-66.5 -48.5t-84.5 -18q-39 0 -78 15t-69 46l31 98q26 -28 52 -37.5t49 -9.5q26 0 46 9.5t34 25t21 35.5t7 40v488h117v-489zM279 910h92l135 -159h-98l-83 79l-82 -79h-99z" />
    <glyph glyph-name="jcircumflex" unicode="&#x135;" horiz-adv-x="275" 
d="M196 -29q0 -83 -42 -134t-126 -51q-68 0 -117 40l31 97q12 -14 29.5 -21t35.5 -7q40 0 56 21.5t16 59.5v544h117v-549zM93 716h92l135 -159h-99l-82 79l-82 -79h-100z" />
    <glyph glyph-name="uni0136" unicode="&#x136;" 
d="M622 0h-137l-224 317l-66 -69v-248h-114v700h114v-287l277 287h152l-283 -300zM391 -106q0 -41 -21 -76.5t-62 -61.5l-39 61q13 8 21 20.5t8 29.5q-15 7 -24.5 22t-9.5 33q0 25 17 41.5t43 16.5q32 0 49.5 -25t17.5 -61z" />
    <glyph glyph-name="uni0137" unicode="&#x137;" horiz-adv-x="600" 
d="M566 520l-224 -192l233 -329h-145l-177 252l-62 -53v-197h-117v699h117v-351l202 171h173zM366 -106q0 -41 -21 -76.5t-62 -61.5l-39 61q13 8 21 20.5t8 29.5q-15 7 -24.5 22t-9.5 33q0 25 17 41.5t43 16.5q32 0 49.5 -25t17.5 -61z" />
    <glyph glyph-name="Lacute" unicode="&#x139;" horiz-adv-x="606" 
d="M77 0v701h118v-595h329v-106h-447zM104 769l84 171l111 -37l-114 -134h-81z" />
    <glyph glyph-name="lacute" unicode="&#x13a;" horiz-adv-x="275" 
d="M197 700v-699h-117v699h117zM99 760l84 171l111 -37l-114 -134h-81z" />
    <glyph glyph-name="uni013B" unicode="&#x13b;" horiz-adv-x="599" 
d="M77 0v701h118v-595h329v-106h-447zM365 -106q0 -41 -21 -76.5t-62 -61.5l-39 61q13 8 21 20.5t8 29.5q-15 7 -24.5 22t-9.5 33q0 25 17 41.5t43 16.5q32 0 49.5 -25t17.5 -61z" />
    <glyph glyph-name="uni013C" unicode="&#x13c;" horiz-adv-x="290" 
d="M197 700v-699h-117v699h117zM211 -106q0 -41 -21 -76.5t-62 -61.5l-39 61q13 8 21 20.5t8 29.5q-15 7 -24.5 22t-9.5 33q0 25 17 41.5t43 16.5q32 0 49.5 -25t17.5 -61z" />
    <glyph glyph-name="Lcaron" unicode="&#x13d;" horiz-adv-x="606" 
d="M77 0v701h118v-595h329v-106h-447zM432 642q0 -49 -24.5 -91.5t-72.5 -71.5l-42 67q17 11 27 27.5t10 35.5q-22 8 -35.5 26.5t-13.5 41.5q0 30 21.5 51t50.5 21q35 0 57 -29.5t22 -77.5z" />
    <glyph glyph-name="lcaron" unicode="&#x13e;" horiz-adv-x="475" 
d="M197 700v-699h-117v699h117zM437 632q0 -49 -24.5 -91.5t-72.5 -71.5l-42 67q17 11 27 27.5t10 35.5q-22 8 -35.5 26.5t-13.5 41.5q0 30 21.5 51t50.5 21q35 0 57 -29.5t22 -77.5z" />
    <glyph glyph-name="Ldot" unicode="&#x13f;" horiz-adv-x="606" 
d="M77 0v701h118v-595h329v-106h-447zM271 269q0 29 21.5 50.5t51.5 21.5q29 0 50 -21.5t21 -50.5q0 -30 -21 -51t-50 -21q-30 0 -51.5 21t-21.5 51z" />
    <glyph glyph-name="ldot" unicode="&#x140;" horiz-adv-x="465" 
d="M197 700v-699h-117v699h117zM277 254q0 29 21.5 50.5t51.5 21.5q29 0 50 -21.5t21 -50.5q0 -30 -21 -51t-50 -21q-30 0 -51.5 21t-21.5 51z" />
    <glyph glyph-name="Lslash" unicode="&#x141;" horiz-adv-x="625" 
d="M596 0h-488v255l-57 -33v115l57 33v331h118v-263l121 69v-115l-121 -69v-217h370v-106z" />
    <glyph glyph-name="lslash" unicode="&#x142;" horiz-adv-x="365" 
d="M120 701h117v-250l96 55v-115l-96 -55v-335h-117v268l-88 -50v114l88 51v317z" />
    <glyph glyph-name="Nacute" unicode="&#x143;" horiz-adv-x="784" 
d="M568 0l-373 506v-506h-117v700h117l372 -504v504h117v-700h-116zM333 769l84 171l111 -37l-114 -134h-81z" />
    <glyph glyph-name="nacute" unicode="&#x144;" horiz-adv-x="606" 
d="M338 530q45 0 83 -16.5t65.5 -45.5t43.5 -68.5t16 -85.5v-314h-116v308q0 24 -8.5 44.5t-23.5 35t-36 23t-46 8.5q-27 0 -51 -9.5t-41 -27t-27 -41t-10 -50.5v-291h-117v521h117v-57q24 31 65 48.5t86 17.5zM278 580l84 171l111 -37l-114 -134h-81z" />
    <glyph glyph-name="uni0145" unicode="&#x145;" horiz-adv-x="784" 
d="M568 0l-373 506v-506h-117v700h117l372 -504v504h117v-700h-116zM458 -106q0 -41 -21 -76.5t-62 -61.5l-39 61q13 8 21 20.5t8 29.5q-15 7 -24.5 22t-9.5 33q0 25 17 41.5t43 16.5q32 0 49.5 -25t17.5 -61z" />
    <glyph glyph-name="uni0146" unicode="&#x146;" horiz-adv-x="613" 
d="M341 530q45 0 83 -16.5t65.5 -45.5t43.5 -68.5t16 -85.5v-314h-116v308q0 24 -8.5 44.5t-23.5 35t-36 23t-46 8.5q-27 0 -51 -9.5t-41 -27t-27 -41t-10 -50.5v-291h-117v521h117v-57q24 31 65 48.5t86 17.5zM372 -106q0 -41 -21 -76.5t-62 -61.5l-39 61q13 8 21 20.5
t8 29.5q-15 7 -24.5 22t-9.5 33q0 25 17 41.5t43 16.5q32 0 49.5 -25t17.5 -61z" />
    <glyph glyph-name="Ncaron" unicode="&#x147;" horiz-adv-x="784" 
d="M568 0l-373 506v-506h-117v700h117l372 -504v504h117v-700h-116zM212 910h98l83 -79l82 79h98l-134 -159h-93z" />
    <glyph glyph-name="ncaron" unicode="&#x148;" horiz-adv-x="614" 
d="M341 530q45 0 83 -16.5t65.5 -45.5t43.5 -68.5t16 -85.5v-314h-116v308q0 24 -8.5 44.5t-23.5 35t-36 23t-46 8.5q-27 0 -51 -9.5t-41 -27t-27 -41t-10 -50.5v-291h-117v521h117v-57q24 31 65 48.5t86 17.5zM126 720h98l83 -79l82 79h98l-134 -159h-93z" />
    <glyph glyph-name="napostrophe" unicode="&#x149;" horiz-adv-x="746" 
d="M472 530q45 0 83 -16.5t65.5 -45.5t43.5 -68.5t16 -85.5v-314h-116v308q0 24 -8.5 44.5t-23.5 35t-36 23t-46 8.5q-27 0 -51 -9.5t-41 -27t-27 -41t-10 -50.5v-291h-117v521h117v-57q24 31 65 48.5t86 17.5zM169 454q0 -41 -21 -76.5t-62 -61.5l-39 61q13 8 21 20.5
t8 29.5q-15 7 -24.5 22t-9.5 33q0 25 17 41.5t43 16.5q32 0 49.5 -25t17.5 -61z" />
    <glyph glyph-name="Omacron" unicode="&#x14c;" horiz-adv-x="798" 
d="M635 350q0 52 -18.5 97.5t-50 79.5t-74 54t-91.5 20q-48 0 -90.5 -20t-74 -54t-50 -79.5t-18.5 -97.5q0 -51 18.5 -97t50.5 -80t74.5 -54t90.5 -20t90.5 20t74 54t50 79.5t18.5 97.5zM50 349q0 75 27.5 140.5t75.5 114.5t112 77.5t137 28.5t137 -28t111.5 -77t75 -114.5
t27.5 -140.5t-27.5 -140.5t-75 -114t-111.5 -77t-137 -28.5t-137 28t-112 77t-75.5 114t-27.5 140zM551 856v-81h-293v81h293z" />
    <glyph glyph-name="omacron" unicode="&#x14d;" horiz-adv-x="621" 
d="M466 259q0 33 -12.5 63t-33.5 52t-49 35t-60 13q-31 0 -59 -13t-49 -35.5t-33.5 -52t-12.5 -62.5t12.5 -62t33.5 -50.5t49 -34.5t59 -13q32 0 60 12.5t49 34.5t33.5 51t12.5 62zM40 259q0 56 21.5 105.5t58 86.5t86 58t105.5 21t105.5 -21t86.5 -58t58.5 -86t21.5 -106
q0 -56 -21.5 -105t-58 -85t-86 -57t-106.5 -21q-56 0 -105.5 21t-86 57.5t-58 85.5t-21.5 104zM457 666v-81h-293v81h293z" />
    <glyph glyph-name="Obreve" unicode="&#x14e;" horiz-adv-x="792" 
d="M630 350q0 52 -18.5 97.5t-50 79.5t-74 54t-91.5 20q-48 0 -90.5 -20t-74 -54t-50 -79.5t-18.5 -97.5q0 -51 18.5 -97t50.5 -80t74.5 -54t90.5 -20t90.5 20t74 54t50 79.5t18.5 97.5zM45 349q0 75 27.5 140.5t75.5 114.5t112 77.5t137 28.5t137 -28t111.5 -77t75 -114.5
t27.5 -140.5t-27.5 -140.5t-75 -114t-111.5 -77t-137 -28.5t-137 28t-112 77t-75.5 114t-27.5 140zM313 903q42 -37 89 -37q23 0 43.5 8.5t43.5 28.5l57 -55q-27 -32 -65.5 -50.5t-80.5 -18.5q-41 0 -78 17.5t-66 50.5z" />
    <glyph glyph-name="obreve" unicode="&#x14f;" horiz-adv-x="615" 
d="M463 259q0 33 -12.5 63t-33.5 52t-49 35t-60 13q-31 0 -59 -13t-49 -35.5t-33.5 -52t-12.5 -62.5t12.5 -62t33.5 -50.5t49 -34.5t59 -13q32 0 60 12.5t49 34.5t33.5 51t12.5 62zM37 259q0 56 21.5 105.5t58 86.5t86 58t105.5 21t105.5 -21t86.5 -58t58.5 -86t21.5 -106
q0 -56 -21.5 -105t-58 -85t-86 -57t-106.5 -21q-56 0 -105.5 21t-86 57.5t-58 85.5t-21.5 104zM220 713q42 -37 89 -37q23 0 43.5 8.5t43.5 28.5l57 -55q-27 -32 -65.5 -50.5t-80.5 -18.5q-41 0 -78 17.5t-66 50.5z" />
    <glyph glyph-name="Ohungarumlaut" unicode="&#x150;" horiz-adv-x="800" 
d="M635 350q0 52 -18.5 97.5t-50 79.5t-74 54t-91.5 20q-48 0 -90.5 -20t-74 -54t-50 -79.5t-18.5 -97.5q0 -51 18.5 -97t50.5 -80t74.5 -54t90.5 -20t90.5 20t74 54t50 79.5t18.5 97.5zM50 349q0 75 27.5 140.5t75.5 114.5t112 77.5t137 28.5t137 -28t111.5 -77t75 -114.5
t27.5 -140.5t-27.5 -140.5t-75 -114t-111.5 -77t-137 -28.5t-137 28t-112 77t-75.5 114t-27.5 140zM236 764l84 171l111 -37l-114 -134h-81zM449 764l84 171l111 -37l-114 -134h-81z" />
    <glyph glyph-name="ohungarumlaut" unicode="&#x151;" horiz-adv-x="615" 
d="M463 259q0 33 -12.5 63t-33.5 52t-49 35t-60 13q-31 0 -59 -13t-49 -35.5t-33.5 -52t-12.5 -62.5t12.5 -62t33.5 -50.5t49 -34.5t59 -13q32 0 60 12.5t49 34.5t33.5 51t12.5 62zM37 259q0 56 21.5 105.5t58 86.5t86 58t105.5 21t105.5 -21t86.5 -58t58.5 -86t21.5 -106
q0 -56 -21.5 -105t-58 -85t-86 -57t-106.5 -21q-56 0 -105.5 21t-86 57.5t-58 85.5t-21.5 104zM152 574l84 171l111 -37l-114 -134h-81zM365 574l84 171l111 -37l-114 -134h-81z" />
    <glyph glyph-name="OE" unicode="&#x152;" horiz-adv-x="943" 
d="M46 349q0 74 28 138t76 111.5t113 75t139 27.5h500v-107h-382v-162h335v-106h-335v-219h382v-107h-500q-74 0 -139 27t-113 74t-76 110.5t-28 137.5zM164 351q0 -51 19 -95t51 -77t75.5 -51.5t92.5 -18.5v484q-49 0 -92.5 -19t-76 -51.5t-51 -76.5t-18.5 -95z" />
    <glyph glyph-name="oe" unicode="&#x153;" horiz-adv-x="1035" 
d="M307 -9q-56 0 -105.5 21t-86 57.5t-58 85.5t-21.5 105t21.5 105.5t58 86t86 58t105.5 21.5q66 0 121.5 -29t92.5 -79q38 49 93.5 77.5t121.5 28.5q62 0 114 -24.5t88 -67.5t53 -101t10 -124h-413q6 -25 20.5 -46t34.5 -36.5t45 -24t52 -8.5q38 0 69.5 16t53.5 45l73 -73
q-32 -43 -88.5 -68.5t-118.5 -25.5q-63 0 -117.5 28.5t-90.5 76.5q-38 -49 -93.5 -77t-120.5 -28zM307 99q32 0 60 12.5t49 34.5t33.5 51.5t12.5 62.5t-12.5 62.5t-33.5 51.5t-48.5 35t-59.5 13q-31 0 -59.5 -13t-49.5 -35.5t-33.5 -51.5t-12.5 -62t12.5 -62.5t33.5 -51
t49 -34.5t59 -13zM734 423q-51 0 -90.5 -31t-55.5 -84h291q-14 52 -54 83.5t-91 31.5z" />
    <glyph glyph-name="Racute" unicode="&#x154;" horiz-adv-x="656" 
d="M490 482q0 49 -35.5 80.5t-95.5 31.5h-160v-225h161q27 0 51 9t41.5 24t27.5 35.5t10 44.5zM199 263v-263h-118v700h279q54 0 99.5 -16.5t78.5 -46t51.5 -69t18.5 -86.5q0 -40 -15.5 -76t-42.5 -64t-64 -47t-79 -25l-20 -2l227 -268h-145l-223 263h-47zM248 769l84 171
l111 -37l-114 -134h-81z" />
    <glyph glyph-name="racute" unicode="&#x155;" horiz-adv-x="410" 
d="M190 453q40 43 90.5 58t107.5 15l-36 -110q-74 0 -118 -40t-44 -116v-260h-117v520h117v-67zM146 579l84 171l111 -37l-114 -134h-81z" />
    <glyph glyph-name="uni0156" unicode="&#x156;" horiz-adv-x="670" 
d="M490 482q0 49 -35.5 80.5t-95.5 31.5h-160v-225h161q27 0 51 9t41.5 24t27.5 35.5t10 44.5zM199 263v-263h-118v700h279q54 0 99.5 -16.5t78.5 -46t51.5 -69t18.5 -86.5q0 -40 -15.5 -76t-42.5 -64t-64 -47t-79 -25l-20 -2l227 -268h-145l-223 263h-47zM401 -106
q0 -41 -21 -76.5t-62 -61.5l-39 61q13 8 21 20.5t8 29.5q-15 7 -24.5 22t-9.5 33q0 25 17 41.5t43 16.5q32 0 49.5 -25t17.5 -61z" />
    <glyph glyph-name="uni0157" unicode="&#x157;" horiz-adv-x="410" 
d="M190 453q40 43 90.5 58t107.5 15l-36 -110q-74 0 -118 -40t-44 -116v-260h-117v520h117v-67zM200 -106q0 -41 -21 -76.5t-62 -61.5l-39 61q13 8 21 20.5t8 29.5q-15 7 -24.5 22t-9.5 33q0 25 17 41.5t43 16.5q32 0 49.5 -25t17.5 -61z" />
    <glyph glyph-name="Rcaron" unicode="&#x158;" horiz-adv-x="656" 
d="M490 482q0 49 -35.5 80.5t-95.5 31.5h-160v-225h161q27 0 51 9t41.5 24t27.5 35.5t10 44.5zM199 263v-263h-118v700h279q54 0 99.5 -16.5t78.5 -46t51.5 -69t18.5 -86.5q0 -40 -15.5 -76t-42.5 -64t-64 -47t-79 -25l-20 -2l227 -268h-145l-223 263h-47zM141 910h98
l83 -79l82 79h98l-134 -159h-93z" />
    <glyph glyph-name="rcaron" unicode="&#x159;" horiz-adv-x="410" 
d="M190 453q40 43 90.5 58t107.5 15l-36 -110q-74 0 -118 -40t-44 -116v-260h-117v520h117v-67zM43 720h98l83 -79l82 79h98l-134 -159h-93z" />
    <glyph glyph-name="Sacute" unicode="&#x15a;" horiz-adv-x="605" 
d="M126 198q6 -22 22 -40t38 -31t49 -20.5t57 -7.5q32 0 58.5 8.5t46 23t30.5 34.5t11 44q0 42 -36 67.5t-116 42.5q-238 49 -238 204q0 42 17.5 76.5t49.5 59t77 38t100 13.5q92 0 156 -37t87 -103l-87 -40q-12 35 -53 56t-98 21q-62 0 -100.5 -23.5t-38.5 -61.5
q0 -70 163 -106q120 -27 177.5 -77t57.5 -128q0 -48 -20 -88.5t-54.5 -70t-82 -46t-103.5 -16.5q-46 0 -88 12t-75.5 33.5t-58.5 52.5t-38 69zM264 769l84 171l111 -37l-114 -134h-81z" />
    <glyph glyph-name="sacute" unicode="&#x15b;" horiz-adv-x="511" 
d="M118 152q17 -28 52 -45t75 -17q21 0 39.5 5t32.5 13.5t22 20t8 24.5q0 21 -22 35t-55.5 26t-72 24t-72 30t-55.5 44t-22 66q0 33 15.5 61t43 49t65 32.5t81.5 11.5q72 0 127 -29.5t75 -79.5l-78 -46q-14 27 -45 42t-73 15t-69.5 -15t-28.5 -38q0 -17 22.5 -28.5t56 -22.5
t73 -23.5t73 -32t56 -48t22.5 -71.5q0 -35 -16.5 -65.5t-45.5 -53t-68.5 -35t-86.5 -12.5q-72 0 -129 30t-85 82zM213 579l84 171l111 -37l-114 -134h-81z" />
    <glyph glyph-name="Scircumflex" unicode="&#x15c;" horiz-adv-x="605" 
d="M126 198q6 -22 22 -40t38 -31t49 -20.5t57 -7.5q32 0 58.5 8.5t46 23t30.5 34.5t11 44q0 42 -36 67.5t-116 42.5q-238 49 -238 204q0 42 17.5 76.5t49.5 59t77 38t100 13.5q92 0 156 -37t87 -103l-87 -40q-12 35 -53 56t-98 21q-62 0 -100.5 -23.5t-38.5 -61.5
q0 -70 163 -106q120 -27 177.5 -77t57.5 -128q0 -48 -20 -88.5t-54.5 -70t-82 -46t-103.5 -16.5q-46 0 -88 12t-75.5 33.5t-58.5 52.5t-38 69zM274 910h92l135 -159h-98l-83 79l-82 -79h-99z" />
    <glyph glyph-name="scircumflex" unicode="&#x15d;" horiz-adv-x="510" 
d="M117 152q17 -28 52 -45t75 -17q21 0 39.5 5t32.5 13.5t22 20t8 24.5q0 21 -22 35t-55.5 26t-72 24t-72 30t-55.5 44t-22 66q0 33 15.5 61t43 49t65 32.5t81.5 11.5q72 0 127 -29.5t75 -79.5l-78 -46q-14 27 -45 42t-73 15t-69.5 -15t-28.5 -38q0 -17 22.5 -28.5t56 -22.5
t73 -23.5t73 -32t56 -48t22.5 -71.5q0 -35 -16.5 -65.5t-45.5 -53t-68.5 -35t-86.5 -12.5q-72 0 -129 30t-85 82zM206 720h92l135 -159h-98l-83 79l-82 -79h-99z" />
    <glyph glyph-name="Scedilla" unicode="&#x15e;" horiz-adv-x="600" 
d="M266 -8q-83 7 -144.5 51t-86.5 114l90 41q14 -44 60.5 -71.5t106.5 -27.5q32 0 58.5 8.5t46 23t30.5 34.5t11 44q0 42 -36.5 67.5t-115.5 42.5q-239 48 -239 204q0 42 17.5 76.5t49.5 59t77 38t100 13.5q92 0 156 -37t87 -103l-87 -40q-12 35 -52.5 56t-98.5 21
q-62 0 -100 -23.5t-38 -61.5q0 -35 39.5 -61.5t122.5 -44.5q120 -27 177.5 -77t57.5 -128q0 -43 -16.5 -80.5t-45.5 -66t-69 -47t-87 -24.5l-7 -20q31 -2 50 -21.5t19 -50.5q0 -39 -29 -65t-73 -26q-27 0 -53 9.5t-43 26.5l19 58q14 -14 31.5 -21.5t33.5 -7.5q19 0 30.5 8
t11.5 20q0 10 -7.5 15t-18.5 5q-15 0 -28 -10l-24 29z" />
    <glyph glyph-name="scedilla" unicode="&#x15f;" horiz-adv-x="510" 
d="M217 -9q-63 8 -108.5 34.5t-73.5 76.5l85 50q17 -28 52.5 -44.5t74.5 -16.5q21 0 40 5t33 13.5t22 20t8 24.5q0 21 -22 35t-55.5 25.5t-72 24t-72 30t-55.5 44t-22 66.5q0 33 15.5 61t42.5 48.5t64.5 32t81.5 11.5q73 0 128 -29t76 -80l-80 -45q-14 26 -45 41t-73 15
t-69.5 -15t-27.5 -37q0 -17 22.5 -28.5t56.5 -22.5t73 -23.5t73 -32t56.5 -48t22.5 -71.5q0 -32 -13.5 -60t-37.5 -49.5t-57 -36t-73 -19.5l-6 -18q32 -2 51.5 -21.5t19.5 -51.5q0 -38 -30 -64t-74 -26q-27 0 -53 9.5t-43 26.5l19 58q14 -14 31 -21.5t34 -7.5q18 0 30 8
t12 20q0 10 -7.5 15t-18.5 5q-15 0 -28 -10l-23 29z" />
    <glyph glyph-name="Scaron" unicode="&#x160;" horiz-adv-x="605" 
d="M125 198q6 -22 22 -40t38 -31t49 -20.5t57 -7.5q32 0 58.5 8.5t46 23t30.5 34.5t11 44q0 42 -36 67.5t-116 42.5q-238 49 -238 204q0 42 17.5 76.5t49.5 59t77 38t100 13.5q92 0 156 -37t87 -103l-87 -40q-12 35 -53 56t-98 21q-62 0 -100.5 -23.5t-38.5 -61.5
q0 -70 163 -106q120 -27 177.5 -77t57.5 -128q0 -48 -20 -88.5t-54.5 -70t-82 -46t-103.5 -16.5q-46 0 -88 12t-75.5 33.5t-58.5 52.5t-38 69zM139 910h98l83 -79l82 79h98l-134 -159h-93z" />
    <glyph glyph-name="scaron" unicode="&#x161;" horiz-adv-x="510" 
d="M117 152q17 -28 52 -45t75 -17q21 0 39.5 5t32.5 13.5t22 20t8 24.5q0 21 -22 35t-55.5 26t-72 24t-72 30t-55.5 44t-22 66q0 33 15.5 61t43 49t65 32.5t81.5 11.5q72 0 127 -29.5t75 -79.5l-78 -46q-14 27 -45 42t-73 15t-69.5 -15t-28.5 -38q0 -17 22.5 -28.5t56 -22.5
t73 -23.5t73 -32t56 -48t22.5 -71.5q0 -35 -16.5 -65.5t-45.5 -53t-68.5 -35t-86.5 -12.5q-72 0 -129 30t-85 82zM72 720h98l83 -79l82 79h98l-134 -159h-93z" />
    <glyph glyph-name="uni0162" unicode="&#x162;" horiz-adv-x="641" 
d="M313 -126q18 0 29.5 8t11.5 20q0 10 -7.5 15t-18.5 5q-16 0 -27 -10l-24 29l19 59h-34v594h-211v106h539v-106h-211v-594h-13l-9 -28q32 -2 51 -21.5t19 -50.5q0 -39 -29.5 -65t-73.5 -26q-27 0 -52.5 9.5t-42.5 26.5l19 58q14 -14 31 -21.5t34 -7.5z" />
    <glyph glyph-name="uni0163" unicode="&#x163;" horiz-adv-x="395" 
d="M245 -126q18 0 29.5 8t11.5 20q0 10 -7 15t-18 5q-15 0 -28 -10l-24 29l18 53q-58 13 -92 53t-34 118v250h-62v100h62v186h117v-186h80l32 -100h-112l-1 -251q0 -36 18.5 -53.5t53.5 -17.5q25 0 49 14l30 -91q-17 -12 -33.5 -17t-38.5 -8l-7 -19q32 -2 51 -21.5t19 -50.5
q0 -39 -29 -65t-74 -26q-26 0 -52 9.5t-43 26.5l19 58q14 -14 31.5 -21.5t33.5 -7.5z" />
    <glyph glyph-name="Tcaron" unicode="&#x164;" horiz-adv-x="641" 
d="M592 594h-221v-594h-117v594h-221v106h559v-106zM133 910h98l83 -79l82 79h98l-134 -159h-93z" />
    <glyph glyph-name="tcaron" unicode="&#x165;" horiz-adv-x="566" 
d="M370 15q-37 -26 -95 -26q-82 0 -127 45t-45 127v253h-62v100h62v186h117v-186h79l33 -100h-112l-1 -251q0 -71 72 -71q25 0 49 14zM515 632q0 -49 -24.5 -91.5t-72.5 -71.5l-42 67q17 11 27 27.5t10 35.5q-22 8 -35.5 26.5t-13.5 41.5q0 30 21.5 51t50.5 21
q35 0 57 -29.5t22 -77.5z" />
    <glyph glyph-name="Tbar" unicode="&#x166;" horiz-adv-x="631" 
d="M595 700v-106h-221v-169h89v-93h-89v-331h-118v331h-85v93h85v169h-221v106h560z" />
    <glyph glyph-name="tbar" unicode="&#x167;" horiz-adv-x="400" 
d="M288 92q34 0 58 20l30 -92q-37 -31 -101 -31q-81 0 -127.5 45.5t-46.5 126.5v254h-60v100h60v60h-60v81h60v44h117v-44h84l25 -81h-109v-60h80l32 -100h-112v-252q0 -71 70 -71z" />
    <glyph glyph-name="Utilde" unicode="&#x168;" horiz-adv-x="767" 
d="M85 700h117v-441q0 -33 14.5 -62t39 -51t58 -34.5t70.5 -12.5q38 0 71.5 12.5t58.5 34.5t39.5 51t14.5 62v441h117v-443q0 -55 -24 -104t-65 -85.5t-95.5 -57.5t-116.5 -21q-61 0 -115.5 21t-95.5 57.5t-64.5 85.5t-23.5 104v443zM212 774q0 66 27.5 106.5t71.5 40.5
q24 0 44.5 -11t37.5 -24.5t31.5 -24.5t24.5 -11q14 0 22 20t8 51l76 -6q0 -65 -27.5 -106t-70.5 -41q-23 0 -43.5 11t-37.5 24t-31 24t-25 11q-14 0 -23 -20.5t-9 -49.5z" />
    <glyph glyph-name="utilde" unicode="&#x169;" horiz-adv-x="603" 
d="M274 -10q-45 0 -83.5 16.5t-66 46t-43.5 69t-16 85.5v313h117v-308q0 -48 31.5 -79.5t82.5 -31.5q27 0 50.5 10t40.5 27t27 41t10 51v290h117v-521h-117v58q-24 -32 -64.5 -49.5t-85.5 -17.5zM129 584q0 66 27.5 106.5t71.5 40.5q24 0 44.5 -11t37.5 -24.5t31.5 -24.5
t24.5 -11q14 0 22 20t8 51l76 -6q0 -65 -27.5 -106t-70.5 -41q-23 0 -43.5 11t-37.5 24t-31 24t-25 11q-14 0 -23 -20.5t-9 -49.5z" />
    <glyph glyph-name="Umacron" unicode="&#x16a;" horiz-adv-x="767" 
d="M83 700h117v-441q0 -33 14.5 -62t39 -51t58 -34.5t70.5 -12.5q38 0 71.5 12.5t58.5 34.5t39.5 51t14.5 62v441h117v-443q0 -55 -24 -104t-65 -85.5t-95.5 -57.5t-116.5 -21q-61 0 -115.5 21t-95.5 57.5t-64.5 85.5t-23.5 104v443zM530 856v-81h-293v81h293z" />
    <glyph glyph-name="umacron" unicode="&#x16b;" horiz-adv-x="603" 
d="M274 -10q-45 0 -83.5 16.5t-66 46t-43.5 69t-16 85.5v313h117v-308q0 -48 31.5 -79.5t82.5 -31.5q27 0 50.5 10t40.5 27t27 41t10 51v290h117v-521h-117v58q-24 -32 -64.5 -49.5t-85.5 -17.5zM448 666v-81h-293v81h293z" />
    <glyph glyph-name="Ubreve" unicode="&#x16c;" horiz-adv-x="767" 
d="M83 700h117v-441q0 -33 14.5 -62t39 -51t58 -34.5t70.5 -12.5q38 0 71.5 12.5t58.5 34.5t39.5 51t14.5 62v441h117v-443q0 -55 -24 -104t-65 -85.5t-95.5 -57.5t-116.5 -21q-61 0 -115.5 21t-95.5 57.5t-64.5 85.5t-23.5 104v443zM296 903q42 -37 89 -37q23 0 43.5 8.5
t43.5 28.5l57 -55q-27 -32 -65.5 -50.5t-80.5 -18.5q-41 0 -78 17.5t-66 50.5z" />
    <glyph glyph-name="ubreve" unicode="&#x16d;" horiz-adv-x="603" 
d="M274 -10q-45 0 -83.5 16.5t-66 46t-43.5 69t-16 85.5v313h117v-308q0 -48 31.5 -79.5t82.5 -31.5q27 0 50.5 10t40.5 27t27 41t10 51v290h117v-521h-117v58q-24 -32 -64.5 -49.5t-85.5 -17.5zM214 713q42 -37 89 -37q23 0 43.5 8.5t43.5 28.5l57 -55q-27 -32 -65.5 -50.5
t-80.5 -18.5q-41 0 -78 17.5t-66 50.5z" />
    <glyph glyph-name="Uring" unicode="&#x16e;" horiz-adv-x="767" 
d="M83 700h117v-441q0 -33 14.5 -62t39 -51t58 -34.5t70.5 -12.5q38 0 71.5 12.5t58.5 34.5t39.5 51t14.5 62v441h117v-443q0 -55 -24 -104t-65 -85.5t-95.5 -57.5t-116.5 -21q-61 0 -115.5 21t-95.5 57.5t-64.5 85.5t-23.5 104v443zM268 848q0 24 9 44.5t25 36.5t36.5 25
t44.5 9t45 -9t36.5 -25t25 -36.5t9.5 -44.5t-9.5 -45t-25 -37t-36.5 -25t-45 -9t-44.5 9t-36.5 25t-25 37t-9 45zM336 848q0 -20 13.5 -34.5t33.5 -14.5t34 14.5t14 34.5t-14 34.5t-34 14.5t-33.5 -14.5t-13.5 -34.5z" />
    <glyph glyph-name="uring" unicode="&#x16f;" horiz-adv-x="603" 
d="M274 -10q-45 0 -83.5 16.5t-66 46t-43.5 69t-16 85.5v313h117v-308q0 -48 31.5 -79.5t82.5 -31.5q27 0 50.5 10t40.5 27t27 41t10 51v290h117v-521h-117v58q-24 -32 -64.5 -49.5t-85.5 -17.5zM186 671q0 24 9 44.5t25 36.5t36.5 25t44.5 9t45 -9t36.5 -25t25 -36.5
t9.5 -44.5t-9.5 -45t-25 -37t-36.5 -25t-45 -9t-44.5 9t-36.5 25t-25 37t-9 45zM254 671q0 -20 13.5 -34.5t33.5 -14.5t34 14.5t14 34.5t-14 34.5t-34 14.5t-33.5 -14.5t-13.5 -34.5z" />
    <glyph glyph-name="Uhungarumlaut" unicode="&#x170;" horiz-adv-x="767" 
d="M83 700h117v-441q0 -33 14.5 -62t39 -51t58 -34.5t70.5 -12.5q38 0 71.5 12.5t58.5 34.5t39.5 51t14.5 62v441h117v-443q0 -55 -24 -104t-65 -85.5t-95.5 -57.5t-116.5 -21q-61 0 -115.5 21t-95.5 57.5t-64.5 85.5t-23.5 104v443zM217 764l84 171l111 -37l-114 -134h-81z
M430 764l84 171l111 -37l-114 -134h-81z" />
    <glyph glyph-name="uhungarumlaut" unicode="&#x171;" horiz-adv-x="603" 
d="M274 -10q-45 0 -83.5 16.5t-66 46t-43.5 69t-16 85.5v313h117v-308q0 -48 31.5 -79.5t82.5 -31.5q27 0 50.5 10t40.5 27t27 41t10 51v290h117v-521h-117v58q-24 -32 -64.5 -49.5t-85.5 -17.5zM134 574l84 171l111 -37l-114 -134h-81zM347 574l84 171l111 -37l-114 -134
h-81z" />
    <glyph glyph-name="Uogonek" unicode="&#x172;" horiz-adv-x="767" 
d="M342 -8q-54 7 -101 30.5t-82 58.5t-55 80.5t-20 95.5v443h117v-441q0 -33 14.5 -62t39 -51t58 -34.5t70.5 -12.5q38 0 71.5 12.5t58.5 34.5t39.5 51t14.5 62v441h117v-443q0 -51 -20.5 -96.5t-56 -81t-83.5 -59t-104 -29.5q-3 -1 -7 -5q-12 -11 -16 -26t1 -30
q4 -19 18.5 -31t34.5 -12q29 0 48 19l35 -51q-41 -37 -89 -37q-26 0 -48 9t-38 24.5t-25 37t-9 46.5q0 32 17 57z" />
    <glyph glyph-name="uogonek" unicode="&#x173;" horiz-adv-x="611" 
d="M427 57q-24 -32 -64.5 -49.5t-85.5 -17.5t-83.5 16.5t-66 46t-43.5 69t-16 85.5v313h117v-308q0 -48 31.5 -79.5t81.5 -31.5q27 0 50.5 10t41 27t27.5 41t10 51v290h117v-521h-1q-21 0 -36 -13q-12 -11 -16 -26.5t2 -30.5q3 -18 17.5 -30t35.5 -12q28 0 47 19l35 -52
q-40 -36 -90 -36q-25 0 -47 9t-38 24.5t-25 37t-9 46.5q0 46 33 73l-25 1v48z" />
    <glyph glyph-name="Wcircumflex" unicode="&#x174;" horiz-adv-x="1087" 
d="M601 648l156 -451l175 503h124l-243 -700h-109l-159 457l-161 -457h-109l-244 700h125l175 -504l158 452h112zM494 910h92l135 -159h-98l-83 79l-82 -79h-99z" />
    <glyph glyph-name="wcircumflex" unicode="&#x175;" horiz-adv-x="866" 
d="M486 511l112 -299l114 308h124l-194 -520h-89l-120 320l-119 -320h-90l-195 520h125l115 -308l110 299h107zM383 720h92l135 -159h-98l-83 79l-82 -79h-99z" />
    <glyph glyph-name="Ycircumflex" unicode="&#x176;" horiz-adv-x="697" 
d="M34 700h135l178 -283l178 283h135l-255 -406l1 -294h-118l-1 294zM299 910h92l135 -159h-98l-83 79l-82 -79h-99z" />
    <glyph glyph-name="ycircumflex" unicode="&#x177;" horiz-adv-x="617" 
d="M101 -88q25 -13 45 -13q35 0 55.5 34t39.5 87l-212 500h126l150 -352l150 352h126l-265 -615q-23 -53 -65.5 -82t-91.5 -29q-46 0 -88 27zM259 720h92l135 -159h-98l-83 79l-82 -79h-99z" />
    <glyph glyph-name="Ydieresis" unicode="&#x178;" horiz-adv-x="697" 
d="M34 700h135l178 -283l178 283h135l-255 -406l1 -294h-118l-1 294zM157 814q0 25 17 42t43 17q25 0 42 -17t17 -42t-17 -42.5t-42 -17.5q-26 0 -43 17.5t-17 42.5zM372 814q0 25 17 42t43 17q25 0 42 -17t17 -42t-17 -42.5t-42 -17.5q-26 0 -43 17.5t-17 42.5z" />
    <glyph glyph-name="Zacute" unicode="&#x179;" horiz-adv-x="652" 
d="M39 93l416 501h-407v106h567v-93l-416 -501h403v-106h-563v93zM248 769l84 171l111 -37l-114 -134h-81z" />
    <glyph glyph-name="zacute" unicode="&#x17a;" horiz-adv-x="520" 
d="M481 424l-273 -316h273v-108h-434v96l273 317h-275v108h436v-97zM202 579l84 171l111 -37l-114 -134h-81z" />
    <glyph glyph-name="Zdotaccent" unicode="&#x17b;" horiz-adv-x="652" 
d="M39 93l416 501h-407v106h567v-93l-416 -501h403v-106h-563v93zM263 839q0 25 17 42t42 17t42.5 -17t17.5 -42t-17.5 -42.5t-42.5 -17.5t-42 17.5t-17 42.5z" />
    <glyph glyph-name="zdotaccent" unicode="&#x17c;" horiz-adv-x="520" 
d="M481 424l-273 -316h273v-108h-434v96l273 317h-275v108h436v-97zM201 649q0 25 17 42t42 17t42.5 -17t17.5 -42t-17.5 -42.5t-42.5 -17.5t-42 17.5t-17 42.5z" />
    <glyph glyph-name="Zcaron" unicode="&#x17d;" horiz-adv-x="652" 
d="M39 93l416 501h-407v106h567v-93l-416 -501h403v-106h-563v93zM139 910h98l83 -79l82 79h98l-134 -159h-93z" />
    <glyph glyph-name="zcaron" unicode="&#x17e;" horiz-adv-x="520" 
d="M481 424l-273 -316h273v-108h-434v96l273 317h-275v108h436v-97zM73 720h98l83 -79l82 79h98l-134 -159h-93z" />
    <glyph glyph-name="uni0218" unicode="&#x218;" horiz-adv-x="641" 
d="M125 198q6 -22 22 -40t38 -31t49 -20.5t57 -7.5q32 0 58.5 8.5t46 23t30.5 34.5t11 44q0 42 -36 67.5t-116 42.5q-238 49 -238 204q0 42 17.5 76.5t49.5 59t77 38t100 13.5q92 0 156 -37t87 -103l-87 -40q-12 35 -53 56t-98 21q-62 0 -100.5 -23.5t-38.5 -61.5
q0 -70 163 -106q120 -27 177.5 -77t57.5 -128q0 -48 -20 -88.5t-54.5 -70t-82 -46t-103.5 -16.5q-46 0 -88 12t-75.5 33.5t-58.5 52.5t-38 69zM393 -106q0 -41 -21 -76.5t-62 -61.5l-39 61q13 8 21 20.5t8 29.5q-15 7 -24.5 22t-9.5 33q0 25 17 41.5t43 16.5q32 0 49.5 -25
t17.5 -61z" />
    <glyph glyph-name="uni0219" unicode="&#x219;" horiz-adv-x="515" 
d="M109 152q17 -28 52 -45t75 -17q21 0 39.5 5t32.5 13.5t22 20t8 24.5q0 21 -22 35t-55.5 26t-72 24t-72 30t-55.5 44t-22 66q0 33 15.5 61t43 49t65 32.5t81.5 11.5q72 0 127 -29.5t75 -79.5l-78 -46q-14 27 -45 42t-73 15t-69.5 -15t-28.5 -38q0 -17 22.5 -28.5t56 -22.5
t73 -23.5t73 -32t56 -48t22.5 -71.5q0 -35 -16.5 -65.5t-45.5 -53t-68.5 -35t-86.5 -12.5q-72 0 -129 30t-85 82zM318 -116q0 -41 -21 -76.5t-62 -61.5l-39 61q13 8 21 20.5t8 29.5q-15 7 -24.5 22t-9.5 33q0 25 17 41.5t43 16.5q32 0 49.5 -25t17.5 -61z" />
    <glyph glyph-name="uni021A" unicode="&#x21a;" horiz-adv-x="641" 
d="M592 594h-221v-594h-117v594h-221v106h559v-106zM358 -99q0 -41 -21 -76.5t-62 -61.5l-39 61q13 8 21 20.5t8 29.5q-15 7 -24.5 22t-9.5 33q0 25 17 41.5t43 16.5q32 0 49.5 -25t17.5 -61z" />
    <glyph glyph-name="uni021B" unicode="&#x21b;" horiz-adv-x="417" 
d="M375 15q-37 -26 -95 -26q-82 0 -127 45t-45 127v253h-62v100h62v186h117v-186h79l33 -100h-112l-1 -251q0 -71 72 -71q25 0 49 14zM334 -112q0 -41 -21 -76.5t-62 -61.5l-39 61q13 8 21 20.5t8 29.5q-15 7 -24.5 22t-9.5 33q0 25 17 41.5t43 16.5q32 0 49.5 -25t17.5 -61
z" />
    <glyph glyph-name="uni0237" unicode="&#x237;" horiz-adv-x="285" 
d="M202 -29q0 -84 -45.5 -132t-120.5 -48q-66 0 -113 34l31 94q23 -20 56 -20h11t12 2q26 5 39 23t13 55v540h117v-548z" />
    <glyph glyph-name="circumflex" unicode="&#x2c6;" horiz-adv-x="485" 
d="M196 720h92l135 -159h-98l-83 79l-82 -79h-99z" />
    <glyph glyph-name="caron" unicode="&#x2c7;" horiz-adv-x="491" 
d="M65 720h98l83 -79l82 79h98l-134 -159h-93z" />
    <glyph glyph-name="breve" unicode="&#x2d8;" horiz-adv-x="438" 
d="M131 713q42 -37 89 -37q23 0 43.5 8.5t43.5 28.5l57 -55q-27 -32 -65.5 -50.5t-80.5 -18.5q-41 0 -78 17.5t-66 50.5z" />
    <glyph glyph-name="dotaccent" unicode="&#x2d9;" horiz-adv-x="225" 
d="M53 649q0 25 17 42t42 17t42.5 -17t17.5 -42t-17.5 -42.5t-42.5 -17.5t-42 17.5t-17 42.5z" />
    <glyph glyph-name="ring" unicode="&#x2da;" horiz-adv-x="336" 
d="M53 671q0 24 9 44.5t25 36.5t36.5 25t44.5 9t45 -9t36.5 -25t25 -36.5t9.5 -44.5t-9.5 -45t-25 -37t-36.5 -25t-45 -9t-44.5 9t-36.5 25t-25 37t-9 45zM121 671q0 -20 13.5 -34.5t33.5 -14.5t34 14.5t14 34.5t-14 34.5t-34 14.5t-33.5 -14.5t-13.5 -34.5z" />
    <glyph glyph-name="ogonek" unicode="&#x2db;" horiz-adv-x="285" 
d="M249 -145q-41 -37 -89 -37q-26 0 -48 9t-38 24.5t-25 37t-9 46.5q0 60 56 90l68 -25q-20 0 -36 -14q-12 -11 -16 -26t1 -30q4 -19 18.5 -31t34.5 -12q29 0 48 19z" />
    <glyph glyph-name="tilde" unicode="&#x2dc;" horiz-adv-x="493" 
d="M75 584q0 66 27.5 106.5t71.5 40.5q24 0 44.5 -11t37.5 -24.5t31.5 -24.5t24.5 -11q14 0 22 20t8 51l76 -6q0 -65 -27.5 -106t-70.5 -41q-23 0 -43.5 11t-37.5 24t-31 24t-25 11q-14 0 -23 -20.5t-9 -49.5z" />
    <glyph glyph-name="hungarumlaut" unicode="&#x2dd;" horiz-adv-x="538" 
d="M87 574l84 171l111 -37l-114 -134h-81zM300 574l84 171l111 -37l-114 -134h-81z" />
    <glyph glyph-name="Wgrave" unicode="&#x1e80;" horiz-adv-x="1099" 
d="M607 648l156 -451l175 503h124l-243 -700h-109l-159 457l-161 -457h-109l-244 700h125l175 -504l158 452h112zM388 889l111 37l84 -171h-81z" />
    <glyph glyph-name="wgrave" unicode="&#x1e81;" horiz-adv-x="873" 
d="M490 511l112 -299l114 308h124l-194 -520h-89l-120 320l-119 -320h-90l-195 520h125l115 -308l110 299h107zM278 713l111 37l84 -171h-81z" />
    <glyph glyph-name="Wacute" unicode="&#x1e82;" horiz-adv-x="1100" 
d="M607 648l156 -451l175 503h124l-243 -700h-109l-159 457l-161 -457h-109l-244 700h125l175 -504l158 452h112zM516 755l84 171l111 -37l-114 -134h-81z" />
    <glyph glyph-name="wacute" unicode="&#x1e83;" horiz-adv-x="877" 
d="M492 511l112 -299l114 308h124l-194 -520h-89l-120 320l-119 -320h-90l-195 520h125l115 -308l110 299h107zM406 579l84 171l111 -37l-114 -134h-81z" />
    <glyph glyph-name="Wdieresis" unicode="&#x1e84;" horiz-adv-x="1100" 
d="M607 648l156 -451l175 503h124l-243 -700h-109l-159 457l-161 -457h-109l-244 700h125l175 -504l158 452h112zM384 827q0 25 17 42t43 17q25 0 42 -17t17 -42t-17 -42.5t-42 -17.5q-26 0 -43 17.5t-17 42.5zM599 827q0 25 17 42t43 17q25 0 42 -17t17 -42t-17 -42.5
t-42 -17.5q-26 0 -43 17.5t-17 42.5z" />
    <glyph glyph-name="wdieresis" unicode="&#x1e85;" horiz-adv-x="864" 
d="M485 511l112 -299l114 308h124l-194 -520h-89l-120 320l-119 -320h-90l-195 520h125l115 -308l110 299h107zM266 649q0 25 17 42t43 17q25 0 42 -17t17 -42t-17 -42.5t-42 -17.5q-26 0 -43 17.5t-17 42.5zM481 649q0 25 17 42t43 17q25 0 42 -17t17 -42t-17 -42.5
t-42 -17.5q-26 0 -43 17.5t-17 42.5z" />
    <glyph glyph-name="endash" unicode="&#x2013;" horiz-adv-x="525" 
d="M475 308v-105h-425v105h425z" />
    <glyph glyph-name="emdash" unicode="&#x2014;" horiz-adv-x="996" 
d="M945 312v-105h-894v105h894z" />
    <glyph glyph-name="quoteleft" unicode="&#x2018;" horiz-adv-x="220" 
d="M35 575q0 49 24.5 91.5t72.5 71.5l42 -67q-17 -11 -27 -27.5t-10 -35.5q22 -8 35.5 -26.5t13.5 -41.5q0 -30 -21.5 -51t-50.5 -21q-35 0 -57 29.5t-22 77.5z" />
    <glyph glyph-name="quoteright" unicode="&#x2019;" horiz-adv-x="216" 
d="M184 632q0 -49 -24.5 -91.5t-72.5 -71.5l-42 67q17 11 27 27.5t10 35.5q-22 8 -35.5 26.5t-13.5 41.5q0 30 21.5 51t50.5 21q35 0 57 -29.5t22 -77.5z" />
    <glyph glyph-name="quotesinglbase" unicode="&#x201a;" horiz-adv-x="291" 
d="M145 -159q-12 23 -24.5 48.5t-23 49.5t-17 45t-6.5 35q0 31 20 49.5t52 18.5t51.5 -19t19.5 -50q0 -14 -7 -35t-17.5 -45t-23 -49.5t-24.5 -47.5z" />
    <glyph glyph-name="quotedblleft" unicode="&#x201c;" horiz-adv-x="442" 
d="M44 574q0 50 24.5 92.5t72.5 71.5l42 -68q-17 -11 -27 -27.5t-10 -35.5q22 -7 35.5 -26t13.5 -42q0 -30 -21.5 -50.5t-50.5 -20.5q-35 0 -57 29t-22 77zM236 574q0 50 24.5 92.5t72.5 71.5l42 -68q-17 -11 -27 -27.5t-10 -35.5q22 -7 35.5 -26t13.5 -42
q0 -30 -21.5 -50.5t-50.5 -20.5q-35 0 -57 29t-22 77z" />
    <glyph glyph-name="quotedblright" unicode="&#x201d;" horiz-adv-x="443" 
d="M197 632q0 -49 -24.5 -91.5t-72.5 -71.5l-42 67q17 11 27 27.5t10 35.5q-22 8 -35.5 26.5t-13.5 41.5q0 30 21.5 51t50.5 21q35 0 57 -29.5t22 -77.5zM389 632q0 -50 -24.5 -92.5t-72.5 -71.5l-42 68q17 11 27 27.5t10 35.5q-22 7 -35.5 26t-13.5 42q0 30 21.5 50.5
t50.5 20.5q35 0 57 -29t22 -77z" />
    <glyph glyph-name="quotedblbase" unicode="&#x201e;" horiz-adv-x="482" 
d="M148 -160q-12 23 -24.5 48.5t-23 49.5t-17 45t-6.5 35q0 31 19.5 49.5t51.5 18.5t52 -19t20 -50q0 -14 -7 -35t-17.5 -45t-23 -49.5t-24.5 -47.5zM334 -160q-12 23 -24.5 48.5t-23 49.5t-17 45t-6.5 35q0 31 19.5 49.5t51.5 18.5t52 -19t20 -50q0 -14 -7 -35t-17.5 -45
t-23 -49.5t-24.5 -47.5z" />
    <glyph glyph-name="dagger" unicode="&#x2020;" horiz-adv-x="490" 
d="M303 510h137v-104h-137v-506h-116v506h-136v104h136v190h116v-190z" />
    <glyph glyph-name="daggerdbl" unicode="&#x2021;" horiz-adv-x="485" 
d="M48 511h136v190h117v-190h137v-105h-137v-161h84v-104h-84v-241h-117v241h-84v104h84v161h-136v105z" />
    <glyph glyph-name="bullet" unicode="&#x2022;" horiz-adv-x="411" 
d="M76 302q0 27 10 50.5t27.5 41.5t41 28t50.5 10t50.5 -10t41.5 -28t28 -41.5t10 -50.5t-10 -51t-28 -42t-41.5 -28t-50.5 -10t-50.5 10t-41 28t-27.5 42t-10 51z" />
    <glyph glyph-name="ellipsis" unicode="&#x2026;" horiz-adv-x="726" 
d="M67 63q0 30 21.5 51t51.5 21q29 0 50 -21t21 -51q0 -29 -21 -50.5t-50 -21.5q-30 0 -51.5 21.5t-21.5 50.5zM293 63q0 30 21.5 51t51.5 21q29 0 50 -21t21 -51q0 -29 -21 -50.5t-50 -21.5q-30 0 -51.5 21.5t-21.5 50.5zM516 63q0 30 21.5 51t51.5 21q29 0 50 -21t21 -51
q0 -29 -21 -50.5t-50 -21.5q-30 0 -51.5 21.5t-21.5 50.5z" />
    <glyph glyph-name="perthousand" unicode="&#x2030;" horiz-adv-x="1223" 
d="M594 700h112l-459 -701h-110zM132 538q0 -16 6.5 -30.5t17 -25.5t24.5 -17.5t30 -6.5t30 6.5t24.5 17.5t17 25.5t6.5 30.5q0 34 -23 58t-55 24t-55 -24t-23 -58zM41 538q0 36 13.5 67t36.5 54t54 36.5t65 13.5q35 0 66 -13.5t54 -36.5t36 -54.5t13 -66.5t-13 -65.5
t-36 -53.5t-54 -36.5t-66 -13.5t-65.5 13.5t-53.5 36.5t-36.5 53.5t-13.5 65.5zM710 160q0 34 -23 58t-55 24q-16 0 -30 -6.5t-24.5 -18t-17 -26t-6.5 -31.5q0 -16 6.5 -31t17 -26t24.5 -17.5t30 -6.5t30 6.5t24.5 17.5t17 26t6.5 31zM801 160q0 -35 -13 -66t-36 -54
t-54 -36.5t-66 -13.5t-65.5 13.5t-53.5 36.5t-36.5 54t-13.5 66q0 36 13.5 67t36.5 54t54 36.5t65 13.5q35 0 65.5 -13.5t53.5 -36.5t36.5 -54t13.5 -67zM1106 160q0 17 -6 32t-16.5 26t-25 17.5t-30.5 6.5q-15 0 -29 -6.5t-24.5 -18t-17 -26t-6.5 -31.5q0 -33 22.5 -57
t54.5 -24t55 24t23 57zM1197 160q0 -35 -13 -66t-36 -54t-54 -36.5t-66 -13.5q-34 0 -65 13.5t-53.5 36.5t-36 54t-13.5 66q0 36 13.5 67t36.5 54t53.5 36.5t64.5 13.5q35 0 65.5 -13.5t53.5 -36.5t36.5 -54t13.5 -67z" />
    <glyph glyph-name="guilsinglleft" unicode="&#x2039;" horiz-adv-x="359" 
d="M166 258l145 -171l-81 -46l-190 217l189 217l82 -46z" />
    <glyph glyph-name="guilsinglright" unicode="&#x203a;" horiz-adv-x="359" 
d="M128 475l189 -217l-190 -217l-81 46l145 171l-145 171z" />
    <glyph glyph-name="fraction" unicode="&#x2044;" horiz-adv-x="425" 
d="M457 701l-404 -701h-85l405 701h84z" />
    <glyph glyph-name="franc" unicode="&#x20a3;" horiz-adv-x="652" 
d="M99 701h504v-106h-386v-163h340v-106h-340v-84h145v-93h-145v-148h-118v148h-47v93h47v459z" />
    <glyph glyph-name="lira" unicode="&#x20a4;" horiz-adv-x="645" 
d="M391 601q-38 0 -64.5 -9.5t-43 -26t-24.5 -39t-8 -47.5v-44h204v-94h-204v-57h204v-94h-204v-84h355v-106h-473v190h-60v94h60v57h-60v94h60v26q0 121 60.5 185t190.5 64q70 0 119 -21t94 -74l-34 -104q-21 25 -39.5 42.5t-39 28t-43 15t-50.5 4.5z" />
    <glyph glyph-name="Euro" unicode="&#x20ac;" horiz-adv-x="636" 
d="M273 225q12 -26 29.5 -49t40 -40t49 -27t56.5 -10q52 0 92 23l55 -92q-38 -23 -78.5 -31.5t-83.5 -8.5q-51 1 -97 21t-83.5 52t-65 74t-41.5 88h-94v93h74q-1 9 -1.5 16.5t-0.5 14.5q0 8 0.5 16.5t1.5 16.5h-74v93h95q15 48 43.5 90.5t67.5 74.5t86.5 50.5t100.5 18.5
q39 0 79 -11t68 -29l-54 -93q-39 24 -90 24q-30 0 -56 -9.5t-48 -26.5t-40 -40t-31 -49h192v-93h-221q-3 -18 -3 -33q0 -8 0.5 -15.5t1.5 -15.5h222v-93h-192z" />
    <glyph glyph-name="uni20B9" unicode="&#x20b9;" horiz-adv-x="603" 
d="M332 526q-13 29 -43.5 49t-75.5 20h-125v106h458v-106h-121q23 -29 31 -69h90v-85h-89q-7 -34 -25.5 -65.5t-45 -55.5t-60 -38t-71.5 -14h-19l234 -267h-149l-232 264v105h127q42 0 73 20.5t44 50.5h-245v85h244z" />
    <glyph glyph-name="trademark" unicode="&#x2122;" horiz-adv-x="702" 
d="M283 647h-82v-251h-62v251h-92v53h254zM461 521l-60 75v-200h-62v304h57l91 -115l93 115h57v-304h-61v201l-63 -76h-52z" />
    <glyph glyph-name="minus" unicode="&#x2212;" horiz-adv-x="595" 
d="M519 403v-106h-443v106h443z" />
    <glyph glyph-name="commaaccent" horiz-adv-x="255" 
d="M193 -106q0 -41 -21 -76.5t-62 -61.5l-39 61q13 8 21 20.5t8 29.5q-15 7 -24.5 22t-9.5 33q0 25 17 41.5t43 16.5q32 0 49.5 -25t17.5 -61z" />
    <glyph glyph-name="A.alt1" horiz-adv-x="729" 
d="M435 198h-200l-78 -198h-125l276 701h114l276 -701h-126l-207 529l-90 -228h120z" />
    <glyph glyph-name="B.alt1" horiz-adv-x="660" 
d="M287 436h68q33 0 57 24.5t24 57.5q0 34 -25.5 55.5t-61.5 21.5h-143l-1 -594h-117v700h260q42 0 79.5 -13t65.5 -37t44 -57t16 -73q0 -38 -15 -71.5t-43 -56.5q48 -32 74.5 -76.5t26.5 -98.5q0 -48 -21.5 -88t-57.5 -68.5t-83 -44.5t-99 -16h-80l32 106h48q27 0 53 8.5
t46.5 24.5t32.5 37.5t12 46.5q0 24 -10 43.5t-26.5 33.5t-38.5 22t-47 8h-102z" />
    <glyph glyph-name="D.alt1" horiz-adv-x="745" 
d="M286 106h26q58 0 105 18.5t80 51t51 77t18 97.5t-18 98t-51 77.5t-80 51t-105 18.5h-109v-595h-118v701h227q82 0 150.5 -27t117.5 -74.5t76.5 -111.5t27.5 -139t-27 -138.5t-76.5 -110.5t-117.5 -73.5t-151 -26.5h-58z" />
    <glyph glyph-name="P.alt1" horiz-adv-x="653" 
d="M282 369h83q25 0 48 9t40 25t27.5 36.5t10.5 42.5q0 24 -9.5 44.5t-27 36t-40.5 24t-50 8.5h-164v-595h-118v701h282q52 0 96.5 -17t77.5 -46t52 -69t19 -87q0 -44 -19.5 -84t-53 -70t-77.5 -47.5t-94 -17.5h-115z" />
    <glyph glyph-name="R.alt1" horiz-adv-x="671" 
d="M279 370h82q27 0 51 9t42 24.5t28 36.5t10 45q0 48 -37 78.5t-96 30.5h-159v-593h-118v699h278q54 0 100 -16.5t79 -45t52 -68t19 -85.5q0 -42 -16 -79.5t-44.5 -66.5t-67 -47.5t-84.5 -23.5h-10l229 -267h-145l-225 263z" />
    <glyph glyph-name="Q.alt1" horiz-adv-x="799" 
d="M701 62l-81 -82l-53 54q-39 -24 -81.5 -34t-84.5 -10q-73 0 -137 28t-112 77t-75.5 114.5t-27.5 140.5q0 74 28.5 139t76.5 114.5t111 78t133 28.5q74 0 138.5 -28.5t112 -77t75 -114t27.5 -139.5q0 -57 -16 -109.5t-47 -97.5l-85 85q14 28 21.5 56.5t8.5 64.5
q0 50 -18.5 95.5t-50 80t-74 55t-90.5 20.5t-90 -19.5t-73.5 -53.5t-50 -79.5t-18.5 -98.5q0 -52 19 -98t51 -80t74.5 -54t88.5 -20q24 0 43.5 5t38.5 15l-87 88l81 81z" />
    <glyph glyph-name="a.alt1" horiz-adv-x="651" 
d="M466 260q0 34 -12 63.5t-33 51.5t-49 34.5t-61 12.5q-32 0 -60 -12.5t-48.5 -34.5t-32.5 -52t-12 -64t11.5 -63.5t32 -51t48 -33.5t59.5 -12q40 0 78 24l31 -97q-26 -18 -57.5 -27t-64.5 -9q-52 0 -98.5 21.5t-81.5 59t-55.5 87t-20.5 105.5q0 55 20.5 103.5t55.5 84.5
t82 57t100 21q50 0 93 -18.5t75 -54.5v64h117v-520h-117v260z" />
    <glyph glyph-name="b.alt1" horiz-adv-x="651" 
d="M188 260v-260h-117v701h117v-245q32 36 74.5 54.5t92.5 18.5q54 0 101 -21t82 -57t55.5 -84.5t20.5 -103.5q0 -56 -20.5 -105.5t-56 -87t-82 -59t-98.5 -21.5q-33 0 -64.5 9t-57.5 27l31 97q38 -24 78 -24q32 0 60 12t48.5 33.5t32 51t11.5 63.5t-12 64t-33 52t-49 34.5
t-60 12.5q-33 0 -61 -12.5t-48.5 -34.5t-32.5 -51.5t-12 -63.5z" />
    <glyph glyph-name="d.alt1" horiz-adv-x="651" 
d="M464 260q0 34 -12 63.5t-33 51.5t-49 34.5t-61 12.5q-32 0 -60 -12.5t-48.5 -34.5t-32.5 -52t-12 -64t11.5 -63.5t32 -51t48 -33.5t59.5 -12q40 0 78 24l31 -97q-26 -18 -57.5 -27t-64.5 -9q-52 0 -98.5 21.5t-81.5 59t-55.5 87t-20.5 105.5q0 55 20.5 103.5t55.5 84.5
t82 57t100 21q50 0 93 -18.5t75 -54.5v245h117v-701h-117v260z" />
    <glyph glyph-name="e.alt1" horiz-adv-x="601" 
d="M511 85q-40 -48 -93 -71t-110 -23q-69 0 -132.5 34t-102.5 100q-28 49 -34.5 102t7 102.5t45.5 92t81 70.5q65 37 138 37q41 0 80 -12t72.5 -35t60 -55.5t41.5 -74.5l-321 -185l-21 98l193 112q-46 46 -107 46q-40 0 -73 -20q-28 -16 -47 -42.5t-27.5 -57t-5 -63
t19.5 -61.5q22 -41 60 -61.5t80 -20.5q35 0 67.5 15t55.5 46z" />
    <glyph glyph-name="g.alt1" horiz-adv-x="642" 
d="M450 261q0 34 -11.5 63t-31.5 50.5t-47 33.5t-59 12q-31 0 -58 -12t-47 -33t-31 -50t-11 -63t11.5 -63t31.5 -50t48.5 -32.5t62.5 -11.5q15 0 28.5 3.5t33.5 14.5l30 -96q-53 -31 -112 -31q-51 0 -96.5 21.5t-80 58.5t-55 86t-20.5 104q0 54 20 102t54 83.5t79.5 56
t97.5 20.5q94 0 163 -71v62h118v-490q0 -53 -19.5 -97.5t-55 -76.5t-84 -50.5t-106.5 -18.5q-116 0 -193 80l33 95q23 -32 63.5 -50.5t87.5 -18.5q34 0 62.5 10.5t49.5 28.5t32.5 43t11.5 55v232z" />
    <glyph glyph-name="p.alt1" 
d="M187 260v-455h-117v715h117v-64q32 36 75 54.5t93 18.5q54 0 101 -21t82 -57t55.5 -84.5t20.5 -104.5q0 -55 -20.5 -104.5t-55.5 -87t-81.5 -59t-98.5 -21.5q-34 0 -65.5 9.5t-57.5 26.5l31 97q38 -24 78 -24q32 0 60 12t48.5 33.5t32 51t11.5 63.5t-12 64t-33 52
t-49 34.5t-60 12.5q-33 0 -61 -12.5t-49 -34.5t-33 -51.5t-12 -63.5z" />
    <glyph glyph-name="q.alt1" 
d="M462 260q0 34 -12 63.5t-33 51.5t-49 34.5t-60 12.5q-33 0 -61 -12.5t-48.5 -34.5t-32.5 -52t-12 -64t11.5 -63.5t32 -51t48.5 -33.5t60 -12q39 0 77 24l32 -97q-26 -17 -58 -26.5t-65 -9.5q-52 0 -98.5 21.5t-81.5 59t-55.5 87t-20.5 104.5q0 56 20.5 104.5t55.5 84.5
t82 57t101 21q50 0 92.5 -18.5t74.5 -54.5v64h117v-715h-117v455z" />
  </font>
</defs>
</svg>
