<svg id="Logo" xmlns="http://www.w3.org/2000/svg" viewBox="0 0 131.91 120"><defs><style>.cls-1{fill:#191919;}</style></defs><title>AsfaltoAscariLogoVectorB</title><path class="cls-1" d="M143.45,83.13A31.38,31.38,0,0,0,115,65h0l56,120h20Z" transform="translate(-59.04 -65)"/><polygon class="cls-1" points="43.46 26.81 86.91 120 106.91 120 53.46 5.36 43.46 26.81"/><path class="cls-1" d="M82.1,135.56h28.46a5,5,0,0,0,4.52-7.12L100.17,96.81Z" transform="translate(-59.04 -65)"/><path class="cls-1" d="M98,179.32l18.08-38.76H87.64a5,5,0,0,0-4.52,7.13Z" transform="translate(-59.04 -65)"/><path class="cls-1" d="M59,185h29.1a5,5,0,0,0,4.52-7.13L77.43,145.56Z" transform="translate(-59.04 -65)"/><path class="cls-1" d="M143.23,65.81v-.64h2.61v.64h-.94v2.91h-.72V65.81Z" transform="translate(-59.04 -65)"/><path class="cls-1" d="M146.29,68.72V65.17h1.23l.62,2.59.63-2.59H150v3.55h-.72V66h-.08l-.69,2.59h-.73L147.09,66H147v2.75Z" transform="translate(-59.04 -65)"/></svg>